<svg version="1.1" xmlns="http://www.w3.org/2000/svg" xmlns:xlink="http://www.w3.org/1999/xlink" width="514.109" height="376.95208" viewBox="0,0,514.109,376.95208"><defs><linearGradient x1="420.19816" y1="78.9" x2="485.19816" y2="78.9" gradientUnits="userSpaceOnUse" id="color-1"><stop offset="0" stop-color="#000000" stop-opacity="0"/><stop offset="1" stop-color="#000000"/></linearGradient></defs><g transform="translate(23.02932,7)"><g data-paper-data="{&quot;isPaintingLayer&quot;:true}" fill-rule="nonzero" stroke="none" stroke-width="0" stroke-linecap="butt" stroke-linejoin="miter" stroke-miterlimit="10" stroke-dasharray="" stroke-dashoffset="0" style="mix-blend-mode: normal"><path d="M-1.48353,365.13581v-367.87616h486.68168v367.87616z" fill="#aaaaaa"/><path d="M136.85107,220.58299v-32.61994h96.52821v32.61994z" fill="#ff5d5d"/><path d="M484.82634,186.46168v181.12699h-103.5v-181.12699z" data-paper-data="{&quot;index&quot;:null}" fill="#000000"/><path d="M-23.02932,334.17378h355.22079v35.7783h-355.22079z" data-paper-data="{&quot;index&quot;:null}" fill="#000000"/><path d="M491.07968,114.43607v252.12546h-73.8783v-252.12546z" data-paper-data="{&quot;index&quot;:null}" fill="#000000"/><path d="M284.14851,368.94393v-70.16667h47.5v70.16667z" fill="#000000"/><path d="M230.64851,285.45207v-98.89524h12.5v98.89524z" fill="#000000"/><path d="M242.06518,254.39493v-67.93333h140.33333v67.93333c0,0 -2.2798,-48.95197 -70.71789,-48.95197c-66.00644,0 -69.61545,48.95197 -69.61545,48.95197z" fill="#000000"/><path d="M-8.52932,354.78541v-361.78541h100.66667v361.78541z" fill="#000000"/><path d="M79.16934,135.15937v-14.33334h110.19047v14.33334z" fill="#000000"/><path d="M125.64851,285.45207v-12.56191h117.5v12.56191z" fill="#000000"/><path d="M125.64851,285.45207v-98.89524h12.83333v98.89524z" fill="#000000"/><path d="M175.64851,222.45207v-101.56191h13.83333v101.56191z" fill="#000000"/><path d="M229.39851,89.69393v-93.16667h34.75v93.16667z" fill="#000000"/><path d="M37.97068,66.4v-72.5h226.5v72.5z" fill="#000000"/><path d="M263.89851,111.69393v-115.16667h34.75v115.16667z" fill="#000000"/><path d="M84.97068,125.9v-67h54v67z" fill="#000000"/><path d="M396.32634,192.9v-122h22.5v122z" fill="#000000"/><path d="M286.82634,28.4v-32.5h201.5v32.5z" fill="#000000"/><path d="M289.47634,137.81v-49h9.2v49z" fill="#000000"/><path d="M457.65967,60.21v-50h30.46667v50z" fill="#000000"/><path d="M420.19816,134.4v-111h65v111z" fill="url(#color-1)"/><path d="M187.29866,333.66749v-32.61994h96.52821v32.61995z" fill="#5479ff"/><path d="M125.37273,284.62163h-32.61994l0,-96.52821l32.61995,0z" fill="#ffed48"/><path d="M91.29866,333.66749v-32.61994h96.52821v32.61995z" fill="#5479ff"/><path d="M225.45219,189.28653l-32.61994,0v-96.52821h32.61994z" fill="#72ff4e"/><path d="M395.90632,105.21245v32.61994h-96.52821v-32.61994z" fill="#72ff4e"/><path d="M299.29866,104.86749v-32.61994h96.52821v32.61995z" fill="#5479ff"/><path d="M136.85107,271.58299v-32.61994h96.52821v32.61994z" fill="#ff5d5d"/><path d="M263.92514,186.53712l-32.61994,0v-96.52821h32.61994z" fill="#ff5d5d"/></g></g></svg>