<svg version="1.1" xmlns="http://www.w3.org/2000/svg" xmlns:xlink="http://www.w3.org/1999/xlink" width="441.25001" height="361.44318" viewBox="0,0,441.25001,361.44318"><defs><linearGradient x1="145.31555" y1="-9.23822" x2="121.84889" y2="-9.23822" gradientUnits="userSpaceOnUse" id="color-1"><stop offset="0" stop-color="#ff0000"/><stop offset="1" stop-color="#c30000"/></linearGradient><linearGradient x1="145.31555" y1="11.76179" x2="121.84889" y2="11.76179" gradientUnits="userSpaceOnUse" id="color-2"><stop offset="0" stop-color="#ff0000"/><stop offset="1" stop-color="#c30000"/></linearGradient><linearGradient x1="145.31555" y1="32.76178" x2="121.84889" y2="32.76178" gradientUnits="userSpaceOnUse" id="color-3"><stop offset="0" stop-color="#ff0000"/><stop offset="1" stop-color="#c30000"/></linearGradient><linearGradient x1="145.31555" y1="53.76178" x2="121.84889" y2="53.76178" gradientUnits="userSpaceOnUse" id="color-4"><stop offset="0" stop-color="#ff0000"/><stop offset="1" stop-color="#c30000"/></linearGradient><linearGradient x1="145.31555" y1="74.76178" x2="121.84889" y2="74.76178" gradientUnits="userSpaceOnUse" id="color-5"><stop offset="0" stop-color="#ff0000"/><stop offset="1" stop-color="#c30000"/></linearGradient><linearGradient x1="145.31555" y1="95.76178" x2="121.84889" y2="95.76178" gradientUnits="userSpaceOnUse" id="color-6"><stop offset="0" stop-color="#ff0000"/><stop offset="1" stop-color="#c30000"/></linearGradient><linearGradient x1="145.31555" y1="116.76178" x2="121.84889" y2="116.76178" gradientUnits="userSpaceOnUse" id="color-7"><stop offset="0" stop-color="#ff0000"/><stop offset="1" stop-color="#c30000"/></linearGradient><linearGradient x1="340.66812" y1="-9.23822" x2="364.13478" y2="-9.23822" gradientUnits="userSpaceOnUse" id="color-8"><stop offset="0" stop-color="#ff0000"/><stop offset="1" stop-color="#c30000"/></linearGradient><linearGradient x1="340.66812" y1="11.76179" x2="364.13478" y2="11.76179" gradientUnits="userSpaceOnUse" id="color-9"><stop offset="0" stop-color="#ff0000"/><stop offset="1" stop-color="#c30000"/></linearGradient><linearGradient x1="340.66812" y1="32.76178" x2="364.13478" y2="32.76178" gradientUnits="userSpaceOnUse" id="color-10"><stop offset="0" stop-color="#ff0000"/><stop offset="1" stop-color="#c30000"/></linearGradient><linearGradient x1="340.66812" y1="53.76178" x2="364.13478" y2="53.76178" gradientUnits="userSpaceOnUse" id="color-11"><stop offset="0" stop-color="#ff0000"/><stop offset="1" stop-color="#c30000"/></linearGradient><linearGradient x1="340.66812" y1="74.76178" x2="364.13478" y2="74.76178" gradientUnits="userSpaceOnUse" id="color-12"><stop offset="0" stop-color="#ff0000"/><stop offset="1" stop-color="#c30000"/></linearGradient><linearGradient x1="340.66812" y1="95.76178" x2="364.13478" y2="95.76178" gradientUnits="userSpaceOnUse" id="color-13"><stop offset="0" stop-color="#ff0000"/><stop offset="1" stop-color="#c30000"/></linearGradient><linearGradient x1="340.66812" y1="116.76178" x2="364.13478" y2="116.76178" gradientUnits="userSpaceOnUse" id="color-14"><stop offset="0" stop-color="#ff0000"/><stop offset="1" stop-color="#c30000"/></linearGradient><linearGradient x1="29.83336" y1="297.7383" x2="29.83336" y2="325.70496" gradientUnits="userSpaceOnUse" id="color-15"><stop offset="0" stop-color="#ff0000"/><stop offset="1" stop-color="#c30000"/></linearGradient><linearGradient x1="50.83335" y1="301.4883" x2="50.83335" y2="329.45496" gradientUnits="userSpaceOnUse" id="color-16"><stop offset="0" stop-color="#ff0000"/><stop offset="1" stop-color="#c30000"/></linearGradient><linearGradient x1="71.83334" y1="305.9883" x2="71.83334" y2="333.95496" gradientUnits="userSpaceOnUse" id="color-17"><stop offset="0" stop-color="#ff0000"/><stop offset="1" stop-color="#c30000"/></linearGradient><linearGradient x1="92.83335" y1="309.7383" x2="92.83335" y2="337.70496" gradientUnits="userSpaceOnUse" id="color-18"><stop offset="0" stop-color="#ff0000"/><stop offset="1" stop-color="#c30000"/></linearGradient><linearGradient x1="113.83335" y1="311.9883" x2="113.83335" y2="339.95496" gradientUnits="userSpaceOnUse" id="color-19"><stop offset="0" stop-color="#ff0000"/><stop offset="1" stop-color="#c30000"/></linearGradient><linearGradient x1="134.83335" y1="312.7383" x2="134.83335" y2="340.70496" gradientUnits="userSpaceOnUse" id="color-20"><stop offset="0" stop-color="#ff0000"/><stop offset="1" stop-color="#c30000"/></linearGradient><linearGradient x1="155.83336" y1="313.2383" x2="155.83336" y2="341.20496" gradientUnits="userSpaceOnUse" id="color-21"><stop offset="0" stop-color="#ff0000"/><stop offset="1" stop-color="#c30000"/></linearGradient><linearGradient x1="176.83337" y1="313.2383" x2="176.83337" y2="341.20496" gradientUnits="userSpaceOnUse" id="color-22"><stop offset="0" stop-color="#ff0000"/><stop offset="1" stop-color="#c30000"/></linearGradient><linearGradient x1="197.83337" y1="313.2383" x2="197.83337" y2="341.20496" gradientUnits="userSpaceOnUse" id="color-23"><stop offset="0" stop-color="#ff0000"/><stop offset="1" stop-color="#c30000"/></linearGradient><linearGradient x1="218.83337" y1="313.2383" x2="218.83337" y2="341.20496" gradientUnits="userSpaceOnUse" id="color-24"><stop offset="0" stop-color="#ff0000"/><stop offset="1" stop-color="#c30000"/></linearGradient><linearGradient x1="239.83335" y1="313.2383" x2="239.83335" y2="341.20496" gradientUnits="userSpaceOnUse" id="color-25"><stop offset="0" stop-color="#ff0000"/><stop offset="1" stop-color="#c30000"/></linearGradient><linearGradient x1="29.83336" y1="297.7383" x2="29.83336" y2="325.70496" gradientUnits="userSpaceOnUse" id="color-26"><stop offset="0" stop-color="#ff0000"/><stop offset="1" stop-color="#c30000"/></linearGradient><linearGradient x1="50.83335" y1="301.4883" x2="50.83335" y2="329.45496" gradientUnits="userSpaceOnUse" id="color-27"><stop offset="0" stop-color="#ff0000"/><stop offset="1" stop-color="#c30000"/></linearGradient><linearGradient x1="71.83334" y1="305.9883" x2="71.83334" y2="333.95496" gradientUnits="userSpaceOnUse" id="color-28"><stop offset="0" stop-color="#ff0000"/><stop offset="1" stop-color="#c30000"/></linearGradient><linearGradient x1="92.83335" y1="309.7383" x2="92.83335" y2="337.70496" gradientUnits="userSpaceOnUse" id="color-29"><stop offset="0" stop-color="#ff0000"/><stop offset="1" stop-color="#c30000"/></linearGradient><linearGradient x1="113.83335" y1="311.9883" x2="113.83335" y2="339.95496" gradientUnits="userSpaceOnUse" id="color-30"><stop offset="0" stop-color="#ff0000"/><stop offset="1" stop-color="#c30000"/></linearGradient><linearGradient x1="134.83335" y1="312.7383" x2="134.83335" y2="340.70496" gradientUnits="userSpaceOnUse" id="color-31"><stop offset="0" stop-color="#ff0000"/><stop offset="1" stop-color="#c30000"/></linearGradient><linearGradient x1="155.83336" y1="313.2383" x2="155.83336" y2="341.20496" gradientUnits="userSpaceOnUse" id="color-32"><stop offset="0" stop-color="#ff0000"/><stop offset="1" stop-color="#c30000"/></linearGradient><linearGradient x1="176.83337" y1="313.2383" x2="176.83337" y2="341.20496" gradientUnits="userSpaceOnUse" id="color-33"><stop offset="0" stop-color="#ff0000"/><stop offset="1" stop-color="#c30000"/></linearGradient><linearGradient x1="197.83337" y1="313.2383" x2="197.83337" y2="341.20496" gradientUnits="userSpaceOnUse" id="color-34"><stop offset="0" stop-color="#ff0000"/><stop offset="1" stop-color="#c30000"/></linearGradient><linearGradient x1="218.83337" y1="313.2383" x2="218.83337" y2="341.20496" gradientUnits="userSpaceOnUse" id="color-35"><stop offset="0" stop-color="#ff0000"/><stop offset="1" stop-color="#c30000"/></linearGradient><linearGradient x1="239.83335" y1="313.2383" x2="239.83335" y2="341.20496" gradientUnits="userSpaceOnUse" id="color-36"><stop offset="0" stop-color="#ff0000"/><stop offset="1" stop-color="#c30000"/></linearGradient><linearGradient x1="449.08337" y1="297.7383" x2="449.08337" y2="325.70496" gradientUnits="userSpaceOnUse" id="color-37"><stop offset="0" stop-color="#ff0000"/><stop offset="1" stop-color="#c30000"/></linearGradient><linearGradient x1="428.08338" y1="301.4883" x2="428.08338" y2="329.45496" gradientUnits="userSpaceOnUse" id="color-38"><stop offset="0" stop-color="#ff0000"/><stop offset="1" stop-color="#c30000"/></linearGradient><linearGradient x1="407.08338" y1="305.9883" x2="407.08338" y2="333.95496" gradientUnits="userSpaceOnUse" id="color-39"><stop offset="0" stop-color="#ff0000"/><stop offset="1" stop-color="#c30000"/></linearGradient><linearGradient x1="386.08338" y1="309.7383" x2="386.08338" y2="337.70496" gradientUnits="userSpaceOnUse" id="color-40"><stop offset="0" stop-color="#ff0000"/><stop offset="1" stop-color="#c30000"/></linearGradient><linearGradient x1="365.08338" y1="311.9883" x2="365.08338" y2="339.95496" gradientUnits="userSpaceOnUse" id="color-41"><stop offset="0" stop-color="#ff0000"/><stop offset="1" stop-color="#c30000"/></linearGradient><linearGradient x1="344.08338" y1="312.7383" x2="344.08338" y2="340.70496" gradientUnits="userSpaceOnUse" id="color-42"><stop offset="0" stop-color="#ff0000"/><stop offset="1" stop-color="#c30000"/></linearGradient><linearGradient x1="323.08337" y1="313.2383" x2="323.08337" y2="341.20496" gradientUnits="userSpaceOnUse" id="color-43"><stop offset="0" stop-color="#ff0000"/><stop offset="1" stop-color="#c30000"/></linearGradient><linearGradient x1="302.08336" y1="313.2383" x2="302.08336" y2="341.20496" gradientUnits="userSpaceOnUse" id="color-44"><stop offset="0" stop-color="#ff0000"/><stop offset="1" stop-color="#c30000"/></linearGradient><linearGradient x1="281.08336" y1="313.2383" x2="281.08336" y2="341.20496" gradientUnits="userSpaceOnUse" id="color-45"><stop offset="0" stop-color="#ff0000"/><stop offset="1" stop-color="#c30000"/></linearGradient><linearGradient x1="260.08336" y1="313.2383" x2="260.08336" y2="341.20496" gradientUnits="userSpaceOnUse" id="color-46"><stop offset="0" stop-color="#ff0000"/><stop offset="1" stop-color="#c30000"/></linearGradient></defs><g transform="translate(-18.83335,20.23822)"><g data-paper-data="{&quot;isPaintingLayer&quot;:true}" fill-rule="nonzero" stroke="none" stroke-width="0" stroke-linecap="butt" stroke-linejoin="miter" stroke-miterlimit="10" stroke-dasharray="" stroke-dashoffset="0" style="mix-blend-mode: normal"><path d="M121.84889,-20.23822l23.46667,10.86667l-23.46667,11.13333z" fill="url(#color-1)"/><path d="M121.84889,0.76179l23.46666,10.86666l-23.46666,11.13334z" fill="url(#color-2)"/><path d="M121.84889,21.76178l23.46666,10.86666l-23.46666,11.13334z" fill="url(#color-3)"/><path d="M121.84889,42.76178l23.46666,10.86666l-23.46666,11.13334z" fill="url(#color-4)"/><path d="M121.84889,63.76178l23.46666,10.86666l-23.46666,11.13334z" fill="url(#color-5)"/><path d="M121.84889,84.76178l23.46666,10.86666l-23.46666,11.13334z" fill="url(#color-6)"/><path d="M121.84889,105.76178l23.46667,10.86667l-23.46667,11.13333z" fill="url(#color-7)"/><path d="M364.13478,1.76178l-23.46667,-11.13333l23.46667,-10.86667z" data-paper-data="{&quot;index&quot;:null}" fill="url(#color-8)"/><path d="M364.13478,22.76179l-23.46666,-11.13334l23.46666,-10.86666z" data-paper-data="{&quot;index&quot;:null}" fill="url(#color-9)"/><path d="M364.13478,43.76178l-23.46666,-11.13334l23.46666,-10.86666z" data-paper-data="{&quot;index&quot;:null}" fill="url(#color-10)"/><path d="M364.13478,64.76178l-23.46666,-11.13334l23.46666,-10.86666z" data-paper-data="{&quot;index&quot;:null}" fill="url(#color-11)"/><path d="M364.13478,85.76178l-23.46666,-11.13334l23.46666,-10.86666z" data-paper-data="{&quot;index&quot;:null}" fill="url(#color-12)"/><path d="M364.13478,106.76178l-23.46666,-11.13334l23.46666,-10.86666z" data-paper-data="{&quot;index&quot;:null}" fill="url(#color-13)"/><path d="M364.13478,127.76178l-23.46667,-11.13333l23.46667,-10.86667z" data-paper-data="{&quot;index&quot;:null}" fill="url(#color-14)"/><path d="M18.83336,325.70496l10.86666,-27.96666l11.13334,27.96666z" fill="url(#color-15)"/><path d="M39.83335,329.45496l10.86666,-27.96666l11.13334,27.96666z" fill="url(#color-16)"/><path d="M60.83335,333.95496l10.86666,-27.96666l11.13334,27.96666z" fill="url(#color-17)"/><path d="M81.83334,337.70496l10.86666,-27.96666l11.13334,27.96666z" fill="url(#color-18)"/><path d="M102.83335,339.95496l10.86666,-27.96666l11.13334,27.96666z" fill="url(#color-19)"/><path d="M123.83335,340.70496l10.86667,-27.96667l11.13333,27.96667z" fill="url(#color-20)"/><path d="M144.83336,341.20496l10.86666,-27.96666l11.13334,27.96666z" fill="url(#color-21)"/><path d="M165.83336,341.20496l10.86666,-27.96666l11.13334,27.96666z" fill="url(#color-22)"/><path d="M186.83337,341.20496l10.86666,-27.96666l11.13334,27.96666z" fill="url(#color-23)"/><path d="M207.83337,341.20496l10.86666,-27.96666l11.13334,27.96666z" fill="url(#color-24)"/><path d="M228.83337,341.20496l10.86666,-27.96666l11.13334,27.96666z" fill="url(#color-25)"/><path d="M18.83336,325.70496l10.86666,-27.96666l11.13334,27.96666z" fill="url(#color-26)"/><path d="M39.83335,329.45496l10.86666,-27.96666l11.13334,27.96666z" fill="url(#color-27)"/><path d="M60.83335,333.95496l10.86666,-27.96666l11.13334,27.96666z" fill="url(#color-28)"/><path d="M81.83334,337.70496l10.86666,-27.96666l11.13334,27.96666z" fill="url(#color-29)"/><path d="M102.83335,339.95496l10.86666,-27.96666l11.13334,27.96666z" fill="url(#color-30)"/><path d="M123.83335,340.70496l10.86667,-27.96667l11.13333,27.96667z" fill="url(#color-31)"/><path d="M144.83336,341.20496l10.86666,-27.96666l11.13334,27.96666z" fill="url(#color-32)"/><path d="M165.83336,341.20496l10.86666,-27.96666l11.13334,27.96666z" fill="url(#color-33)"/><path d="M186.83337,341.20496l10.86666,-27.96666l11.13334,27.96666z" fill="url(#color-34)"/><path d="M207.83337,341.20496l10.86666,-27.96666l11.13334,27.96666z" fill="url(#color-35)"/><path d="M228.83337,341.20496l10.86666,-27.96666l11.13334,27.96666z" fill="url(#color-36)"/><path d="M438.08337,325.70496l11.13334,-27.96666l10.86666,27.96666z" data-paper-data="{&quot;index&quot;:null}" fill="url(#color-37)"/><path d="M417.08338,329.45496l11.13334,-27.96666l10.86666,27.96666z" data-paper-data="{&quot;index&quot;:null}" fill="url(#color-38)"/><path d="M396.08338,333.95496l11.13334,-27.96666l10.86666,27.96666z" data-paper-data="{&quot;index&quot;:null}" fill="url(#color-39)"/><path d="M375.08338,337.70496l11.13334,-27.96666l10.86666,27.96666z" data-paper-data="{&quot;index&quot;:null}" fill="url(#color-40)"/><path d="M354.08338,339.95496l11.13334,-27.96666l10.86666,27.96666z" data-paper-data="{&quot;index&quot;:null}" fill="url(#color-41)"/><path d="M333.08338,340.70496l11.13333,-27.96667l10.86667,27.96667z" data-paper-data="{&quot;index&quot;:null}" fill="url(#color-42)"/><path d="M312.08337,341.20496l11.13334,-27.96666l10.86666,27.96666z" data-paper-data="{&quot;index&quot;:null}" fill="url(#color-43)"/><path d="M291.08337,341.20496l11.13334,-27.96666l10.86666,27.96666z" data-paper-data="{&quot;index&quot;:null}" fill="url(#color-44)"/><path d="M270.08336,341.20496l11.13334,-27.96666l10.86666,27.96666z" data-paper-data="{&quot;index&quot;:null}" fill="url(#color-45)"/><path d="M249.08336,341.20496l11.13334,-27.96666l10.86666,27.96666z" data-paper-data="{&quot;index&quot;:null}" fill="url(#color-46)"/></g></g></svg>