<svg version="1.1" xmlns="http://www.w3.org/2000/svg" xmlns:xlink="http://www.w3.org/1999/xlink" width="580.02873" height="131.11754" viewBox="0,0,580.02873,131.11754"><defs><linearGradient x1="367.51273" y1="260.17849" x2="368.62708" y2="377.17318" gradientUnits="userSpaceOnUse" id="color-1"><stop offset="0" stop-color="#000000"/><stop offset="1" stop-color="#ffffff"/></linearGradient><linearGradient x1="425.51487" y1="260.12605" x2="426.62922" y2="377.12074" gradientUnits="userSpaceOnUse" id="color-2"><stop offset="0" stop-color="#000000"/><stop offset="1" stop-color="#ffffff"/></linearGradient><linearGradient x1="483.02179" y1="260.57836" x2="484.13614" y2="377.57306" gradientUnits="userSpaceOnUse" id="color-3"><stop offset="0" stop-color="#000000"/><stop offset="1" stop-color="#ffffff"/></linearGradient><linearGradient x1="541.02391" y1="260.52592" x2="542.13826" y2="377.52061" gradientUnits="userSpaceOnUse" id="color-4"><stop offset="0" stop-color="#000000"/><stop offset="1" stop-color="#ffffff"/></linearGradient><linearGradient x1="136.49938" y1="259.87874" x2="137.61373" y2="376.87343" gradientUnits="userSpaceOnUse" id="color-5"><stop offset="0" stop-color="#000000"/><stop offset="1" stop-color="#ffffff"/></linearGradient><linearGradient x1="194.50151" y1="259.82629" x2="195.61586" y2="376.82098" gradientUnits="userSpaceOnUse" id="color-6"><stop offset="0" stop-color="#000000"/><stop offset="1" stop-color="#ffffff"/></linearGradient><linearGradient x1="252.00845" y1="260.27861" x2="253.12281" y2="377.2733" gradientUnits="userSpaceOnUse" id="color-7"><stop offset="0" stop-color="#000000"/><stop offset="1" stop-color="#ffffff"/></linearGradient><linearGradient x1="310.01059" y1="260.22616" x2="311.12494" y2="377.22085" gradientUnits="userSpaceOnUse" id="color-8"><stop offset="0" stop-color="#000000"/><stop offset="1" stop-color="#ffffff"/></linearGradient><linearGradient x1="599.02604" y1="260.4735" x2="600.14039" y2="377.4682" gradientUnits="userSpaceOnUse" id="color-9"><stop offset="0" stop-color="#000000"/><stop offset="1" stop-color="#ffffff"/></linearGradient><linearGradient x1="78.49938" y1="259.47874" x2="79.61373" y2="376.47343" gradientUnits="userSpaceOnUse" id="color-10"><stop offset="0" stop-color="#000000"/><stop offset="1" stop-color="#ffffff"/></linearGradient></defs><g transform="translate(37.39524,-246.06994)"><g data-paper-data="{&quot;isPaintingLayer&quot;:true}" fill-rule="nonzero" stroke="none" stroke-width="0" stroke-linecap="butt" stroke-linejoin="miter" stroke-miterlimit="10" stroke-dasharray="" stroke-dashoffset="0" style="mix-blend-mode: normal"><path d="M251.61809,376.7876c0,0 0.12753,-130.01865 1.26172,-130.01791c20.47194,0.01329 14.46015,15.93338 29.67935,15.95013c15.96905,0.01758 12.15515,-15.52655 28.32784,-15.5511c0.10382,-0.00016 0.23315,129.55217 0.23315,129.55217z" fill="url(#color-1)"/><path d="M309.62024,376.73516c0,0 0.12753,-130.01865 1.26172,-130.01791c20.47194,0.01329 14.46016,15.93338 29.67935,15.95013c15.96905,0.01758 12.15515,-15.52655 28.32784,-15.5511c0.10381,-0.00016 0.23315,129.55217 0.23315,129.55217z" fill="url(#color-2)"/><path d="M367.12716,377.18748c0,0 0.12753,-130.01865 1.26172,-130.01791c20.47194,0.01329 14.46016,15.93338 29.67935,15.95013c15.96905,0.01758 12.15515,-15.52655 28.32784,-15.5511c0.10381,-0.00016 0.23315,129.55217 0.23315,129.55217z" fill="url(#color-3)"/><path d="M425.12929,377.13503c0,0 0.12753,-130.01865 1.26172,-130.01791c20.47194,0.01329 14.46016,15.93338 29.67935,15.95013c15.96905,0.01758 12.15515,-15.52655 28.32784,-15.5511c0.10381,-0.00016 0.23315,129.55217 0.23315,129.55217z" fill="url(#color-4)"/><path d="M20.60476,376.48785c0,0 0.12753,-130.01865 1.26172,-130.01791c20.47194,0.01329 14.46015,15.93338 29.67935,15.95013c15.96905,0.01758 12.15515,-15.52655 28.32784,-15.5511c0.10382,-0.00016 0.23315,129.55217 0.23315,129.55217z" fill="url(#color-5)"/><path d="M78.60689,376.4354c0,0 0.12753,-130.01865 1.26172,-130.01791c20.47194,0.01329 14.46016,15.93338 29.67935,15.95013c15.96905,0.01758 12.15515,-15.52655 28.32784,-15.5511c0.10381,-0.00016 0.23315,129.55217 0.23315,129.55217z" fill="url(#color-6)"/><path d="M136.11382,376.88772c0,0 0.12753,-130.01865 1.26172,-130.01791c20.47194,0.01329 14.46016,15.93338 29.67935,15.95013c15.96905,0.01758 12.15515,-15.52655 28.32784,-15.5511c0.10381,-0.00016 0.23315,129.55217 0.23315,129.55217z" fill="url(#color-7)"/><path d="M194.11593,376.83527c0,0 0.12753,-130.01865 1.26172,-130.01791c20.47194,0.01329 14.46016,15.93338 29.67935,15.95013c15.96905,0.01758 12.15515,-15.52655 28.32784,-15.5511c0.10381,-0.00016 0.23315,129.55217 0.23315,129.55217z" fill="url(#color-8)"/><path d="M483.13143,377.08261c0,0 0.12753,-130.01865 1.26172,-130.01791c20.47194,0.01329 14.46016,15.93338 29.67935,15.95013c15.96905,0.01758 12.15515,-15.52655 28.32784,-15.5511c0.10381,-0.00016 0.23315,129.55217 0.23315,129.55217z" fill="url(#color-9)"/><path d="M-37.39524,376.08785c0,0 0.12753,-130.01865 1.26172,-130.01791c20.47194,0.01329 14.46015,15.93338 29.67935,15.95013c15.96905,0.01758 12.15515,-15.52655 28.32784,-15.5511c0.10382,-0.00016 0.23315,129.55217 0.23315,129.55217z" fill="url(#color-10)"/></g></g></svg>