<svg version="1.1" xmlns="http://www.w3.org/2000/svg" xmlns:xlink="http://www.w3.org/1999/xlink" width="478.14114" height="444.94639" viewBox="0,0,478.14114,444.94639"><defs><radialGradient cx="239.51424" cy="179.01922" r="239.07057" gradientUnits="userSpaceOnUse" id="color-1"><stop offset="0" stop-color="#c4c4c4"/><stop offset="1" stop-color="#989898"/></radialGradient></defs><g transform="translate(-0.92943,83.61085)"><g data-paper-data="{&quot;isPaintingLayer&quot;:true}" fill-rule="nonzero" stroke="none" stroke-width="0" stroke-linecap="butt" stroke-linejoin="miter" stroke-miterlimit="10" stroke-dasharray="" stroke-dashoffset="0" style="mix-blend-mode: normal"><path d="M0.92943,361.33554v-362.67109h478.14114v362.67109z" fill="url(#color-1)"/><g data-paper-data="{&quot;index&quot;:null}" fill="#989898"><path d="M198.19188,-4.06575l45.96494,11.95053l28.97496,-36.95077l6.04995,18.13512l-29.22633,37.03462l-45.71357,-12.03439z"/><path d="M189.01458,-31.57533l45.96495,11.95053l28.97496,-36.95077l6.04994,18.13511l-29.22633,37.03463l-45.71357,-12.0344z"/><path d="M179.9955,-58.61061l45.96495,11.95053l28.97496,-36.95077l6.04994,18.13511l-29.22633,37.03463l-45.71357,-12.0344z"/></g><g data-paper-data="{&quot;index&quot;:null}" fill="#989898"><path d="M225.40733,77.51439l45.96494,11.95053l28.97496,-36.95077l6.04995,18.13512l-29.22633,37.03462l-45.71357,-12.03439z"/><path d="M216.23002,50.00481l45.96495,11.95053l28.97496,-36.95077l6.04994,18.13511l-29.22633,37.03463l-45.71357,-12.0344z"/><path d="M207.21095,22.96953l45.96495,11.95053l28.97496,-36.95077l6.04994,18.13511l-29.22633,37.03463l-45.71357,-12.0344z"/></g><g data-paper-data="{&quot;index&quot;:null}" fill="#989898"><path d="M252.20733,158.31439l45.96494,11.95053l28.97496,-36.95077l6.04995,18.13512l-29.22633,37.03462l-45.71357,-12.03439z"/><path d="M243.03002,130.80481l45.96495,11.95053l28.97496,-36.95077l6.04994,18.13511l-29.22633,37.03463l-45.71357,-12.0344z"/><path d="M234.01095,103.76953l45.96495,11.95053l28.97496,-36.95077l6.04994,18.13511l-29.22633,37.03463l-45.71357,-12.0344z"/></g></g></g></svg>