<svg version="1.1" xmlns="http://www.w3.org/2000/svg" xmlns:xlink="http://www.w3.org/1999/xlink" width="60.71429" height="56.71429" viewBox="0,0,60.71429,56.71429"><g transform="translate(-209.64287,-151.64287)"><g data-paper-data="{&quot;isPaintingLayer&quot;:true}" fill-rule="nonzero" stroke-linejoin="miter" stroke-miterlimit="10" stroke-dasharray="" stroke-dashoffset="0" style="mix-blend-mode: normal"><path d="M251.98835,180.08215c0,10.07263 -3.99034,18.23811 -8.91267,18.23811c-3.05932,0 -3.82043,-0.14177 -3.82043,-0.14177l-0.13081,-36.49874c0,0 1.27417,0.07228 3.95122,0.16431c5.03981,0.17326 8.91267,8.16547 8.91267,18.23809z" data-paper-data="{&quot;index&quot;:null}" fill="#ff00de" stroke="#000000" stroke-width="2" stroke-linecap="butt"/><path d="M236.92434,198.32026c-4.92234,0 -8.91268,-8.16549 -8.91268,-18.23811c0,-10.07263 3.99035,-18.23809 8.91268,-18.23809c4.92234,0 8.91267,8.16547 8.91267,18.23809c0,10.07263 -3.99034,18.23811 -8.91267,18.23811z" data-paper-data="{&quot;index&quot;:null}" fill="#ff00de" stroke="#000000" stroke-width="2" stroke-linecap="butt"/><path d="M233.79513,182.40718h1.7091v3.35009c0,0 -0.0203,3.62004 -1.91898,3.6814c-1.94037,0.06272 -2.05091,-3.6814 -2.05091,-3.6814v-10.86016c0,0 -0.04329,-4.16885 2.02093,-4.17226c1.83509,-0.00304 1.79904,4.17226 1.79904,4.17226" data-paper-data="{&quot;index&quot;:null}" fill="none" stroke="#940080" stroke-width="2" stroke-linecap="round"/><path d="M240.60529,182.40718h1.7091v3.35009c0,0 -0.02031,3.62007 -1.91899,3.68142c-1.94038,0.0627 -2.05092,-3.68142 -2.05092,-3.68142v-10.86015c0,0 -0.04329,-4.16887 2.02093,-4.17227c1.83509,-0.00303 1.79904,4.17227 1.79904,4.17227" data-paper-data="{&quot;index&quot;:null}" fill="none" stroke="#940080" stroke-width="2" stroke-linecap="round"/><path d="M209.64288,208.35717v-56.71429h60.71429v56.71429z" fill="none" stroke="none" stroke-width="0" stroke-linecap="butt"/></g></g></svg>