<svg version="1.1" xmlns="http://www.w3.org/2000/svg" xmlns:xlink="http://www.w3.org/1999/xlink" width="277.42802" height="233.63668" viewBox="0,0,277.42802,233.63668"><defs><linearGradient x1="242.1737" y1="173.36337" x2="242.1737" y2="200.23064" gradientUnits="userSpaceOnUse" id="color-1"><stop offset="0" stop-color="#ff0000"/><stop offset="1" stop-color="#c30000"/></linearGradient><linearGradient x1="263.13933" y1="174.13275" x2="263.13933" y2="201.00003" gradientUnits="userSpaceOnUse" id="color-2"><stop offset="0" stop-color="#ff0000"/><stop offset="1" stop-color="#c30000"/></linearGradient><linearGradient x1="390.00001" y1="287.50001" x2="390.00001" y2="404.50001" gradientUnits="userSpaceOnUse" id="color-3"><stop offset="0" stop-color="#c50000"/><stop offset="1" stop-color="#ff0000"/></linearGradient><linearGradient x1="448.00003" y1="288.50003" x2="448.00003" y2="405.50003" gradientUnits="userSpaceOnUse" id="color-4"><stop offset="0" stop-color="#c50000"/><stop offset="1" stop-color="#ff0000"/></linearGradient><linearGradient x1="505.50003" y1="290.00003" x2="505.50003" y2="407.00003" gradientUnits="userSpaceOnUse" id="color-5"><stop offset="0" stop-color="#c50000"/><stop offset="1" stop-color="#ff0000"/></linearGradient><linearGradient x1="563.50001" y1="291.00003" x2="563.50001" y2="408.00003" gradientUnits="userSpaceOnUse" id="color-6"><stop offset="0" stop-color="#c50000"/><stop offset="1" stop-color="#ff0000"/></linearGradient></defs><g transform="translate(-229.57965,-173.36335)"><g data-paper-data="{&quot;isPaintingLayer&quot;:true}" fill-rule="nonzero" stroke="none" stroke-width="0" stroke-linecap="butt" stroke-linejoin="miter" stroke-miterlimit="10" stroke-dasharray="" stroke-dashoffset="0" style="mix-blend-mode: normal"><path d="M229.57965,200.23064l12.44139,-26.86729l12.74669,26.86729z" fill="url(#color-1)"/><path d="M250.54528,201.00003l12.44138,-26.86728l12.7467,26.86728z" fill="url(#color-2)"/><path d="M276.38219,403.00001l0.41866,-130c0,0 8.37043,-1.45378 15.28163,3.09247c5.11134,3.36229 6.4736,13.07086 12.94362,13.13961c15.96816,0.16967 12.30248,-15.41008 28.47467,-15.28059c0.10382,0.00083 -1.00076,129.54851 -1.00076,129.54851z" fill="url(#color-3)"/><path d="M331.00003,404.00003c0,0 1.36587,-130.01154 2.5,-130c20.47088,0.20827 14.30775,16.07038 29.52609,16.23208c15.96816,0.16967 12.30248,-15.41008 28.47467,-15.28059c0.10381,0.00083 -1.00076,129.54851 -1.00076,129.54851z" fill="url(#color-4)"/><path d="M388.50003,405.50003c0,0 1.36587,-130.01154 2.5,-130c20.47088,0.20827 14.30775,16.07038 29.52609,16.23208c15.96816,0.16967 12.30248,-15.41008 28.47467,-15.28059c0.10381,0.00083 -1.00076,129.54851 -1.00076,129.54851z" fill="url(#color-5)"/><path d="M446.50003,406.50003c0,0 1.36587,-130.01154 2.5,-130c20.47088,0.20827 14.30775,16.07038 29.52609,16.23208c15.96816,0.16967 12.30248,-15.41008 28.47467,-15.28059c0.10381,0.00083 -1.00076,129.54851 -1.00076,129.54851z" fill="url(#color-6)"/></g></g></svg>