<svg version="1.1" xmlns="http://www.w3.org/2000/svg" xmlns:xlink="http://www.w3.org/1999/xlink" width="356.94687" height="310.09944" viewBox="0,0,356.94687,310.09944"><defs><linearGradient x1="132.18621" y1="199.92814" x2="144.99639" y2="199.92814" gradientUnits="userSpaceOnUse" id="color-1"><stop offset="0" stop-color="#000000" stop-opacity="0"/><stop offset="1" stop-color="#000000" stop-opacity="0.49735"/></linearGradient><radialGradient cx="144.98376" cy="342.16295" r="12.73951" gradientUnits="userSpaceOnUse" id="color-2"><stop offset="0" stop-color="#000000" stop-opacity="0.5"/><stop offset="1" stop-color="#000000" stop-opacity="0"/></radialGradient><linearGradient x1="310.6826" y1="354.95828" x2="310.6826" y2="342.1481" gradientUnits="userSpaceOnUse" id="color-3"><stop offset="0" stop-color="#000000" stop-opacity="0"/><stop offset="1" stop-color="#000000" stop-opacity="0.49735"/></linearGradient><radialGradient cx="476.31855" cy="342.17302" r="12.73951" gradientUnits="userSpaceOnUse" id="color-4"><stop offset="0" stop-color="#000000" stop-opacity="0.5"/><stop offset="1" stop-color="#000000" stop-opacity="0"/></radialGradient><linearGradient x1="489.13308" y1="199.88425" x2="476.32292" y2="199.88425" gradientUnits="userSpaceOnUse" id="color-5"><stop offset="0" stop-color="#000000" stop-opacity="0"/><stop offset="1" stop-color="#000000" stop-opacity="0.49735"/></linearGradient><radialGradient cx="476.34513" cy="57.68698" r="12.73951" gradientUnits="userSpaceOnUse" id="color-6"><stop offset="0" stop-color="#000000" stop-opacity="0.5"/><stop offset="1" stop-color="#000000" stop-opacity="0"/></radialGradient><linearGradient x1="310.65698" y1="44.85884" x2="310.65698" y2="57.66902" gradientUnits="userSpaceOnUse" id="color-7"><stop offset="0" stop-color="#000000" stop-opacity="0"/><stop offset="1" stop-color="#000000" stop-opacity="0.49735"/></linearGradient><radialGradient cx="145.01486" cy="57.64619" r="12.73951" gradientUnits="userSpaceOnUse" id="color-8"><stop offset="0" stop-color="#000000" stop-opacity="0.5"/><stop offset="1" stop-color="#000000" stop-opacity="0"/></radialGradient></defs><g transform="translate(-132.18621,-44.85884)"><g data-paper-data="{&quot;isPaintingLayer&quot;:true}" fill-rule="nonzero" stroke-linecap="butt" stroke-linejoin="miter" stroke-miterlimit="10" stroke-dasharray="" stroke-dashoffset="0" style="mix-blend-mode: normal"><path d="M132.18621,342.19743v-284.53859h12.81018v284.53859z" fill="url(#color-1)" stroke="none" stroke-width="0"/><path d="M146.49872,340.66534v-281.49865h328.33463v281.49865z" fill="#cdcdcd" stroke="#000000" stroke-width="3"/><text transform="translate(169.3464,79.8557) scale(0.39561,0.39561)" font-size="40" xml:space="preserve" fill="#000000" fill-rule="nonzero" stroke="none" stroke-width="1" stroke-linecap="butt" stroke-linejoin="miter" stroke-miterlimit="10" stroke-dasharray="" stroke-dashoffset="0" font-family="Sans Serif" font-weight="normal" text-anchor="start" style="mix-blend-mode: normal"><tspan x="0" dy="0">Music volume:</tspan></text><text transform="translate(337.14673,79.14926) scale(0.39561,0.39561)" font-size="40" xml:space="preserve" fill="#000000" fill-rule="nonzero" stroke="none" stroke-width="1" stroke-linecap="butt" stroke-linejoin="miter" stroke-miterlimit="10" stroke-dasharray="" stroke-dashoffset="0" font-family="Sans Serif" font-weight="normal" text-anchor="start" style="mix-blend-mode: normal"><tspan x="0" dy="0">Sound volume:</tspan></text><path d="M168.28309,97.66669c0,0 -4.8663,0.58668 -4.8,-4.05c0.05773,-4.03726 4.8,-4.28333 4.8,-4.28333h117.66667c0,0 5.37264,-0.09484 5.4,3.98333c0.03135,4.67292 -5.4,4.35 -5.4,4.35z" fill="#d9d9d9" stroke="#000000" stroke-width="1.5"/><path d="M336.41676,97.69527c0,0 -4.8663,0.58668 -4.8,-4.05c0.05773,-4.03726 4.8,-4.28333 4.8,-4.28333h117.66667c0,0 5.37264,-0.09484 5.4,3.98333c0.03135,4.67292 -5.4,4.35 -5.4,4.35z" fill="#d9d9d9" stroke="#000000" stroke-width="1.5"/><path d="M132.24424,342.16295c6.88109,0.00108 12.7631,0.01847 12.7631,0.01847c0,0 -0.01628,5.03982 -0.0236,12.72104c-7.03583,0 -12.7395,-5.70367 -12.7395,-12.73951z" fill="url(#color-2)" stroke="none" stroke-width="0"/><path d="M476.35035,354.95828h-331.33549v-12.81018h331.33549z" fill="url(#color-3)" stroke="none" stroke-width="0"/><path d="M476.31855,354.91252c0.00108,-6.8811 0.01847,-12.7631 0.01847,-12.7631c0,0 5.03981,0.01628 12.72103,0.0236c0,7.03584 -5.70367,12.73951 -12.73951,12.73951z" fill="url(#color-4)" stroke="none" stroke-width="0"/><path d="M489.13308,57.61497v284.53859h-12.81019v-284.53858z" fill="url(#color-5)" stroke="none" stroke-width="0"/><path d="M489.08464,57.68698c-6.88109,-0.00108 -12.7631,-0.01847 -12.7631,-0.01847c0,0 0.01628,-5.03982 0.0236,-12.72104c7.03584,0 12.73951,5.70367 12.7395,12.7395z" fill="url(#color-6)" stroke="none" stroke-width="0"/><path d="M144.98924,44.85884h331.33549v12.81018h-331.33549z" fill="url(#color-7)" stroke="none" stroke-width="0"/><path d="M145.01486,44.90669c-0.00108,6.8811 -0.01847,12.7631 -0.01847,12.7631c0,0 -5.03981,-0.01628 -12.72104,-0.0236c0,-7.03584 5.70367,-12.7395 12.73951,-12.7395z" fill="url(#color-8)" stroke="none" stroke-width="0"/></g></g></svg>