<svg version="1.1" xmlns="http://www.w3.org/2000/svg" xmlns:xlink="http://www.w3.org/1999/xlink" width="226.90305" height="291" viewBox="0,0,226.90305,291"><g transform="translate(-126.54848,-34.5)"><g data-paper-data="{&quot;isPaintingLayer&quot;:true}" fill-rule="nonzero" stroke-linejoin="miter" stroke-miterlimit="10" stroke-dasharray="" stroke-dashoffset="0" style="mix-blend-mode: normal"><path d="M128.20821,324v-288h223.74332v288z" fill="#919191" stroke="#000000" stroke-width="3" stroke-linecap="butt"/><path d="M189.06036,308.23965v-27.66128h27.66128v27.66128z" fill="#ff6666" stroke="#000000" stroke-width="3" stroke-linecap="butt"/><path d="M128,317.456v-281.456h17.4688v281.456z" fill="#000000" stroke="none" stroke-width="0" stroke-linecap="butt"/><path d="M351.74332,308v16h-223.74332v-16z" fill="#000000" stroke="none" stroke-width="0" stroke-linecap="butt"/><path d="M351.95153,36v18.1856h-218.60433v-18.1856z" fill="#000000" stroke="none" stroke-width="0" stroke-linecap="butt"/><path d="M235.67297,312.07129l116.07498,-50.63353l0.11222,49.46686z" fill="#000000" stroke="none" stroke-width="0" stroke-linecap="butt"/><g stroke-width="2"><path d="M195.80954,219.54577c0,6.04884 -3.88194,10.82308 -8.66666,10.95239c-1.57859,0.04266 -4.16951,-0.11706 -4.16951,-0.11706l4.50284,-10.7639l-3.76333,-11.09451c0,0 1.44818,-0.06266 3.43001,-0.00073c4.78413,0.1495 8.66666,4.97498 8.66666,11.02381z" data-paper-data="{&quot;index&quot;:null}" fill="#acb500" stroke="#000000" stroke-linecap="butt"/><path d="M182.85717,230.49816c-4.78647,0 -8.66667,-4.90356 -8.66667,-10.95239c0,-6.04884 3.8802,-10.95238 8.66667,-10.95238c4.78648,0 8.66667,4.90355 8.66667,10.95238c0,6.04884 -3.8802,10.95239 -8.66667,10.95239z" data-paper-data="{&quot;index&quot;:null}" fill="#f4ff00" stroke="#000000" stroke-linecap="butt"/><path d="M180.02233,220.95987h1.53534v2.10347c0,0 -0.01824,2.27299 -1.72389,2.31151c-1.74311,0.03937 -1.84241,-2.31151 -1.84241,-2.31151v-6.81894c0,0 -0.03889,-2.61756 1.81547,-2.6197c1.64853,-0.00191 1.61615,2.6197 1.61615,2.6197" data-paper-data="{&quot;index&quot;:null}" fill="none" stroke="#646900" stroke-linecap="round"/><path d="M186.14011,220.95986h1.53534v2.10347c0,0 -0.01824,2.27299 -1.72389,2.31151c-1.74311,0.03937 -1.84241,-2.31151 -1.84241,-2.31151v-6.81893c0,0 -0.03889,-2.61757 1.81547,-2.61971c1.64853,-0.0019 1.61615,2.61971 1.61615,2.61971" data-paper-data="{&quot;index&quot;:null}" fill="none" stroke="#646900" stroke-linecap="round"/></g><g stroke-width="2"><path d="M239.80954,219.54577c0,6.04884 -3.88194,10.82308 -8.66666,10.95239c-1.57859,0.04266 -4.16951,-0.11706 -4.16951,-0.11706l4.50284,-10.7639l-3.76333,-11.09451c0,0 1.44818,-0.06266 3.43001,-0.00073c4.78413,0.1495 8.66666,4.97498 8.66666,11.02381z" data-paper-data="{&quot;index&quot;:null}" fill="#acb500" stroke="#000000" stroke-linecap="butt"/><path d="M226.85717,230.49816c-4.78647,0 -8.66667,-4.90356 -8.66667,-10.95239c0,-6.04884 3.8802,-10.95238 8.66667,-10.95238c4.78648,0 8.66667,4.90355 8.66667,10.95238c0,6.04884 -3.8802,10.95239 -8.66667,10.95239z" data-paper-data="{&quot;index&quot;:null}" fill="#f4ff00" stroke="#000000" stroke-linecap="butt"/><path d="M224.02233,220.95987h1.53534v2.10347c0,0 -0.01824,2.27299 -1.72389,2.31151c-1.74311,0.03937 -1.84241,-2.31151 -1.84241,-2.31151v-6.81894c0,0 -0.03889,-2.61756 1.81547,-2.6197c1.64853,-0.00191 1.61615,2.6197 1.61615,2.6197" data-paper-data="{&quot;index&quot;:null}" fill="none" stroke="#646900" stroke-linecap="round"/><path d="M230.14011,220.95986h1.53534v2.10347c0,0 -0.01824,2.27299 -1.72389,2.31151c-1.74311,0.03937 -1.84241,-2.31151 -1.84241,-2.31151v-6.81893c0,0 -0.03889,-2.61757 1.81547,-2.61971c1.64853,-0.0019 1.61615,2.61971 1.61615,2.61971" data-paper-data="{&quot;index&quot;:null}" fill="none" stroke="#646900" stroke-linecap="round"/></g><g stroke-width="2"><path d="M262.30954,179.04577c0,6.04884 -3.88194,10.82308 -8.66666,10.95239c-1.57859,0.04266 -4.16951,-0.11706 -4.16951,-0.11706l4.50284,-10.7639l-3.76333,-11.09451c0,0 1.44818,-0.06266 3.43001,-0.00073c4.78413,0.1495 8.66666,4.97498 8.66666,11.02381z" data-paper-data="{&quot;index&quot;:null}" fill="#acb500" stroke="#000000" stroke-linecap="butt"/><path d="M249.35717,189.99816c-4.78647,0 -8.66667,-4.90356 -8.66667,-10.95239c0,-6.04884 3.8802,-10.95238 8.66667,-10.95238c4.78648,0 8.66667,4.90355 8.66667,10.95238c0,6.04884 -3.8802,10.95239 -8.66667,10.95239z" data-paper-data="{&quot;index&quot;:null}" fill="#f4ff00" stroke="#000000" stroke-linecap="butt"/><path d="M246.52233,180.45987h1.53534v2.10347c0,0 -0.01824,2.27299 -1.72389,2.31151c-1.74311,0.03937 -1.84241,-2.31151 -1.84241,-2.31151v-6.81894c0,0 -0.03889,-2.61756 1.81547,-2.6197c1.64853,-0.00191 1.61615,2.6197 1.61615,2.6197" data-paper-data="{&quot;index&quot;:null}" fill="none" stroke="#646900" stroke-linecap="round"/><path d="M252.64011,180.45986h1.53534v2.10347c0,0 -0.01824,2.27299 -1.72389,2.31151c-1.74311,0.03937 -1.84241,-2.31151 -1.84241,-2.31151v-6.81893c0,0 -0.03889,-2.61757 1.81547,-2.61971c1.64853,-0.0019 1.61615,2.61971 1.61615,2.61971" data-paper-data="{&quot;index&quot;:null}" fill="none" stroke="#646900" stroke-linecap="round"/></g><g stroke-width="2"><path d="M174.30954,179.04577c0,6.04884 -3.88194,10.82308 -8.66666,10.95239c-1.57859,0.04266 -4.16951,-0.11706 -4.16951,-0.11706l4.50284,-10.7639l-3.76333,-11.09451c0,0 1.44818,-0.06266 3.43001,-0.00073c4.78413,0.1495 8.66666,4.97498 8.66666,11.02381z" data-paper-data="{&quot;index&quot;:null}" fill="#acb500" stroke="#000000" stroke-linecap="butt"/><path d="M161.35717,189.99816c-4.78647,0 -8.66667,-4.90356 -8.66667,-10.95239c0,-6.04884 3.8802,-10.95238 8.66667,-10.95238c4.78648,0 8.66667,4.90355 8.66667,10.95238c0,6.04884 -3.8802,10.95239 -8.66667,10.95239z" data-paper-data="{&quot;index&quot;:null}" fill="#f4ff00" stroke="#000000" stroke-linecap="butt"/><path d="M158.52233,180.45987h1.53534v2.10347c0,0 -0.01824,2.27299 -1.72389,2.31151c-1.74311,0.03937 -1.84241,-2.31151 -1.84241,-2.31151v-6.81894c0,0 -0.03889,-2.61756 1.81547,-2.6197c1.64853,-0.00191 1.61615,2.6197 1.61615,2.6197" data-paper-data="{&quot;index&quot;:null}" fill="none" stroke="#646900" stroke-linecap="round"/><path d="M164.64011,180.45986h1.53534v2.10347c0,0 -0.01824,2.27299 -1.72389,2.31151c-1.74311,0.03937 -1.84241,-2.31151 -1.84241,-2.31151v-6.81893c0,0 -0.03889,-2.61757 1.81547,-2.61971c1.64853,-0.0019 1.61615,2.61971 1.61615,2.61971" data-paper-data="{&quot;index&quot;:null}" fill="none" stroke="#646900" stroke-linecap="round"/></g><g stroke-width="2"><path d="M195.80954,136.04576c0,6.04884 -3.88194,10.82308 -8.66666,10.95239c-1.57859,0.04266 -4.16951,-0.11706 -4.16951,-0.11706l4.50284,-10.7639l-3.76333,-11.09451c0,0 1.44818,-0.06266 3.43001,-0.00073c4.78413,0.1495 8.66666,4.97498 8.66666,11.02381z" data-paper-data="{&quot;index&quot;:null}" fill="#acb500" stroke="#000000" stroke-linecap="butt"/><path d="M182.85717,146.99816c-4.78647,0 -8.66667,-4.90356 -8.66667,-10.95239c0,-6.04884 3.8802,-10.95238 8.66667,-10.95238c4.78648,0 8.66667,4.90355 8.66667,10.95238c0,6.04884 -3.8802,10.95239 -8.66667,10.95239z" data-paper-data="{&quot;index&quot;:null}" fill="#f4ff00" stroke="#000000" stroke-linecap="butt"/><path d="M180.02233,137.45987h1.53534v2.10347c0,0 -0.01824,2.27299 -1.72389,2.31151c-1.74311,0.03937 -1.84241,-2.31151 -1.84241,-2.31151v-6.81894c0,0 -0.03889,-2.61756 1.81547,-2.6197c1.64853,-0.00191 1.61615,2.6197 1.61615,2.6197" data-paper-data="{&quot;index&quot;:null}" fill="none" stroke="#646900" stroke-linecap="round"/><path d="M186.14011,137.45986h1.53534v2.10347c0,0 -0.01824,2.27299 -1.72389,2.31151c-1.74311,0.03937 -1.84241,-2.31151 -1.84241,-2.31151v-6.81893c0,0 -0.03889,-2.61757 1.81547,-2.61971c1.64853,-0.0019 1.61615,2.61971 1.61615,2.61971" data-paper-data="{&quot;index&quot;:null}" fill="none" stroke="#646900" stroke-linecap="round"/></g><g stroke-width="2"><path d="M240.80954,136.04576c0,6.04884 -3.88194,10.82308 -8.66666,10.95239c-1.57859,0.04266 -4.16951,-0.11706 -4.16951,-0.11706l4.50284,-10.7639l-3.76333,-11.09451c0,0 1.44818,-0.06266 3.43001,-0.00073c4.78413,0.1495 8.66666,4.97498 8.66666,11.02381z" data-paper-data="{&quot;index&quot;:null}" fill="#acb500" stroke="#000000" stroke-linecap="butt"/><path d="M227.85717,146.99816c-4.78647,0 -8.66667,-4.90356 -8.66667,-10.95239c0,-6.04884 3.8802,-10.95238 8.66667,-10.95238c4.78648,0 8.66667,4.90355 8.66667,10.95238c0,6.04884 -3.8802,10.95239 -8.66667,10.95239z" data-paper-data="{&quot;index&quot;:null}" fill="#f4ff00" stroke="#000000" stroke-linecap="butt"/><path d="M225.02233,137.45987h1.53534v2.10347c0,0 -0.01824,2.27299 -1.72389,2.31151c-1.74311,0.03937 -1.84241,-2.31151 -1.84241,-2.31151v-6.81894c0,0 -0.03889,-2.61756 1.81547,-2.6197c1.64853,-0.00191 1.61615,2.6197 1.61615,2.6197" data-paper-data="{&quot;index&quot;:null}" fill="none" stroke="#646900" stroke-linecap="round"/><path d="M231.14011,137.45986h1.53534v2.10347c0,0 -0.01824,2.27299 -1.72389,2.31151c-1.74311,0.03937 -1.84241,-2.31151 -1.84241,-2.31151v-6.81893c0,0 -0.03889,-2.61757 1.81547,-2.61971c1.64853,-0.0019 1.61615,2.61971 1.61615,2.61971" data-paper-data="{&quot;index&quot;:null}" fill="none" stroke="#646900" stroke-linecap="round"/></g><path d="M128.04848,80.29053v-44.20288h223.90305v44.2029z" fill-opacity="0.6996" fill="#ffffff" stroke="#000000" stroke-width="3" stroke-linecap="butt"/><text transform="translate(196.71666,69.94673) scale(0.69086,0.69086)" font-size="40" xml:space="preserve" fill="#000000" fill-rule="nonzero" stroke="none" stroke-width="1" stroke-linecap="butt" stroke-linejoin="miter" stroke-miterlimit="10" stroke-dasharray="" stroke-dashoffset="0" font-family="Pixel" font-weight="normal" text-anchor="start" style="mix-blend-mode: normal"><tspan x="0" dy="0">Start</tspan></text></g></g></svg>