<svg version="1.1" xmlns="http://www.w3.org/2000/svg" xmlns:xlink="http://www.w3.org/1999/xlink" width="63.19163" height="60.73899" viewBox="0,0,63.19163,60.73899"><g transform="translate(-208.40418,-149.63051)"><g data-paper-data="{&quot;isPaintingLayer&quot;:true}" fill-rule="nonzero" stroke-linecap="butt" stroke-linejoin="miter" stroke-miterlimit="10" stroke-dasharray="" stroke-dashoffset="0" style="mix-blend-mode: normal"><g fill="none" stroke="#000000" stroke-width="4"><path d="M223.9375,180.00001c0,-8.87107 7.19143,-16.0625 16.0625,-16.0625c8.87107,0 16.0625,7.19143 16.0625,16.0625c0,8.87107 -7.19143,16.0625 -16.0625,16.0625c-8.87107,0 -16.0625,-7.19143 -16.0625,-16.0625zM239.91282,188.77591c4.8147,0 8.71777,-3.90308 8.71777,-8.71777c0,-4.8147 -3.90308,-8.71777 -8.71777,-8.71777c-4.8147,0 -8.71778,3.90308 -8.71778,8.71777c0,4.8147 3.90308,8.71777 8.71778,8.71777z"/><path d="M218.16667,183.83334v-7.66667h7.66667v7.66667z"/><path d="M236.16667,165.83334v-7.66667h7.66667v7.66667z"/><path d="M254.16667,183.83334v-7.66667h7.66667v7.66667z"/><path d="M236.16667,201.83334v-7.66667h7.66667v7.66667z"/><path d="M221.85093,167.27208l5.42115,-5.42115l5.42115,5.42115l-5.42115,5.42115z"/><path d="M247.30677,167.27208l5.42115,-5.42115l5.42115,5.42115l-5.42115,5.42115z"/><path d="M247.30677,192.72793l5.42115,-5.42115l5.42115,5.42115l-5.42115,5.42115z"/><path d="M221.85093,192.72793l5.42115,-5.42115l5.42115,5.42115l-5.42115,5.42115z"/></g><g fill="#cdcdcd" stroke-width="0"><path d="M223.9375,180.00001c0,-8.87107 7.19143,-16.0625 16.0625,-16.0625c8.87107,0 16.0625,7.19143 16.0625,16.0625c0,8.87107 -7.19142,16.0625 -16.0625,16.0625c-8.87107,0 -16.0625,-7.19143 -16.0625,-16.0625zM239.91282,188.77591c4.8147,0 8.71777,-3.90308 8.71777,-8.71777c0,-4.8147 -3.90308,-8.71777 -8.71777,-8.71777c-4.8147,0 -8.71778,3.90308 -8.71778,8.71777c0,4.8147 3.90308,8.71777 8.71778,8.71777z" stroke="#000000"/><path d="M218.16667,183.83334v-7.66667h7.66667v7.66667z" stroke="none"/><path d="M236.16667,165.83334v-7.66667h7.66667v7.66667z" stroke="none"/><path d="M254.16667,183.83334v-7.66667h7.66667v7.66667z" stroke="none"/><path d="M236.16667,201.83334v-7.66667h7.66667v7.66667z" stroke="none"/><path d="M221.85093,167.27208l5.42115,-5.42115l5.42115,5.42115l-5.42115,5.42115z" stroke="none"/><path d="M247.30677,167.27208l5.42115,-5.42115l5.42115,5.42115l-5.42115,5.42115z" stroke="none"/><path d="M247.30677,192.72793l5.42115,-5.42115l5.42115,5.42115l-5.42115,5.42115z" stroke="none"/><path d="M221.85093,192.72793l5.42115,-5.42115l5.42115,5.42115l-5.42115,5.42115z" stroke="none"/></g><path d="M208.40418,210.3695v-60.73899h63.19163v60.73899z" fill="none" stroke="none" stroke-width="0"/></g></g></svg>