<svg version="1.1" xmlns="http://www.w3.org/2000/svg" xmlns:xlink="http://www.w3.org/1999/xlink" width="60.71429" height="56.71429" viewBox="0,0,60.71429,56.71429"><g transform="translate(-209.64287,-151.64287)"><g data-paper-data="{&quot;isPaintingLayer&quot;:true}" fill-rule="nonzero" stroke-linejoin="miter" stroke-miterlimit="10" stroke-dasharray="" stroke-dashoffset="0" style="mix-blend-mode: normal"><path d="M221.7619,179.99999c0,-10.07262 8.16546,-18.23809 18.23809,-18.23809c10.07262,0 18.23811,8.16546 18.23811,18.23809c0,10.07262 -8.16548,18.23811 -18.23811,18.23811c-10.07262,0 -18.23809,-8.16548 -18.23809,-18.23811z" fill="#ff00de" stroke="#000000" stroke-width="2" stroke-linecap="butt"/><path d="M233.59669,182.32502h3.49734v3.35009c0,0 -0.04154,3.62004 -3.92683,3.6814c-3.9706,0.06272 -4.1968,-3.6814 -4.1968,-3.6814v-10.86016c0,0 -0.08858,-4.16885 4.13545,-4.17226c3.75516,-0.00304 3.6814,4.17226 3.6814,4.17226" fill="none" stroke="#940080" stroke-width="2" stroke-linecap="round"/><path d="M247.53239,182.32502h3.49734v3.35009c0,0 -0.04155,3.62007 -3.92685,3.68142c-3.97061,0.0627 -4.19682,-3.68142 -4.19682,-3.68142v-10.86015c0,0 -0.08858,-4.16887 4.13545,-4.17227c3.75516,-0.00303 3.6814,4.17227 3.6814,4.17227" fill="none" stroke="#940080" stroke-width="2" stroke-linecap="round"/><path d="M209.64288,208.35717v-56.71429h60.71429v56.71429z" fill="none" stroke="none" stroke-width="0" stroke-linecap="butt"/></g></g></svg>