<svg version="1.1" xmlns="http://www.w3.org/2000/svg" xmlns:xlink="http://www.w3.org/1999/xlink" width="464.02659" height="130.76999" viewBox="0,0,464.02659,130.76999"><defs><linearGradient x1="359.09284" y1="260.17849" x2="360.20719" y2="377.17318" gradientUnits="userSpaceOnUse" id="color-1"><stop offset="0" stop-color="#000000"/><stop offset="1" stop-color="#ffffff"/></linearGradient><linearGradient x1="417.09498" y1="260.12605" x2="418.20933" y2="377.12074" gradientUnits="userSpaceOnUse" id="color-2"><stop offset="0" stop-color="#000000"/><stop offset="1" stop-color="#ffffff"/></linearGradient><linearGradient x1="474.6019" y1="260.57836" x2="475.71625" y2="377.57306" gradientUnits="userSpaceOnUse" id="color-3"><stop offset="0" stop-color="#000000"/><stop offset="1" stop-color="#ffffff"/></linearGradient><linearGradient x1="532.60402" y1="260.52592" x2="533.71837" y2="377.52061" gradientUnits="userSpaceOnUse" id="color-4"><stop offset="0" stop-color="#000000"/><stop offset="1" stop-color="#ffffff"/></linearGradient><linearGradient x1="128.07949" y1="259.87874" x2="129.19384" y2="376.87343" gradientUnits="userSpaceOnUse" id="color-5"><stop offset="0" stop-color="#000000"/><stop offset="1" stop-color="#ffffff"/></linearGradient><linearGradient x1="186.08162" y1="259.82629" x2="187.19597" y2="376.82098" gradientUnits="userSpaceOnUse" id="color-6"><stop offset="0" stop-color="#000000"/><stop offset="1" stop-color="#ffffff"/></linearGradient><linearGradient x1="243.58856" y1="260.27861" x2="244.70292" y2="377.2733" gradientUnits="userSpaceOnUse" id="color-7"><stop offset="0" stop-color="#000000"/><stop offset="1" stop-color="#ffffff"/></linearGradient><linearGradient x1="301.5907" y1="260.22616" x2="302.70505" y2="377.22085" gradientUnits="userSpaceOnUse" id="color-8"><stop offset="0" stop-color="#000000"/><stop offset="1" stop-color="#ffffff"/></linearGradient></defs><g transform="translate(-12.18487,-246.41749)"><g data-paper-data="{&quot;isPaintingLayer&quot;:true}" fill-rule="nonzero" stroke="none" stroke-width="0" stroke-linecap="butt" stroke-linejoin="miter" stroke-miterlimit="10" stroke-dasharray="" stroke-dashoffset="0" style="mix-blend-mode: normal"><path d="M243.1982,376.7876c0,0 0.12753,-130.01865 1.26172,-130.01791c20.47194,0.01329 14.46015,15.93338 29.67935,15.95013c15.96905,0.01758 12.15515,-15.52655 28.32784,-15.5511c0.10382,-0.00016 0.23315,129.55217 0.23315,129.55217z" fill="url(#color-1)"/><path d="M301.20035,376.73516c0,0 0.12753,-130.01865 1.26172,-130.01791c20.47194,0.01329 14.46016,15.93338 29.67935,15.95013c15.96905,0.01758 12.15515,-15.52655 28.32784,-15.5511c0.10381,-0.00016 0.23315,129.55217 0.23315,129.55217z" fill="url(#color-2)"/><path d="M358.70727,377.18748c0,0 0.12753,-130.01865 1.26172,-130.01791c20.47194,0.01329 14.46016,15.93338 29.67935,15.95013c15.96905,0.01758 12.15515,-15.52655 28.32784,-15.5511c0.10381,-0.00016 0.23315,129.55217 0.23315,129.55217z" fill="url(#color-3)"/><path d="M416.7094,377.13503c0,0 0.12753,-130.01865 1.26172,-130.01791c20.47194,0.01329 14.46016,15.93338 29.67935,15.95013c15.96905,0.01758 12.15515,-15.52655 28.32784,-15.5511c0.10381,-0.00016 0.23315,129.55217 0.23315,129.55217z" fill="url(#color-4)"/><path d="M12.18487,376.48785c0,0 0.12753,-130.01865 1.26172,-130.01791c20.47194,0.01329 14.46015,15.93338 29.67935,15.95013c15.96905,0.01758 12.15515,-15.52655 28.32784,-15.5511c0.10382,-0.00016 0.23315,129.55217 0.23315,129.55217z" fill="url(#color-5)"/><path d="M70.187,376.4354c0,0 0.12753,-130.01865 1.26172,-130.01791c20.47194,0.01329 14.46016,15.93338 29.67935,15.95013c15.96905,0.01758 12.15515,-15.52655 28.32784,-15.5511c0.10381,-0.00016 0.23315,129.55217 0.23315,129.55217z" fill="url(#color-6)"/><path d="M127.69393,376.88772c0,0 0.12753,-130.01865 1.26172,-130.01791c20.47194,0.01329 14.46016,15.93338 29.67935,15.95013c15.96905,0.01758 12.15515,-15.52655 28.32784,-15.5511c0.10381,-0.00016 0.23315,129.55217 0.23315,129.55217z" fill="url(#color-7)"/><path d="M185.69604,376.83527c0,0 0.12753,-130.01865 1.26172,-130.01791c20.47194,0.01329 14.46016,15.93338 29.67935,15.95013c15.96905,0.01758 12.15515,-15.52655 28.32784,-15.5511c0.10381,-0.00016 0.23315,129.55217 0.23315,129.55217z" fill="url(#color-8)"/></g></g></svg>