<svg version="1.1" xmlns="http://www.w3.org/2000/svg" xmlns:xlink="http://www.w3.org/1999/xlink" width="665.48556" height="540.7699" viewBox="0,0,665.48556,540.7699"><g transform="translate(92.74276,90.38494)"><g data-paper-data="{&quot;isPaintingLayer&quot;:true}" fill-rule="nonzero" stroke-linejoin="miter" stroke-miterlimit="10" stroke-dasharray="" stroke-dashoffset="0" style="mix-blend-mode: normal"><g stroke="none" stroke-width="0" stroke-linecap="butt"><path d="M-90.49998,419.50001v-464h652v464zM337.23045,45.39646c-5.85403,-0.36051 -11.53802,0.88362 -17.27416,1.563c-6.25666,0.74103 -13.19979,-0.99315 -18.81061,1.86702h-4.34555c-4.96524,0 -9.08529,3.61874 -9.86662,8.3627c-3.23292,0.09689 -6.45207,0.28317 -9.70788,0.63627c-5.67215,0.61516 -11.90503,-0.04866 -17.60375,-0.04866c-14.22871,0 -28.45742,0 -42.68613,0c-27.61339,0.03092 -55.00502,3.44243 -82.61832,3.44243c-10.9742,0 -22.71234,1.08234 -33.37591,-1.76689c-6.99774,-1.61287 -13.99981,-1.67366 -21.16605,-1.67553c-0.86745,-2.93492 -3.20236,-6.88488 -9.48723,-6.88488c-10,0 -10,10 -10,10c0.02821,9.14305 -1.86563,18.79096 -0.62878,27.94212c0.72502,5.36424 2.18916,10.61257 2.76916,15.96585c0.96757,8.9305 -0.67886,18.12573 -0.76341,27.00609c0.04429,2.12656 -0.37381,4.23804 -0.61356,6.35152c-0.64164,5.65625 0.35743,11.4567 -0.0556,17.12412c-0.18836,2.58464 -1.06748,5.08235 -1.32137,7.66137c-0.52504,5.33358 -0.07493,11.00527 -0.07493,16.36853c0,9.40931 0,18.81861 0,28.22793c0.19877,11.37032 -1.81748,22.93986 -2.71987,34.28798c-0.63969,8.04451 2.25977,14.93746 2.73919,22.78924c0.34345,5.6249 -0.82704,10.5635 -1.32137,16.05743c-0.15281,1.69833 -0.97322,3.38319 -0.7037,5.06694c0.36666,2.29062 1.7008,4.31658 2.5512,6.47487c2.52773,3.75775 1.4616,9.97504 5.18012,12.56014c3.2981,2.29282 7.96446,1.13361 11.9762,1.33446c2.25981,0.11314 4.43063,-1.01915 6.68932,-1.15267c4.07402,-0.24084 8.14966,-0.45315 12.22451,-0.67943c9.00652,-0.50015 17.83164,-1.34789 26.76214,-2.89645c4.70274,-0.81546 9.61907,-2.20799 14.39076,-2.64983c7.8319,-0.72521 16.53232,-0.09591 24.29187,0.73521c7.61449,-0.51767 15.3675,-0.05946 22.93718,-0.71171c4.41742,-0.38063 8.72985,-1.00793 13.19631,-0.67863c4.39087,0.32372 8.7394,1.14846 13.1361,1.37986c7.1294,0.37523 14.22481,0.27343 21.34306,0.68849c4.84797,0.28268 9.65246,1.14871 14.5032,1.37911c4.75834,0.22601 9.46982,0.67548 14.22286,0.69876c3.8764,0.01898 6.82983,-0.29959 10.48243,0.61356c9.36284,0.10424 19.02539,0.71954 28.36967,0.02626c7.54636,-0.55989 15.4563,-1.27949 23.09123,-0.66498c14.40965,1.15979 28.76595,2.39749 43.00343,-0.712c5.63975,0.1117 11.59696,0.57635 17.21215,0c3.56682,-0.36611 6.9365,-0.9544 10.58257,-0.67389c1.97687,0.15209 6.12883,1.38678 7.70966,1.41105c2.17807,0.03344 4.32826,-0.4966 6.49327,-0.73716c3.52118,-0.39125 12.13479,-3.14088 13.09305,-4.4857c2.20318,-3.09191 0.93488,-7.54192 1.13088,-11.33342c0.20161,-3.8999 -1.38604,-8.23286 -1.80096,-12.16917c-0.32829,-3.11451 -0.07572,-5.97411 -0.70308,-9.11089c0.09426,-3.42536 -0.23839,-6.5477 -0.71474,-9.87526c-0.38153,-2.66515 0.07493,-5.69599 0.07493,-8.41697c0,-5.96628 0.04714,-11.93459 0,-17.90063c-0.02927,-3.7044 -0.50178,-5.43518 -0.07493,-8.41698c0.09519,-0.66495 0.19081,-1.3601 0.13301,-2.03005c1.92566,-0.93926 2.59594,-3.95862 3.45168,-6.04961c1.51245,-3.69565 1.92411,-7.80413 1.99812,-11.73129c0,-10.04662 0.84561,-20.17891 -0.02515,-30.31379c-0.69728,-8.11574 -4.20495,-15.5611 -4.84292,-23.68501c-0.71113,-9.05554 -0.63981,-18.10102 -0.63981,-27.24254c0,-8.87513 -1.70184,-17.01764 -2.80262,-25.77088c-0.78479,-6.24062 -0.61881,-12.67249 -0.63981,-18.98072c-0.01704,-5.11428 2.42197,-12.90099 -0.66242,-17.41201c-4.18437,-6.11978 -10.43728,-7.39787 -16.78251,-8.86802c-9.77333,-2.26443 -19.10371,-2.30908 -29.04483,-2.30908c-6.54593,0.03952 -13.12433,0.73449 -19.68615,1.46942c-4.02817,-0.55183 -7.98218,-1.19882 -12.17455,-1.45701z" fill="#ffffff"/><path d="M-92.74276,326.58806l2.73236,-12.70961l575.84315,123.7969l-2.73236,12.70961z" fill="#dedede"/><path d="M-87.27804,301.16884l2.73236,-12.70961l575.84315,123.7969l-2.73236,12.70961z" fill="#dedede"/><path d="M-81.91841,276.23843l2.73236,-12.70961l140.09293,30.1177c1.58046,3.75077 1.14093,8.85102 4.41843,11.12952c3.2981,2.29282 7.96446,1.13361 11.9762,1.33446c2.25981,0.11314 4.43063,-1.01915 6.68932,-1.15267c4.07402,-0.24084 8.14966,-0.45315 12.22451,-0.67943c3.54005,-0.19659 7.05208,-0.44687 10.55349,-0.77231l389.88826,83.81962l-2.73236,12.70961z" fill="#dedede"/><path d="M502.12184,361.90653l-2.73236,12.70961l-354.4557,-76.2022c5.62859,0.00736 11.39921,0.48283 16.72637,1.05342c7.61449,-0.51767 15.3675,-0.05946 22.93718,-0.71171c4.41742,-0.38063 8.72985,-1.00793 13.19631,-0.67863c4.39087,0.32372 8.7394,1.14846 13.1361,1.37986c0.30669,0.01614 0.61333,0.0314 0.91989,0.04586z" fill="#dedede"/><path d="M-76.45369,250.81924l2.73236,-12.70961l133.40237,28.67934c-0.01205,4.46332 -0.84253,8.57729 -1.29953,13.01765z" fill="#dedede"/><path d="M507.48145,336.97615l-2.73236,12.70961l-216.30939,-46.50299c3.82848,0.02655 7.6457,-0.04032 11.41125,-0.3197c7.54636,-0.55989 15.4563,-1.27949 23.09123,-0.66498c9.38918,0.7557 18.7557,1.54449 28.08146,1.14218z" fill="#dedede"/><path d="M-71.09406,225.88884l2.73236,-12.70961l125.38389,26.95549c-0.04991,0.56474 -0.09749,1.129 -0.14231,1.69271c-0.32917,4.13949 0.27878,7.97406 1.01189,11.79126z" fill="#dedede"/><path d="M-65.52425,199.9808l2.73236,-12.70961l122.30863,26.29436c-0.18191,4.34535 -0.59931,8.70878 -1.06914,13.06718z" fill="#dedede"/><path d="M513.05126,311.06809l-2.73236,12.70961l-103.20387,-22.18715c0.27589,-0.03836 0.55193,-0.07377 0.82822,-0.10447c3.52118,-0.39125 12.13479,-3.14088 13.09305,-4.4857c1.10649,-1.55283 1.33736,-3.44821 1.31788,-5.43069z" fill="#dedede"/><path d="M-60.16462,175.0504l2.73236,-12.70961l117.032,25.15998c0,4.43234 0,8.86468 0,13.29702z" fill="#dedede"/><path d="M518.4109,286.13768l-2.73236,12.70961l-94.39965,-20.29438c-0.36503,-1.71386 -0.74018,-3.41877 -0.91266,-5.05513c-0.30924,-2.93381 -0.10307,-5.64144 -0.60249,-8.56762z" fill="#dedede"/><path d="M-54.69991,149.63117l2.73236,-12.70961l111.93604,24.06443c-0.124,0.64891 -0.22917,1.30033 -0.29382,1.95701c-0.36007,3.65769 -0.26152,7.47439 -0.16403,11.24158z" fill="#dedede"/><path d="M523.8756,260.71846l-2.73236,12.70961l-102.33951,-22.00133c0.03915,-1.78791 0.2196,-3.62125 0.2196,-5.33208c0,-2.63787 0.00921,-5.27613 0.01542,-7.91442z" fill="#dedede"/><path d="M-49.34028,124.70079l2.73236,-12.70961l108.044,23.2277c-0.12394,0.98025 -0.27334,1.95923 -0.38444,2.93864c-0.38459,3.39027 -0.17973,6.83235 -0.04281,10.26654z" fill="#dedede"/><path d="M529.23523,235.78808l-2.73236,12.70961l-107.58544,-23.12911c-0.12288,-1.99883 -0.27099,-3.48215 0.03097,-5.59151c0.09519,-0.66495 0.19081,-1.3601 0.13301,-2.03005c1.61696,-0.78869 2.34878,-3.04403 3.0485,-4.98484z" fill="#dedede"/><path d="M534.80504,209.88003l-2.73236,12.70961l-107.54079,-23.11952c0.01187,-4.39827 0.17765,-8.81268 0.28255,-13.23628z" fill="#dedede"/><path d="M-43.77047,98.79274l2.73236,-12.70961l103.72413,22.299c0.168,4.37602 -0.15146,8.79647 -0.47688,13.1945z" fill="#dedede"/><path d="M540.16469,184.94964l-2.73236,12.70961l-112.67597,-24.2235c-0.06014,-1.261 -0.14192,-2.52219 -0.25028,-3.78342c-0.29332,-3.41396 -1.08395,-6.70929 -1.94907,-9.98642z" fill="#dedede"/><path d="M-38.41084,73.86235l2.73236,-12.70961l94.91959,20.40617c-0.01481,2.44714 0.09437,4.87819 0.41834,7.27516c0.28797,2.13063 0.69255,4.24297 1.11201,6.35086z" fill="#dedede"/><path d="M545.62938,159.53041l-2.73236,12.70961l-123.25134,-26.49703c-0.34478,-4.47117 -0.50051,-8.9401 -0.56998,-13.41956z" fill="#dedede"/><path d="M-32.94612,48.44312l2.73236,-12.70961l91.95703,19.76926c-1.45504,2.62275 -1.45504,5.38916 -1.45504,5.38916c0.00765,2.47969 -0.12608,4.9965 -0.30038,7.53047z" fill="#dedede"/><path d="M-27.58649,23.51273l2.73236,-12.70961l221.07093,47.52665c-16.47122,0.77688 -32.90283,2.15477 -49.38978,2.67902z" fill="#dedede"/><path d="M550.98902,134.60002l-2.73236,12.70961l-129.23349,-27.7831c0.0001,-0.26718 0.00016,-0.53443 0.00016,-0.80177c0,-4.35733 -0.41021,-8.53807 -0.95812,-12.70119z" fill="#dedede"/><path d="M-22.01668,-2.39534l2.73236,-12.70961l309.38004,66.51167c-1.64051,1.48327 -2.78679,3.50296 -3.16222,5.78245c-3.23292,0.09689 -6.45207,0.28317 -9.70788,0.63627c-5.67215,0.61516 -11.90503,-0.04866 -17.60375,-0.04866c-0.58234,0 -1.16467,0 -1.747,0z" fill="#dedede"/><path d="M556.55882,108.69196l-2.73236,12.70961l-137.74119,-29.61212c-0.47362,-4.41996 -0.50891,-8.92543 -0.50574,-13.40575z" fill="#dedede"/><path d="M-16.65706,-27.32572l2.73236,-12.70961l399.2877,85.84035c-5.35582,-0.40704 -10.71855,-0.42097 -16.27186,-0.42097c-6.54593,0.03952 -13.12433,0.73449 -19.68615,1.46942c-4.02817,-0.55183 -7.98218,-1.19882 -12.17455,-1.45701c-3.99766,-0.24619 -7.91604,0.25593 -11.82587,0.8155z" fill="#dedede"/><path d="M561.91847,83.76157l-2.73236,12.70961l-142.84317,-30.70896c0.29568,-3.39767 0.23531,-6.77363 -1.42444,-9.20107c-1.94602,-2.84612 -4.33944,-4.64504 -6.98148,-5.90309z" fill="#dedede"/><path d="M-11.19234,-52.74494l2.73236,-12.70961l575.84315,123.7969l-2.73236,12.70961z" fill="#dedede"/><path d="M-5.83271,-77.67533l2.73236,-12.70961l575.84315,123.7969l-2.73236,12.70961z" fill="#dedede"/></g><path d="M37.13019,327.79499v-295.58998h405.73964v295.58998zM409.25001,296.00005l0.02902,-230.55305l-339.02902,0.05305l0.5,230.5z" data-paper-data="{&quot;index&quot;:null}" fill="#cdcdcd" stroke="#000000" stroke-width="3" stroke-linecap="butt"/><text transform="translate(135.63005,55) scale(0.5,0.5)" font-size="40" xml:space="preserve" fill="#000000" fill-rule="nonzero" stroke="none" stroke-width="1" stroke-linecap="butt" stroke-linejoin="miter" stroke-miterlimit="10" stroke-dasharray="" stroke-dashoffset="0" font-family="Sans Serif" font-weight="normal" text-anchor="start" style="mix-blend-mode: normal"><tspan x="0" dy="0">Click a teleporter exit!</tspan></text><path d="M414.00001,61.00001v-23.5h23.5v23.5z" fill="#9f9f9f" stroke="#000000" stroke-width="3" stroke-linecap="butt"/><path d="M432.14958,55.64957l-12.79911,-12.79911" fill="none" stroke="#da0000" stroke-width="3" stroke-linecap="round"/><path d="M432.14958,42.85046l-12.79911,12.79911" fill="none" stroke="#da0000" stroke-width="3" stroke-linecap="round"/><path d="M199.07126,323.08335v-22.16667h22.16666v22.16667z" fill="#a0a0a0" stroke="#000000" stroke-width="3" stroke-linecap="butt"/><text transform="translate(204.52459,319.01876) scale(0.5,0.5)" font-size="40" xml:space="preserve" fill="#000000" fill-rule="nonzero" stroke="#000000" stroke-width="2" stroke-linecap="butt" stroke-linejoin="miter" stroke-miterlimit="10" stroke-dasharray="" stroke-dashoffset="0" font-family="Sans Serif" font-weight="normal" text-anchor="start" style="mix-blend-mode: normal"><tspan x="0" dy="0">T</tspan></text><text transform="translate(231.00875,316.89898) scale(0.31627,0.31627)" font-size="40" xml:space="preserve" fill="#000000" fill-rule="nonzero" stroke="none" stroke-width="1" stroke-linecap="butt" stroke-linejoin="miter" stroke-miterlimit="10" stroke-dasharray="" stroke-dashoffset="0" font-family="Sans Serif" font-weight="normal" text-anchor="start" style="mix-blend-mode: normal"><tspan x="0" dy="0">Cancel</tspan></text></g></g></svg>