<svg version="1.1" xmlns="http://www.w3.org/2000/svg" xmlns:xlink="http://www.w3.org/1999/xlink" width="580.02873" height="131.11754" viewBox="0,0,580.02873,131.11754"><defs><linearGradient x1="349.49471" y1="261.67999" x2="350.60906" y2="378.67468" gradientUnits="userSpaceOnUse" id="color-1"><stop offset="0" stop-color="#000000"/><stop offset="1" stop-color="#ffffff"/></linearGradient><linearGradient x1="407.49685" y1="261.62755" x2="408.6112" y2="378.62224" gradientUnits="userSpaceOnUse" id="color-2"><stop offset="0" stop-color="#000000"/><stop offset="1" stop-color="#ffffff"/></linearGradient><linearGradient x1="465.00377" y1="262.07986" x2="466.11812" y2="379.07456" gradientUnits="userSpaceOnUse" id="color-3"><stop offset="0" stop-color="#000000"/><stop offset="1" stop-color="#ffffff"/></linearGradient><linearGradient x1="523.00589" y1="262.02742" x2="524.12024" y2="379.02211" gradientUnits="userSpaceOnUse" id="color-4"><stop offset="0" stop-color="#000000"/><stop offset="1" stop-color="#ffffff"/></linearGradient><linearGradient x1="118.48136" y1="261.38024" x2="119.59571" y2="378.37493" gradientUnits="userSpaceOnUse" id="color-5"><stop offset="0" stop-color="#000000"/><stop offset="1" stop-color="#ffffff"/></linearGradient><linearGradient x1="176.48349" y1="261.32779" x2="177.59784" y2="378.32248" gradientUnits="userSpaceOnUse" id="color-6"><stop offset="0" stop-color="#000000"/><stop offset="1" stop-color="#ffffff"/></linearGradient><linearGradient x1="233.99043" y1="261.78011" x2="235.10479" y2="378.7748" gradientUnits="userSpaceOnUse" id="color-7"><stop offset="0" stop-color="#000000"/><stop offset="1" stop-color="#ffffff"/></linearGradient><linearGradient x1="291.99257" y1="261.72766" x2="293.10692" y2="378.72235" gradientUnits="userSpaceOnUse" id="color-8"><stop offset="0" stop-color="#000000"/><stop offset="1" stop-color="#ffffff"/></linearGradient><linearGradient x1="581.00802" y1="261.975" x2="582.12237" y2="378.9697" gradientUnits="userSpaceOnUse" id="color-9"><stop offset="0" stop-color="#000000"/><stop offset="1" stop-color="#ffffff"/></linearGradient><linearGradient x1="60.48136" y1="260.98024" x2="61.59571" y2="377.97493" gradientUnits="userSpaceOnUse" id="color-10"><stop offset="0" stop-color="#000000"/><stop offset="1" stop-color="#ffffff"/></linearGradient></defs><g transform="translate(55.41326,-247.57144)"><g data-paper-data="{&quot;isPaintingLayer&quot;:true}" fill-rule="nonzero" stroke="none" stroke-width="0" stroke-linecap="butt" stroke-linejoin="miter" stroke-miterlimit="10" stroke-dasharray="" stroke-dashoffset="0" style="mix-blend-mode: normal"><path d="M233.60007,378.2891c0,0 0.12753,-130.01865 1.26172,-130.01791c20.47194,0.01329 14.46015,15.93338 29.67935,15.95013c15.96905,0.01758 12.15515,-15.52655 28.32784,-15.5511c0.10382,-0.00016 0.23315,129.55217 0.23315,129.55217z" fill="url(#color-1)"/><path d="M291.60222,378.23666c0,0 0.12753,-130.01865 1.26172,-130.01791c20.47194,0.01329 14.46016,15.93338 29.67935,15.95013c15.96905,0.01758 12.15515,-15.52655 28.32784,-15.5511c0.10381,-0.00016 0.23315,129.55217 0.23315,129.55217z" fill="url(#color-2)"/><path d="M349.10914,378.68898c0,0 0.12753,-130.01865 1.26172,-130.01791c20.47194,0.01329 14.46016,15.93338 29.67935,15.95013c15.96905,0.01758 12.15515,-15.52655 28.32784,-15.5511c0.10381,-0.00016 0.23315,129.55217 0.23315,129.55217z" fill="url(#color-3)"/><path d="M407.11127,378.63653c0,0 0.12753,-130.01865 1.26172,-130.01791c20.47194,0.01329 14.46016,15.93338 29.67935,15.95013c15.96905,0.01758 12.15515,-15.52655 28.32784,-15.5511c0.10381,-0.00016 0.23315,129.55217 0.23315,129.55217z" fill="url(#color-4)"/><path d="M2.58674,377.98935c0,0 0.12753,-130.01865 1.26172,-130.01791c20.47194,0.01329 14.46015,15.93338 29.67935,15.95013c15.96905,0.01758 12.15515,-15.52655 28.32784,-15.5511c0.10382,-0.00016 0.23315,129.55217 0.23315,129.55217z" fill="url(#color-5)"/><path d="M60.58887,377.9369c0,0 0.12753,-130.01865 1.26172,-130.01791c20.47194,0.01329 14.46016,15.93338 29.67935,15.95013c15.96905,0.01758 12.15515,-15.52655 28.32784,-15.5511c0.10381,-0.00016 0.23315,129.55217 0.23315,129.55217z" fill="url(#color-6)"/><path d="M118.0958,378.38922c0,0 0.12753,-130.01865 1.26172,-130.01791c20.47194,0.01329 14.46016,15.93338 29.67935,15.95013c15.96905,0.01758 12.15515,-15.52655 28.32784,-15.5511c0.10381,-0.00016 0.23315,129.55217 0.23315,129.55217z" fill="url(#color-7)"/><path d="M176.09791,378.33677c0,0 0.12753,-130.01865 1.26172,-130.01791c20.47194,0.01329 14.46016,15.93338 29.67935,15.95013c15.96905,0.01758 12.15515,-15.52655 28.32784,-15.5511c0.10381,-0.00016 0.23315,129.55217 0.23315,129.55217z" fill="url(#color-8)"/><path d="M465.11341,378.58411c0,0 0.12753,-130.01865 1.26172,-130.01791c20.47194,0.01329 14.46016,15.93338 29.67935,15.95013c15.96905,0.01758 12.15515,-15.52655 28.32784,-15.5511c0.10381,-0.00016 0.23315,129.55217 0.23315,129.55217z" fill="url(#color-9)"/><path d="M-55.41326,377.58935c0,0 0.12753,-130.01865 1.26172,-130.01791c20.47194,0.01329 14.46015,15.93338 29.67935,15.95013c15.96905,0.01758 12.15515,-15.52655 28.32784,-15.5511c0.10382,-0.00016 0.23315,129.55217 0.23315,129.55217z" fill="url(#color-10)"/></g></g></svg>