<svg version="1.1" xmlns="http://www.w3.org/2000/svg" xmlns:xlink="http://www.w3.org/1999/xlink" width="375.64709" height="136.00001" viewBox="0,0,375.64709,136.00001"><defs><linearGradient x1="341.00001" y1="292.50001" x2="341.00001" y2="409.50001" gradientUnits="userSpaceOnUse" id="color-1"><stop offset="0" stop-color="#c50000"/><stop offset="1" stop-color="#ff0000"/></linearGradient><linearGradient x1="399.00002" y1="293.50001" x2="399.00002" y2="410.50001" gradientUnits="userSpaceOnUse" id="color-2"><stop offset="0" stop-color="#c50000"/><stop offset="1" stop-color="#ff0000"/></linearGradient><linearGradient x1="456.50002" y1="295.00002" x2="456.50002" y2="412.00002" gradientUnits="userSpaceOnUse" id="color-3"><stop offset="0" stop-color="#c50000"/><stop offset="1" stop-color="#ff0000"/></linearGradient><linearGradient x1="166.99999" y1="289.50001" x2="166.99999" y2="406.50001" gradientUnits="userSpaceOnUse" id="color-4"><stop offset="0" stop-color="#c50000"/><stop offset="1" stop-color="#ff0000"/></linearGradient><linearGradient x1="224.50001" y1="291.00002" x2="224.50001" y2="408.00002" gradientUnits="userSpaceOnUse" id="color-5"><stop offset="0" stop-color="#c50000"/><stop offset="1" stop-color="#ff0000"/></linearGradient><linearGradient x1="282.50002" y1="292.00001" x2="282.50002" y2="409.00001" gradientUnits="userSpaceOnUse" id="color-6"><stop offset="0" stop-color="#c50000"/><stop offset="1" stop-color="#ff0000"/></linearGradient><linearGradient x1="513.00002" y1="295.25003" x2="513.00002" y2="412.25003" gradientUnits="userSpaceOnUse" id="color-7"><stop offset="0" stop-color="#c50000"/><stop offset="1" stop-color="#ff0000"/></linearGradient></defs><g transform="translate(-50,-275.00001)"><g data-paper-data="{&quot;isPaintingLayer&quot;:true}" fill-rule="nonzero" stroke="none" stroke-width="0" stroke-linecap="butt" stroke-linejoin="miter" stroke-miterlimit="10" stroke-dasharray="" stroke-dashoffset="0" style="mix-blend-mode: normal"><path d="M224,408.00001c0,0 1.36587,-130.01154 2.5,-130c20.47088,0.20827 14.30774,16.07038 29.52609,16.23208c15.96816,0.16967 12.30248,-15.41008 28.47467,-15.28059c0.10382,0.00083 -1.00076,129.54851 -1.00076,129.54851z" fill="url(#color-1)"/><path d="M282.00002,409.00001c0,0 1.36587,-130.01154 2.5,-130c20.47088,0.20827 14.30775,16.07038 29.52609,16.23208c15.96816,0.16967 12.30248,-15.41008 28.47467,-15.28059c0.10381,0.00083 -1.00076,129.54851 -1.00076,129.54851z" fill="url(#color-2)"/><path d="M339.50002,410.50002c0,0 1.36587,-130.01154 2.5,-130c20.47088,0.20827 14.30775,16.07038 29.52609,16.23208c15.96816,0.16967 12.30248,-15.41008 28.47467,-15.28059c0.10381,0.00083 -1.00076,129.54851 -1.00076,129.54851z" fill="url(#color-3)"/><path d="M50,405.00001c0,0 1.36587,-130.01154 2.5,-130c20.47088,0.20827 14.30775,16.07038 29.52609,16.23208c15.96816,0.16967 12.30248,-15.41008 28.47467,-15.28059c0.10381,0.00083 -1.00076,129.54851 -1.00076,129.54851z" fill="url(#color-4)"/><path d="M107.50001,406.50002c0,0 1.36587,-130.01154 2.5,-130c20.47088,0.20827 14.30775,16.07038 29.52609,16.23208c15.96816,0.16967 12.30248,-15.41008 28.47467,-15.28059c0.10381,0.00083 -1.00076,129.54851 -1.00076,129.54851z" fill="url(#color-5)"/><path d="M165.49999,407.50001c0,0 1.36587,-130.01154 2.5,-130c20.47088,0.20827 14.30775,16.07038 29.52609,16.23208c15.96816,0.16967 12.30248,-15.41008 28.47467,-15.28059c0.10381,0.00083 -1.00076,129.54851 -1.00076,129.54851z" fill="url(#color-6)"/><path d="M396.00002,410.75003c0,0 1.36587,-130.01154 2.5,-130c18.29624,0.18615 13.2598,14.87323 27.09243,15.6866c0.34962,0.02056 -1.09243,114.3134 -1.09243,114.3134z" fill="url(#color-7)"/></g></g></svg>