<svg version="1.1" xmlns="http://www.w3.org/2000/svg" xmlns:xlink="http://www.w3.org/1999/xlink" width="496.5" height="331.48499" viewBox="0,0,496.5,331.48499"><defs><radialGradient cx="239.92192" cy="154.95908" r="246.07057" gradientUnits="userSpaceOnUse" id="color-1"><stop offset="0" stop-color="#c4c4c4"/><stop offset="1" stop-color="#989898"/></radialGradient></defs><g transform="translate(7.32808,8.98499)"><g data-paper-data="{&quot;isPaintingLayer&quot;:true}" fill-rule="nonzero" stroke-linejoin="miter" stroke-miterlimit="10" stroke-dasharray="" stroke-dashoffset="0" style="mix-blend-mode: normal"><path d="M-5.64865,320.68611v-329.67109h492.14114v329.67109z" fill="url(#color-1)" stroke="none" stroke-width="0" stroke-linecap="butt"/><path d="M-5.32808,320.50001h492.5" fill="none" stroke="#999999" stroke-width="4" stroke-linecap="round"/><path d="M41.66667,98.49998v-39.33333h85v39.33333z" data-paper-data="{&quot;index&quot;:null}" fill="#4f4f4f" stroke="none" stroke-width="0" stroke-linecap="butt"/><text transform="translate(62.15335,78.08333) scale(0.5,0.5)" font-size="40" xml:space="preserve" data-paper-data="{&quot;index&quot;:null}" fill="#898989" fill-rule="nonzero" stroke="none" stroke-width="1" stroke-linecap="butt" stroke-linejoin="miter" stroke-miterlimit="10" stroke-dasharray="" stroke-dashoffset="0" font-family="Sans Serif" font-weight="normal" text-anchor="start" style="mix-blend-mode: normal"><tspan x="0" dy="0">Back</tspan></text><path d="M119.5,69.5c-2.02505,0 -3.66667,-1.64163 -3.66667,-3.66667c0,-2.02505 1.64163,-3.66667 3.66667,-3.66667c2.02505,0 3.66667,1.64163 3.66667,3.66667c0,2.02505 -1.64163,3.66667 -3.66667,3.66667z" data-paper-data="{&quot;index&quot;:null}" fill="#898989" stroke="none" stroke-width="0" stroke-linecap="butt"/><path d="M48.66667,95.49998c-2.02505,0 -3.66667,-1.64161 -3.66667,-3.66666c0,-2.02504 1.64162,-3.66666 3.66667,-3.66666c2.02505,0 3.66667,1.64161 3.66667,3.66666c0,2.02504 -1.64162,3.66666 -3.66667,3.66666z" data-paper-data="{&quot;index&quot;:null}" fill="#898989" stroke="none" stroke-width="0" stroke-linecap="butt"/><path d="M123.16667,91.83332c0,2.02504 -1.64161,3.66666 -3.66666,3.66666c-2.02504,0 -3.66667,-1.64161 -3.66667,-3.66666c0,-2.02504 1.64162,-3.66666 3.66667,-3.66666c2.02504,0 3.66666,1.64161 3.66666,3.66666z" data-paper-data="{&quot;index&quot;:null}" fill="#898989" stroke="none" stroke-width="0" stroke-linecap="butt"/><path d="M52.33334,65.83333c0,2.02504 -1.64163,3.66666 -3.66667,3.66666c-2.02504,0 -3.66667,-1.64161 -3.66667,-3.66666c0,-2.02504 1.64163,-3.66666 3.66667,-3.66666c2.02505,0 3.66667,1.64161 3.66667,3.66666z" data-paper-data="{&quot;index&quot;:null}" fill="#898989" stroke="none" stroke-width="0" stroke-linecap="butt"/><path d="M66.41494,89.89842h38.2" data-paper-data="{&quot;index&quot;:null}" fill="none" stroke="#898989" stroke-width="2.5" stroke-linecap="round"/><path d="M70.33801,95.02721l-6.55186,-5.31162l6.84092,-5.54595" data-paper-data="{&quot;index&quot;:null}" fill="none" stroke="#898989" stroke-width="2.5" stroke-linecap="round"/></g></g></svg>