<svg version="1.1" xmlns="http://www.w3.org/2000/svg" xmlns:xlink="http://www.w3.org/1999/xlink" width="576.57658" height="411.06658" viewBox="0,0,576.57658,411.06658"><g transform="translate(61.60207,32.74442)"><g data-paper-data="{&quot;isPaintingLayer&quot;:true}" fill-rule="nonzero" stroke="none" stroke-width="0" stroke-linecap="butt" stroke-linejoin="miter" stroke-miterlimit="10" stroke-dasharray="" stroke-dashoffset="0" style="mix-blend-mode: normal"><path d="M488.69475,323.07079l-489.71925,-0.51702v-335.80875h489.71925z" fill="#aaaaaa"/><path d="M442.86119,249.80737v26.5h-320.56121v-26.5z" data-paper-data="{&quot;index&quot;:null}" fill="#585858"/><path d="M196.51991,243.6273h-26.5v-56.77208h26.5z" data-paper-data="{&quot;index&quot;:null}" fill="#585858"/><path d="M309.09519,243.6273h-26.5v-56.77208h26.5z" data-paper-data="{&quot;index&quot;:null}" fill="#585858"/><path d="M294.82432,140.88974v-26.5h148.77208v26.5z" data-paper-data="{&quot;index&quot;:null}" fill="#585858"/><path d="M-61.60207,25.81414v-58.55856h576.57658v58.55856z" data-paper-data="{&quot;index&quot;:null}" fill="#000000"/><path d="M-10.29802,212.19857v-194.1419h35v194.1419z" data-paper-data="{&quot;index&quot;:null}" fill="#000000"/><path d="M443.1753,378.32217v-292.0289h68.08487v292.0289z" fill="#000000"/><path d="M170.2254,213.13572h-48.90925v-26.18863h48.90925z" data-paper-data="{&quot;index&quot;:null}" fill="#000000"/><path d="M283.40724,213.13572h-86.48477v-26.18863h86.48477z" data-paper-data="{&quot;index&quot;:null}" fill="#000000"/><path d="M308.59831,212.60151v-71.21523h26.94872v71.21523z" fill="#000000"/><path d="M308.59832,113.35135v-88.73359h26.94872v88.73359z" fill="#000000"/><path d="M20.89277,148.84874v-20.28989h39.8v20.28989z" fill="#000000"/><path d="M-9.85266,277.46128v-28.5h131.85945v28.5z" data-paper-data="{&quot;index&quot;:null}" fill="#000000"/></g></g></svg>