<svg version="1.1" xmlns="http://www.w3.org/2000/svg" xmlns:xlink="http://www.w3.org/1999/xlink" width="127.00001" height="23.46667" viewBox="0,0,127.00001,23.46667"><defs><linearGradient x1="362.8311" y1="339.03335" x2="362.8311" y2="362.50001" gradientUnits="userSpaceOnUse" id="color-1"><stop offset="0" stop-color="#ff0000"/><stop offset="1" stop-color="#c30000"/></linearGradient><linearGradient x1="383.83111" y1="339.03335" x2="383.83111" y2="362.50001" gradientUnits="userSpaceOnUse" id="color-2"><stop offset="0" stop-color="#ff0000"/><stop offset="1" stop-color="#c30000"/></linearGradient><linearGradient x1="404.83111" y1="339.03335" x2="404.83111" y2="362.50001" gradientUnits="userSpaceOnUse" id="color-3"><stop offset="0" stop-color="#ff0000"/><stop offset="1" stop-color="#c30000"/></linearGradient><linearGradient x1="425.83111" y1="339.03335" x2="425.83111" y2="362.50001" gradientUnits="userSpaceOnUse" id="color-4"><stop offset="0" stop-color="#ff0000"/><stop offset="1" stop-color="#c30000"/></linearGradient><linearGradient x1="446.83111" y1="339.03335" x2="446.83111" y2="362.50001" gradientUnits="userSpaceOnUse" id="color-5"><stop offset="0" stop-color="#ff0000"/><stop offset="1" stop-color="#c30000"/></linearGradient><linearGradient x1="467.83111" y1="339.03335" x2="467.83111" y2="362.50001" gradientUnits="userSpaceOnUse" id="color-6"><stop offset="0" stop-color="#ff0000"/><stop offset="1" stop-color="#c30000"/></linearGradient></defs><g transform="translate(-351.8311,-339.03333)"><g data-paper-data="{&quot;isPaintingLayer&quot;:true}" fill-rule="nonzero" stroke="none" stroke-width="0" stroke-linecap="butt" stroke-linejoin="miter" stroke-miterlimit="10" stroke-dasharray="" stroke-dashoffset="0" style="mix-blend-mode: normal"><path d="M351.8311,362.50001l10.86667,-23.46667l11.13333,23.46667z" fill="url(#color-1)"/><path d="M372.83111,362.50001l10.86666,-23.46666l11.13334,23.46666z" fill="url(#color-2)"/><path d="M393.83111,362.50001l10.86666,-23.46666l11.13334,23.46666z" fill="url(#color-3)"/><path d="M414.83111,362.50001l10.86666,-23.46666l11.13334,23.46666z" fill="url(#color-4)"/><path d="M435.83111,362.50001l10.86666,-23.46666l11.13334,23.46666z" fill="url(#color-5)"/><path d="M456.83111,362.50001l10.86666,-23.46666l11.13334,23.46666z" fill="url(#color-6)"/></g></g></svg>