<svg version="1.1" xmlns="http://www.w3.org/2000/svg" xmlns:xlink="http://www.w3.org/1999/xlink" width="60.71429" height="56.71429" viewBox="0,0,60.71429,56.71429"><g transform="translate(-209.64293,-151.6429)"><g data-paper-data="{&quot;isPaintingLayer&quot;:true}" fill-rule="nonzero" stroke-linejoin="miter" stroke-miterlimit="10" stroke-dasharray="" stroke-dashoffset="0" style="mix-blend-mode: normal"><path d="M234.97621,180.04577c0,-6.04883 1.34692,-10.87431 3.00662,-11.02381c0.68753,-0.06193 2.54708,0.00073 2.54708,0.00073l0.40872,10.88022l-0.15217,10.97819c0,0 -2.25598,0.15972 -2.80362,0.11706c-1.6599,-0.12931 -3.00662,-4.90355 -3.00662,-10.95239z" fill="#acb500" stroke="#000000" stroke-width="2" stroke-linecap="butt"/><path d="M239.01058,179.97433c0,-6.04883 1.34611,-10.95238 3.00662,-10.95238c1.66051,0 3.00662,4.90354 3.00662,10.95238c0,6.04883 -1.34611,10.95239 -3.00662,10.95239c-1.66051,0 -3.00662,-4.90355 -3.00662,-10.95239z" fill="#f4ff00" stroke="#000000" stroke-width="2" stroke-linecap="butt"/><path d="M209.64293,208.35719v-56.71429h60.71429v56.71429z" fill="none" stroke="none" stroke-width="0" stroke-linecap="butt"/><path d="M241.81378,176.74439c0,0 0.00619,-2.62161 -0.30887,-2.6197c-0.3544,0.00214 -0.34697,2.6197 -0.34697,2.6197v6.81894c0,0 0.01898,2.35088 0.35212,2.31151c0.32598,-0.03852 0.32947,-2.31151 0.32947,-2.31151v-2.10347h-0.29343" fill="none" stroke="#646900" stroke-width="2" stroke-linecap="round"/><path d="M242.983,176.74439c0,0 0.00619,-2.62161 -0.30887,-2.61971c-0.3544,0.00214 -0.34697,2.61971 -0.34697,2.61971v6.81893c0,0 0.01898,2.35088 0.35212,2.31151c0.32598,-0.03852 0.32947,-2.31151 0.32947,-2.31151v-2.10347h-0.29343" fill="none" stroke="#646900" stroke-width="2" stroke-linecap="round"/></g></g></svg>