<svg version="1.1" xmlns="http://www.w3.org/2000/svg" xmlns:xlink="http://www.w3.org/1999/xlink" width="149" height="291" viewBox="0,0,149,291"><g transform="translate(-165.5,-34.5)"><g data-paper-data="{&quot;isPaintingLayer&quot;:true}" fill-rule="nonzero" stroke-linejoin="miter" stroke-miterlimit="10" stroke-dasharray="" stroke-dashoffset="0" style="mix-blend-mode: normal"><path d="M167,324v-288h146v288z" fill="#ffefb8" stroke="#000000" stroke-width="3" stroke-linecap="butt"/><text transform="translate(170.25,106.28953) scale(0.69086,0.69086)" font-size="40" xml:space="preserve" fill="#000000" fill-rule="nonzero" stroke="none" stroke-width="1" stroke-linecap="butt" stroke-linejoin="miter" stroke-miterlimit="10" stroke-dasharray="" stroke-dashoffset="0" font-family="Pixel" font-weight="normal" text-anchor="start" style="mix-blend-mode: normal"><tspan x="0" dy="0">Time Trial</tspan></text><path d="M166.5,323.66668v-89.66667h42l62.33333,33.33333h42v56.33333z" data-paper-data="{&quot;index&quot;:null}" fill="#000000" stroke="none" stroke-width="0" stroke-linecap="butt"/><path d="M174.01035,233.57298v-28.4793h28.4793v28.4793z" fill="#fff966" stroke="#000000" stroke-width="3" stroke-linecap="butt"/><g stroke-width="2"><path d="M215.52383,224.29577c0,-6.04883 3.88253,-10.87431 8.66666,-11.02381c1.98183,-0.06193 3.43001,0.00073 3.43001,0.00073l-3.76333,11.09451l4.50284,10.7639c0,0 -2.59092,0.15972 -4.16951,0.11706c-4.78472,-0.12931 -8.66666,-4.90355 -8.66666,-10.95239z" fill="#acb500" stroke="#000000" stroke-linecap="butt"/><path d="M219.80954,224.29577c0,-6.04883 3.88019,-10.95238 8.66667,-10.95238c4.78647,0 8.66667,4.90354 8.66667,10.95238c0,6.04883 -3.8802,10.95239 -8.66667,10.95239c-4.78647,0 -8.66667,-4.90355 -8.66667,-10.95239z" fill="#f4ff00" stroke="#000000" stroke-linecap="butt"/><path d="M225.68896,225.70987h1.53534v2.10347c0,0 -0.01824,2.27299 -1.72389,2.31151c-1.74311,0.03937 -1.84241,-2.31151 -1.84241,-2.31151v-6.81894c0,0 -0.03889,-2.61756 1.81547,-2.6197c1.64853,-0.00191 1.61615,2.6197 1.61615,2.6197" fill="none" stroke="#646900" stroke-linecap="round"/><path d="M231.80674,225.70986h1.53534v2.10347c0,0 -0.01824,2.27299 -1.72389,2.31151c-1.74311,0.03937 -1.84241,-2.31151 -1.84241,-2.31151v-6.81893c0,0 -0.03889,-2.61757 1.81547,-2.61971c1.64853,-0.0019 1.61615,2.61971 1.61615,2.61971" fill="none" stroke="#646900" stroke-linecap="round"/></g><g stroke-width="2"><path d="M283.02383,250.79577c0,-6.04883 3.88253,-10.87431 8.66666,-11.02381c1.98183,-0.06193 3.43001,0.00073 3.43001,0.00073l-3.76333,11.09451l4.50284,10.7639c0,0 -2.59092,0.15972 -4.16951,0.11706c-4.78472,-0.12931 -8.66666,-4.90355 -8.66666,-10.95239z" fill="#acb500" stroke="#000000" stroke-linecap="butt"/><path d="M287.30954,250.79577c0,-6.04883 3.88019,-10.95238 8.66667,-10.95238c4.78647,0 8.66667,4.90354 8.66667,10.95238c0,6.04883 -3.8802,10.95239 -8.66667,10.95239c-4.78647,0 -8.66667,-4.90355 -8.66667,-10.95239z" fill="#f4ff00" stroke="#000000" stroke-linecap="butt"/><path d="M293.18896,252.20987h1.53534v2.10347c0,0 -0.01824,2.27299 -1.72389,2.31151c-1.74311,0.03937 -1.84241,-2.31151 -1.84241,-2.31151v-6.81894c0,0 -0.03889,-2.61756 1.81547,-2.6197c1.64853,-0.00191 1.61615,2.6197 1.61615,2.6197" fill="none" stroke="#646900" stroke-linecap="round"/><path d="M299.30674,252.20986h1.53534v2.10347c0,0 -0.01824,2.27299 -1.72389,2.31151c-1.74311,0.03937 -1.84241,-2.31151 -1.84241,-2.31151v-6.81893c0,0 -0.03889,-2.61757 1.81547,-2.61971c1.64853,-0.0019 1.61615,2.61971 1.61615,2.61971" fill="none" stroke="#646900" stroke-linecap="round"/></g><g stroke-width="2"><path d="M249.22383,239.14577c0,-6.04883 3.88253,-10.87431 8.66666,-11.02381c1.98183,-0.06193 3.43001,0.00073 3.43001,0.00073l-3.76333,11.09451l4.50284,10.7639c0,0 -2.59092,0.15972 -4.16951,0.11706c-4.78472,-0.12931 -8.66666,-4.90355 -8.66666,-10.95239z" fill="#acb500" stroke="#000000" stroke-linecap="butt"/><path d="M253.50954,239.14577c0,-6.04883 3.88019,-10.95238 8.66667,-10.95238c4.78647,0 8.66667,4.90354 8.66667,10.95238c0,6.04883 -3.8802,10.95239 -8.66667,10.95239c-4.78647,0 -8.66667,-4.90355 -8.66667,-10.95239z" fill="#f4ff00" stroke="#000000" stroke-linecap="butt"/><path d="M259.38896,240.55987h1.53534v2.10347c0,0 -0.01824,2.27299 -1.72389,2.31151c-1.74311,0.03937 -1.84241,-2.31151 -1.84241,-2.31151v-6.81894c0,0 -0.03889,-2.61756 1.81547,-2.6197c1.64853,-0.00191 1.61615,2.6197 1.61615,2.6197" fill="none" stroke="#646900" stroke-linecap="round"/><path d="M265.50674,240.55986h1.53534v2.10347c0,0 -0.01824,2.27299 -1.72389,2.31151c-1.74311,0.03937 -1.84241,-2.31151 -1.84241,-2.31151v-6.81893c0,0 -0.03889,-2.61757 1.81547,-2.61971c1.64853,-0.0019 1.61615,2.61971 1.61615,2.61971" fill="none" stroke="#646900" stroke-linecap="round"/></g></g></g></svg>