<svg version="1.1" xmlns="http://www.w3.org/2000/svg" xmlns:xlink="http://www.w3.org/1999/xlink" width="521.83263" height="403.91667" viewBox="0,0,521.83263,403.91667"><g transform="translate(12.7574,23.16665)"><g data-paper-data="{&quot;isPaintingLayer&quot;:true}" fill="#000000" fill-rule="nonzero" stroke="none" stroke-width="0" stroke-linecap="butt" stroke-linejoin="miter" stroke-miterlimit="10" stroke-dasharray="" stroke-dashoffset="0" style="mix-blend-mode: normal"><path d="M204.57524,-22.84119v30.94752h-215.76v-30.94752z" data-paper-data="{&quot;index&quot;:null}"/><path d="M509.07523,-23.16664v148.40016h-233.76v-148.40016z" data-paper-data="{&quot;index&quot;:null}"/><path d="M-12.7574,69.08336v-13.33333h58.92099v13.33333z"/><path d="M363.30058,380.75003v-351h128.45774v351z"/><path d="M206.12177,219.84415v-25h66v25z"/><path d="M112.32376,293.20381v-25h105.22764v25z"/><path d="M260.10665,293.20381v-25h107.56959v25z"/><path d="M204.07523,-23.16664v148.40016h-34.76v-148.40016z" data-paper-data="{&quot;index&quot;:null}"/><path d="M97.7426,380.46431v-269.40476l24.92099,-12.85714v282.26191z"/><path d="M121.68556,125.16669l0.4,-27h81.72024v27z"/><path d="M67.3058,5.16669h106.16667v35.16666z"/><path d="M-12.7574,372.08336v-316.33334h34.58766v316.33334z"/><path d="M3.07594,373.25003v-180.25h109.66667v180.25z"/></g></g></svg>