<svg version="1.1" xmlns="http://www.w3.org/2000/svg" xmlns:xlink="http://www.w3.org/1999/xlink" width="74.18214" height="74.26326" viewBox="0,0,74.18214,74.26326"><defs><linearGradient x1="240" y1="147.7875" x2="240" y2="212.2125" gradientUnits="userSpaceOnUse" id="color-1"><stop offset="0" stop-color="#0515fa"/><stop offset="1" stop-color="#5f69ed"/></linearGradient></defs><g transform="translate(-202.90031,-142.88322)"><g data-paper-data="{&quot;isPaintingLayer&quot;:true}" fill-rule="nonzero" stroke-linejoin="miter" stroke-miterlimit="10" stroke-dasharray="" stroke-dashoffset="0" style="mix-blend-mode: normal"><path d="M226.36894,143.23298c5.02016,-1.86118 9.42254,4.30201 14.45741,4.50736c5.04389,0.20571 10.71983,-5.54291 15.2535,-3.50426c4.86278,2.18664 4.67959,8.96445 8.32891,12.97222c3.28947,3.61257 10.55561,4.29833 12.35827,9.16064c1.83489,4.94924 -4.92697,10.213 -5.10229,15.18013c-0.19272,5.46021 6.00364,10.59957 3.67341,15.44618c-2.15119,4.47426 -9.89935,3.41832 -13.62196,6.82447c-3.62698,3.31864 -3.1916,11.13308 -8.08512,12.94732c-5.24609,1.94494 -8.68813,-4.20454 -13.93745,-4.51044c-4.75111,-0.27686 -11.33618,5.48102 -15.62453,3.57396c-4.49615,-1.99947 -4.34818,-9.98458 -7.83772,-13.54752c-3.73838,-3.81701 -11.02112,-3.31867 -12.99839,-8.65196c-1.67436,-4.51624 3.47991,-7.14457 4.19592,-14.97205c0.68831,-7.52457 -5.42509,-9.79908 -3.16307,-14.80489c2.08618,-4.61669 9.96706,-3.28599 13.70291,-6.81904c3.72209,-3.52005 3.29357,-11.90887 8.40019,-13.80211z" fill="#0f19a9" stroke="none" stroke-width="0" stroke-linecap="butt"/><path d="M240,147.7875c4.39828,0 6.02924,6.00439 9.84873,7.60035c3.82634,1.59882 9.83986,-1.20824 12.74977,1.6567c3.12115,3.07291 1.04453,8.24122 2.71096,12.37034c1.5021,3.72196 6.90305,6.32512 6.90305,10.58512c0,4.33615 -6.7115,6.45963 -8.26497,10.23551c-1.70769,4.15071 1.59747,9.87879 -1.58142,12.94648c-2.93466,2.83201 -8.60117,-0.19394 -12.4412,1.36661c-3.74138,1.52045 -5.63756,7.66389 -9.9249,7.66389c-4.59624,0 -5.49139,-5.71959 -9.44735,-7.45423c-3.5805,-1.57 -10.29693,0.98455 -13.05545,-1.70897c-2.89219,-2.82405 -0.49795,-8.93235 -2.16834,-12.6732c-1.7895,-4.00762 -7.54136,-5.70347 -7.54136,-10.37609c0,-3.95679 4.72066,-4.50939 7.50743,-10.33407c2.67893,-5.59928 -1.38042,-9.09699 1.79139,-12.30678c2.92525,-2.96028 8.61553,0.3152 12.502,-1.33932c3.87216,-1.64843 5.93764,-8.23233 10.41169,-8.23233z" fill="url(#color-1)" stroke="none" stroke-width="0" stroke-linecap="butt"/><path d="M220.71429,160.71429l38.57143,38.57143" fill="#111b9f" stroke="#0f19a9" stroke-width="2" stroke-linecap="round"/><path d="M220.71429,199.28572l38.57143,-38.57143" fill="#111b9f" stroke="#0f19a9" stroke-width="2" stroke-linecap="round"/><path d="M240,152.72588v54.54824" fill="#111b9f" stroke="#0f19a9" stroke-width="2" stroke-linecap="round"/><path d="M267.27412,180h-54.54824" fill="#111b9f" stroke="#0f19a9" stroke-width="2" stroke-linecap="round"/></g></g></svg>