<svg version="1.1" xmlns="http://www.w3.org/2000/svg" xmlns:xlink="http://www.w3.org/1999/xlink" width="332.32954" height="274.62285" viewBox="0,0,332.32954,274.62285"><defs><radialGradient cx="198.0984" cy="168.35098" r="10.03968" gradientUnits="userSpaceOnUse" id="color-1"><stop offset="0" stop-color="#b30000"/><stop offset="1" stop-color="#b30000" stop-opacity="0"/></radialGradient><linearGradient x1="270.94444" y1="314.15626" x2="270.94444" y2="304.15626" gradientUnits="userSpaceOnUse" id="color-2"><stop offset="0" stop-color="#af0000" stop-opacity="0"/><stop offset="1" stop-color="#af0000"/></linearGradient><linearGradient x1="270.94444" y1="294.15626" x2="270.94444" y2="304.15626" gradientUnits="userSpaceOnUse" id="color-3"><stop offset="0" stop-color="#af0000" stop-opacity="0"/><stop offset="1" stop-color="#af0000"/></linearGradient><linearGradient x1="236.8311" y1="63.00007" x2="236.8311" y2="39.53341" gradientUnits="userSpaceOnUse" id="color-4"><stop offset="0" stop-color="#ff0000"/><stop offset="1" stop-color="#c30000"/></linearGradient><linearGradient x1="257.8311" y1="63.00007" x2="257.8311" y2="39.53341" gradientUnits="userSpaceOnUse" id="color-5"><stop offset="0" stop-color="#ff0000"/><stop offset="1" stop-color="#c30000"/></linearGradient><linearGradient x1="278.8311" y1="63.00007" x2="278.8311" y2="39.53341" gradientUnits="userSpaceOnUse" id="color-6"><stop offset="0" stop-color="#ff0000"/><stop offset="1" stop-color="#c30000"/></linearGradient><linearGradient x1="299.8311" y1="63.00007" x2="299.8311" y2="39.53341" gradientUnits="userSpaceOnUse" id="color-7"><stop offset="0" stop-color="#ff0000"/><stop offset="1" stop-color="#c30000"/></linearGradient><linearGradient x1="320.4311" y1="63.00007" x2="320.4311" y2="39.53341" gradientUnits="userSpaceOnUse" id="color-8"><stop offset="0" stop-color="#ff0000"/><stop offset="1" stop-color="#c30000"/></linearGradient><linearGradient x1="323.7888" y1="178.34116" x2="323.7888" y2="168.34116" gradientUnits="userSpaceOnUse" id="color-9"><stop offset="0" stop-color="#af0000" stop-opacity="0"/><stop offset="1" stop-color="#af0000"/></linearGradient><linearGradient x1="323.7888" y1="158.34114" x2="323.7888" y2="168.34116" gradientUnits="userSpaceOnUse" id="color-10"><stop offset="0" stop-color="#af0000" stop-opacity="0"/><stop offset="1" stop-color="#af0000"/></linearGradient></defs><g transform="translate(-116.87214,-39.53341)"><g data-paper-data="{&quot;isPaintingLayer&quot;:true}" fill-rule="nonzero" stroke-linejoin="miter" stroke-miterlimit="10" stroke-dasharray="" stroke-dashoffset="0" style="mix-blend-mode: normal"><path d="M188.05872,168.35098c0.09265,-9.98881 11.07143,-10.03968 11.07143,-10.03968v20.07937c0,0 -11.16409,-0.05019 -11.07143,-10.03968z" fill="url(#color-1)" stroke="none" stroke-width="0" stroke-linecap="butt"/><g><path d="M424.94444,304.15626v10h-308v-10z" data-paper-data="{&quot;index&quot;:null}" fill="url(#color-2)" stroke="none" stroke-width="0" stroke-linecap="butt"/><path d="M116.94444,304.15626v-10h308v10z" fill="url(#color-3)" stroke="none" stroke-width="0" stroke-linecap="butt"/><path d="M117.87214,304.15626h306.76305" fill="none" stroke="#ff0000" stroke-width="2" stroke-linecap="round"/></g><path d="M247.8311,39.53341l-11.13334,23.46666l-10.86666,-23.46666z" data-paper-data="{&quot;index&quot;:null}" fill="url(#color-4)" stroke="none" stroke-width="0" stroke-linecap="butt"/><path d="M268.8311,39.53341l-11.13334,23.46666l-10.86666,-23.46666z" data-paper-data="{&quot;index&quot;:null}" fill="url(#color-5)" stroke="none" stroke-width="0" stroke-linecap="butt"/><path d="M289.8311,39.53341l-11.13334,23.46666l-10.86666,-23.46666z" data-paper-data="{&quot;index&quot;:null}" fill="url(#color-6)" stroke="none" stroke-width="0" stroke-linecap="butt"/><path d="M310.8311,39.53341l-11.13333,23.46667l-10.86667,-23.46667z" data-paper-data="{&quot;index&quot;:null}" fill="url(#color-7)" stroke="none" stroke-width="0" stroke-linecap="butt"/><path d="M331.4311,39.53341l-11.13333,23.46667l-10.86667,-23.46667z" data-paper-data="{&quot;index&quot;:null}" fill="url(#color-8)" stroke="none" stroke-width="0" stroke-linecap="butt"/><g><path d="M448.45202,168.34116v10h-249.32645v-10z" data-paper-data="{&quot;index&quot;:null}" fill="url(#color-9)" stroke="none" stroke-width="0" stroke-linecap="butt"/><path d="M199.12557,168.34116v-10h249.32645v10z" fill="url(#color-10)" stroke="none" stroke-width="0" stroke-linecap="butt"/><path d="M448.20168,168.34116h-248.32514" fill="none" stroke="#ff0000" stroke-width="2" stroke-linecap="round"/></g><path d="M195.9339,171.03497v-5.90909h5.83333v5.90909z" fill="#000000" stroke="none" stroke-width="0" stroke-linecap="butt"/></g></g></svg>