<svg version="1.1" xmlns="http://www.w3.org/2000/svg" xmlns:xlink="http://www.w3.org/1999/xlink" width="46.35329" height="45.13522" viewBox="0,0,46.35329,45.13522"><g transform="translate(-216.91386,-157.3116)"><g data-paper-data="{&quot;isPaintingLayer&quot;:true}" fill-rule="nonzero" stroke-linejoin="miter" stroke-miterlimit="10" stroke-dasharray="" stroke-dashoffset="0" style="mix-blend-mode: normal"><path d="M218.46667,200.94682v-41.89364h43.06667v41.89364z" fill="#343434" stroke="#000000" stroke-width="3" stroke-linecap="butt"/><path d="M226.4046,191.25028l-4.05333,-14.5831c0,0 -0.62153,-3.10438 6.8334,-5.13136c7.40981,-2.01471 9.00207,2.15759 15.16491,0.58836c6.26224,-1.59455 8.27089,-3.87024 8.27089,-3.87024l4.05333,14.5831c0,0 -1.18677,2.47506 -8.60615,4.87188c-5.80668,1.87584 -7.99195,-2.70046 -14.71101,-0.90474c-5.29262,1.41449 -6.95204,4.4461 -6.95204,4.4461z" fill="#757452" stroke="#000000" stroke-width="3" stroke-linecap="butt"/><path d="M248.99203,180.53389l-4.06738,-4.31778" fill="none" stroke="#6b0000" stroke-width="2" stroke-linecap="round"/><path d="M244.79944,180.40869l4.31778,-4.06738" fill="none" stroke="#6b0000" stroke-width="2" stroke-linecap="round"/><path d="M227.97222,185.33333l1.16667,-2.38889" fill="none" stroke="#6b0000" stroke-width="2" stroke-linecap="round"/><path d="M230.58333,180.22222l1.77778,-1.77778" fill="none" stroke="#6b0000" stroke-width="2" stroke-linecap="round"/><path d="M237.86111,177.22222l-2.77778,-0.11111" fill="none" stroke="#6b0000" stroke-width="2" stroke-linecap="round"/><path d="M240.41667,177.38889l2,0.66667" fill="none" stroke="#6b0000" stroke-width="2" stroke-linecap="round"/><text transform="translate(217.0036,165.11942) scale(0.17949,0.17949)" font-size="40" xml:space="preserve" fill="#ffffff" fill-rule="nonzero" stroke="none" stroke-width="1" stroke-linecap="butt" stroke-linejoin="miter" stroke-miterlimit="10" stroke-dasharray="" stroke-dashoffset="0" font-family="Sans Serif" font-weight="normal" text-anchor="start" style="mix-blend-mode: normal"><tspan x="0" dy="0">Map disabled</tspan><tspan x="0" dy="48px">here due to</tspan><tspan x="0" dy="48px">scratch clone</tspan><tspan x="0" dy="48px">limitations.</tspan><tspan x="0" dy="48px">Sorry.</tspan></text></g></g></svg>