<svg version="1.1" xmlns="http://www.w3.org/2000/svg" xmlns:xlink="http://www.w3.org/1999/xlink" width="534.53453" height="412.91291" viewBox="0,0,534.53453,412.91291"><g transform="translate(37.50301,26.35485)"><g data-paper-data="{&quot;isPaintingLayer&quot;:true}" fill-rule="nonzero" stroke="none" stroke-linecap="butt" stroke-linejoin="miter" stroke-miterlimit="10" stroke-dasharray="" stroke-dashoffset="0" style="mix-blend-mode: normal"><path d="M-37.503,386.55806v-412.91291h534.53453v412.91291z" fill="#5c5c5c" stroke-width="0"/><path d="M22.25,261.90001v-45h154v45z" fill="#949494" stroke-width="0"/><path d="M24.5,220.90002c0,-1.24264 1.00736,-2.25 2.25,-2.25c1.24264,0 2.25,1.00736 2.25,2.25c0,1.24264 -1.00736,2.25 -2.25,2.25c-1.24264,0 -2.25,-1.00736 -2.25,-2.25z" fill="#737373" stroke-width="0"/><path d="M171.75,218.65001c1.24264,0 2.25,1.00736 2.25,2.25c0,1.24264 -1.00736,2.25 -2.25,2.25c-1.24264,0 -2.25,-1.00736 -2.25,-2.25c0,-1.24264 1.00736,-2.25 2.25,-2.25z" fill="#737373" stroke-width="0"/><path d="M174.25,258.15001c0,1.24264 -1.00736,2.25 -2.25,2.25c-1.24264,0 -2.25,-1.00736 -2.25,-2.25c0,-1.24264 1.00736,-2.25 2.25,-2.25c1.24264,0 2.25,1.00736 2.25,2.25z" fill="#737373" stroke-width="0"/><path d="M27.00001,260.40001c-1.24264,0 -2.25,-1.00736 -2.25,-2.25c0,-1.24264 1.00736,-2.25 2.25,-2.25c1.24264,0 2.25,1.00736 2.25,2.25c0,1.24264 -1.00736,2.25 -2.25,2.25z" fill="#737373" stroke-width="0"/><text transform="translate(27.99461,244.36161) scale(0.26481,0.35751)" font-size="40" xml:space="preserve" fill="#464646" fill-rule="nonzero" stroke="none" stroke-width="1" stroke-linecap="butt" stroke-linejoin="miter" stroke-miterlimit="10" stroke-dasharray="" stroke-dashoffset="0" font-family="Sans Serif" font-weight="normal" text-anchor="start" style="mix-blend-mode: normal"><tspan x="0" dy="0">Beware of the TALL SPIKES!!!</tspan></text></g></g></svg>