<svg version="1.1" xmlns="http://www.w3.org/2000/svg" xmlns:xlink="http://www.w3.org/1999/xlink" width="389.73107" height="258.13177" viewBox="0,0,389.73107,258.13177"><defs><linearGradient x1="71.33337" y1="296.53335" x2="71.33337" y2="320.00001" gradientUnits="userSpaceOnUse" id="color-1"><stop offset="0" stop-color="#ff0000"/><stop offset="1" stop-color="#c30000"/></linearGradient><linearGradient x1="92.33337" y1="296.53335" x2="92.33337" y2="320.00001" gradientUnits="userSpaceOnUse" id="color-2"><stop offset="0" stop-color="#ff0000"/><stop offset="1" stop-color="#c30000"/></linearGradient><linearGradient x1="113.33337" y1="296.53335" x2="113.33337" y2="320.00001" gradientUnits="userSpaceOnUse" id="color-3"><stop offset="0" stop-color="#ff0000"/><stop offset="1" stop-color="#c30000"/></linearGradient><linearGradient x1="134.33337" y1="296.53335" x2="134.33337" y2="320.00001" gradientUnits="userSpaceOnUse" id="color-4"><stop offset="0" stop-color="#ff0000"/><stop offset="1" stop-color="#c30000"/></linearGradient><linearGradient x1="155.33338" y1="296.53335" x2="155.33338" y2="320.00001" gradientUnits="userSpaceOnUse" id="color-5"><stop offset="0" stop-color="#ff0000"/><stop offset="1" stop-color="#c30000"/></linearGradient><linearGradient x1="176.33339" y1="296.53335" x2="176.33339" y2="320.00001" gradientUnits="userSpaceOnUse" id="color-6"><stop offset="0" stop-color="#ff0000"/><stop offset="1" stop-color="#c30000"/></linearGradient><linearGradient x1="197.33339" y1="296.53335" x2="197.33339" y2="320.00001" gradientUnits="userSpaceOnUse" id="color-7"><stop offset="0" stop-color="#ff0000"/><stop offset="1" stop-color="#c30000"/></linearGradient><linearGradient x1="218.33339" y1="296.53335" x2="218.33339" y2="320.00001" gradientUnits="userSpaceOnUse" id="color-8"><stop offset="0" stop-color="#ff0000"/><stop offset="1" stop-color="#c30000"/></linearGradient><linearGradient x1="426.59778" y1="202.23315" x2="450.06444" y2="202.23315" gradientUnits="userSpaceOnUse" id="color-9"><stop offset="0" stop-color="#ff0000"/><stop offset="1" stop-color="#c30000"/></linearGradient><linearGradient x1="426.59778" y1="180.71736" x2="450.06444" y2="180.71736" gradientUnits="userSpaceOnUse" id="color-10"><stop offset="0" stop-color="#ff0000"/><stop offset="1" stop-color="#c30000"/></linearGradient><linearGradient x1="426.59778" y1="159.20157" x2="450.06444" y2="159.20157" gradientUnits="userSpaceOnUse" id="color-11"><stop offset="0" stop-color="#ff0000"/><stop offset="1" stop-color="#c30000"/></linearGradient><linearGradient x1="426.59778" y1="137.68579" x2="450.06444" y2="137.68579" gradientUnits="userSpaceOnUse" id="color-12"><stop offset="0" stop-color="#ff0000"/><stop offset="1" stop-color="#c30000"/></linearGradient><linearGradient x1="426.59778" y1="116.16999" x2="450.06444" y2="116.16999" gradientUnits="userSpaceOnUse" id="color-13"><stop offset="0" stop-color="#ff0000"/><stop offset="1" stop-color="#c30000"/></linearGradient><linearGradient x1="426.59778" y1="94.6542" x2="450.06444" y2="94.6542" gradientUnits="userSpaceOnUse" id="color-14"><stop offset="0" stop-color="#ff0000"/><stop offset="1" stop-color="#c30000"/></linearGradient><linearGradient x1="426.59778" y1="73.13841" x2="450.06444" y2="73.13841" gradientUnits="userSpaceOnUse" id="color-15"><stop offset="0" stop-color="#ff0000"/><stop offset="1" stop-color="#c30000"/></linearGradient></defs><g transform="translate(-60.33337,-61.86824)"><g data-paper-data="{&quot;isPaintingLayer&quot;:true}" fill-rule="nonzero" stroke="none" stroke-width="0" stroke-linecap="butt" stroke-linejoin="miter" stroke-miterlimit="10" stroke-dasharray="" stroke-dashoffset="0" style="mix-blend-mode: normal"><path d="M60.33337,320.00001l10.86666,-23.46666l11.13334,23.46666z" fill="url(#color-1)"/><path d="M81.33336,320.00001l10.86666,-23.46666l11.13334,23.46666z" fill="url(#color-2)"/><path d="M102.33337,320.00001l10.86666,-23.46666l11.13334,23.46666z" fill="url(#color-3)"/><path d="M123.33337,320.00001l10.86667,-23.46667l11.13333,23.46667z" fill="url(#color-4)"/><path d="M144.33338,320.00001l10.86666,-23.46666l11.13334,23.46666z" fill="url(#color-5)"/><path d="M165.33338,320.00001l10.86666,-23.46666l11.13334,23.46666z" fill="url(#color-6)"/><path d="M186.33339,320.00001l10.86666,-23.46666l11.13334,23.46666z" fill="url(#color-7)"/><path d="M207.33339,320.00001l10.86666,-23.46666l11.13334,23.46666z" fill="url(#color-8)"/><path d="M450.06444,213.50333l-23.46666,-11.13356l23.46666,-11.40679z" fill="url(#color-9)"/><path d="M450.06444,191.98754l-23.46666,-11.13356l23.46666,-11.40679z" fill="url(#color-10)"/><path d="M450.06444,170.47175l-23.46666,-11.13356l23.46666,-11.40679z" fill="url(#color-11)"/><path d="M450.06444,148.95597l-23.46667,-11.13357l23.46667,-11.40678z" fill="url(#color-12)"/><path d="M450.06444,127.44017l-23.46666,-11.13356l23.46666,-11.40679z" fill="url(#color-13)"/><path d="M450.06444,105.92438l-23.46666,-11.13356l23.46666,-11.40679z" fill="url(#color-14)"/><path d="M450.06444,84.40859l-23.46666,-11.13356l23.46666,-11.40679z" fill="url(#color-15)"/></g></g></svg>