<svg version="1.1" xmlns="http://www.w3.org/2000/svg" xmlns:xlink="http://www.w3.org/1999/xlink" width="60.71429" height="56.71429" viewBox="0,0,60.71429,56.71429"><g transform="translate(-209.64287,-151.64287)"><g data-paper-data="{&quot;isPaintingLayer&quot;:true}" fill-rule="nonzero" stroke-linejoin="miter" stroke-miterlimit="10" stroke-dasharray="" stroke-dashoffset="0" style="mix-blend-mode: normal"><path d="M229.04762,180c0,-6.04883 4.90354,-10.95238 10.95238,-10.95238c6.04883,0 10.95239,4.90354 10.95239,10.95238c0,6.04883 -4.90355,10.95239 -10.95239,10.95239c-6.04883,0 -10.95238,-4.90355 -10.95238,-10.95239z" fill="#f4ff00" stroke="#000000" stroke-width="2" stroke-linecap="butt"/><path d="M209.64287,208.35716v-56.71429h60.71429v56.71429z" fill="none" stroke="none" stroke-width="0" stroke-linecap="butt"/><path d="M235.97945,181.45984h2.19593v2.10347c0,0 -0.02608,2.27297 -2.4656,2.3115c-2.49308,0.03938 -2.63511,-2.3115 -2.63511,-2.3115v-6.81894c0,0 -0.05562,-2.61756 2.59659,-2.6197c2.35781,-0.00191 2.3115,2.6197 2.3115,2.6197" fill="none" stroke="#646900" stroke-width="2" stroke-linecap="round"/><path d="M244.72947,181.45984h2.19593v2.10347c0,0 -0.02609,2.27299 -2.46561,2.31151c-2.49309,0.03937 -2.63512,-2.31151 -2.63512,-2.31151v-6.81893c0,0 -0.05562,-2.61757 2.59659,-2.61971c2.35781,-0.0019 2.3115,2.61971 2.3115,2.61971" fill="none" stroke="#646900" stroke-width="2" stroke-linecap="round"/></g></g></svg>