<svg version="1.1" xmlns="http://www.w3.org/2000/svg" xmlns:xlink="http://www.w3.org/1999/xlink" width="523.25797" height="289.84377" viewBox="0,0,523.25797,289.84377"><defs><linearGradient x1="0.33334" y1="335.53335" x2="0.33334" y2="359.00001" gradientUnits="userSpaceOnUse" id="color-1"><stop offset="0" stop-color="#ff0000"/><stop offset="1" stop-color="#c30000"/></linearGradient><linearGradient x1="21.33335" y1="335.53335" x2="21.33335" y2="359.00001" gradientUnits="userSpaceOnUse" id="color-2"><stop offset="0" stop-color="#ff0000"/><stop offset="1" stop-color="#c30000"/></linearGradient><linearGradient x1="42.33334" y1="335.53335" x2="42.33334" y2="359.00001" gradientUnits="userSpaceOnUse" id="color-3"><stop offset="0" stop-color="#ff0000"/><stop offset="1" stop-color="#c30000"/></linearGradient><linearGradient x1="63.33334" y1="335.53335" x2="63.33334" y2="359.00001" gradientUnits="userSpaceOnUse" id="color-4"><stop offset="0" stop-color="#ff0000"/><stop offset="1" stop-color="#c30000"/></linearGradient><linearGradient x1="84.33335" y1="335.53335" x2="84.33335" y2="359.00001" gradientUnits="userSpaceOnUse" id="color-5"><stop offset="0" stop-color="#ff0000"/><stop offset="1" stop-color="#c30000"/></linearGradient><linearGradient x1="105.33335" y1="335.53335" x2="105.33335" y2="359.00001" gradientUnits="userSpaceOnUse" id="color-6"><stop offset="0" stop-color="#ff0000"/><stop offset="1" stop-color="#c30000"/></linearGradient><linearGradient x1="126.33335" y1="335.53335" x2="126.33335" y2="359.00001" gradientUnits="userSpaceOnUse" id="color-7"><stop offset="0" stop-color="#ff0000"/><stop offset="1" stop-color="#c30000"/></linearGradient><linearGradient x1="147.33335" y1="335.53335" x2="147.33335" y2="359.00001" gradientUnits="userSpaceOnUse" id="color-8"><stop offset="0" stop-color="#ff0000"/><stop offset="1" stop-color="#c30000"/></linearGradient><linearGradient x1="168.33337" y1="335.53335" x2="168.33337" y2="359.00001" gradientUnits="userSpaceOnUse" id="color-9"><stop offset="0" stop-color="#ff0000"/><stop offset="1" stop-color="#c30000"/></linearGradient><linearGradient x1="189.33337" y1="335.53335" x2="189.33337" y2="359.00001" gradientUnits="userSpaceOnUse" id="color-10"><stop offset="0" stop-color="#ff0000"/><stop offset="1" stop-color="#c30000"/></linearGradient><linearGradient x1="210.33337" y1="335.53335" x2="210.33337" y2="359.00001" gradientUnits="userSpaceOnUse" id="color-11"><stop offset="0" stop-color="#ff0000"/><stop offset="1" stop-color="#c30000"/></linearGradient><linearGradient x1="231.33334" y1="335.53335" x2="231.33334" y2="359.00001" gradientUnits="userSpaceOnUse" id="color-12"><stop offset="0" stop-color="#ff0000"/><stop offset="1" stop-color="#c30000"/></linearGradient><linearGradient x1="251.83108" y1="335.53335" x2="251.83108" y2="359.00001" gradientUnits="userSpaceOnUse" id="color-13"><stop offset="0" stop-color="#ff0000"/><stop offset="1" stop-color="#c30000"/></linearGradient><linearGradient x1="272.8311" y1="335.53335" x2="272.8311" y2="359.00001" gradientUnits="userSpaceOnUse" id="color-14"><stop offset="0" stop-color="#ff0000"/><stop offset="1" stop-color="#c30000"/></linearGradient><linearGradient x1="293.8311" y1="335.53335" x2="293.8311" y2="359.00001" gradientUnits="userSpaceOnUse" id="color-15"><stop offset="0" stop-color="#ff0000"/><stop offset="1" stop-color="#c30000"/></linearGradient><linearGradient x1="314.8311" y1="335.53335" x2="314.8311" y2="359.00001" gradientUnits="userSpaceOnUse" id="color-16"><stop offset="0" stop-color="#ff0000"/><stop offset="1" stop-color="#c30000"/></linearGradient><linearGradient x1="335.83111" y1="335.53335" x2="335.83111" y2="359.00001" gradientUnits="userSpaceOnUse" id="color-17"><stop offset="0" stop-color="#ff0000"/><stop offset="1" stop-color="#c30000"/></linearGradient><linearGradient x1="356.83111" y1="335.53335" x2="356.83111" y2="359.00001" gradientUnits="userSpaceOnUse" id="color-18"><stop offset="0" stop-color="#ff0000"/><stop offset="1" stop-color="#c30000"/></linearGradient><linearGradient x1="377.8311" y1="335.53335" x2="377.8311" y2="359.00001" gradientUnits="userSpaceOnUse" id="color-19"><stop offset="0" stop-color="#ff0000"/><stop offset="1" stop-color="#c30000"/></linearGradient><linearGradient x1="398.83111" y1="335.53335" x2="398.83111" y2="359.00001" gradientUnits="userSpaceOnUse" id="color-20"><stop offset="0" stop-color="#ff0000"/><stop offset="1" stop-color="#c30000"/></linearGradient><linearGradient x1="419.83111" y1="335.53335" x2="419.83111" y2="359.00001" gradientUnits="userSpaceOnUse" id="color-21"><stop offset="0" stop-color="#ff0000"/><stop offset="1" stop-color="#c30000"/></linearGradient><linearGradient x1="440.83111" y1="335.53335" x2="440.83111" y2="359.00001" gradientUnits="userSpaceOnUse" id="color-22"><stop offset="0" stop-color="#ff0000"/><stop offset="1" stop-color="#c30000"/></linearGradient><linearGradient x1="461.83111" y1="335.53335" x2="461.83111" y2="359.00001" gradientUnits="userSpaceOnUse" id="color-23"><stop offset="0" stop-color="#ff0000"/><stop offset="1" stop-color="#c30000"/></linearGradient><linearGradient x1="482.83111" y1="335.53335" x2="482.83111" y2="359.00001" gradientUnits="userSpaceOnUse" id="color-24"><stop offset="0" stop-color="#ff0000"/><stop offset="1" stop-color="#c30000"/></linearGradient><linearGradient x1="327.73231" y1="141.16421" x2="329.53961" y2="258.15025" gradientUnits="userSpaceOnUse" id="color-25"><stop offset="0" stop-color="#c50000"/><stop offset="1" stop-color="#ff0000"/></linearGradient><linearGradient x1="385.74085" y1="141.26816" x2="387.54815" y2="258.2542" gradientUnits="userSpaceOnUse" id="color-26"><stop offset="0" stop-color="#c50000"/><stop offset="1" stop-color="#ff0000"/></linearGradient><linearGradient x1="443.25716" y1="141.87979" x2="445.06446" y2="258.86583" gradientUnits="userSpaceOnUse" id="color-27"><stop offset="0" stop-color="#c50000"/><stop offset="1" stop-color="#ff0000"/></linearGradient><linearGradient x1="501.26568" y1="141.98374" x2="503.07297" y2="258.96978" gradientUnits="userSpaceOnUse" id="color-28"><stop offset="0" stop-color="#c50000"/><stop offset="1" stop-color="#ff0000"/></linearGradient><linearGradient x1="95.69819" y1="140.74839" x2="97.50548" y2="257.73443" gradientUnits="userSpaceOnUse" id="color-29"><stop offset="0" stop-color="#c50000"/><stop offset="1" stop-color="#ff0000"/></linearGradient><linearGradient x1="153.70671" y1="140.85234" x2="155.51401" y2="257.83838" gradientUnits="userSpaceOnUse" id="color-30"><stop offset="0" stop-color="#c50000"/><stop offset="1" stop-color="#ff0000"/></linearGradient><linearGradient x1="211.22305" y1="141.46397" x2="213.03035" y2="258.45001" gradientUnits="userSpaceOnUse" id="color-31"><stop offset="0" stop-color="#c50000"/><stop offset="1" stop-color="#ff0000"/></linearGradient><linearGradient x1="269.23158" y1="141.56791" x2="271.03888" y2="258.55396" gradientUnits="userSpaceOnUse" id="color-32"><stop offset="0" stop-color="#c50000"/><stop offset="1" stop-color="#ff0000"/></linearGradient><linearGradient x1="559.2742" y1="142.08771" x2="561.0815" y2="259.07375" gradientUnits="userSpaceOnUse" id="color-33"><stop offset="0" stop-color="#c50000"/><stop offset="1" stop-color="#ff0000"/></linearGradient><linearGradient x1="237.94444" y1="89.15624" x2="237.94444" y2="79.15624" gradientUnits="userSpaceOnUse" id="color-34"><stop offset="0" stop-color="#af0000" stop-opacity="0"/><stop offset="1" stop-color="#af0000"/></linearGradient><linearGradient x1="237.94444" y1="69.15624" x2="237.94444" y2="79.15624" gradientUnits="userSpaceOnUse" id="color-35"><stop offset="0" stop-color="#af0000" stop-opacity="0"/><stop offset="1" stop-color="#af0000"/></linearGradient><linearGradient x1="328.05498" y1="205.21456" x2="329.10444" y2="322.20985" gradientUnits="userSpaceOnUse" id="color-36"><stop offset="0" stop-color="#000000"/><stop offset="1" stop-color="#ffffff"/></linearGradient><linearGradient x1="386.05714" y1="205.1943" x2="387.1066" y2="322.18959" gradientUnits="userSpaceOnUse" id="color-37"><stop offset="0" stop-color="#000000"/><stop offset="1" stop-color="#ffffff"/></linearGradient><linearGradient x1="443.5638" y1="205.6785" x2="444.61326" y2="322.6738" gradientUnits="userSpaceOnUse" id="color-38"><stop offset="0" stop-color="#000000"/><stop offset="1" stop-color="#ffffff"/></linearGradient><linearGradient x1="501.56594" y1="205.65823" x2="502.6154" y2="322.65352" gradientUnits="userSpaceOnUse" id="color-39"><stop offset="0" stop-color="#000000"/><stop offset="1" stop-color="#ffffff"/></linearGradient><linearGradient x1="97.04183" y1="204.78668" x2="98.09129" y2="321.78197" gradientUnits="userSpaceOnUse" id="color-40"><stop offset="0" stop-color="#000000"/><stop offset="1" stop-color="#ffffff"/></linearGradient><linearGradient x1="155.04398" y1="204.76641" x2="156.09344" y2="321.7617" gradientUnits="userSpaceOnUse" id="color-41"><stop offset="0" stop-color="#000000"/><stop offset="1" stop-color="#ffffff"/></linearGradient><linearGradient x1="212.55066" y1="205.25062" x2="213.60013" y2="322.24591" gradientUnits="userSpaceOnUse" id="color-42"><stop offset="0" stop-color="#000000"/><stop offset="1" stop-color="#ffffff"/></linearGradient><linearGradient x1="270.55283" y1="205.23034" x2="271.60228" y2="322.22563" gradientUnits="userSpaceOnUse" id="color-43"><stop offset="0" stop-color="#000000"/><stop offset="1" stop-color="#ffffff"/></linearGradient><linearGradient x1="559.56809" y1="205.63798" x2="560.61755" y2="322.63328" gradientUnits="userSpaceOnUse" id="color-44"><stop offset="0" stop-color="#000000"/><stop offset="1" stop-color="#ffffff"/></linearGradient></defs><g transform="translate(19.68504,-69.15624)"><g data-paper-data="{&quot;isPaintingLayer&quot;:true}" fill-rule="nonzero" stroke-linejoin="miter" stroke-miterlimit="10" stroke-dasharray="" stroke-dashoffset="0" style="mix-blend-mode: normal"><path d="M-10.66666,359.00001l10.86667,-23.46667l11.13333,23.46667z" fill="url(#color-1)" stroke="none" stroke-width="0" stroke-linecap="butt"/><path d="M10.33335,359.00001l10.86666,-23.46666l11.13334,23.46666z" fill="url(#color-2)" stroke="none" stroke-width="0" stroke-linecap="butt"/><path d="M31.33334,359.00001l10.86666,-23.46666l11.13334,23.46666z" fill="url(#color-3)" stroke="none" stroke-width="0" stroke-linecap="butt"/><path d="M52.33334,359.00001l10.86666,-23.46666l11.13334,23.46666z" fill="url(#color-4)" stroke="none" stroke-width="0" stroke-linecap="butt"/><path d="M73.33334,359.00001l10.86666,-23.46666l11.13334,23.46666z" fill="url(#color-5)" stroke="none" stroke-width="0" stroke-linecap="butt"/><path d="M94.33335,359.00001l10.86666,-23.46666l11.13334,23.46666z" fill="url(#color-6)" stroke="none" stroke-width="0" stroke-linecap="butt"/><path d="M115.33335,359.00001l10.86667,-23.46667l11.13333,23.46667z" fill="url(#color-7)" stroke="none" stroke-width="0" stroke-linecap="butt"/><path d="M136.33335,359.00001l10.86666,-23.46666l11.13334,23.46666z" fill="url(#color-8)" stroke="none" stroke-width="0" stroke-linecap="butt"/><path d="M157.33335,359.00001l10.86666,-23.46666l11.13334,23.46666z" fill="url(#color-9)" stroke="none" stroke-width="0" stroke-linecap="butt"/><path d="M178.33337,359.00001l10.86666,-23.46666l11.13334,23.46666z" fill="url(#color-10)" stroke="none" stroke-width="0" stroke-linecap="butt"/><path d="M199.33337,359.00001l10.86666,-23.46666l11.13334,23.46666z" fill="url(#color-11)" stroke="none" stroke-width="0" stroke-linecap="butt"/><path d="M220.33337,359.00001l10.86666,-23.46666l11.13334,23.46666z" fill="url(#color-12)" stroke="none" stroke-width="0" stroke-linecap="butt"/><path d="M240.83108,359.00001l10.86667,-23.46667l11.13333,23.46667z" fill="url(#color-13)" stroke="none" stroke-width="0" stroke-linecap="butt"/><path d="M261.8311,359.00001l10.86666,-23.46666l11.13334,23.46666z" fill="url(#color-14)" stroke="none" stroke-width="0" stroke-linecap="butt"/><path d="M282.8311,359.00001l10.86666,-23.46666l11.13334,23.46666z" fill="url(#color-15)" stroke="none" stroke-width="0" stroke-linecap="butt"/><path d="M303.8311,359.00001l10.86666,-23.46666l11.13334,23.46666z" fill="url(#color-16)" stroke="none" stroke-width="0" stroke-linecap="butt"/><path d="M324.8311,359.00001l10.86666,-23.46666l11.13334,23.46666z" fill="url(#color-17)" stroke="none" stroke-width="0" stroke-linecap="butt"/><path d="M345.83111,359.00001l10.86666,-23.46666l11.13334,23.46666z" fill="url(#color-18)" stroke="none" stroke-width="0" stroke-linecap="butt"/><path d="M366.8311,359.00001l10.86667,-23.46667l11.13333,23.46667z" fill="url(#color-19)" stroke="none" stroke-width="0" stroke-linecap="butt"/><path d="M387.83111,359.00001l10.86666,-23.46666l11.13334,23.46666z" fill="url(#color-20)" stroke="none" stroke-width="0" stroke-linecap="butt"/><path d="M408.83111,359.00001l10.86666,-23.46666l11.13334,23.46666z" fill="url(#color-21)" stroke="none" stroke-width="0" stroke-linecap="butt"/><path d="M429.83111,359.00001l10.86666,-23.46666l11.13334,23.46666z" fill="url(#color-22)" stroke="none" stroke-width="0" stroke-linecap="butt"/><path d="M450.83111,359.00001l10.86666,-23.46666l11.13334,23.46666z" fill="url(#color-23)" stroke="none" stroke-width="0" stroke-linecap="butt"/><path d="M471.83111,359.00001l10.86666,-23.46666l11.13334,23.46666z" fill="url(#color-24)" stroke="none" stroke-width="0" stroke-linecap="butt"/><path d="M212.53039,258.45772c0,0 -0.64258,-130.01713 0.49159,-130.02311c20.47165,-0.10797 14.55427,15.84745 29.7733,15.77405c15.96888,-0.07701 12.06297,-15.59828 28.23523,-15.71861c0.10382,-0.00077 1.00049,129.54851 1.00049,129.54851z" fill="url(#color-25)" stroke="none" stroke-width="0" stroke-linecap="butt"/><path d="M270.53894,258.56168c0,0 -0.64258,-130.01713 0.49159,-130.02311c20.47165,-0.10797 14.55428,15.84745 29.7733,15.77405c15.96888,-0.07701 12.06297,-15.59828 28.23523,-15.71861c0.10381,-0.00077 1.00049,129.54851 1.00049,129.54851z" fill="url(#color-26)" stroke="none" stroke-width="0" stroke-linecap="butt"/><path d="M328.05525,259.17331c0,0 -0.64258,-130.01713 0.49159,-130.02311c20.47165,-0.10797 14.55428,15.84745 29.7733,15.77405c15.96888,-0.07701 12.06297,-15.59828 28.23523,-15.71861c0.10381,-0.00077 1.00049,129.54851 1.00049,129.54851z" fill="url(#color-27)" stroke="none" stroke-width="0" stroke-linecap="butt"/><path d="M386.06377,259.27725c0,0 -0.64258,-130.01713 0.49159,-130.02311c20.47165,-0.10797 14.55428,15.84745 29.7733,15.77405c15.96888,-0.07701 12.06297,-15.59828 28.23523,-15.71861c0.10381,-0.00077 1.00049,129.54851 1.00049,129.54851z" fill="url(#color-28)" stroke="none" stroke-width="0" stroke-linecap="butt"/><path d="M-19.50372,258.04191c0,0 -0.64258,-130.01713 0.49159,-130.02311c20.47165,-0.10797 14.55427,15.84745 29.7733,15.77405c15.96888,-0.07701 12.06297,-15.59828 28.23523,-15.71861c0.10382,-0.00077 1.00049,129.54851 1.00049,129.54851z" fill="url(#color-29)" stroke="none" stroke-width="0" stroke-linecap="butt"/><path d="M38.50481,258.14586c0,0 -0.64258,-130.01713 0.49159,-130.02311c20.47165,-0.10797 14.55428,15.84745 29.7733,15.77405c15.96888,-0.07701 12.06297,-15.59828 28.23523,-15.71861c0.10381,-0.00077 1.00049,129.54851 1.00049,129.54851z" fill="url(#color-30)" stroke="none" stroke-width="0" stroke-linecap="butt"/><path d="M96.02113,258.75749c0,0 -0.64258,-130.01713 0.49159,-130.02311c20.47165,-0.10797 14.55428,15.84745 29.7733,15.77405c15.96888,-0.07701 12.06297,-15.59828 28.23523,-15.71861c0.10381,-0.00077 1.00049,129.54851 1.00049,129.54851z" fill="url(#color-31)" stroke="none" stroke-width="0" stroke-linecap="butt"/><path d="M154.02964,258.86143c0,0 -0.64258,-130.01713 0.49159,-130.02311c20.47165,-0.10797 14.55428,15.84745 29.7733,15.77405c15.96888,-0.07701 12.06297,-15.59828 28.23523,-15.71861c0.10381,-0.00077 1.00049,129.54851 1.00049,129.54851z" fill="url(#color-32)" stroke="none" stroke-width="0" stroke-linecap="butt"/><path d="M444.07231,259.38123c0,0 -0.64258,-130.01713 0.49159,-130.02311c20.47165,-0.10797 14.55428,15.84745 29.7733,15.77405c15.96888,-0.07701 12.06297,-15.59828 28.23523,-15.71861c0.10381,-0.00077 1.00049,129.54851 1.00049,129.54851z" fill="url(#color-33)" stroke="none" stroke-width="0" stroke-linecap="butt"/><g><path d="M489.94444,79.15624v10h-504v-10z" data-paper-data="{&quot;index&quot;:null}" fill="url(#color-34)" stroke="none" stroke-width="0" stroke-linecap="butt"/><path d="M-14.05557,79.15624v-10h504v10z" fill="url(#color-35)" stroke="none" stroke-width="0" stroke-linecap="butt"/><path d="M-12.5375,79.15624h501.9759" fill="none" stroke="#ff0000" stroke-width="2" stroke-linecap="round"/></g><path d="M212.09568,321.75938c0,0 0.19964,-130.01856 1.33383,-130.01719c20.47193,0.02464 14.45131,15.9414 29.6705,15.96659c15.96904,0.02644 12.16376,-15.51981 28.33646,-15.53539c0.10382,-0.0001 0.16129,129.55228 0.16129,129.55228z" fill="url(#color-36)" stroke="none" stroke-width="0" stroke-linecap="butt"/><path d="M270.09785,321.73911c0,0 0.19964,-130.01856 1.33383,-130.01719c20.47193,0.02464 14.45132,15.9414 29.6705,15.96659c15.96904,0.02644 12.16376,-15.51981 28.33646,-15.53539c0.10381,-0.0001 0.16129,129.55228 0.16129,129.55228z" fill="url(#color-37)" stroke="none" stroke-width="0" stroke-linecap="butt"/><path d="M327.60451,322.22332c0,0 0.19964,-130.01856 1.33383,-130.01719c20.47193,0.02464 14.45132,15.9414 29.6705,15.96659c15.96904,0.02644 12.16376,-15.51981 28.33646,-15.53539c0.10381,-0.0001 0.16129,129.55228 0.16129,129.55228z" fill="url(#color-38)" stroke="none" stroke-width="0" stroke-linecap="butt"/><path d="M385.60666,322.20304c0,0 0.19964,-130.01856 1.33383,-130.01719c20.47193,0.02464 14.45132,15.9414 29.6705,15.96659c15.96904,0.02644 12.16376,-15.51981 28.33646,-15.53539c0.10381,-0.0001 0.16129,129.55228 0.16129,129.55228z" fill="url(#color-39)" stroke="none" stroke-width="0" stroke-linecap="butt"/><path d="M-18.91744,321.3315c0,0 0.19964,-130.01856 1.33383,-130.01719c20.47193,0.02464 14.45131,15.9414 29.6705,15.96659c15.96904,0.02644 12.16376,-15.51981 28.33646,-15.53539c0.10382,-0.0001 0.16129,129.55228 0.16129,129.55228z" fill="url(#color-40)" stroke="none" stroke-width="0" stroke-linecap="butt"/><path d="M39.08471,321.31122c0,0 0.19964,-130.01856 1.33383,-130.01719c20.47193,0.02464 14.45132,15.9414 29.6705,15.96659c15.96904,0.02644 12.16376,-15.51981 28.33646,-15.53539c0.10381,-0.0001 0.16129,129.55228 0.16129,129.55228z" fill="url(#color-41)" stroke="none" stroke-width="0" stroke-linecap="butt"/><path d="M96.59138,321.79543c0,0 0.19964,-130.01856 1.33383,-130.01719c20.47193,0.02464 14.45132,15.9414 29.6705,15.96659c15.96904,0.02644 12.16376,-15.51981 28.33646,-15.53539c0.10381,-0.0001 0.16129,129.55228 0.16129,129.55228z" fill="url(#color-42)" stroke="none" stroke-width="0" stroke-linecap="butt"/><path d="M154.59351,321.77515c0,0 0.19964,-130.01856 1.33383,-130.01719c20.47193,0.02464 14.45132,15.9414 29.6705,15.96659c15.96904,0.02644 12.16376,-15.51981 28.33646,-15.53539c0.10381,-0.0001 0.16129,129.55228 0.16129,129.55228z" fill="url(#color-43)" stroke="none" stroke-width="0" stroke-linecap="butt"/><path d="M443.60882,322.18279c0,0 0.19964,-130.01856 1.33383,-130.01719c20.47193,0.02464 14.45132,15.9414 29.6705,15.96659c15.96904,0.02644 12.16376,-15.51981 28.33646,-15.53539c0.10381,-0.0001 0.16129,129.55228 0.16129,129.55228z" fill="url(#color-44)" stroke="none" stroke-width="0" stroke-linecap="butt"/></g></g></svg>