<svg version="1.1" xmlns="http://www.w3.org/2000/svg" xmlns:xlink="http://www.w3.org/1999/xlink" width="542.15006" height="323.75975" viewBox="0,0,542.15006,323.75975"><defs><radialGradient cx="226.75001" cy="115.75002" r="14" gradientUnits="userSpaceOnUse" id="color-1"><stop offset="0" stop-color="#c4c4c4"/><stop offset="1" stop-color="#989898"/></radialGradient><radialGradient cx="51.00001" cy="166.25" r="23" gradientUnits="userSpaceOnUse" id="color-2"><stop offset="0" stop-color="#c4c4c4"/><stop offset="1" stop-color="#989898"/></radialGradient></defs><g transform="translate(36.45425,-29.99702)"><g data-paper-data="{&quot;isPaintingLayer&quot;:true}" fill-rule="nonzero" stroke-linejoin="miter" stroke-miterlimit="10" stroke-dasharray="" stroke-dashoffset="0" style="mix-blend-mode: normal"><path d="M363.07057,63.51503l137.62524,37.76697" fill="none" stroke="#b1b1b1" stroke-width="10" stroke-linecap="round"/><path d="M431.94897,186.00001l-51,15.33333" fill="none" stroke="#b1b1b1" stroke-width="10" stroke-linecap="round"/><path d="M367.11564,72.50002l72.5,86.5" fill="none" stroke="#b1b1b1" stroke-width="10" stroke-linecap="round"/><path d="M344.11564,239.75677l-26,57.5" fill="none" stroke="#b1b1b1" stroke-width="10" stroke-linecap="round"/><path d="M188.0807,244.75678l89,62.5" fill="none" stroke="#b1b1b1" stroke-width="10" stroke-linecap="round"/><path d="M325.0807,197.25678l-57.5,-32.5" fill="none" stroke="#b1b1b1" stroke-width="10" stroke-linecap="round"/><path d="M347.5807,87.50002l5.5,92.5" fill="none" stroke="#b1b1b1" stroke-width="10" stroke-linecap="round"/><path d="M240.0807,72.00002l80,-6" fill="none" stroke="#b1b1b1" stroke-width="10" stroke-linecap="round"/><path d="M88.5,122.00002l-119.95425,-24.10564" fill="none" stroke="#b1b1b1" stroke-width="10" stroke-linecap="round"/><path d="M107.75001,143.25002l40,64.5" fill="none" stroke="#b1b1b1" stroke-width="10" stroke-linecap="round"/><path d="M112.75001,256.75001l28,-15.5" fill="none" stroke="#b1b1b1" stroke-width="10" stroke-linecap="round"/><path d="M185.25001,86.75002l-67.5,25.5" fill="none" stroke="#b1b1b1" stroke-width="10" stroke-linecap="round"/><path d="M226.75001,174.25002l-43.5,40" fill="none" stroke="#b1b1b1" stroke-width="10" stroke-linecap="round"/><path d="M232.75001,129.75002l-12,-28" fill="none" stroke="url(#color-1)" stroke-width="10" stroke-linecap="round"/><path d="M214.75001,147.75l-98,-18.5" fill="none" stroke="#b1b1b1" stroke-width="10" stroke-linecap="round"/><path d="M37.25001,205.25002l100,18.5" fill="none" stroke="#b1b1b1" stroke-width="10" stroke-linecap="round"/><path d="M30.75001,189.25001l40.5,-46" fill="none" stroke="url(#color-2)" stroke-width="10" stroke-linecap="round"/><path d="M65.25001,258.25001l-31,-29" fill="none" stroke="#b1b1b1" stroke-width="10" stroke-linecap="round"/><path d="M313.00153,61.99702c0,-17.67311 14.32689,-32 32,-32c17.67311,0 32,14.32689 32,32c0,17.67311 -14.32689,32 -32,32c-17.67311,0 -32,-14.32689 -32,-32z" fill="#b1b1b1" stroke="none" stroke-width="0" stroke-linecap="butt"/><path d="M59.50002,124.00002c0,-17.67311 14.32689,-32 32,-32c17.67311,0 32,14.32689 32,32c0,17.67311 -14.32689,32 -32,32c-17.67311,0 -32,-14.32689 -32,-32z" fill="#b1b1b1" stroke="none" stroke-width="0" stroke-linecap="butt"/><path d="M178.50004,77.00002c0,-17.67311 14.32689,-32 32,-32c17.67311,0 32,14.32689 32,32c0,17.67311 -14.32689,32 -32,32c-17.67311,0 -32,-14.32689 -32,-32z" fill="#b1b1b1" stroke="none" stroke-width="0" stroke-linecap="butt"/><path d="M211.50004,155c0,-17.67311 14.32689,-32 32,-32c17.67311,0 32,14.32689 32,32c0,17.67311 -14.32689,32 -32,32c-17.67311,0 -32,-14.32689 -32,-32z" fill="#b1b1b1" stroke="none" stroke-width="0" stroke-linecap="butt"/><path d="M133.42196,230.07509c0,-17.67311 14.32689,-32 32,-32c17.67311,0 32,14.32689 32,32c0,17.67311 -14.32689,32 -32,32c-17.67311,0 -32,-14.32689 -32,-32z" fill="#b1b1b1" stroke="none" stroke-width="0" stroke-linecap="butt"/><path d="M56.84537,275.12012c0,-17.67311 14.32689,-32 32,-32c17.67311,0 32,14.32689 32,32c0,17.67311 -14.32689,32 -32,32c-17.67311,0 -32,-14.32689 -32,-32z" fill="#b1b1b1" stroke="none" stroke-width="0" stroke-linecap="butt"/><path d="M320.50903,209.14414c0,-17.67311 14.32689,-32 32,-32c17.67311,0 32,14.32689 32,32c0,17.67311 -14.32689,32 -32,32c-17.67311,0 -32,-14.32689 -32,-32z" fill="#b1b1b1" stroke="none" stroke-width="0" stroke-linecap="butt"/><path d="M269.45797,321.75676c0,-17.67311 14.32689,-32 32,-32c17.67311,0 32,14.32689 32,32c0,17.67311 -14.32689,32 -32,32c-17.67311,0 -32,-14.32689 -32,-32z" fill="#b1b1b1" stroke="none" stroke-width="0" stroke-linecap="butt"/><path d="M427.11564,179.11413c0,-17.67311 14.32689,-32 32,-32c17.67311,0 32,14.32689 32,32c0,17.67311 -14.32689,32 -32,32c-17.67311,0 -32,-14.32689 -32,-32z" fill="#b1b1b1" stroke="none" stroke-width="0" stroke-linecap="butt"/><path d="M-18.49998,210.00002c0,-17.67311 14.32689,-32 32,-32c17.67311,0 32,14.32689 32,32c0,17.67311 -14.32689,32 -32,32c-17.67311,0 -32,-14.32689 -32,-32z" fill="#b1b1b1" stroke="none" stroke-width="0" stroke-linecap="butt"/></g></g></svg>