<svg version="1.1" xmlns="http://www.w3.org/2000/svg" xmlns:xlink="http://www.w3.org/1999/xlink" width="478.14114" height="420.33446" viewBox="0,0,478.14114,420.33446"><defs><radialGradient cx="239.51424" cy="179.01922" r="239.07057" gradientUnits="userSpaceOnUse" id="color-1"><stop offset="0" stop-color="#c4c4c4"/><stop offset="1" stop-color="#989898"/></radialGradient></defs><g transform="translate(-0.92943,34.23071)"><g data-paper-data="{&quot;isPaintingLayer&quot;:true}" fill-rule="nonzero" stroke="none" stroke-width="0" stroke-linecap="butt" stroke-linejoin="miter" stroke-miterlimit="10" stroke-dasharray="" stroke-dashoffset="0" style="mix-blend-mode: normal"><path d="M0.92943,361.33554v-362.67109h478.14114v362.67109z" fill="url(#color-1)"/><g data-paper-data="{&quot;index&quot;:null}" fill="#989898"><path d="M211.66273,63.4495l-45.71357,12.03439l-29.22633,-37.03462l6.04995,-18.13512l28.97496,36.95077l45.96494,-11.95053z"/><path d="M220.84004,35.93991l-45.71357,12.0344l-29.22633,-37.03463l6.04994,-18.13511l28.97496,36.95077l45.96495,-11.95053z"/><path d="M229.85911,8.90463l-45.71357,12.0344l-29.22633,-37.03463l6.04994,-18.13511l28.97496,36.95077l45.96495,-11.95053z"/></g><g data-paper-data="{&quot;index&quot;:null}" fill="#989898"><path d="M143.91921,193.24827l45.96494,11.95053l28.97496,-36.95077l6.04995,18.13512l-29.22633,37.03462l-45.71357,-12.03439z"/><path d="M134.74191,165.73869l45.96495,11.95053l28.97496,-36.95077l6.04994,18.13511l-29.22633,37.03463l-45.71357,-12.0344z"/><path d="M125.72283,138.70341l45.96495,11.95053l28.97496,-36.95077l6.04994,18.13511l-29.22633,37.03463l-45.71357,-12.0344z"/></g><g data-paper-data="{&quot;index&quot;:null}" fill="#989898"><path d="M171.13466,274.82842l45.96494,11.95053l28.97496,-36.95077l6.04995,18.13512l-29.22633,37.03462l-45.71357,-12.03439z"/><path d="M161.95736,247.31883l45.96495,11.95053l28.97496,-36.95077l6.04994,18.13511l-29.22633,37.03463l-45.71357,-12.0344z"/><path d="M152.93828,220.28355l45.96495,11.95053l28.97496,-36.95077l6.04994,18.13511l-29.22633,37.03463l-45.71357,-12.0344z"/></g><g data-paper-data="{&quot;index&quot;:null}" fill="#989898"><path d="M198.19188,355.93425l45.96494,11.95053l28.97496,-36.95077l6.04995,18.13512l-29.22633,37.03462l-45.71357,-12.03439z"/><path d="M189.01458,328.42467l45.96495,11.95053l28.97496,-36.95077l6.04994,18.13511l-29.22633,37.03463l-45.71357,-12.0344z"/><path d="M179.9955,301.38939l45.96495,11.95053l28.97496,-36.95077l6.04994,18.13511l-29.22633,37.03463l-45.71357,-12.0344z"/></g></g></g></svg>