<svg version="1.1" xmlns="http://www.w3.org/2000/svg" xmlns:xlink="http://www.w3.org/1999/xlink" width="532.15674" height="267.1105" viewBox="0,0,532.15674,267.1105"><defs><linearGradient x1="356.00886" y1="132.96782" x2="356.00886" y2="247.76512" gradientUnits="userSpaceOnUse" id="color-1"><stop offset="0" stop-color="#8000ff" stop-opacity="0"/><stop offset="1" stop-color="#8000ff"/></linearGradient><linearGradient x1="285.36434" y1="132.96782" x2="285.36434" y2="247.76512" gradientUnits="userSpaceOnUse" id="color-2"><stop offset="0" stop-color="#8000ff" stop-opacity="0"/><stop offset="1" stop-color="#8000ff"/></linearGradient><linearGradient x1="320.96255" y1="132.96782" x2="320.96255" y2="247.76512" gradientUnits="userSpaceOnUse" id="color-3"><stop offset="0" stop-color="#8000ff" stop-opacity="0"/><stop offset="1" stop-color="#8000ff"/></linearGradient></defs><g transform="translate(30.00404,-132.96782)"><g data-paper-data="{&quot;isPaintingLayer&quot;:true}" fill-rule="nonzero" stroke="none" stroke-width="0" stroke-linecap="butt" stroke-linejoin="miter" stroke-miterlimit="10" stroke-dasharray="" stroke-dashoffset="0" style="mix-blend-mode: normal"><path d="M99.34434,330.50352v-47h18.5v47z" fill="#9a9a9a"/><path d="M80.34434,304.00352v-27h55.5v27z" fill="#ffea00"/><path d="M154.21039,360.92612l80,-93.62868h248.5v93.62868z" fill="#969696"/><path d="M349.10998,247.76512v-114.7973h13.79775v114.7973z" fill="url(#color-1)"/><path d="M278.46546,247.76512v-114.7973h13.79776v114.7973z" fill="url(#color-2)"/><path d="M306.06097,247.76512v-114.7973h29.80315v114.7973z" fill="url(#color-3)"/><path d="M323.56525,383.81589v-55.5h175v55.5z" fill="#000000"/><path d="M-12.93474,383.81589v-55.5h260v55.5z" fill="#000000"/><path d="M220.97146,288.70773v-41.38507h279.12625v41.38507z" fill="#000000"/><path d="M456.64071,400.07832v-136.78575h45.51199v136.78575z" fill="#000000"/><path d="M-30.00404,346.74754v-208.99751h106.23462v208.99751z" fill="#000000"/><path d="M395.3671,308.58914c0,-17.39697 14.10303,-31.5 31.5,-31.5c17.39697,0 31.5,14.10303 31.5,31.5c0,17.39697 -14.10303,31.5 -31.5,31.5c-17.39697,0 -31.5,-14.10303 -31.5,-31.5z" fill="#ff1f1f"/></g></g></svg>