<svg version="1.1" xmlns="http://www.w3.org/2000/svg" xmlns:xlink="http://www.w3.org/1999/xlink" width="43.15493" height="53.95677" viewBox="0,0,43.15493,53.95677"><g transform="translate(-1.3081,-0.82165)"><g data-paper-data="{&quot;isPaintingLayer&quot;:true}" fill-rule="nonzero" stroke-linejoin="miter" stroke-miterlimit="10" stroke-dasharray="" stroke-dashoffset="0" style="mix-blend-mode: normal"><path d="M2.56791,13.01518c0,-6.04883 4.90354,-10.95238 10.95238,-10.95238c6.04883,0 10.95239,4.90354 10.95239,10.95238c0,6.04883 -4.90355,10.95239 -10.95239,10.95239c-6.04883,0 -10.95238,-4.90355 -10.95238,-10.95239z" fill="#f4ff00" stroke="#000000" stroke-width="2" stroke-linecap="butt"/><path d="M9.49974,14.47502h2.19593v2.10347c0,0 -0.02608,2.27297 -2.4656,2.3115c-2.49308,0.03938 -2.63511,-2.3115 -2.63511,-2.3115v-6.81894c0,0 -0.05562,-2.61756 2.59659,-2.6197c2.35781,-0.00191 2.3115,2.6197 2.3115,2.6197" fill="none" stroke="#646900" stroke-width="2" stroke-linecap="round"/><path d="M18.24976,14.47502h2.19593v2.10347c0,0 -0.02609,2.27299 -2.46561,2.31151c-2.49309,0.03937 -2.63512,-2.31151 -2.63512,-2.31151v-6.81893c0,0 -0.05562,-2.61757 2.59659,-2.61971c2.35781,-0.0019 2.3115,2.61971 2.3115,2.61971" fill="none" stroke="#646900" stroke-width="2" stroke-linecap="round"/><text transform="translate(34.78332,45.48504) scale(0.39366,0.39366)" font-size="40" xml:space="preserve" fill="#ffffff" fill-rule="nonzero" stroke="#ffffff" stroke-width="3" stroke-linecap="butt" stroke-linejoin="miter" stroke-miterlimit="10" stroke-dasharray="" stroke-dashoffset="0" font-family="Sans Serif" font-weight="normal" text-anchor="start" style="mix-blend-mode: normal"><tspan x="0" dy="0">x</tspan></text><path d="M2.3081,40.75122c0,-7.19471 5.83246,-13.02718 13.02718,-13.02718c7.19471,0 13.0272,5.83246 13.0272,13.02718c0,7.19471 -5.83247,13.0272 -13.0272,13.0272c-7.19471,0 -13.02718,-5.83247 -13.02718,-13.0272z" fill="#ff00de" stroke="#000000" stroke-width="2" stroke-linecap="butt"/><path d="M10.7615,42.41195h2.4981v2.39292c0,0 -0.02967,2.58573 -2.80487,2.62956c-2.83614,0.0448 -2.99771,-2.62956 -2.99771,-2.62956v-7.75724c0,0 -0.06327,-2.97774 2.95388,-2.98018c2.68225,-0.00217 2.62956,2.98018 2.62956,2.98018" fill="none" stroke="#940080" stroke-width="2" stroke-linecap="round"/><path d="M20.71555,42.70273h2.4981v2.39292c0,0 -0.02968,2.58576 -2.80489,2.62958c-2.83615,0.04479 -2.99772,-2.62958 -2.99772,-2.62958v-7.75723c0,0 -0.06327,-2.97776 2.95388,-2.98018c2.68225,-0.00217 2.62956,2.98018 2.62956,2.98018" fill="none" stroke="#940080" stroke-width="2" stroke-linecap="round"/><text transform="translate(34.78332,18.40316) scale(0.39509,0.39509)" font-size="40" xml:space="preserve" fill="#ffffff" fill-rule="nonzero" stroke="#ffffff" stroke-width="3" stroke-linecap="butt" stroke-linejoin="miter" stroke-miterlimit="10" stroke-dasharray="" stroke-dashoffset="0" font-family="Sans Serif" font-weight="normal" text-anchor="start" style="mix-blend-mode: normal"><tspan x="0" dy="0">x</tspan></text></g></g></svg>