<svg version="1.1" xmlns="http://www.w3.org/2000/svg" xmlns:xlink="http://www.w3.org/1999/xlink" width="242.28589" height="399.49775" viewBox="0,0,242.28589,399.49775"><defs><linearGradient x1="145.31555" y1="-6.23521" x2="121.84889" y2="-6.23521" gradientUnits="userSpaceOnUse" id="color-1"><stop offset="0" stop-color="#ff0000"/><stop offset="1" stop-color="#c30000"/></linearGradient><linearGradient x1="145.31555" y1="14.7648" x2="121.84889" y2="14.7648" gradientUnits="userSpaceOnUse" id="color-2"><stop offset="0" stop-color="#ff0000"/><stop offset="1" stop-color="#c30000"/></linearGradient><linearGradient x1="145.31555" y1="35.76479" x2="121.84889" y2="35.76479" gradientUnits="userSpaceOnUse" id="color-3"><stop offset="0" stop-color="#ff0000"/><stop offset="1" stop-color="#c30000"/></linearGradient><linearGradient x1="145.31555" y1="56.76479" x2="121.84889" y2="56.76479" gradientUnits="userSpaceOnUse" id="color-4"><stop offset="0" stop-color="#ff0000"/><stop offset="1" stop-color="#c30000"/></linearGradient><linearGradient x1="145.31555" y1="77.76479" x2="121.84889" y2="77.76479" gradientUnits="userSpaceOnUse" id="color-5"><stop offset="0" stop-color="#ff0000"/><stop offset="1" stop-color="#c30000"/></linearGradient><linearGradient x1="145.31555" y1="98.76479" x2="121.84889" y2="98.76479" gradientUnits="userSpaceOnUse" id="color-6"><stop offset="0" stop-color="#ff0000"/><stop offset="1" stop-color="#c30000"/></linearGradient><linearGradient x1="145.31555" y1="119.76479" x2="121.84889" y2="119.76479" gradientUnits="userSpaceOnUse" id="color-7"><stop offset="0" stop-color="#ff0000"/><stop offset="1" stop-color="#c30000"/></linearGradient><linearGradient x1="145.31555" y1="140.7648" x2="121.84889" y2="140.7648" gradientUnits="userSpaceOnUse" id="color-8"><stop offset="0" stop-color="#ff0000"/><stop offset="1" stop-color="#c30000"/></linearGradient><linearGradient x1="145.31555" y1="161.76481" x2="121.84889" y2="161.76481" gradientUnits="userSpaceOnUse" id="color-9"><stop offset="0" stop-color="#ff0000"/><stop offset="1" stop-color="#c30000"/></linearGradient><linearGradient x1="145.31555" y1="182.76481" x2="121.84889" y2="182.76481" gradientUnits="userSpaceOnUse" id="color-10"><stop offset="0" stop-color="#ff0000"/><stop offset="1" stop-color="#c30000"/></linearGradient><linearGradient x1="145.31555" y1="203.76481" x2="121.84889" y2="203.76481" gradientUnits="userSpaceOnUse" id="color-11"><stop offset="0" stop-color="#ff0000"/><stop offset="1" stop-color="#c30000"/></linearGradient><linearGradient x1="145.31555" y1="224.76479" x2="121.84889" y2="224.76479" gradientUnits="userSpaceOnUse" id="color-12"><stop offset="0" stop-color="#ff0000"/><stop offset="1" stop-color="#c30000"/></linearGradient><linearGradient x1="145.31555" y1="245.26253" x2="121.84889" y2="245.26253" gradientUnits="userSpaceOnUse" id="color-13"><stop offset="0" stop-color="#ff0000"/><stop offset="1" stop-color="#c30000"/></linearGradient><linearGradient x1="145.31555" y1="266.26255" x2="121.84889" y2="266.26255" gradientUnits="userSpaceOnUse" id="color-14"><stop offset="0" stop-color="#ff0000"/><stop offset="1" stop-color="#c30000"/></linearGradient><linearGradient x1="145.31555" y1="287.26255" x2="121.84889" y2="287.26255" gradientUnits="userSpaceOnUse" id="color-15"><stop offset="0" stop-color="#ff0000"/><stop offset="1" stop-color="#c30000"/></linearGradient><linearGradient x1="145.31555" y1="308.26255" x2="121.84889" y2="308.26255" gradientUnits="userSpaceOnUse" id="color-16"><stop offset="0" stop-color="#ff0000"/><stop offset="1" stop-color="#c30000"/></linearGradient><linearGradient x1="145.31555" y1="329.26255" x2="121.84889" y2="329.26255" gradientUnits="userSpaceOnUse" id="color-17"><stop offset="0" stop-color="#ff0000"/><stop offset="1" stop-color="#c30000"/></linearGradient><linearGradient x1="145.31555" y1="350.26255" x2="121.84889" y2="350.26255" gradientUnits="userSpaceOnUse" id="color-18"><stop offset="0" stop-color="#ff0000"/><stop offset="1" stop-color="#c30000"/></linearGradient><linearGradient x1="145.31555" y1="371.26254" x2="121.84889" y2="371.26254" gradientUnits="userSpaceOnUse" id="color-19"><stop offset="0" stop-color="#ff0000"/><stop offset="1" stop-color="#c30000"/></linearGradient><linearGradient x1="340.66812" y1="-6.23521" x2="364.13478" y2="-6.23521" gradientUnits="userSpaceOnUse" id="color-20"><stop offset="0" stop-color="#ff0000"/><stop offset="1" stop-color="#c30000"/></linearGradient><linearGradient x1="340.66812" y1="14.7648" x2="364.13478" y2="14.7648" gradientUnits="userSpaceOnUse" id="color-21"><stop offset="0" stop-color="#ff0000"/><stop offset="1" stop-color="#c30000"/></linearGradient><linearGradient x1="340.66812" y1="35.76479" x2="364.13478" y2="35.76479" gradientUnits="userSpaceOnUse" id="color-22"><stop offset="0" stop-color="#ff0000"/><stop offset="1" stop-color="#c30000"/></linearGradient><linearGradient x1="340.66812" y1="56.76479" x2="364.13478" y2="56.76479" gradientUnits="userSpaceOnUse" id="color-23"><stop offset="0" stop-color="#ff0000"/><stop offset="1" stop-color="#c30000"/></linearGradient><linearGradient x1="340.66812" y1="77.76479" x2="364.13478" y2="77.76479" gradientUnits="userSpaceOnUse" id="color-24"><stop offset="0" stop-color="#ff0000"/><stop offset="1" stop-color="#c30000"/></linearGradient><linearGradient x1="340.66812" y1="98.76479" x2="364.13478" y2="98.76479" gradientUnits="userSpaceOnUse" id="color-25"><stop offset="0" stop-color="#ff0000"/><stop offset="1" stop-color="#c30000"/></linearGradient><linearGradient x1="340.66812" y1="119.76479" x2="364.13478" y2="119.76479" gradientUnits="userSpaceOnUse" id="color-26"><stop offset="0" stop-color="#ff0000"/><stop offset="1" stop-color="#c30000"/></linearGradient><linearGradient x1="340.66812" y1="140.7648" x2="364.13478" y2="140.7648" gradientUnits="userSpaceOnUse" id="color-27"><stop offset="0" stop-color="#ff0000"/><stop offset="1" stop-color="#c30000"/></linearGradient><linearGradient x1="340.66812" y1="161.76481" x2="364.13478" y2="161.76481" gradientUnits="userSpaceOnUse" id="color-28"><stop offset="0" stop-color="#ff0000"/><stop offset="1" stop-color="#c30000"/></linearGradient><linearGradient x1="340.66812" y1="182.76481" x2="364.13478" y2="182.76481" gradientUnits="userSpaceOnUse" id="color-29"><stop offset="0" stop-color="#ff0000"/><stop offset="1" stop-color="#c30000"/></linearGradient><linearGradient x1="340.66812" y1="203.76481" x2="364.13478" y2="203.76481" gradientUnits="userSpaceOnUse" id="color-30"><stop offset="0" stop-color="#ff0000"/><stop offset="1" stop-color="#c30000"/></linearGradient><linearGradient x1="340.66812" y1="224.76479" x2="364.13478" y2="224.76479" gradientUnits="userSpaceOnUse" id="color-31"><stop offset="0" stop-color="#ff0000"/><stop offset="1" stop-color="#c30000"/></linearGradient><linearGradient x1="340.66812" y1="245.26253" x2="364.13478" y2="245.26253" gradientUnits="userSpaceOnUse" id="color-32"><stop offset="0" stop-color="#ff0000"/><stop offset="1" stop-color="#c30000"/></linearGradient><linearGradient x1="340.66812" y1="266.26255" x2="364.13478" y2="266.26255" gradientUnits="userSpaceOnUse" id="color-33"><stop offset="0" stop-color="#ff0000"/><stop offset="1" stop-color="#c30000"/></linearGradient><linearGradient x1="340.66812" y1="287.26255" x2="364.13478" y2="287.26255" gradientUnits="userSpaceOnUse" id="color-34"><stop offset="0" stop-color="#ff0000"/><stop offset="1" stop-color="#c30000"/></linearGradient><linearGradient x1="340.66812" y1="308.26255" x2="364.13478" y2="308.26255" gradientUnits="userSpaceOnUse" id="color-35"><stop offset="0" stop-color="#ff0000"/><stop offset="1" stop-color="#c30000"/></linearGradient><linearGradient x1="340.66812" y1="329.26255" x2="364.13478" y2="329.26255" gradientUnits="userSpaceOnUse" id="color-36"><stop offset="0" stop-color="#ff0000"/><stop offset="1" stop-color="#c30000"/></linearGradient><linearGradient x1="340.66812" y1="350.26255" x2="364.13478" y2="350.26255" gradientUnits="userSpaceOnUse" id="color-37"><stop offset="0" stop-color="#ff0000"/><stop offset="1" stop-color="#c30000"/></linearGradient><linearGradient x1="340.66812" y1="371.26254" x2="364.13478" y2="371.26254" gradientUnits="userSpaceOnUse" id="color-38"><stop offset="0" stop-color="#ff0000"/><stop offset="1" stop-color="#c30000"/></linearGradient><linearGradient x1="229.85626" y1="247.95713" x2="229.85626" y2="271.4238" gradientUnits="userSpaceOnUse" id="color-39"><stop offset="0" stop-color="#ff0000"/><stop offset="1" stop-color="#c30000"/></linearGradient><linearGradient x1="250.85625" y1="247.95714" x2="250.85625" y2="271.4238" gradientUnits="userSpaceOnUse" id="color-40"><stop offset="0" stop-color="#ff0000"/><stop offset="1" stop-color="#c30000"/></linearGradient></defs><g transform="translate(-121.84889,17.23521)"><g data-paper-data="{&quot;isPaintingLayer&quot;:true}" fill-rule="nonzero" stroke="none" stroke-width="0" stroke-linecap="butt" stroke-linejoin="miter" stroke-miterlimit="10" stroke-dasharray="" stroke-dashoffset="0" style="mix-blend-mode: normal"><path d="M121.84889,-17.23521l23.46667,10.86667l-23.46667,11.13333z" fill="url(#color-1)"/><path d="M121.84889,3.7648l23.46666,10.86666l-23.46666,11.13334z" fill="url(#color-2)"/><path d="M121.84889,24.76479l23.46666,10.86666l-23.46666,11.13334z" fill="url(#color-3)"/><path d="M121.84889,45.76479l23.46666,10.86666l-23.46666,11.13334z" fill="url(#color-4)"/><path d="M121.84889,66.76479l23.46666,10.86666l-23.46666,11.13334z" fill="url(#color-5)"/><path d="M121.84889,87.76479l23.46666,10.86666l-23.46666,11.13334z" fill="url(#color-6)"/><path d="M121.84889,108.76479l23.46667,10.86667l-23.46667,11.13333z" fill="url(#color-7)"/><path d="M121.84889,129.7648l23.46666,10.86666l-23.46666,11.13334z" fill="url(#color-8)"/><path d="M121.84889,150.7648l23.46666,10.86666l-23.46666,11.13334z" fill="url(#color-9)"/><path d="M121.84889,171.76481l23.46666,10.86666l-23.46666,11.13334z" fill="url(#color-10)"/><path d="M121.84889,192.76481l23.46666,10.86666l-23.46666,11.13334z" fill="url(#color-11)"/><path d="M121.84889,213.76481l23.46666,10.86666l-23.46666,11.13334z" fill="url(#color-12)"/><path d="M121.84889,234.26253l23.46667,10.86667l-23.46667,11.13333z" fill="url(#color-13)"/><path d="M121.84889,255.26255l23.46666,10.86666l-23.46666,11.13334z" fill="url(#color-14)"/><path d="M121.84889,276.26255l23.46666,10.86666l-23.46666,11.13334z" fill="url(#color-15)"/><path d="M121.84889,297.26255l23.46666,10.86666l-23.46666,11.13334z" fill="url(#color-16)"/><path d="M121.84889,318.26255l23.46666,10.86666l-23.46666,11.13334z" fill="url(#color-17)"/><path d="M121.84889,339.26255l23.46666,10.86666l-23.46666,11.13334z" fill="url(#color-18)"/><path d="M121.84889,360.26254l23.46667,10.86667l-23.46667,11.13333z" fill="url(#color-19)"/><path d="M364.13478,4.76479l-23.46667,-11.13333l23.46667,-10.86667z" data-paper-data="{&quot;index&quot;:null}" fill="url(#color-20)"/><path d="M364.13478,25.7648l-23.46666,-11.13334l23.46666,-10.86666z" data-paper-data="{&quot;index&quot;:null}" fill="url(#color-21)"/><path d="M364.13478,46.76479l-23.46666,-11.13334l23.46666,-10.86666z" data-paper-data="{&quot;index&quot;:null}" fill="url(#color-22)"/><path d="M364.13478,67.76479l-23.46666,-11.13334l23.46666,-10.86666z" data-paper-data="{&quot;index&quot;:null}" fill="url(#color-23)"/><path d="M364.13478,88.76479l-23.46666,-11.13334l23.46666,-10.86666z" data-paper-data="{&quot;index&quot;:null}" fill="url(#color-24)"/><path d="M364.13478,109.76479l-23.46666,-11.13334l23.46666,-10.86666z" data-paper-data="{&quot;index&quot;:null}" fill="url(#color-25)"/><path d="M364.13478,130.76479l-23.46667,-11.13333l23.46667,-10.86667z" data-paper-data="{&quot;index&quot;:null}" fill="url(#color-26)"/><path d="M364.13478,151.7648l-23.46666,-11.13334l23.46666,-10.86666z" data-paper-data="{&quot;index&quot;:null}" fill="url(#color-27)"/><path d="M364.13478,172.7648l-23.46666,-11.13334l23.46666,-10.86666z" data-paper-data="{&quot;index&quot;:null}" fill="url(#color-28)"/><path d="M364.13478,193.76481l-23.46666,-11.13334l23.46666,-10.86666z" data-paper-data="{&quot;index&quot;:null}" fill="url(#color-29)"/><path d="M364.13478,214.76481l-23.46666,-11.13334l23.46666,-10.86666z" data-paper-data="{&quot;index&quot;:null}" fill="url(#color-30)"/><path d="M364.13478,235.76481l-23.46666,-11.13334l23.46666,-10.86666z" data-paper-data="{&quot;index&quot;:null}" fill="url(#color-31)"/><path d="M364.13478,256.26253l-23.46667,-11.13333l23.46667,-10.86667z" data-paper-data="{&quot;index&quot;:null}" fill="url(#color-32)"/><path d="M364.13478,277.26255l-23.46666,-11.13334l23.46666,-10.86666z" data-paper-data="{&quot;index&quot;:null}" fill="url(#color-33)"/><path d="M364.13478,298.26255l-23.46666,-11.13334l23.46666,-10.86666z" data-paper-data="{&quot;index&quot;:null}" fill="url(#color-34)"/><path d="M364.13478,319.26255l-23.46666,-11.13334l23.46666,-10.86666z" data-paper-data="{&quot;index&quot;:null}" fill="url(#color-35)"/><path d="M364.13478,340.26255l-23.46666,-11.13334l23.46666,-10.86666z" data-paper-data="{&quot;index&quot;:null}" fill="url(#color-36)"/><path d="M364.13478,361.26255l-23.46666,-11.13334l23.46666,-10.86666z" data-paper-data="{&quot;index&quot;:null}" fill="url(#color-37)"/><path d="M364.13478,382.26254l-23.46667,-11.13333l23.46667,-10.86667z" data-paper-data="{&quot;index&quot;:null}" fill="url(#color-38)"/><path d="M218.85626,271.4238l10.86666,-23.46666l11.13334,23.46666z" fill="url(#color-39)"/><path d="M239.85625,271.4238l10.86666,-23.46666l11.13334,23.46666z" fill="url(#color-40)"/></g></g></svg>