<svg version="1.1" xmlns="http://www.w3.org/2000/svg" xmlns:xlink="http://www.w3.org/1999/xlink" width="133.8062" height="120.98319" viewBox="0,0,133.8062,120.98319"><g transform="translate(-181.39311,-137.77258)"><g data-paper-data="{&quot;isPaintingLayer&quot;:true}" fill-rule="nonzero" stroke="none" stroke-linecap="butt" stroke-linejoin="miter" stroke-miterlimit="10" stroke-dasharray="" stroke-dashoffset="0" style="mix-blend-mode: normal"><path d="M181.39311,258.75577v-62.51155h133.8062v62.51155z" fill="#949494" stroke-width="0"/><text transform="translate(186.54621,232.14763) scale(0.5,0.5)" font-size="40" xml:space="preserve" fill="#565656" fill-rule="nonzero" stroke="none" stroke-width="1" stroke-linecap="butt" stroke-linejoin="miter" stroke-miterlimit="10" stroke-dasharray="" stroke-dashoffset="0" font-family="Sans Serif" font-weight="normal" text-anchor="start" style="mix-blend-mode: normal"><tspan x="0" dy="0">Double jump</tspan></text><path d="M242.04621,207.9v-53.5h13.5v53.5z" fill="#949494" stroke-width="0"/><path d="M226.41879,160.4l22.62742,-22.62742l22.62742,22.62742z" fill="#949494" stroke-width="0"/><path d="M183.79621,200.9c0,-1.24264 1.00736,-2.25 2.25,-2.25c1.24264,0 2.25,1.00736 2.25,2.25c0,1.24264 -1.00736,2.25 -2.25,2.25c-1.24264,0 -2.25,-1.00736 -2.25,-2.25z" fill="#737373" stroke-width="0"/><path d="M183.79621,253.73333c0,-1.24264 1.00736,-2.25 2.25,-2.25c1.24264,0 2.25,1.00736 2.25,2.25c0,1.24264 -1.00736,2.25 -2.25,2.25c-1.24264,0 -2.25,-1.00736 -2.25,-2.25z" fill="#737373" stroke-width="0"/><path d="M307.54621,200.9c0,-1.24264 1.00736,-2.25 2.25,-2.25c1.24264,0 2.25,1.00736 2.25,2.25c0,1.24264 -1.00736,2.25 -2.25,2.25c-1.24264,0 -2.25,-1.00736 -2.25,-2.25z" fill="#737373" stroke-width="0"/><path d="M307.54621,253.73334c0,-1.24264 1.00736,-2.25 2.25,-2.25c1.24264,0 2.25,1.00736 2.25,2.25c0,1.24264 -1.00736,2.25 -2.25,2.25c-1.24264,0 -2.25,-1.00736 -2.25,-2.25z" fill="#737373" stroke-width="0"/></g></g></svg>