<svg version="1.1" xmlns="http://www.w3.org/2000/svg" xmlns:xlink="http://www.w3.org/1999/xlink" width="478.93397" height="364.36647" viewBox="0,0,478.93397,364.36647"><defs><linearGradient x1="289.03846" y1="255.21607" x2="290.08794" y2="372.21136" gradientUnits="userSpaceOnUse" id="color-1"><stop offset="0" stop-color="#000000"/><stop offset="1" stop-color="#ffffff"/></linearGradient><linearGradient x1="347.04064" y1="255.19581" x2="348.0901" y2="372.1911" gradientUnits="userSpaceOnUse" id="color-2"><stop offset="0" stop-color="#000000"/><stop offset="1" stop-color="#ffffff"/></linearGradient><linearGradient x1="404.5473" y1="255.68001" x2="405.59676" y2="372.67531" gradientUnits="userSpaceOnUse" id="color-3"><stop offset="0" stop-color="#000000"/><stop offset="1" stop-color="#ffffff"/></linearGradient><linearGradient x1="462.79944" y1="255.65974" x2="463.8489" y2="372.65503" gradientUnits="userSpaceOnUse" id="color-4"><stop offset="0" stop-color="#000000"/><stop offset="1" stop-color="#ffffff"/></linearGradient><linearGradient x1="58.02533" y1="254.78819" x2="59.07479" y2="371.78348" gradientUnits="userSpaceOnUse" id="color-5"><stop offset="0" stop-color="#000000"/><stop offset="1" stop-color="#ffffff"/></linearGradient><linearGradient x1="116.02748" y1="254.76791" x2="117.07694" y2="371.76321" gradientUnits="userSpaceOnUse" id="color-6"><stop offset="0" stop-color="#000000"/><stop offset="1" stop-color="#ffffff"/></linearGradient><linearGradient x1="173.53416" y1="255.25213" x2="174.58363" y2="372.24742" gradientUnits="userSpaceOnUse" id="color-7"><stop offset="0" stop-color="#000000"/><stop offset="1" stop-color="#ffffff"/></linearGradient><linearGradient x1="231.53633" y1="255.23184" x2="232.58578" y2="372.22714" gradientUnits="userSpaceOnUse" id="color-8"><stop offset="0" stop-color="#000000"/><stop offset="1" stop-color="#ffffff"/></linearGradient><linearGradient x1="520.80157" y1="255.63949" x2="521.85105" y2="372.63479" gradientUnits="userSpaceOnUse" id="color-9"><stop offset="0" stop-color="#000000"/><stop offset="1" stop-color="#ffffff"/></linearGradient><linearGradient x1="353.42476" y1="30.89713" x2="353.42476" y2="7.43047" gradientUnits="userSpaceOnUse" id="color-10"><stop offset="0" stop-color="#ff0000"/><stop offset="1" stop-color="#c30000"/></linearGradient><linearGradient x1="167.66669" y1="94.20001" x2="167.66669" y2="117.66667" gradientUnits="userSpaceOnUse" id="color-11"><stop offset="0" stop-color="#ff0000"/><stop offset="1" stop-color="#c30000"/></linearGradient><linearGradient x1="188.6667" y1="94.20001" x2="188.6667" y2="117.66667" gradientUnits="userSpaceOnUse" id="color-12"><stop offset="0" stop-color="#ff0000"/><stop offset="1" stop-color="#c30000"/></linearGradient><linearGradient x1="209.66669" y1="94.20001" x2="209.66669" y2="117.66667" gradientUnits="userSpaceOnUse" id="color-13"><stop offset="0" stop-color="#ff0000"/><stop offset="1" stop-color="#c30000"/></linearGradient><linearGradient x1="230.66669" y1="94.20001" x2="230.66669" y2="117.66667" gradientUnits="userSpaceOnUse" id="color-14"><stop offset="0" stop-color="#ff0000"/><stop offset="1" stop-color="#c30000"/></linearGradient><linearGradient x1="251.6667" y1="94.20001" x2="251.6667" y2="117.66667" gradientUnits="userSpaceOnUse" id="color-15"><stop offset="0" stop-color="#ff0000"/><stop offset="1" stop-color="#c30000"/></linearGradient><linearGradient x1="272.66668" y1="94.20001" x2="272.66668" y2="117.66667" gradientUnits="userSpaceOnUse" id="color-16"><stop offset="0" stop-color="#ff0000"/><stop offset="1" stop-color="#c30000"/></linearGradient><linearGradient x1="293.66668" y1="94.20001" x2="293.66668" y2="117.66667" gradientUnits="userSpaceOnUse" id="color-17"><stop offset="0" stop-color="#ff0000"/><stop offset="1" stop-color="#c30000"/></linearGradient><linearGradient x1="314.66668" y1="94.20001" x2="314.66668" y2="117.66667" gradientUnits="userSpaceOnUse" id="color-18"><stop offset="0" stop-color="#ff0000"/><stop offset="1" stop-color="#c30000"/></linearGradient><linearGradient x1="335.66672" y1="94.20001" x2="335.66672" y2="117.66667" gradientUnits="userSpaceOnUse" id="color-19"><stop offset="0" stop-color="#ff0000"/><stop offset="1" stop-color="#c30000"/></linearGradient><linearGradient x1="356.66672" y1="94.20001" x2="356.66672" y2="117.66667" gradientUnits="userSpaceOnUse" id="color-20"><stop offset="0" stop-color="#ff0000"/><stop offset="1" stop-color="#c30000"/></linearGradient><linearGradient x1="377.66672" y1="94.20001" x2="377.66672" y2="117.66667" gradientUnits="userSpaceOnUse" id="color-21"><stop offset="0" stop-color="#ff0000"/><stop offset="1" stop-color="#c30000"/></linearGradient><linearGradient x1="398.66669" y1="94.20001" x2="398.66669" y2="117.66667" gradientUnits="userSpaceOnUse" id="color-22"><stop offset="0" stop-color="#ff0000"/><stop offset="1" stop-color="#c30000"/></linearGradient><linearGradient x1="410.00002" y1="241.95002" x2="410.00002" y2="274.25001" gradientUnits="userSpaceOnUse" id="color-23"><stop offset="0" stop-color="#ff0000"/><stop offset="1" stop-color="#c30000"/></linearGradient><linearGradient x1="129.66669" y1="241.95002" x2="129.66669" y2="274.25001" gradientUnits="userSpaceOnUse" id="color-24"><stop offset="0" stop-color="#ff0000"/><stop offset="1" stop-color="#c30000"/></linearGradient><linearGradient x1="213.66669" y1="241.95002" x2="213.66669" y2="274.25001" gradientUnits="userSpaceOnUse" id="color-25"><stop offset="0" stop-color="#ff0000"/><stop offset="1" stop-color="#c30000"/></linearGradient></defs><g transform="translate(57.93395,-7.43047)"><g data-paper-data="{&quot;isPaintingLayer&quot;:true}" fill-rule="nonzero" stroke="none" stroke-width="0" stroke-linecap="butt" stroke-linejoin="miter" stroke-miterlimit="10" stroke-dasharray="" stroke-dashoffset="0" style="mix-blend-mode: normal"><path d="M213.07918,276.76089c0,0 -0.35586,-18.26908 -0.36244,-21.29449c6.66023,-4.3 7.41382,-13.27966 19.70323,-13.2915c0.10382,-0.0001 0.16129,34.55228 0.16129,34.55228z" fill="url(#color-1)"/><path d="M231.08135,276.74062c0,0 0.19964,-35.01856 1.33383,-35.01719c20.47193,0.02464 14.45132,15.9414 29.6705,15.96659c15.96904,0.02644 12.16376,-15.51981 28.33646,-15.53539c0.10381,-0.0001 0.16129,34.55228 0.16129,34.55228z" fill="url(#color-2)"/><path d="M288.58799,277.22483c0,0 0.19964,-35.01856 1.33383,-35.01719c20.47193,0.02464 14.45132,15.9414 29.6705,15.96659c15.96904,0.02644 12.16376,-15.51981 28.33646,-15.53539c0.10381,-0.0001 0.16129,34.55228 0.16129,34.55228z" fill="url(#color-3)"/><path d="M346.84016,277.20455c0,0 0.19964,-35.01856 1.33383,-35.01719c20.47193,0.02464 14.45132,15.9414 29.6705,15.96659c15.96904,0.02644 12.16376,-15.51981 28.33646,-15.53539c0.10381,-0.0001 0.16129,34.55228 0.16129,34.55228z" fill="url(#color-4)"/><path d="M-57.93394,371.33301c0,0 0.19964,-130.01856 1.33383,-130.01719c20.47193,0.02464 14.45131,15.9414 29.6705,15.96659c15.96904,0.02644 12.16376,-15.51981 28.33646,-15.53539c0.10382,-0.0001 0.16129,129.55228 0.16129,129.55228z" fill="url(#color-5)"/><path d="M0.06821,371.31273c0,0 0.19964,-130.01856 1.33383,-130.01719c20.47193,0.02464 14.45132,15.9414 29.6705,15.96659c15.96904,0.02644 12.16376,-15.51981 28.33646,-15.53539c0.10381,-0.0001 0.16129,129.55228 0.16129,129.55228z" fill="url(#color-6)"/><path d="M57.57488,371.79694c0,0 0.19964,-130.01856 1.33383,-130.01719c20.47193,0.02464 14.45132,15.9414 29.6705,15.96659c15.96904,0.02644 14.16376,-15.51981 30.33646,-15.53539c0.10381,-0.0001 -1.83871,129.55228 -1.83871,129.55228z" fill="url(#color-7)"/><path d="M115.57701,276.77666c0,0 0.19964,-35.01856 1.33383,-35.01719c6.2213,0.00749 9.99597,1.48264 12.66362,3.53345c-1.42358,6.59842 -1.05093,31.45004 -1.05093,31.45004z" fill="url(#color-8)"/><path d="M404.84232,271.04145c0,0 0.19964,-28.87571 1.33383,-28.87433c1.28195,0.00154 3.25266,-0.86846 3.54593,0.18377c0.68383,10.77197 -4.87977,28.69056 -4.87977,28.69056z" fill="url(#color-9)"/><path d="M364.42476,7.43047l-10.86666,23.46666l-11.13334,-23.46666z" fill="url(#color-10)"/><path d="M156.66669,117.66667l10.86667,-23.46667l11.13333,23.46667z" fill="url(#color-11)"/><path d="M177.6667,117.66667l10.86666,-23.46666l11.13334,23.46666z" fill="url(#color-12)"/><path d="M198.66669,117.66667l10.86666,-23.46666l11.13334,23.46666z" fill="url(#color-13)"/><path d="M219.66669,117.66667l10.86666,-23.46666l11.13334,23.46666z" fill="url(#color-14)"/><path d="M240.66669,117.66667l10.86666,-23.46666l11.13334,23.46666z" fill="url(#color-15)"/><path d="M261.66668,117.66667l10.86666,-23.46666l11.13334,23.46666z" fill="url(#color-16)"/><path d="M282.66668,117.66667l10.86667,-23.46667l11.13333,23.46667z" fill="url(#color-17)"/><path d="M303.66668,117.66667l10.86666,-23.46666l11.13334,23.46666z" fill="url(#color-18)"/><path d="M324.66668,117.66667l10.86666,-23.46666l11.13334,23.46666z" fill="url(#color-19)"/><path d="M345.66672,117.66667l10.86666,-23.46666l11.13334,23.46666z" fill="url(#color-20)"/><path d="M366.66672,117.66667l10.86666,-23.46666l11.13334,23.46666z" fill="url(#color-21)"/><path d="M387.66672,117.66667l10.86666,-23.46666l11.13334,23.46666z" fill="url(#color-22)"/><path d="M399.00002,274.25001l10.86667,-32.3l11.13333,32.30001z" fill="url(#color-23)"/><path d="M118.66669,274.25001l10.86667,-32.3l11.13333,32.30001z" fill="url(#color-24)"/><path d="M202.66669,274.25001l10.86667,-32.3l11.13333,32.30001z" fill="url(#color-25)"/></g></g></svg>