<svg version="1.1" xmlns="http://www.w3.org/2000/svg" xmlns:xlink="http://www.w3.org/1999/xlink" width="478.14114" height="362.67109" viewBox="0,0,478.14114,362.67109"><defs><radialGradient cx="239.51424" cy="179.01922" r="239.07057" gradientUnits="userSpaceOnUse" id="color-1"><stop offset="0" stop-color="#c4c4c4"/><stop offset="1" stop-color="#989898"/></radialGradient></defs><g transform="translate(-0.92943,1.33555)"><g data-paper-data="{&quot;isPaintingLayer&quot;:true}" fill-rule="nonzero" stroke="none" stroke-width="0" stroke-linecap="butt" stroke-linejoin="miter" stroke-miterlimit="10" stroke-dasharray="" stroke-dashoffset="0" style="mix-blend-mode: normal"><path d="M0.92943,361.33554v-362.67109h478.14114v362.67109z" fill="url(#color-1)"/><g fill="#989898"><path d="M268.03333,227.73925l-24.5346,25.88235l-24.4654,-25.88235v-19.11765l24.30103,25.88235l24.69897,-25.88235z"/><path d="M268.03333,198.73924l-24.5346,25.88236l-24.4654,-25.88236v-19.11764l24.30103,25.88236l24.69897,-25.88236z"/><path d="M268.03333,170.23924l-24.5346,25.88236l-24.4654,-25.88236v-19.11764l24.30103,25.88236l24.69897,-25.88236z"/></g><g fill="#989898"><path d="M157.5,226.2049l32,-69.33333h12.66667l-32,69.33333z"/><path d="M189.50001,226.2049l-32,-69.33333h12.66667l32,69.33333z" data-paper-data="{&quot;index&quot;:null}"/></g><g fill="#989898"><path d="M283.76667,226.53824l32,-69.33333h12.66667l-32,69.33333z"/><path d="M315.76667,226.53824l-32,-69.33333h12.66667l32,69.33333z" data-paper-data="{&quot;index&quot;:null}"/></g></g></g></svg>