<svg version="1.1" xmlns="http://www.w3.org/2000/svg" xmlns:xlink="http://www.w3.org/1999/xlink" width="46.06667" height="44.89364" viewBox="0,0,46.06667,44.89364"><g transform="translate(-216.96667,-157.55318)"><g data-paper-data="{&quot;isPaintingLayer&quot;:true}" fill-rule="nonzero" stroke-linejoin="miter" stroke-miterlimit="10" stroke-dasharray="" stroke-dashoffset="0" style="mix-blend-mode: normal"><path d="M218.46667,200.94682v-41.89364h43.06667v41.89364z" fill="#bbbbbb" stroke="#000000" stroke-width="3" stroke-linecap="butt"/><path d="M226.4046,191.25028l-4.05333,-14.5831c0,0 -0.62153,-3.10438 6.8334,-5.13136c7.40981,-2.01471 9.00207,2.15759 15.16491,0.58836c6.26224,-1.59455 8.27089,-3.87024 8.27089,-3.87024l4.05333,14.5831c0,0 -1.18677,2.47506 -8.60615,4.87188c-5.80668,1.87584 -7.99195,-2.70046 -14.71101,-0.90474c-5.29262,1.41449 -6.95204,4.4461 -6.95204,4.4461z" fill="#fffcb3" stroke="#000000" stroke-width="3" stroke-linecap="butt"/><path d="M244.92465,176.21611l4.06738,4.31778" fill="none" stroke="#ff0000" stroke-width="2" stroke-linecap="round"/><path d="M249.11722,176.34131l-4.31778,4.06738" fill="none" stroke="#ff0000" stroke-width="2" stroke-linecap="round"/><path d="M227.97222,185.33333l1.16667,-2.38889" fill="none" stroke="#ff0000" stroke-width="2" stroke-linecap="round"/><path d="M230.58333,180.22222l1.77778,-1.77778" fill="none" stroke="#ff0000" stroke-width="2" stroke-linecap="round"/><path d="M235.08333,177.11111l2.77778,0.11111" fill="none" stroke="#ff0000" stroke-width="2" stroke-linecap="round"/><path d="M240.41667,177.38889l2,0.66667" fill="none" stroke="#ff0000" stroke-width="2" stroke-linecap="round"/></g></g></svg>