<svg version="1.1" xmlns="http://www.w3.org/2000/svg" xmlns:xlink="http://www.w3.org/1999/xlink" width="441.49776" height="303.23334" viewBox="0,0,441.49776,303.23334"><defs><linearGradient x1="-2.8311" y1="335.53335" x2="-2.8311" y2="359.00001" gradientUnits="userSpaceOnUse" id="color-1"><stop offset="0" stop-color="#ff0000"/><stop offset="1" stop-color="#c30000"/></linearGradient><linearGradient x1="18.1689" y1="335.53335" x2="18.1689" y2="359.00001" gradientUnits="userSpaceOnUse" id="color-2"><stop offset="0" stop-color="#ff0000"/><stop offset="1" stop-color="#c30000"/></linearGradient><linearGradient x1="39.1689" y1="335.53335" x2="39.1689" y2="359.00001" gradientUnits="userSpaceOnUse" id="color-3"><stop offset="0" stop-color="#ff0000"/><stop offset="1" stop-color="#c30000"/></linearGradient><linearGradient x1="60.1689" y1="335.53335" x2="60.1689" y2="359.00001" gradientUnits="userSpaceOnUse" id="color-4"><stop offset="0" stop-color="#ff0000"/><stop offset="1" stop-color="#c30000"/></linearGradient><linearGradient x1="81.16891" y1="335.53335" x2="81.16891" y2="359.00001" gradientUnits="userSpaceOnUse" id="color-5"><stop offset="0" stop-color="#ff0000"/><stop offset="1" stop-color="#c30000"/></linearGradient><linearGradient x1="102.16892" y1="335.53335" x2="102.16892" y2="359.00001" gradientUnits="userSpaceOnUse" id="color-6"><stop offset="0" stop-color="#ff0000"/><stop offset="1" stop-color="#c30000"/></linearGradient><linearGradient x1="123.16892" y1="335.53335" x2="123.16892" y2="359.00001" gradientUnits="userSpaceOnUse" id="color-7"><stop offset="0" stop-color="#ff0000"/><stop offset="1" stop-color="#c30000"/></linearGradient><linearGradient x1="144.16892" y1="335.53335" x2="144.16892" y2="359.00001" gradientUnits="userSpaceOnUse" id="color-8"><stop offset="0" stop-color="#ff0000"/><stop offset="1" stop-color="#c30000"/></linearGradient><linearGradient x1="165.1689" y1="335.53335" x2="165.1689" y2="359.00001" gradientUnits="userSpaceOnUse" id="color-9"><stop offset="0" stop-color="#ff0000"/><stop offset="1" stop-color="#c30000"/></linearGradient><linearGradient x1="185.66664" y1="335.53335" x2="185.66664" y2="359.00001" gradientUnits="userSpaceOnUse" id="color-10"><stop offset="0" stop-color="#ff0000"/><stop offset="1" stop-color="#c30000"/></linearGradient><linearGradient x1="206.66666" y1="335.53335" x2="206.66666" y2="359.00001" gradientUnits="userSpaceOnUse" id="color-11"><stop offset="0" stop-color="#ff0000"/><stop offset="1" stop-color="#c30000"/></linearGradient><linearGradient x1="227.66666" y1="335.53335" x2="227.66666" y2="359.00001" gradientUnits="userSpaceOnUse" id="color-12"><stop offset="0" stop-color="#ff0000"/><stop offset="1" stop-color="#c30000"/></linearGradient><linearGradient x1="248.66666" y1="335.53335" x2="248.66666" y2="359.00001" gradientUnits="userSpaceOnUse" id="color-13"><stop offset="0" stop-color="#ff0000"/><stop offset="1" stop-color="#c30000"/></linearGradient><linearGradient x1="269.66666" y1="335.53335" x2="269.66666" y2="359.00001" gradientUnits="userSpaceOnUse" id="color-14"><stop offset="0" stop-color="#ff0000"/><stop offset="1" stop-color="#c30000"/></linearGradient><linearGradient x1="290.66666" y1="335.53335" x2="290.66666" y2="359.00001" gradientUnits="userSpaceOnUse" id="color-15"><stop offset="0" stop-color="#ff0000"/><stop offset="1" stop-color="#c30000"/></linearGradient><linearGradient x1="311.66665" y1="335.53335" x2="311.66665" y2="359.00001" gradientUnits="userSpaceOnUse" id="color-16"><stop offset="0" stop-color="#ff0000"/><stop offset="1" stop-color="#c30000"/></linearGradient><linearGradient x1="332.66666" y1="335.53335" x2="332.66666" y2="359.00001" gradientUnits="userSpaceOnUse" id="color-17"><stop offset="0" stop-color="#ff0000"/><stop offset="1" stop-color="#c30000"/></linearGradient><linearGradient x1="353.66666" y1="335.53335" x2="353.66666" y2="359.00001" gradientUnits="userSpaceOnUse" id="color-18"><stop offset="0" stop-color="#ff0000"/><stop offset="1" stop-color="#c30000"/></linearGradient><linearGradient x1="374.66666" y1="335.53335" x2="374.66666" y2="359.00001" gradientUnits="userSpaceOnUse" id="color-19"><stop offset="0" stop-color="#ff0000"/><stop offset="1" stop-color="#c30000"/></linearGradient><linearGradient x1="395.66666" y1="335.53335" x2="395.66666" y2="359.00001" gradientUnits="userSpaceOnUse" id="color-20"><stop offset="0" stop-color="#ff0000"/><stop offset="1" stop-color="#c30000"/></linearGradient><linearGradient x1="416.66666" y1="335.53335" x2="416.66666" y2="359.00001" gradientUnits="userSpaceOnUse" id="color-21"><stop offset="0" stop-color="#ff0000"/><stop offset="1" stop-color="#c30000"/></linearGradient><linearGradient x1="352.16666" y1="170.03335" x2="352.16666" y2="193.50001" gradientUnits="userSpaceOnUse" id="color-22"><stop offset="0" stop-color="#ff0000"/><stop offset="1" stop-color="#c30000"/></linearGradient><linearGradient x1="331.16665" y1="170.03335" x2="331.16665" y2="193.50001" gradientUnits="userSpaceOnUse" id="color-23"><stop offset="0" stop-color="#ff0000"/><stop offset="1" stop-color="#c30000"/></linearGradient><linearGradient x1="310.16666" y1="170.03335" x2="310.16666" y2="193.50001" gradientUnits="userSpaceOnUse" id="color-24"><stop offset="0" stop-color="#ff0000"/><stop offset="1" stop-color="#c30000"/></linearGradient><linearGradient x1="219" y1="79.23332" x2="219" y2="55.76667" gradientUnits="userSpaceOnUse" id="color-25"><stop offset="0" stop-color="#ff0000"/><stop offset="1" stop-color="#c30000"/></linearGradient><linearGradient x1="240.00001" y1="79.23332" x2="240.00001" y2="55.76667" gradientUnits="userSpaceOnUse" id="color-26"><stop offset="0" stop-color="#ff0000"/><stop offset="1" stop-color="#c30000"/></linearGradient><linearGradient x1="261" y1="79.23332" x2="261" y2="55.76667" gradientUnits="userSpaceOnUse" id="color-27"><stop offset="0" stop-color="#ff0000"/><stop offset="1" stop-color="#c30000"/></linearGradient><linearGradient x1="127.83335" y1="170.03335" x2="127.83335" y2="193.50001" gradientUnits="userSpaceOnUse" id="color-28"><stop offset="0" stop-color="#ff0000"/><stop offset="1" stop-color="#c30000"/></linearGradient><linearGradient x1="148.83336" y1="170.03335" x2="148.83336" y2="193.50001" gradientUnits="userSpaceOnUse" id="color-29"><stop offset="0" stop-color="#ff0000"/><stop offset="1" stop-color="#c30000"/></linearGradient><linearGradient x1="169.83335" y1="170.03335" x2="169.83335" y2="193.50001" gradientUnits="userSpaceOnUse" id="color-30"><stop offset="0" stop-color="#ff0000"/><stop offset="1" stop-color="#c30000"/></linearGradient></defs><g transform="translate(13.8311,-55.76666)"><g data-paper-data="{&quot;isPaintingLayer&quot;:true}" fill-rule="nonzero" stroke="none" stroke-width="0" stroke-linecap="butt" stroke-linejoin="miter" stroke-miterlimit="10" stroke-dasharray="" stroke-dashoffset="0" style="mix-blend-mode: normal"><path d="M-13.8311,359.00001l10.86666,-23.46666l11.13334,23.46666z" data-paper-data="{&quot;index&quot;:null}" fill="url(#color-1)"/><path d="M7.1689,359.00001l10.86666,-23.46666l11.13334,23.46666z" data-paper-data="{&quot;index&quot;:null}" fill="url(#color-2)"/><path d="M28.1689,359.00001l10.86666,-23.46666l11.13334,23.46666z" data-paper-data="{&quot;index&quot;:null}" fill="url(#color-3)"/><path d="M49.1689,359.00001l10.86667,-23.46667l11.13333,23.46667z" data-paper-data="{&quot;index&quot;:null}" fill="url(#color-4)"/><path d="M70.16891,359.00001l10.86666,-23.46666l11.13334,23.46666z" data-paper-data="{&quot;index&quot;:null}" fill="url(#color-5)"/><path d="M91.16891,359.00001l10.86666,-23.46666l11.13334,23.46666z" data-paper-data="{&quot;index&quot;:null}" fill="url(#color-6)"/><path d="M112.16892,359.00001l10.86666,-23.46666l11.13334,23.46666z" data-paper-data="{&quot;index&quot;:null}" fill="url(#color-7)"/><path d="M133.16892,359.00001l10.86666,-23.46666l11.13334,23.46666z" data-paper-data="{&quot;index&quot;:null}" fill="url(#color-8)"/><path d="M154.16892,359.00001l10.86666,-23.46666l11.13334,23.46666z" data-paper-data="{&quot;index&quot;:null}" fill="url(#color-9)"/><path d="M174.66664,359.00001l10.86667,-23.46667l11.13333,23.46667z" data-paper-data="{&quot;index&quot;:null}" fill="url(#color-10)"/><path d="M195.66666,359.00001l10.86666,-23.46666l11.13334,23.46666z" data-paper-data="{&quot;index&quot;:null}" fill="url(#color-11)"/><path d="M216.66666,359.00001l10.86666,-23.46666l11.13334,23.46666z" data-paper-data="{&quot;index&quot;:null}" fill="url(#color-12)"/><path d="M237.66666,359.00001l10.86666,-23.46666l11.13334,23.46666z" data-paper-data="{&quot;index&quot;:null}" fill="url(#color-13)"/><path d="M258.66666,359.00001l10.86666,-23.46666l11.13334,23.46666z" data-paper-data="{&quot;index&quot;:null}" fill="url(#color-14)"/><path d="M279.66666,359.00001l10.86666,-23.46666l11.13334,23.46666z" data-paper-data="{&quot;index&quot;:null}" fill="url(#color-15)"/><path d="M300.66665,359.00001l10.86667,-23.46667l11.13333,23.46667z" data-paper-data="{&quot;index&quot;:null}" fill="url(#color-16)"/><path d="M321.66666,359.00001l10.86666,-23.46666l11.13334,23.46666z" data-paper-data="{&quot;index&quot;:null}" fill="url(#color-17)"/><path d="M342.66666,359.00001l10.86666,-23.46666l11.13334,23.46666z" data-paper-data="{&quot;index&quot;:null}" fill="url(#color-18)"/><path d="M363.66666,359.00001l10.86666,-23.46666l11.13334,23.46666z" data-paper-data="{&quot;index&quot;:null}" fill="url(#color-19)"/><path d="M384.66666,359.00001l10.86666,-23.46666l11.13334,23.46666z" data-paper-data="{&quot;index&quot;:null}" fill="url(#color-20)"/><path d="M405.66666,359.00001l10.86666,-23.46666l11.13334,23.46666z" data-paper-data="{&quot;index&quot;:null}" fill="url(#color-21)"/><path d="M341.16666,193.50001l11.13333,-23.46667l10.86667,23.46667z" data-paper-data="{&quot;index&quot;:null}" fill="url(#color-22)"/><path d="M320.16665,193.50001l11.13334,-23.46666l10.86666,23.46666z" data-paper-data="{&quot;index&quot;:null}" fill="url(#color-23)"/><path d="M299.16666,193.50001l11.13334,-23.46666l10.86666,23.46666z" data-paper-data="{&quot;index&quot;:null}" fill="url(#color-24)"/><path d="M230,55.76667l-11.13333,23.46667l-10.86667,-23.46667z" data-paper-data="{&quot;index&quot;:null}" fill="url(#color-25)"/><path d="M251.00001,55.76667l-11.13334,23.46666l-10.86666,-23.46666z" data-paper-data="{&quot;index&quot;:null}" fill="url(#color-26)"/><path d="M272,55.76667l-11.13334,23.46666l-10.86666,-23.46666z" data-paper-data="{&quot;index&quot;:null}" fill="url(#color-27)"/><path d="M116.83335,193.50001l10.86667,-23.46667l11.13333,23.46667z" fill="url(#color-28)"/><path d="M137.83336,193.50001l10.86666,-23.46666l11.13334,23.46666z" fill="url(#color-29)"/><path d="M158.83335,193.50001l10.86666,-23.46666l11.13334,23.46666z" fill="url(#color-30)"/></g></g></svg>