<svg version="1.1" xmlns="http://www.w3.org/2000/svg" xmlns:xlink="http://www.w3.org/1999/xlink" width="484.38696" height="376.34283" viewBox="0,0,484.38696,376.34283"><defs><linearGradient x1="62.02274" y1="-2.56101" x2="62.02274" y2="51.12233" gradientUnits="userSpaceOnUse" id="color-1"><stop offset="0" stop-color="#cacaca"/><stop offset="1" stop-color="#000000"/></linearGradient></defs><g transform="translate(2.85646,14.84406)"><g data-paper-data="{&quot;isPaintingLayer&quot;:true}" fill-rule="nonzero" stroke="none" stroke-width="0" stroke-linecap="butt" stroke-linejoin="miter" stroke-miterlimit="10" stroke-dasharray="" stroke-dashoffset="0" style="mix-blend-mode: normal"><path d="M47.61365,56.48404v-58.57571h400v58.57571z" fill="#ffffff"/><path d="M0.61365,69.48404v-70.5h49.5v12.5l20,58z" fill="#aaaaaa"/><path d="M475.302,350.98959l-462.99607,-0.4531v-294.29144h462.99607z" fill="#aaaaaa"/><path d="M41.34435,325.00353v-47h18.5v47z" fill="#848484"/><path d="M22.34435,298.50353v-27h55.5v27z" fill="#ffea00"/><path d="M426.86365,286.06714v-167.5h25.5v167.5z" fill="#ff0000"/><path d="M319.58324,290.02759v-23.47728h48.53352v23.47728z" fill="#000000"/><path d="M374.36365,285.56714v-157.5h20v157.5z" fill="#ff0000"/><path d="M445.80446,361.10997v-375.95402h35.72604v375.95403z" fill="#000000"/><path d="M61.39774,51.12233l-14.75,-41.46644v-12.21689h16v12.46689l14.75,41.21644z" fill="url(#color-1)"/><path d="M75.43979,95.5559l-13.99624,-44.5h170.3v44.5z" fill="#000000"/><path d="M-2.85646,360.06029v-38.73817h484.3612v38.73817z" fill="#000000"/><path d="M-2.35646,361.49878v-365.21191h23v365.21191z" fill="#000000"/><path d="M204.76644,289.32205v-200h27v200z" fill="#000000"/><path d="M319.58324,239.72757v-23.67728h43.33352v23.67728z" fill="#000000"/><path d="M319.58324,184.72757v-22.17728h43.33352v22.17728z" fill="#000000"/><path d="M319.58324,130.5847v-22.67728h75.53352v22.67728z" fill="#000000"/><path d="M224.93997,68.00589v-16.8h226.6v16.8z" fill="#000000"/><path d="M352.76644,289.8221v-182h22.5v182z" fill="#000000"/><path d="M423.53997,131.42208v-69h30.8v69z" fill="#000000"/><path d="M231.08324,274.22754v-22.17728h89.83352v22.17728z" fill="#000000"/><path d="M231.08324,224.22754v-22.17728h89.83352v22.17728z" fill="#000000"/><path d="M231.08324,169.22754v-21.17728h89.83352v21.17728z" fill="#000000"/><path d="M231.08324,115.58468v-22.67728h89.83352v22.67728z" fill="#000000"/><path d="M231.08324,361.14632v-55.73485h89.83352v55.73485z" fill="#000000"/></g></g></svg>