<svg version="1.1" xmlns="http://www.w3.org/2000/svg" xmlns:xlink="http://www.w3.org/1999/xlink" width="576.57658" height="411.7057" viewBox="0,0,576.57658,411.7057"><g transform="translate(32.83379,32.74442)"><g data-paper-data="{&quot;isPaintingLayer&quot;:true}" fill-rule="nonzero" stroke="none" stroke-width="0" stroke-linecap="butt" stroke-linejoin="miter" stroke-miterlimit="10" stroke-dasharray="" stroke-dashoffset="0" style="mix-blend-mode: normal"><path d="M482.19178,323.07079l-490.90161,-0.51702v-335.80875h490.90161z" fill="#aaaaaa"/><path d="M358.55171,115.93656v-107.5h134v107.5z" fill="#000000"/><path d="M457.452,212.1986v-122.60912h35v122.60912z" data-paper-data="{&quot;index&quot;:null}" fill="#000000"/><path d="M129.53892,138.11444l-92.51934,173.24893v67.59791h-50v-240.84684z" data-paper-data="{&quot;index&quot;:null}" fill="#000000"/><path d="M-32.83379,25.81414v-58.55856h576.57658v58.55856z" data-paper-data="{&quot;index&quot;:null}" fill="#000000"/><path d="M113.87825,138.7311v-36.32079h15.5939v36.32079z" fill="#000000"/><path d="M92.03842,140.42998l23.77578,-15.03956v15.03956z" fill="#000000"/><path d="M396.99279,277.46128v-28.5h97.75v28.5z" fill="#000000"/><path d="M187.22929,115.34506v-12.72753h143.78274v12.72753z" fill="#000000"/><path d="M129.991,129.29124v-26.5h56.77208v26.5z" data-paper-data="{&quot;index&quot;:null}" fill="#585858"/><path d="M357.87704,212.67729h-26.5v-110.27208h26.5z" data-paper-data="{&quot;index&quot;:null}" fill="#585858"/><path d="M129.491,245.29124v-26.5h148.77208v26.5z" data-paper-data="{&quot;index&quot;:null}" fill="#585858"/></g></g></svg>