<svg version="1.1" xmlns="http://www.w3.org/2000/svg" xmlns:xlink="http://www.w3.org/1999/xlink" width="356.98221" height="536.98217" viewBox="0,0,356.98221,536.98217"><defs><linearGradient x1="446.84894" y1="-107.98215" x2="470.31558" y2="-107.98215" gradientUnits="userSpaceOnUse" id="color-1"><stop offset="0" stop-color="#ff0000"/><stop offset="1" stop-color="#c30000"/></linearGradient><linearGradient x1="446.84894" y1="-128.98215" x2="470.31558" y2="-128.98215" gradientUnits="userSpaceOnUse" id="color-2"><stop offset="0" stop-color="#ff0000"/><stop offset="1" stop-color="#c30000"/></linearGradient><linearGradient x1="446.84894" y1="-149.98215" x2="470.31558" y2="-149.98215" gradientUnits="userSpaceOnUse" id="color-3"><stop offset="0" stop-color="#ff0000"/><stop offset="1" stop-color="#c30000"/></linearGradient><linearGradient x1="446.84894" y1="-170.98215" x2="470.31558" y2="-170.98215" gradientUnits="userSpaceOnUse" id="color-4"><stop offset="0" stop-color="#ff0000"/><stop offset="1" stop-color="#c30000"/></linearGradient><linearGradient x1="137.31555" y1="-169.98219" x2="113.84889" y2="-169.98219" gradientUnits="userSpaceOnUse" id="color-5"><stop offset="0" stop-color="#ff0000"/><stop offset="1" stop-color="#c30000"/></linearGradient><linearGradient x1="137.31555" y1="-148.98218" x2="113.84889" y2="-148.98218" gradientUnits="userSpaceOnUse" id="color-6"><stop offset="0" stop-color="#ff0000"/><stop offset="1" stop-color="#c30000"/></linearGradient><linearGradient x1="270.8311" y1="331.53335" x2="270.8311" y2="355.00002" gradientUnits="userSpaceOnUse" id="color-7"><stop offset="0" stop-color="#ff0000"/><stop offset="1" stop-color="#c30000"/></linearGradient><linearGradient x1="291.8311" y1="331.53335" x2="291.8311" y2="355.00002" gradientUnits="userSpaceOnUse" id="color-8"><stop offset="0" stop-color="#ff0000"/><stop offset="1" stop-color="#c30000"/></linearGradient><linearGradient x1="312.8311" y1="331.53335" x2="312.8311" y2="355.00002" gradientUnits="userSpaceOnUse" id="color-9"><stop offset="0" stop-color="#ff0000"/><stop offset="1" stop-color="#c30000"/></linearGradient><linearGradient x1="333.8311" y1="331.53335" x2="333.8311" y2="355.00002" gradientUnits="userSpaceOnUse" id="color-10"><stop offset="0" stop-color="#ff0000"/><stop offset="1" stop-color="#c30000"/></linearGradient><linearGradient x1="354.83111" y1="331.53335" x2="354.83111" y2="355.00002" gradientUnits="userSpaceOnUse" id="color-11"><stop offset="0" stop-color="#ff0000"/><stop offset="1" stop-color="#c30000"/></linearGradient><linearGradient x1="375.8311" y1="331.53335" x2="375.8311" y2="355.00002" gradientUnits="userSpaceOnUse" id="color-12"><stop offset="0" stop-color="#ff0000"/><stop offset="1" stop-color="#c30000"/></linearGradient><linearGradient x1="396.83111" y1="331.53335" x2="396.83111" y2="355.00002" gradientUnits="userSpaceOnUse" id="color-13"><stop offset="0" stop-color="#ff0000"/><stop offset="1" stop-color="#c30000"/></linearGradient><linearGradient x1="417.83111" y1="331.53335" x2="417.83111" y2="355.00002" gradientUnits="userSpaceOnUse" id="color-14"><stop offset="0" stop-color="#ff0000"/><stop offset="1" stop-color="#c30000"/></linearGradient><linearGradient x1="438.83111" y1="331.53335" x2="438.83111" y2="355.00002" gradientUnits="userSpaceOnUse" id="color-15"><stop offset="0" stop-color="#ff0000"/><stop offset="1" stop-color="#c30000"/></linearGradient><linearGradient x1="459.83111" y1="331.53335" x2="459.83111" y2="355.00002" gradientUnits="userSpaceOnUse" id="color-16"><stop offset="0" stop-color="#ff0000"/><stop offset="1" stop-color="#c30000"/></linearGradient></defs><g transform="translate(-113.84889,181.98215)"><g data-paper-data="{&quot;isPaintingLayer&quot;:true}" fill-rule="nonzero" stroke="none" stroke-width="0" stroke-linecap="butt" stroke-linejoin="miter" stroke-miterlimit="10" stroke-dasharray="" stroke-dashoffset="0" style="mix-blend-mode: normal"><path d="M470.31555,-96.98215l-23.46666,-10.86666l23.46666,-11.13334z" fill="url(#color-1)"/><path d="M470.31558,-117.98215l-23.46666,-10.86666l23.46666,-11.13334z" fill="url(#color-2)"/><path d="M470.31558,-138.98215l-23.46666,-10.86666l23.46666,-11.13334z" fill="url(#color-3)"/><path d="M470.31555,-159.98215l-23.46666,-10.86666l23.46666,-11.13334z" fill="url(#color-4)"/><path d="M113.84889,-180.98219l23.46667,10.86667l-23.46667,11.13333z" fill="url(#color-5)"/><path d="M113.84889,-159.98218l23.46666,10.86666l-23.46666,11.13334z" fill="url(#color-6)"/><path d="M259.8311,355.00002l10.86666,-23.46666l11.13334,23.46666z" fill="url(#color-7)"/><path d="M280.8311,355.00002l10.86666,-23.46666l11.13334,23.46666z" fill="url(#color-8)"/><path d="M301.8311,355.00002l10.86666,-23.46666l11.13334,23.46666z" fill="url(#color-9)"/><path d="M322.8311,355.00002l10.86666,-23.46666l11.13334,23.46666z" fill="url(#color-10)"/><path d="M343.83111,355.00002l10.86666,-23.46666l11.13334,23.46666z" fill="url(#color-11)"/><path d="M364.8311,355.00002l10.86667,-23.46667l11.13333,23.46667z" fill="url(#color-12)"/><path d="M385.83111,355.00002l10.86666,-23.46666l11.13334,23.46666z" fill="url(#color-13)"/><path d="M406.83111,355.00002l10.86666,-23.46666l11.13334,23.46666z" fill="url(#color-14)"/><path d="M427.83111,355.00002l10.86666,-23.46666l11.13334,23.46666z" fill="url(#color-15)"/><path d="M448.83111,355.00002l10.86666,-23.46666l11.13334,23.46666z" fill="url(#color-16)"/></g></g></svg>