<svg version="1.1" xmlns="http://www.w3.org/2000/svg" xmlns:xlink="http://www.w3.org/1999/xlink" width="445.34721" height="23.46667" viewBox="0,0,445.34721,23.46667"><defs><linearGradient x1="-41.72221" y1="220.14446" x2="-41.72221" y2="243.61112" gradientUnits="userSpaceOnUse" id="color-1"><stop offset="0" stop-color="#ff0000"/><stop offset="1" stop-color="#c30000"/></linearGradient><linearGradient x1="-20.7222" y1="220.14446" x2="-20.7222" y2="243.61112" gradientUnits="userSpaceOnUse" id="color-2"><stop offset="0" stop-color="#ff0000"/><stop offset="1" stop-color="#c30000"/></linearGradient><linearGradient x1="0.27779" y1="220.14446" x2="0.27779" y2="243.61112" gradientUnits="userSpaceOnUse" id="color-3"><stop offset="0" stop-color="#ff0000"/><stop offset="1" stop-color="#c30000"/></linearGradient><linearGradient x1="21.27779" y1="220.14446" x2="21.27779" y2="243.61112" gradientUnits="userSpaceOnUse" id="color-4"><stop offset="0" stop-color="#ff0000"/><stop offset="1" stop-color="#c30000"/></linearGradient><linearGradient x1="42.27779" y1="220.14446" x2="42.27779" y2="243.61112" gradientUnits="userSpaceOnUse" id="color-5"><stop offset="0" stop-color="#ff0000"/><stop offset="1" stop-color="#c30000"/></linearGradient><linearGradient x1="63.27779" y1="220.14446" x2="63.27779" y2="243.61112" gradientUnits="userSpaceOnUse" id="color-6"><stop offset="0" stop-color="#ff0000"/><stop offset="1" stop-color="#c30000"/></linearGradient><linearGradient x1="84.27779" y1="220.14446" x2="84.27779" y2="243.61112" gradientUnits="userSpaceOnUse" id="color-7"><stop offset="0" stop-color="#ff0000"/><stop offset="1" stop-color="#c30000"/></linearGradient><linearGradient x1="105.2778" y1="220.14446" x2="105.2778" y2="243.61112" gradientUnits="userSpaceOnUse" id="color-8"><stop offset="0" stop-color="#ff0000"/><stop offset="1" stop-color="#c30000"/></linearGradient><linearGradient x1="126.27781" y1="220.14446" x2="126.27781" y2="243.61112" gradientUnits="userSpaceOnUse" id="color-9"><stop offset="0" stop-color="#ff0000"/><stop offset="1" stop-color="#c30000"/></linearGradient><linearGradient x1="147.27781" y1="220.14446" x2="147.27781" y2="243.61112" gradientUnits="userSpaceOnUse" id="color-10"><stop offset="0" stop-color="#ff0000"/><stop offset="1" stop-color="#c30000"/></linearGradient><linearGradient x1="226.04826" y1="220.14446" x2="226.04826" y2="243.61112" gradientUnits="userSpaceOnUse" id="color-11"><stop offset="0" stop-color="#ff0000"/><stop offset="1" stop-color="#c30000"/></linearGradient><linearGradient x1="247.04828" y1="220.14446" x2="247.04828" y2="243.61112" gradientUnits="userSpaceOnUse" id="color-12"><stop offset="0" stop-color="#ff0000"/><stop offset="1" stop-color="#c30000"/></linearGradient><linearGradient x1="268.04828" y1="220.14446" x2="268.04828" y2="243.61112" gradientUnits="userSpaceOnUse" id="color-13"><stop offset="0" stop-color="#ff0000"/><stop offset="1" stop-color="#c30000"/></linearGradient><linearGradient x1="289.04828" y1="220.14446" x2="289.04828" y2="243.61112" gradientUnits="userSpaceOnUse" id="color-14"><stop offset="0" stop-color="#ff0000"/><stop offset="1" stop-color="#c30000"/></linearGradient><linearGradient x1="310.04828" y1="220.14446" x2="310.04828" y2="243.61112" gradientUnits="userSpaceOnUse" id="color-15"><stop offset="0" stop-color="#ff0000"/><stop offset="1" stop-color="#c30000"/></linearGradient><linearGradient x1="331.04828" y1="220.14446" x2="331.04828" y2="243.61112" gradientUnits="userSpaceOnUse" id="color-16"><stop offset="0" stop-color="#ff0000"/><stop offset="1" stop-color="#c30000"/></linearGradient><linearGradient x1="352.04827" y1="220.14446" x2="352.04827" y2="243.61112" gradientUnits="userSpaceOnUse" id="color-17"><stop offset="0" stop-color="#ff0000"/><stop offset="1" stop-color="#c30000"/></linearGradient><linearGradient x1="373.04828" y1="220.14446" x2="373.04828" y2="243.61112" gradientUnits="userSpaceOnUse" id="color-18"><stop offset="0" stop-color="#ff0000"/><stop offset="1" stop-color="#c30000"/></linearGradient><linearGradient x1="394.04828" y1="220.14446" x2="394.04828" y2="243.61112" gradientUnits="userSpaceOnUse" id="color-19"><stop offset="0" stop-color="#ff0000"/><stop offset="1" stop-color="#c30000"/></linearGradient></defs><g transform="translate(52.72221,-220.14445)"><g data-paper-data="{&quot;isPaintingLayer&quot;:true}" fill-rule="nonzero" stroke="none" stroke-width="0" stroke-linecap="butt" stroke-linejoin="miter" stroke-miterlimit="10" stroke-dasharray="" stroke-dashoffset="0" style="mix-blend-mode: normal"><path d="M-52.72221,243.61112l10.86667,-23.46667l11.13333,23.46667z" fill="url(#color-1)"/><path d="M-31.7222,243.61112l10.86666,-23.46666l11.13334,23.46666z" fill="url(#color-2)"/><path d="M-10.72221,243.61112l10.86666,-23.46666l11.13334,23.46666z" fill="url(#color-3)"/><path d="M10.27779,243.61112l10.86666,-23.46666l11.13334,23.46666z" fill="url(#color-4)"/><path d="M31.27779,243.61112l10.86666,-23.46666l11.13334,23.46666z" fill="url(#color-5)"/><path d="M52.27779,243.61112l10.86666,-23.46666l11.13334,23.46666z" fill="url(#color-6)"/><path d="M73.27779,243.61112l10.86667,-23.46667l11.13333,23.46667z" fill="url(#color-7)"/><path d="M94.2778,243.61112l10.86666,-23.46666l11.13334,23.46666z" fill="url(#color-8)"/><path d="M115.2778,243.61112l10.86666,-23.46666l11.13334,23.46666z" fill="url(#color-9)"/><path d="M136.27781,243.61112l10.86666,-23.46666l11.13334,23.46666z" fill="url(#color-10)"/><path d="M215.04826,243.61112l10.86667,-23.46667l11.13333,23.46667z" fill="url(#color-11)"/><path d="M236.04828,243.61112l10.86666,-23.46666l11.13334,23.46666z" fill="url(#color-12)"/><path d="M257.04828,243.61112l10.86666,-23.46666l11.13334,23.46666z" fill="url(#color-13)"/><path d="M278.04828,243.61112l10.86666,-23.46666l11.13334,23.46666z" fill="url(#color-14)"/><path d="M299.04828,243.61112l10.86666,-23.46666l11.13334,23.46666z" fill="url(#color-15)"/><path d="M320.04828,243.61112l10.86666,-23.46666l11.13334,23.46666z" fill="url(#color-16)"/><path d="M341.04827,243.61112l10.86667,-23.46667l11.13333,23.46667z" fill="url(#color-17)"/><path d="M362.04828,243.61112l10.86666,-23.46666l11.13334,23.46666z" fill="url(#color-18)"/><path d="M383.04828,243.61112l9.48107,-19.66464l0.09565,19.66464z" fill="url(#color-19)"/></g></g></svg>