<svg version="1.1" xmlns="http://www.w3.org/2000/svg" xmlns:xlink="http://www.w3.org/1999/xlink" width="60.71429" height="56.71429" viewBox="0,0,60.71429,56.71429"><g transform="translate(-209.64287,-151.64286)"><g data-paper-data="{&quot;isPaintingLayer&quot;:true}" fill-rule="nonzero" stroke-linejoin="miter" stroke-miterlimit="10" stroke-dasharray="" stroke-dashoffset="0" style="mix-blend-mode: normal"><path d="M229.19049,180.04576c0,-6.04883 3.88253,-10.87431 8.66666,-11.02381c1.98183,-0.06193 3.43001,0.00073 3.43001,0.00073l-3.76333,11.09451l4.50284,10.7639c0,0 -2.59092,0.15972 -4.16951,0.11706c-4.78472,-0.12931 -8.66666,-4.90355 -8.66666,-10.95239z" fill="#acb500" stroke="#000000" stroke-width="2" stroke-linecap="butt"/><path d="M233.4762,180.04576c0,-6.04883 3.88019,-10.95238 8.66667,-10.95238c4.78647,0 8.66667,4.90354 8.66667,10.95238c0,6.04883 -3.8802,10.95239 -8.66667,10.95239c-4.78647,0 -8.66667,-4.90355 -8.66667,-10.95239z" fill="#f4ff00" stroke="#000000" stroke-width="2" stroke-linecap="butt"/><path d="M209.64287,208.35715v-56.71429h60.71429v56.71429z" fill="none" stroke="none" stroke-width="0" stroke-linecap="butt"/><path d="M240.75628,176.74439c0,0 0.03238,-2.62161 -1.61615,-2.6197c-1.85436,0.00214 -1.81547,2.6197 -1.81547,2.6197v6.81894c0,0 0.0993,2.35088 1.84241,2.31151c1.70565,-0.03852 1.72389,-2.31151 1.72389,-2.31151v-2.10347h-1.53534" fill="none" stroke="#646900" stroke-width="2" stroke-linecap="round"/><path d="M246.87406,176.74439c0,0 0.03238,-2.62161 -1.61615,-2.61971c-1.85436,0.00214 -1.81547,2.61971 -1.81547,2.61971v6.81893c0,0 0.0993,2.35088 1.84241,2.31151c1.70565,-0.03852 1.72389,-2.31151 1.72389,-2.31151v-2.10347h-1.53534" fill="none" stroke="#646900" stroke-width="2" stroke-linecap="round"/></g></g></svg>