<svg version="1.1" xmlns="http://www.w3.org/2000/svg" xmlns:xlink="http://www.w3.org/1999/xlink" width="478.14114" height="412.91664" viewBox="0,0,478.14114,412.91664"><defs><radialGradient cx="239.51424" cy="179.01922" r="239.07057" gradientUnits="userSpaceOnUse" id="color-1"><stop offset="0" stop-color="#c4c4c4"/><stop offset="1" stop-color="#989898"/></radialGradient></defs><g transform="translate(-0.92943,51.5811)"><g data-paper-data="{&quot;isPaintingLayer&quot;:true}" fill-rule="nonzero" stroke="none" stroke-width="0" stroke-linecap="butt" stroke-linejoin="miter" stroke-miterlimit="10" stroke-dasharray="" stroke-dashoffset="0" style="mix-blend-mode: normal"><path d="M0.92943,361.33554v-362.67109h478.14114v362.67109z" fill="url(#color-1)"/><g fill="#989898"><path d="M330.83333,25.03655l-24.5346,25.88235l-24.4654,-25.88235v-19.11765l24.30103,25.88235l24.69897,-25.88235z"/><path d="M330.83333,-3.96346l-24.5346,25.88236l-24.4654,-25.88236v-19.11764l24.30103,25.88236l24.69897,-25.88236z"/><path d="M330.83333,-32.46346l-24.5346,25.88236l-24.4654,-25.88236v-19.11764l24.30103,25.88236l24.69897,-25.88236z"/></g><g fill="#989898"><path d="M221.16667,23.50221l32,-69.33333h12.66667l-32,69.33333z"/><path d="M253.16667,23.50221l-32,-69.33333h12.66667l32,69.33333z" data-paper-data="{&quot;index&quot;:null}"/></g><g fill="#989898"><path d="M157.5,23.5022l32,-69.33333h12.66667l-32,69.33333z"/><path d="M189.50001,23.5022l-32,-69.33333h12.66667l32,69.33333z" data-paper-data="{&quot;index&quot;:null}"/></g><g fill="#989898"><path d="M221.16667,23.83554l32,-69.33333h12.66667l-32,69.33333z"/><path d="M253.16667,23.83554l-32,-69.33333h12.66667l32,69.33333z" data-paper-data="{&quot;index&quot;:null}"/></g></g></g></svg>