<svg version="1.1" xmlns="http://www.w3.org/2000/svg" xmlns:xlink="http://www.w3.org/1999/xlink" width="243.49774" height="23.46667" viewBox="0,0,243.49774,23.46667"><defs><linearGradient x1="198.00003" y1="54.53335" x2="198.00003" y2="78.00001" gradientUnits="userSpaceOnUse" id="color-1"><stop offset="0" stop-color="#ff0000"/><stop offset="1" stop-color="#c30000"/></linearGradient><linearGradient x1="218.33337" y1="54.53335" x2="218.33337" y2="78.00001" gradientUnits="userSpaceOnUse" id="color-2"><stop offset="0" stop-color="#ff0000"/><stop offset="1" stop-color="#c30000"/></linearGradient><linearGradient x1="238.66668" y1="54.53335" x2="238.66668" y2="78.00001" gradientUnits="userSpaceOnUse" id="color-3"><stop offset="0" stop-color="#ff0000"/><stop offset="1" stop-color="#c30000"/></linearGradient><linearGradient x1="257.49775" y1="54.53335" x2="257.49775" y2="78.00001" gradientUnits="userSpaceOnUse" id="color-4"><stop offset="0" stop-color="#ff0000"/><stop offset="1" stop-color="#c30000"/></linearGradient><linearGradient x1="277.16444" y1="54.53335" x2="277.16444" y2="78.00001" gradientUnits="userSpaceOnUse" id="color-5"><stop offset="0" stop-color="#ff0000"/><stop offset="1" stop-color="#c30000"/></linearGradient><linearGradient x1="297.49777" y1="54.53335" x2="297.49777" y2="78.00001" gradientUnits="userSpaceOnUse" id="color-6"><stop offset="0" stop-color="#ff0000"/><stop offset="1" stop-color="#c30000"/></linearGradient><linearGradient x1="317.8311" y1="54.53335" x2="317.8311" y2="78.00001" gradientUnits="userSpaceOnUse" id="color-7"><stop offset="0" stop-color="#ff0000"/><stop offset="1" stop-color="#c30000"/></linearGradient><linearGradient x1="338.16444" y1="54.53335" x2="338.16444" y2="78.00001" gradientUnits="userSpaceOnUse" id="color-8"><stop offset="0" stop-color="#ff0000"/><stop offset="1" stop-color="#c30000"/></linearGradient><linearGradient x1="358.49777" y1="54.53335" x2="358.49777" y2="78.00001" gradientUnits="userSpaceOnUse" id="color-9"><stop offset="0" stop-color="#ff0000"/><stop offset="1" stop-color="#c30000"/></linearGradient><linearGradient x1="378.83109" y1="54.53335" x2="378.83109" y2="78.00001" gradientUnits="userSpaceOnUse" id="color-10"><stop offset="0" stop-color="#ff0000"/><stop offset="1" stop-color="#c30000"/></linearGradient><linearGradient x1="399.16444" y1="54.53335" x2="399.16444" y2="78.00001" gradientUnits="userSpaceOnUse" id="color-11"><stop offset="0" stop-color="#ff0000"/><stop offset="1" stop-color="#c30000"/></linearGradient><linearGradient x1="419.49777" y1="54.53335" x2="419.49777" y2="78.00001" gradientUnits="userSpaceOnUse" id="color-12"><stop offset="0" stop-color="#ff0000"/><stop offset="1" stop-color="#c30000"/></linearGradient></defs><g transform="translate(-187.00003,-54.53334)"><g data-paper-data="{&quot;isPaintingLayer&quot;:true}" fill-rule="nonzero" stroke="none" stroke-width="0" stroke-linecap="butt" stroke-linejoin="miter" stroke-miterlimit="10" stroke-dasharray="" stroke-dashoffset="0" style="mix-blend-mode: normal"><path d="M187.00003,78.00001l10.86666,-23.46666l11.13334,23.46666z" fill="url(#color-1)"/><path d="M207.33337,78.00001l10.86666,-23.46666l11.13334,23.46666z" fill="url(#color-2)"/><path d="M227.6667,78.00001l10.86666,-23.46666l11.13334,23.46666z" fill="url(#color-3)"/><path d="M246.49775,78.00001l10.86667,-23.46667l11.13333,23.46667z" fill="url(#color-4)"/><path d="M266.16444,78.00001l10.86666,-23.46666l11.13334,23.46666z" fill="url(#color-5)"/><path d="M286.49777,78.00001l10.86666,-23.46666l11.13334,23.46666z" fill="url(#color-6)"/><path d="M306.8311,78.00001l10.86666,-23.46666l11.13334,23.46666z" fill="url(#color-7)"/><path d="M327.16444,78.00001l10.86666,-23.46666l11.13334,23.46666z" fill="url(#color-8)"/><path d="M347.49777,78.00001l10.86666,-23.46666l11.13334,23.46666z" fill="url(#color-9)"/><path d="M367.83109,78.00001l10.86667,-23.46667l11.13333,23.46667z" fill="url(#color-10)"/><path d="M388.16444,78.00001l10.86666,-23.46666l11.13334,23.46666z" fill="url(#color-11)"/><path d="M408.49777,78.00001l10.86666,-23.46666l11.13334,23.46666z" fill="url(#color-12)"/></g></g></svg>