<svg version="1.1" xmlns="http://www.w3.org/2000/svg" xmlns:xlink="http://www.w3.org/1999/xlink" width="522.02873" height="130.76999" viewBox="0,0,522.02873,130.76999"><defs><linearGradient x1="287.51273" y1="259.17849" x2="288.62708" y2="376.17318" gradientUnits="userSpaceOnUse" id="color-1"><stop offset="0" stop-color="#000000"/><stop offset="1" stop-color="#ffffff"/></linearGradient><linearGradient x1="345.51487" y1="259.12605" x2="346.62922" y2="376.12074" gradientUnits="userSpaceOnUse" id="color-2"><stop offset="0" stop-color="#000000"/><stop offset="1" stop-color="#ffffff"/></linearGradient><linearGradient x1="403.02179" y1="259.57836" x2="404.13614" y2="376.57306" gradientUnits="userSpaceOnUse" id="color-3"><stop offset="0" stop-color="#000000"/><stop offset="1" stop-color="#ffffff"/></linearGradient><linearGradient x1="461.02391" y1="259.52592" x2="462.13826" y2="376.52061" gradientUnits="userSpaceOnUse" id="color-4"><stop offset="0" stop-color="#000000"/><stop offset="1" stop-color="#ffffff"/></linearGradient><linearGradient x1="56.49938" y1="258.87874" x2="57.61373" y2="375.87343" gradientUnits="userSpaceOnUse" id="color-5"><stop offset="0" stop-color="#000000"/><stop offset="1" stop-color="#ffffff"/></linearGradient><linearGradient x1="114.50151" y1="258.82629" x2="115.61586" y2="375.82098" gradientUnits="userSpaceOnUse" id="color-6"><stop offset="0" stop-color="#000000"/><stop offset="1" stop-color="#ffffff"/></linearGradient><linearGradient x1="172.00845" y1="259.27861" x2="173.12281" y2="376.2733" gradientUnits="userSpaceOnUse" id="color-7"><stop offset="0" stop-color="#000000"/><stop offset="1" stop-color="#ffffff"/></linearGradient><linearGradient x1="230.01059" y1="259.22616" x2="231.12494" y2="376.22085" gradientUnits="userSpaceOnUse" id="color-8"><stop offset="0" stop-color="#000000"/><stop offset="1" stop-color="#ffffff"/></linearGradient><linearGradient x1="519.02604" y1="259.4735" x2="520.14039" y2="376.4682" gradientUnits="userSpaceOnUse" id="color-9"><stop offset="0" stop-color="#000000"/><stop offset="1" stop-color="#ffffff"/></linearGradient></defs><g transform="translate(59.39524,-245.41749)"><g data-paper-data="{&quot;isPaintingLayer&quot;:true}" fill-rule="nonzero" stroke="none" stroke-width="0" stroke-linecap="butt" stroke-linejoin="miter" stroke-miterlimit="10" stroke-dasharray="" stroke-dashoffset="0" style="mix-blend-mode: normal"><path d="M171.61809,375.7876c0,0 0.12753,-130.01865 1.26172,-130.01791c20.47194,0.01329 14.46015,15.93338 29.67935,15.95013c15.96905,0.01758 12.15515,-15.52655 28.32784,-15.5511c0.10382,-0.00016 0.23315,129.55217 0.23315,129.55217z" fill="url(#color-1)"/><path d="M229.62024,375.73516c0,0 0.12753,-130.01865 1.26172,-130.01791c20.47194,0.01329 14.46016,15.93338 29.67935,15.95013c15.96905,0.01758 12.15515,-15.52655 28.32784,-15.5511c0.10381,-0.00016 0.23315,129.55217 0.23315,129.55217z" fill="url(#color-2)"/><path d="M287.12716,376.18748c0,0 0.12753,-130.01865 1.26172,-130.01791c20.47194,0.01329 14.46016,15.93338 29.67935,15.95013c15.96905,0.01758 12.15515,-15.52655 28.32784,-15.5511c0.10381,-0.00016 0.23315,129.55217 0.23315,129.55217z" fill="url(#color-3)"/><path d="M345.12929,376.13503c0,0 0.12753,-130.01865 1.26172,-130.01791c20.47194,0.01329 14.46016,15.93338 29.67935,15.95013c15.96905,0.01758 12.15515,-15.52655 28.32784,-15.5511c0.10381,-0.00016 0.23315,129.55217 0.23315,129.55217z" fill="url(#color-4)"/><path d="M-59.39524,375.48785c0,0 0.12753,-130.01865 1.26172,-130.01791c20.47194,0.01329 14.46015,15.93338 29.67935,15.95013c15.96905,0.01758 12.15515,-15.52655 28.32784,-15.5511c0.10382,-0.00016 0.23315,129.55217 0.23315,129.55217z" fill="url(#color-5)"/><path d="M-1.39311,375.4354c0,0 0.12753,-130.01865 1.26172,-130.01791c20.47194,0.01329 14.46016,15.93338 29.67935,15.95013c15.96905,0.01758 12.15515,-15.52655 28.32784,-15.5511c0.10381,-0.00016 0.23315,129.55217 0.23315,129.55217z" fill="url(#color-6)"/><path d="M56.11382,375.88772c0,0 0.12753,-130.01865 1.26172,-130.01791c20.47194,0.01329 14.46016,15.93338 29.67935,15.95013c15.96905,0.01758 12.15515,-15.52655 28.32784,-15.5511c0.10381,-0.00016 0.23315,129.55217 0.23315,129.55217z" fill="url(#color-7)"/><path d="M114.11593,375.83527c0,0 0.12753,-130.01865 1.26172,-130.01791c20.47194,0.01329 14.46016,15.93338 29.67935,15.95013c15.96905,0.01758 12.15515,-15.52655 28.32784,-15.5511c0.10381,-0.00016 0.23315,129.55217 0.23315,129.55217z" fill="url(#color-8)"/><path d="M403.13143,376.08261c0,0 0.12753,-130.01865 1.26172,-130.01791c20.47194,0.01329 14.46016,15.93338 29.67935,15.95013c15.96905,0.01758 12.15515,-15.52655 28.32784,-15.5511c0.10381,-0.00016 0.23315,129.55217 0.23315,129.55217z" fill="url(#color-9)"/></g></g></svg>