<svg version="1.1" xmlns="http://www.w3.org/2000/svg" xmlns:xlink="http://www.w3.org/1999/xlink" width="406.51953" height="130.50141" viewBox="0,0,406.51953,130.50141"><defs><linearGradient x1="325.05499" y1="252.71457" x2="326.10445" y2="369.70986" gradientUnits="userSpaceOnUse" id="color-1"><stop offset="0" stop-color="#000000"/><stop offset="1" stop-color="#ffffff"/></linearGradient><linearGradient x1="383.05716" y1="252.6943" x2="384.10661" y2="369.68959" gradientUnits="userSpaceOnUse" id="color-2"><stop offset="0" stop-color="#000000"/><stop offset="1" stop-color="#ffffff"/></linearGradient><linearGradient x1="440.56382" y1="253.1785" x2="441.61328" y2="370.1738" gradientUnits="userSpaceOnUse" id="color-3"><stop offset="0" stop-color="#000000"/><stop offset="1" stop-color="#ffffff"/></linearGradient><linearGradient x1="498.56596" y1="253.15823" x2="499.61542" y2="370.15352" gradientUnits="userSpaceOnUse" id="color-4"><stop offset="0" stop-color="#000000"/><stop offset="1" stop-color="#ffffff"/></linearGradient><linearGradient x1="209.55068" y1="252.75062" x2="210.60015" y2="369.74591" gradientUnits="userSpaceOnUse" id="color-5"><stop offset="0" stop-color="#000000"/><stop offset="1" stop-color="#ffffff"/></linearGradient><linearGradient x1="267.55283" y1="252.73034" x2="268.60229" y2="369.72563" gradientUnits="userSpaceOnUse" id="color-6"><stop offset="0" stop-color="#000000"/><stop offset="1" stop-color="#ffffff"/></linearGradient><linearGradient x1="556.56811" y1="253.13798" x2="557.61757" y2="370.13328" gradientUnits="userSpaceOnUse" id="color-7"><stop offset="0" stop-color="#000000"/><stop offset="1" stop-color="#ffffff"/></linearGradient></defs><g transform="translate(-93.59139,-239.22192)"><g data-paper-data="{&quot;isPaintingLayer&quot;:true}" fill-rule="nonzero" stroke="none" stroke-width="0" stroke-linecap="butt" stroke-linejoin="miter" stroke-miterlimit="10" stroke-dasharray="" stroke-dashoffset="0" style="mix-blend-mode: normal"><path d="M209.0957,369.25938c0,0 0.19964,-130.01856 1.33383,-130.01719c20.47193,0.02464 14.45131,15.9414 29.6705,15.96659c15.96904,0.02643 12.16376,-15.5198 28.33646,-15.53538c0.10382,-0.0001 0.1613,129.55228 0.1613,129.55228z" fill="url(#color-1)"/><path d="M267.09787,369.23911c0,0 0.19965,-130.01856 1.33384,-130.01719c20.47193,0.02464 14.45132,15.9414 29.6705,15.96659c15.96904,0.02643 12.16376,-15.5198 28.33646,-15.53538c0.10381,-0.0001 0.16129,129.55228 0.16129,129.55228z" fill="url(#color-2)"/><path d="M324.60452,369.72333c0,0 0.19965,-130.01856 1.33384,-130.01719c20.47193,0.02464 14.45131,15.94139 29.67049,15.96659c15.96904,0.02643 12.16377,-15.51981 28.33647,-15.53539c0.10381,-0.0001 0.16129,129.55228 0.16129,129.55228z" fill="url(#color-3)"/><path d="M382.60668,369.70305c0,0 0.19964,-130.01856 1.33383,-130.01719c20.47193,0.02464 14.45132,15.9414 29.6705,15.96659c15.96904,0.02643 12.16376,-15.51981 28.33646,-15.53539c0.10381,-0.0001 0.16129,129.55228 0.16129,129.55228z" fill="url(#color-4)"/><path d="M93.59139,369.29544c0,0 0.19965,-130.01856 1.33384,-130.01719c20.47193,0.02464 14.45132,15.9414 29.6705,15.96658c15.96904,0.02643 12.16376,-15.5198 28.33646,-15.53538c0.10381,-0.0001 0.16129,129.55228 0.16129,129.55228z" fill="url(#color-5)"/><path d="M151.59352,369.27516c0,0 0.19965,-130.01856 1.33383,-130.01719c20.47193,0.02464 14.45132,15.9414 29.6705,15.96658c15.96904,0.02643 12.16376,-15.5198 28.33646,-15.53538c0.10381,-0.0001 0.16129,129.55228 0.16129,129.55228z" fill="url(#color-6)"/><path d="M440.60884,369.6828c0,0 0.19964,-130.01856 1.33383,-130.01719c20.47193,0.02464 14.45132,15.9414 29.6705,15.96659c15.96904,0.02643 12.16376,-15.51981 28.33646,-15.53539c0.10381,-0.0001 0.16129,129.55228 0.16129,129.55228z" fill="url(#color-7)"/></g></g></svg>