<svg version="1.1" xmlns="http://www.w3.org/2000/svg" xmlns:xlink="http://www.w3.org/1999/xlink" width="242.28589" height="378.49775" viewBox="0,0,242.28589,378.49775"><defs><linearGradient x1="145.31555" y1="125.76481" x2="121.84889" y2="125.76481" gradientUnits="userSpaceOnUse" id="color-1"><stop offset="0" stop-color="#ff0000"/><stop offset="1" stop-color="#c30000"/></linearGradient><linearGradient x1="145.31555" y1="146.76482" x2="121.84889" y2="146.76482" gradientUnits="userSpaceOnUse" id="color-2"><stop offset="0" stop-color="#ff0000"/><stop offset="1" stop-color="#c30000"/></linearGradient><linearGradient x1="145.31555" y1="167.76482" x2="121.84889" y2="167.76482" gradientUnits="userSpaceOnUse" id="color-3"><stop offset="0" stop-color="#ff0000"/><stop offset="1" stop-color="#c30000"/></linearGradient><linearGradient x1="145.31555" y1="188.76482" x2="121.84889" y2="188.76482" gradientUnits="userSpaceOnUse" id="color-4"><stop offset="0" stop-color="#ff0000"/><stop offset="1" stop-color="#c30000"/></linearGradient><linearGradient x1="145.31555" y1="209.76482" x2="121.84889" y2="209.76482" gradientUnits="userSpaceOnUse" id="color-5"><stop offset="0" stop-color="#ff0000"/><stop offset="1" stop-color="#c30000"/></linearGradient><linearGradient x1="145.31555" y1="230.76481" x2="121.84889" y2="230.76481" gradientUnits="userSpaceOnUse" id="color-6"><stop offset="0" stop-color="#ff0000"/><stop offset="1" stop-color="#c30000"/></linearGradient><linearGradient x1="145.31555" y1="251.26255" x2="121.84889" y2="251.26255" gradientUnits="userSpaceOnUse" id="color-7"><stop offset="0" stop-color="#ff0000"/><stop offset="1" stop-color="#c30000"/></linearGradient><linearGradient x1="145.31555" y1="272.26257" x2="121.84889" y2="272.26257" gradientUnits="userSpaceOnUse" id="color-8"><stop offset="0" stop-color="#ff0000"/><stop offset="1" stop-color="#c30000"/></linearGradient><linearGradient x1="145.31555" y1="293.26257" x2="121.84889" y2="293.26257" gradientUnits="userSpaceOnUse" id="color-9"><stop offset="0" stop-color="#ff0000"/><stop offset="1" stop-color="#c30000"/></linearGradient><linearGradient x1="145.31555" y1="314.26257" x2="121.84889" y2="314.26257" gradientUnits="userSpaceOnUse" id="color-10"><stop offset="0" stop-color="#ff0000"/><stop offset="1" stop-color="#c30000"/></linearGradient><linearGradient x1="145.31555" y1="335.26257" x2="121.84889" y2="335.26257" gradientUnits="userSpaceOnUse" id="color-11"><stop offset="0" stop-color="#ff0000"/><stop offset="1" stop-color="#c30000"/></linearGradient><linearGradient x1="145.31555" y1="356.26257" x2="121.84889" y2="356.26257" gradientUnits="userSpaceOnUse" id="color-12"><stop offset="0" stop-color="#ff0000"/><stop offset="1" stop-color="#c30000"/></linearGradient><linearGradient x1="145.31555" y1="377.26256" x2="121.84889" y2="377.26256" gradientUnits="userSpaceOnUse" id="color-13"><stop offset="0" stop-color="#ff0000"/><stop offset="1" stop-color="#c30000"/></linearGradient><linearGradient x1="340.66812" y1="20.7648" x2="364.13478" y2="20.7648" gradientUnits="userSpaceOnUse" id="color-14"><stop offset="0" stop-color="#ff0000"/><stop offset="1" stop-color="#c30000"/></linearGradient><linearGradient x1="340.66812" y1="41.76479" x2="364.13478" y2="41.76479" gradientUnits="userSpaceOnUse" id="color-15"><stop offset="0" stop-color="#ff0000"/><stop offset="1" stop-color="#c30000"/></linearGradient><linearGradient x1="340.66812" y1="62.76479" x2="364.13478" y2="62.76479" gradientUnits="userSpaceOnUse" id="color-16"><stop offset="0" stop-color="#ff0000"/><stop offset="1" stop-color="#c30000"/></linearGradient><linearGradient x1="340.66812" y1="83.76479" x2="364.13478" y2="83.76479" gradientUnits="userSpaceOnUse" id="color-17"><stop offset="0" stop-color="#ff0000"/><stop offset="1" stop-color="#c30000"/></linearGradient><linearGradient x1="340.66812" y1="104.7648" x2="364.13478" y2="104.7648" gradientUnits="userSpaceOnUse" id="color-18"><stop offset="0" stop-color="#ff0000"/><stop offset="1" stop-color="#c30000"/></linearGradient><linearGradient x1="340.66812" y1="125.76481" x2="364.13478" y2="125.76481" gradientUnits="userSpaceOnUse" id="color-19"><stop offset="0" stop-color="#ff0000"/><stop offset="1" stop-color="#c30000"/></linearGradient><linearGradient x1="340.66812" y1="146.76482" x2="364.13478" y2="146.76482" gradientUnits="userSpaceOnUse" id="color-20"><stop offset="0" stop-color="#ff0000"/><stop offset="1" stop-color="#c30000"/></linearGradient><linearGradient x1="340.66812" y1="167.76482" x2="364.13478" y2="167.76482" gradientUnits="userSpaceOnUse" id="color-21"><stop offset="0" stop-color="#ff0000"/><stop offset="1" stop-color="#c30000"/></linearGradient><linearGradient x1="340.66812" y1="188.76482" x2="364.13478" y2="188.76482" gradientUnits="userSpaceOnUse" id="color-22"><stop offset="0" stop-color="#ff0000"/><stop offset="1" stop-color="#c30000"/></linearGradient><linearGradient x1="340.66812" y1="209.76482" x2="364.13478" y2="209.76482" gradientUnits="userSpaceOnUse" id="color-23"><stop offset="0" stop-color="#ff0000"/><stop offset="1" stop-color="#c30000"/></linearGradient><linearGradient x1="340.66812" y1="230.76481" x2="364.13478" y2="230.76481" gradientUnits="userSpaceOnUse" id="color-24"><stop offset="0" stop-color="#ff0000"/><stop offset="1" stop-color="#c30000"/></linearGradient><linearGradient x1="340.66812" y1="251.26255" x2="364.13478" y2="251.26255" gradientUnits="userSpaceOnUse" id="color-25"><stop offset="0" stop-color="#ff0000"/><stop offset="1" stop-color="#c30000"/></linearGradient><linearGradient x1="340.66812" y1="272.26257" x2="364.13478" y2="272.26257" gradientUnits="userSpaceOnUse" id="color-26"><stop offset="0" stop-color="#ff0000"/><stop offset="1" stop-color="#c30000"/></linearGradient><linearGradient x1="340.66812" y1="293.26257" x2="364.13478" y2="293.26257" gradientUnits="userSpaceOnUse" id="color-27"><stop offset="0" stop-color="#ff0000"/><stop offset="1" stop-color="#c30000"/></linearGradient><linearGradient x1="340.66812" y1="314.26257" x2="364.13478" y2="314.26257" gradientUnits="userSpaceOnUse" id="color-28"><stop offset="0" stop-color="#ff0000"/><stop offset="1" stop-color="#c30000"/></linearGradient><linearGradient x1="340.66812" y1="335.26257" x2="364.13478" y2="335.26257" gradientUnits="userSpaceOnUse" id="color-29"><stop offset="0" stop-color="#ff0000"/><stop offset="1" stop-color="#c30000"/></linearGradient><linearGradient x1="340.66812" y1="356.26257" x2="364.13478" y2="356.26257" gradientUnits="userSpaceOnUse" id="color-30"><stop offset="0" stop-color="#ff0000"/><stop offset="1" stop-color="#c30000"/></linearGradient><linearGradient x1="340.66812" y1="377.26256" x2="364.13478" y2="377.26256" gradientUnits="userSpaceOnUse" id="color-31"><stop offset="0" stop-color="#ff0000"/><stop offset="1" stop-color="#c30000"/></linearGradient><linearGradient x1="333.40145" y1="88.03149" x2="333.40145" y2="111.49815" gradientUnits="userSpaceOnUse" id="color-32"><stop offset="0" stop-color="#ff0000"/><stop offset="1" stop-color="#c30000"/></linearGradient><linearGradient x1="312.40146" y1="88.03149" x2="312.40146" y2="111.49815" gradientUnits="userSpaceOnUse" id="color-33"><stop offset="0" stop-color="#ff0000"/><stop offset="1" stop-color="#c30000"/></linearGradient><linearGradient x1="291.40146" y1="88.03149" x2="291.40146" y2="111.49815" gradientUnits="userSpaceOnUse" id="color-34"><stop offset="0" stop-color="#ff0000"/><stop offset="1" stop-color="#c30000"/></linearGradient><linearGradient x1="270.40146" y1="88.03149" x2="270.40146" y2="111.49815" gradientUnits="userSpaceOnUse" id="color-35"><stop offset="0" stop-color="#ff0000"/><stop offset="1" stop-color="#c30000"/></linearGradient><linearGradient x1="249.40145" y1="88.03149" x2="249.40145" y2="111.49815" gradientUnits="userSpaceOnUse" id="color-36"><stop offset="0" stop-color="#ff0000"/><stop offset="1" stop-color="#c30000"/></linearGradient><linearGradient x1="228.40145" y1="88.03148" x2="228.40145" y2="111.49815" gradientUnits="userSpaceOnUse" id="color-37"><stop offset="0" stop-color="#ff0000"/><stop offset="1" stop-color="#c30000"/></linearGradient><linearGradient x1="207.40144" y1="88.03149" x2="207.40144" y2="111.49815" gradientUnits="userSpaceOnUse" id="color-38"><stop offset="0" stop-color="#ff0000"/><stop offset="1" stop-color="#c30000"/></linearGradient><linearGradient x1="133.06811" y1="88.03148" x2="133.06811" y2="111.49814" gradientUnits="userSpaceOnUse" id="color-39"><stop offset="0" stop-color="#ff0000"/><stop offset="1" stop-color="#c30000"/></linearGradient></defs><g transform="translate(-121.84889,-9.7648)"><g data-paper-data="{&quot;isPaintingLayer&quot;:true}" fill-rule="nonzero" stroke="none" stroke-width="0" stroke-linecap="butt" stroke-linejoin="miter" stroke-miterlimit="10" stroke-dasharray="" stroke-dashoffset="0" style="mix-blend-mode: normal"><path d="M121.84889,114.7648l23.46667,10.86667l-23.46667,11.13333z" fill="url(#color-1)"/><path d="M121.84889,135.76482l23.46666,10.86666l-23.46666,11.13334z" fill="url(#color-2)"/><path d="M121.84889,156.76482l23.46666,10.86666l-23.46666,11.13334z" fill="url(#color-3)"/><path d="M121.84889,177.76482l23.46666,10.86666l-23.46666,11.13334z" fill="url(#color-4)"/><path d="M121.84889,198.76482l23.46666,10.86666l-23.46666,11.13334z" fill="url(#color-5)"/><path d="M121.84889,219.76482l23.46666,10.86666l-23.46666,11.13334z" fill="url(#color-6)"/><path d="M121.84889,240.26255l23.46667,10.86667l-23.46667,11.13333z" fill="url(#color-7)"/><path d="M121.84889,261.26257l23.46666,10.86666l-23.46666,11.13334z" fill="url(#color-8)"/><path d="M121.84889,282.26257l23.46666,10.86666l-23.46666,11.13334z" fill="url(#color-9)"/><path d="M121.84889,303.26257l23.46666,10.86666l-23.46666,11.13334z" fill="url(#color-10)"/><path d="M121.84889,324.26257l23.46666,10.86666l-23.46666,11.13334z" fill="url(#color-11)"/><path d="M121.84889,345.26257l23.46666,10.86666l-23.46666,11.13334z" fill="url(#color-12)"/><path d="M121.84889,366.26256l23.46667,10.86667l-23.46667,11.13333z" fill="url(#color-13)"/><path d="M364.13478,31.7648l-23.46666,-11.13334l23.46666,-10.86666z" data-paper-data="{&quot;index&quot;:null}" fill="url(#color-14)"/><path d="M364.13478,52.76479l-23.46666,-11.13334l23.46666,-10.86666z" data-paper-data="{&quot;index&quot;:null}" fill="url(#color-15)"/><path d="M364.13478,73.76479l-23.46666,-11.13334l23.46666,-10.86666z" data-paper-data="{&quot;index&quot;:null}" fill="url(#color-16)"/><path d="M364.13478,94.7648l-23.46666,-11.13334l23.46666,-10.86666z" data-paper-data="{&quot;index&quot;:null}" fill="url(#color-17)"/><path d="M364.13478,115.7648l-23.46666,-11.13334l23.46666,-10.86666z" data-paper-data="{&quot;index&quot;:null}" fill="url(#color-18)"/><path d="M364.13478,136.76478l-23.46667,-11.13333l23.46667,-10.86667z" data-paper-data="{&quot;index&quot;:null}" fill="url(#color-19)"/><path d="M364.13478,157.76482l-23.46666,-11.13334l23.46666,-10.86666z" data-paper-data="{&quot;index&quot;:null}" fill="url(#color-20)"/><path d="M364.13478,178.76482l-23.46666,-11.13334l23.46666,-10.86666z" data-paper-data="{&quot;index&quot;:null}" fill="url(#color-21)"/><path d="M364.13478,199.76482l-23.46666,-11.13334l23.46666,-10.86666z" data-paper-data="{&quot;index&quot;:null}" fill="url(#color-22)"/><path d="M364.13478,220.76482l-23.46666,-11.13334l23.46666,-10.86666z" data-paper-data="{&quot;index&quot;:null}" fill="url(#color-23)"/><path d="M364.13478,241.76482l-23.46666,-11.13334l23.46666,-10.86666z" data-paper-data="{&quot;index&quot;:null}" fill="url(#color-24)"/><path d="M364.13478,262.26255l-23.46667,-11.13333l23.46667,-10.86667z" data-paper-data="{&quot;index&quot;:null}" fill="url(#color-25)"/><path d="M364.13478,283.26257l-23.46666,-11.13334l23.46666,-10.86666z" data-paper-data="{&quot;index&quot;:null}" fill="url(#color-26)"/><path d="M364.13478,304.26257l-23.46666,-11.13334l23.46666,-10.86666z" data-paper-data="{&quot;index&quot;:null}" fill="url(#color-27)"/><path d="M364.13478,325.26257l-23.46666,-11.13334l23.46666,-10.86666z" data-paper-data="{&quot;index&quot;:null}" fill="url(#color-28)"/><path d="M364.13478,346.26257l-23.46666,-11.13334l23.46666,-10.86666z" data-paper-data="{&quot;index&quot;:null}" fill="url(#color-29)"/><path d="M364.13478,367.26257l-23.46666,-11.13334l23.46666,-10.86666z" data-paper-data="{&quot;index&quot;:null}" fill="url(#color-30)"/><path d="M364.13478,388.26256l-23.46667,-11.13333l23.46667,-10.86667z" data-paper-data="{&quot;index&quot;:null}" fill="url(#color-31)"/><path d="M322.40145,111.49815l11.13334,-23.46666l10.86666,23.46666z" data-paper-data="{&quot;index&quot;:null}" fill="url(#color-32)"/><path d="M301.40146,111.49815l11.13334,-23.46666l10.86666,23.46666z" data-paper-data="{&quot;index&quot;:null}" fill="url(#color-33)"/><path d="M280.40146,111.49815l11.13334,-23.46666l10.86666,23.46666z" data-paper-data="{&quot;index&quot;:null}" fill="url(#color-34)"/><path d="M259.40145,111.49815l11.13334,-23.46666l10.86666,23.46666z" data-paper-data="{&quot;index&quot;:null}" fill="url(#color-35)"/><path d="M238.40145,111.49815l11.13334,-23.46666l10.86666,23.46666z" data-paper-data="{&quot;index&quot;:null}" fill="url(#color-36)"/><path d="M217.40147,111.49815l11.13333,-23.46667l10.86667,23.46667z" data-paper-data="{&quot;index&quot;:null}" fill="url(#color-37)"/><path d="M196.40144,111.49815l11.13334,-23.46666l10.86666,23.46666z" data-paper-data="{&quot;index&quot;:null}" fill="url(#color-38)"/><path d="M122.06811,111.49814l11.13334,-23.46666l10.86666,23.46666z" data-paper-data="{&quot;index&quot;:null}" fill="url(#color-39)"/></g></g></svg>