<svg version="1.1" xmlns="http://www.w3.org/2000/svg" xmlns:xlink="http://www.w3.org/1999/xlink" width="564.83507" height="307.80447" viewBox="0,0,564.83507,307.80447"><g transform="translate(53.88436,-72.02702)"><g data-paper-data="{&quot;isPaintingLayer&quot;:true}" fill-rule="nonzero" stroke-linejoin="miter" stroke-miterlimit="10" stroke-dasharray="" stroke-dashoffset="0" style="mix-blend-mode: normal"><path d="M129.30782,251l217,51" fill="none" stroke="#b1b1b1" stroke-width="10" stroke-linecap="round"/><path d="M211.55782,182l138.5,104.5" fill="none" stroke="#b1b1b1" stroke-width="10" stroke-linecap="round"/><path d="M289.55782,126l74.5,135" fill="none" stroke="#b1b1b1" stroke-width="10" stroke-linecap="round"/><path d="M-27.02026,87.90761l82.32809,22.59239" fill="none" stroke="#b1b1b1" stroke-width="10" stroke-linecap="round"/><path d="M81.0807,230.62838l-74.5,-43.5" fill="none" stroke="#b1b1b1" stroke-width="10" stroke-linecap="round"/><path d="M3.5807,165.12838l54,-32" fill="none" stroke="#b1b1b1" stroke-width="10" stroke-linecap="round"/><path d="M89.0807,146.62838l12.5,69" fill="none" stroke="#b1b1b1" stroke-width="10" stroke-linecap="round"/><path d="M108.0807,127.62838l57,30.5" fill="none" stroke="#b1b1b1" stroke-width="10" stroke-linecap="round"/><path d="M179.0807,190.12838l-46,41.5" fill="none" stroke="#b1b1b1" stroke-width="10" stroke-linecap="round"/><path d="M213.0807,152.62838l50,-33" fill="none" stroke="#b1b1b1" stroke-width="10" stroke-linecap="round"/><path d="M258.5807,100.62838l-150,8.5" fill="none" stroke="#b1b1b1" stroke-width="10" stroke-linecap="round"/><path d="M51.99252,119.49549c0,-17.67311 14.32689,-32 32,-32c17.67311,0 32,14.32689 32,32c0,17.67311 -14.32689,32 -32,32c-17.67311,0 -32,-14.32689 -32,-32z" fill="#b1b1b1" stroke="none" stroke-width="0" stroke-linecap="butt"/><path d="M252.07361,104.02702c0,-17.67311 14.32689,-32 32,-32c17.67311,0 32,14.32689 32,32c0,17.67311 -14.32689,32 -32,32c-17.67311,0 -32,-14.32689 -32,-32z" fill="#b1b1b1" stroke="none" stroke-width="0" stroke-linecap="butt"/><path d="M160.44898,168.51351c0,-17.67311 14.32689,-32 32,-32c17.67311,0 32,14.32689 32,32c0,17.67311 -14.32689,32 -32,32c-17.67311,0 -32,-14.32689 -32,-32z" fill="#b1b1b1" stroke="none" stroke-width="0" stroke-linecap="butt"/><path d="M76.36489,242.08708c0,-17.67311 14.32689,-32 32,-32c17.67311,0 32,14.32689 32,32c0,17.67311 -14.32689,32 -32,32c-17.67311,0 -32,-14.32689 -32,-32z" fill="#b1b1b1" stroke="none" stroke-width="0" stroke-linecap="butt"/><path d="M-53.88436,179.11411c0,-17.67311 14.32689,-32 32,-32c17.67311,0 32,14.32689 32,32c0,17.67311 -14.32689,32 -32,32c-17.67311,0 -32,-14.32689 -32,-32z" fill="#b1b1b1" stroke="none" stroke-width="0" stroke-linecap="butt"/><path d="M332.41131,379.83148v-132.50881h178.5394v132.50881z" data-paper-data="{&quot;index&quot;:null}" fill="#000000" stroke="none" stroke-width="0" stroke-linecap="butt"/></g></g></svg>