<svg version="1.1" xmlns="http://www.w3.org/2000/svg" xmlns:xlink="http://www.w3.org/1999/xlink" width="399.49777" height="367.84623" viewBox="0,0,399.49777,367.84623"><defs><linearGradient x1="32.23688" y1="280.14624" x2="32.23688" y2="303.6129" gradientUnits="userSpaceOnUse" id="color-1"><stop offset="0" stop-color="#ff0000"/><stop offset="1" stop-color="#c30000"/></linearGradient><linearGradient x1="53.23689" y1="280.14624" x2="53.23689" y2="303.6129" gradientUnits="userSpaceOnUse" id="color-2"><stop offset="0" stop-color="#ff0000"/><stop offset="1" stop-color="#c30000"/></linearGradient><linearGradient x1="74.23688" y1="280.14624" x2="74.23688" y2="303.6129" gradientUnits="userSpaceOnUse" id="color-3"><stop offset="0" stop-color="#ff0000"/><stop offset="1" stop-color="#c30000"/></linearGradient><linearGradient x1="95.23688" y1="280.14624" x2="95.23688" y2="303.6129" gradientUnits="userSpaceOnUse" id="color-4"><stop offset="0" stop-color="#ff0000"/><stop offset="1" stop-color="#c30000"/></linearGradient><linearGradient x1="116.23688" y1="280.14624" x2="116.23688" y2="303.6129" gradientUnits="userSpaceOnUse" id="color-5"><stop offset="0" stop-color="#ff0000"/><stop offset="1" stop-color="#c30000"/></linearGradient><linearGradient x1="137.23688" y1="280.14624" x2="137.23688" y2="303.6129" gradientUnits="userSpaceOnUse" id="color-6"><stop offset="0" stop-color="#ff0000"/><stop offset="1" stop-color="#c30000"/></linearGradient><linearGradient x1="158.23688" y1="280.14624" x2="158.23688" y2="303.6129" gradientUnits="userSpaceOnUse" id="color-7"><stop offset="0" stop-color="#ff0000"/><stop offset="1" stop-color="#c30000"/></linearGradient><linearGradient x1="179.23689" y1="280.14624" x2="179.23689" y2="303.6129" gradientUnits="userSpaceOnUse" id="color-8"><stop offset="0" stop-color="#ff0000"/><stop offset="1" stop-color="#c30000"/></linearGradient><linearGradient x1="200.23692" y1="280.14624" x2="200.23692" y2="303.6129" gradientUnits="userSpaceOnUse" id="color-9"><stop offset="0" stop-color="#ff0000"/><stop offset="1" stop-color="#c30000"/></linearGradient><linearGradient x1="221.23692" y1="280.14624" x2="221.23692" y2="303.6129" gradientUnits="userSpaceOnUse" id="color-10"><stop offset="0" stop-color="#ff0000"/><stop offset="1" stop-color="#c30000"/></linearGradient><linearGradient x1="242.23692" y1="280.14624" x2="242.23692" y2="303.6129" gradientUnits="userSpaceOnUse" id="color-11"><stop offset="0" stop-color="#ff0000"/><stop offset="1" stop-color="#c30000"/></linearGradient><linearGradient x1="263.23688" y1="280.14624" x2="263.23688" y2="303.6129" gradientUnits="userSpaceOnUse" id="color-12"><stop offset="0" stop-color="#ff0000"/><stop offset="1" stop-color="#c30000"/></linearGradient><linearGradient x1="283.73462" y1="280.14624" x2="283.73462" y2="303.6129" gradientUnits="userSpaceOnUse" id="color-13"><stop offset="0" stop-color="#ff0000"/><stop offset="1" stop-color="#c30000"/></linearGradient><linearGradient x1="304.73464" y1="280.14624" x2="304.73464" y2="303.6129" gradientUnits="userSpaceOnUse" id="color-14"><stop offset="0" stop-color="#ff0000"/><stop offset="1" stop-color="#c30000"/></linearGradient><linearGradient x1="325.73464" y1="280.14624" x2="325.73464" y2="303.6129" gradientUnits="userSpaceOnUse" id="color-15"><stop offset="0" stop-color="#ff0000"/><stop offset="1" stop-color="#c30000"/></linearGradient><linearGradient x1="346.73464" y1="280.14624" x2="346.73464" y2="303.6129" gradientUnits="userSpaceOnUse" id="color-16"><stop offset="0" stop-color="#ff0000"/><stop offset="1" stop-color="#c30000"/></linearGradient><linearGradient x1="367.73465" y1="280.14624" x2="367.73465" y2="303.6129" gradientUnits="userSpaceOnUse" id="color-17"><stop offset="0" stop-color="#ff0000"/><stop offset="1" stop-color="#c30000"/></linearGradient><linearGradient x1="388.73465" y1="280.14624" x2="388.73465" y2="303.6129" gradientUnits="userSpaceOnUse" id="color-18"><stop offset="0" stop-color="#ff0000"/><stop offset="1" stop-color="#c30000"/></linearGradient><linearGradient x1="409.73465" y1="280.14624" x2="409.73465" y2="303.6129" gradientUnits="userSpaceOnUse" id="color-19"><stop offset="0" stop-color="#ff0000"/><stop offset="1" stop-color="#c30000"/></linearGradient><linearGradient x1="218.06443" y1="-53.23333" x2="194.59775" y2="-53.23333" gradientUnits="userSpaceOnUse" id="color-20"><stop offset="0" stop-color="#ff0000"/><stop offset="1" stop-color="#c30000"/></linearGradient><linearGradient x1="218.06443" y1="-32.23331" x2="194.59775" y2="-32.23331" gradientUnits="userSpaceOnUse" id="color-21"><stop offset="0" stop-color="#ff0000"/><stop offset="1" stop-color="#c30000"/></linearGradient><linearGradient x1="218.06443" y1="-11.23331" x2="194.59775" y2="-11.23331" gradientUnits="userSpaceOnUse" id="color-22"><stop offset="0" stop-color="#ff0000"/><stop offset="1" stop-color="#c30000"/></linearGradient><linearGradient x1="218.06443" y1="9.76669" x2="194.59775" y2="9.76669" gradientUnits="userSpaceOnUse" id="color-23"><stop offset="0" stop-color="#ff0000"/><stop offset="1" stop-color="#c30000"/></linearGradient><linearGradient x1="218.06443" y1="30.76669" x2="194.59775" y2="30.76669" gradientUnits="userSpaceOnUse" id="color-24"><stop offset="0" stop-color="#ff0000"/><stop offset="1" stop-color="#c30000"/></linearGradient><linearGradient x1="218.06443" y1="51.76669" x2="194.59775" y2="51.76669" gradientUnits="userSpaceOnUse" id="color-25"><stop offset="0" stop-color="#ff0000"/><stop offset="1" stop-color="#c30000"/></linearGradient><linearGradient x1="218.06443" y1="72.76667" x2="194.59775" y2="72.76667" gradientUnits="userSpaceOnUse" id="color-26"><stop offset="0" stop-color="#ff0000"/><stop offset="1" stop-color="#c30000"/></linearGradient><linearGradient x1="218.06443" y1="93.7667" x2="194.59775" y2="93.7667" gradientUnits="userSpaceOnUse" id="color-27"><stop offset="0" stop-color="#ff0000"/><stop offset="1" stop-color="#c30000"/></linearGradient><linearGradient x1="218.06443" y1="114.7667" x2="194.59775" y2="114.7667" gradientUnits="userSpaceOnUse" id="color-28"><stop offset="0" stop-color="#ff0000"/><stop offset="1" stop-color="#c30000"/></linearGradient><linearGradient x1="218.06443" y1="135.7667" x2="194.59775" y2="135.7667" gradientUnits="userSpaceOnUse" id="color-29"><stop offset="0" stop-color="#ff0000"/><stop offset="1" stop-color="#c30000"/></linearGradient><linearGradient x1="218.06443" y1="156.7667" x2="194.59775" y2="156.7667" gradientUnits="userSpaceOnUse" id="color-30"><stop offset="0" stop-color="#ff0000"/><stop offset="1" stop-color="#c30000"/></linearGradient><linearGradient x1="218.06443" y1="177.7667" x2="194.59775" y2="177.7667" gradientUnits="userSpaceOnUse" id="color-31"><stop offset="0" stop-color="#ff0000"/><stop offset="1" stop-color="#c30000"/></linearGradient></defs><g transform="translate(-21.23688,64.23333)"><g data-paper-data="{&quot;isPaintingLayer&quot;:true}" fill-rule="nonzero" stroke="none" stroke-width="0" stroke-linecap="butt" stroke-linejoin="miter" stroke-miterlimit="10" stroke-dasharray="" stroke-dashoffset="0" style="mix-blend-mode: normal"><path d="M21.23688,303.6129l10.86667,-23.46667l11.13333,23.46667z" fill="url(#color-1)"/><path d="M42.23689,303.6129l10.86666,-23.46666l11.13334,23.46666z" fill="url(#color-2)"/><path d="M63.23688,303.6129l10.86666,-23.46666l11.13334,23.46666z" fill="url(#color-3)"/><path d="M84.23688,303.6129l10.86666,-23.46666l11.13334,23.46666z" fill="url(#color-4)"/><path d="M105.23688,303.6129l10.86666,-23.46666l11.13334,23.46666z" fill="url(#color-5)"/><path d="M126.23688,303.6129l10.86666,-23.46666l11.13334,23.46666z" fill="url(#color-6)"/><path d="M147.23688,303.6129l10.86667,-23.46667l11.13333,23.46667z" fill="url(#color-7)"/><path d="M168.23689,303.6129l10.86666,-23.46666l11.13334,23.46666z" fill="url(#color-8)"/><path d="M189.23689,303.6129l10.86666,-23.46666l11.13334,23.46666z" fill="url(#color-9)"/><path d="M210.23692,303.6129l10.86666,-23.46666l11.13334,23.46666z" fill="url(#color-10)"/><path d="M231.23692,303.6129l10.86666,-23.46666l11.13334,23.46666z" fill="url(#color-11)"/><path d="M252.23692,303.6129l10.86666,-23.46666l11.13334,23.46666z" fill="url(#color-12)"/><path d="M272.73462,303.6129l10.86667,-23.46667l11.13333,23.46667z" fill="url(#color-13)"/><path d="M293.73464,303.6129l10.86666,-23.46666l11.13334,23.46666z" fill="url(#color-14)"/><path d="M314.73464,303.6129l10.86666,-23.46666l11.13334,23.46666z" fill="url(#color-15)"/><path d="M335.73464,303.6129l10.86666,-23.46666l11.13334,23.46666z" fill="url(#color-16)"/><path d="M356.73464,303.6129l10.86666,-23.46666l11.13334,23.46666z" fill="url(#color-17)"/><path d="M377.73465,303.6129l10.86666,-23.46666l11.13334,23.46666z" fill="url(#color-18)"/><path d="M398.73465,303.6129l10.86667,-23.46667l11.13333,23.46667z" fill="url(#color-19)"/><path d="M194.59775,-64.23333l23.46667,10.86667l-23.46667,11.13333z" fill="url(#color-20)"/><path d="M194.59775,-43.23331l23.46666,10.86666l-23.46666,11.13334z" fill="url(#color-21)"/><path d="M194.59775,-22.23331l23.46666,10.86666l-23.46666,11.13334z" fill="url(#color-22)"/><path d="M194.59775,-1.23331l23.46666,10.86666l-23.46666,11.13334z" fill="url(#color-23)"/><path d="M194.59775,19.76669l23.46666,10.86666l-23.46666,11.13334z" fill="url(#color-24)"/><path d="M194.59775,40.76668l23.46666,10.86666l-23.46666,11.13334z" fill="url(#color-25)"/><path d="M194.59775,61.76667l23.46667,10.86667l-23.46667,11.13333z" fill="url(#color-26)"/><path d="M194.59775,82.7667l23.46666,10.86666l-23.46666,11.13334z" fill="url(#color-27)"/><path d="M194.59775,103.7667l23.46666,10.86666l-23.46666,11.13334z" fill="url(#color-28)"/><path d="M194.59775,124.7667l23.46666,10.86666l-23.46666,11.13334z" fill="url(#color-29)"/><path d="M194.59775,145.7667l23.46666,10.86666l-23.46666,11.13334z" fill="url(#color-30)"/><path d="M194.59775,166.7667l23.46666,10.86666l-23.46666,11.13334z" fill="url(#color-31)"/></g></g></svg>