<svg version="1.1" xmlns="http://www.w3.org/2000/svg" xmlns:xlink="http://www.w3.org/1999/xlink" width="543.32467" height="201.67416" viewBox="0,0,543.32467,201.67416"><g transform="translate(24.42473,-191.78233)"><g data-paper-data="{&quot;isPaintingLayer&quot;:true}" fill-rule="nonzero" stroke="none" stroke-width="0" stroke-linecap="butt" stroke-linejoin="miter" stroke-miterlimit="10" stroke-dasharray="" stroke-dashoffset="0" style="mix-blend-mode: normal"><path d="M256.88535,382.13027v-103h221v103z" fill="#ff0000"/><g fill="#000000"><path d="M165.82728,377.95881v-123.83746h48.19317v123.83746z"/><path d="M186.4815,393.45649v-157.92394h50.25858v157.92394z"/><path d="M205.75877,351.81788v-133.49717h48.19316v133.49717z"/><path d="M87.34128,362.9002v-37.86606h48.19316v37.86606z"/><path d="M107.99549,343.62293v-37.17758h50.25859v37.17758z"/><path d="M127.27276,327.09956v-37.86606h48.19317v37.86606z"/><path d="M147.92697,349.35904v-78.71433h50.25858v78.71433z"/><path d="M226.41298,347.99615v-148.26424h50.25858v148.26424z"/></g><path d="M298.88889,231.52816v-18.48956h40.57078v18.48956z" fill="#000000"/><path d="M403.32915,210.77189v-18.98956h115.57078v18.98956z" fill="#000000"/><path d="M-24.42473,314.00001v73h300.24v-73z" data-paper-data="{&quot;index&quot;:null}" fill="#000000"/></g></g></svg>