<svg version="1.1" xmlns="http://www.w3.org/2000/svg" xmlns:xlink="http://www.w3.org/1999/xlink" width="478.14114" height="436.81944" viewBox="0,0,478.14114,436.81944"><defs><radialGradient cx="239.51424" cy="179.01922" r="239.07057" gradientUnits="userSpaceOnUse" id="color-1"><stop offset="0" stop-color="#c4c4c4"/><stop offset="1" stop-color="#989898"/></radialGradient></defs><g transform="translate(-0.92943,1.33555)"><g data-paper-data="{&quot;isPaintingLayer&quot;:true}" fill-rule="nonzero" stroke="none" stroke-width="0" stroke-linecap="butt" stroke-linejoin="miter" stroke-miterlimit="10" stroke-dasharray="" stroke-dashoffset="0" style="mix-blend-mode: normal"><path d="M0.92943,361.33554v-362.67109h478.14114v362.67109z" fill="url(#color-1)"/><g data-paper-data="{&quot;index&quot;:null}" fill="#989898"><path d="M319.95085,98.38338l-45.71357,12.03439l-29.22633,-37.03462l6.04995,-18.13512l28.97496,36.95077l45.96494,-11.95053z"/><path d="M329.12815,70.87379l-45.71357,12.0344l-29.22633,-37.03463l6.04994,-18.13511l28.97496,36.95077l45.96495,-11.95053z"/><path d="M338.14723,43.83851l-45.71357,12.0344l-29.22633,-37.03463l6.04994,-18.13511l28.97496,36.95077l45.96495,-11.95053z"/></g><g data-paper-data="{&quot;index&quot;:null}" fill="#989898"><path d="M292.7354,179.96353l-45.71357,12.03439l-29.22633,-37.03462l6.04995,-18.13512l28.97496,36.95077l45.96494,-11.95053z"/><path d="M301.9127,152.45393l-45.71357,12.0344l-29.22633,-37.03463l6.04994,-18.13511l28.97496,36.95077l45.96495,-11.95053z"/><path d="M310.93178,125.41865l-45.71357,12.0344l-29.22633,-37.03463l6.04994,-18.13511l28.97496,36.95077l45.96495,-11.95053z"/></g><g data-paper-data="{&quot;index&quot;:null}" fill="#989898"><path d="M265.67818,261.06936l-45.71357,12.03439l-29.22633,-37.03462l6.04995,-18.13512l28.97496,36.95077l45.96494,-11.95053z"/><path d="M274.85548,233.55977l-45.71357,12.0344l-29.22633,-37.03463l6.04994,-18.13511l28.97496,36.95077l45.96495,-11.95053z"/><path d="M283.87456,206.52449l-45.71357,12.0344l-29.22633,-37.03463l6.04994,-18.13511l28.97496,36.95077l45.96495,-11.95053z"/></g><g data-paper-data="{&quot;index&quot;:null}" fill="#989898"><path d="M238.46273,342.6495l-45.71357,12.03439l-29.22633,-37.03462l6.04995,-18.13512l28.97496,36.95077l45.96494,-11.95053z"/><path d="M247.64004,315.13991l-45.71357,12.0344l-29.22633,-37.03463l6.04994,-18.13511l28.97496,36.95077l45.96495,-11.95053z"/><path d="M256.65911,288.10463l-45.71357,12.0344l-29.22633,-37.03463l6.04994,-18.13511l28.97496,36.95077l45.96495,-11.95053z"/></g><g data-paper-data="{&quot;index&quot;:null}" fill="#989898"><path d="M211.66273,423.4495l-45.71357,12.03439l-29.22633,-37.03462l6.04995,-18.13512l28.97496,36.95077l45.96494,-11.95053z"/><path d="M220.84004,395.93991l-45.71357,12.0344l-29.22633,-37.03463l6.04994,-18.13511l28.97496,36.95077l45.96495,-11.95053z"/><path d="M229.85911,368.90463l-45.71357,12.0344l-29.22633,-37.03463l6.04994,-18.13511l28.97496,36.95077l45.96495,-11.95053z"/></g></g></g></svg>