<svg version="1.1" xmlns="http://www.w3.org/2000/svg" xmlns:xlink="http://www.w3.org/1999/xlink" width="516.7458" height="393.16618" viewBox="0,0,516.7458,393.16618"><g transform="translate(2.85646,14.84409)"><g data-paper-data="{&quot;isPaintingLayer&quot;:true}" fill="#000000" fill-rule="nonzero" stroke="none" stroke-width="0" stroke-linecap="butt" stroke-linejoin="miter" stroke-miterlimit="10" stroke-dasharray="" stroke-dashoffset="0" style="mix-blend-mode: normal"><path d="M319.58324,290.02757v-15.47728h48.53352v15.47728z"/><path d="M445.80446,378.32209v-393.16617h68.08488v393.16618z"/><path d="M61.39774,51.12233l-14.75,-41.46644v-12.21689h7v12.46689l14.75,41.21644z"/><path d="M75.43979,95.55589l-13.99624,-44.5h170.3v44.5z"/><path d="M-2.85646,368.3221v-47h494v47z"/><path d="M-2.35646,369.0721v-376.91618h7v376.91618z"/><path d="M216.26644,289.32205v-200h15.5v200z"/><path d="M319.58324,233.72757v-14.67728h43.33352v14.67728z"/><path d="M319.58324,178.22757v-14.67728h43.33352v14.67728z"/><path d="M319.58324,122.5847v-14.67728h68.53352v14.67728z"/><path d="M224.93997,68.00589v-16.8h226.6v16.8z"/><path d="M352.76644,289.82209v-182h15.5v182z"/><path d="M423.53997,122.42209v-60h30.8v60z"/></g></g></svg>