<svg version="1.1" xmlns="http://www.w3.org/2000/svg" xmlns:xlink="http://www.w3.org/1999/xlink" width="174.3354" height="152.42611" viewBox="0,0,174.3354,152.42611"><defs><radialGradient cx="239.72676" cy="172.07616" r="67.18851" gradientUnits="userSpaceOnUse" id="color-1"><stop offset="0" stop-color="#00ff3c" stop-opacity="0"/><stop offset="1" stop-color="#00ff3c" stop-opacity="0"/></radialGradient><radialGradient cx="239.72677" cy="172.07614" r="46.58689" gradientUnits="userSpaceOnUse" id="color-2"><stop offset="0" stop-color="#00ff3c" stop-opacity="0.66129"/><stop offset="1" stop-color="#00ff3c" stop-opacity="0"/></radialGradient></defs><g transform="translate(-149.42916,-92.26371)"><g data-paper-data="{&quot;isPaintingLayer&quot;:true}" fill-rule="nonzero" stroke-linecap="butt" stroke-linejoin="miter" stroke-miterlimit="10" stroke-dasharray="" stroke-dashoffset="0" style="mix-blend-mode: normal"><path d="M172.53825,172.07616c0,-37.10719 30.08132,-67.18851 67.18851,-67.18851c37.10719,0 67.18851,30.08132 67.18851,67.18851c0,37.10719 -30.08132,67.18851 -67.18851,67.18851c-37.10719,0 -67.18851,-30.08132 -67.18851,-67.18851z" fill="url(#color-1)" stroke="none" stroke-width="0"/><path d="M193.13989,172.07614c0,-25.72923 20.85766,-46.58689 46.58689,-46.58689c25.72923,0 46.58689,20.85766 46.58689,46.58689c0,25.72923 -20.85766,46.58689 -46.58689,46.58689c-25.72923,0 -46.58689,-20.85766 -46.58689,-46.58689z" fill="url(#color-2)" stroke="none" stroke-width="0"/><path d="M194.8114,186.1352v-44.0793h90.77739v44.0793z" fill="#00ff3c" stroke="#005013" stroke-width="3"/><path d="M285.5888,186.1352v15.77223h-90.77739v-15.77223z" fill="#00ab27" stroke="#005013" stroke-width="3"/><path d="M231.51016,156.62724c4.2811,-3.99752 10.9775,-4.19972 15.50355,-0.27836c4.84216,4.19523 5.3666,11.52148 1.17137,16.36364c-4.19523,4.84216 -11.52148,5.3666 -16.36364,1.17137c-1.19338,-1.03394 -2.1245,-2.25807 -2.78734,-3.58831" fill="none" stroke="#005013" stroke-width="3"/><path d="M236.81536,159.01047l-6.25111,-2.57961l2.5796,-6.25111" fill="none" stroke="#005013" stroke-width="3"/><path d="M149.42916,244.68983v-152.42611h174.3354v152.42611z" fill="none" stroke="none" stroke-width="none"/></g></g></svg>