<svg version="1.1" xmlns="http://www.w3.org/2000/svg" xmlns:xlink="http://www.w3.org/1999/xlink" width="99.02821" height="35.11994" viewBox="0,0,99.02821,35.11994"><defs><radialGradient cx="240" cy="180" r="48.26411" gradientUnits="userSpaceOnUse" id="color-1"><stop offset="0" stop-color="#ff8080"/><stop offset="1" stop-color="#ff4d4d"/></radialGradient></defs><g transform="translate(-190.48589,-162.44003)"><g data-paper-data="{&quot;isPaintingLayer&quot;:true}" fill-rule="nonzero" stroke-linecap="butt" stroke-linejoin="miter" stroke-miterlimit="10" stroke-dasharray="" stroke-dashoffset="0" style="mix-blend-mode: normal"><path d="M191.73589,196.30997v-32.61994h96.52821v32.61994z" fill="url(#color-1)" stroke="#000000" stroke-width="2.5"/><g fill="#ff3434" stroke="none" stroke-width="0"><path d="M193.06828,171.72542v-3.33992h3.33992v3.33992z"/><path d="M196.38724,168.40647v-3.33992h3.33992v3.33992z"/><path d="M193.06828,178.36332v-3.33992h3.33992v3.33992z"/><path d="M196.38724,175.04437v-3.33992h3.33992v3.33992z"/><path d="M193.06828,184.88873v-3.33992h3.33992v3.33992z"/><path d="M196.38724,181.56977v-3.33992h3.33992v3.33992z"/><path d="M193.06828,191.52663v-3.33992h3.33992v3.33992z"/><path d="M196.38724,188.20768v-3.33992h3.33992v3.33992z"/><path d="M196.38724,194.90184v-3.33992h3.33992v3.33992z"/><path d="M199.72525,171.72542v-3.33992h3.33992v3.33992z"/><path d="M203.04419,168.40647v-3.33992h3.33992v3.33992z"/><path d="M199.72525,178.36332v-3.33992h3.33992v3.33992z"/><path d="M203.04419,175.04437v-3.33992h3.33992v3.33992z"/><path d="M199.72525,184.88873v-3.33992h3.33992v3.33992z"/><path d="M203.04419,181.56977v-3.33992h3.33992v3.33992z"/><path d="M199.72525,191.52663v-3.33992h3.33992v3.33992z"/><path d="M203.04419,188.20768v-3.33992h3.33992v3.33992z"/><path d="M203.04419,194.90184v-3.33992h3.33992v3.33992z"/></g><g fill="#ff3434" stroke="none" stroke-width="0"><path d="M206.56258,171.72542v-3.33992h3.33992v3.33992z"/><path d="M209.88153,168.40647v-3.33992h3.33992v3.33992z"/><path d="M206.56258,178.36332v-3.33992h3.33992v3.33992z"/><path d="M209.88153,175.04437v-3.33992h3.33992v3.33992z"/><path d="M206.56258,184.88873v-3.33992h3.33992v3.33992z"/><path d="M209.88153,181.56977v-3.33992h3.33992v3.33992z"/><path d="M206.56258,191.52663v-3.33992h3.33992v3.33992z"/><path d="M209.88153,188.20768v-3.33992h3.33992v3.33992z"/><path d="M209.88153,194.90184v-3.33992h3.33992v3.33992z"/><path d="M213.21953,171.72542v-3.33992h3.33992v3.33992z"/><path d="M216.53849,168.40647v-3.33992h3.33992v3.33992z"/><path d="M213.21953,178.36332v-3.33992h3.33992v3.33992z"/><path d="M216.53849,175.04437v-3.33992h3.33992v3.33992z"/><path d="M213.21953,184.88873v-3.33992h3.33992v3.33992z"/><path d="M216.53849,181.56977v-3.33992h3.33992v3.33992z"/><path d="M213.21953,191.52663v-3.33992h3.33992v3.33992z"/><path d="M216.53849,188.20768v-3.33992h3.33992v3.33992z"/><path d="M216.53849,194.90184v-3.33992h3.33992v3.33992z"/></g><g fill="#ff3434" stroke="none" stroke-width="0"><path d="M219.72938,171.72542v-3.33992h3.33992v3.33992z"/><path d="M223.04833,168.40647v-3.33992h3.33992v3.33992z"/><path d="M219.72938,178.36332v-3.33992h3.33992v3.33992z"/><path d="M223.04833,175.04437v-3.33992h3.33992v3.33992z"/><path d="M219.72938,184.88873v-3.33992h3.33992v3.33992z"/><path d="M223.04833,181.56977v-3.33992h3.33992v3.33992z"/><path d="M219.72938,191.52663v-3.33992h3.33992v3.33992z"/><path d="M223.04833,188.20768v-3.33992h3.33992v3.33992z"/><path d="M223.04833,194.90184v-3.33992h3.33992v3.33992z"/><path d="M226.38633,171.72542v-3.33992h3.33992v3.33992z"/><path d="M229.70529,168.40647v-3.33992h3.33992v3.33992z"/><path d="M226.38633,178.36332v-3.33992h3.33992v3.33992z"/><path d="M229.70529,175.04437v-3.33992h3.33992v3.33992z"/><path d="M226.38633,184.88873v-3.33992h3.33992v3.33992z"/><path d="M229.70529,181.56977v-3.33992h3.33992v3.33992z"/><path d="M226.38633,191.52663v-3.33992h3.33992v3.33992z"/><path d="M229.70529,188.20768v-3.33992h3.33992v3.33992z"/><path d="M229.70529,194.90184v-3.33992h3.33992v3.33992z"/></g><g fill="#ff3434" stroke="none" stroke-width="0"><path d="M233.22367,171.72542v-3.33992h3.33992v3.33992z"/><path d="M236.54262,168.40647v-3.33992h3.33992v3.33992z"/><path d="M233.22367,178.36332v-3.33992h3.33992v3.33992z"/><path d="M236.54262,175.04437v-3.33992h3.33992v3.33992z"/><path d="M233.22367,184.88873v-3.33992h3.33992v3.33992z"/><path d="M236.54262,181.56977v-3.33992h3.33992v3.33992z"/><path d="M233.22367,191.52663v-3.33992h3.33992v3.33992z"/><path d="M236.54262,188.20768v-3.33992h3.33992v3.33992z"/><path d="M236.54262,194.90184v-3.33992h3.33992v3.33992z"/><path d="M239.88063,171.72542v-3.33992h3.33992v3.33992z"/><path d="M243.19958,168.40647v-3.33992h3.33992v3.33992z"/><path d="M239.88063,178.36332v-3.33992h3.33992v3.33992z"/><path d="M243.19958,175.04437v-3.33992h3.33992v3.33992z"/><path d="M239.88063,184.88873v-3.33992h3.33992v3.33992z"/><path d="M243.19958,181.56977v-3.33992h3.33992v3.33992z"/><path d="M239.88063,191.52663v-3.33992h3.33992v3.33992z"/><path d="M243.19958,188.20768v-3.33992h3.33992v3.33992z"/><path d="M243.19958,194.90184v-3.33992h3.33992v3.33992z"/></g><g fill="#ff3434" stroke="none" stroke-width="0"><path d="M246.76864,171.72542v-3.33992h3.33992v3.33992z"/><path d="M250.08759,168.40647v-3.33992h3.33992v3.33992z"/><path d="M246.76864,178.36332v-3.33992h3.33992v3.33992z"/><path d="M250.08759,175.04437v-3.33992h3.33992v3.33992z"/><path d="M246.76864,184.88873v-3.33992h3.33992v3.33992z"/><path d="M250.08759,181.56977v-3.33992h3.33992v3.33992z"/><path d="M246.76864,191.52663v-3.33992h3.33992v3.33992z"/><path d="M250.08759,188.20768v-3.33992h3.33992v3.33992z"/><path d="M250.08759,194.90184v-3.33992h3.33992v3.33992z"/><path d="M253.42561,171.72542v-3.33992h3.33992v3.33992z"/><path d="M256.74456,168.40647v-3.33992h3.33992v3.33992z"/><path d="M253.42561,178.36332v-3.33992h3.33992v3.33992z"/><path d="M256.74456,175.04437v-3.33992h3.33992v3.33992z"/><path d="M253.42561,184.88873v-3.33992h3.33992v3.33992z"/><path d="M256.74456,181.56977v-3.33992h3.33992v3.33992z"/><path d="M253.42561,191.52663v-3.33992h3.33992v3.33992z"/><path d="M256.74456,188.20768v-3.33992h3.33992v3.33992z"/><path d="M256.74456,194.90184v-3.33992h3.33992v3.33992z"/></g><g fill="#ff3434" stroke="none" stroke-width="0"><path d="M260.26293,171.72542v-3.33992h3.33992v3.33992z"/><path d="M263.58189,168.40647v-3.33992h3.33992v3.33992z"/><path d="M260.26293,178.36332v-3.33992h3.33992v3.33992z"/><path d="M263.58189,175.04437v-3.33992h3.33992v3.33992z"/><path d="M260.26293,184.88873v-3.33992h3.33992v3.33992z"/><path d="M263.58189,181.56977v-3.33992h3.33992v3.33992z"/><path d="M260.26293,191.52663v-3.33992h3.33992v3.33992z"/><path d="M263.58189,188.20768v-3.33992h3.33992v3.33992z"/><path d="M263.58189,194.90184v-3.33992h3.33992v3.33992z"/><path d="M266.9199,171.72542v-3.33992h3.33992v3.33992z"/><path d="M270.23885,168.40647v-3.33992h3.33992v3.33992z"/><path d="M266.9199,178.36332v-3.33992h3.33992v3.33992z"/><path d="M270.23885,175.04437v-3.33992h3.33992v3.33992z"/><path d="M266.9199,184.88873v-3.33992h3.33992v3.33992z"/><path d="M270.23885,181.56977v-3.33992h3.33992v3.33992z"/><path d="M266.9199,191.52663v-3.33992h3.33992v3.33992z"/><path d="M270.23885,188.20768v-3.33992h3.33992v3.33992z"/><path d="M270.23885,194.90184v-3.33992h3.33992v3.33992z"/></g><g fill="#ff3434" stroke="none" stroke-width="0"><path d="M273.68802,171.72542v-3.33992h3.33992v3.33992z"/><path d="M277.00698,168.40647v-3.33992h3.33992v3.33992z"/><path d="M273.68802,178.36332v-3.33992h3.33992v3.33992z"/><path d="M277.00698,175.04437v-3.33992h3.33992v3.33992z"/><path d="M273.68802,184.88873v-3.33992h3.33992v3.33992z"/><path d="M277.00698,181.56977v-3.33992h3.33992v3.33992z"/><path d="M273.68802,191.52663v-3.33992h3.33992v3.33992z"/><path d="M277.00698,188.20768v-3.33992h3.33992v3.33992z"/><path d="M277.00698,194.90184v-3.33992h3.33992v3.33992z"/><path d="M280.34498,171.72542v-3.33992h3.33992v3.33992z"/><path d="M283.66395,168.40647v-3.33992h3.33992v3.33992z"/><path d="M280.34498,178.36332v-3.33992h3.33992v3.33992z"/><path d="M283.66395,175.04437v-3.33992h3.33992v3.33992z"/><path d="M280.34498,184.88873v-3.33992h3.33992v3.33992z"/><path d="M283.66395,181.56977v-3.33992h3.33992v3.33992z"/><path d="M280.34498,191.52663v-3.33992h3.33992v3.33992z"/><path d="M283.66395,188.20768v-3.33992h3.33992v3.33992z"/><path d="M283.66395,194.90184v-3.33992h3.33992v3.33992z"/></g></g></g></svg>