<svg version="1.1" xmlns="http://www.w3.org/2000/svg" xmlns:xlink="http://www.w3.org/1999/xlink" width="502.42753" height="68.04388" viewBox="0,0,502.42753,68.04388"><defs><linearGradient x1="37.37536" y1="211.73738" x2="35.25164" y2="235.10774" gradientUnits="userSpaceOnUse" id="color-1"><stop offset="0" stop-color="#ff0000"/><stop offset="1" stop-color="#c30000"/></linearGradient><linearGradient x1="58.2892" y1="213.63788" x2="56.16547" y2="237.00824" gradientUnits="userSpaceOnUse" id="color-2"><stop offset="0" stop-color="#ff0000"/><stop offset="1" stop-color="#c30000"/></linearGradient><linearGradient x1="79.20301" y1="215.53837" x2="77.07929" y2="238.90874" gradientUnits="userSpaceOnUse" id="color-3"><stop offset="0" stop-color="#ff0000"/><stop offset="1" stop-color="#c30000"/></linearGradient><linearGradient x1="100.11684" y1="217.43887" x2="97.99311" y2="240.80923" gradientUnits="userSpaceOnUse" id="color-4"><stop offset="0" stop-color="#ff0000"/><stop offset="1" stop-color="#c30000"/></linearGradient><linearGradient x1="121.03067" y1="219.33936" x2="118.90694" y2="242.70973" gradientUnits="userSpaceOnUse" id="color-5"><stop offset="0" stop-color="#ff0000"/><stop offset="1" stop-color="#c30000"/></linearGradient><linearGradient x1="141.94449" y1="221.23986" x2="139.82076" y2="244.61022" gradientUnits="userSpaceOnUse" id="color-6"><stop offset="0" stop-color="#ff0000"/><stop offset="1" stop-color="#c30000"/></linearGradient><linearGradient x1="162.85832" y1="223.14035" x2="160.73459" y2="246.51072" gradientUnits="userSpaceOnUse" id="color-7"><stop offset="0" stop-color="#ff0000"/><stop offset="1" stop-color="#c30000"/></linearGradient><linearGradient x1="183.77215" y1="225.04085" x2="181.64843" y2="248.41121" gradientUnits="userSpaceOnUse" id="color-8"><stop offset="0" stop-color="#ff0000"/><stop offset="1" stop-color="#c30000"/></linearGradient><linearGradient x1="204.68598" y1="226.94135" x2="202.56225" y2="250.31171" gradientUnits="userSpaceOnUse" id="color-9"><stop offset="0" stop-color="#ff0000"/><stop offset="1" stop-color="#c30000"/></linearGradient><linearGradient x1="225.59981" y1="228.84184" x2="223.47608" y2="252.21221" gradientUnits="userSpaceOnUse" id="color-10"><stop offset="0" stop-color="#ff0000"/><stop offset="1" stop-color="#c30000"/></linearGradient><linearGradient x1="246.51363" y1="230.74234" x2="244.3899" y2="254.1127" gradientUnits="userSpaceOnUse" id="color-11"><stop offset="0" stop-color="#ff0000"/><stop offset="1" stop-color="#c30000"/></linearGradient><linearGradient x1="267.42745" y1="232.64283" x2="265.30372" y2="256.0132" gradientUnits="userSpaceOnUse" id="color-12"><stop offset="0" stop-color="#ff0000"/><stop offset="1" stop-color="#c30000"/></linearGradient><linearGradient x1="287.84107" y1="234.49787" x2="285.71734" y2="257.86824" gradientUnits="userSpaceOnUse" id="color-13"><stop offset="0" stop-color="#ff0000"/><stop offset="1" stop-color="#c30000"/></linearGradient><linearGradient x1="308.75491" y1="236.39837" x2="306.63118" y2="259.76873" gradientUnits="userSpaceOnUse" id="color-14"><stop offset="0" stop-color="#ff0000"/><stop offset="1" stop-color="#c30000"/></linearGradient><linearGradient x1="329.66874" y1="238.29887" x2="327.54501" y2="261.66923" gradientUnits="userSpaceOnUse" id="color-15"><stop offset="0" stop-color="#ff0000"/><stop offset="1" stop-color="#c30000"/></linearGradient><linearGradient x1="350.58256" y1="240.19936" x2="348.45884" y2="263.56973" gradientUnits="userSpaceOnUse" id="color-16"><stop offset="0" stop-color="#ff0000"/><stop offset="1" stop-color="#c30000"/></linearGradient><linearGradient x1="371.49639" y1="242.09986" x2="369.37266" y2="265.47022" gradientUnits="userSpaceOnUse" id="color-17"><stop offset="0" stop-color="#ff0000"/><stop offset="1" stop-color="#c30000"/></linearGradient><linearGradient x1="392.41022" y1="244.00035" x2="390.28649" y2="267.37072" gradientUnits="userSpaceOnUse" id="color-18"><stop offset="0" stop-color="#ff0000"/><stop offset="1" stop-color="#c30000"/></linearGradient><linearGradient x1="413.32403" y1="245.90085" x2="411.2003" y2="269.27121" gradientUnits="userSpaceOnUse" id="color-19"><stop offset="0" stop-color="#ff0000"/><stop offset="1" stop-color="#c30000"/></linearGradient><linearGradient x1="434.23787" y1="247.80134" x2="432.11414" y2="271.17171" gradientUnits="userSpaceOnUse" id="color-20"><stop offset="0" stop-color="#ff0000"/><stop offset="1" stop-color="#c30000"/></linearGradient><linearGradient x1="455.15169" y1="249.70184" x2="453.02797" y2="273.0722" gradientUnits="userSpaceOnUse" id="color-21"><stop offset="0" stop-color="#ff0000"/><stop offset="1" stop-color="#c30000"/></linearGradient><linearGradient x1="476.06552" y1="251.60234" x2="473.94179" y2="274.9727" gradientUnits="userSpaceOnUse" id="color-22"><stop offset="0" stop-color="#ff0000"/><stop offset="1" stop-color="#c30000"/></linearGradient><linearGradient x1="496.97934" y1="253.50283" x2="494.85562" y2="276.87319" gradientUnits="userSpaceOnUse" id="color-23"><stop offset="0" stop-color="#ff0000"/><stop offset="1" stop-color="#c30000"/></linearGradient><linearGradient x1="517.89317" y1="255.40333" x2="515.76944" y2="278.77369" gradientUnits="userSpaceOnUse" id="color-24"><stop offset="0" stop-color="#ff0000"/><stop offset="1" stop-color="#c30000"/></linearGradient></defs><g transform="translate(-24.29677,-211.7253)"><g data-paper-data="{&quot;isPaintingLayer&quot;:true}" fill-rule="nonzero" stroke="none" stroke-width="0" stroke-linecap="butt" stroke-linejoin="miter" stroke-miterlimit="10" stroke-dasharray="" stroke-dashoffset="0" style="mix-blend-mode: normal"><path d="M24.29677,234.11225l12.94581,-22.38694l8.96392,24.37794z" fill="url(#color-1)"/><path d="M45.21061,236.01274l12.9458,-22.38693l8.96393,24.37793z" fill="url(#color-2)"/><path d="M66.12443,237.91324l12.9458,-22.38693l8.96393,24.37793z" fill="url(#color-3)"/><path d="M87.03825,239.81373l12.9458,-22.38693l8.96393,24.37793z" fill="url(#color-4)"/><path d="M107.95208,241.71423l12.9458,-22.38693l8.96393,24.37793z" fill="url(#color-5)"/><path d="M128.8659,243.61472l12.9458,-22.38693l8.96393,24.37793z" fill="url(#color-6)"/><path d="M149.77973,245.51522l12.94581,-22.38694l8.96392,24.37794z" fill="url(#color-7)"/><path d="M170.69357,247.41572l12.9458,-22.38693l8.96393,24.37793z" fill="url(#color-8)"/><path d="M191.60739,249.31621l12.9458,-22.38693l8.96393,24.37793z" fill="url(#color-9)"/><path d="M212.52122,251.21671l12.9458,-22.38693l8.96393,24.37793z" fill="url(#color-10)"/><path d="M233.43504,253.1172l12.9458,-22.38693l8.96393,24.37793z" fill="url(#color-11)"/><path d="M254.34887,255.0177l12.9458,-22.38693l8.96393,24.37793z" fill="url(#color-12)"/><path d="M274.76249,256.87274l12.94581,-22.38694l8.96392,24.37794z" fill="url(#color-13)"/><path d="M295.67632,258.77324l12.9458,-22.38693l8.96393,24.37793z" fill="url(#color-14)"/><path d="M316.59015,260.67373l12.9458,-22.38693l8.96393,24.37793z" fill="url(#color-15)"/><path d="M337.50397,262.57423l12.9458,-22.38693l8.96393,24.37793z" fill="url(#color-16)"/><path d="M358.4178,264.47472l12.9458,-22.38693l8.96393,24.37793z" fill="url(#color-17)"/><path d="M379.33163,266.37522l12.9458,-22.38693l8.96393,24.37793z" fill="url(#color-18)"/><path d="M400.24544,268.27571l12.94581,-22.38694l8.96392,24.37794z" fill="url(#color-19)"/><path d="M421.15928,270.17621l12.9458,-22.38693l8.96393,24.37793z" fill="url(#color-20)"/><path d="M442.0731,272.07671l12.9458,-22.38693l8.96393,24.37793z" fill="url(#color-21)"/><path d="M462.98693,273.9772l12.9458,-22.38693l8.96393,24.37793z" fill="url(#color-22)"/><path d="M483.90076,275.8777l12.9458,-22.38693l8.96393,24.37793z" fill="url(#color-23)"/><path d="M504.81458,277.77819l12.9458,-22.38693l8.96393,24.37793z" fill="url(#color-24)"/></g></g></svg>