<svg version="1.1" xmlns="http://www.w3.org/2000/svg" xmlns:xlink="http://www.w3.org/1999/xlink" width="23.46667" height="163.33333" viewBox="0,0,23.46667,163.33333"><defs><linearGradient x1="63.31555" y1="123.18222" x2="39.84889" y2="123.18222" gradientUnits="userSpaceOnUse" id="color-1"><stop offset="0" stop-color="#ff0000"/><stop offset="1" stop-color="#c30000"/></linearGradient><linearGradient x1="63.31555" y1="143.18222" x2="39.84889" y2="143.18222" gradientUnits="userSpaceOnUse" id="color-2"><stop offset="0" stop-color="#ff0000"/><stop offset="1" stop-color="#c30000"/></linearGradient><linearGradient x1="63.31555" y1="163.18221" x2="39.84889" y2="163.18221" gradientUnits="userSpaceOnUse" id="color-3"><stop offset="0" stop-color="#ff0000"/><stop offset="1" stop-color="#c30000"/></linearGradient><linearGradient x1="63.31555" y1="183.18222" x2="39.84889" y2="183.18222" gradientUnits="userSpaceOnUse" id="color-4"><stop offset="0" stop-color="#ff0000"/><stop offset="1" stop-color="#c30000"/></linearGradient><linearGradient x1="63.31555" y1="203.84888" x2="39.84889" y2="203.84888" gradientUnits="userSpaceOnUse" id="color-5"><stop offset="0" stop-color="#ff0000"/><stop offset="1" stop-color="#c30000"/></linearGradient><linearGradient x1="63.31555" y1="224.18222" x2="39.84889" y2="224.18222" gradientUnits="userSpaceOnUse" id="color-6"><stop offset="0" stop-color="#ff0000"/><stop offset="1" stop-color="#c30000"/></linearGradient><linearGradient x1="63.31555" y1="244.51555" x2="39.84889" y2="244.51555" gradientUnits="userSpaceOnUse" id="color-7"><stop offset="0" stop-color="#ff0000"/><stop offset="1" stop-color="#c30000"/></linearGradient><linearGradient x1="63.31555" y1="264.51555" x2="39.84889" y2="264.51555" gradientUnits="userSpaceOnUse" id="color-8"><stop offset="0" stop-color="#ff0000"/><stop offset="1" stop-color="#c30000"/></linearGradient></defs><g transform="translate(-39.84889,-112.18222)"><g data-paper-data="{&quot;isPaintingLayer&quot;:true}" fill-rule="nonzero" stroke="none" stroke-width="0" stroke-linecap="butt" stroke-linejoin="miter" stroke-miterlimit="10" stroke-dasharray="" stroke-dashoffset="0" style="mix-blend-mode: normal"><path d="M39.84889,112.18222l23.46666,10.86666l-23.46666,11.13334z" fill="url(#color-1)"/><path d="M39.84889,132.18222l23.46666,10.86666l-23.46666,11.13334z" fill="url(#color-2)"/><path d="M39.84889,152.18221l23.46667,10.86667l-23.46667,11.13333z" fill="url(#color-3)"/><path d="M39.84889,172.18222l23.46666,10.86666l-23.46666,11.13334z" fill="url(#color-4)"/><path d="M39.84889,192.84888l23.46666,10.86666l-23.46666,11.13334z" fill="url(#color-5)"/><path d="M39.84889,213.18222l23.46666,10.86666l-23.46666,11.13334z" fill="url(#color-6)"/><path d="M39.84889,233.51555l23.46666,10.86666l-23.46666,11.13334z" fill="url(#color-7)"/><path d="M39.84889,253.51555l23.46666,10.86666l-23.46666,11.13334z" fill="url(#color-8)"/></g></g></svg>