<svg version="1.1" xmlns="http://www.w3.org/2000/svg" xmlns:xlink="http://www.w3.org/1999/xlink" width="294.50001" height="47.20479" viewBox="0,0,294.50001,47.20479"><defs><linearGradient x1="255.83336" y1="283.96196" x2="255.83336" y2="307.42859" gradientUnits="userSpaceOnUse" id="color-1"><stop offset="0" stop-color="#ff0000"/><stop offset="1" stop-color="#c30000"/></linearGradient><linearGradient x1="288.2778" y1="283.96196" x2="288.2778" y2="307.42859" gradientUnits="userSpaceOnUse" id="color-2"><stop offset="0" stop-color="#ff0000"/><stop offset="1" stop-color="#c30000"/></linearGradient><linearGradient x1="353.11907" y1="284.42859" x2="353.11907" y2="260.96191" gradientUnits="userSpaceOnUse" id="color-3"><stop offset="0" stop-color="#ff0000"/><stop offset="1" stop-color="#c30000"/></linearGradient><linearGradient x1="372.65479" y1="284.42859" x2="372.65479" y2="260.96191" gradientUnits="userSpaceOnUse" id="color-4"><stop offset="0" stop-color="#ff0000"/><stop offset="1" stop-color="#c30000"/></linearGradient><linearGradient x1="391.94052" y1="284.42859" x2="391.94052" y2="260.96191" gradientUnits="userSpaceOnUse" id="color-5"><stop offset="0" stop-color="#ff0000"/><stop offset="1" stop-color="#c30000"/></linearGradient><linearGradient x1="411.26195" y1="284.42859" x2="411.26195" y2="260.96191" gradientUnits="userSpaceOnUse" id="color-6"><stop offset="0" stop-color="#ff0000"/><stop offset="1" stop-color="#c30000"/></linearGradient><linearGradient x1="430.83337" y1="284.42859" x2="430.83337" y2="260.96191" gradientUnits="userSpaceOnUse" id="color-7"><stop offset="0" stop-color="#ff0000"/><stop offset="1" stop-color="#c30000"/></linearGradient><linearGradient x1="272.15479" y1="284.20003" x2="272.15479" y2="307.6667" gradientUnits="userSpaceOnUse" id="color-8"><stop offset="0" stop-color="#ff0000"/><stop offset="1" stop-color="#c30000"/></linearGradient><linearGradient x1="158.33336" y1="284.16668" x2="158.33336" y2="260.7" gradientUnits="userSpaceOnUse" id="color-9"><stop offset="0" stop-color="#ff0000"/><stop offset="1" stop-color="#c30000"/></linearGradient><linearGradient x1="190.7778" y1="284.16668" x2="190.7778" y2="260.7" gradientUnits="userSpaceOnUse" id="color-10"><stop offset="0" stop-color="#ff0000"/><stop offset="1" stop-color="#c30000"/></linearGradient><linearGradient x1="174.65479" y1="283.92859" x2="174.65479" y2="260.46191" gradientUnits="userSpaceOnUse" id="color-11"><stop offset="0" stop-color="#ff0000"/><stop offset="1" stop-color="#c30000"/></linearGradient></defs><g transform="translate(-147.33336,-260.46191)"><g data-paper-data="{&quot;isPaintingLayer&quot;:true}" fill-rule="nonzero" stroke="none" stroke-width="0" stroke-linecap="butt" stroke-linejoin="miter" stroke-miterlimit="10" stroke-dasharray="" stroke-dashoffset="0" style="mix-blend-mode: normal"><path d="M244.83336,307.42859l10.86667,-23.46667l11.13333,23.46667z" data-paper-data="{&quot;index&quot;:null}" fill="url(#color-1)"/><path d="M277.2778,307.42859l10.86666,-23.46666l11.13334,23.46666z" data-paper-data="{&quot;index&quot;:null}" fill="url(#color-2)"/><path d="M364.11907,260.96191l-11.13333,23.46667l-10.86667,-23.46667z" data-paper-data="{&quot;index&quot;:null}" fill="url(#color-3)"/><path d="M383.65479,260.96191l-11.13334,23.46666l-10.86666,-23.46666z" data-paper-data="{&quot;index&quot;:null}" fill="url(#color-4)"/><path d="M402.94051,260.96191l-11.13334,23.46666l-10.86666,-23.46666z" data-paper-data="{&quot;index&quot;:null}" fill="url(#color-5)"/><path d="M422.26195,260.96191l-11.13334,23.46666l-10.86666,-23.46666z" data-paper-data="{&quot;index&quot;:null}" fill="url(#color-6)"/><path d="M441.83337,260.96191l-11.13334,23.46666l-10.86666,-23.46666z" data-paper-data="{&quot;index&quot;:null}" fill="url(#color-7)"/><path d="M261.15479,307.6667l10.86666,-23.46666l11.13334,23.46666z" data-paper-data="{&quot;index&quot;:null}" fill="url(#color-8)"/><path d="M169.33336,260.7l-11.13333,23.46667l-10.86667,-23.46667z" data-paper-data="{&quot;index&quot;:null}" fill="url(#color-9)"/><path d="M201.7778,260.7l-11.13334,23.46666l-10.86666,-23.46666z" data-paper-data="{&quot;index&quot;:null}" fill="url(#color-10)"/><path d="M185.65479,260.46191l-11.13334,23.46666l-10.86666,-23.46666z" data-paper-data="{&quot;index&quot;:null}" fill="url(#color-11)"/></g></g></svg>