<svg version="1.1" xmlns="http://www.w3.org/2000/svg" xmlns:xlink="http://www.w3.org/1999/xlink" width="40.25" height="40.15" viewBox="0,0,40.25,40.15"><g transform="translate(-219.875,-159.925)"><g data-paper-data="{&quot;isPaintingLayer&quot;:true}" fill="#fffe00" fill-rule="nonzero" stroke-linecap="butt" stroke-linejoin="miter" stroke-miterlimit="10" stroke-dasharray="" stroke-dashoffset="0" style="mix-blend-mode: normal"><g stroke="#000000" stroke-width="2"><path d="M224.9,180c0,-8.3395 6.7605,-15.1 15.1,-15.1c8.3395,0 15.1,6.7605 15.1,15.1c0,8.3395 -6.7605,15.1 -15.1,15.1c-8.3395,0 -15.1,-6.7605 -15.1,-15.1zM239.95,189.85c5.52284,0 10,-4.47716 10,-10c0,-5.52284 -4.47716,-10 -10,-10c-5.52285,0 -10,4.47716 -10,10c0,5.52284 4.47715,10 10,10z"/><path d="M220.875,182.425v-4.85h38.25v4.85z"/><path d="M237.575,160.925h4.85v38.15h-4.85z"/></g><g stroke-width="0"><path d="M224.9,180c0,-8.3395 6.7605,-15.1 15.1,-15.1c8.3395,0 15.1,6.7605 15.1,15.1c0,8.3395 -6.7605,15.1 -15.1,15.1c-8.3395,0 -15.1,-6.7605 -15.1,-15.1zM239.95,189.85c5.52284,0 10,-4.47716 10,-10c0,-5.52284 -4.47716,-10 -10,-10c-5.52285,0 -10,4.47716 -10,10c0,5.52284 4.47715,10 10,10z" stroke="#000000"/><path d="M220.875,182.425v-4.85h38.25v4.85z" stroke="none"/><path d="M237.575,160.925h4.85v38.15h-4.85z" stroke="none"/></g></g></g></svg>