<svg version="1.1" xmlns="http://www.w3.org/2000/svg" xmlns:xlink="http://www.w3.org/1999/xlink" width="121.22388" height="68.47762" viewBox="0,0,121.22388,68.47762"><g transform="translate(-179.38806,-145.76119)"><g data-paper-data="{&quot;isPaintingLayer&quot;:true}" fill-rule="nonzero" stroke-linecap="butt" stroke-linejoin="miter" stroke-miterlimit="10" stroke-dasharray="" stroke-dashoffset="0" style="mix-blend-mode: normal"><path d="M220.66694,198.34127c0,0 -21.58726,-0.09481 -21.73478,-18.00671c-0.15206,-18.46362 21.73478,-18.67589 21.73478,-18.67589h40.2037c0,0 20.1111,1.13877 20.19798,18.23681c-0.14067,18.59469 -20.19798,18.4458 -20.19798,18.4458z" data-paper-data="{&quot;index&quot;:null}" fill="#2fd03a" stroke="#000000" stroke-width="3"/><path d="M262.26331,193.28762c-7.21439,0 -13.06283,-5.84843 -13.06283,-13.06283c0,-7.21439 5.84843,-13.06283 13.06283,-13.06283c7.2144,0 13.06282,5.84843 13.06282,13.06283c0,7.21439 -5.84842,13.06283 -13.06282,13.06283z" data-paper-data="{&quot;index&quot;:null}" fill="#17661d" stroke="none" stroke-width="0"/><text transform="translate(252.49713,185.14711) scale(0.34427,0.34427)" font-size="40" xml:space="preserve" fill="#2fd03a" fill-rule="nonzero" stroke="none" stroke-width="1" stroke-linecap="butt" stroke-linejoin="miter" stroke-miterlimit="10" stroke-dasharray="" stroke-dashoffset="0" font-family="Sans Serif" font-weight="normal" text-anchor="start" style="mix-blend-mode: normal"><tspan x="0" dy="0">On</tspan></text><text transform="translate(201.00981,183.24651) scale(0.23814,0.23814)" font-size="40" xml:space="preserve" data-paper-data="{&quot;index&quot;:null}" fill="#17661d" fill-rule="nonzero" stroke="none" stroke-width="1" stroke-linecap="butt" stroke-linejoin="miter" stroke-miterlimit="10" stroke-dasharray="" stroke-dashoffset="0" font-family="Sans Serif" font-weight="normal" text-anchor="start" style="mix-blend-mode: normal"><tspan x="0" dy="0">Stopwatch</tspan></text><path d="M179.38806,214.23881v-68.47761h121.22388v68.47761z" data-paper-data="{&quot;index&quot;:null}" fill="none" stroke="none" stroke-width="0"/><path d="M179.38806,214.23882v-68.47761h121.22388v68.47761z" data-paper-data="{&quot;index&quot;:null}" fill="none" stroke="none" stroke-width="0"/></g></g></svg>