<svg version="1.1" xmlns="http://www.w3.org/2000/svg" xmlns:xlink="http://www.w3.org/1999/xlink" width="60.71429" height="56.71429" viewBox="0,0,60.71429,56.71429"><g transform="translate(-209.64288,-151.64288)"><g data-paper-data="{&quot;isPaintingLayer&quot;:true}" fill-rule="nonzero" stroke-linejoin="miter" stroke-miterlimit="10" stroke-dasharray="" stroke-dashoffset="0" style="mix-blend-mode: normal"><path d="M223.81407,180.08215c0,-10.07262 5.81734,-18.06483 13.38753,-18.23809c4.02114,-0.09203 5.93505,-0.16431 5.93505,-0.16431l-0.19648,36.49874c0,0 -1.14325,0.14177 -5.73858,0.14177c-7.39373,0 -13.38753,-8.16548 -13.38753,-18.23811z" fill="#ff00de" stroke="#000000" stroke-width="2" stroke-linecap="butt"/><path d="M229.41087,180.08215c0,-10.07262 5.99379,-18.23809 13.38753,-18.23809c7.39373,0 13.38754,8.16546 13.38754,18.23809c0,10.07262 -5.99381,18.23811 -13.38754,18.23811c-7.39373,0 -13.38753,-8.16548 -13.38753,-18.23811z" fill="#ff00de" stroke="#000000" stroke-width="2" stroke-linecap="butt"/><path d="M238.09811,182.40718h2.5672v3.35009c0,0 -0.03049,3.62004 -2.88246,3.6814c-2.91459,0.06272 -3.08063,-3.6814 -3.08063,-3.6814v-10.86016c0,0 -0.06502,-4.16885 3.03559,-4.17226c2.75645,-0.00304 2.7023,4.17226 2.7023,4.17226" fill="none" stroke="#940080" stroke-width="2" stroke-linecap="round"/><path d="M248.3275,182.40718h2.5672v3.35009c0,0 -0.0305,3.62007 -2.88247,3.68142c-2.9146,0.0627 -3.08064,-3.68142 -3.08064,-3.68142v-10.86015c0,0 -0.06502,-4.16887 3.03559,-4.17227c2.75645,-0.00303 2.7023,4.17227 2.7023,4.17227" fill="none" stroke="#940080" stroke-width="2" stroke-linecap="round"/><path d="M209.64289,208.35718v-56.71429h60.71429v56.71429z" fill="none" stroke="none" stroke-width="0" stroke-linecap="butt"/></g></g></svg>