<svg version="1.1" xmlns="http://www.w3.org/2000/svg" xmlns:xlink="http://www.w3.org/1999/xlink" width="53.39545" height="48.48593" viewBox="0,0,53.39545,48.48593"><g transform="translate(-213.21741,-155.75703)"><g data-paper-data="{&quot;isPaintingLayer&quot;:true}" fill-rule="nonzero" stroke="#000000" stroke-width="2.5" stroke-linecap="butt" stroke-linejoin="miter" stroke-miterlimit="10" stroke-dasharray="" stroke-dashoffset="0" style="mix-blend-mode: normal"><path d="M214.08438,186.79342l0.6721,-8.34105c0,0 12.02576,0.34174 18.23365,3.39379c5.86574,2.88384 10.37408,9.01438 10.37408,9.01438l-5.48028,3.79138c0,0 -4.88142,-4.61154 -9.7564,-6.28358c-5.46708,-1.87513 -14.04316,-1.57492 -14.04316,-1.57492z" fill="#ffffff"/><path d="M240.54652,157.01381c22.31488,-0.3599 21.24034,13.69178 24.81634,26.9533c1.78045,6.60278 -1.30975,12.0635 -1.30975,12.0635l-8.63709,0.72351c0,0 -0.8077,-15.72708 -4.01896,-16.06347c-3.0574,-0.32028 -8.23104,9.82522 -8.23104,9.82522c0,0 -4.77548,-6.13593 -9.85527,-8.45937c-7.101,-3.24792 -18.6214,-4.17307 -18.6214,-4.17307c0,0 3.65288,-20.5115 25.85717,-20.86962z" fill="#ff0000"/><path d="M255.02272,198.13311c0,-2.68403 2.17584,-4.85986 4.85986,-4.85986c2.68403,0 4.85986,2.17584 4.85986,4.85986c0,2.68403 -2.17584,4.85986 -4.85986,4.85986c-2.68403,0 -4.85986,-2.17584 -4.85986,-4.85986z" fill="#ffffff"/></g></g></svg>