<svg version="1.1" xmlns="http://www.w3.org/2000/svg" xmlns:xlink="http://www.w3.org/1999/xlink" width="506.70012" height="402.6845" viewBox="0,0,506.70012,402.6845"><defs><linearGradient x1="451.02095" y1="52.63009" x2="480.62585" y2="52.63009" gradientUnits="userSpaceOnUse" id="color-1"><stop offset="0" stop-color="#000000" stop-opacity="0"/><stop offset="1" stop-color="#000000"/></linearGradient></defs><g transform="translate(8.17363,11.3991)"><g data-paper-data="{&quot;isPaintingLayer&quot;:true}" fill-rule="nonzero" stroke="none" stroke-width="0" stroke-linecap="butt" stroke-linejoin="miter" stroke-miterlimit="10" stroke-dasharray="" stroke-dashoffset="0" style="mix-blend-mode: normal"><path d="M17.20306,363.2854v-37.5h53v37.5z" fill="#aaaaaa"/><path d="M423.20307,204.2854v-126h31v126z" fill="#ff0000"/><path d="M459.41311,83.20918l-30.33333,-82h66.66667v82z" fill="#585858"/><path d="M-8.17363,121.71401v-126.75h154l-49,126.75z" fill="#000000"/><path d="M62.91668,322.81401v-28.33333h157v28.33333z" fill="#ff0000"/><path d="M450.07481,391.2854v-319.70588h42.00497v319.70588z" data-paper-data="{&quot;index&quot;:null}" fill="#000000"/><path d="M400.61476,319.60487v50.86154h-340.7329v-50.86154z" data-paper-data="{&quot;index&quot;:null}" fill="#000000"/><path d="M23.45132,114.43607v252.12546h-24.8783v-252.12546z" data-paper-data="{&quot;index&quot;:null}" fill="#000000"/><path d="M290.82638,216.21401v-14h196v14z" fill="#000000"/><path d="M195.50495,122.14262v-34.35714h35.07143v34.35714z" fill="#000000"/><path d="M134.20306,27.70918v-38.5h352v38.5z" fill="#000000"/><path d="M230.63197,121.00082v-32.61994h96.52821v32.61995z" fill="#5479ff"/><path d="M94.88441,217.11632v-32.61994h102.52821v32.61994z" fill="#ff5d5d"/><path d="M196.50521,121.45892h32.61994v201.27821h-32.61994z" fill="#ff5d5d"/><path d="M63.83854,120.87558h32.61994v96.52821h-32.61994z" fill="#ff5d5d"/><path d="M450.87271,168.2883h-32.61994v-96.52821h32.61995z" fill="#5479ff"/><path d="M451.02095,90.49682v-75.73346h29.6049v75.73346z" fill="url(#color-1)"/><path d="M477.87191,89.11985v-100.51895h20.65458v100.51895z" fill="#000000"/></g></g></svg>