<svg version="1.1" xmlns="http://www.w3.org/2000/svg" xmlns:xlink="http://www.w3.org/1999/xlink" width="122.5" height="122.5" viewBox="0,0,122.5,122.5"><defs><radialGradient cx="172.5" cy="253.25" r="61.25" gradientUnits="userSpaceOnUse" id="color-1"><stop offset="0" stop-color="#fff987"/><stop offset="1" stop-color="#fff987" stop-opacity="0"/></radialGradient><linearGradient x1="172.5" y1="241.84091" x2="172.5" y2="264.65909" gradientUnits="userSpaceOnUse" id="color-2"><stop offset="0" stop-color="#fff326"/><stop offset="1" stop-color="#ffffff"/></linearGradient><radialGradient cx="172.31532" cy="241.82262" r="3.94063" gradientUnits="userSpaceOnUse" id="color-3"><stop offset="0" stop-color="#fff326" stop-opacity="0"/><stop offset="1" stop-color="#fff326" stop-opacity="0"/></radialGradient></defs><g transform="translate(-111.25,-192)"><g data-paper-data="{&quot;isPaintingLayer&quot;:true}" fill-rule="nonzero" stroke-linejoin="miter" stroke-miterlimit="10" stroke-dasharray="" stroke-dashoffset="0" style="mix-blend-mode: normal"><g><path d="M111.25,253.25c0,-33.82744 27.42256,-61.25 61.25,-61.25c33.82744,0 61.25,27.42256 61.25,61.25c0,33.82744 -27.42256,61.25 -61.25,61.25c-33.82744,0 -61.25,-27.42256 -61.25,-61.25z" fill="url(#color-1)" stroke="none" stroke-width="0" stroke-linecap="butt"/><path d="M164.9722,258.29545c-0.99451,-3.85994 0,-16.45454 0,-16.45454h14.90909c0,0 1.32416,12.71326 0,16.45454c-1.26205,3.5658 -3.24242,6.36364 -7.45455,6.36364c-4.12121,0 -6.85309,-4.02925 -7.45454,-6.36364z" fill="url(#color-2)" stroke="#000000" stroke-width="2" stroke-linecap="butt"/><path d="M164.79038,256.47727h15.27273" fill="none" stroke="#000000" stroke-width="2" stroke-linecap="round"/><path d="M172.5,264.20455v-21.90909" fill="none" stroke="#000000" stroke-width="2" stroke-linecap="round"/><path d="M168.3747,241.82262c0,0 -0.17343,-4.95297 3.94063,-5.08333c3.85534,-0.12216 3.94063,5.08333 3.94063,5.08333z" fill="url(#color-3)" stroke="#000000" stroke-width="2" stroke-linecap="butt"/><path d="M171.20833,238.76905c0,-0.62132 0.50368,-1.125 1.125,-1.125c0.62132,0 1.125,0.50368 1.125,1.125c0,0.62132 -0.50368,1.125 -1.125,1.125c-0.62132,0 -1.125,-0.50368 -1.125,-1.125z" fill="#000000" stroke="none" stroke-width="0" stroke-linecap="butt"/></g></g></g></svg>