<svg version="1.1" xmlns="http://www.w3.org/2000/svg" xmlns:xlink="http://www.w3.org/1999/xlink" width="31.4793" height="31.4793" viewBox="0,0,31.4793,31.4793"><g transform="translate(-224.26035,-164.26035)"><g data-paper-data="{&quot;isPaintingLayer&quot;:true}" fill-rule="nonzero" stroke-linecap="butt" stroke-linejoin="miter" stroke-miterlimit="10" stroke-dasharray="" stroke-dashoffset="0" style="mix-blend-mode: normal"><path d="M225.76035,194.23965v-28.4793h28.4793v28.4793z" fill="#ffffff" stroke="#000000" stroke-width="3"/><g stroke-width="0"><path d="M229.44475,181.85526c-0.15042,-5.82612 4.72457,-10.55263 10.55263,-10.55263c5.82806,0 10.79661,4.72968 10.55263,10.55263c-0.10526,2.51227 -4.56668,2.44737 -10.39474,2.44737c-5.82806,0 -10.65789,-0.40878 -10.71053,-2.44737z" fill="#b0b0b0" stroke="none"/><path d="M233.07633,177.80271c0,-1.49044 1.20824,-2.69868 2.69868,-2.69868c1.49044,0 2.69868,1.20824 2.69868,2.69868c0,1.49044 -1.20824,2.69868 -2.69868,2.69868c-1.49044,0 -2.69868,-1.20824 -2.69868,-2.69868z" fill="#ffffff" stroke="#000000"/><path d="M242.0237,177.80271c0,-1.49043 1.20825,-2.69867 2.69868,-2.69867c1.49043,0 2.69868,1.20824 2.69868,2.69867c0,1.49043 -1.20824,2.69868 -2.69868,2.69868c-1.49043,0 -2.69868,-1.20824 -2.69868,-2.69868z" fill="#ffffff" stroke="#000000"/><path d="M238.62896,188.69737v-6.52632h2.73684v6.52632z" fill="#b0b0b0" stroke="none"/><path d="M243.5237,188.69737v-6.52632h2.73684v6.52632z" fill="#b0b0b0" stroke="none"/><path d="M233.68159,188.69737v-6.52632h2.73684v6.52632z" fill="#b0b0b0" stroke="none"/></g></g></g></svg>