<svg version="1.1" xmlns="http://www.w3.org/2000/svg" xmlns:xlink="http://www.w3.org/1999/xlink" width="406.58708" height="246" viewBox="0,0,406.58708,246"><defs><radialGradient cx="465.00001" cy="105.5" r="103.5" gradientUnits="userSpaceOnUse" id="color-1"><stop offset="0" stop-color="#c4c4c4"/><stop offset="1" stop-color="#989898"/></radialGradient><radialGradient cx="415.25003" cy="142.5" r="52.75" gradientUnits="userSpaceOnUse" id="color-2"><stop offset="0" stop-color="#c4c4c4"/><stop offset="1" stop-color="#989898"/></radialGradient><radialGradient cx="426.00001" cy="235" r="45" gradientUnits="userSpaceOnUse" id="color-3"><stop offset="0" stop-color="#c4c4c4"/><stop offset="1" stop-color="#989898"/></radialGradient><radialGradient cx="228.75005" cy="276.25" r="103.5" gradientUnits="userSpaceOnUse" id="color-4"><stop offset="0" stop-color="#c4c4c4"/><stop offset="1" stop-color="#989898"/></radialGradient><radialGradient cx="271.25003" cy="201.75" r="24" gradientUnits="userSpaceOnUse" id="color-5"><stop offset="0" stop-color="#c4c4c4"/><stop offset="1" stop-color="#989898"/></radialGradient><radialGradient cx="277.50003" cy="107.5" r="41" gradientUnits="userSpaceOnUse" id="color-6"><stop offset="0" stop-color="#c4c4c4"/><stop offset="1" stop-color="#989898"/></radialGradient><radialGradient cx="349.00006" cy="181" r="80.5" gradientUnits="userSpaceOnUse" id="color-7"><stop offset="0" stop-color="#c4c4c4"/><stop offset="1" stop-color="#989898"/></radialGradient><radialGradient cx="167.5" cy="200" r="47.62586" gradientUnits="userSpaceOnUse" id="color-8"><stop offset="0" stop-color="#c4c4c4"/><stop offset="1" stop-color="#989898"/></radialGradient><radialGradient cx="219.50005" cy="140" r="32" gradientUnits="userSpaceOnUse" id="color-9"><stop offset="0" stop-color="#c4c4c4"/><stop offset="1" stop-color="#989898"/></radialGradient><radialGradient cx="335.50003" cy="80" r="32" gradientUnits="userSpaceOnUse" id="color-10"><stop offset="0" stop-color="#c4c4c4"/><stop offset="1" stop-color="#989898"/></radialGradient><radialGradient cx="359.50007" cy="262" r="32" gradientUnits="userSpaceOnUse" id="color-11"><stop offset="0" stop-color="#c4c4c4"/><stop offset="1" stop-color="#989898"/></radialGradient><radialGradient cx="493.50001" cy="210" r="32" gradientUnits="userSpaceOnUse" id="color-12"><stop offset="0" stop-color="#c4c4c4"/><stop offset="1" stop-color="#989898"/></radialGradient></defs><g transform="translate(-118.91294,-48)"><g data-paper-data="{&quot;isPaintingLayer&quot;:true}" fill-rule="nonzero" stroke-linejoin="miter" stroke-miterlimit="10" stroke-dasharray="" stroke-dashoffset="0" style="mix-blend-mode: normal"><path d="M495.99446,107.02759l-134.49445,-27.02759" fill="none" stroke="url(#color-1)" stroke-width="10" stroke-linecap="round"/><path d="M468.00003,191.75l-105.5,-98.5" fill="none" stroke="url(#color-2)" stroke-width="10" stroke-linecap="round"/><path d="M381.00001,253.25l90,-36.5" fill="none" stroke="url(#color-3)" stroke-width="10" stroke-linecap="round"/><path d="M125.25003,283.75l237,-19.5" fill="none" stroke="url(#color-4)" stroke-width="10" stroke-linecap="round"/><path d="M220.75005,139.75l140.5,126.5" fill="none" stroke="url(#color-5)" stroke-width="10" stroke-linecap="round"/><path d="M334.16673,79.5l-114.66667,60.66667" fill="none" stroke="url(#color-6)" stroke-width="10" stroke-linecap="round"/><path d="M361.50001,261.5l-26.33333,-181.66667" fill="none" stroke="url(#color-7)" stroke-width="10" stroke-linecap="round"/><path d="M205.06679,158.24671l-81.15385,95.25172" fill="none" stroke="url(#color-8)" stroke-width="10" stroke-linecap="round"/><path d="M187.50005,140c0,-17.67311 14.32689,-32 32,-32c17.67311,0 32,14.32689 32,32c0,17.67311 -14.32689,32 -32,32c-17.67311,0 -32,-14.32689 -32,-32z" fill="url(#color-9)" stroke="none" stroke-width="0" stroke-linecap="butt"/><path d="M303.50003,80c0,-17.67311 14.32689,-32 32,-32c17.67311,0 32,14.32689 32,32c0,17.67311 -14.32689,32 -32,32c-17.67311,0 -32,-14.32689 -32,-32z" fill="url(#color-10)" stroke="none" stroke-width="0" stroke-linecap="butt"/><path d="M327.50005,262c0,-17.67311 14.32689,-32 32,-32c17.67311,0 32,14.32689 32,32c0,17.67311 -14.32689,32 -32,32c-17.67311,0 -32,-14.32689 -32,-32z" fill="url(#color-11)" stroke="none" stroke-width="0" stroke-linecap="butt"/><path d="M461.50003,210c0,-17.67311 14.32689,-32 32,-32c17.67311,0 32,14.32689 32,32c0,17.67311 -14.32689,32 -32,32c-17.67311,0 -32,-14.32689 -32,-32z" fill="url(#color-12)" stroke="none" stroke-width="0" stroke-linecap="butt"/></g></g></svg>