<svg version="1.1" xmlns="http://www.w3.org/2000/svg" xmlns:xlink="http://www.w3.org/1999/xlink" width="356.46669" height="818.4977" viewBox="0,0,356.46669,818.4977"><defs><linearGradient x1="446.84894" y1="-107.98215" x2="470.31558" y2="-107.98215" gradientUnits="userSpaceOnUse" id="color-1"><stop offset="0" stop-color="#ff0000"/><stop offset="1" stop-color="#c30000"/></linearGradient><linearGradient x1="446.84894" y1="-128.98215" x2="470.31558" y2="-128.98215" gradientUnits="userSpaceOnUse" id="color-2"><stop offset="0" stop-color="#ff0000"/><stop offset="1" stop-color="#c30000"/></linearGradient><linearGradient x1="446.84894" y1="-149.98215" x2="470.31558" y2="-149.98215" gradientUnits="userSpaceOnUse" id="color-3"><stop offset="0" stop-color="#ff0000"/><stop offset="1" stop-color="#c30000"/></linearGradient><linearGradient x1="446.84894" y1="-170.98215" x2="470.31558" y2="-170.98215" gradientUnits="userSpaceOnUse" id="color-4"><stop offset="0" stop-color="#ff0000"/><stop offset="1" stop-color="#c30000"/></linearGradient><linearGradient x1="137.31555" y1="-169.98219" x2="113.84889" y2="-169.98219" gradientUnits="userSpaceOnUse" id="color-5"><stop offset="0" stop-color="#ff0000"/><stop offset="1" stop-color="#c30000"/></linearGradient><linearGradient x1="137.31555" y1="-148.98218" x2="113.84889" y2="-148.98218" gradientUnits="userSpaceOnUse" id="color-6"><stop offset="0" stop-color="#ff0000"/><stop offset="1" stop-color="#c30000"/></linearGradient><linearGradient x1="330.84889" y1="625.51555" x2="354.31555" y2="625.51555" gradientUnits="userSpaceOnUse" id="color-7"><stop offset="0" stop-color="#ff0000"/><stop offset="1" stop-color="#c30000"/></linearGradient><linearGradient x1="330.84889" y1="604.51555" x2="354.31555" y2="604.51555" gradientUnits="userSpaceOnUse" id="color-8"><stop offset="0" stop-color="#ff0000"/><stop offset="1" stop-color="#c30000"/></linearGradient><linearGradient x1="330.84889" y1="583.51555" x2="354.31555" y2="583.51555" gradientUnits="userSpaceOnUse" id="color-9"><stop offset="0" stop-color="#ff0000"/><stop offset="1" stop-color="#c30000"/></linearGradient><linearGradient x1="330.84889" y1="562.51555" x2="354.31555" y2="562.51555" gradientUnits="userSpaceOnUse" id="color-10"><stop offset="0" stop-color="#ff0000"/><stop offset="1" stop-color="#c30000"/></linearGradient><linearGradient x1="330.84889" y1="541.51555" x2="354.31555" y2="541.51555" gradientUnits="userSpaceOnUse" id="color-11"><stop offset="0" stop-color="#ff0000"/><stop offset="1" stop-color="#c30000"/></linearGradient><linearGradient x1="330.84889" y1="520.51555" x2="354.31555" y2="520.51555" gradientUnits="userSpaceOnUse" id="color-12"><stop offset="0" stop-color="#ff0000"/><stop offset="1" stop-color="#c30000"/></linearGradient><linearGradient x1="358.8489" y1="290.0178" x2="382.31557" y2="290.0178" gradientUnits="userSpaceOnUse" id="color-13"><stop offset="0" stop-color="#ff0000"/><stop offset="1" stop-color="#c30000"/></linearGradient><linearGradient x1="358.8489" y1="269.01781" x2="382.31557" y2="269.01781" gradientUnits="userSpaceOnUse" id="color-14"><stop offset="0" stop-color="#ff0000"/><stop offset="1" stop-color="#c30000"/></linearGradient><linearGradient x1="358.8489" y1="248.01782" x2="382.31557" y2="248.01782" gradientUnits="userSpaceOnUse" id="color-15"><stop offset="0" stop-color="#ff0000"/><stop offset="1" stop-color="#c30000"/></linearGradient><linearGradient x1="358.8489" y1="227.01781" x2="382.31555" y2="227.01781" gradientUnits="userSpaceOnUse" id="color-16"><stop offset="0" stop-color="#ff0000"/><stop offset="1" stop-color="#c30000"/></linearGradient><linearGradient x1="358.8489" y1="206.01781" x2="382.31557" y2="206.01781" gradientUnits="userSpaceOnUse" id="color-17"><stop offset="0" stop-color="#ff0000"/><stop offset="1" stop-color="#c30000"/></linearGradient><linearGradient x1="358.8489" y1="185.01781" x2="382.31557" y2="185.01781" gradientUnits="userSpaceOnUse" id="color-18"><stop offset="0" stop-color="#ff0000"/><stop offset="1" stop-color="#c30000"/></linearGradient><linearGradient x1="358.8489" y1="164.01781" x2="382.31557" y2="164.01781" gradientUnits="userSpaceOnUse" id="color-19"><stop offset="0" stop-color="#ff0000"/><stop offset="1" stop-color="#c30000"/></linearGradient><linearGradient x1="358.8489" y1="143.01781" x2="382.31557" y2="143.01781" gradientUnits="userSpaceOnUse" id="color-20"><stop offset="0" stop-color="#ff0000"/><stop offset="1" stop-color="#c30000"/></linearGradient><linearGradient x1="272.31556" y1="29.01781" x2="248.84889" y2="29.01781" gradientUnits="userSpaceOnUse" id="color-21"><stop offset="0" stop-color="#ff0000"/><stop offset="1" stop-color="#c30000"/></linearGradient><linearGradient x1="272.31556" y1="50.76781" x2="248.84889" y2="50.7678" gradientUnits="userSpaceOnUse" id="color-22"><stop offset="0" stop-color="#ff0000"/><stop offset="1" stop-color="#c30000"/></linearGradient><linearGradient x1="272.31556" y1="72.76779" x2="248.84889" y2="72.76779" gradientUnits="userSpaceOnUse" id="color-23"><stop offset="0" stop-color="#ff0000"/><stop offset="1" stop-color="#c30000"/></linearGradient><linearGradient x1="272.31556" y1="94.5178" x2="248.8489" y2="94.5178" gradientUnits="userSpaceOnUse" id="color-24"><stop offset="0" stop-color="#ff0000"/><stop offset="1" stop-color="#c30000"/></linearGradient><linearGradient x1="272.56555" y1="116.7678" x2="249.09889" y2="116.7678" gradientUnits="userSpaceOnUse" id="color-25"><stop offset="0" stop-color="#ff0000"/><stop offset="1" stop-color="#c30000"/></linearGradient><linearGradient x1="272.31555" y1="139.51781" x2="248.84889" y2="139.51781" gradientUnits="userSpaceOnUse" id="color-26"><stop offset="0" stop-color="#ff0000"/><stop offset="1" stop-color="#c30000"/></linearGradient></defs><g transform="translate(-113.84889,181.98215)"><g data-paper-data="{&quot;isPaintingLayer&quot;:true}" fill-rule="nonzero" stroke="none" stroke-width="0" stroke-linecap="butt" stroke-linejoin="miter" stroke-miterlimit="10" stroke-dasharray="" stroke-dashoffset="0" style="mix-blend-mode: normal"><path d="M470.31555,-96.98215l-23.46666,-10.86666l23.46666,-11.13334z" fill="url(#color-1)"/><path d="M470.31558,-117.98215l-23.46666,-10.86666l23.46666,-11.13334z" fill="url(#color-2)"/><path d="M470.31558,-138.98215l-23.46666,-10.86666l23.46666,-11.13334z" fill="url(#color-3)"/><path d="M470.31555,-159.98215l-23.46666,-10.86666l23.46666,-11.13334z" fill="url(#color-4)"/><path d="M113.84889,-180.98219l23.46667,10.86667l-23.46667,11.13333z" fill="url(#color-5)"/><path d="M113.84889,-159.98218l23.46666,10.86666l-23.46666,11.13334z" fill="url(#color-6)"/><path d="M354.31555,636.51555l-23.46667,-10.86667l23.46667,-11.13333z" fill="url(#color-7)"/><path d="M354.31555,615.51555l-23.46666,-10.86666l23.46666,-11.13334z" fill="url(#color-8)"/><path d="M354.31555,594.51555l-23.46666,-10.86666l23.46666,-11.13334z" fill="url(#color-9)"/><path d="M354.31555,573.51555l-23.46666,-10.86666l23.46666,-11.13334z" fill="url(#color-10)"/><path d="M354.31555,552.51555l-23.46666,-10.86666l23.46666,-11.13334z" fill="url(#color-11)"/><path d="M354.31555,531.51555l-23.46666,-10.86666l23.46666,-11.13334z" fill="url(#color-12)"/><path d="M382.31557,301.0178l-23.46666,-10.86666l23.46666,-11.13334z" fill="url(#color-13)"/><path d="M382.31557,280.01781l-23.46666,-10.86666l23.46666,-11.13334z" fill="url(#color-14)"/><path d="M382.31557,259.01782l-23.46667,-10.86667l23.46667,-11.13333z" fill="url(#color-15)"/><path d="M382.31557,238.0178l-23.46666,-10.86666l23.46666,-11.13334z" fill="url(#color-16)"/><path d="M382.31555,217.01781l-23.46666,-10.86666l23.46666,-11.13334z" fill="url(#color-17)"/><path d="M382.31557,196.01781l-23.46666,-10.86666l23.46666,-11.13334z" fill="url(#color-18)"/><path d="M382.31557,175.01781l-23.46666,-10.86666l23.46666,-11.13334z" fill="url(#color-19)"/><path d="M382.31555,154.01781l-23.46666,-10.86666l23.46666,-11.13334z" fill="url(#color-20)"/><path d="M248.84889,18.01781l23.46666,10.86666l-23.46666,11.13334z" fill="url(#color-21)"/><path d="M248.84889,39.76781l23.46666,10.86666l-23.46666,11.13334z" fill="url(#color-22)"/><path d="M248.84889,61.76779l23.46667,10.86667l-23.46667,11.13333z" fill="url(#color-23)"/><path d="M248.84889,83.51781l23.46666,10.86666l-23.46666,11.13334z" fill="url(#color-24)"/><path d="M249.0989,105.7678l23.46666,10.86666l-23.46666,11.13334z" fill="url(#color-25)"/><path d="M248.84889,128.5178l23.46666,10.86666l-23.46666,11.13334z" fill="url(#color-26)"/></g></g></svg>