<svg version="1.1" xmlns="http://www.w3.org/2000/svg" xmlns:xlink="http://www.w3.org/1999/xlink" width="28.33582" height="32.72762" viewBox="0,0,28.33582,32.72762"><g transform="translate(-153.88487,-10.72727)"><g data-paper-data="{&quot;isPaintingLayer&quot;:true}" fill-rule="nonzero" stroke-linejoin="miter" stroke-miterlimit="10" stroke-dasharray="" stroke-dashoffset="0" style="mix-blend-mode: normal"><path d="M154.88487,29.28697c0,-7.27243 5.89546,-13.1679 13.1679,-13.1679c7.27243,0 13.16792,5.89546 13.16792,13.1679c0,7.27243 -5.89548,13.16792 -13.16792,13.16792c-7.27243,0 -13.1679,-5.89548 -13.1679,-13.16792z" fill="#bbbbbb" stroke="#000000" stroke-width="2" stroke-linecap="butt"/><path d="M168.03431,21.84168v-2.8248" fill="none" stroke="#000000" stroke-width="2" stroke-linecap="round"/><path d="M168.07125,39.55707v-2.8248" fill="none" stroke="#000000" stroke-width="2" stroke-linecap="round"/><path d="M160.60748,29.30545h-2.8248" fill="none" stroke="#000000" stroke-width="2" stroke-linecap="round"/><path d="M175.49807,29.2685h2.8248" fill="none" stroke="#000000" stroke-width="2" stroke-linecap="round"/><path d="M173.02215,20.29918l-1.37127,2.46964" fill="none" stroke="#797979" stroke-width="2" stroke-linecap="round"/><path d="M163.0834,38.27477l1.37127,-2.46964" fill="none" stroke="#797979" stroke-width="2" stroke-linecap="round"/><path d="M161.53461,25.68888l-2.46963,-1.37127" fill="none" stroke="#797979" stroke-width="2" stroke-linecap="round"/><path d="M174.57093,32.88508l2.46964,1.37127" fill="none" stroke="#797979" stroke-width="2" stroke-linecap="round"/><path d="M177.07211,24.37507l-2.4832,1.34656" fill="none" stroke="#797979" stroke-width="2" stroke-linecap="round"/><path d="M161.51665,32.85232l-2.4832,1.34656" fill="none" stroke="#797979" stroke-width="2" stroke-linecap="round"/><path d="M163.14088,20.26764l1.34656,2.4832" fill="none" stroke="#797979" stroke-width="2" stroke-linecap="round"/><path d="M171.61812,35.82311l1.34656,2.4832" fill="none" stroke="#797979" stroke-width="2" stroke-linecap="round"/><path d="M172.60152,20.00579c0,0 0.85155,11.83978 -4.39897,9.34936c-5.25242,-2.49131 4.39897,-9.34936 4.39897,-9.34936z" fill="#000000" stroke="none" stroke-width="0" stroke-linecap="butt"/><path d="M167.93939,11.90909v3.90909" fill="none" stroke="#000000" stroke-width="2" stroke-linecap="round"/><path d="M171.0303,11.72727h-6.09091" fill="none" stroke="#000000" stroke-width="2" stroke-linecap="round"/></g></g></svg>