<svg version="1.1" xmlns="http://www.w3.org/2000/svg" xmlns:xlink="http://www.w3.org/1999/xlink" width="60.71429" height="56.71429" viewBox="0,0,60.71429,56.71429"><g transform="translate(-209.64288,-151.64288)"><g data-paper-data="{&quot;isPaintingLayer&quot;:true}" fill-rule="nonzero" stroke-linejoin="miter" stroke-miterlimit="10" stroke-dasharray="" stroke-dashoffset="0" style="mix-blend-mode: normal"><path d="M209.64289,208.35718v-56.71429h60.71429v56.71429z" fill="none" stroke="none" stroke-width="0" stroke-linecap="butt"/><path d="M248.0254,180.08215c0,10.07263 -2.05569,18.23811 -4.59152,18.23811c-1.57606,0 -6.19532,-0.14177 -6.19532,-0.14177l-0.06739,-36.49874c0,0 4.88357,0.07228 6.2627,0.16431c2.59635,0.17326 4.59152,8.16547 4.59152,18.23809z" data-paper-data="{&quot;index&quot;:null}" fill="#ffffff" stroke="#000000" stroke-width="2" stroke-linecap="butt"/><path d="M236.56613,198.32026c-2.53583,0 -4.59153,-8.16549 -4.59153,-18.23811c0,-10.07263 2.0557,-18.23809 4.59153,-18.23809c2.53583,0 4.59152,8.16547 4.59152,18.23809c0,10.07263 -2.05569,18.23811 -4.59152,18.23811z" data-paper-data="{&quot;index&quot;:null}" fill="#ffffff" stroke="#000000" stroke-width="2" stroke-linecap="butt"/><path d="M235.35446,176.35035c0,0 -0.02502,-4.16887 1.16807,-4.17227c1.06065,-0.00303 1.0401,4.13115 1.03982,4.17227c-0.01834,2.68661 -1.10058,2.24468 -1.09881,4.79971c0.00131,1.88081 0,3.46818 0,3.46818" data-paper-data="{&quot;index&quot;:null}" fill="none" stroke="#adadad" stroke-width="2" stroke-linecap="round"/><path d="M235.63462,188.03769c0,-0.53947 0.38557,-0.9768 0.86119,-0.9768c0.47564,0 0.86119,0.43733 0.86119,0.9768c0,0.53947 -0.38557,0.9768 -0.86119,0.9768c-0.47564,0 -0.86119,-0.43733 -0.86119,-0.9768z" data-paper-data="{&quot;index&quot;:null}" fill="#adadad" stroke="none" stroke-width="0" stroke-linecap="butt"/></g></g></svg>