<svg version="1.1" xmlns="http://www.w3.org/2000/svg" xmlns:xlink="http://www.w3.org/1999/xlink" width="121.22388" height="68.47762" viewBox="0,0,121.22388,68.47762"><g transform="translate(-179.38806,-145.7612)"><g data-paper-data="{&quot;isPaintingLayer&quot;:true}" fill-rule="nonzero" stroke-linecap="butt" stroke-linejoin="miter" stroke-miterlimit="10" stroke-dasharray="" stroke-dashoffset="0" style="mix-blend-mode: normal"><path d="M220.66694,198.3413c0,0 -21.58726,-0.09481 -21.73478,-18.00671c-0.15206,-18.46362 21.73478,-18.67589 21.73478,-18.67589h40.2037c0,0 20.1111,1.13876 20.19798,18.2368c-0.14066,18.59469 -20.19798,18.4458 -20.19798,18.4458z" data-paper-data="{&quot;index&quot;:null}" fill="#838383" stroke="#4b4b4b" stroke-width="3"/><path d="M217.26331,193.28764c-7.2144,0 -13.06282,-5.84843 -13.06282,-13.06282c0,-7.2144 5.84843,-13.06282 13.06282,-13.06282c7.2144,0 13.06282,5.84843 13.06282,13.06282c0,7.2144 -5.84843,13.06282 -13.06282,13.06282z" data-paper-data="{&quot;index&quot;:null}" fill="#666666" stroke="none" stroke-width="0"/><text transform="translate(206.29712,185.54713) scale(0.34427,0.34427)" font-size="40" xml:space="preserve" fill="#838383" fill-rule="nonzero" stroke="none" stroke-width="1" stroke-linecap="butt" stroke-linejoin="miter" stroke-miterlimit="10" stroke-dasharray="" stroke-dashoffset="0" font-family="Sans Serif" font-weight="normal" text-anchor="start" style="mix-blend-mode: normal"><tspan x="0" dy="0">Off</tspan></text><path d="M179.38806,214.23881v-68.47761h121.22388v68.47761z" data-paper-data="{&quot;index&quot;:null}" fill="none" stroke="none" stroke-width="0"/><path d="M179.38806,214.23882v-68.47761h121.22388v68.47761z" data-paper-data="{&quot;index&quot;:null}" fill="none" stroke="none" stroke-width="0"/><text transform="translate(231.58018,176.59496) scale(0.31883,0.31177)" font-size="40" xml:space="preserve" data-paper-data="{&quot;index&quot;:null}" fill="#666666" fill-rule="nonzero" stroke="none" stroke-width="1" stroke-linecap="butt" stroke-linejoin="miter" stroke-miterlimit="10" stroke-dasharray="" stroke-dashoffset="0" font-family="Sans Serif" font-weight="normal" text-anchor="start" style="mix-blend-mode: normal"><tspan x="0" dy="0">Quick</tspan><tspan x="0" dy="48px">reset</tspan></text></g></g></svg>