<svg version="1.1" xmlns="http://www.w3.org/2000/svg" xmlns:xlink="http://www.w3.org/1999/xlink" width="242.28589" height="399.49775" viewBox="0,0,242.28589,399.49775"><defs><linearGradient x1="145.31555" y1="-11.23521" x2="121.84889" y2="-11.23521" gradientUnits="userSpaceOnUse" id="color-1"><stop offset="0" stop-color="#ff0000"/><stop offset="1" stop-color="#c30000"/></linearGradient><linearGradient x1="145.31555" y1="9.7648" x2="121.84889" y2="9.7648" gradientUnits="userSpaceOnUse" id="color-2"><stop offset="0" stop-color="#ff0000"/><stop offset="1" stop-color="#c30000"/></linearGradient><linearGradient x1="145.31555" y1="30.76479" x2="121.84889" y2="30.76479" gradientUnits="userSpaceOnUse" id="color-3"><stop offset="0" stop-color="#ff0000"/><stop offset="1" stop-color="#c30000"/></linearGradient><linearGradient x1="145.31555" y1="51.76479" x2="121.84889" y2="51.76479" gradientUnits="userSpaceOnUse" id="color-4"><stop offset="0" stop-color="#ff0000"/><stop offset="1" stop-color="#c30000"/></linearGradient><linearGradient x1="145.31555" y1="72.76479" x2="121.84889" y2="72.76479" gradientUnits="userSpaceOnUse" id="color-5"><stop offset="0" stop-color="#ff0000"/><stop offset="1" stop-color="#c30000"/></linearGradient><linearGradient x1="145.31555" y1="93.76479" x2="121.84889" y2="93.76479" gradientUnits="userSpaceOnUse" id="color-6"><stop offset="0" stop-color="#ff0000"/><stop offset="1" stop-color="#c30000"/></linearGradient><linearGradient x1="145.31555" y1="114.76479" x2="121.84889" y2="114.76479" gradientUnits="userSpaceOnUse" id="color-7"><stop offset="0" stop-color="#ff0000"/><stop offset="1" stop-color="#c30000"/></linearGradient><linearGradient x1="145.31555" y1="135.7648" x2="121.84889" y2="135.7648" gradientUnits="userSpaceOnUse" id="color-8"><stop offset="0" stop-color="#ff0000"/><stop offset="1" stop-color="#c30000"/></linearGradient><linearGradient x1="145.31555" y1="156.76481" x2="121.84889" y2="156.76481" gradientUnits="userSpaceOnUse" id="color-9"><stop offset="0" stop-color="#ff0000"/><stop offset="1" stop-color="#c30000"/></linearGradient><linearGradient x1="145.31555" y1="177.76481" x2="121.84889" y2="177.76481" gradientUnits="userSpaceOnUse" id="color-10"><stop offset="0" stop-color="#ff0000"/><stop offset="1" stop-color="#c30000"/></linearGradient><linearGradient x1="145.31555" y1="198.76481" x2="121.84889" y2="198.76481" gradientUnits="userSpaceOnUse" id="color-11"><stop offset="0" stop-color="#ff0000"/><stop offset="1" stop-color="#c30000"/></linearGradient><linearGradient x1="145.31555" y1="219.76479" x2="121.84889" y2="219.76479" gradientUnits="userSpaceOnUse" id="color-12"><stop offset="0" stop-color="#ff0000"/><stop offset="1" stop-color="#c30000"/></linearGradient><linearGradient x1="145.31555" y1="240.26253" x2="121.84889" y2="240.26253" gradientUnits="userSpaceOnUse" id="color-13"><stop offset="0" stop-color="#ff0000"/><stop offset="1" stop-color="#c30000"/></linearGradient><linearGradient x1="145.31555" y1="261.26255" x2="121.84889" y2="261.26255" gradientUnits="userSpaceOnUse" id="color-14"><stop offset="0" stop-color="#ff0000"/><stop offset="1" stop-color="#c30000"/></linearGradient><linearGradient x1="145.31555" y1="282.26255" x2="121.84889" y2="282.26255" gradientUnits="userSpaceOnUse" id="color-15"><stop offset="0" stop-color="#ff0000"/><stop offset="1" stop-color="#c30000"/></linearGradient><linearGradient x1="145.31555" y1="303.26255" x2="121.84889" y2="303.26255" gradientUnits="userSpaceOnUse" id="color-16"><stop offset="0" stop-color="#ff0000"/><stop offset="1" stop-color="#c30000"/></linearGradient><linearGradient x1="145.31555" y1="324.26255" x2="121.84889" y2="324.26255" gradientUnits="userSpaceOnUse" id="color-17"><stop offset="0" stop-color="#ff0000"/><stop offset="1" stop-color="#c30000"/></linearGradient><linearGradient x1="145.31555" y1="345.26255" x2="121.84889" y2="345.26255" gradientUnits="userSpaceOnUse" id="color-18"><stop offset="0" stop-color="#ff0000"/><stop offset="1" stop-color="#c30000"/></linearGradient><linearGradient x1="145.31555" y1="366.26254" x2="121.84889" y2="366.26254" gradientUnits="userSpaceOnUse" id="color-19"><stop offset="0" stop-color="#ff0000"/><stop offset="1" stop-color="#c30000"/></linearGradient><linearGradient x1="340.66812" y1="-11.23521" x2="364.13478" y2="-11.23521" gradientUnits="userSpaceOnUse" id="color-20"><stop offset="0" stop-color="#ff0000"/><stop offset="1" stop-color="#c30000"/></linearGradient><linearGradient x1="340.66812" y1="9.7648" x2="364.13478" y2="9.7648" gradientUnits="userSpaceOnUse" id="color-21"><stop offset="0" stop-color="#ff0000"/><stop offset="1" stop-color="#c30000"/></linearGradient><linearGradient x1="340.66812" y1="30.76479" x2="364.13478" y2="30.76479" gradientUnits="userSpaceOnUse" id="color-22"><stop offset="0" stop-color="#ff0000"/><stop offset="1" stop-color="#c30000"/></linearGradient><linearGradient x1="340.66812" y1="51.76479" x2="364.13478" y2="51.76479" gradientUnits="userSpaceOnUse" id="color-23"><stop offset="0" stop-color="#ff0000"/><stop offset="1" stop-color="#c30000"/></linearGradient><linearGradient x1="340.66812" y1="72.76479" x2="364.13478" y2="72.76479" gradientUnits="userSpaceOnUse" id="color-24"><stop offset="0" stop-color="#ff0000"/><stop offset="1" stop-color="#c30000"/></linearGradient><linearGradient x1="340.66812" y1="93.76479" x2="364.13478" y2="93.76479" gradientUnits="userSpaceOnUse" id="color-25"><stop offset="0" stop-color="#ff0000"/><stop offset="1" stop-color="#c30000"/></linearGradient><linearGradient x1="340.66812" y1="114.76479" x2="364.13478" y2="114.76479" gradientUnits="userSpaceOnUse" id="color-26"><stop offset="0" stop-color="#ff0000"/><stop offset="1" stop-color="#c30000"/></linearGradient><linearGradient x1="340.66812" y1="135.7648" x2="364.13478" y2="135.7648" gradientUnits="userSpaceOnUse" id="color-27"><stop offset="0" stop-color="#ff0000"/><stop offset="1" stop-color="#c30000"/></linearGradient><linearGradient x1="340.66812" y1="156.76481" x2="364.13478" y2="156.76481" gradientUnits="userSpaceOnUse" id="color-28"><stop offset="0" stop-color="#ff0000"/><stop offset="1" stop-color="#c30000"/></linearGradient><linearGradient x1="340.66812" y1="177.76481" x2="364.13478" y2="177.76481" gradientUnits="userSpaceOnUse" id="color-29"><stop offset="0" stop-color="#ff0000"/><stop offset="1" stop-color="#c30000"/></linearGradient><linearGradient x1="340.66812" y1="198.76481" x2="364.13478" y2="198.76481" gradientUnits="userSpaceOnUse" id="color-30"><stop offset="0" stop-color="#ff0000"/><stop offset="1" stop-color="#c30000"/></linearGradient><linearGradient x1="340.66812" y1="219.76479" x2="364.13478" y2="219.76479" gradientUnits="userSpaceOnUse" id="color-31"><stop offset="0" stop-color="#ff0000"/><stop offset="1" stop-color="#c30000"/></linearGradient><linearGradient x1="340.66812" y1="240.26253" x2="364.13478" y2="240.26253" gradientUnits="userSpaceOnUse" id="color-32"><stop offset="0" stop-color="#ff0000"/><stop offset="1" stop-color="#c30000"/></linearGradient><linearGradient x1="340.66812" y1="261.26255" x2="364.13478" y2="261.26255" gradientUnits="userSpaceOnUse" id="color-33"><stop offset="0" stop-color="#ff0000"/><stop offset="1" stop-color="#c30000"/></linearGradient><linearGradient x1="340.66812" y1="282.26255" x2="364.13478" y2="282.26255" gradientUnits="userSpaceOnUse" id="color-34"><stop offset="0" stop-color="#ff0000"/><stop offset="1" stop-color="#c30000"/></linearGradient><linearGradient x1="340.66812" y1="303.26255" x2="364.13478" y2="303.26255" gradientUnits="userSpaceOnUse" id="color-35"><stop offset="0" stop-color="#ff0000"/><stop offset="1" stop-color="#c30000"/></linearGradient><linearGradient x1="340.66812" y1="324.26255" x2="364.13478" y2="324.26255" gradientUnits="userSpaceOnUse" id="color-36"><stop offset="0" stop-color="#ff0000"/><stop offset="1" stop-color="#c30000"/></linearGradient><linearGradient x1="340.66812" y1="345.26255" x2="364.13478" y2="345.26255" gradientUnits="userSpaceOnUse" id="color-37"><stop offset="0" stop-color="#ff0000"/><stop offset="1" stop-color="#c30000"/></linearGradient><linearGradient x1="340.66812" y1="366.26254" x2="364.13478" y2="366.26254" gradientUnits="userSpaceOnUse" id="color-38"><stop offset="0" stop-color="#ff0000"/><stop offset="1" stop-color="#c30000"/></linearGradient><linearGradient x1="333.15145" y1="86.78147" x2="333.15146" y2="110.24813" gradientUnits="userSpaceOnUse" id="color-39"><stop offset="0" stop-color="#ff0000"/><stop offset="1" stop-color="#c30000"/></linearGradient><linearGradient x1="312.15145" y1="86.78147" x2="312.15146" y2="110.24813" gradientUnits="userSpaceOnUse" id="color-40"><stop offset="0" stop-color="#ff0000"/><stop offset="1" stop-color="#c30000"/></linearGradient><linearGradient x1="291.15144" y1="86.78147" x2="291.15145" y2="110.24813" gradientUnits="userSpaceOnUse" id="color-41"><stop offset="0" stop-color="#ff0000"/><stop offset="1" stop-color="#c30000"/></linearGradient><linearGradient x1="270.15143" y1="86.78147" x2="270.15144" y2="110.24813" gradientUnits="userSpaceOnUse" id="color-42"><stop offset="0" stop-color="#ff0000"/><stop offset="1" stop-color="#c30000"/></linearGradient><linearGradient x1="249.15144" y1="86.78147" x2="249.15144" y2="110.24813" gradientUnits="userSpaceOnUse" id="color-43"><stop offset="0" stop-color="#ff0000"/><stop offset="1" stop-color="#c30000"/></linearGradient><linearGradient x1="228.15144" y1="86.78147" x2="228.15144" y2="110.24813" gradientUnits="userSpaceOnUse" id="color-44"><stop offset="0" stop-color="#ff0000"/><stop offset="1" stop-color="#c30000"/></linearGradient><linearGradient x1="207.15145" y1="86.78147" x2="207.15145" y2="110.24813" gradientUnits="userSpaceOnUse" id="color-45"><stop offset="0" stop-color="#ff0000"/><stop offset="1" stop-color="#c30000"/></linearGradient></defs><g transform="translate(-121.84889,22.23521)"><g data-paper-data="{&quot;isPaintingLayer&quot;:true}" fill-rule="nonzero" stroke="none" stroke-width="0" stroke-linecap="butt" stroke-linejoin="miter" stroke-miterlimit="10" stroke-dasharray="" stroke-dashoffset="0" style="mix-blend-mode: normal"><path d="M121.84889,-22.23521l23.46667,10.86667l-23.46667,11.13333z" fill="url(#color-1)"/><path d="M121.84889,-1.2352l23.46666,10.86666l-23.46666,11.13334z" fill="url(#color-2)"/><path d="M121.84889,19.76479l23.46666,10.86666l-23.46666,11.13334z" fill="url(#color-3)"/><path d="M121.84889,40.76479l23.46666,10.86666l-23.46666,11.13334z" fill="url(#color-4)"/><path d="M121.84889,61.76479l23.46666,10.86666l-23.46666,11.13334z" fill="url(#color-5)"/><path d="M121.84889,82.76479l23.46666,10.86666l-23.46666,11.13334z" fill="url(#color-6)"/><path d="M121.84889,103.76479l23.46667,10.86667l-23.46667,11.13333z" fill="url(#color-7)"/><path d="M121.84889,124.7648l23.46666,10.86666l-23.46666,11.13334z" fill="url(#color-8)"/><path d="M121.84889,145.7648l23.46666,10.86666l-23.46666,11.13334z" fill="url(#color-9)"/><path d="M121.84889,166.76481l23.46666,10.86666l-23.46666,11.13334z" fill="url(#color-10)"/><path d="M121.84889,187.76481l23.46666,10.86666l-23.46666,11.13334z" fill="url(#color-11)"/><path d="M121.84889,208.76481l23.46666,10.86666l-23.46666,11.13334z" fill="url(#color-12)"/><path d="M121.84889,229.26253l23.46667,10.86667l-23.46667,11.13333z" fill="url(#color-13)"/><path d="M121.84889,250.26255l23.46666,10.86666l-23.46666,11.13334z" fill="url(#color-14)"/><path d="M121.84889,271.26255l23.46666,10.86666l-23.46666,11.13334z" fill="url(#color-15)"/><path d="M121.84889,292.26255l23.46666,10.86666l-23.46666,11.13334z" fill="url(#color-16)"/><path d="M121.84889,313.26255l23.46666,10.86666l-23.46666,11.13334z" fill="url(#color-17)"/><path d="M121.84889,334.26255l23.46666,10.86666l-23.46666,11.13334z" fill="url(#color-18)"/><path d="M121.84889,355.26254l23.46667,10.86667l-23.46667,11.13333z" fill="url(#color-19)"/><path d="M364.13478,-0.23521l-23.46667,-11.13333l23.46667,-10.86667z" data-paper-data="{&quot;index&quot;:null}" fill="url(#color-20)"/><path d="M364.13478,20.7648l-23.46666,-11.13334l23.46666,-10.86666z" data-paper-data="{&quot;index&quot;:null}" fill="url(#color-21)"/><path d="M364.13478,41.76479l-23.46666,-11.13334l23.46666,-10.86666z" data-paper-data="{&quot;index&quot;:null}" fill="url(#color-22)"/><path d="M364.13478,62.76479l-23.46666,-11.13334l23.46666,-10.86666z" data-paper-data="{&quot;index&quot;:null}" fill="url(#color-23)"/><path d="M364.13478,83.76479l-23.46666,-11.13334l23.46666,-10.86666z" data-paper-data="{&quot;index&quot;:null}" fill="url(#color-24)"/><path d="M364.13478,104.76479l-23.46666,-11.13334l23.46666,-10.86666z" data-paper-data="{&quot;index&quot;:null}" fill="url(#color-25)"/><path d="M364.13478,125.76479l-23.46667,-11.13333l23.46667,-10.86667z" data-paper-data="{&quot;index&quot;:null}" fill="url(#color-26)"/><path d="M364.13478,146.7648l-23.46666,-11.13334l23.46666,-10.86666z" data-paper-data="{&quot;index&quot;:null}" fill="url(#color-27)"/><path d="M364.13478,167.7648l-23.46666,-11.13334l23.46666,-10.86666z" data-paper-data="{&quot;index&quot;:null}" fill="url(#color-28)"/><path d="M364.13478,188.76481l-23.46666,-11.13334l23.46666,-10.86666z" data-paper-data="{&quot;index&quot;:null}" fill="url(#color-29)"/><path d="M364.13478,209.76481l-23.46666,-11.13334l23.46666,-10.86666z" data-paper-data="{&quot;index&quot;:null}" fill="url(#color-30)"/><path d="M364.13478,230.76481l-23.46666,-11.13334l23.46666,-10.86666z" data-paper-data="{&quot;index&quot;:null}" fill="url(#color-31)"/><path d="M364.13478,251.26253l-23.46667,-11.13333l23.46667,-10.86667z" data-paper-data="{&quot;index&quot;:null}" fill="url(#color-32)"/><path d="M364.13478,272.26255l-23.46666,-11.13334l23.46666,-10.86666z" data-paper-data="{&quot;index&quot;:null}" fill="url(#color-33)"/><path d="M364.13478,293.26255l-23.46666,-11.13334l23.46666,-10.86666z" data-paper-data="{&quot;index&quot;:null}" fill="url(#color-34)"/><path d="M364.13478,314.26255l-23.46666,-11.13334l23.46666,-10.86666z" data-paper-data="{&quot;index&quot;:null}" fill="url(#color-35)"/><path d="M364.13478,335.26255l-23.46666,-11.13334l23.46666,-10.86666z" data-paper-data="{&quot;index&quot;:null}" fill="url(#color-36)"/><path d="M364.13478,356.26255l-23.46666,-11.13334l23.46666,-10.86666z" data-paper-data="{&quot;index&quot;:null}" fill="url(#color-37)"/><path d="M364.13478,377.26254l-23.46667,-11.13333l23.46667,-10.86667z" data-paper-data="{&quot;index&quot;:null}" fill="url(#color-38)"/><path d="M322.15146,110.24813l11.13334,-23.46666l10.86666,23.46666z" data-paper-data="{&quot;index&quot;:null}" fill="url(#color-39)"/><path d="M301.15146,110.24813l11.13333,-23.46667l10.86667,23.46667z" data-paper-data="{&quot;index&quot;:null}" fill="url(#color-40)"/><path d="M280.15144,110.24813l11.13334,-23.46666l10.86666,23.46666z" data-paper-data="{&quot;index&quot;:null}" fill="url(#color-41)"/><path d="M259.15144,110.24813l11.13334,-23.46666l10.86666,23.46666z" data-paper-data="{&quot;index&quot;:null}" fill="url(#color-42)"/><path d="M238.15143,110.24813l11.13334,-23.46666l10.86666,23.46666z" data-paper-data="{&quot;index&quot;:null}" fill="url(#color-43)"/><path d="M217.15143,110.24813l11.13334,-23.46666l10.86666,23.46666z" data-paper-data="{&quot;index&quot;:null}" fill="url(#color-44)"/><path d="M196.15143,110.24813l11.13334,-23.46666l10.86666,23.46666z" data-paper-data="{&quot;index&quot;:null}" fill="url(#color-45)"/></g></g></svg>