<svg version="1.1" xmlns="http://www.w3.org/2000/svg" xmlns:xlink="http://www.w3.org/1999/xlink" width="215.73219" height="186.27069" viewBox="0,0,215.73219,186.27069"><defs><linearGradient x1="239.33339" y1="150.97355" x2="239.33339" y2="174.44022" gradientUnits="userSpaceOnUse" id="color-1"><stop offset="0" stop-color="#ff0000"/><stop offset="1" stop-color="#c30000"/></linearGradient><linearGradient x1="348.56558" y1="148.7551" x2="335.34889" y2="148.7551" gradientUnits="userSpaceOnUse" id="color-2"><stop offset="0" stop-color="#ff0000"/><stop offset="1" stop-color="#c30000"/></linearGradient><linearGradient x1="348.56558" y1="167.04375" x2="335.34889" y2="167.04375" gradientUnits="userSpaceOnUse" id="color-3"><stop offset="0" stop-color="#ff0000"/><stop offset="1" stop-color="#c30000"/></linearGradient><linearGradient x1="348.56558" y1="185.85171" x2="335.34889" y2="185.85171" gradientUnits="userSpaceOnUse" id="color-4"><stop offset="0" stop-color="#ff0000"/><stop offset="1" stop-color="#c30000"/></linearGradient><linearGradient x1="430.84892" y1="148.84888" x2="444.06558" y2="148.84888" gradientUnits="userSpaceOnUse" id="color-5"><stop offset="0" stop-color="#ff0000"/><stop offset="1" stop-color="#c30000"/></linearGradient><linearGradient x1="430.84892" y1="166.43222" x2="444.06558" y2="166.43222" gradientUnits="userSpaceOnUse" id="color-6"><stop offset="0" stop-color="#ff0000"/><stop offset="1" stop-color="#c30000"/></linearGradient><linearGradient x1="430.84892" y1="183.51555" x2="444.06558" y2="183.51555" gradientUnits="userSpaceOnUse" id="color-7"><stop offset="0" stop-color="#ff0000"/><stop offset="1" stop-color="#c30000"/></linearGradient><linearGradient x1="430.84892" y1="200.51555" x2="444.06558" y2="200.51555" gradientUnits="userSpaceOnUse" id="color-8"><stop offset="0" stop-color="#ff0000"/><stop offset="1" stop-color="#c30000"/></linearGradient><linearGradient x1="348.56558" y1="79.49485" x2="335.34889" y2="79.49485" gradientUnits="userSpaceOnUse" id="color-9"><stop offset="0" stop-color="#ff0000"/><stop offset="1" stop-color="#c30000"/></linearGradient><linearGradient x1="348.56558" y1="100.8282" x2="335.34889" y2="100.8282" gradientUnits="userSpaceOnUse" id="color-10"><stop offset="0" stop-color="#ff0000"/><stop offset="1" stop-color="#c30000"/></linearGradient><linearGradient x1="430.84892" y1="100.68222" x2="444.06558" y2="100.68222" gradientUnits="userSpaceOnUse" id="color-11"><stop offset="0" stop-color="#ff0000"/><stop offset="1" stop-color="#c30000"/></linearGradient><linearGradient x1="348.56558" y1="36.24486" x2="335.34889" y2="36.24486" gradientUnits="userSpaceOnUse" id="color-12"><stop offset="0" stop-color="#ff0000"/><stop offset="1" stop-color="#c30000"/></linearGradient><linearGradient x1="348.56558" y1="58.0782" x2="335.34889" y2="58.0782" gradientUnits="userSpaceOnUse" id="color-13"><stop offset="0" stop-color="#ff0000"/><stop offset="1" stop-color="#c30000"/></linearGradient></defs><g transform="translate(-228.33339,-25.24486)"><g data-paper-data="{&quot;isPaintingLayer&quot;:true}" fill-rule="nonzero" stroke="none" stroke-width="0" stroke-linecap="butt" stroke-linejoin="miter" stroke-miterlimit="10" stroke-dasharray="" stroke-dashoffset="0" style="mix-blend-mode: normal"><path d="M228.33339,174.44022l10.86667,-23.46667l11.13333,23.46667z" fill="url(#color-1)"/><path d="M335.34889,137.7551l13.21666,10.86666l-13.21666,11.13334z" fill="url(#color-2)"/><path d="M335.34889,156.04375l13.21666,10.86666l-13.21666,11.13334z" fill="url(#color-3)"/><path d="M335.34889,174.85172l13.21666,10.86666l-13.21666,11.13334z" fill="url(#color-4)"/><path d="M444.06558,159.84888l-13.21666,-11.13334l13.21666,-10.86666z" data-paper-data="{&quot;index&quot;:null}" fill="url(#color-5)"/><path d="M444.06558,177.43222l-13.21666,-11.13334l13.21666,-10.86666z" data-paper-data="{&quot;index&quot;:null}" fill="url(#color-6)"/><path d="M444.06558,194.51555l-13.21666,-11.13334l13.21666,-10.86666z" data-paper-data="{&quot;index&quot;:null}" fill="url(#color-7)"/><path d="M444.06558,211.51555l-13.21666,-11.13334l13.21666,-10.86666z" data-paper-data="{&quot;index&quot;:null}" fill="url(#color-8)"/><path d="M335.34889,68.49485l13.21666,10.86666l-13.21666,11.13334z" fill="url(#color-9)"/><path d="M335.34889,89.8282l13.21666,10.86666l-13.21666,11.13334z" fill="url(#color-10)"/><path d="M444.06558,111.68222l-13.21666,-11.13334l13.21666,-10.86666z" data-paper-data="{&quot;index&quot;:null}" fill="url(#color-11)"/><path d="M335.34889,25.24486l13.21666,10.86666l-13.21666,11.13334z" fill="url(#color-12)"/><path d="M335.34889,47.0782l13.21666,10.86666l-13.21666,11.13334z" fill="url(#color-13)"/></g></g></svg>