<svg version="1.1" xmlns="http://www.w3.org/2000/svg" xmlns:xlink="http://www.w3.org/1999/xlink" width="387.2311" height="382.67533" viewBox="0,0,387.2311,382.67533"><defs><linearGradient x1="-12.66666" y1="-20.96663" x2="-12.66666" y2="2.50002" gradientUnits="userSpaceOnUse" id="color-1"><stop offset="0" stop-color="#ff0000"/><stop offset="1" stop-color="#c30000"/></linearGradient><linearGradient x1="8.04764" y1="-20.96663" x2="8.04764" y2="2.50002" gradientUnits="userSpaceOnUse" id="color-2"><stop offset="0" stop-color="#ff0000"/><stop offset="1" stop-color="#c30000"/></linearGradient><linearGradient x1="27.90477" y1="-20.96663" x2="27.90477" y2="2.50002" gradientUnits="userSpaceOnUse" id="color-3"><stop offset="0" stop-color="#ff0000"/><stop offset="1" stop-color="#c30000"/></linearGradient><linearGradient x1="47.90477" y1="-20.96663" x2="47.90477" y2="2.50002" gradientUnits="userSpaceOnUse" id="color-4"><stop offset="0" stop-color="#ff0000"/><stop offset="1" stop-color="#c30000"/></linearGradient><linearGradient x1="67.90478" y1="-20.96663" x2="67.90478" y2="2.50002" gradientUnits="userSpaceOnUse" id="color-5"><stop offset="0" stop-color="#ff0000"/><stop offset="1" stop-color="#c30000"/></linearGradient><linearGradient x1="87.90478" y1="-20.96663" x2="87.90478" y2="2.50002" gradientUnits="userSpaceOnUse" id="color-6"><stop offset="0" stop-color="#ff0000"/><stop offset="1" stop-color="#c30000"/></linearGradient><linearGradient x1="107.54764" y1="-20.96663" x2="107.54764" y2="2.50002" gradientUnits="userSpaceOnUse" id="color-7"><stop offset="0" stop-color="#ff0000"/><stop offset="1" stop-color="#c30000"/></linearGradient><linearGradient x1="127.66668" y1="-20.96663" x2="127.66668" y2="2.50002" gradientUnits="userSpaceOnUse" id="color-8"><stop offset="0" stop-color="#ff0000"/><stop offset="1" stop-color="#c30000"/></linearGradient><linearGradient x1="128.04764" y1="131.03337" x2="128.04764" y2="154.50003" gradientUnits="userSpaceOnUse" id="color-9"><stop offset="0" stop-color="#ff0000"/><stop offset="1" stop-color="#c30000"/></linearGradient><linearGradient x1="192.91668" y1="130.78337" x2="192.91668" y2="154.25003" gradientUnits="userSpaceOnUse" id="color-10"><stop offset="0" stop-color="#ff0000"/><stop offset="1" stop-color="#c30000"/></linearGradient><linearGradient x1="351.59778" y1="351.61813" x2="363.56444" y2="351.61813" gradientUnits="userSpaceOnUse" id="color-11"><stop offset="0" stop-color="#ff0000"/><stop offset="1" stop-color="#c30000"/></linearGradient><linearGradient x1="351.59778" y1="332.35434" x2="363.56444" y2="332.35434" gradientUnits="userSpaceOnUse" id="color-12"><stop offset="0" stop-color="#ff0000"/><stop offset="1" stop-color="#c30000"/></linearGradient><linearGradient x1="351.59778" y1="313.09056" x2="363.56444" y2="313.09056" gradientUnits="userSpaceOnUse" id="color-13"><stop offset="0" stop-color="#ff0000"/><stop offset="1" stop-color="#c30000"/></linearGradient><linearGradient x1="237.19731" y1="5.19011" x2="213.73065" y2="5.19011" gradientUnits="userSpaceOnUse" id="color-14"><stop offset="0" stop-color="#ff0000"/><stop offset="1" stop-color="#c30000"/></linearGradient></defs><g transform="translate(23.66666,20.96665)"><g data-paper-data="{&quot;isPaintingLayer&quot;:true}" fill-rule="nonzero" stroke="none" stroke-width="0" stroke-linecap="butt" stroke-linejoin="miter" stroke-miterlimit="10" stroke-dasharray="" stroke-dashoffset="0" style="mix-blend-mode: normal"><path d="M-23.66666,2.50002l10.86667,-23.46667l11.13333,23.46667z" fill="url(#color-1)"/><path d="M-2.95236,2.50002l10.86666,-23.46666l11.13334,23.46666z" fill="url(#color-2)"/><path d="M16.90477,2.50002l10.86666,-23.46666l11.13334,23.46666z" fill="url(#color-3)"/><path d="M36.90477,2.50002l10.86666,-23.46666l11.13334,23.46666z" fill="url(#color-4)"/><path d="M56.90477,2.50002l10.86666,-23.46666l11.13334,23.46666z" fill="url(#color-5)"/><path d="M76.90478,2.50002l10.86666,-23.46666l11.13334,23.46666z" fill="url(#color-6)"/><path d="M96.54764,2.50002l10.86667,-23.46667l11.13333,23.46667z" fill="url(#color-7)"/><path d="M116.66668,2.50002l10.86666,-23.46666l11.13334,23.46666z" fill="url(#color-8)"/><path d="M117.04764,154.50003l10.86667,-23.46667l11.13333,23.46667z" fill="url(#color-9)"/><path d="M181.91668,154.25003l10.86666,-23.46666l11.13334,23.46666z" fill="url(#color-10)"/><path d="M363.56444,361.70868l-11.96666,-9.96823l11.96666,-10.21287z" fill="url(#color-11)"/><path d="M363.56444,342.4449l-11.96666,-9.96823l11.96666,-10.21287z" fill="url(#color-12)"/><path d="M363.56444,323.18113l-11.96666,-9.96824l11.96666,-10.21287z" fill="url(#color-13)"/><path d="M213.73065,-5.80989l23.46666,10.86666l-23.46666,11.13334z" fill="url(#color-14)"/></g></g></svg>