<svg version="1.1" xmlns="http://www.w3.org/2000/svg" xmlns:xlink="http://www.w3.org/1999/xlink" width="440.83271" height="23.46667" viewBox="0,0,440.83271,23.46667"><defs><linearGradient x1="123.16669" y1="267.4643" x2="123.16669" y2="290.93096" gradientUnits="userSpaceOnUse" id="color-1"><stop offset="0" stop-color="#ff0000"/><stop offset="1" stop-color="#c30000"/></linearGradient><linearGradient x1="144.16668" y1="267.4643" x2="144.16668" y2="290.93096" gradientUnits="userSpaceOnUse" id="color-2"><stop offset="0" stop-color="#ff0000"/><stop offset="1" stop-color="#c30000"/></linearGradient><linearGradient x1="165.16669" y1="267.4643" x2="165.16669" y2="290.93096" gradientUnits="userSpaceOnUse" id="color-3"><stop offset="0" stop-color="#ff0000"/><stop offset="1" stop-color="#c30000"/></linearGradient><linearGradient x1="186.16669" y1="267.4643" x2="186.16669" y2="290.93096" gradientUnits="userSpaceOnUse" id="color-4"><stop offset="0" stop-color="#ff0000"/><stop offset="1" stop-color="#c30000"/></linearGradient><linearGradient x1="207.1667" y1="267.4643" x2="207.1667" y2="290.93096" gradientUnits="userSpaceOnUse" id="color-5"><stop offset="0" stop-color="#ff0000"/><stop offset="1" stop-color="#c30000"/></linearGradient><linearGradient x1="228.1667" y1="267.4643" x2="228.1667" y2="290.93096" gradientUnits="userSpaceOnUse" id="color-6"><stop offset="0" stop-color="#ff0000"/><stop offset="1" stop-color="#c30000"/></linearGradient><linearGradient x1="249.16671" y1="267.4643" x2="249.16671" y2="290.93096" gradientUnits="userSpaceOnUse" id="color-7"><stop offset="0" stop-color="#ff0000"/><stop offset="1" stop-color="#c30000"/></linearGradient><linearGradient x1="270.16671" y1="267.4643" x2="270.16671" y2="290.93096" gradientUnits="userSpaceOnUse" id="color-8"><stop offset="0" stop-color="#ff0000"/><stop offset="1" stop-color="#c30000"/></linearGradient><linearGradient x1="291.16669" y1="267.4643" x2="291.16669" y2="290.93096" gradientUnits="userSpaceOnUse" id="color-9"><stop offset="0" stop-color="#ff0000"/><stop offset="1" stop-color="#c30000"/></linearGradient><linearGradient x1="311.66443" y1="267.4643" x2="311.66443" y2="290.93096" gradientUnits="userSpaceOnUse" id="color-10"><stop offset="0" stop-color="#ff0000"/><stop offset="1" stop-color="#c30000"/></linearGradient><linearGradient x1="332.66443" y1="267.4643" x2="332.66443" y2="290.93096" gradientUnits="userSpaceOnUse" id="color-11"><stop offset="0" stop-color="#ff0000"/><stop offset="1" stop-color="#c30000"/></linearGradient><linearGradient x1="353.66443" y1="267.4643" x2="353.66443" y2="290.93096" gradientUnits="userSpaceOnUse" id="color-12"><stop offset="0" stop-color="#ff0000"/><stop offset="1" stop-color="#c30000"/></linearGradient><linearGradient x1="374.66443" y1="267.4643" x2="374.66443" y2="290.93096" gradientUnits="userSpaceOnUse" id="color-13"><stop offset="0" stop-color="#ff0000"/><stop offset="1" stop-color="#c30000"/></linearGradient><linearGradient x1="395.66443" y1="267.4643" x2="395.66443" y2="290.93096" gradientUnits="userSpaceOnUse" id="color-14"><stop offset="0" stop-color="#ff0000"/><stop offset="1" stop-color="#c30000"/></linearGradient><linearGradient x1="416.66445" y1="267.4643" x2="416.66445" y2="290.93096" gradientUnits="userSpaceOnUse" id="color-15"><stop offset="0" stop-color="#ff0000"/><stop offset="1" stop-color="#c30000"/></linearGradient><linearGradient x1="437.66444" y1="267.4643" x2="437.66444" y2="290.93096" gradientUnits="userSpaceOnUse" id="color-16"><stop offset="0" stop-color="#ff0000"/><stop offset="1" stop-color="#c30000"/></linearGradient><linearGradient x1="458.66445" y1="267.4643" x2="458.66445" y2="290.93096" gradientUnits="userSpaceOnUse" id="color-17"><stop offset="0" stop-color="#ff0000"/><stop offset="1" stop-color="#c30000"/></linearGradient><linearGradient x1="479.66445" y1="267.4643" x2="479.66445" y2="290.93096" gradientUnits="userSpaceOnUse" id="color-18"><stop offset="0" stop-color="#ff0000"/><stop offset="1" stop-color="#c30000"/></linearGradient><linearGradient x1="60.83174" y1="267.4643" x2="60.83174" y2="290.93096" gradientUnits="userSpaceOnUse" id="color-19"><stop offset="0" stop-color="#ff0000"/><stop offset="1" stop-color="#c30000"/></linearGradient><linearGradient x1="81.33173" y1="267.4643" x2="81.33173" y2="290.93096" gradientUnits="userSpaceOnUse" id="color-20"><stop offset="0" stop-color="#ff0000"/><stop offset="1" stop-color="#c30000"/></linearGradient><linearGradient x1="102.83174" y1="267.4643" x2="102.83174" y2="290.93096" gradientUnits="userSpaceOnUse" id="color-21"><stop offset="0" stop-color="#ff0000"/><stop offset="1" stop-color="#c30000"/></linearGradient></defs><g transform="translate(-49.83174,-267.46429)"><g data-paper-data="{&quot;isPaintingLayer&quot;:true}" fill-rule="nonzero" stroke="none" stroke-width="0" stroke-linecap="butt" stroke-linejoin="miter" stroke-miterlimit="10" stroke-dasharray="" stroke-dashoffset="0" style="mix-blend-mode: normal"><path d="M112.16669,290.93096l10.86666,-23.46666l11.13334,23.46666z" fill="url(#color-1)"/><path d="M133.16668,290.93096l10.86666,-23.46666l11.13334,23.46666z" fill="url(#color-2)"/><path d="M154.16669,290.93096l10.86666,-23.46666l11.13334,23.46666z" fill="url(#color-3)"/><path d="M175.16669,290.93096l10.86667,-23.46667l11.13333,23.46667z" fill="url(#color-4)"/><path d="M196.1667,290.93096l10.86666,-23.46666l11.13334,23.46666z" fill="url(#color-5)"/><path d="M217.1667,290.93096l10.86666,-23.46666l11.13334,23.46666z" fill="url(#color-6)"/><path d="M238.16671,290.93096l10.86666,-23.46666l11.13334,23.46666z" fill="url(#color-7)"/><path d="M259.16671,290.93096l10.86666,-23.46666l11.13334,23.46666z" fill="url(#color-8)"/><path d="M280.16671,290.93096l10.86666,-23.46666l11.13334,23.46666z" fill="url(#color-9)"/><path d="M300.66443,290.93096l10.86667,-23.46667l11.13333,23.46667z" fill="url(#color-10)"/><path d="M321.66443,290.93096l10.86666,-23.46666l11.13334,23.46666z" fill="url(#color-11)"/><path d="M342.66443,290.93096l10.86666,-23.46666l11.13334,23.46666z" fill="url(#color-12)"/><path d="M363.66443,290.93096l10.86666,-23.46666l11.13334,23.46666z" fill="url(#color-13)"/><path d="M384.66443,290.93096l10.86666,-23.46666l11.13334,23.46666z" fill="url(#color-14)"/><path d="M405.66445,290.93096l10.86666,-23.46666l11.13334,23.46666z" fill="url(#color-15)"/><path d="M426.66444,290.93096l10.86667,-23.46667l11.13333,23.46667z" fill="url(#color-16)"/><path d="M447.66445,290.93096l10.86666,-23.46666l11.13334,23.46666z" fill="url(#color-17)"/><path d="M468.66445,290.93096l10.86666,-23.46666l11.13334,23.46666z" fill="url(#color-18)"/><path d="M49.83174,290.93096l10.86666,-23.46666l11.13334,23.46666z" fill="url(#color-19)"/><path d="M70.33173,290.93096l10.86666,-23.46666l11.13334,23.46666z" fill="url(#color-20)"/><path d="M91.83174,290.93096l10.86666,-23.46666l11.13334,23.46666z" fill="url(#color-21)"/></g></g></svg>