<svg version="1.1" xmlns="http://www.w3.org/2000/svg" xmlns:xlink="http://www.w3.org/1999/xlink" width="665.48556" height="540.7699" viewBox="0,0,665.48556,540.7699"><g transform="translate(92.74278,90.38495)"><g data-paper-data="{&quot;isPaintingLayer&quot;:true}" fill-rule="nonzero" stroke="none" stroke-width="0" stroke-linecap="butt" stroke-linejoin="miter" stroke-miterlimit="10" stroke-dasharray="" stroke-dashoffset="0" style="mix-blend-mode: normal"><path d="M-90.5,419.5v-464h652v464z" fill="#ffffff"/><path d="M-92.74278,326.58805l2.73236,-12.70961l575.84315,123.7969l-2.73236,12.70961z" fill="#dedede"/><path d="M-87.27806,301.16883l2.73236,-12.70961l575.84315,123.7969l-2.73236,12.70961z" fill="#dedede"/><path d="M-81.91843,276.23844l2.73236,-12.70961l575.84315,123.7969l-2.73236,12.70961z" fill="#dedede"/><path d="M-76.45371,250.81922l2.73236,-12.70961l575.84315,123.7969l-2.73236,12.70961z" fill="#dedede"/><path d="M-71.09408,225.88883l2.73236,-12.70961l575.84315,123.7969l-2.73236,12.70961z" fill="#dedede"/><path d="M-65.52427,199.98078l2.73236,-12.70961l575.84315,123.7969l-2.73236,12.70961z" fill="#dedede"/><path d="M-60.16464,175.05039l2.73236,-12.70961l575.84315,123.7969l-2.73236,12.70961z" fill="#dedede"/><path d="M-54.69993,149.63116l2.73236,-12.70961l575.84315,123.7969l-2.73236,12.70961z" fill="#dedede"/><path d="M-49.3403,124.70077l2.73236,-12.70961l575.84315,123.7969l-2.73236,12.70961z" fill="#dedede"/><path d="M-43.77049,98.79272l2.73236,-12.70961l575.84315,123.7969l-2.73236,12.70961z" fill="#dedede"/><path d="M-38.41086,73.86233l2.73236,-12.70961l575.84315,123.7969l-2.73236,12.70961z" fill="#dedede"/><path d="M-32.94614,48.44311l2.73236,-12.70961l575.84315,123.7969l-2.73236,12.70961z" fill="#dedede"/><path d="M-27.58651,23.51272l2.73236,-12.70961l575.84315,123.7969l-2.73236,12.70961z" fill="#dedede"/><path d="M-22.0167,-2.39534l2.73236,-12.70961l575.84315,123.7969l-2.73236,12.70961z" fill="#dedede"/><path d="M-16.65708,-27.32573l2.73236,-12.70961l575.84315,123.7969l-2.73236,12.70961z" fill="#dedede"/><path d="M-11.19236,-52.74495l2.73236,-12.70961l575.84315,123.7969l-2.73236,12.70961z" fill="#dedede"/><path d="M-5.83273,-77.67534l2.73236,-12.70961l575.84315,123.7969l-2.73236,12.70961z" fill="#dedede"/></g></g></svg>