<svg version="1.1" xmlns="http://www.w3.org/2000/svg" xmlns:xlink="http://www.w3.org/1999/xlink" width="512.44405" height="373.03268" viewBox="0,0,512.44405,373.03268"><defs><linearGradient x1="240.08957" y1="246.9169" x2="240.08957" y2="359.22131" gradientUnits="userSpaceOnUse" id="color-1"><stop offset="0" stop-color="#000000"/><stop offset="1" stop-color="#ffffff"/></linearGradient></defs><g transform="translate(26.82991,13.81137)"><g data-paper-data="{&quot;isPaintingLayer&quot;:true}" fill-rule="nonzero" stroke="none" stroke-width="0" stroke-linecap="butt" stroke-linejoin="miter" stroke-miterlimit="10" stroke-dasharray="" stroke-dashoffset="0" style="mix-blend-mode: normal"><path d="M91.23995,219.71673v-19.37144h19v19.37144z" fill="#ff0000"/><path d="M220.67531,219.71673v-19.37144h19v19.37144z" fill="#ff0000"/><path d="M348.7337,58.61101v-65.5h19v65.5z" fill="#ff0000"/><path d="M421.99354,197.71424v32.61994h-96.52821v-32.61995z" fill="#ff5d5d"/><path d="M476.49354,19.95241v32.61994h-96.52821v-32.61995z" fill="#ff5d5d"/><path d="M379.79867,12.65172v-18.16174h96.52821v18.16174z" fill="#72ff4e"/><path d="M362.79731,62.85529v-64.05483h30.5v64.05483z" fill="#000000"/><path d="M209.7337,29.11101v-36.5h92v36.5z" fill="#969696"/><path d="M7.67794,66.59936h-34.50785v-69.41074h34.50785z" fill="#000000"/><path d="M71.46852,-2.73589v60.50785h-29.67235v-60.50785z" fill="#000000"/><path d="M139.67794,56.36097h-34.50785v-60.97115h34.50785z" fill="#000000"/><path d="M41.87026,61.79355v-10.92208h97.74388v10.92208z" fill="#000000"/><path d="M-8.62974,221.71265v-23.84118h102.74388v23.84118z" fill="#000000"/><path d="M237.37026,221.71266v-23.84118h88.74388v23.84118z" fill="#000000"/><path d="M215.67794,61.01124h-34.50785v-74.82261h34.50785z" fill="#000000"/><path d="M328.87026,140.71266v-23.84118h156.74388v23.84118z" fill="#000000"/><path d="M-4.07223,359.22131v-112.30439h488.32359v112.30439z" fill="url(#color-1)"/><path d="M9.82009,29.46468v-32.75h63.55v32.75z" fill="#585858"/><path d="M483.06924,197.71424v32.61994h-62.10391v-32.61995z" fill="#5479ff"/></g></g></svg>