<svg version="1.1" xmlns="http://www.w3.org/2000/svg" xmlns:xlink="http://www.w3.org/1999/xlink" width="331.79751" height="204.81976" viewBox="0,0,331.79751,204.81976"><defs><radialGradient cx="227.85519" cy="313.7821" r="189.5" gradientUnits="userSpaceOnUse" id="color-1"><stop offset="0" stop-color="#c4c4c4"/><stop offset="1" stop-color="#989898"/></radialGradient><linearGradient x1="342.01995" y1="159.67867" x2="342.01995" y2="229.012" gradientUnits="userSpaceOnUse" id="color-2"><stop offset="0" stop-color="#8000ff" stop-opacity="0"/><stop offset="1" stop-color="#8000ff"/></linearGradient><linearGradient x1="299.35328" y1="159.67867" x2="299.35328" y2="229.012" gradientUnits="userSpaceOnUse" id="color-3"><stop offset="0" stop-color="#8000ff" stop-opacity="0"/><stop offset="1" stop-color="#8000ff"/></linearGradient><linearGradient x1="320.85328" y1="159.67866" x2="320.85328" y2="229.012" gradientUnits="userSpaceOnUse" id="color-4"><stop offset="0" stop-color="#8000ff" stop-opacity="0"/><stop offset="1" stop-color="#8000ff"/></linearGradient></defs><g transform="translate(-150.91288,-159.67867)"><g data-paper-data="{&quot;isPaintingLayer&quot;:true}" fill-rule="nonzero" stroke-linejoin="miter" stroke-miterlimit="10" stroke-dasharray="" stroke-dashoffset="0" style="mix-blend-mode: normal"><path d="" fill="#989898" stroke="none" stroke-width="0" stroke-linecap="butt"/><path d="" fill="#989898" stroke="none" stroke-width="0" stroke-linecap="butt"/><path d="M154.21039,360.92612l80,-93.62868h248.5v93.62868z" fill="url(#color-1)" stroke="none" stroke-width="0" stroke-linecap="butt"/><path d="M234.06673,267.24671l-81.15385,95.25172" fill="none" stroke="#999999" stroke-width="4" stroke-linecap="round"/><path d="M337.85328,229.012v-69.33333h8.33333v69.33333z" fill="url(#color-2)" stroke="none" stroke-width="0" stroke-linecap="butt"/><path d="M295.18661,229.012v-69.33333h8.33334v69.33333z" fill="url(#color-3)" stroke="none" stroke-width="0" stroke-linecap="butt"/><path d="M311.85328,229.012v-69.33333h18v69.33333z" fill="url(#color-4)" stroke="none" stroke-width="0" stroke-linecap="butt"/><path d="M243.16667,320.99999v-39.33333h85v39.33333z" fill="#4f4f4f" stroke="none" stroke-width="0" stroke-linecap="butt"/><text transform="translate(262.1,300.58333) scale(0.5,0.5)" font-size="40" xml:space="preserve" fill="#898989" fill-rule="nonzero" stroke="none" stroke-width="1" stroke-linecap="butt" stroke-linejoin="miter" stroke-miterlimit="10" stroke-dasharray="" stroke-dashoffset="0" font-family="Sans Serif" font-weight="normal" text-anchor="start" style="mix-blend-mode: normal"><tspan x="0" dy="0">Back</tspan></text><path d="M246.16667,288.33333c0,-2.02504 1.64162,-3.66667 3.66667,-3.66667c2.02504,0 3.66667,1.64162 3.66667,3.66667c0,2.02504 -1.64162,3.66667 -3.66667,3.66667c-2.02504,0 -3.66667,-1.64162 -3.66667,-3.66667z" fill="#898989" stroke="none" stroke-width="0" stroke-linecap="butt"/><path d="M317.5,314.33333c0,-2.02505 1.64162,-3.66666 3.66667,-3.66666c2.02505,0 3.66667,1.64162 3.66667,3.66666c0,2.02505 -1.64162,3.66666 -3.66667,3.66666c-2.02505,0 -3.66667,-1.64162 -3.66667,-3.66666z" fill="#898989" stroke="none" stroke-width="0" stroke-linecap="butt"/><path d="M249.83333,310.66666c2.02505,0 3.66667,1.64162 3.66667,3.66666c0,2.02505 -1.64163,3.66666 -3.66667,3.66666c-2.02505,0 -3.66666,-1.64162 -3.66666,-3.66666c0,-2.02505 1.64162,-3.66666 3.66666,-3.66666z" data-paper-data="{&quot;index&quot;:null}" fill="#898989" stroke="none" stroke-width="0" stroke-linecap="butt"/><path d="M321.16667,284.66667c2.02504,0 3.66667,1.64162 3.66667,3.66666c0,2.02505 -1.64163,3.66666 -3.66667,3.66666c-2.02504,0 -3.66667,-1.64162 -3.66667,-3.66666c0,-2.02505 1.64162,-3.66666 3.66667,-3.66666z" data-paper-data="{&quot;index&quot;:null}" fill="#898989" stroke="none" stroke-width="0" stroke-linecap="butt"/><path d="M265.2184,312.39843h38.2" fill="none" stroke="#898989" stroke-width="2.5" stroke-linecap="round"/><path d="M299.20627,306.66964l6.84092,5.54595l-6.55186,5.31162" fill="none" stroke="#898989" stroke-width="2.5" stroke-linecap="round"/></g></g></svg>