<svg version="1.1" xmlns="http://www.w3.org/2000/svg" xmlns:xlink="http://www.w3.org/1999/xlink" width="665.48556" height="540.7699" viewBox="0,0,665.48556,540.7699"><defs><linearGradient x1="220" y1="175.75" x2="497.5" y2="175.75" gradientUnits="userSpaceOnUse" id="color-1"><stop offset="0" stop-color="#000000" stop-opacity="0.60484"/><stop offset="1" stop-color="#000000" stop-opacity="0.40323"/></linearGradient><linearGradient x1="220.00901" y1="175.75" x2="-57.49099" y2="175.75" gradientUnits="userSpaceOnUse" id="color-2"><stop offset="0" stop-color="#000000" stop-opacity="0.60484"/><stop offset="1" stop-color="#000000" stop-opacity="0.40323"/></linearGradient></defs><g transform="translate(92.74278,90.38496)"><g data-paper-data="{&quot;isPaintingLayer&quot;:true}" fill-rule="nonzero" stroke-linecap="butt" stroke-linejoin="miter" stroke-miterlimit="10" stroke-dasharray="" stroke-dashoffset="0" style="mix-blend-mode: normal"><path d="M-90.49999,419.5v-464h652v464z" fill="#ffffff" stroke="none" stroke-width="0"/><path d="M-92.74277,326.58805l2.73236,-12.70961l575.84315,123.7969l-2.73236,12.70961z" fill="#dedede" stroke="none" stroke-width="0"/><path d="M-87.27805,301.16883l2.73236,-12.70961l575.84315,123.7969l-2.73236,12.70961z" fill="#dedede" stroke="none" stroke-width="0"/><path d="M-81.91842,276.23843l2.73236,-12.70961l575.84315,123.7969l-2.73236,12.70961z" fill="#dedede" stroke="none" stroke-width="0"/><path d="M-76.4537,250.81922l2.73236,-12.70961l575.84315,123.7969l-2.73236,12.70961z" fill="#dedede" stroke="none" stroke-width="0"/><path d="M-71.09407,225.88883l2.73236,-12.70961l575.84315,123.7969l-2.73236,12.70961z" fill="#dedede" stroke="none" stroke-width="0"/><path d="M-65.52426,199.98078l2.73236,-12.70961l575.84315,123.7969l-2.73236,12.70961z" fill="#dedede" stroke="none" stroke-width="0"/><path d="M-60.16463,175.05039l2.73236,-12.70961l575.84315,123.7969l-2.73236,12.70961z" fill="#dedede" stroke="none" stroke-width="0"/><path d="M-54.69992,149.63116l2.73236,-12.70961l575.84315,123.7969l-2.73236,12.70961z" fill="#dedede" stroke="none" stroke-width="0"/><path d="M-49.34029,124.70077l2.73236,-12.70961l575.84315,123.7969l-2.73236,12.70961z" fill="#dedede" stroke="none" stroke-width="0"/><path d="M-43.77048,98.79272l2.73236,-12.70961l575.84315,123.7969l-2.73236,12.70961z" fill="#dedede" stroke="none" stroke-width="0"/><path d="M-38.41085,73.86233l2.73236,-12.70961l575.84315,123.7969l-2.73236,12.70961z" fill="#dedede" stroke="none" stroke-width="0"/><path d="M-32.94613,48.44311l2.73236,-12.70961l575.84315,123.7969l-2.73236,12.70961z" fill="#dedede" stroke="none" stroke-width="0"/><path d="M-27.5865,23.51272l2.73236,-12.70961l575.84315,123.7969l-2.73236,12.70961z" fill="#dedede" stroke="none" stroke-width="0"/><path d="M-22.01669,-2.39534l2.73236,-12.70961l575.84315,123.7969l-2.73236,12.70961z" fill="#dedede" stroke="none" stroke-width="0"/><path d="M-16.65707,-27.32573l2.73236,-12.70961l575.84315,123.7969l-2.73236,12.70961z" fill="#dedede" stroke="none" stroke-width="0"/><path d="M-11.19235,-52.74495l2.73236,-12.70961l575.84315,123.7969l-2.73236,12.70961z" fill="#dedede" stroke="none" stroke-width="0"/><path d="M-5.83272,-77.67534l2.73236,-12.70961l575.84315,123.7969l-2.73236,12.70961z" fill="#dedede" stroke="none" stroke-width="0"/><path d="M220,204.5v-57.5h277.5v57.5z" fill="url(#color-1)" stroke="none" stroke-width="0"/><text transform="translate(136.10108,192.78756) scale(1.06563,1.06563)" font-size="40" xml:space="preserve" fill-opacity="0" fill="#000000" fill-rule="nonzero" stroke="#000000" stroke-width="5" stroke-linecap="butt" stroke-linejoin="miter" stroke-miterlimit="10" stroke-dasharray="" stroke-dashoffset="0" font-family="Pixel" font-weight="normal" text-anchor="start" style="mix-blend-mode: normal"><tspan x="0" dy="0">Loading...</tspan></text><path d="M-57.49099,204.5v-57.5h277.5v57.5z" data-paper-data="{&quot;index&quot;:null}" fill="url(#color-2)" stroke="none" stroke-width="0"/><g stroke="none" stroke-width="1" font-family="Pixel" font-weight="normal" font-size="40" text-anchor="start"><text transform="translate(136.15518,192.78756) scale(1.06563,1.06563)" font-size="40" xml:space="preserve" fill="#ff6666" fill-rule="nonzero" stroke="none" stroke-width="1" stroke-linecap="butt" stroke-linejoin="miter" stroke-miterlimit="10" stroke-dasharray="" stroke-dashoffset="0" font-family="Pixel" font-weight="normal" text-anchor="start" style="mix-blend-mode: normal"><tspan x="0" dy="0">L</tspan></text><text transform="translate(168.35518,192.78756) scale(1.06563,1.06563)" font-size="40" xml:space="preserve" fill="#ffa166" fill-rule="nonzero" stroke="none" stroke-width="1" stroke-linecap="butt" stroke-linejoin="miter" stroke-miterlimit="10" stroke-dasharray="" stroke-dashoffset="0" font-family="Pixel" font-weight="normal" text-anchor="start" style="mix-blend-mode: normal"><tspan x="0" dy="0">o</tspan></text><text transform="translate(194.95518,192.78756) scale(1.06563,1.06563)" font-size="40" xml:space="preserve" fill="#fff966" fill-rule="nonzero" stroke="none" stroke-width="1" stroke-linecap="butt" stroke-linejoin="miter" stroke-miterlimit="10" stroke-dasharray="" stroke-dashoffset="0" font-family="Pixel" font-weight="normal" text-anchor="start" style="mix-blend-mode: normal"><tspan x="0" dy="0">a</tspan></text><text transform="translate(221.15518,192.78756) scale(1.06563,1.06563)" font-size="40" xml:space="preserve" fill="#a4ff66" fill-rule="nonzero" stroke="none" stroke-width="1" stroke-linecap="butt" stroke-linejoin="miter" stroke-miterlimit="10" stroke-dasharray="" stroke-dashoffset="0" font-family="Pixel" font-weight="normal" text-anchor="start" style="mix-blend-mode: normal"><tspan x="0" dy="0">d</tspan></text><text transform="translate(248.15517,192.78756) scale(1.06563,1.06563)" font-size="40" xml:space="preserve" fill="#66ffb5" fill-rule="nonzero" stroke="none" stroke-width="1" stroke-linecap="butt" stroke-linejoin="miter" stroke-miterlimit="10" stroke-dasharray="" stroke-dashoffset="0" font-family="Pixel" font-weight="normal" text-anchor="start" style="mix-blend-mode: normal"><tspan x="0" dy="0">i</tspan></text><text transform="translate(258.75519,192.78756) scale(1.06563,1.06563)" font-size="40" xml:space="preserve" fill="#66cbff" fill-rule="nonzero" stroke="none" stroke-width="1" stroke-linecap="butt" stroke-linejoin="miter" stroke-miterlimit="10" stroke-dasharray="" stroke-dashoffset="0" font-family="Pixel" font-weight="normal" text-anchor="start" style="mix-blend-mode: normal"><tspan x="0" dy="0">n</tspan></text><text transform="translate(285.35519,192.78756) scale(1.06563,1.06563)" font-size="40" xml:space="preserve" fill="#6866ff" fill-rule="nonzero" stroke="none" stroke-width="1" stroke-linecap="butt" stroke-linejoin="miter" stroke-miterlimit="10" stroke-dasharray="" stroke-dashoffset="0" font-family="Pixel" font-weight="normal" text-anchor="start" style="mix-blend-mode: normal"><tspan x="0" dy="0">g</tspan></text><text transform="translate(311.85519,192.78756) scale(1.06563,1.06563)" font-size="40" xml:space="preserve" fill="#d066ff" fill-rule="nonzero" stroke="none" stroke-width="1" stroke-linecap="butt" stroke-linejoin="miter" stroke-miterlimit="10" stroke-dasharray="" stroke-dashoffset="0" font-family="Pixel" font-weight="normal" text-anchor="start" style="mix-blend-mode: normal"><tspan x="0" dy="0">.</tspan></text><text transform="translate(322.60519,192.78756) scale(1.06563,1.06563)" font-size="40" xml:space="preserve" fill="#ff66e3" fill-rule="nonzero" stroke="none" stroke-width="1" stroke-linecap="butt" stroke-linejoin="miter" stroke-miterlimit="10" stroke-dasharray="" stroke-dashoffset="0" font-family="Pixel" font-weight="normal" text-anchor="start" style="mix-blend-mode: normal"><tspan x="0" dy="0">.</tspan></text><text transform="translate(333.18852,192.78756) scale(1.06563,1.06563)" font-size="40" xml:space="preserve" fill="#ff6666" fill-rule="nonzero" stroke="none" stroke-width="1" stroke-linecap="butt" stroke-linejoin="miter" stroke-miterlimit="10" stroke-dasharray="" stroke-dashoffset="0" font-family="Pixel" font-weight="normal" text-anchor="start" style="mix-blend-mode: normal"><tspan x="0" dy="0">.</tspan></text></g></g></g></svg>