<svg version="1.1" xmlns="http://www.w3.org/2000/svg" xmlns:xlink="http://www.w3.org/1999/xlink" width="542.55347" height="317.64893" viewBox="0,0,542.55347,317.64893"><g transform="translate(11.18471,-61.04755)"><g data-paper-data="{&quot;isPaintingLayer&quot;:true}" fill-rule="nonzero" stroke="none" stroke-width="0" stroke-linecap="butt" stroke-linejoin="miter" stroke-miterlimit="10" stroke-dasharray="" stroke-dashoffset="0" style="mix-blend-mode: normal"><path d="M136.43946,317.3303v-28.28848l36.40802,1.04045l34.3875,-19.07845l32.74826,-46.61923l83.99777,-54.23816l28.61268,-16.23959v28.28848l-27.86999,15.79119l-83.44303,53.93108l-31.97516,46.12034l-35.12292,19.59667z" fill="#ff0000"/><path d="M160.94995,274.49434v-32.61994h96.52821v32.61994z" fill="#ff5d5d"/><path d="M255.89269,212.84514v-32.61994h96.52821v32.61995z" fill="#5479ff"/><path d="M200.33538,310.94847v51.80921h-211.52009v-51.80921z" data-paper-data="{&quot;index&quot;:null}" fill="#000000"/><path d="M531.36876,154.09541v33.90735h-75.12489l-61.01896,74.43404l-34.94455,116.25968l-189.30246,-0.09632l-19.69857,-54.97843l56.02891,-30.35491l31.14045,-45.00872l82.60286,-55.20295l75.58667,-38.95975z" data-paper-data="{&quot;index&quot;:null}" fill="#000000"/><path d="M164.32687,61.04756l0,32.61994l-96.52821,0v-32.61995z" fill="#ffed48"/><path d="M72.29866,197.66749v-32.61994h96.52821v32.61995z" fill="#5479ff"/><path d="M162.40633,96.71245v32.61994l-96.52821,0l0,-32.61994z" fill="#72ff4e"/><path d="M69.85107,164.58299v-32.61994h96.52821v32.61994z" fill="#ff5d5d"/></g></g></svg>