<svg version="1.1" xmlns="http://www.w3.org/2000/svg" xmlns:xlink="http://www.w3.org/1999/xlink" width="623" height="444" viewBox="0,0,623,444"><defs><radialGradient cx="346.5" cy="38" r="311.5" gradientUnits="userSpaceOnUse" id="color-1"><stop offset="0" stop-color="#0b99ff"/><stop offset="1" stop-color="#0768ad"/></radialGradient><radialGradient cx="324" cy="39.00001" r="54" gradientUnits="userSpaceOnUse" id="color-2"><stop offset="0" stop-color="#fffe00"/><stop offset="1" stop-color="#fffe00" stop-opacity="0"/></radialGradient><linearGradient x1="299.63923" y1="222.42748" x2="299.63923" y2="304.10361" gradientUnits="userSpaceOnUse" id="color-3"><stop offset="0" stop-color="#ffffff" stop-opacity="0.5"/><stop offset="1" stop-color="#d1d1d1" stop-opacity="0.5"/></linearGradient><linearGradient x1="45.20971" y1="190.42746" x2="45.20971" y2="266.10362" gradientUnits="userSpaceOnUse" id="color-4"><stop offset="0" stop-color="#ffffff" stop-opacity="0.5"/><stop offset="1" stop-color="#d1d1d1" stop-opacity="0.5"/></linearGradient><linearGradient x1="203.13761" y1="18.92748" x2="203.13761" y2="100.62473" gradientUnits="userSpaceOnUse" id="color-5"><stop offset="0" stop-color="#ffffff" stop-opacity="0.5"/><stop offset="1" stop-color="#d1d1d1" stop-opacity="0.5"/></linearGradient></defs><g transform="translate(71.5,42)"><g data-paper-data="{&quot;isPaintingLayer&quot;:true}" fill-rule="nonzero" stroke="none" stroke-linecap="butt" stroke-linejoin="miter" stroke-miterlimit="10" stroke-dasharray="" stroke-dashoffset="0" style="mix-blend-mode: normal"><path d="M-71.5,402v-444h623v444z" fill="url(#color-1)" stroke-width="0"/><g><path d="M297,39.00001c0,-14.91169 12.08831,-27 27,-27c14.91169,0 27,12.08831 27,27c0,14.91169 -12.08831,27 -27,27c-14.91169,0 -27,-12.08831 -27,-27z" fill="#fffe00" stroke-width="NaN"/><path d="M270,39.00001c0,-29.82338 24.17662,-54 54,-54c29.82338,0 54,24.17662 54,54c0,29.82338 -24.17662,54 -54,54c-29.82338,0 -54,-24.17662 -54,-54z" fill="url(#color-2)" stroke-width="NaN"/></g><path d="M220.96474,303.28007c-52.87696,-0.12532 -69.71975,-59.9383 -19.56194,-62.9493c19.98786,-0.6201 30.31497,17.15158 30.31497,17.15158c0,0 14.91553,-20.18935 34.06294,-20.76264c11.50574,-0.34448 37.27919,12.89664 37.27919,12.89664c0,0 24.6207,-26.45907 42.25704,-26.51232c17.25653,-0.05194 31.39837,25.37749 31.39837,25.37749c0,0 11.24234,-25.99685 32.72572,-26.05396c22.01789,-0.05854 18.22858,29.89235 18.22858,38.02921c0,24.10549 -37.6079,43.64684 -83.99958,43.64684c-46.39168,0 -93.0576,-0.75326 -122.70527,-0.82353z" fill="url(#color-3)" stroke-width="0"/><path d="M89.77509,265.28009c-16.82057,0.07027 -43.29642,0.82353 -69.61668,0.82353c-26.32026,0 -47.65706,-19.54135 -47.65706,-43.64684c0,-8.13686 2.85014,-32.08775 15.34196,-32.02921c20.18857,1.05711 32.5669,19.05396 32.5669,19.05396c0,0 16.41084,-16.10629 30.93861,-15.76181c22.86326,1.57329 24.32557,21.76264 24.32557,21.76264c0,0 9.85907,-14.77168 25.19916,-13.15158c28.45697,3.011 18.90124,62.82398 -11.09844,62.9493z" data-paper-data="{&quot;index&quot;:null}" fill="url(#color-4)" stroke-width="0"/><path d="M141.52725,58.65026c0,0 10.71752,-20.66943 29.87556,-21.81949c19.98786,-0.6201 30.31497,17.15158 30.31497,17.15158c0,0 14.91553,-20.18935 34.06294,-20.76264c11.50574,-0.34448 37.27919,12.89664 37.27919,12.89664c0,0 24.6207,-26.45907 42.25704,-26.51232c17.25653,-0.05194 31.39837,25.37749 31.39837,25.37749c0,0 11.24234,-25.99685 32.72572,-26.05396c22.01789,-0.05854 18.22858,29.89235 18.22858,38.02921c0,24.10549 -37.6079,43.64684 -83.99958,43.64684c-46.39168,0 -223.57622,0.22933 -253.20527,-0.82353c-70.91496,-2.51994 -58.37109,-48.2438 -27.36146,-50.28169c24.93245,-1.63851 32.17431,15.82814 32.17431,15.82814c0,0 19.55521,-18.28064 32.28621,-19.67996c20.53229,-2.2568 43.96343,13.00369 43.96343,13.00369z" fill="url(#color-5)" stroke-width="0"/></g></g></svg>