<svg version="1.1" xmlns="http://www.w3.org/2000/svg" xmlns:xlink="http://www.w3.org/1999/xlink" width="569.3062" height="439.51155" viewBox="0,0,569.3062,439.51155"><g transform="translate(44.6531,39.75578)"><g data-paper-data="{&quot;isPaintingLayer&quot;:true}" fill-rule="nonzero" stroke="none" stroke-linecap="butt" stroke-linejoin="miter" stroke-miterlimit="10" stroke-dasharray="" stroke-dashoffset="0" style="mix-blend-mode: normal"><path d="M-44.6531,399.75578v-439.51155h569.3062v439.51155z" fill="#919191" stroke-width="0"/><g><path d="M39.5,192.33333v-109h167v109z" fill="#4f4f4f" stroke-width="0"/><text transform="translate(52.5,111) scale(0.5,0.5)" font-size="40" xml:space="preserve" fill="#898989" fill-rule="nonzero" stroke="none" stroke-width="1" stroke-linecap="butt" stroke-linejoin="miter" stroke-miterlimit="10" stroke-dasharray="" stroke-dashoffset="0" font-family="Sans Serif" font-weight="normal" text-anchor="start" style="mix-blend-mode: normal"><tspan x="0" dy="0">W or up arrow</tspan><tspan x="0" dy="46.150000000000006px">to jump</tspan></text><path d="M42.16667,90c0,-2.02504 1.64162,-3.66667 3.66667,-3.66667c2.02504,0 3.66667,1.64162 3.66667,3.66667c0,2.02504 -1.64162,3.66667 -3.66667,3.66667c-2.02504,0 -3.66667,-1.64162 -3.66667,-3.66667z" fill="#898989" stroke-width="0"/><path d="M195.83333,184.66667c0,-2.02505 1.64162,-3.66666 3.66667,-3.66666c2.02505,0 3.66667,1.64162 3.66667,3.66666c0,2.02505 -1.64162,3.66666 -3.66667,3.66666c-2.02505,0 -3.66667,-1.64162 -3.66667,-3.66666z" fill="#898989" stroke-width="0"/><path d="M45.83333,181c2.02505,0 3.66667,1.64162 3.66667,3.66666c0,2.02505 -1.64163,3.66666 -3.66667,3.66666c-2.02505,0 -3.66666,-1.64162 -3.66666,-3.66666c0,-2.02505 1.64162,-3.66666 3.66666,-3.66666z" data-paper-data="{&quot;index&quot;:null}" fill="#898989" stroke-width="0"/><path d="M199.5,86.33334c2.02504,0 3.66667,1.64162 3.66667,3.66666c0,2.02505 -1.64163,3.66666 -3.66667,3.66666c-2.02504,0 -3.66667,-1.64162 -3.66667,-3.66666c0,-2.02505 1.64162,-3.66666 3.66667,-3.66666z" data-paper-data="{&quot;index&quot;:null}" fill="#898989" stroke-width="0"/><text transform="translate(53.5,161.68813) scale(0.30317,0.30317)" font-size="40" xml:space="preserve" fill="#898989" fill-rule="nonzero" stroke="none" stroke-width="1" stroke-linecap="butt" stroke-linejoin="miter" stroke-miterlimit="10" stroke-dasharray="" stroke-dashoffset="0" font-family="Sans Serif" font-weight="normal" text-anchor="start" style="mix-blend-mode: normal"><tspan x="0" dy="0">Holding jump longer</tspan><tspan x="0" dy="46.150000000000006px">makes you jump higher</tspan></text></g></g></g></svg>