<svg version="1.1" xmlns="http://www.w3.org/2000/svg" xmlns:xlink="http://www.w3.org/1999/xlink" width="99.02821" height="35.26112" viewBox="0,0,99.02821,35.26112"><g transform="translate(-190.48594,-162.29886)"><g data-paper-data="{&quot;isPaintingLayer&quot;:true}" fill-rule="nonzero" stroke="#000000" stroke-width="2.5" stroke-linejoin="miter" stroke-miterlimit="10" stroke-dasharray="" stroke-dashoffset="0" style="mix-blend-mode: normal"><path d="M191.73595,196.30998v-32.61994h96.52821v32.61994z" fill="#545454" stroke-linecap="butt"/><path d="M233.91776,164.01227l-14.77586,8.46648l-13.93732,-3.64846" fill="none" stroke-linecap="round"/><path d="M260.91153,195.87188l-19.97821,-5.31269l-6.74338,-15.18043l9.69119,-11.71404" fill="none" stroke-linecap="round"/><path d="M228.69518,190.99501l-6.47858,-7.40357l11.82254,-8.78093l16.63687,8.07845l1.89411,-13.08404" fill="none" stroke-linecap="round"/><path d="M199.9728,195.64017l-1.9695,-13.90237l1.39023,-17.72553" fill="none" stroke-linecap="round"/><path d="M197.65573,181.62195l12.40731,1.81135l4.22588,6.93465" fill="none" stroke-linecap="round"/><path d="M254.7474,193.75341l10.21898,-11.32049l2.66462,8.92069" fill="none" stroke-linecap="round"/><path d="M287.67359,169.22566l-15.45277,5.06272l-9.80321,-10.73952" fill="none" stroke-linecap="round"/><path d="M198.69841,171.77443l-6.14021,2.78047" fill="none" stroke-linecap="round"/><path d="M272.4291,186.07058l7.63175,-5.57741l7.9603,15.72627" fill="none" stroke-linecap="round"/></g></g></svg>