<svg version="1.1" xmlns="http://www.w3.org/2000/svg" xmlns:xlink="http://www.w3.org/1999/xlink" width="43.33518" height="28.49536" viewBox="0,0,43.33518,28.49536"><g transform="translate(-1.09281,-55.25817)"><g data-paper-data="{&quot;isPaintingLayer&quot;:true}" fill-rule="nonzero" stroke-linejoin="miter" stroke-miterlimit="10" stroke-dasharray="" stroke-dashoffset="0" style="mix-blend-mode: normal"><path d="M2.09281,69.50584c0,-7.31649 5.93118,-13.24767 13.24767,-13.24767c7.31649,0 13.24769,5.93117 13.24769,13.24767c0,7.31649 -5.9312,13.24769 -13.24769,13.24769c-7.31649,0 -13.24767,-5.93119 -13.24767,-13.24769z" fill="#ffffff" stroke="#000000" stroke-width="2" stroke-linecap="butt"/><path d="M12.50149,66.37506c0,0 -0.06434,-3.02815 3.00388,-3.03063c2.72765,-0.0022 2.67479,3.00075 2.67407,3.03063c-0.04717,1.95149 -2.83032,1.63048 -2.82575,3.48638c0.00337,1.36617 0,2.5192 0,2.5192" fill="none" stroke="#adadad" stroke-width="2" stroke-linecap="round"/><path d="M14.47405,75.48082c0,-0.47853 0.38792,-0.86644 0.86645,-0.86644c0.47852,0 0.86645,0.38792 0.86645,0.86644c0,0.47853 -0.38792,0.86645 -0.86645,0.86645c-0.47852,0 -0.86645,-0.38792 -0.86645,-0.86645z" fill="#adadad" stroke="none" stroke-width="0" stroke-linecap="butt"/><text transform="translate(34.78332,74.18416) scale(0.39366,0.39366)" font-size="40" xml:space="preserve" fill="#ffffff" fill-rule="nonzero" stroke="#ffffff" stroke-width="3" stroke-linecap="butt" stroke-linejoin="miter" stroke-miterlimit="10" stroke-dasharray="" stroke-dashoffset="0" font-family="Sans Serif" font-weight="normal" text-anchor="start" style="mix-blend-mode: normal"><tspan x="0" dy="0">x</tspan></text></g></g></svg>