<svg version="1.1" xmlns="http://www.w3.org/2000/svg" xmlns:xlink="http://www.w3.org/1999/xlink" width="461" height="65" viewBox="0,0,461,65"><g transform="translate(-9.5,-147.5)"><g data-paper-data="{&quot;isPaintingLayer&quot;:true}" fill-rule="nonzero" stroke-linejoin="miter" stroke-miterlimit="10" stroke-dasharray="" stroke-dashoffset="0" style="mix-blend-mode: normal"><path d="M11,211v-62h458v62z" fill="#ffefb8" stroke="#000000" stroke-width="3" stroke-linecap="butt"/><text transform="translate(359.35001,191.75913) scale(0.73428,0.73428)" font-size="40" xml:space="preserve" fill="#000000" fill-rule="nonzero" stroke="none" stroke-width="1" stroke-linecap="butt" stroke-linejoin="miter" stroke-miterlimit="10" stroke-dasharray="" stroke-dashoffset="0" font-family="Pixel" font-weight="normal" text-anchor="start" style="mix-blend-mode: normal"><tspan x="0" dy="0">05:00</tspan></text><path d="M266.21193,195.23965v-28.4793h28.4793v28.4793z" fill="#ff66e3" stroke="#000000" stroke-width="3" stroke-linecap="butt"/><g stroke-width="2"><path d="M302.77383,183.71242c0,-6.04883 3.88253,-10.87431 8.66666,-11.02381c1.98183,-0.06193 3.43001,0.00073 3.43001,0.00073l-3.76333,11.09451l4.50284,10.7639c0,0 -2.59092,0.15972 -4.16951,0.11706c-4.78472,-0.12931 -8.66666,-4.90355 -8.66666,-10.95239z" fill="#acb500" stroke="#000000" stroke-linecap="butt"/><path d="M307.05954,183.71242c0,-6.04883 3.88019,-10.95238 8.66667,-10.95238c4.78647,0 8.66667,4.90354 8.66667,10.95238c0,6.04883 -3.8802,10.95239 -8.66667,10.95239c-4.78647,0 -8.66667,-4.90355 -8.66667,-10.95239z" fill="#f4ff00" stroke="#000000" stroke-linecap="butt"/><path d="M312.93896,185.12652h1.53534v2.10347c0,0 -0.01824,2.27299 -1.72389,2.31151c-1.74311,0.03937 -1.84241,-2.31151 -1.84241,-2.31151v-6.81894c0,0 -0.03889,-2.61756 1.81547,-2.6197c1.64853,-0.00191 1.61615,2.6197 1.61615,2.6197" fill="none" stroke="#646900" stroke-linecap="round"/><path d="M319.05674,185.12651h1.53534v2.10347c0,0 -0.01824,2.27299 -1.72389,2.31151c-1.74311,0.03937 -1.84241,-2.31151 -1.84241,-2.31151v-6.81893c0,0 -0.03889,-2.61757 1.81547,-2.61971c1.64853,-0.0019 1.61615,2.61971 1.61615,2.61971" fill="none" stroke="#646900" stroke-linecap="round"/></g><path d="M11.05552,210.95v-16.71284h287.74449l37,15.71284z" fill="#000000" stroke="none" stroke-width="0" stroke-linecap="butt"/></g></g></svg>