<svg version="1.1" xmlns="http://www.w3.org/2000/svg" xmlns:xlink="http://www.w3.org/1999/xlink" width="60.71429" height="56.71429" viewBox="0,0,60.71429,56.71429"><g transform="translate(-209.64292,-151.6429)"><g data-paper-data="{&quot;isPaintingLayer&quot;:true}" fill-rule="nonzero" stroke-linejoin="miter" stroke-miterlimit="10" stroke-dasharray="" stroke-dashoffset="0" style="mix-blend-mode: normal"><path d="M231.97461,180.08215c0,-10.07262 1.99517,-18.06483 4.59152,-18.23809c1.37913,-0.09203 6.2627,-0.16431 6.2627,-0.16431l-0.06739,36.49874c0,0 -4.61926,0.14177 -6.19532,0.14177c-2.53583,0 -4.59152,-8.16548 -4.59152,-18.23811z" fill="#ff00de" stroke="#000000" stroke-width="2" stroke-linecap="butt"/><path d="M238.84235,180.08215c0,-10.07262 2.05569,-18.23809 4.59152,-18.23809c2.53583,0 4.59153,8.16546 4.59153,18.23809c0,10.07262 -2.0557,18.23811 -4.59153,18.23811c-2.53583,0 -4.59152,-8.16548 -4.59152,-18.23811z" fill="#ff00de" stroke="#000000" stroke-width="2" stroke-linecap="butt"/><path d="M241.82182,182.40718h0.88047v3.35009c0,0 -0.01046,3.62004 -0.9886,3.6814c-0.99962,0.06272 -1.05656,-3.6814 -1.05656,-3.6814v-10.86016c0,0 -0.0223,-4.16885 1.04112,-4.17226c0.94538,-0.00304 0.92681,4.17226 0.92681,4.17226" fill="none" stroke="#940080" stroke-width="2" stroke-linecap="round"/><path d="M245.33018,182.40718h0.88047v3.35009c0,0 -0.01046,3.62007 -0.9886,3.68142c-0.99962,0.0627 -1.05657,-3.68142 -1.05657,-3.68142v-10.86015c0,0 -0.0223,-4.16887 1.04112,-4.17227c0.94538,-0.00303 0.92681,4.17227 0.92681,4.17227" fill="none" stroke="#940080" stroke-width="2" stroke-linecap="round"/><path d="M209.64293,208.35719v-56.71429h60.71429v56.71429z" fill="none" stroke="none" stroke-width="0" stroke-linecap="butt"/></g></g></svg>