<svg version="1.1" xmlns="http://www.w3.org/2000/svg" xmlns:xlink="http://www.w3.org/1999/xlink" width="654.65465" height="654.65466" viewBox="0,0,654.65465,654.65466"><defs><linearGradient x1="68.37713" y1="181.41611" x2="240.41049" y2="181.41611" gradientUnits="userSpaceOnUse" id="color-1"><stop offset="0" stop-color="#8ccfff" stop-opacity="0"/><stop offset="1" stop-color="#8ccfff"/></linearGradient><linearGradient x1="412.44386" y1="181.41611" x2="240.4105" y2="181.41611" gradientUnits="userSpaceOnUse" id="color-2"><stop offset="0" stop-color="#8ccfff" stop-opacity="0"/><stop offset="1" stop-color="#8ccfff"/></linearGradient><radialGradient cx="239.99996" cy="180.00001" r="327.32733" gradientUnits="userSpaceOnUse" id="color-3"><stop offset="0" stop-color="#f4ff00"/><stop offset="1" stop-color="#f4ff00" stop-opacity="0"/></radialGradient></defs><g transform="translate(87.32737,147.32732)"><g data-paper-data="{&quot;isPaintingLayer&quot;:true}" fill-rule="nonzero" stroke-linejoin="miter" stroke-miterlimit="10" stroke-dasharray="" stroke-dashoffset="0" style="mix-blend-mode: normal"><path d="M489.36307,-7.38005v374.76012h-498.72622v-374.76012z" fill="#6da0c5" stroke="#5f5f5f" stroke-width="0" stroke-linecap="butt"/><path d="M68.37713,333.34936v-303.8665h172.03337v303.86651z" fill="url(#color-1)" stroke="none" stroke-width="0" stroke-linecap="butt"/><path d="M240.4105,333.34936v-303.8665h172.03336v303.86651z" data-paper-data="{&quot;index&quot;:null}" fill="url(#color-2)" stroke="none" stroke-width="0" stroke-linecap="butt"/><path d="M23.92373,336.3671v-312.7342h432.15255v312.7342z" fill="none" stroke="#8ccfff" stroke-width="15" stroke-linecap="butt"/><text transform="translate(180.16504,304.7629) scale(6.91667,6.91667)" font-size="40" xml:space="preserve" fill="#ffffff" fill-rule="nonzero" stroke="none" stroke-width="1" stroke-linecap="butt" stroke-linejoin="miter" stroke-miterlimit="10" stroke-dasharray="" stroke-dashoffset="0" font-family="Pixel" font-weight="normal" text-anchor="start" style="mix-blend-mode: normal"><tspan x="0" dy="0">?</tspan></text><path d="M-87.32736,180.00001c0,-180.77789 146.54943,-327.32732 327.32732,-327.32732c180.77789,0 327.32733,146.54943 327.32733,327.32732c0,180.77789 -146.54944,327.32733 -327.32733,327.32733c-180.77789,0 -327.32732,-146.54944 -327.32732,-327.32733z" fill="url(#color-3)" stroke="none" stroke-width="0" stroke-linecap="butt"/><g stroke-width="30"><path d="M95.04762,179.99994c0,-80.05492 64.89726,-144.95232 144.95232,-144.95232c80.05492,0 144.95245,64.89726 144.95245,144.95232c0,80.05492 -64.8974,144.95245 -144.95245,144.95245c-80.05492,0 -144.95232,-64.8974 -144.95232,-144.95245z" fill="#f4ff00" stroke="#000000" stroke-linecap="butt"/><path d="M186.78886,199.3206h29.06265v27.83896c0,0 -0.34516,30.08225 -32.63167,30.59219c-32.99536,0.52119 -34.8751,-30.59219 -34.8751,-30.59219v-90.24716c0,0 -0.73612,-34.64283 34.36529,-34.67115c31.20509,-0.02528 30.59219,34.67115 30.59219,34.67115" fill="none" stroke="#646900" stroke-linecap="round"/><path d="M302.59343,199.3206h29.06265v27.83896c0,0 -0.3453,30.08252 -32.6318,30.59232c-32.99549,0.52105 -34.87523,-30.59232 -34.87523,-30.59232v-90.24703c0,0 -0.73612,-34.64296 34.36529,-34.67128c31.20509,-0.02515 30.59219,34.67128 30.59219,34.67128" fill="none" stroke="#646900" stroke-linecap="round"/></g></g></g></svg>