<svg version="1.1" xmlns="http://www.w3.org/2000/svg" xmlns:xlink="http://www.w3.org/1999/xlink" width="85.7185" height="143.18564" viewBox="0,0,85.7185,143.18564"><g transform="translate(-197.14075,-108.40718)"><g data-paper-data="{&quot;isPaintingLayer&quot;:true}" fill-rule="nonzero" stroke="#000000" stroke-width="3" stroke-linecap="butt" stroke-linejoin="miter" stroke-miterlimit="10" stroke-dasharray="" stroke-dashoffset="0" style="mix-blend-mode: normal"><path d="M198.64075,250.09282v-140.18564h82.7185v140.18564z" fill="#1f1f1f"/><path d="M209.92243,180c0,-4.45671 3.61288,-8.06959 8.06959,-8.06959c4.45671,0 8.06959,3.61288 8.06959,8.06959c0,4.45671 -3.61288,8.06959 -8.06959,8.06959c-4.45671,0 -8.06959,-3.61288 -8.06959,-8.06959z" fill="#ffffff"/><path d="M231.93041,180c0,-4.45671 3.61288,-8.06959 8.06959,-8.06959c4.45671,0 8.06959,3.61288 8.06959,8.06959c0,4.45671 -3.61289,8.06959 -8.06959,8.06959c-4.45671,0 -8.06959,-3.61289 -8.06959,-8.06959z" fill="#ffffff"/><path d="M253.93839,180c0,-4.45671 3.61288,-8.06959 8.06959,-8.06959c4.45671,0 8.06959,3.61288 8.06959,8.06959c0,4.45671 -3.61289,8.06959 -8.06959,8.06959c-4.45671,0 -8.06959,-3.61289 -8.06959,-8.06959z" fill="#ffffff"/></g></g></svg>