<svg version="1.1" xmlns="http://www.w3.org/2000/svg" xmlns:xlink="http://www.w3.org/1999/xlink" width="526.00901" height="464.4084" viewBox="0,0,526.00901,464.4084"><g transform="translate(25.13741,24.11505)"><g data-paper-data="{&quot;isPaintingLayer&quot;:true}" fill-rule="nonzero" stroke="none" stroke-width="0" stroke-linecap="butt" stroke-linejoin="miter" stroke-miterlimit="10" stroke-dasharray="" stroke-dashoffset="0" style="mix-blend-mode: normal"><path d="M-21.1284,122.89992v-137.60661h268v137.60661z" data-paper-data="{&quot;index&quot;:null}" fill="#000000"/><path d="M-21.1284,183.29336v-70.37237h133.0991v70.37237z" data-paper-data="{&quot;index&quot;:null}" fill="#000000"/><path d="M-22.1284,440.29335v-198h89v198z" data-paper-data="{&quot;index&quot;:null}" fill="#000000"/><path d="M-25.13741,383.15518v-69.98749h515v69.98749z" data-paper-data="{&quot;index&quot;:null}" fill="#000000"/><path d="M428.61664,348.95402v-373.06907h62.22793v373.06907z" data-paper-data="{&quot;index&quot;:null}" fill="#000000"/><path d="M197.56765,431.68327l-184.03494,-73.04204l32.83203,-82.72278l184.03494,73.04204z" data-paper-data="{&quot;index&quot;:null}" fill="#000000"/><path d="M334.8716,122.89992v-137.60661h166v137.60661z" data-paper-data="{&quot;index&quot;:null}" fill="#000000"/><path d="M214.8671,45.5933v-63h149v63z" fill="#000000"/><path d="M259.3671,83.58914c0,-17.39697 14.10303,-31.5 31.5,-31.5c17.39697,0 31.5,14.10303 31.5,31.5c0,17.39697 -14.10303,31.5 -31.5,31.5c-17.39697,0 -31.5,-14.10303 -31.5,-31.5z" fill="#1f33ff"/></g></g></svg>