<svg version="1.1" xmlns="http://www.w3.org/2000/svg" xmlns:xlink="http://www.w3.org/1999/xlink" width="548.97743" height="337.33476" viewBox="0,0,548.97743,337.33476"><g transform="translate(42.46183,24.70392)"><g data-paper-data="{&quot;isPaintingLayer&quot;:true}" fill-rule="nonzero" stroke="none" stroke-width="0" stroke-linecap="butt" stroke-linejoin="miter" stroke-miterlimit="10" stroke-dasharray="" stroke-dashoffset="0" style="mix-blend-mode: normal"><path d="M2.88535,295.13027v-25h421v25z" fill="#ff0000"/><path d="M-40.80475,304.06279v-328.76671h82v328.76671z" fill="#000000"/><path d="M506.5156,100.41725v212.21359h-68.63794l-126.35619,-156.81126c0,0 25.32543,-14.41561 71.73828,-38.48868c22.46682,-11.65292 70.32783,-16.60473 78.73119,-16.91365c23.92937,-0.87969 44.52466,0 44.52466,0z" data-paper-data="{&quot;index&quot;:null}" fill="#000000"/><path d="M161.81565,189.02545l-52.64075,-193.27797l100.46805,0.67319v192.60478z" fill="#000000"/><path d="M-42.46183,311.49375v-25.74774h480.1535v25.74774z" fill="#000000"/><path d="M-0.19071,235.48653v-18h141v18z" fill="#000000"/><path d="M231.30929,233.98653v-18h153.5v18z" fill="#000000"/></g></g></svg>