<svg version="1.1" xmlns="http://www.w3.org/2000/svg" xmlns:xlink="http://www.w3.org/1999/xlink" width="60.71429" height="56.71429" viewBox="0,0,60.71429,56.71429"><g transform="translate(-209.64287,-151.64287)"><g data-paper-data="{&quot;isPaintingLayer&quot;:true}" fill-rule="nonzero" stroke-linejoin="miter" stroke-miterlimit="10" stroke-dasharray="" stroke-dashoffset="0" style="mix-blend-mode: normal"><path d="M256.1697,180.08215c0,10.07263 -5.9938,18.23811 -13.38753,18.23811c-4.59533,0 -5.73858,-0.14177 -5.73858,-0.14177l-0.19648,-36.49874c0,0 1.91391,0.07228 5.93505,0.16431c7.57019,0.17326 13.38753,8.16547 13.38753,18.23809z" data-paper-data="{&quot;index&quot;:null}" fill="#ffffff" stroke="#000000" stroke-width="2" stroke-linecap="butt"/><path d="M237.15961,198.2381c-7.37054,0 -13.34555,-8.16549 -13.34555,-18.23811c0,-10.07263 5.97501,-18.23809 13.34555,-18.23809c7.37054,0 13.34553,8.16547 13.34553,18.23809c0,10.07263 -5.97499,18.23811 -13.34553,18.23811z" data-paper-data="{&quot;index&quot;:null}" fill="#ffffff" stroke="#000000" stroke-width="2" stroke-linecap="butt"/><path d="M234.29962,175.68985c0,0 -0.06482,-4.16887 3.02607,-4.17227c2.7478,-0.00303 2.69455,4.13115 2.69383,4.17227c-0.04752,2.68661 -2.85123,2.24468 -2.84663,4.79971c0.00339,1.88081 0,3.46818 0,3.46818" data-paper-data="{&quot;index&quot;:null}" fill="none" stroke="#adadad" stroke-width="2" stroke-linecap="round"/><path d="M236.20063,187.50563c0,-0.53947 0.42934,-0.9768 0.95896,-0.9768c0.52962,0 0.95896,0.43733 0.95896,0.9768c0,0.53947 -0.42934,0.9768 -0.95896,0.9768c-0.52962,0 -0.95896,-0.43733 -0.95896,-0.9768z" data-paper-data="{&quot;index&quot;:null}" fill="#adadad" stroke="none" stroke-width="0" stroke-linecap="butt"/><path d="M209.64288,208.35717v-56.71429h60.71429v56.71429z" fill="none" stroke="none" stroke-width="0" stroke-linecap="butt"/></g></g></svg>