<svg version="1.1" xmlns="http://www.w3.org/2000/svg" xmlns:xlink="http://www.w3.org/1999/xlink" width="60.71429" height="56.71429" viewBox="0,0,60.71429,56.71429"><g transform="translate(-209.64287,-151.64286)"><g data-paper-data="{&quot;isPaintingLayer&quot;:true}" fill-rule="nonzero" stroke-linejoin="miter" stroke-miterlimit="10" stroke-dasharray="" stroke-dashoffset="0" style="mix-blend-mode: normal"><path d="M250.80953,180.04576c0,6.04884 -3.88194,10.82308 -8.66666,10.95239c-1.57859,0.04266 -4.16951,-0.11706 -4.16951,-0.11706l4.50284,-10.7639l-3.76333,-11.09451c0,0 1.44818,-0.06266 3.43001,-0.00073c4.78413,0.1495 8.66666,4.97498 8.66666,11.02381z" data-paper-data="{&quot;index&quot;:null}" fill="#acb500" stroke="#000000" stroke-width="2" stroke-linecap="butt"/><path d="M237.85716,190.99815c-4.78647,0 -8.66667,-4.90356 -8.66667,-10.95239c0,-6.04884 3.8802,-10.95238 8.66667,-10.95238c4.78648,0 8.66667,4.90355 8.66667,10.95238c0,6.04884 -3.8802,10.95239 -8.66667,10.95239z" data-paper-data="{&quot;index&quot;:null}" fill="#f4ff00" stroke="#000000" stroke-width="2" stroke-linecap="butt"/><path d="M209.64287,208.35715v-56.71429h60.71429v56.71429z" data-paper-data="{&quot;index&quot;:null}" fill="none" stroke="none" stroke-width="0" stroke-linecap="butt"/><path d="M235.02232,181.45986h1.53534v2.10347c0,0 -0.01824,2.27299 -1.72389,2.31151c-1.74311,0.03937 -1.84241,-2.31151 -1.84241,-2.31151v-6.81894c0,0 -0.03889,-2.61756 1.81547,-2.6197c1.64853,-0.00191 1.61615,2.6197 1.61615,2.6197" data-paper-data="{&quot;index&quot;:null}" fill="none" stroke="#646900" stroke-width="2" stroke-linecap="round"/><path d="M241.1401,181.45985h1.53534v2.10347c0,0 -0.01824,2.27299 -1.72389,2.31151c-1.74311,0.03937 -1.84241,-2.31151 -1.84241,-2.31151v-6.81893c0,0 -0.03889,-2.61757 1.81547,-2.61971c1.64853,-0.0019 1.61615,2.61971 1.61615,2.61971" data-paper-data="{&quot;index&quot;:null}" fill="none" stroke="#646900" stroke-width="2" stroke-linecap="round"/></g></g></svg>