<svg version="1.1" xmlns="http://www.w3.org/2000/svg" xmlns:xlink="http://www.w3.org/1999/xlink" width="495.52611" height="138.50001" viewBox="0,0,495.52611,138.50001"><defs><linearGradient x1="311.00001" y1="274.50001" x2="311.00001" y2="391.50001" gradientUnits="userSpaceOnUse" id="color-1"><stop offset="0" stop-color="#c50000"/><stop offset="1" stop-color="#ff0000"/></linearGradient><linearGradient x1="369.00003" y1="275.50001" x2="369.00003" y2="392.50001" gradientUnits="userSpaceOnUse" id="color-2"><stop offset="0" stop-color="#c50000"/><stop offset="1" stop-color="#ff0000"/></linearGradient><linearGradient x1="426.50003" y1="277.00002" x2="426.50003" y2="394.00002" gradientUnits="userSpaceOnUse" id="color-3"><stop offset="0" stop-color="#c50000"/><stop offset="1" stop-color="#ff0000"/></linearGradient><linearGradient x1="484.50001" y1="278.00001" x2="484.50001" y2="395.00001" gradientUnits="userSpaceOnUse" id="color-4"><stop offset="0" stop-color="#c50000"/><stop offset="1" stop-color="#ff0000"/></linearGradient><linearGradient x1="79" y1="270.50002" x2="79" y2="387.50002" gradientUnits="userSpaceOnUse" id="color-5"><stop offset="0" stop-color="#c50000"/><stop offset="1" stop-color="#ff0000"/></linearGradient><linearGradient x1="137" y1="271.50001" x2="137" y2="388.50001" gradientUnits="userSpaceOnUse" id="color-6"><stop offset="0" stop-color="#c50000"/><stop offset="1" stop-color="#ff0000"/></linearGradient><linearGradient x1="194.50003" y1="273.00002" x2="194.50003" y2="390.00002" gradientUnits="userSpaceOnUse" id="color-7"><stop offset="0" stop-color="#c50000"/><stop offset="1" stop-color="#ff0000"/></linearGradient><linearGradient x1="252.50003" y1="274.00001" x2="252.50003" y2="391.00001" gradientUnits="userSpaceOnUse" id="color-8"><stop offset="0" stop-color="#c50000"/><stop offset="1" stop-color="#ff0000"/></linearGradient><linearGradient x1="542.50002" y1="279.00003" x2="542.50002" y2="396.00003" gradientUnits="userSpaceOnUse" id="color-9"><stop offset="0" stop-color="#c50000"/><stop offset="1" stop-color="#ff0000"/></linearGradient></defs><g transform="translate(37.99999,-256.00002)"><g data-paper-data="{&quot;isPaintingLayer&quot;:true}" fill-rule="nonzero" stroke="none" stroke-width="0" stroke-linecap="butt" stroke-linejoin="miter" stroke-miterlimit="10" stroke-dasharray="" stroke-dashoffset="0" style="mix-blend-mode: normal"><path d="M194.00001,390.00001c0,0 1.36587,-130.01154 2.5,-130c20.47088,0.20827 14.30774,16.07038 29.52609,16.23208c15.96816,0.16967 12.30248,-15.41008 28.47467,-15.28059c0.10382,0.00083 -1.00076,129.54851 -1.00076,129.54851z" fill="url(#color-1)"/><path d="M252.00003,391.00001c0,0 1.36587,-130.01154 2.5,-130c20.47088,0.20827 14.30775,16.07038 29.52609,16.23208c15.96816,0.16967 12.30248,-15.41008 28.47467,-15.28059c0.10381,0.00083 -1.00076,129.54851 -1.00076,129.54851z" fill="url(#color-2)"/><path d="M309.50003,392.50002c0,0 1.36587,-130.01154 2.5,-130c20.47088,0.20827 14.30775,16.07038 29.52609,16.23208c15.96816,0.16967 12.30248,-15.41008 28.47467,-15.28059c0.10381,0.00083 -1.00076,129.54851 -1.00076,129.54851z" fill="url(#color-3)"/><path d="M367.50001,393.50001c0,0 1.36587,-130.01154 2.5,-130c20.47088,0.20827 14.30775,16.07038 29.52609,16.23208c15.96816,0.16967 12.30248,-15.41008 28.47467,-15.28059c0.10381,0.00083 -1.00076,129.54851 -1.00076,129.54851z" fill="url(#color-4)"/><path d="M-37.99999,386.00002c0,0 1.36587,-130.01154 2.5,-130c20.47088,0.20827 14.30774,16.07038 29.52609,16.23208c15.96816,0.16967 12.30248,-15.41008 28.47467,-15.28059c0.10382,0.00083 -1.00076,129.54851 -1.00076,129.54851z" fill="url(#color-5)"/><path d="M20.00001,387.00001c0,0 1.36587,-130.01154 2.5,-130c20.47088,0.20827 14.30775,16.07038 29.52609,16.23208c15.96816,0.16967 12.30248,-15.41008 28.47467,-15.28059c0.10381,0.00083 -1.00076,129.54851 -1.00076,129.54851z" fill="url(#color-6)"/><path d="M77.50002,388.50002c0,0 1.36587,-130.01154 2.5,-130c20.47088,0.20827 14.30775,16.07038 29.52609,16.23208c15.96816,0.16967 12.30248,-15.41008 28.47467,-15.28059c0.10381,0.00083 -1.00076,129.54851 -1.00076,129.54851z" fill="url(#color-7)"/><path d="M135.5,389.50001c0,0 1.36587,-130.01154 2.5,-130c20.47088,0.20827 14.30775,16.07038 29.52609,16.23208c15.96816,0.16967 12.30248,-15.41008 28.47467,-15.28059c0.10381,0.00083 -1.00076,129.54851 -1.00076,129.54851z" fill="url(#color-8)"/><path d="M425.50004,394.50003c0,0 1.36587,-130.01154 2.5,-130c10.21943,0.10397 13.82268,4.09359 16.71904,8.11468c6.82952,9.48157 12.80705,8.1174 12.80705,8.1174l-0.10381,113.48742z" fill="url(#color-9)"/></g></g></svg>