<svg version="1.1" xmlns="http://www.w3.org/2000/svg" xmlns:xlink="http://www.w3.org/1999/xlink" width="49.15258" height="45.91429" viewBox="0,0,49.15258,45.91429"><g transform="translate(-215.42374,-157.04288)"><g data-paper-data="{&quot;isPaintingLayer&quot;:true}" fill-rule="nonzero" stroke-linejoin="miter" stroke-miterlimit="10" stroke-dasharray="" stroke-dashoffset="0" style="mix-blend-mode: normal"><path d="M215.42374,202.95717v-45.91429h49.15258v45.91429z" fill="none" stroke="none" stroke-width="0" stroke-linecap="butt"/><path d="M226.97281,179.99999c0,-7.19471 5.83246,-13.02718 13.02718,-13.02718c7.19471,0 13.0272,5.83246 13.0272,13.02718c0,7.19471 -5.83247,13.0272 -13.0272,13.0272c-7.19471,0 -13.02718,-5.83247 -13.02718,-13.0272z" fill="#ff00de" stroke="#000000" stroke-width="2" stroke-linecap="butt"/><path d="M235.42621,181.66072h2.4981v2.39292c0,0 -0.02967,2.58573 -2.80487,2.62956c-2.83614,0.0448 -2.99771,-2.62956 -2.99771,-2.62956v-7.75724c0,0 -0.06327,-2.97774 2.95388,-2.98018c2.68225,-0.00217 2.62956,2.98018 2.62956,2.98018" fill="none" stroke="#940080" stroke-width="2" stroke-linecap="round"/><path d="M245.38026,181.9515h2.4981v2.39292c0,0 -0.02968,2.58576 -2.80489,2.62958c-2.83615,0.04479 -2.99772,-2.62958 -2.99772,-2.62958v-7.75723c0,0 -0.06327,-2.97776 2.95388,-2.98018c2.68225,-0.00217 2.62956,2.98018 2.62956,2.98018" fill="none" stroke="#940080" stroke-width="2" stroke-linecap="round"/></g></g></svg>