<svg version="1.1" xmlns="http://www.w3.org/2000/svg" xmlns:xlink="http://www.w3.org/1999/xlink" width="149.44153" height="27.63824" viewBox="0,0,149.44153,27.63824"><g transform="translate(-165.27924,-166.18088)"><g data-paper-data="{&quot;isPaintingLayer&quot;:true}" fill-rule="nonzero" stroke="#000000" stroke-width="2.5" stroke-linejoin="miter" stroke-miterlimit="10" stroke-dasharray="" stroke-dashoffset="0" style="mix-blend-mode: normal"><path d="M166.52924,192.56912v-25.13824h146.94153v25.13824z" fill="#545454" stroke-linecap="butt"/><path d="M205.47456,167.67971l17.55831,24.64917" fill="none" stroke-linecap="round"/><path d="M197.53954,181.35493l5.40256,-6.07788l11.64927,5.0649" fill="none" stroke-linecap="round"/><path d="M216.95499,184.05621l19.41929,-7.32847l5.62238,13.63817l19.86709,-21.84206l6.24671,11.14278l-8.27267,2.53245" fill="none" stroke-linecap="round"/><path d="M236.03278,175.95237l-10.80512,-5.40256l5.27589,-2.90391" fill="none" stroke-linecap="round"/><path d="M277.22729,168.52385l10.80512,7.59735l-9.62331,3.3766" fill="none" stroke-linecap="round"/><path d="M194.66944,177.13418l-9.11682,-1.35064" fill="none" stroke-linecap="round"/><path d="M185.98309,167.44139l-2.65947,19.35504l6.20543,5.17119" fill="none" stroke-linecap="round"/><path d="M184.21011,178.52252l-8.42166,3.84146l-8.71716,-4.43245" fill="none" stroke-linecap="round"/><path d="M297.82862,167.73688l-4.22483,15.98167l-15.87002,-4.38958l-5.90905,12.99991" fill="none" stroke-linecap="round"/><path d="M300.93134,192.41087l-0.88649,-9.01265l12.85411,1.92073" fill="none" stroke-linecap="round"/><path d="M306.69353,184.43245l-2.06848,-9.1604" fill="none" stroke-linecap="round"/></g></g></svg>