<svg version="1.1" xmlns="http://www.w3.org/2000/svg" xmlns:xlink="http://www.w3.org/1999/xlink" width="60.71429" height="56.71429" viewBox="0,0,60.71429,56.71429"><g transform="translate(-209.64291,-151.64287)"><g data-paper-data="{&quot;isPaintingLayer&quot;:true}" fill-rule="nonzero" stroke-linejoin="miter" stroke-miterlimit="10" stroke-dasharray="" stroke-dashoffset="0" style="mix-blend-mode: normal"><path d="M232.36906,180.04577c0,-6.04883 2.44582,-10.87431 5.45961,-11.02381c1.24847,-0.06193 2.16076,0.00073 2.16076,0.00073l-2.37073,11.09451l2.83659,10.7639c0,0 -1.63217,0.15972 -2.62661,0.11706c-3.01416,-0.12931 -5.45961,-4.90355 -5.45961,-10.95239z" fill="#acb500" stroke="#000000" stroke-width="2" stroke-linecap="butt"/><path d="M236.71172,179.97433c0,-6.04883 2.44435,-10.95238 5.45962,-10.95238c3.01527,0 5.45962,4.90354 5.45962,10.95238c0,6.04883 -2.44436,10.95239 -5.45962,10.95239c-3.01527,0 -5.45962,-4.90355 -5.45962,-10.95239z" fill="#f4ff00" stroke="#000000" stroke-width="2" stroke-linecap="butt"/><path d="M209.64292,208.35716v-56.71429h60.71429v56.71429z" fill="none" stroke="none" stroke-width="0" stroke-linecap="butt"/><path d="M241.39789,176.57772c0,0 0.01956,-2.62161 -0.97642,-2.6197c-1.12034,0.00214 -1.09684,2.6197 -1.09684,2.6197v6.81894c0,0 0.05999,2.35088 1.11312,2.31151c1.03049,-0.03852 1.04151,-2.31151 1.04151,-2.31151v-2.10347h-0.9276" fill="none" stroke="#646900" stroke-width="2" stroke-linecap="round"/><path d="M245.09404,176.57772c0,0 0.01956,-2.62161 -0.97642,-2.61971c-1.12034,0.00214 -1.09684,2.61971 -1.09684,2.61971v6.81893c0,0 0.05999,2.35088 1.11312,2.31151c1.03049,-0.03852 1.04151,-2.31151 1.04151,-2.31151v-2.10347h-0.9276" fill="none" stroke="#646900" stroke-width="2" stroke-linecap="round"/></g></g></svg>