<svg version="1.1" xmlns="http://www.w3.org/2000/svg" xmlns:xlink="http://www.w3.org/1999/xlink" width="365.41569" height="237.17205" viewBox="0,0,365.41569,237.17205"><defs><linearGradient x1="99.54242" y1="229.94654" x2="99.54242" y2="253.4132" gradientUnits="userSpaceOnUse" id="color-1"><stop offset="0" stop-color="#ff0000"/><stop offset="1" stop-color="#c30000"/></linearGradient><linearGradient x1="120.54243" y1="229.94654" x2="120.54243" y2="253.4132" gradientUnits="userSpaceOnUse" id="color-2"><stop offset="0" stop-color="#ff0000"/><stop offset="1" stop-color="#c30000"/></linearGradient><linearGradient x1="141.54242" y1="229.94654" x2="141.54242" y2="253.4132" gradientUnits="userSpaceOnUse" id="color-3"><stop offset="0" stop-color="#ff0000"/><stop offset="1" stop-color="#c30000"/></linearGradient><linearGradient x1="162.54242" y1="229.94654" x2="162.54242" y2="253.4132" gradientUnits="userSpaceOnUse" id="color-4"><stop offset="0" stop-color="#ff0000"/><stop offset="1" stop-color="#c30000"/></linearGradient><linearGradient x1="183.54242" y1="229.94654" x2="183.54242" y2="253.4132" gradientUnits="userSpaceOnUse" id="color-5"><stop offset="0" stop-color="#ff0000"/><stop offset="1" stop-color="#c30000"/></linearGradient><linearGradient x1="204.54242" y1="229.94654" x2="204.54242" y2="253.4132" gradientUnits="userSpaceOnUse" id="color-6"><stop offset="0" stop-color="#ff0000"/><stop offset="1" stop-color="#c30000"/></linearGradient><linearGradient x1="225.54242" y1="229.94654" x2="225.54242" y2="253.4132" gradientUnits="userSpaceOnUse" id="color-7"><stop offset="0" stop-color="#ff0000"/><stop offset="1" stop-color="#c30000"/></linearGradient><linearGradient x1="246.54243" y1="229.94654" x2="246.54243" y2="253.4132" gradientUnits="userSpaceOnUse" id="color-8"><stop offset="0" stop-color="#ff0000"/><stop offset="1" stop-color="#c30000"/></linearGradient><linearGradient x1="267.54244" y1="229.94654" x2="267.54244" y2="253.4132" gradientUnits="userSpaceOnUse" id="color-9"><stop offset="0" stop-color="#ff0000"/><stop offset="1" stop-color="#c30000"/></linearGradient><linearGradient x1="288.45685" y1="229.94654" x2="288.45685" y2="253.4132" gradientUnits="userSpaceOnUse" id="color-10"><stop offset="0" stop-color="#ff0000"/><stop offset="1" stop-color="#c30000"/></linearGradient><linearGradient x1="430.49145" y1="27.24114" x2="453.95811" y2="27.24114" gradientUnits="userSpaceOnUse" id="color-11"><stop offset="0" stop-color="#ff0000"/><stop offset="1" stop-color="#c30000"/></linearGradient></defs><g transform="translate(-88.54242,-16.24115)"><g data-paper-data="{&quot;isPaintingLayer&quot;:true}" fill-rule="nonzero" stroke="none" stroke-width="0" stroke-linecap="butt" stroke-linejoin="miter" stroke-miterlimit="10" stroke-dasharray="" stroke-dashoffset="0" style="mix-blend-mode: normal"><path d="M88.54242,253.4132l10.86667,-23.46667l11.13333,23.46667z" fill="url(#color-1)"/><path d="M109.54243,253.4132l10.86666,-23.46666l11.13334,23.46666z" fill="url(#color-2)"/><path d="M130.54242,253.4132l10.86666,-23.46666l11.13334,23.46666z" fill="url(#color-3)"/><path d="M151.54242,253.4132l10.86666,-23.46666l11.13334,23.46666z" fill="url(#color-4)"/><path d="M172.54242,253.4132l10.86666,-23.46666l11.13334,23.46666z" fill="url(#color-5)"/><path d="M193.54242,253.4132l10.86666,-23.46666l11.13334,23.46666z" fill="url(#color-6)"/><path d="M214.54242,253.4132l10.86667,-23.46667l11.13333,23.46667z" fill="url(#color-7)"/><path d="M235.54243,253.4132l10.86666,-23.46666l11.13334,23.46666z" fill="url(#color-8)"/><path d="M256.54243,253.4132l10.86666,-23.46666l11.13334,23.46666z" fill="url(#color-9)"/><path d="M277.45684,253.4132l10.86666,-23.46666l11.13334,23.46666z" fill="url(#color-10)"/><path d="M453.95811,38.24115l-23.46666,-10.86666l23.46666,-11.13334z" fill="url(#color-11)"/></g></g></svg>