<svg version="1.1" xmlns="http://www.w3.org/2000/svg" xmlns:xlink="http://www.w3.org/1999/xlink" width="271.09841" height="51.13334" viewBox="0,0,271.09841,51.13334"><defs><linearGradient x1="90.33336" y1="271.36669" x2="90.33336" y2="322.5" gradientUnits="userSpaceOnUse" id="color-1"><stop offset="0" stop-color="#ff0000"/><stop offset="1" stop-color="#c30000"/></linearGradient><linearGradient x1="111.33336" y1="271.36669" x2="111.33336" y2="322.5" gradientUnits="userSpaceOnUse" id="color-2"><stop offset="0" stop-color="#ff0000"/><stop offset="1" stop-color="#c30000"/></linearGradient><linearGradient x1="201.88315" y1="299.03334" x2="201.88315" y2="322.5" gradientUnits="userSpaceOnUse" id="color-3"><stop offset="0" stop-color="#ff0000"/><stop offset="1" stop-color="#c30000"/></linearGradient><linearGradient x1="297.43175" y1="299.03334" x2="297.43175" y2="322.5" gradientUnits="userSpaceOnUse" id="color-4"><stop offset="0" stop-color="#ff0000"/><stop offset="1" stop-color="#c30000"/></linearGradient><linearGradient x1="318.43175" y1="299.03334" x2="318.43175" y2="322.5" gradientUnits="userSpaceOnUse" id="color-5"><stop offset="0" stop-color="#ff0000"/><stop offset="1" stop-color="#c30000"/></linearGradient><linearGradient x1="339.43175" y1="299.03334" x2="339.43175" y2="322.5" gradientUnits="userSpaceOnUse" id="color-6"><stop offset="0" stop-color="#ff0000"/><stop offset="1" stop-color="#c30000"/></linearGradient></defs><g transform="translate(-79.33335,-271.36666)"><g data-paper-data="{&quot;isPaintingLayer&quot;:true}" fill-rule="nonzero" stroke="none" stroke-width="0" stroke-linecap="butt" stroke-linejoin="miter" stroke-miterlimit="10" stroke-dasharray="" stroke-dashoffset="0" style="mix-blend-mode: normal"><path d="M79.33335,322.5l10.86666,-51.13331l11.13334,51.13331z" fill="url(#color-1)"/><path d="M100.33336,322.5l10.86667,-51.13334l11.13333,51.13334z" fill="url(#color-2)"/><path d="M190.88315,322.5l10.86666,-23.46666l11.13334,23.46666z" fill="url(#color-3)"/><path d="M286.43175,322.5l10.86667,-23.46667l11.13333,23.46667z" fill="url(#color-4)"/><path d="M307.43175,322.5l10.86666,-23.46666l11.13334,23.46666z" fill="url(#color-5)"/><path d="M328.43175,322.5l10.86666,-23.46666l11.13334,23.46666z" fill="url(#color-6)"/></g></g></svg>