<svg version="1.1" xmlns="http://www.w3.org/2000/svg" xmlns:xlink="http://www.w3.org/1999/xlink" width="504.49776" height="363.68512" viewBox="0,0,504.49776,363.68512"><defs><linearGradient x1="47.89909" y1="26.17726" x2="487.14966" y2="26.17726" gradientUnits="userSpaceOnUse" id="color-1"><stop offset="0" stop-color="#cecece"/><stop offset="1" stop-color="#ffffff"/></linearGradient><linearGradient x1="0.33335" y1="335.53335" x2="0.33335" y2="359.00001" gradientUnits="userSpaceOnUse" id="color-2"><stop offset="0" stop-color="#ff0000"/><stop offset="1" stop-color="#c30000"/></linearGradient><linearGradient x1="21.33336" y1="335.53335" x2="21.33336" y2="359.00001" gradientUnits="userSpaceOnUse" id="color-3"><stop offset="0" stop-color="#ff0000"/><stop offset="1" stop-color="#c30000"/></linearGradient><linearGradient x1="42.33335" y1="335.53335" x2="42.33335" y2="359.00001" gradientUnits="userSpaceOnUse" id="color-4"><stop offset="0" stop-color="#ff0000"/><stop offset="1" stop-color="#c30000"/></linearGradient><linearGradient x1="63.33335" y1="335.53335" x2="63.33335" y2="359.00001" gradientUnits="userSpaceOnUse" id="color-5"><stop offset="0" stop-color="#ff0000"/><stop offset="1" stop-color="#c30000"/></linearGradient><linearGradient x1="84.33335" y1="335.53335" x2="84.33335" y2="359.00001" gradientUnits="userSpaceOnUse" id="color-6"><stop offset="0" stop-color="#ff0000"/><stop offset="1" stop-color="#c30000"/></linearGradient><linearGradient x1="105.33335" y1="335.53335" x2="105.33335" y2="359.00001" gradientUnits="userSpaceOnUse" id="color-7"><stop offset="0" stop-color="#ff0000"/><stop offset="1" stop-color="#c30000"/></linearGradient><linearGradient x1="126.33335" y1="335.53335" x2="126.33335" y2="359.00001" gradientUnits="userSpaceOnUse" id="color-8"><stop offset="0" stop-color="#ff0000"/><stop offset="1" stop-color="#c30000"/></linearGradient><linearGradient x1="147.33336" y1="335.53335" x2="147.33336" y2="359.00001" gradientUnits="userSpaceOnUse" id="color-9"><stop offset="0" stop-color="#ff0000"/><stop offset="1" stop-color="#c30000"/></linearGradient><linearGradient x1="168.33337" y1="335.53335" x2="168.33337" y2="359.00001" gradientUnits="userSpaceOnUse" id="color-10"><stop offset="0" stop-color="#ff0000"/><stop offset="1" stop-color="#c30000"/></linearGradient><linearGradient x1="189.33337" y1="335.53335" x2="189.33337" y2="359.00001" gradientUnits="userSpaceOnUse" id="color-11"><stop offset="0" stop-color="#ff0000"/><stop offset="1" stop-color="#c30000"/></linearGradient><linearGradient x1="210.33337" y1="335.53335" x2="210.33337" y2="359.00001" gradientUnits="userSpaceOnUse" id="color-12"><stop offset="0" stop-color="#ff0000"/><stop offset="1" stop-color="#c30000"/></linearGradient><linearGradient x1="231.33335" y1="335.53335" x2="231.33335" y2="359.00001" gradientUnits="userSpaceOnUse" id="color-13"><stop offset="0" stop-color="#ff0000"/><stop offset="1" stop-color="#c30000"/></linearGradient><linearGradient x1="251.83109" y1="335.53335" x2="251.83109" y2="359.00001" gradientUnits="userSpaceOnUse" id="color-14"><stop offset="0" stop-color="#ff0000"/><stop offset="1" stop-color="#c30000"/></linearGradient><linearGradient x1="272.8311" y1="335.53335" x2="272.8311" y2="359.00001" gradientUnits="userSpaceOnUse" id="color-15"><stop offset="0" stop-color="#ff0000"/><stop offset="1" stop-color="#c30000"/></linearGradient><linearGradient x1="293.8311" y1="335.53335" x2="293.8311" y2="359.00001" gradientUnits="userSpaceOnUse" id="color-16"><stop offset="0" stop-color="#ff0000"/><stop offset="1" stop-color="#c30000"/></linearGradient><linearGradient x1="314.8311" y1="335.53335" x2="314.8311" y2="359.00001" gradientUnits="userSpaceOnUse" id="color-17"><stop offset="0" stop-color="#ff0000"/><stop offset="1" stop-color="#c30000"/></linearGradient><linearGradient x1="335.83111" y1="335.53335" x2="335.83111" y2="359.00001" gradientUnits="userSpaceOnUse" id="color-18"><stop offset="0" stop-color="#ff0000"/><stop offset="1" stop-color="#c30000"/></linearGradient><linearGradient x1="356.83111" y1="335.53335" x2="356.83111" y2="359.00001" gradientUnits="userSpaceOnUse" id="color-19"><stop offset="0" stop-color="#ff0000"/><stop offset="1" stop-color="#c30000"/></linearGradient><linearGradient x1="377.8311" y1="335.53335" x2="377.8311" y2="359.00001" gradientUnits="userSpaceOnUse" id="color-20"><stop offset="0" stop-color="#ff0000"/><stop offset="1" stop-color="#c30000"/></linearGradient><linearGradient x1="398.83111" y1="335.53335" x2="398.83111" y2="359.00001" gradientUnits="userSpaceOnUse" id="color-21"><stop offset="0" stop-color="#ff0000"/><stop offset="1" stop-color="#c30000"/></linearGradient><linearGradient x1="419.83111" y1="335.53335" x2="419.83111" y2="359.00001" gradientUnits="userSpaceOnUse" id="color-22"><stop offset="0" stop-color="#ff0000"/><stop offset="1" stop-color="#c30000"/></linearGradient><linearGradient x1="440.83111" y1="335.53335" x2="440.83111" y2="359.00001" gradientUnits="userSpaceOnUse" id="color-23"><stop offset="0" stop-color="#ff0000"/><stop offset="1" stop-color="#c30000"/></linearGradient><linearGradient x1="461.83111" y1="335.53335" x2="461.83111" y2="359.00001" gradientUnits="userSpaceOnUse" id="color-24"><stop offset="0" stop-color="#ff0000"/><stop offset="1" stop-color="#c30000"/></linearGradient><linearGradient x1="482.83111" y1="335.53335" x2="482.83111" y2="359.00001" gradientUnits="userSpaceOnUse" id="color-25"><stop offset="0" stop-color="#ff0000"/><stop offset="1" stop-color="#c30000"/></linearGradient><linearGradient x1="386.06442" y1="130.76668" x2="367.59776" y2="130.76668" gradientUnits="userSpaceOnUse" id="color-26"><stop offset="0" stop-color="#ff0000"/><stop offset="1" stop-color="#c30000"/></linearGradient><linearGradient x1="386.06442" y1="151.76668" x2="367.59776" y2="151.76668" gradientUnits="userSpaceOnUse" id="color-27"><stop offset="0" stop-color="#ff0000"/><stop offset="1" stop-color="#c30000"/></linearGradient><linearGradient x1="386.06442" y1="172.76667" x2="367.59776" y2="172.76667" gradientUnits="userSpaceOnUse" id="color-28"><stop offset="0" stop-color="#ff0000"/><stop offset="1" stop-color="#c30000"/></linearGradient><linearGradient x1="386.06442" y1="193.76668" x2="367.59776" y2="193.76668" gradientUnits="userSpaceOnUse" id="color-29"><stop offset="0" stop-color="#ff0000"/><stop offset="1" stop-color="#c30000"/></linearGradient><linearGradient x1="386.06442" y1="214.76668" x2="367.59776" y2="214.76668" gradientUnits="userSpaceOnUse" id="color-30"><stop offset="0" stop-color="#ff0000"/><stop offset="1" stop-color="#c30000"/></linearGradient><linearGradient x1="386.06442" y1="235.76668" x2="367.59776" y2="235.76668" gradientUnits="userSpaceOnUse" id="color-31"><stop offset="0" stop-color="#ff0000"/><stop offset="1" stop-color="#c30000"/></linearGradient><linearGradient x1="386.06442" y1="256.76668" x2="367.59776" y2="256.76668" gradientUnits="userSpaceOnUse" id="color-32"><stop offset="0" stop-color="#ff0000"/><stop offset="1" stop-color="#c30000"/></linearGradient><linearGradient x1="386.06442" y1="277.76668" x2="367.59776" y2="277.76668" gradientUnits="userSpaceOnUse" id="color-33"><stop offset="0" stop-color="#ff0000"/><stop offset="1" stop-color="#c30000"/></linearGradient><linearGradient x1="428.09777" y1="130.76668" x2="446.56443" y2="130.76668" gradientUnits="userSpaceOnUse" id="color-34"><stop offset="0" stop-color="#ff0000"/><stop offset="1" stop-color="#c30000"/></linearGradient><linearGradient x1="428.09777" y1="151.76668" x2="446.56443" y2="151.76668" gradientUnits="userSpaceOnUse" id="color-35"><stop offset="0" stop-color="#ff0000"/><stop offset="1" stop-color="#c30000"/></linearGradient><linearGradient x1="428.09777" y1="172.76667" x2="446.56443" y2="172.76667" gradientUnits="userSpaceOnUse" id="color-36"><stop offset="0" stop-color="#ff0000"/><stop offset="1" stop-color="#c30000"/></linearGradient><linearGradient x1="428.09777" y1="193.76668" x2="446.56443" y2="193.76668" gradientUnits="userSpaceOnUse" id="color-37"><stop offset="0" stop-color="#ff0000"/><stop offset="1" stop-color="#c30000"/></linearGradient><linearGradient x1="428.09777" y1="214.76668" x2="446.56443" y2="214.76668" gradientUnits="userSpaceOnUse" id="color-38"><stop offset="0" stop-color="#ff0000"/><stop offset="1" stop-color="#c30000"/></linearGradient><linearGradient x1="428.09777" y1="235.76668" x2="446.56443" y2="235.76668" gradientUnits="userSpaceOnUse" id="color-39"><stop offset="0" stop-color="#ff0000"/><stop offset="1" stop-color="#c30000"/></linearGradient><linearGradient x1="428.09777" y1="256.76668" x2="446.56443" y2="256.76668" gradientUnits="userSpaceOnUse" id="color-40"><stop offset="0" stop-color="#ff0000"/><stop offset="1" stop-color="#c30000"/></linearGradient><linearGradient x1="428.09777" y1="277.76668" x2="446.56443" y2="277.76668" gradientUnits="userSpaceOnUse" id="color-41"><stop offset="0" stop-color="#ff0000"/><stop offset="1" stop-color="#c30000"/></linearGradient></defs><g transform="translate(10.66666,4.68511)"><g data-paper-data="{&quot;isPaintingLayer&quot;:true}" fill-rule="nonzero" stroke="none" stroke-width="0" stroke-linecap="butt" stroke-linejoin="miter" stroke-miterlimit="10" stroke-dasharray="" stroke-dashoffset="0" style="mix-blend-mode: normal"><path d="M67.92967,57.03964l-20.03058,-49.9826v-11.74215h439.25057v61.72475z" fill="url(#color-1)"/><path d="M-10.66665,359.00001l10.86667,-23.46667l11.13333,23.46667z" fill="url(#color-2)"/><path d="M10.33335,359.00001l10.86666,-23.46666l11.13334,23.46666z" fill="url(#color-3)"/><path d="M31.33335,359.00001l10.86666,-23.46666l11.13334,23.46666z" fill="url(#color-4)"/><path d="M52.33335,359.00001l10.86666,-23.46666l11.13334,23.46666z" fill="url(#color-5)"/><path d="M73.33334,359.00001l10.86666,-23.46666l11.13334,23.46666z" fill="url(#color-6)"/><path d="M94.33335,359.00001l10.86666,-23.46666l11.13334,23.46666z" fill="url(#color-7)"/><path d="M115.33335,359.00001l10.86667,-23.46667l11.13333,23.46667z" fill="url(#color-8)"/><path d="M136.33336,359.00001l10.86666,-23.46666l11.13334,23.46666z" fill="url(#color-9)"/><path d="M157.33336,359.00001l10.86666,-23.46666l11.13334,23.46666z" fill="url(#color-10)"/><path d="M178.33337,359.00001l10.86666,-23.46666l11.13334,23.46666z" fill="url(#color-11)"/><path d="M199.33337,359.00001l10.86666,-23.46666l11.13334,23.46666z" fill="url(#color-12)"/><path d="M220.33337,359.00001l10.86666,-23.46666l11.13334,23.46666z" fill="url(#color-13)"/><path d="M240.83109,359.00001l10.86667,-23.46667l11.13333,23.46667z" fill="url(#color-14)"/><path d="M261.8311,359.00001l10.86666,-23.46666l11.13334,23.46666z" fill="url(#color-15)"/><path d="M282.8311,359.00001l10.86666,-23.46666l11.13334,23.46666z" fill="url(#color-16)"/><path d="M303.8311,359.00001l10.86666,-23.46666l11.13334,23.46666z" fill="url(#color-17)"/><path d="M324.8311,359.00001l10.86666,-23.46666l11.13334,23.46666z" fill="url(#color-18)"/><path d="M345.83111,359.00001l10.86666,-23.46666l11.13334,23.46666z" fill="url(#color-19)"/><path d="M366.8311,359.00001l10.86667,-23.46667l11.13333,23.46667z" fill="url(#color-20)"/><path d="M387.83111,359.00001l10.86666,-23.46666l11.13334,23.46666z" fill="url(#color-21)"/><path d="M408.83111,359.00001l10.86666,-23.46666l11.13334,23.46666z" fill="url(#color-22)"/><path d="M429.83111,359.00001l10.86666,-23.46666l11.13334,23.46666z" fill="url(#color-23)"/><path d="M450.83111,359.00001l10.86666,-23.46666l11.13334,23.46666z" fill="url(#color-24)"/><path d="M471.83111,359.00001l10.86666,-23.46666l11.13334,23.46666z" fill="url(#color-25)"/><path d="M367.59776,119.76668l18.46666,10.86666l-18.46666,11.13334z" data-paper-data="{&quot;index&quot;:null}" fill="url(#color-26)"/><path d="M367.59776,140.76668l18.46666,10.86666l-18.46666,11.13334z" data-paper-data="{&quot;index&quot;:null}" fill="url(#color-27)"/><path d="M367.59776,161.76667l18.46667,10.86667l-18.46667,11.13333z" data-paper-data="{&quot;index&quot;:null}" fill="url(#color-28)"/><path d="M367.59776,182.76668l18.46666,10.86666l-18.46666,11.13334z" data-paper-data="{&quot;index&quot;:null}" fill="url(#color-29)"/><path d="M367.59776,203.76668l18.46666,10.86666l-18.46666,11.13334z" data-paper-data="{&quot;index&quot;:null}" fill="url(#color-30)"/><path d="M367.59776,224.76668l18.46666,10.86666l-18.46666,11.13334z" data-paper-data="{&quot;index&quot;:null}" fill="url(#color-31)"/><path d="M367.59776,245.76668l18.46666,10.86666l-18.46666,11.13334z" data-paper-data="{&quot;index&quot;:null}" fill="url(#color-32)"/><path d="M367.59776,266.76668l18.46666,10.86666l-18.46666,11.13334z" data-paper-data="{&quot;index&quot;:null}" fill="url(#color-33)"/><path d="M446.56443,141.76668l-18.46666,-11.13334l18.46666,-10.86666z" data-paper-data="{&quot;index&quot;:null}" fill="url(#color-34)"/><path d="M446.56443,162.76668l-18.46666,-11.13334l18.46666,-10.86666z" data-paper-data="{&quot;index&quot;:null}" fill="url(#color-35)"/><path d="M446.56443,183.76667l-18.46667,-11.13333l18.46667,-10.86667z" data-paper-data="{&quot;index&quot;:null}" fill="url(#color-36)"/><path d="M446.56443,204.76668l-18.46666,-11.13334l18.46666,-10.86666z" data-paper-data="{&quot;index&quot;:null}" fill="url(#color-37)"/><path d="M446.56443,225.76668l-18.46666,-11.13334l18.46666,-10.86666z" data-paper-data="{&quot;index&quot;:null}" fill="url(#color-38)"/><path d="M446.56443,246.76668l-18.46666,-11.13334l18.46666,-10.86666z" data-paper-data="{&quot;index&quot;:null}" fill="url(#color-39)"/><path d="M446.56443,267.76668l-18.46666,-11.13334l18.46666,-10.86666z" data-paper-data="{&quot;index&quot;:null}" fill="url(#color-40)"/><path d="M446.56443,288.76668l-18.46666,-11.13334l18.46666,-10.86666z" data-paper-data="{&quot;index&quot;:null}" fill="url(#color-41)"/></g></g></svg>