<svg version="1.1" xmlns="http://www.w3.org/2000/svg" xmlns:xlink="http://www.w3.org/1999/xlink" width="60.71429" height="56.71429" viewBox="0,0,60.71429,56.71429"><g transform="translate(-209.64287,-151.64287)"><g data-paper-data="{&quot;isPaintingLayer&quot;:true}" fill-rule="nonzero" stroke-linejoin="miter" stroke-miterlimit="10" stroke-dasharray="" stroke-dashoffset="0" style="mix-blend-mode: normal"><path d="M221.76192,179.99999c0,-10.07262 8.16546,-18.23809 18.23809,-18.23809c10.07262,0 18.23811,8.16546 18.23811,18.23809c0,10.07262 -8.16548,18.23811 -18.23811,18.23811c-10.07262,0 -18.23809,-8.16548 -18.23809,-18.23811z" fill="#ffffff" stroke="#000000" stroke-width="2" stroke-linecap="butt"/><path d="M236.09156,175.68985c0,0 -0.08858,-4.16887 4.13545,-4.17227c3.75516,-0.00303 3.68239,4.13115 3.6814,4.17227c-0.06494,2.68661 -3.89651,2.24468 -3.89022,4.79971c0.00463,1.88081 0,3.46818 0,3.46818" fill="none" stroke="#adadad" stroke-width="2" stroke-linecap="round"/><path d="M239.02322,187.50563c0,-0.53947 0.43733,-0.9768 0.9768,-0.9768c0.53947,0 0.9768,0.43733 0.9768,0.9768c0,0.53947 -0.43733,0.9768 -0.9768,0.9768c-0.53947,0 -0.9768,-0.43733 -0.9768,-0.9768z" fill="#adadad" stroke="none" stroke-width="0" stroke-linecap="butt"/><path d="M209.64288,208.35717v-56.71429h60.71429v56.71429z" fill="none" stroke="none" stroke-width="0" stroke-linecap="butt"/></g></g></svg>