<svg version="1.1" xmlns="http://www.w3.org/2000/svg" xmlns:xlink="http://www.w3.org/1999/xlink" width="449.15357" height="214.20104" viewBox="0,0,449.15357,214.20104"><defs><linearGradient x1="-12.66666" y1="338.53337" x2="-12.66666" y2="362.00003" gradientUnits="userSpaceOnUse" id="color-1"><stop offset="0" stop-color="#ff0000"/><stop offset="1" stop-color="#c30000"/></linearGradient><linearGradient x1="8.04764" y1="338.53337" x2="8.04764" y2="362.00003" gradientUnits="userSpaceOnUse" id="color-2"><stop offset="0" stop-color="#ff0000"/><stop offset="1" stop-color="#c30000"/></linearGradient><linearGradient x1="27.90477" y1="338.53337" x2="27.90477" y2="362.00003" gradientUnits="userSpaceOnUse" id="color-3"><stop offset="0" stop-color="#ff0000"/><stop offset="1" stop-color="#c30000"/></linearGradient><linearGradient x1="47.90477" y1="338.53337" x2="47.90477" y2="362.00003" gradientUnits="userSpaceOnUse" id="color-4"><stop offset="0" stop-color="#ff0000"/><stop offset="1" stop-color="#c30000"/></linearGradient><linearGradient x1="67.90478" y1="338.53337" x2="67.90478" y2="362.00003" gradientUnits="userSpaceOnUse" id="color-5"><stop offset="0" stop-color="#ff0000"/><stop offset="1" stop-color="#c30000"/></linearGradient><linearGradient x1="87.90478" y1="338.53337" x2="87.90478" y2="362.00003" gradientUnits="userSpaceOnUse" id="color-6"><stop offset="0" stop-color="#ff0000"/><stop offset="1" stop-color="#c30000"/></linearGradient><linearGradient x1="107.54764" y1="338.53337" x2="107.54764" y2="362.00003" gradientUnits="userSpaceOnUse" id="color-7"><stop offset="0" stop-color="#ff0000"/><stop offset="1" stop-color="#c30000"/></linearGradient><linearGradient x1="127.66668" y1="338.53337" x2="127.66668" y2="362.00003" gradientUnits="userSpaceOnUse" id="color-8"><stop offset="0" stop-color="#ff0000"/><stop offset="1" stop-color="#c30000"/></linearGradient><linearGradient x1="123.33335" y1="202.8667" x2="123.33335" y2="226.33336" gradientUnits="userSpaceOnUse" id="color-9"><stop offset="0" stop-color="#ff0000"/><stop offset="1" stop-color="#c30000"/></linearGradient><linearGradient x1="237.19731" y1="239.19008" x2="213.73065" y2="239.19008" gradientUnits="userSpaceOnUse" id="color-10"><stop offset="0" stop-color="#ff0000"/><stop offset="1" stop-color="#c30000"/></linearGradient><linearGradient x1="237.19731" y1="260.19009" x2="213.73065" y2="260.19009" gradientUnits="userSpaceOnUse" id="color-11"><stop offset="0" stop-color="#ff0000"/><stop offset="1" stop-color="#c30000"/></linearGradient><linearGradient x1="237.19731" y1="281.19009" x2="213.73065" y2="281.19009" gradientUnits="userSpaceOnUse" id="color-12"><stop offset="0" stop-color="#ff0000"/><stop offset="1" stop-color="#c30000"/></linearGradient><linearGradient x1="237.19731" y1="302.19009" x2="213.73065" y2="302.19009" gradientUnits="userSpaceOnUse" id="color-13"><stop offset="0" stop-color="#ff0000"/><stop offset="1" stop-color="#c30000"/></linearGradient><linearGradient x1="237.19731" y1="323.19009" x2="213.73065" y2="323.19009" gradientUnits="userSpaceOnUse" id="color-14"><stop offset="0" stop-color="#ff0000"/><stop offset="1" stop-color="#c30000"/></linearGradient><linearGradient x1="237.19731" y1="344.19011" x2="213.73065" y2="344.19011" gradientUnits="userSpaceOnUse" id="color-15"><stop offset="0" stop-color="#ff0000"/><stop offset="1" stop-color="#c30000"/></linearGradient><linearGradient x1="237.19731" y1="365.19011" x2="213.73065" y2="365.19011" gradientUnits="userSpaceOnUse" id="color-16"><stop offset="0" stop-color="#ff0000"/><stop offset="1" stop-color="#c30000"/></linearGradient><linearGradient x1="400.85933" y1="300.82387" x2="424.15275" y2="297.97765" gradientUnits="userSpaceOnUse" id="color-17"><stop offset="0" stop-color="#ff0000"/><stop offset="1" stop-color="#c30000"/></linearGradient><linearGradient x1="398.31229" y1="279.9789" x2="421.6057" y2="277.13268" gradientUnits="userSpaceOnUse" id="color-18"><stop offset="0" stop-color="#ff0000"/><stop offset="1" stop-color="#c30000"/></linearGradient><linearGradient x1="395.76524" y1="259.13394" x2="419.05866" y2="256.28772" gradientUnits="userSpaceOnUse" id="color-19"><stop offset="0" stop-color="#ff0000"/><stop offset="1" stop-color="#c30000"/></linearGradient><linearGradient x1="393.2182" y1="238.28898" x2="416.51161" y2="235.44276" gradientUnits="userSpaceOnUse" id="color-20"><stop offset="0" stop-color="#ff0000"/><stop offset="1" stop-color="#c30000"/></linearGradient><linearGradient x1="390.67115" y1="217.44401" x2="413.96457" y2="214.59778" gradientUnits="userSpaceOnUse" id="color-21"><stop offset="0" stop-color="#ff0000"/><stop offset="1" stop-color="#c30000"/></linearGradient><linearGradient x1="388.12411" y1="196.59904" x2="411.41752" y2="193.75282" gradientUnits="userSpaceOnUse" id="color-22"><stop offset="0" stop-color="#ff0000"/><stop offset="1" stop-color="#c30000"/></linearGradient><linearGradient x1="385.57706" y1="175.75408" x2="408.87047" y2="172.90785" gradientUnits="userSpaceOnUse" id="color-23"><stop offset="0" stop-color="#ff0000"/><stop offset="1" stop-color="#c30000"/></linearGradient></defs><g transform="translate(23.66666,-161.98906)"><g data-paper-data="{&quot;isPaintingLayer&quot;:true}" fill-rule="nonzero" stroke="none" stroke-width="0" stroke-linecap="butt" stroke-linejoin="miter" stroke-miterlimit="10" stroke-dasharray="" stroke-dashoffset="0" style="mix-blend-mode: normal"><path d="M-23.66666,362.00003l10.86667,-23.46667l11.13333,23.46667z" fill="url(#color-1)"/><path d="M-2.95236,362.00003l10.86666,-23.46666l11.13334,23.46666z" fill="url(#color-2)"/><path d="M16.90477,362.00003l10.86666,-23.46666l11.13334,23.46666z" fill="url(#color-3)"/><path d="M36.90477,362.00003l10.86666,-23.46666l11.13334,23.46666z" fill="url(#color-4)"/><path d="M56.90477,362.00003l10.86666,-23.46666l11.13334,23.46666z" fill="url(#color-5)"/><path d="M76.90478,362.00003l10.86666,-23.46666l11.13334,23.46666z" fill="url(#color-6)"/><path d="M96.54764,362.00003l10.86667,-23.46667l11.13333,23.46667z" fill="url(#color-7)"/><path d="M116.66668,362.00003l10.86666,-23.46666l11.13334,23.46666z" fill="url(#color-8)"/><path d="M112.33335,226.33336l10.86666,-23.46666l11.13334,23.46666z" fill="url(#color-9)"/><path d="M213.73065,228.19008l23.46666,10.86666l-23.46666,11.13334z" fill="url(#color-10)"/><path d="M213.73065,249.19008l23.46666,10.86666l-23.46666,11.13334z" fill="url(#color-11)"/><path d="M213.73065,270.19009l23.46666,10.86666l-23.46666,11.13334z" fill="url(#color-12)"/><path d="M213.73065,291.19009l23.46667,10.86667l-23.46667,11.13333z" fill="url(#color-13)"/><path d="M213.73065,312.19009l23.46666,10.86666l-23.46666,11.13334z" fill="url(#color-14)"/><path d="M213.73065,333.19009l23.46666,10.86666l-23.46666,11.13334z" fill="url(#color-15)"/><path d="M213.73065,354.19011l23.46666,10.86666l-23.46666,11.13334z" fill="url(#color-16)"/><path d="M425.48691,308.89644l-24.61142,-7.94022l21.94309,-13.89736z" fill="url(#color-17)"/><path d="M422.93987,288.05147l-24.61141,-7.94021l21.94308,-13.89737z" fill="url(#color-18)"/><path d="M420.39282,267.20651l-24.61141,-7.94021l21.94308,-13.89737z" fill="url(#color-19)"/><path d="M417.84578,246.36155l-24.61141,-7.94021l21.94308,-13.89737z" fill="url(#color-20)"/><path d="M415.29873,225.51659l-24.61141,-7.94021l21.94308,-13.89737z" fill="url(#color-21)"/><path d="M412.75169,204.67161l-24.61141,-7.94021l21.94308,-13.89737z" fill="url(#color-22)"/><path d="M410.20464,183.82665l-24.61142,-7.94022l21.94309,-13.89736z" fill="url(#color-23)"/></g></g></svg>