<svg version="1.1" xmlns="http://www.w3.org/2000/svg" xmlns:xlink="http://www.w3.org/1999/xlink" width="814.00001" height="756.68516" viewBox="0,0,814.00001,756.68516"><defs><radialGradient cx="324" cy="39" r="54" gradientUnits="userSpaceOnUse" id="color-1"><stop offset="0" stop-color="#fffe00"/><stop offset="1" stop-color="#fffe00" stop-opacity="0"/></radialGradient><linearGradient x1="118.16894" y1="74.49034" x2="118.16894" y2="125.49099" gradientUnits="userSpaceOnUse" id="color-2"><stop offset="0" stop-color="#ffffff" stop-opacity="0.5"/><stop offset="1" stop-color="#ffffff"/></linearGradient><linearGradient x1="385.232" y1="75.9528" x2="385.232" y2="126.95345" gradientUnits="userSpaceOnUse" id="color-3"><stop offset="0" stop-color="#ffffff" stop-opacity="0.5"/><stop offset="1" stop-color="#ffffff"/></linearGradient><linearGradient x1="205.50001" y1="169" x2="205.50001" y2="690.50001" gradientUnits="userSpaceOnUse" id="color-4"><stop offset="0" stop-color="#a3bdd0" stop-opacity="0.79839"/><stop offset="1" stop-color="#572900" stop-opacity="0.79839"/></linearGradient><linearGradient x1="294.63923" y1="-66.18515" x2="294.63923" y2="15.49099" gradientUnits="userSpaceOnUse" id="color-5"><stop offset="0" stop-color="#ffffff" stop-opacity="0.5"/><stop offset="1" stop-color="#ffffff"/></linearGradient></defs><g transform="translate(201.5,66.18515)"><g data-paper-data="{&quot;isPaintingLayer&quot;:true}" fill-rule="nonzero" stroke="none" stroke-linecap="butt" stroke-linejoin="miter" stroke-miterlimit="10" stroke-dasharray="" stroke-dashoffset="0" style="mix-blend-mode: normal"><path d="M-71.5,402v-444h623v444z" fill="#8ccfff" stroke-width="0"/><g><path d="M297,39c0,-14.91169 12.08831,-27 27,-27c14.91169,0 27,12.08831 27,27c0,14.91169 -12.08831,27 -27,27c-14.91169,0 -27,-12.08831 -27,-27z" fill="#fffe00" stroke-width="NaN"/><path d="M270,39c0,-29.82338 24.17662,-54 54,-54c29.82338,0 54,24.17662 54,54c0,29.82338 -24.17662,54 -54,54c-29.82338,0 -54,-24.17662 -54,-54z" fill="url(#color-1)" stroke-width="NaN"/></g><path d="M70.47747,124.99098c-32.10403,-0.07609 -42.33006,-38.21273 -11.87695,-40.04085c16.38557,-0.98364 23.86992,4.9492 23.86992,4.9492c0,0 16.9488,-12.25788 28.57407,-12.60595c6.98566,-0.20915 26.88393,5.40156 26.88393,5.40156c0,0 17.37694,-8.17162 25.04904,-8.20395c22.14529,-0.09333 33,9.86445 33,24.5c0,14.63555 -22.83348,26.5 -51,26.5c-28.16652,0 -56.49954,-0.45734 -74.5,-0.5z" fill="url(#color-2)" stroke-width="0"/><path d="M432.92346,126.45345c-18.00046,0.04266 -46.33348,0.5 -74.5,0.5c-28.16652,0 -51,-11.86445 -51,-26.5c0,-14.63555 10.8547,-24.59333 33,-24.5c7.6721,0.03234 25.04904,8.20396 25.04904,8.20396c0,0 26.89827,-7.11071 33.88392,-6.90156c33.12527,-1.65194 29.05843,8.17311 45.44399,9.15675c30.45311,1.82812 20.22708,39.96476 -11.87696,40.04085z" data-paper-data="{&quot;index&quot;:null}" fill="url(#color-3)" stroke-width="0"/><path d="M-201.5,690l4,-325l246,-196l103,171l105.08641,-113.57952l67.56068,96.93629l93.31782,-148.39474l191.0351,190.03798l4,325.5z" fill="url(#color-4)" stroke-width="0"/><path d="M48.75,240.5l-14.46714,-27.55902l-14.87962,23.03114l-9.49881,-19.46196l-29.15443,6.48984l67.5,-55l43,72l-30,-26z" fill-opacity="0.79839" fill="#ffffff" stroke-width="0"/><path d="M263.75,309l-13.96714,-33.05902l-13.37963,32.03115l-8.99881,-24.96196l-23.15443,-0.01016l54.5,-58l49,72.5l-31,-19.5z" fill-opacity="0.79839" fill="#ffffff" stroke-width="0"/><path d="M403.25,219.5l-30,26l43,-72l63,65l-25.65443,-8.48984l-10.49881,33.46196l-13.37963,-48.53115l-13.46714,36.55902z" data-paper-data="{&quot;index&quot;:null}" fill-opacity="0.79839" fill="#ffffff" stroke-width="0"/><path d="M215.96474,14.66745c-52.87696,-0.12532 -69.71975,-59.9383 -19.56194,-62.9493c19.98786,-0.6201 30.31497,17.15158 30.31497,17.15158c0,0 14.91553,-20.18935 34.06294,-20.76264c11.50574,-0.34448 37.27919,12.89664 37.27919,12.89664c0,0 24.6207,-26.45907 42.25704,-26.51232c17.25653,-0.05194 31.39837,25.37749 31.39837,25.37749c0,0 11.24234,-25.99685 32.72572,-26.05396c22.01789,-0.05854 18.22858,29.89235 18.22858,38.02921c0,24.10549 -37.6079,43.64684 -83.99958,43.64684c-46.39168,0 -93.0576,-0.75326 -122.70527,-0.82353z" fill="url(#color-5)" stroke-width="0"/></g></g></svg>