<svg version="1.1" xmlns="http://www.w3.org/2000/svg" xmlns:xlink="http://www.w3.org/1999/xlink" width="623" height="444" viewBox="0,0,623,444"><defs><radialGradient cx="324" cy="39.00001" r="54" gradientUnits="userSpaceOnUse" id="color-1"><stop offset="0" stop-color="#fffe00"/><stop offset="1" stop-color="#fffe00" stop-opacity="0"/></radialGradient><linearGradient x1="120.16894" y1="244.05793" x2="120.16894" y2="295.05858" gradientUnits="userSpaceOnUse" id="color-2"><stop offset="0" stop-color="#ffffff" stop-opacity="0.5"/><stop offset="1" stop-color="#d1d1d1" stop-opacity="0.5"/></linearGradient><linearGradient x1="391.232" y1="243.52038" x2="391.232" y2="294.52103" gradientUnits="userSpaceOnUse" id="color-3"><stop offset="0" stop-color="#ffffff" stop-opacity="0.5"/><stop offset="1" stop-color="#d1d1d1" stop-opacity="0.5"/></linearGradient><linearGradient x1="299.63923" y1="102.38243" x2="299.63923" y2="184.05857" gradientUnits="userSpaceOnUse" id="color-4"><stop offset="0" stop-color="#ffffff" stop-opacity="0.5"/><stop offset="1" stop-color="#d1d1d1" stop-opacity="0.5"/></linearGradient><linearGradient x1="45.20971" y1="70.38242" x2="45.20971" y2="146.05858" gradientUnits="userSpaceOnUse" id="color-5"><stop offset="0" stop-color="#ffffff" stop-opacity="0.5"/><stop offset="1" stop-color="#d1d1d1" stop-opacity="0.5"/></linearGradient></defs><g transform="translate(71.5,42)"><g data-paper-data="{&quot;isPaintingLayer&quot;:true}" fill-rule="nonzero" stroke="none" stroke-linecap="butt" stroke-linejoin="miter" stroke-miterlimit="10" stroke-dasharray="" stroke-dashoffset="0" style="mix-blend-mode: normal"><path d="M-71.5,402v-444h623v444z" fill="#0b99ff" stroke-width="0"/><g><path d="M297,39.00001c0,-14.91169 12.08831,-27 27,-27c14.91169,0 27,12.08831 27,27c0,14.91169 -12.08831,27 -27,27c-14.91169,0 -27,-12.08831 -27,-27z" fill="#fffe00" stroke-width="NaN"/><path d="M270,39.00001c0,-29.82338 24.17662,-54 54,-54c29.82338,0 54,24.17662 54,54c0,29.82338 -24.17662,54 -54,54c-29.82338,0 -54,-24.17662 -54,-54z" fill="url(#color-1)" stroke-width="NaN"/></g><path d="M72.47747,294.55857c-32.10403,-0.07609 -42.33006,-38.21273 -11.87695,-40.04085c16.38557,-0.98364 23.86992,4.9492 23.86992,4.9492c0,0 16.9488,-12.25788 28.57407,-12.60595c6.98566,-0.20915 26.88393,5.40156 26.88393,5.40156c0,0 17.37694,-8.17162 25.04904,-8.20395c22.14529,-0.09333 33,9.86445 33,24.5c0,14.63555 -22.83348,26.5 -51,26.5c-28.16652,0 -56.49954,-0.45734 -74.5,-0.5z" fill="url(#color-2)" stroke-width="0"/><path d="M438.92346,294.02103c-18.00046,0.04266 -46.33348,0.5 -74.5,0.5c-28.16652,0 -51,-11.86445 -51,-26.5c0,-14.63555 10.8547,-24.59333 33,-24.5c7.6721,0.03234 25.04904,8.20396 25.04904,8.20396c0,0 26.89827,-7.11071 33.88392,-6.90156c33.12527,-1.65194 29.05843,8.17311 45.44399,9.15675c30.45311,1.82812 20.22708,39.96476 -11.87696,40.04085z" data-paper-data="{&quot;index&quot;:null}" fill="url(#color-3)" stroke-width="0"/><path d="M220.96474,183.23503c-52.87696,-0.12532 -69.71975,-59.9383 -19.56194,-62.9493c19.98786,-0.6201 30.31497,17.15158 30.31497,17.15158c0,0 14.91553,-20.18935 34.06294,-20.76264c11.50574,-0.34448 37.27919,12.89664 37.27919,12.89664c0,0 24.6207,-26.45907 42.25704,-26.51232c17.25653,-0.05194 31.39837,25.37749 31.39837,25.37749c0,0 11.24234,-25.99685 32.72572,-26.05396c22.01789,-0.05854 18.22858,29.89235 18.22858,38.02921c0,24.10549 -37.6079,43.64684 -83.99958,43.64684c-46.39168,0 -93.0576,-0.75326 -122.70527,-0.82353z" fill="url(#color-4)" stroke-width="0"/><path d="M89.77509,145.23505c-16.82057,0.07027 -43.29642,0.82353 -69.61668,0.82353c-26.32026,0 -47.65706,-19.54135 -47.65706,-43.64684c0,-8.13686 2.85014,-32.08775 15.34196,-32.02921c20.18857,1.05711 32.5669,19.05396 32.5669,19.05396c0,0 16.41084,-16.10629 30.93861,-15.76181c22.86326,1.57329 24.32557,21.76264 24.32557,21.76264c0,0 9.85907,-14.77168 25.19916,-13.15158c28.45697,3.011 18.90124,62.82398 -11.09844,62.9493z" data-paper-data="{&quot;index&quot;:null}" fill="url(#color-5)" stroke-width="0"/></g></g></svg>