<svg version="1.1" xmlns="http://www.w3.org/2000/svg" xmlns:xlink="http://www.w3.org/1999/xlink" width="499.99277" height="383.27612" viewBox="0,0,499.99277,383.27612"><g transform="translate(7.91306,12.49072)"><g data-paper-data="{&quot;isPaintingLayer&quot;:true}" fill-rule="nonzero" stroke="none" stroke-width="0" stroke-linecap="butt" stroke-linejoin="miter" stroke-miterlimit="10" stroke-dasharray="" stroke-dashoffset="0" style="mix-blend-mode: normal"><path d="M-0.42366,244.64734v-250.5h68v250.5z" fill="#aaaaaa"/><path d="M372.59891,317.36807v53.41733h-166.43736v-53.41733z" data-paper-data="{&quot;index&quot;:null}" fill="#000000"/><path d="M492.07972,-12.49072v381.14278h-42.00497v-381.14278z" data-paper-data="{&quot;index&quot;:null}" fill="#000000"/><path d="M59.82712,257.17553v-265.44238h21.8783v265.44238z" fill="#000000"/><path d="M65.4651,38.68981v-50.86154h335.14957v50.86154z" fill="#000000"/><path d="M401.13244,151.35311v-34.86029h59.6442v34.86029z" fill="#000000"/><path d="M256.2949,65.28084l-65.35207,-66.96173h209.89926v66.96173z" fill="#000000"/><path d="M-6.42701,188.69194v-196.95879h30.3783v196.95879z" fill="#000000"/><path d="M74.65773,257.50917h-82.57079v-22.04497h82.57079z" fill="#000000"/><path d="M81.63196,249.66749v-32.61994h96.52821v32.61995z" fill="#5479ff"/><path d="M206.71773,317.28299v-32.61994h96.52821v32.61994z" fill="#ff5d5d"/><path d="M81.55106,194.28299v-32.61994h96.52821v32.61994z" fill="#ff5d5d"/><path d="M304.79864,149.66749v-32.61994h96.52821v32.61995z" fill="#5479ff"/><path d="M208.37809,149.83239v-32.61994h96.52821v32.61994z" fill="#72ff4e"/></g></g></svg>