<svg version="1.1" xmlns="http://www.w3.org/2000/svg" xmlns:xlink="http://www.w3.org/1999/xlink" width="48.16667" height="48.16667" viewBox="0,0,48.16667,48.16667"><defs><radialGradient cx="240" cy="180" r="24.08333" gradientUnits="userSpaceOnUse" id="color-1"><stop offset="0" stop-color="#000000"/><stop offset="1" stop-color="#000000" stop-opacity="0"/></radialGradient><linearGradient x1="244.86811" y1="169.26992" x2="244.86811" y2="182.27858" gradientUnits="userSpaceOnUse" id="color-2"><stop offset="0" stop-color="#8000ff" stop-opacity="0"/><stop offset="1" stop-color="#8000ff"/></linearGradient><linearGradient x1="235.1319" y1="169.26992" x2="235.1319" y2="182.27858" gradientUnits="userSpaceOnUse" id="color-3"><stop offset="0" stop-color="#8000ff" stop-opacity="0"/><stop offset="1" stop-color="#8000ff"/></linearGradient><linearGradient x1="240.03804" y1="169.26992" x2="240.03804" y2="182.27858" gradientUnits="userSpaceOnUse" id="color-4"><stop offset="0" stop-color="#8000ff" stop-opacity="0"/><stop offset="1" stop-color="#8000ff"/></linearGradient></defs><g transform="translate(-215.91666,-155.91666)"><g data-paper-data="{&quot;isPaintingLayer&quot;:true}" fill-rule="nonzero" stroke-linecap="butt" stroke-linejoin="miter" stroke-miterlimit="10" stroke-dasharray="" stroke-dashoffset="0" style="mix-blend-mode: normal"><path d="M215.91667,180c0,-13.30086 10.78248,-24.08334 24.08334,-24.08334c13.30086,0 24.08333,10.78248 24.08333,24.08334c0,13.30086 -10.78247,24.08334 -24.08333,24.08334c-13.30086,0 -24.08334,-10.78248 -24.08334,-24.08334z" fill="url(#color-1)" stroke="none" stroke-width="0"/><path d="M225.87041,180c0,-7.80356 6.32603,-14.12959 14.12959,-14.12959c7.80356,0 14.12959,6.32603 14.12959,14.12959c0,7.80356 -6.32603,14.12959 -14.12959,14.12959c-7.80356,0 -14.12959,-6.32603 -14.12959,-14.12959z" fill="#ffffff" stroke="#000000" stroke-width="2"/><path d="M243.91731,182.27858v-13.00865h1.90161v13.00865z" fill="url(#color-2)" stroke="none" stroke-width="0"/><path d="M234.18108,182.27858v-13.00865h1.90161v13.00865z" fill="url(#color-3)" stroke="none" stroke-width="0"/><path d="M237.9843,182.27858v-13.00865h4.10747v13.00865z" fill="url(#color-4)" stroke="none" stroke-width="0"/><path d="M234.45983,182.55212h10.99767l3.55563,3.55563h-18.02626z" data-paper-data="{&quot;index&quot;:null}" fill="#ffffff" stroke="#000000" stroke-width="2"/></g></g></svg>