<svg version="1.1" xmlns="http://www.w3.org/2000/svg" xmlns:xlink="http://www.w3.org/1999/xlink" width="51.85469" height="56.58343" viewBox="0,0,51.85469,56.58343"><g transform="translate(-213.75816,-155.75955)"><g data-paper-data="{&quot;isPaintingLayer&quot;:true}" fill-rule="nonzero" stroke="#000000" stroke-width="2.5" stroke-linecap="butt" stroke-linejoin="miter" stroke-miterlimit="10" stroke-dasharray="" stroke-dashoffset="0" style="mix-blend-mode: normal"><path d="M214.08437,186.79343l1.1721,-9.74105c0,0 11.52576,1.74174 17.73365,4.79379c5.86574,2.88384 10.37408,9.01438 10.37408,9.01438l-5.48028,3.79138c0,0 -4.88142,-4.61154 -9.7564,-6.28358c-5.46708,-1.87513 -14.04316,-1.57492 -14.04316,-1.57492z" fill="#ffffff"/><path d="M240.54651,157.01382c15.30429,-0.35812 20.24034,21.89178 23.81634,35.1533c1.78045,6.60278 -1.30975,11.9635 -1.30975,11.9635l-8.63709,0.72351c0,0 -2.0077,-16.02708 -5.21896,-16.36347c-3.0574,-0.32028 -6.03104,2.02522 -6.03104,2.02522c0,0 -4.77548,-6.13593 -9.85527,-8.45937c-7.101,-3.24792 -18.1214,-5.37307 -18.1214,-5.37307c0,0 3.15607,-19.15011 25.35717,-19.66962z" fill="#ff0000"/><path d="M254.02271,206.23312c0,-2.68403 2.17584,-4.85986 4.85986,-4.85986c2.68403,0 4.85986,2.17584 4.85986,4.85986c0,2.68403 -2.17584,4.85986 -4.85986,4.85986c-2.68403,0 -4.85986,-2.17584 -4.85986,-4.85986z" fill="#ffffff"/></g></g></svg>