<svg version="1.1" xmlns="http://www.w3.org/2000/svg" xmlns:xlink="http://www.w3.org/1999/xlink" width="242.46666" height="399.49776" viewBox="0,0,242.46666,399.49776"><defs><linearGradient x1="145.31555" y1="-14.23822" x2="121.84889" y2="-14.23822" gradientUnits="userSpaceOnUse" id="color-1"><stop offset="0" stop-color="#ff0000"/><stop offset="1" stop-color="#c30000"/></linearGradient><linearGradient x1="145.31555" y1="6.76179" x2="121.84889" y2="6.76179" gradientUnits="userSpaceOnUse" id="color-2"><stop offset="0" stop-color="#ff0000"/><stop offset="1" stop-color="#c30000"/></linearGradient><linearGradient x1="145.31555" y1="27.76178" x2="121.84889" y2="27.76178" gradientUnits="userSpaceOnUse" id="color-3"><stop offset="0" stop-color="#ff0000"/><stop offset="1" stop-color="#c30000"/></linearGradient><linearGradient x1="145.31555" y1="48.76178" x2="121.84889" y2="48.76178" gradientUnits="userSpaceOnUse" id="color-4"><stop offset="0" stop-color="#ff0000"/><stop offset="1" stop-color="#c30000"/></linearGradient><linearGradient x1="145.31555" y1="69.76178" x2="121.84889" y2="69.76178" gradientUnits="userSpaceOnUse" id="color-5"><stop offset="0" stop-color="#ff0000"/><stop offset="1" stop-color="#c30000"/></linearGradient><linearGradient x1="145.31555" y1="90.76178" x2="121.84889" y2="90.76178" gradientUnits="userSpaceOnUse" id="color-6"><stop offset="0" stop-color="#ff0000"/><stop offset="1" stop-color="#c30000"/></linearGradient><linearGradient x1="145.31555" y1="111.76178" x2="121.84889" y2="111.76178" gradientUnits="userSpaceOnUse" id="color-7"><stop offset="0" stop-color="#ff0000"/><stop offset="1" stop-color="#c30000"/></linearGradient><linearGradient x1="145.31555" y1="132.76179" x2="121.84889" y2="132.76179" gradientUnits="userSpaceOnUse" id="color-8"><stop offset="0" stop-color="#ff0000"/><stop offset="1" stop-color="#c30000"/></linearGradient><linearGradient x1="145.31555" y1="153.7618" x2="121.84889" y2="153.7618" gradientUnits="userSpaceOnUse" id="color-9"><stop offset="0" stop-color="#ff0000"/><stop offset="1" stop-color="#c30000"/></linearGradient><linearGradient x1="145.31555" y1="174.7618" x2="121.84889" y2="174.7618" gradientUnits="userSpaceOnUse" id="color-10"><stop offset="0" stop-color="#ff0000"/><stop offset="1" stop-color="#c30000"/></linearGradient><linearGradient x1="145.31555" y1="195.7618" x2="121.84889" y2="195.7618" gradientUnits="userSpaceOnUse" id="color-11"><stop offset="0" stop-color="#ff0000"/><stop offset="1" stop-color="#c30000"/></linearGradient><linearGradient x1="145.31555" y1="216.76178" x2="121.84889" y2="216.76178" gradientUnits="userSpaceOnUse" id="color-12"><stop offset="0" stop-color="#ff0000"/><stop offset="1" stop-color="#c30000"/></linearGradient><linearGradient x1="145.31555" y1="237.25952" x2="121.84889" y2="237.25952" gradientUnits="userSpaceOnUse" id="color-13"><stop offset="0" stop-color="#ff0000"/><stop offset="1" stop-color="#c30000"/></linearGradient><linearGradient x1="145.31555" y1="256.00954" x2="121.84889" y2="256.00954" gradientUnits="userSpaceOnUse" id="color-14"><stop offset="0" stop-color="#ff0000"/><stop offset="1" stop-color="#c30000"/></linearGradient><linearGradient x1="340.66812" y1="-14.23822" x2="364.13478" y2="-14.23822" gradientUnits="userSpaceOnUse" id="color-15"><stop offset="0" stop-color="#ff0000"/><stop offset="1" stop-color="#c30000"/></linearGradient><linearGradient x1="340.66812" y1="6.76179" x2="364.13478" y2="6.76179" gradientUnits="userSpaceOnUse" id="color-16"><stop offset="0" stop-color="#ff0000"/><stop offset="1" stop-color="#c30000"/></linearGradient><linearGradient x1="340.66812" y1="27.76178" x2="364.13478" y2="27.76178" gradientUnits="userSpaceOnUse" id="color-17"><stop offset="0" stop-color="#ff0000"/><stop offset="1" stop-color="#c30000"/></linearGradient><linearGradient x1="340.66812" y1="48.76178" x2="364.13478" y2="48.76178" gradientUnits="userSpaceOnUse" id="color-18"><stop offset="0" stop-color="#ff0000"/><stop offset="1" stop-color="#c30000"/></linearGradient><linearGradient x1="340.66812" y1="69.76178" x2="364.13478" y2="69.76178" gradientUnits="userSpaceOnUse" id="color-19"><stop offset="0" stop-color="#ff0000"/><stop offset="1" stop-color="#c30000"/></linearGradient><linearGradient x1="340.66812" y1="90.76178" x2="364.13478" y2="90.76178" gradientUnits="userSpaceOnUse" id="color-20"><stop offset="0" stop-color="#ff0000"/><stop offset="1" stop-color="#c30000"/></linearGradient><linearGradient x1="340.66812" y1="111.76178" x2="364.13478" y2="111.76178" gradientUnits="userSpaceOnUse" id="color-21"><stop offset="0" stop-color="#ff0000"/><stop offset="1" stop-color="#c30000"/></linearGradient><linearGradient x1="340.66812" y1="132.76179" x2="364.13478" y2="132.76179" gradientUnits="userSpaceOnUse" id="color-22"><stop offset="0" stop-color="#ff0000"/><stop offset="1" stop-color="#c30000"/></linearGradient><linearGradient x1="340.66812" y1="153.7618" x2="364.13478" y2="153.7618" gradientUnits="userSpaceOnUse" id="color-23"><stop offset="0" stop-color="#ff0000"/><stop offset="1" stop-color="#c30000"/></linearGradient><linearGradient x1="340.66812" y1="174.7618" x2="364.13478" y2="174.7618" gradientUnits="userSpaceOnUse" id="color-24"><stop offset="0" stop-color="#ff0000"/><stop offset="1" stop-color="#c30000"/></linearGradient><linearGradient x1="340.66812" y1="195.7618" x2="364.13478" y2="195.7618" gradientUnits="userSpaceOnUse" id="color-25"><stop offset="0" stop-color="#ff0000"/><stop offset="1" stop-color="#c30000"/></linearGradient><linearGradient x1="340.66812" y1="216.76178" x2="364.13478" y2="216.76178" gradientUnits="userSpaceOnUse" id="color-26"><stop offset="0" stop-color="#ff0000"/><stop offset="1" stop-color="#c30000"/></linearGradient><linearGradient x1="340.66812" y1="237.25952" x2="364.13478" y2="237.25952" gradientUnits="userSpaceOnUse" id="color-27"><stop offset="0" stop-color="#ff0000"/><stop offset="1" stop-color="#c30000"/></linearGradient><linearGradient x1="340.66812" y1="258.25954" x2="364.13478" y2="258.25954" gradientUnits="userSpaceOnUse" id="color-28"><stop offset="0" stop-color="#ff0000"/><stop offset="1" stop-color="#c30000"/></linearGradient><linearGradient x1="340.66812" y1="279.25954" x2="364.13478" y2="279.25954" gradientUnits="userSpaceOnUse" id="color-29"><stop offset="0" stop-color="#ff0000"/><stop offset="1" stop-color="#c30000"/></linearGradient><linearGradient x1="340.66812" y1="300.25954" x2="364.13478" y2="300.25954" gradientUnits="userSpaceOnUse" id="color-30"><stop offset="0" stop-color="#ff0000"/><stop offset="1" stop-color="#c30000"/></linearGradient><linearGradient x1="340.66812" y1="321.25954" x2="364.13478" y2="321.25954" gradientUnits="userSpaceOnUse" id="color-31"><stop offset="0" stop-color="#ff0000"/><stop offset="1" stop-color="#c30000"/></linearGradient><linearGradient x1="340.66812" y1="342.25954" x2="364.13478" y2="342.25954" gradientUnits="userSpaceOnUse" id="color-32"><stop offset="0" stop-color="#ff0000"/><stop offset="1" stop-color="#c30000"/></linearGradient><linearGradient x1="340.66812" y1="363.25953" x2="364.13478" y2="363.25953" gradientUnits="userSpaceOnUse" id="color-33"><stop offset="0" stop-color="#ff0000"/><stop offset="1" stop-color="#c30000"/></linearGradient><linearGradient x1="280.15145" y1="300.78147" x2="280.15146" y2="324.24813" gradientUnits="userSpaceOnUse" id="color-34"><stop offset="0" stop-color="#ff0000"/><stop offset="1" stop-color="#c30000"/></linearGradient><linearGradient x1="259.15145" y1="300.78147" x2="259.15146" y2="324.24813" gradientUnits="userSpaceOnUse" id="color-35"><stop offset="0" stop-color="#ff0000"/><stop offset="1" stop-color="#c30000"/></linearGradient><linearGradient x1="238.15144" y1="300.78147" x2="238.15145" y2="324.24813" gradientUnits="userSpaceOnUse" id="color-36"><stop offset="0" stop-color="#ff0000"/><stop offset="1" stop-color="#c30000"/></linearGradient><linearGradient x1="217.15143" y1="300.78147" x2="217.15144" y2="324.24813" gradientUnits="userSpaceOnUse" id="color-37"><stop offset="0" stop-color="#ff0000"/><stop offset="1" stop-color="#c30000"/></linearGradient><linearGradient x1="196.15144" y1="300.78147" x2="196.15144" y2="324.24813" gradientUnits="userSpaceOnUse" id="color-38"><stop offset="0" stop-color="#ff0000"/><stop offset="1" stop-color="#c30000"/></linearGradient><linearGradient x1="175.15144" y1="300.78147" x2="175.15144" y2="324.24813" gradientUnits="userSpaceOnUse" id="color-39"><stop offset="0" stop-color="#ff0000"/><stop offset="1" stop-color="#c30000"/></linearGradient><linearGradient x1="154.15145" y1="300.78147" x2="154.15145" y2="324.24813" gradientUnits="userSpaceOnUse" id="color-40"><stop offset="0" stop-color="#ff0000"/><stop offset="1" stop-color="#c30000"/></linearGradient><linearGradient x1="281.81555" y1="342.25955" x2="258.34889" y2="342.25955" gradientUnits="userSpaceOnUse" id="color-41"><stop offset="0" stop-color="#ff0000"/><stop offset="1" stop-color="#c30000"/></linearGradient><linearGradient x1="281.81555" y1="363.25954" x2="258.34889" y2="363.25954" gradientUnits="userSpaceOnUse" id="color-42"><stop offset="0" stop-color="#ff0000"/><stop offset="1" stop-color="#c30000"/></linearGradient><linearGradient x1="145.13478" y1="277.00955" x2="121.66812" y2="277.00955" gradientUnits="userSpaceOnUse" id="color-43"><stop offset="0" stop-color="#ff0000"/><stop offset="1" stop-color="#c30000"/></linearGradient><linearGradient x1="145.31555" y1="297.25955" x2="121.84889" y2="297.25955" gradientUnits="userSpaceOnUse" id="color-44"><stop offset="0" stop-color="#ff0000"/><stop offset="1" stop-color="#c30000"/></linearGradient><linearGradient x1="145.13478" y1="318.25955" x2="121.66812" y2="318.25955" gradientUnits="userSpaceOnUse" id="color-45"><stop offset="0" stop-color="#ff0000"/><stop offset="1" stop-color="#c30000"/></linearGradient></defs><g transform="translate(-121.66812,25.23822)"><g data-paper-data="{&quot;isPaintingLayer&quot;:true}" fill-rule="nonzero" stroke="none" stroke-width="0" stroke-linecap="butt" stroke-linejoin="miter" stroke-miterlimit="10" stroke-dasharray="" stroke-dashoffset="0" style="mix-blend-mode: normal"><path d="M121.84889,-25.23822l23.46667,10.86667l-23.46667,11.13333z" fill="url(#color-1)"/><path d="M121.84889,-4.23821l23.46666,10.86666l-23.46666,11.13334z" fill="url(#color-2)"/><path d="M121.84889,16.76178l23.46666,10.86666l-23.46666,11.13334z" fill="url(#color-3)"/><path d="M121.84889,37.76178l23.46666,10.86666l-23.46666,11.13334z" fill="url(#color-4)"/><path d="M121.84889,58.76178l23.46666,10.86666l-23.46666,11.13334z" fill="url(#color-5)"/><path d="M121.84889,79.76178l23.46666,10.86666l-23.46666,11.13334z" fill="url(#color-6)"/><path d="M121.84889,100.76178l23.46667,10.86667l-23.46667,11.13333z" fill="url(#color-7)"/><path d="M121.84889,121.76179l23.46666,10.86666l-23.46666,11.13334z" fill="url(#color-8)"/><path d="M121.84889,142.76179l23.46666,10.86666l-23.46666,11.13334z" fill="url(#color-9)"/><path d="M121.84889,163.7618l23.46666,10.86666l-23.46666,11.13334z" fill="url(#color-10)"/><path d="M121.84889,184.7618l23.46666,10.86666l-23.46666,11.13334z" fill="url(#color-11)"/><path d="M121.84889,205.7618l23.46666,10.86666l-23.46666,11.13334z" fill="url(#color-12)"/><path d="M121.84889,226.25952l23.46667,10.86667l-23.46667,11.13333z" fill="url(#color-13)"/><path d="M121.84889,245.00954l23.46666,10.86666l-23.46666,11.13334z" fill="url(#color-14)"/><path d="M364.13478,-3.23822l-23.46667,-11.13333l23.46667,-10.86667z" data-paper-data="{&quot;index&quot;:null}" fill="url(#color-15)"/><path d="M364.13478,17.76179l-23.46666,-11.13334l23.46666,-10.86666z" data-paper-data="{&quot;index&quot;:null}" fill="url(#color-16)"/><path d="M364.13478,38.76178l-23.46666,-11.13334l23.46666,-10.86666z" data-paper-data="{&quot;index&quot;:null}" fill="url(#color-17)"/><path d="M364.13478,59.76178l-23.46666,-11.13334l23.46666,-10.86666z" data-paper-data="{&quot;index&quot;:null}" fill="url(#color-18)"/><path d="M364.13478,80.76178l-23.46666,-11.13334l23.46666,-10.86666z" data-paper-data="{&quot;index&quot;:null}" fill="url(#color-19)"/><path d="M364.13478,101.76178l-23.46666,-11.13334l23.46666,-10.86666z" data-paper-data="{&quot;index&quot;:null}" fill="url(#color-20)"/><path d="M364.13478,122.76178l-23.46667,-11.13333l23.46667,-10.86667z" data-paper-data="{&quot;index&quot;:null}" fill="url(#color-21)"/><path d="M364.13478,143.76179l-23.46666,-11.13334l23.46666,-10.86666z" data-paper-data="{&quot;index&quot;:null}" fill="url(#color-22)"/><path d="M364.13478,164.76179l-23.46666,-11.13334l23.46666,-10.86666z" data-paper-data="{&quot;index&quot;:null}" fill="url(#color-23)"/><path d="M364.13478,185.7618l-23.46666,-11.13334l23.46666,-10.86666z" data-paper-data="{&quot;index&quot;:null}" fill="url(#color-24)"/><path d="M364.13478,206.7618l-23.46666,-11.13334l23.46666,-10.86666z" data-paper-data="{&quot;index&quot;:null}" fill="url(#color-25)"/><path d="M364.13478,227.7618l-23.46666,-11.13334l23.46666,-10.86666z" data-paper-data="{&quot;index&quot;:null}" fill="url(#color-26)"/><path d="M364.13478,248.25952l-23.46667,-11.13333l23.46667,-10.86667z" data-paper-data="{&quot;index&quot;:null}" fill="url(#color-27)"/><path d="M364.13478,269.25954l-23.46666,-11.13334l23.46666,-10.86666z" data-paper-data="{&quot;index&quot;:null}" fill="url(#color-28)"/><path d="M364.13478,290.25954l-23.46666,-11.13334l23.46666,-10.86666z" data-paper-data="{&quot;index&quot;:null}" fill="url(#color-29)"/><path d="M364.13478,311.25954l-23.46666,-11.13334l23.46666,-10.86666z" data-paper-data="{&quot;index&quot;:null}" fill="url(#color-30)"/><path d="M364.13478,332.25954l-23.46666,-11.13334l23.46666,-10.86666z" data-paper-data="{&quot;index&quot;:null}" fill="url(#color-31)"/><path d="M364.13478,353.25954l-23.46666,-11.13334l23.46666,-10.86666z" data-paper-data="{&quot;index&quot;:null}" fill="url(#color-32)"/><path d="M364.13478,374.25953l-23.46667,-11.13333l23.46667,-10.86667z" data-paper-data="{&quot;index&quot;:null}" fill="url(#color-33)"/><path d="M269.15146,324.24813l11.13334,-23.46666l10.86666,23.46666z" data-paper-data="{&quot;index&quot;:null}" fill="url(#color-34)"/><path d="M248.15146,324.24813l11.13333,-23.46667l10.86667,23.46667z" data-paper-data="{&quot;index&quot;:null}" fill="url(#color-35)"/><path d="M227.15144,324.24813l11.13334,-23.46666l10.86666,23.46666z" data-paper-data="{&quot;index&quot;:null}" fill="url(#color-36)"/><path d="M206.15144,324.24813l11.13334,-23.46666l10.86666,23.46666z" data-paper-data="{&quot;index&quot;:null}" fill="url(#color-37)"/><path d="M185.15143,324.24813l11.13334,-23.46666l10.86666,23.46666z" data-paper-data="{&quot;index&quot;:null}" fill="url(#color-38)"/><path d="M164.15143,324.24813l11.13334,-23.46666l10.86666,23.46666z" data-paper-data="{&quot;index&quot;:null}" fill="url(#color-39)"/><path d="M143.15143,324.24813l11.13334,-23.46666l10.86666,23.46666z" data-paper-data="{&quot;index&quot;:null}" fill="url(#color-40)"/><path d="M258.34889,331.25955l23.46666,10.86666l-23.46666,11.13334z" fill="url(#color-41)"/><path d="M258.34889,352.25954l23.46667,10.86667l-23.46667,11.13333z" fill="url(#color-42)"/><path d="M121.66812,266.00955l23.46666,10.86666l-23.46666,11.13334z" data-paper-data="{&quot;index&quot;:null}" fill="url(#color-43)"/><path d="M121.84889,286.25955l23.46666,10.86666l-23.46666,11.13334z" fill="url(#color-44)"/><path d="M121.66812,307.25955l23.46666,10.86666l-23.46666,11.13334z" data-paper-data="{&quot;index&quot;:null}" fill="url(#color-45)"/></g></g></svg>