<svg version="1.1" xmlns="http://www.w3.org/2000/svg" xmlns:xlink="http://www.w3.org/1999/xlink" width="219.68317" height="137.6022" viewBox="0,0,219.68317,137.6022"><defs><linearGradient x1="187.02535" y1="281.5786" x2="187.02535" y2="314.51929" gradientUnits="userSpaceOnUse" id="color-1"><stop offset="0" stop-color="#676767"/><stop offset="1" stop-color="#343434"/></linearGradient><radialGradient cx="240.39359" cy="340.91341" r="52.37057" gradientUnits="userSpaceOnUse" id="color-2"><stop offset="0" stop-color="#c4c4c4"/><stop offset="1" stop-color="#989898"/></radialGradient><linearGradient x1="376.47341" y1="223.27496" x2="376.47341" y2="292.60829" gradientUnits="userSpaceOnUse" id="color-3"><stop offset="0" stop-color="#ff9900" stop-opacity="0"/><stop offset="1" stop-color="#ff9900"/></linearGradient><linearGradient x1="333.80674" y1="223.27496" x2="333.80674" y2="292.60829" gradientUnits="userSpaceOnUse" id="color-4"><stop offset="0" stop-color="#ff9900" stop-opacity="0"/><stop offset="1" stop-color="#ff9900"/></linearGradient><linearGradient x1="355.30674" y1="223.27495" x2="355.30674" y2="292.60829" gradientUnits="userSpaceOnUse" id="color-5"><stop offset="0" stop-color="#ff9900" stop-opacity="0"/><stop offset="1" stop-color="#ff9900"/></linearGradient></defs><g transform="translate(-160.9569,-223.27496)"><g data-paper-data="{&quot;isPaintingLayer&quot;:true}" fill-rule="nonzero" stroke-linejoin="miter" stroke-miterlimit="10" stroke-dasharray="" stroke-dashoffset="0" style="mix-blend-mode: normal"><path d="M179.38941,313.06057l4.11685,-31.48196l11.15503,1.45872l-4.11685,31.48196z" data-paper-data="{&quot;index&quot;:null}" fill="url(#color-1)" stroke="none" stroke-width="0" stroke-linecap="butt"/><path d="M160.9569,285.31126l5.38107,-41.14965l54.53569,7.13154l-5.38107,41.14965z" data-paper-data="{&quot;index&quot;:null}" fill="#676767" stroke="#000000" stroke-width="0" stroke-linecap="butt"/><path d="M183.10244,274.14262l14.92728,-11.68436l3.58863,19.96194z" data-paper-data="{&quot;index&quot;:null}" fill="#3d3d3d" stroke="none" stroke-width="0" stroke-linecap="butt"/><path d="M179.13427,257.80765l3.84362,-3.0086l10.99908,14.05181l-3.84362,3.0086z" data-paper-data="{&quot;index&quot;:null}" fill="#3d3d3d" stroke="none" stroke-width="0" stroke-linecap="butt"/><path d="M188.12943,360.87716v-39.71269h104.74114v39.71269z" fill="url(#color-2)" stroke="none" stroke-width="0" stroke-linecap="butt"/><path d="M196.61212,321.66668h92.12122" fill="none" stroke="#999999" stroke-width="4" stroke-linecap="round"/><path d="M372.30674,292.60829v-69.33333h8.33333v69.33333z" fill="url(#color-3)" stroke="none" stroke-width="0" stroke-linecap="butt"/><path d="M329.64007,292.60829v-69.33333h8.33334v69.33333z" fill="url(#color-4)" stroke="none" stroke-width="0" stroke-linecap="butt"/><path d="M346.30674,292.60829v-69.33333h18v69.33333z" fill="url(#color-5)" stroke="none" stroke-width="0" stroke-linecap="butt"/></g></g></svg>