<svg version="1.1" xmlns="http://www.w3.org/2000/svg" xmlns:xlink="http://www.w3.org/1999/xlink" width="310.99849" height="182.50001" viewBox="0,0,310.99849,182.50001"><defs><linearGradient x1="220.83114" y1="240.5334" x2="220.83114" y2="264.00002" gradientUnits="userSpaceOnUse" id="color-1"><stop offset="0" stop-color="#ff0000"/><stop offset="1" stop-color="#c30000"/></linearGradient><linearGradient x1="241.83114" y1="240.5334" x2="241.83114" y2="264.00002" gradientUnits="userSpaceOnUse" id="color-2"><stop offset="0" stop-color="#ff0000"/><stop offset="1" stop-color="#c30000"/></linearGradient><linearGradient x1="262.8311" y1="240.5334" x2="262.8311" y2="264.00002" gradientUnits="userSpaceOnUse" id="color-3"><stop offset="0" stop-color="#ff0000"/><stop offset="1" stop-color="#c30000"/></linearGradient><linearGradient x1="283.8311" y1="240.5334" x2="283.8311" y2="264.00002" gradientUnits="userSpaceOnUse" id="color-4"><stop offset="0" stop-color="#ff0000"/><stop offset="1" stop-color="#c30000"/></linearGradient><linearGradient x1="304.8311" y1="240.5334" x2="304.8311" y2="264.00002" gradientUnits="userSpaceOnUse" id="color-5"><stop offset="0" stop-color="#ff0000"/><stop offset="1" stop-color="#c30000"/></linearGradient><linearGradient x1="325.8311" y1="240.5334" x2="325.8311" y2="264.00002" gradientUnits="userSpaceOnUse" id="color-6"><stop offset="0" stop-color="#ff0000"/><stop offset="1" stop-color="#c30000"/></linearGradient><linearGradient x1="159.29927" y1="122.09965" x2="135.83262" y2="122.09965" gradientUnits="userSpaceOnUse" id="color-7"><stop offset="0" stop-color="#ff0000"/><stop offset="1" stop-color="#c30000"/></linearGradient><linearGradient x1="159.29927" y1="143.09964" x2="135.83262" y2="143.09964" gradientUnits="userSpaceOnUse" id="color-8"><stop offset="0" stop-color="#ff0000"/><stop offset="1" stop-color="#c30000"/></linearGradient><linearGradient x1="159.29927" y1="164.09964" x2="135.83262" y2="164.09964" gradientUnits="userSpaceOnUse" id="color-9"><stop offset="0" stop-color="#ff0000"/><stop offset="1" stop-color="#c30000"/></linearGradient><linearGradient x1="159.29927" y1="185.09964" x2="135.83262" y2="185.09964" gradientUnits="userSpaceOnUse" id="color-10"><stop offset="0" stop-color="#ff0000"/><stop offset="1" stop-color="#c30000"/></linearGradient><linearGradient x1="159.29927" y1="206.09964" x2="135.83262" y2="206.09964" gradientUnits="userSpaceOnUse" id="color-11"><stop offset="0" stop-color="#ff0000"/><stop offset="1" stop-color="#c30000"/></linearGradient><linearGradient x1="159.29927" y1="227.09966" x2="135.83262" y2="227.09966" gradientUnits="userSpaceOnUse" id="color-12"><stop offset="0" stop-color="#ff0000"/><stop offset="1" stop-color="#c30000"/></linearGradient><linearGradient x1="159.29927" y1="248.09966" x2="135.83262" y2="248.09966" gradientUnits="userSpaceOnUse" id="color-13"><stop offset="0" stop-color="#ff0000"/><stop offset="1" stop-color="#c30000"/></linearGradient><linearGradient x1="158.82036" y1="240.5334" x2="158.82036" y2="264.00002" gradientUnits="userSpaceOnUse" id="color-14"><stop offset="0" stop-color="#ff0000"/><stop offset="1" stop-color="#c30000"/></linearGradient><linearGradient x1="179.82034" y1="240.5334" x2="179.82034" y2="264.00002" gradientUnits="userSpaceOnUse" id="color-15"><stop offset="0" stop-color="#ff0000"/><stop offset="1" stop-color="#c30000"/></linearGradient><linearGradient x1="200.82034" y1="240.5334" x2="200.82034" y2="264.00002" gradientUnits="userSpaceOnUse" id="color-16"><stop offset="0" stop-color="#ff0000"/><stop offset="1" stop-color="#c30000"/></linearGradient><linearGradient x1="159.29927" y1="102.09965" x2="135.83262" y2="102.09965" gradientUnits="userSpaceOnUse" id="color-17"><stop offset="0" stop-color="#ff0000"/><stop offset="1" stop-color="#c30000"/></linearGradient><linearGradient x1="49.29927" y1="170.59964" x2="25.83262" y2="170.59964" gradientUnits="userSpaceOnUse" id="color-18"><stop offset="0" stop-color="#ff0000"/><stop offset="1" stop-color="#c30000"/></linearGradient><linearGradient x1="138.32035" y1="240.5334" x2="138.32035" y2="264.00002" gradientUnits="userSpaceOnUse" id="color-19"><stop offset="0" stop-color="#ff0000"/><stop offset="1" stop-color="#c30000"/></linearGradient><linearGradient x1="99.83263" y1="262.59967" x2="123.29928" y2="262.59967" gradientUnits="userSpaceOnUse" id="color-20"><stop offset="0" stop-color="#ff0000"/><stop offset="1" stop-color="#c30000"/></linearGradient></defs><g transform="translate(-25.83261,-91.09964)"><g data-paper-data="{&quot;isPaintingLayer&quot;:true}" fill-rule="nonzero" stroke="none" stroke-width="0" stroke-linecap="butt" stroke-linejoin="miter" stroke-miterlimit="10" stroke-dasharray="" stroke-dashoffset="0" style="mix-blend-mode: normal"><path d="M209.83114,264.00002l10.86666,-23.46666l11.13334,23.46666z" fill="url(#color-1)"/><path d="M230.83114,264.00002l10.86666,-23.46666l11.13334,23.46666z" fill="url(#color-2)"/><path d="M251.8311,264.00002l10.86667,-23.46667l11.13333,23.46667z" fill="url(#color-3)"/><path d="M272.8311,264.00002l10.86666,-23.46666l11.13334,23.46666z" fill="url(#color-4)"/><path d="M293.8311,264.00002l10.86666,-23.46666l11.13334,23.46666z" fill="url(#color-5)"/><path d="M314.8311,264.00002l10.86666,-23.46666l11.13334,23.46666z" fill="url(#color-6)"/><path d="M135.83262,111.09965l23.46666,10.86666l-23.46666,11.13334z" fill="url(#color-7)"/><path d="M135.83262,132.09965l23.46666,10.86666l-23.46666,11.13334z" fill="url(#color-8)"/><path d="M135.83262,153.09964l23.46666,10.86666l-23.46666,11.13334z" fill="url(#color-9)"/><path d="M135.83262,174.09964l23.46666,10.86666l-23.46666,11.13334z" fill="url(#color-10)"/><path d="M135.83262,195.09964l23.46667,10.86667l-23.46667,11.13333z" fill="url(#color-11)"/><path d="M135.83262,216.09964l23.46666,10.86666l-23.46666,11.13334z" fill="url(#color-12)"/><path d="M135.83262,237.09966l23.46666,10.86666l-23.46666,11.13334z" fill="url(#color-13)"/><path d="M147.82035,264.00002l10.86666,-23.46666l11.13334,23.46666z" fill="url(#color-14)"/><path d="M168.82034,264.00002l10.86667,-23.46667l11.13333,23.46667z" fill="url(#color-15)"/><path d="M189.82034,264.00002l10.86666,-23.46666l11.13334,23.46666z" fill="url(#color-16)"/><path d="M135.83262,91.09965l23.46666,10.86666l-23.46666,11.13334z" fill="url(#color-17)"/><path d="M25.83262,159.59964l23.46666,10.86666l-23.46666,11.13334z" fill="url(#color-18)"/><path d="M127.32036,264.00002l10.86666,-23.46666l11.13334,23.46666z" fill="url(#color-19)"/><path d="M123.29928,273.59966l-23.46666,-11.13334l23.46666,-10.86666z" data-paper-data="{&quot;index&quot;:null}" fill="url(#color-20)"/></g></g></svg>