<svg version="1.1" xmlns="http://www.w3.org/2000/svg" xmlns:xlink="http://www.w3.org/1999/xlink" width="496.58926" height="394.08996" viewBox="0,0,496.58926,394.08996"><defs><linearGradient x1="60.58956" y1="246.9169" x2="60.58956" y2="359.22131" gradientUnits="userSpaceOnUse" id="color-1"><stop offset="0" stop-color="#000000"/><stop offset="1" stop-color="#ffffff"/></linearGradient><linearGradient x1="301.13259" y1="246.9169" x2="301.13259" y2="359.22131" gradientUnits="userSpaceOnUse" id="color-2"><stop offset="0" stop-color="#000000"/><stop offset="1" stop-color="#ffffff"/></linearGradient></defs><g transform="translate(5.12973,13.01879)"><g data-paper-data="{&quot;isPaintingLayer&quot;:true}" fill-rule="nonzero" stroke="none" stroke-width="0" stroke-linecap="butt" stroke-linejoin="miter" stroke-miterlimit="10" stroke-dasharray="" stroke-dashoffset="0" style="mix-blend-mode: normal"><path d="M162.81531,120.97902v-29.5h242.5v29.5z" fill="#ff0000"/><path d="M-4.07223,359.22131v-112.30439h129.32359v112.30439z" fill="url(#color-1)"/><path d="M399.45953,140.58818v-61.88333h75.7v61.88333z" fill="#000000"/><path d="M435.79289,89.22v-96.84848h55v96.84849z" fill="#000000"/><path d="M166.4485,130.49738h-23.84118v-143.45817h23.84118z" fill="#000000"/><path d="M9.53693,10.98905v-24.00784h157.07721v24.00784z" fill="#000000"/><path d="M448.55956,368.9v-285.5h42.4v285.5z" fill="#000000"/><path d="M202.1203,371.71267v-43.34118h289.33923v43.34118z" fill="#000000"/><path d="M215.96556,288.72131l-0.45224,-41.80439h171.23858v41.80439z" fill="url(#color-2)"/><path d="M120.3153,276.47902v-29.5h17.5v29.5z" fill="#ff0000"/><path d="M204.31531,276.47902v-29.5h17.5v29.5z" fill="#ff0000"/><path d="M381.81531,276.47902v-29.5h17.5v29.5z" fill="#ff0000"/><path d="M161.54954,381.07117v-47h18.5v47z" fill="#848484"/><path d="M142.54954,354.57116v-27h55.5v27z" fill="#ffea00"/><path d="M141.33547,372.33669h-23.84118v-98.2559h23.84118z" fill="#000000"/><path d="M202.1203,297.71267v-23.84118h198.83923v23.84118z" fill="#000000"/><path d="M324.99354,197.71424v32.61994h-96.52821v-32.61995z" fill="#ff5d5d"/><path d="M133.49354,197.71424v32.61994h-96.52821v-32.61995z" fill="#ff5d5d"/><path d="M228.99354,197.71424v32.61994h-96.52821v-32.61995z" fill="#5479ff"/><path d="M37.49354,197.71424v32.61994h-40.76085v-32.61995z" fill="#5479ff"/><path d="M399.32688,79.04756v32.61994h-96.52821v-32.61995z" fill="#ffed48"/><path d="M296.7528,121.09342h32.61994v96.52821h-32.61995z" fill="#ffed48"/><path d="M67.75281,121.09342h32.61994v96.52821h-32.61995z" fill="#ffed48"/><path d="M420.49354,197.71424v32.61994h-96.52821v-32.61995z" fill="#5479ff"/><path d="M224.83226,122.75832h32.61994v96.52821h-32.61994z" fill="#72ff4e"/><path d="M-5.12973,140.71267v-23.84118h415.48923v23.84118z" fill="#000000"/><path d="M263.64177,-11.5855v32.61994h-96.52821v-32.61995z" fill="#ff5d5d"/></g></g></svg>