<svg version="1.1" xmlns="http://www.w3.org/2000/svg" xmlns:xlink="http://www.w3.org/1999/xlink" width="374.7595" height="163.42487" viewBox="0,0,374.7595,163.42487"><defs><linearGradient x1="380.83113" y1="93.53335" x2="380.83113" y2="117" gradientUnits="userSpaceOnUse" id="color-1"><stop offset="0" stop-color="#ff0000"/><stop offset="1" stop-color="#c30000"/></linearGradient><linearGradient x1="98.33336" y1="189.53335" x2="98.33336" y2="213.00001" gradientUnits="userSpaceOnUse" id="color-2"><stop offset="0" stop-color="#ff0000"/><stop offset="1" stop-color="#c30000"/></linearGradient><linearGradient x1="119.33337" y1="189.53335" x2="119.33337" y2="213.00001" gradientUnits="userSpaceOnUse" id="color-3"><stop offset="0" stop-color="#ff0000"/><stop offset="1" stop-color="#c30000"/></linearGradient><linearGradient x1="140.33335" y1="189.53335" x2="140.33335" y2="213.00001" gradientUnits="userSpaceOnUse" id="color-4"><stop offset="0" stop-color="#ff0000"/><stop offset="1" stop-color="#c30000"/></linearGradient><linearGradient x1="161.33335" y1="189.53335" x2="161.33335" y2="213.00001" gradientUnits="userSpaceOnUse" id="color-5"><stop offset="0" stop-color="#ff0000"/><stop offset="1" stop-color="#c30000"/></linearGradient><linearGradient x1="182.33339" y1="189.53335" x2="182.33339" y2="213.00001" gradientUnits="userSpaceOnUse" id="color-6"><stop offset="0" stop-color="#ff0000"/><stop offset="1" stop-color="#c30000"/></linearGradient><linearGradient x1="203.33339" y1="189.53335" x2="203.33339" y2="213.00001" gradientUnits="userSpaceOnUse" id="color-7"><stop offset="0" stop-color="#ff0000"/><stop offset="1" stop-color="#c30000"/></linearGradient><linearGradient x1="224.33339" y1="189.53335" x2="224.33339" y2="213.00001" gradientUnits="userSpaceOnUse" id="color-8"><stop offset="0" stop-color="#ff0000"/><stop offset="1" stop-color="#c30000"/></linearGradient><linearGradient x1="245.3334" y1="189.53335" x2="245.3334" y2="213.00001" gradientUnits="userSpaceOnUse" id="color-9"><stop offset="0" stop-color="#ff0000"/><stop offset="1" stop-color="#c30000"/></linearGradient><linearGradient x1="266.33338" y1="189.53335" x2="266.33338" y2="213.00001" gradientUnits="userSpaceOnUse" id="color-10"><stop offset="0" stop-color="#ff0000"/><stop offset="1" stop-color="#c30000"/></linearGradient><linearGradient x1="287.33338" y1="189.53335" x2="287.33338" y2="213.00001" gradientUnits="userSpaceOnUse" id="color-11"><stop offset="0" stop-color="#ff0000"/><stop offset="1" stop-color="#c30000"/></linearGradient><linearGradient x1="308.33338" y1="189.53335" x2="308.33338" y2="213.00001" gradientUnits="userSpaceOnUse" id="color-12"><stop offset="0" stop-color="#ff0000"/><stop offset="1" stop-color="#c30000"/></linearGradient><linearGradient x1="409.09286" y1="233.49155" x2="409.09286" y2="256.95821" gradientUnits="userSpaceOnUse" id="color-13"><stop offset="0" stop-color="#ff0000"/><stop offset="1" stop-color="#c30000"/></linearGradient><linearGradient x1="430.09286" y1="233.49155" x2="430.09286" y2="256.95821" gradientUnits="userSpaceOnUse" id="color-14"><stop offset="0" stop-color="#ff0000"/><stop offset="1" stop-color="#c30000"/></linearGradient><linearGradient x1="451.09286" y1="233.49155" x2="451.09286" y2="256.95821" gradientUnits="userSpaceOnUse" id="color-15"><stop offset="0" stop-color="#ff0000"/><stop offset="1" stop-color="#c30000"/></linearGradient><linearGradient x1="390.87872" y1="204.25442" x2="390.87872" y2="227.72107" gradientUnits="userSpaceOnUse" id="color-16"><stop offset="0" stop-color="#ff0000"/><stop offset="1" stop-color="#c30000"/></linearGradient></defs><g transform="translate(-87.33336,-93.53334)"><g data-paper-data="{&quot;isPaintingLayer&quot;:true}" fill-rule="nonzero" stroke="none" stroke-width="0" stroke-linecap="butt" stroke-linejoin="miter" stroke-miterlimit="10" stroke-dasharray="" stroke-dashoffset="0" style="mix-blend-mode: normal"><path d="M369.83113,117l10.86666,-23.46666l11.13334,23.46666z" fill="url(#color-1)"/><path d="M87.33336,213.00001l10.86667,-23.46667l11.13333,23.46667z" fill="url(#color-2)"/><path d="M108.33337,213.00001l10.86666,-23.46666l11.13334,23.46666z" fill="url(#color-3)"/><path d="M129.33335,213.00001l10.86666,-23.46666l11.13334,23.46666z" fill="url(#color-4)"/><path d="M150.33335,213.00001l10.86666,-23.46666l11.13334,23.46666z" fill="url(#color-5)"/><path d="M171.33339,213.00001l10.86666,-23.46666l11.13334,23.46666z" fill="url(#color-6)"/><path d="M192.33339,213.00001l10.86666,-23.46666l11.13334,23.46666z" fill="url(#color-7)"/><path d="M213.33339,213.00001l10.86667,-23.46667l11.13333,23.46667z" fill="url(#color-8)"/><path d="M234.3334,213.00001l10.86666,-23.46666l11.13334,23.46666z" fill="url(#color-9)"/><path d="M255.3334,213.00001l10.86666,-23.46666l11.13334,23.46666z" fill="url(#color-10)"/><path d="M276.33338,213.00001l10.86666,-23.46666l11.13334,23.46666z" fill="url(#color-11)"/><path d="M297.33338,213.00001l10.86666,-23.46666l11.13334,23.46666z" fill="url(#color-12)"/><path d="M398.09286,256.95821l10.86666,-23.46666l11.13334,23.46666z" fill="url(#color-13)"/><path d="M419.09286,256.95821l10.86666,-23.46666l11.13334,23.46666z" fill="url(#color-14)"/><path d="M440.09286,256.95821l10.86666,-23.46666l11.13334,23.46666z" fill="url(#color-15)"/><path d="M379.87872,227.72107l10.86666,-23.46666l11.13334,23.46666z" fill="url(#color-16)"/></g></g></svg>