<svg version="1.1" xmlns="http://www.w3.org/2000/svg" xmlns:xlink="http://www.w3.org/1999/xlink" width="466.83724" height="101.68554" viewBox="0,0,466.83724,101.68554"><defs><radialGradient cx="389.22541" cy="312.02909" r="61.32057" gradientUnits="userSpaceOnUse" id="color-1"><stop offset="0" stop-color="#c4c4c4"/><stop offset="1" stop-color="#989898"/></radialGradient></defs><g transform="translate(16.16667,-254)"><g data-paper-data="{&quot;isPaintingLayer&quot;:true}" fill-rule="nonzero" stroke="none" stroke-width="0" stroke-linecap="butt" stroke-linejoin="miter" stroke-miterlimit="10" stroke-dasharray="" stroke-dashoffset="0" style="mix-blend-mode: normal"><path d="M328.02943,355.68554v-86.8432h122.64114v86.8432z" fill="url(#color-1)"/><path d="M-16.16667,345v-91h344.66667v91z" fill="#656565"/><path d="M330.2539,273.97273c0,-1.70288 1.38045,-3.08334 3.08333,-3.08334c1.70288,0 3.08333,1.38046 3.08333,3.08334c0,1.70288 -1.38045,3.08333 -3.08333,3.08333c-1.70288,0 -3.08333,-1.38045 -3.08333,-3.08333z" fill="#808080"/><path d="M442.25391,349.72273c0,-1.70288 1.38045,-3.08334 3.08333,-3.08334c1.70288,0 3.08333,1.38046 3.08333,3.08334c0,1.70288 -1.38045,3.08333 -3.08333,3.08333c-1.70288,0 -3.08333,-1.38045 -3.08333,-3.08333z" fill="#808080"/><path d="M442.25391,273.97273c0,-1.70288 1.38045,-3.08334 3.08333,-3.08334c1.70288,0 3.08333,1.38046 3.08333,3.08334c0,1.70288 -1.38045,3.08333 -3.08333,3.08333c-1.70288,0 -3.08333,-1.38045 -3.08333,-3.08333z" fill="#808080"/></g></g></svg>