<svg version="1.1" xmlns="http://www.w3.org/2000/svg" xmlns:xlink="http://www.w3.org/1999/xlink" width="111.63891" height="111.53832" viewBox="0,0,111.63891,111.53832"><g transform="translate(-184.13025,-124.23084)"><g data-paper-data="{&quot;isPaintingLayer&quot;:true}" fill-rule="nonzero" stroke="#000000" stroke-width="2.5" stroke-linejoin="miter" stroke-miterlimit="10" stroke-dasharray="" stroke-dashoffset="0" style="mix-blend-mode: normal"><path d="M185.48084,234.51916v-109.03832h109.03832v109.03832z" fill="#545454" stroke-linecap="butt"/><path d="M202.59347,125.94079l9.44768,25.56976l-10.20462,11.48058l21.0486,29.33775l14.20707,-13.95411l11.67213,31.91365" fill="none" stroke-linecap="round"/><path d="M211.67947,151.48456l19.35504,13.88835l-1.18198,-19.05954l26.44696,11.22888l16.10458,-15.95683l21.57127,14.18385" fill="none" stroke-linecap="round"/><path d="M241.22915,150.59807l16.99107,-7.83067l-22.45775,-17.13882" fill="none" stroke-linecap="round"/><path d="M219.51013,187.97842l-20.38928,0.73874l-1.47749,-14.47934l-12.26311,-24.08299" fill="none" stroke-linecap="round"/><path d="M206.95152,138.03946l-21.27577,3.25046" fill="none" stroke-linecap="round"/><path d="M210.64523,188.42166l11.81987,21.42352l-24.96948,-0.2955l15.80908,24.37849" fill="none" stroke-linecap="round"/><path d="M202.96231,218.71008l-16.69557,3.10271" fill="none" stroke-linecap="round"/><path d="M222.02186,209.10644l9.89914,16.84331l23.34425,-20.24153l15.66133,28.51544" fill="none" stroke-linecap="round"/><path d="M243.59312,215.75511l12.41087,18.46855" fill="none" stroke-linecap="round"/><path d="M242.11564,191.96762l25.70822,-16.84332l0.44325,30.14067l25.56047,11.96762" fill="none" stroke-linecap="round"/><path d="M255.85624,157.98549l-25.26497,6.35318l6.20543,13.00186" fill="none" stroke-linecap="round"/><path d="M281.56446,211.47041l-18.02531,6.50093" fill="none" stroke-linecap="round"/><path d="M268.11936,188.42166l25.70822,-7.09193" fill="none" stroke-linecap="round"/><path d="M281.85996,184.72795l3.39821,12.85411l8.5694,3.54596" fill="none" stroke-linecap="round"/><path d="M264.13015,150.15482l23.04875,11.37663l-18.91179,19.35504" fill="none" stroke-linecap="round"/><path d="M250.09405,159.61072l2.80722,24.37849" fill="none" stroke-linecap="round"/></g></g></svg>