<svg version="1.1" xmlns="http://www.w3.org/2000/svg" xmlns:xlink="http://www.w3.org/1999/xlink" width="422.94218" height="234.97298" viewBox="0,0,422.94218,234.97298"><defs><radialGradient cx="242.80782" cy="284" r="113.5" gradientUnits="userSpaceOnUse" id="color-1"><stop offset="0" stop-color="#c4c4c4"/><stop offset="1" stop-color="#989898"/></radialGradient><radialGradient cx="280.80782" cy="234.25" r="69.25" gradientUnits="userSpaceOnUse" id="color-2"><stop offset="0" stop-color="#c4c4c4"/><stop offset="1" stop-color="#989898"/></radialGradient><radialGradient cx="305.30782" cy="196" r="70" gradientUnits="userSpaceOnUse" id="color-3"><stop offset="0" stop-color="#c4c4c4"/><stop offset="1" stop-color="#989898"/></radialGradient><radialGradient cx="-0.69218" cy="73.5" r="62" gradientUnits="userSpaceOnUse" id="color-4"><stop offset="0" stop-color="#c4c4c4"/><stop offset="1" stop-color="#989898"/></radialGradient><radialGradient cx="43.8307" cy="208.87838" r="37.25" gradientUnits="userSpaceOnUse" id="color-5"><stop offset="0" stop-color="#c4c4c4"/><stop offset="1" stop-color="#989898"/></radialGradient><radialGradient cx="30.5807" cy="149.12838" r="27" gradientUnits="userSpaceOnUse" id="color-6"><stop offset="0" stop-color="#c4c4c4"/><stop offset="1" stop-color="#989898"/></radialGradient><radialGradient cx="95.3307" cy="181.12838" r="34.5" gradientUnits="userSpaceOnUse" id="color-7"><stop offset="0" stop-color="#c4c4c4"/><stop offset="1" stop-color="#989898"/></radialGradient><radialGradient cx="136.5807" cy="142.87838" r="28.5" gradientUnits="userSpaceOnUse" id="color-8"><stop offset="0" stop-color="#c4c4c4"/><stop offset="1" stop-color="#989898"/></radialGradient><radialGradient cx="156.0807" cy="210.87838" r="23" gradientUnits="userSpaceOnUse" id="color-9"><stop offset="0" stop-color="#c4c4c4"/><stop offset="1" stop-color="#989898"/></radialGradient><radialGradient cx="238.0807" cy="136.12838" r="25" gradientUnits="userSpaceOnUse" id="color-10"><stop offset="0" stop-color="#c4c4c4"/><stop offset="1" stop-color="#989898"/></radialGradient><radialGradient cx="183.5807" cy="104.87838" r="75" gradientUnits="userSpaceOnUse" id="color-11"><stop offset="0" stop-color="#c4c4c4"/><stop offset="1" stop-color="#989898"/></radialGradient><radialGradient cx="83.99254" cy="119.49549" r="32" gradientUnits="userSpaceOnUse" id="color-12"><stop offset="0" stop-color="#c4c4c4"/><stop offset="1" stop-color="#989898"/></radialGradient><radialGradient cx="284.07361" cy="104.02702" r="32" gradientUnits="userSpaceOnUse" id="color-13"><stop offset="0" stop-color="#c4c4c4"/><stop offset="1" stop-color="#989898"/></radialGradient><radialGradient cx="192.44898" cy="168.51351" r="32" gradientUnits="userSpaceOnUse" id="color-14"><stop offset="0" stop-color="#c4c4c4"/><stop offset="1" stop-color="#989898"/></radialGradient><radialGradient cx="108.36489" cy="242.08708" r="32" gradientUnits="userSpaceOnUse" id="color-15"><stop offset="0" stop-color="#c4c4c4"/><stop offset="1" stop-color="#989898"/></radialGradient><radialGradient cx="-21.88436" cy="179.11411" r="32" gradientUnits="userSpaceOnUse" id="color-16"><stop offset="0" stop-color="#c4c4c4"/><stop offset="1" stop-color="#989898"/></radialGradient></defs><g transform="translate(53.88436,-72.02702)"><g data-paper-data="{&quot;isPaintingLayer&quot;:true}" fill-rule="nonzero" stroke-linejoin="miter" stroke-miterlimit="10" stroke-dasharray="" stroke-dashoffset="0" style="mix-blend-mode: normal"><path d="M346.30782,302l-217,-51" fill="none" stroke="url(#color-1)" stroke-width="10" stroke-linecap="round"/><path d="M350.05782,286.5l-138.5,-104.5" fill="none" stroke="url(#color-2)" stroke-width="10" stroke-linecap="round"/><path d="M289.55782,126l74.5,135" fill="none" stroke="url(#color-3)" stroke-width="10" stroke-linecap="round"/><path d="M-27.02026,87.90761l82.32809,22.59239" fill="none" stroke="url(#color-4)" stroke-width="10" stroke-linecap="round"/><path d="M6.5807,187.12838l74.5,43.5" fill="none" stroke="url(#color-5)" stroke-width="10" stroke-linecap="round"/><path d="M3.5807,165.12838l54,-32" fill="none" stroke="url(#color-6)" stroke-width="10" stroke-linecap="round"/><path d="M89.0807,146.62838l12.5,69" fill="none" stroke="url(#color-7)" stroke-width="10" stroke-linecap="round"/><path d="M108.0807,127.62838l57,30.5" fill="none" stroke="url(#color-8)" stroke-width="10" stroke-linecap="round"/><path d="M133.0807,231.62838l46,-41.5" fill="none" stroke="url(#color-9)" stroke-width="10" stroke-linecap="round"/><path d="M213.0807,152.62838l50,-33" fill="none" stroke="url(#color-10)" stroke-width="10" stroke-linecap="round"/><path d="M108.5807,109.12838l150,-8.5" fill="none" stroke="url(#color-11)" stroke-width="10" stroke-linecap="round"/><path d="M51.99252,119.49549c0,-17.67311 14.32689,-32 32,-32c17.67311,0 32,14.32689 32,32c0,17.67311 -14.32689,32 -32,32c-17.67311,0 -32,-14.32689 -32,-32z" fill="url(#color-12)" stroke="none" stroke-width="0" stroke-linecap="butt"/><path d="M252.07361,104.02702c0,-17.67311 14.32689,-32 32,-32c17.67311,0 32,14.32689 32,32c0,17.67311 -14.32689,32 -32,32c-17.67311,0 -32,-14.32689 -32,-32z" fill="url(#color-13)" stroke="none" stroke-width="0" stroke-linecap="butt"/><path d="M160.44898,168.51351c0,-17.67311 14.32689,-32 32,-32c17.67311,0 32,14.32689 32,32c0,17.67311 -14.32689,32 -32,32c-17.67311,0 -32,-14.32689 -32,-32z" fill="url(#color-14)" stroke="none" stroke-width="0" stroke-linecap="butt"/><path d="M76.36489,242.08708c0,-17.67311 14.32689,-32 32,-32c17.67311,0 32,14.32689 32,32c0,17.67311 -14.32689,32 -32,32c-17.67311,0 -32,-14.32689 -32,-32z" fill="url(#color-15)" stroke="none" stroke-width="0" stroke-linecap="butt"/><path d="M-53.88436,179.11411c0,-17.67311 14.32689,-32 32,-32c17.67311,0 32,14.32689 32,32c0,17.67311 -14.32689,32 -32,32c-17.67311,0 -32,-14.32689 -32,-32z" fill="url(#color-16)" stroke="none" stroke-width="0" stroke-linecap="butt"/></g></g></svg>