<svg version="1.1" xmlns="http://www.w3.org/2000/svg" xmlns:xlink="http://www.w3.org/1999/xlink" width="186.2158" height="138.19651" viewBox="0,0,186.2158,138.19651"><defs><linearGradient x1="147.33336" y1="289.53335" x2="147.33336" y2="313.00001" gradientUnits="userSpaceOnUse" id="color-1"><stop offset="0" stop-color="#ff0000"/><stop offset="1" stop-color="#c30000"/></linearGradient><linearGradient x1="168.33337" y1="289.53335" x2="168.33337" y2="313.00001" gradientUnits="userSpaceOnUse" id="color-2"><stop offset="0" stop-color="#ff0000"/><stop offset="1" stop-color="#c30000"/></linearGradient><linearGradient x1="191.45837" y1="279.28335" x2="191.45837" y2="321.15" gradientUnits="userSpaceOnUse" id="color-3"><stop offset="0" stop-color="#ff0000"/><stop offset="1" stop-color="#c30000"/></linearGradient><linearGradient x1="208.70837" y1="271.78335" x2="208.70837" y2="313.65" gradientUnits="userSpaceOnUse" id="color-4"><stop offset="0" stop-color="#ff0000"/><stop offset="1" stop-color="#c30000"/></linearGradient><linearGradient x1="217.85765" y1="259.10311" x2="227.55908" y2="299.83024" gradientUnits="userSpaceOnUse" id="color-5"><stop offset="0" stop-color="#ff0000"/><stop offset="1" stop-color="#c30000"/></linearGradient><linearGradient x1="219.60808" y1="241.88691" x2="246.67128" y2="277.03783" gradientUnits="userSpaceOnUse" id="color-6"><stop offset="0" stop-color="#ff0000"/><stop offset="1" stop-color="#c30000"/></linearGradient><linearGradient x1="247.09542" y1="213.77051" x2="258.74199" y2="261.0906" gradientUnits="userSpaceOnUse" id="color-7"><stop offset="0" stop-color="#ff0000"/><stop offset="1" stop-color="#c30000"/></linearGradient><linearGradient x1="276.62925" y1="196.42697" x2="281.29648" y2="238.03266" gradientUnits="userSpaceOnUse" id="color-8"><stop offset="0" stop-color="#ff0000"/><stop offset="1" stop-color="#c30000"/></linearGradient><linearGradient x1="298.37926" y1="182.92697" x2="303.04649" y2="224.53266" gradientUnits="userSpaceOnUse" id="color-9"><stop offset="0" stop-color="#ff0000"/><stop offset="1" stop-color="#c30000"/></linearGradient></defs><g transform="translate(-136.33336,-182.95349)"><g data-paper-data="{&quot;isPaintingLayer&quot;:true}" fill-rule="nonzero" stroke="none" stroke-width="0" stroke-linecap="butt" stroke-linejoin="miter" stroke-miterlimit="10" stroke-dasharray="" stroke-dashoffset="0" style="mix-blend-mode: normal"><path d="M136.33336,313.00001l10.86666,-23.46666l11.13334,23.46666z" fill="url(#color-1)"/><path d="M157.33336,313.00001l10.86666,-23.46666l11.13334,23.46666z" fill="url(#color-2)"/><path d="M171.83337,321.15l19.38711,-41.86665l19.86289,41.86665z" fill="url(#color-3)"/><path d="M189.08337,313.65l19.38711,-41.86665l19.86289,41.86665z" fill="url(#color-4)"/><path d="M208.46824,304.37779l9.15799,-45.21955l29.0237,36.12445z" fill="url(#color-5)"/><path d="M230.19428,289.7237l-10.78593,-47.68302l43.73992,22.31127z" fill="url(#color-6)"/><path d="M236.56069,266.54993l10.26585,-52.71325l34.09675,41.79459z" fill="url(#color-7)"/><path d="M261.79381,240.22042l14.59904,-43.76693l24.40631,39.39141z" fill="url(#color-8)"/><path d="M283.54381,226.72043l14.59904,-43.76694l24.4063,39.39141z" fill="url(#color-9)"/></g></g></svg>