<svg version="1.1" xmlns="http://www.w3.org/2000/svg" xmlns:xlink="http://www.w3.org/1999/xlink" width="242.28589" height="399.49775" viewBox="0,0,242.28589,399.49775"><defs><linearGradient x1="145.31555" y1="1.01779" x2="121.84889" y2="1.01779" gradientUnits="userSpaceOnUse" id="color-1"><stop offset="0" stop-color="#ff0000"/><stop offset="1" stop-color="#c30000"/></linearGradient><linearGradient x1="145.31555" y1="22.0178" x2="121.84889" y2="22.0178" gradientUnits="userSpaceOnUse" id="color-2"><stop offset="0" stop-color="#ff0000"/><stop offset="1" stop-color="#c30000"/></linearGradient><linearGradient x1="145.31555" y1="43.01779" x2="121.84889" y2="43.01779" gradientUnits="userSpaceOnUse" id="color-3"><stop offset="0" stop-color="#ff0000"/><stop offset="1" stop-color="#c30000"/></linearGradient><linearGradient x1="145.31555" y1="64.01779" x2="121.84889" y2="64.01779" gradientUnits="userSpaceOnUse" id="color-4"><stop offset="0" stop-color="#ff0000"/><stop offset="1" stop-color="#c30000"/></linearGradient><linearGradient x1="145.31555" y1="85.01779" x2="121.84889" y2="85.01779" gradientUnits="userSpaceOnUse" id="color-5"><stop offset="0" stop-color="#ff0000"/><stop offset="1" stop-color="#c30000"/></linearGradient><linearGradient x1="145.31555" y1="106.01779" x2="121.84889" y2="106.01779" gradientUnits="userSpaceOnUse" id="color-6"><stop offset="0" stop-color="#ff0000"/><stop offset="1" stop-color="#c30000"/></linearGradient><linearGradient x1="145.31555" y1="127.01779" x2="121.84889" y2="127.01779" gradientUnits="userSpaceOnUse" id="color-7"><stop offset="0" stop-color="#ff0000"/><stop offset="1" stop-color="#c30000"/></linearGradient><linearGradient x1="145.31555" y1="148.0178" x2="121.84889" y2="148.0178" gradientUnits="userSpaceOnUse" id="color-8"><stop offset="0" stop-color="#ff0000"/><stop offset="1" stop-color="#c30000"/></linearGradient><linearGradient x1="145.31555" y1="169.01781" x2="121.84889" y2="169.01781" gradientUnits="userSpaceOnUse" id="color-9"><stop offset="0" stop-color="#ff0000"/><stop offset="1" stop-color="#c30000"/></linearGradient><linearGradient x1="145.31555" y1="190.01781" x2="121.84889" y2="190.01781" gradientUnits="userSpaceOnUse" id="color-10"><stop offset="0" stop-color="#ff0000"/><stop offset="1" stop-color="#c30000"/></linearGradient><linearGradient x1="145.31555" y1="211.01781" x2="121.84889" y2="211.01781" gradientUnits="userSpaceOnUse" id="color-11"><stop offset="0" stop-color="#ff0000"/><stop offset="1" stop-color="#c30000"/></linearGradient><linearGradient x1="145.31555" y1="232.01779" x2="121.84889" y2="232.01779" gradientUnits="userSpaceOnUse" id="color-12"><stop offset="0" stop-color="#ff0000"/><stop offset="1" stop-color="#c30000"/></linearGradient><linearGradient x1="145.31555" y1="252.51553" x2="121.84889" y2="252.51553" gradientUnits="userSpaceOnUse" id="color-13"><stop offset="0" stop-color="#ff0000"/><stop offset="1" stop-color="#c30000"/></linearGradient><linearGradient x1="145.31555" y1="273.51555" x2="121.84889" y2="273.51555" gradientUnits="userSpaceOnUse" id="color-14"><stop offset="0" stop-color="#ff0000"/><stop offset="1" stop-color="#c30000"/></linearGradient><linearGradient x1="145.31555" y1="294.51555" x2="121.84889" y2="294.51555" gradientUnits="userSpaceOnUse" id="color-15"><stop offset="0" stop-color="#ff0000"/><stop offset="1" stop-color="#c30000"/></linearGradient><linearGradient x1="145.31555" y1="315.51555" x2="121.84889" y2="315.51555" gradientUnits="userSpaceOnUse" id="color-16"><stop offset="0" stop-color="#ff0000"/><stop offset="1" stop-color="#c30000"/></linearGradient><linearGradient x1="145.31555" y1="336.51555" x2="121.84889" y2="336.51555" gradientUnits="userSpaceOnUse" id="color-17"><stop offset="0" stop-color="#ff0000"/><stop offset="1" stop-color="#c30000"/></linearGradient><linearGradient x1="145.31555" y1="357.51555" x2="121.84889" y2="357.51555" gradientUnits="userSpaceOnUse" id="color-18"><stop offset="0" stop-color="#ff0000"/><stop offset="1" stop-color="#c30000"/></linearGradient><linearGradient x1="145.31555" y1="378.51554" x2="121.84889" y2="378.51554" gradientUnits="userSpaceOnUse" id="color-19"><stop offset="0" stop-color="#ff0000"/><stop offset="1" stop-color="#c30000"/></linearGradient><linearGradient x1="340.66812" y1="1.01779" x2="364.13478" y2="1.01779" gradientUnits="userSpaceOnUse" id="color-20"><stop offset="0" stop-color="#ff0000"/><stop offset="1" stop-color="#c30000"/></linearGradient><linearGradient x1="340.66812" y1="22.0178" x2="364.13478" y2="22.0178" gradientUnits="userSpaceOnUse" id="color-21"><stop offset="0" stop-color="#ff0000"/><stop offset="1" stop-color="#c30000"/></linearGradient><linearGradient x1="340.66812" y1="43.01779" x2="364.13478" y2="43.01779" gradientUnits="userSpaceOnUse" id="color-22"><stop offset="0" stop-color="#ff0000"/><stop offset="1" stop-color="#c30000"/></linearGradient><linearGradient x1="340.66812" y1="64.01779" x2="364.13478" y2="64.01779" gradientUnits="userSpaceOnUse" id="color-23"><stop offset="0" stop-color="#ff0000"/><stop offset="1" stop-color="#c30000"/></linearGradient><linearGradient x1="340.66812" y1="85.01779" x2="364.13478" y2="85.01779" gradientUnits="userSpaceOnUse" id="color-24"><stop offset="0" stop-color="#ff0000"/><stop offset="1" stop-color="#c30000"/></linearGradient><linearGradient x1="340.66812" y1="106.01779" x2="364.13478" y2="106.01779" gradientUnits="userSpaceOnUse" id="color-25"><stop offset="0" stop-color="#ff0000"/><stop offset="1" stop-color="#c30000"/></linearGradient><linearGradient x1="340.66812" y1="127.01779" x2="364.13478" y2="127.01779" gradientUnits="userSpaceOnUse" id="color-26"><stop offset="0" stop-color="#ff0000"/><stop offset="1" stop-color="#c30000"/></linearGradient><linearGradient x1="340.66812" y1="148.0178" x2="364.13478" y2="148.0178" gradientUnits="userSpaceOnUse" id="color-27"><stop offset="0" stop-color="#ff0000"/><stop offset="1" stop-color="#c30000"/></linearGradient><linearGradient x1="340.66812" y1="169.01781" x2="364.13478" y2="169.01781" gradientUnits="userSpaceOnUse" id="color-28"><stop offset="0" stop-color="#ff0000"/><stop offset="1" stop-color="#c30000"/></linearGradient><linearGradient x1="340.66812" y1="190.01781" x2="364.13478" y2="190.01781" gradientUnits="userSpaceOnUse" id="color-29"><stop offset="0" stop-color="#ff0000"/><stop offset="1" stop-color="#c30000"/></linearGradient><linearGradient x1="340.66812" y1="211.01781" x2="364.13478" y2="211.01781" gradientUnits="userSpaceOnUse" id="color-30"><stop offset="0" stop-color="#ff0000"/><stop offset="1" stop-color="#c30000"/></linearGradient><linearGradient x1="340.66812" y1="232.01779" x2="364.13478" y2="232.01779" gradientUnits="userSpaceOnUse" id="color-31"><stop offset="0" stop-color="#ff0000"/><stop offset="1" stop-color="#c30000"/></linearGradient><linearGradient x1="340.66812" y1="252.51553" x2="364.13478" y2="252.51553" gradientUnits="userSpaceOnUse" id="color-32"><stop offset="0" stop-color="#ff0000"/><stop offset="1" stop-color="#c30000"/></linearGradient><linearGradient x1="340.66812" y1="273.51555" x2="364.13478" y2="273.51555" gradientUnits="userSpaceOnUse" id="color-33"><stop offset="0" stop-color="#ff0000"/><stop offset="1" stop-color="#c30000"/></linearGradient><linearGradient x1="340.66812" y1="294.51555" x2="364.13478" y2="294.51555" gradientUnits="userSpaceOnUse" id="color-34"><stop offset="0" stop-color="#ff0000"/><stop offset="1" stop-color="#c30000"/></linearGradient><linearGradient x1="340.66812" y1="315.51555" x2="364.13478" y2="315.51555" gradientUnits="userSpaceOnUse" id="color-35"><stop offset="0" stop-color="#ff0000"/><stop offset="1" stop-color="#c30000"/></linearGradient><linearGradient x1="340.66812" y1="336.51555" x2="364.13478" y2="336.51555" gradientUnits="userSpaceOnUse" id="color-36"><stop offset="0" stop-color="#ff0000"/><stop offset="1" stop-color="#c30000"/></linearGradient><linearGradient x1="340.66812" y1="357.51555" x2="364.13478" y2="357.51555" gradientUnits="userSpaceOnUse" id="color-37"><stop offset="0" stop-color="#ff0000"/><stop offset="1" stop-color="#c30000"/></linearGradient><linearGradient x1="340.66812" y1="378.51554" x2="364.13478" y2="378.51554" gradientUnits="userSpaceOnUse" id="color-38"><stop offset="0" stop-color="#ff0000"/><stop offset="1" stop-color="#c30000"/></linearGradient><linearGradient x1="298.33223" y1="139.03446" x2="298.33223" y2="162.50113" gradientUnits="userSpaceOnUse" id="color-39"><stop offset="0" stop-color="#ff0000"/><stop offset="1" stop-color="#c30000"/></linearGradient><linearGradient x1="319.33224" y1="139.03446" x2="319.33224" y2="162.50113" gradientUnits="userSpaceOnUse" id="color-40"><stop offset="0" stop-color="#ff0000"/><stop offset="1" stop-color="#c30000"/></linearGradient><linearGradient x1="340.33223" y1="139.03447" x2="340.33223" y2="162.50113" gradientUnits="userSpaceOnUse" id="color-41"><stop offset="0" stop-color="#ff0000"/><stop offset="1" stop-color="#c30000"/></linearGradient></defs><g transform="translate(-121.84889,9.98221)"><g data-paper-data="{&quot;isPaintingLayer&quot;:true}" fill-rule="nonzero" stroke="none" stroke-width="0" stroke-linecap="butt" stroke-linejoin="miter" stroke-miterlimit="10" stroke-dasharray="" stroke-dashoffset="0" style="mix-blend-mode: normal"><path d="M121.84889,-9.98221l23.46667,10.86667l-23.46667,11.13333z" fill="url(#color-1)"/><path d="M121.84889,11.0178l23.46666,10.86666l-23.46666,11.13334z" fill="url(#color-2)"/><path d="M121.84889,32.01779l23.46666,10.86666l-23.46666,11.13334z" fill="url(#color-3)"/><path d="M121.84889,53.01779l23.46666,10.86666l-23.46666,11.13334z" fill="url(#color-4)"/><path d="M121.84889,74.01779l23.46666,10.86666l-23.46666,11.13334z" fill="url(#color-5)"/><path d="M121.84889,95.01779l23.46666,10.86666l-23.46666,11.13334z" fill="url(#color-6)"/><path d="M121.84889,116.01779l23.46667,10.86667l-23.46667,11.13333z" fill="url(#color-7)"/><path d="M121.84889,137.0178l23.46666,10.86666l-23.46666,11.13334z" fill="url(#color-8)"/><path d="M121.84889,158.0178l23.46666,10.86666l-23.46666,11.13334z" fill="url(#color-9)"/><path d="M121.84889,179.01781l23.46666,10.86666l-23.46666,11.13334z" fill="url(#color-10)"/><path d="M121.84889,200.01781l23.46666,10.86666l-23.46666,11.13334z" fill="url(#color-11)"/><path d="M121.84889,221.01781l23.46666,10.86666l-23.46666,11.13334z" fill="url(#color-12)"/><path d="M121.84889,241.51553l23.46667,10.86667l-23.46667,11.13333z" fill="url(#color-13)"/><path d="M121.84889,262.51555l23.46666,10.86666l-23.46666,11.13334z" fill="url(#color-14)"/><path d="M121.84889,283.51555l23.46666,10.86666l-23.46666,11.13334z" fill="url(#color-15)"/><path d="M121.84889,304.51555l23.46666,10.86666l-23.46666,11.13334z" fill="url(#color-16)"/><path d="M121.84889,325.51555l23.46666,10.86666l-23.46666,11.13334z" fill="url(#color-17)"/><path d="M121.84889,346.51555l23.46666,10.86666l-23.46666,11.13334z" fill="url(#color-18)"/><path d="M121.84889,367.51554l23.46667,10.86667l-23.46667,11.13333z" fill="url(#color-19)"/><path d="M364.13478,12.01779l-23.46667,-11.13333l23.46667,-10.86667z" data-paper-data="{&quot;index&quot;:null}" fill="url(#color-20)"/><path d="M364.13478,33.0178l-23.46666,-11.13334l23.46666,-10.86666z" data-paper-data="{&quot;index&quot;:null}" fill="url(#color-21)"/><path d="M364.13478,54.01779l-23.46666,-11.13334l23.46666,-10.86666z" data-paper-data="{&quot;index&quot;:null}" fill="url(#color-22)"/><path d="M364.13478,75.01779l-23.46666,-11.13334l23.46666,-10.86666z" data-paper-data="{&quot;index&quot;:null}" fill="url(#color-23)"/><path d="M364.13478,96.01779l-23.46666,-11.13334l23.46666,-10.86666z" data-paper-data="{&quot;index&quot;:null}" fill="url(#color-24)"/><path d="M364.13478,117.01779l-23.46666,-11.13334l23.46666,-10.86666z" data-paper-data="{&quot;index&quot;:null}" fill="url(#color-25)"/><path d="M364.13478,138.01779l-23.46667,-11.13333l23.46667,-10.86667z" data-paper-data="{&quot;index&quot;:null}" fill="url(#color-26)"/><path d="M364.13478,159.0178l-23.46666,-11.13334l23.46666,-10.86666z" data-paper-data="{&quot;index&quot;:null}" fill="url(#color-27)"/><path d="M364.13478,180.0178l-23.46666,-11.13334l23.46666,-10.86666z" data-paper-data="{&quot;index&quot;:null}" fill="url(#color-28)"/><path d="M364.13478,201.01781l-23.46666,-11.13334l23.46666,-10.86666z" data-paper-data="{&quot;index&quot;:null}" fill="url(#color-29)"/><path d="M364.13478,222.01781l-23.46666,-11.13334l23.46666,-10.86666z" data-paper-data="{&quot;index&quot;:null}" fill="url(#color-30)"/><path d="M364.13478,243.01781l-23.46666,-11.13334l23.46666,-10.86666z" data-paper-data="{&quot;index&quot;:null}" fill="url(#color-31)"/><path d="M364.13478,263.51553l-23.46667,-11.13333l23.46667,-10.86667z" data-paper-data="{&quot;index&quot;:null}" fill="url(#color-32)"/><path d="M364.13478,284.51555l-23.46666,-11.13334l23.46666,-10.86666z" data-paper-data="{&quot;index&quot;:null}" fill="url(#color-33)"/><path d="M364.13478,305.51555l-23.46666,-11.13334l23.46666,-10.86666z" data-paper-data="{&quot;index&quot;:null}" fill="url(#color-34)"/><path d="M364.13478,326.51555l-23.46666,-11.13334l23.46666,-10.86666z" data-paper-data="{&quot;index&quot;:null}" fill="url(#color-35)"/><path d="M364.13478,347.51555l-23.46666,-11.13334l23.46666,-10.86666z" data-paper-data="{&quot;index&quot;:null}" fill="url(#color-36)"/><path d="M364.13478,368.51555l-23.46666,-11.13334l23.46666,-10.86666z" data-paper-data="{&quot;index&quot;:null}" fill="url(#color-37)"/><path d="M364.13478,389.51554l-23.46667,-11.13333l23.46667,-10.86667z" data-paper-data="{&quot;index&quot;:null}" fill="url(#color-38)"/><path d="M287.33223,162.50113l10.86667,-23.46667l11.13333,23.46667z" fill="url(#color-39)"/><path d="M308.33224,162.50113l10.86666,-23.46666l11.13334,23.46666z" fill="url(#color-40)"/><path d="M329.33223,162.50113l10.86666,-23.46666l11.13334,23.46666z" fill="url(#color-41)"/></g></g></svg>