<svg version="1.1" xmlns="http://www.w3.org/2000/svg" xmlns:xlink="http://www.w3.org/1999/xlink" width="135.53862" height="213.01093" viewBox="0,0,135.53862,213.01093"><defs><linearGradient x1="232.0978" y1="173.26668" x2="255.56444" y2="173.26668" gradientUnits="userSpaceOnUse" id="color-1"><stop offset="0" stop-color="#ff0000"/><stop offset="1" stop-color="#c30000"/></linearGradient><linearGradient x1="175.31443" y1="173.26668" x2="151.84776" y2="173.26668" gradientUnits="userSpaceOnUse" id="color-2"><stop offset="0" stop-color="#ff0000"/><stop offset="1" stop-color="#c30000"/></linearGradient><linearGradient x1="120.04272" y1="361.39595" x2="143.32065" y2="364.36606" gradientUnits="userSpaceOnUse" id="color-3"><stop offset="0" stop-color="#ff0000"/><stop offset="1" stop-color="#c30000"/></linearGradient><linearGradient x1="122.70063" y1="340.56483" x2="145.97857" y2="343.53495" gradientUnits="userSpaceOnUse" id="color-4"><stop offset="0" stop-color="#ff0000"/><stop offset="1" stop-color="#c30000"/></linearGradient><linearGradient x1="125.35855" y1="319.73371" x2="148.63649" y2="322.70381" gradientUnits="userSpaceOnUse" id="color-5"><stop offset="0" stop-color="#ff0000"/><stop offset="1" stop-color="#c30000"/></linearGradient><linearGradient x1="128.01647" y1="298.90259" x2="151.29441" y2="301.87271" gradientUnits="userSpaceOnUse" id="color-6"><stop offset="0" stop-color="#ff0000"/><stop offset="1" stop-color="#c30000"/></linearGradient></defs><g transform="translate(-120.02582,-162.26668)"><g data-paper-data="{&quot;isPaintingLayer&quot;:true}" fill-rule="nonzero" stroke="none" stroke-width="0" stroke-linecap="butt" stroke-linejoin="miter" stroke-miterlimit="10" stroke-dasharray="" stroke-dashoffset="0" style="mix-blend-mode: normal"><path d="M255.56444,184.26668l-23.46667,-10.86667l23.46667,-11.13333z" fill="url(#color-1)"/><path d="M151.84776,162.26668l23.46667,11.13333l-23.46667,10.86667z" data-paper-data="{&quot;index&quot;:null}" fill="url(#color-2)"/><path d="M141.9284,375.27761l-21.90257,-13.74939l24.68706,-8.07369z" fill="url(#color-3)"/><path d="M144.58632,354.44649l-21.90257,-13.7494l24.68706,-8.07368z" fill="url(#color-4)"/><path d="M147.24425,333.61537l-21.90257,-13.74939l24.68706,-8.07369z" fill="url(#color-5)"/><path d="M149.90217,312.78425l-21.90257,-13.7494l24.68706,-8.07368z" fill="url(#color-6)"/></g></g></svg>