<svg version="1.1" xmlns="http://www.w3.org/2000/svg" xmlns:xlink="http://www.w3.org/1999/xlink" width="419.83271" height="23.46667" viewBox="0,0,419.83271,23.46667"><defs><linearGradient x1="62.33336" y1="266.4643" x2="62.33336" y2="289.93096" gradientUnits="userSpaceOnUse" id="color-1"><stop offset="0" stop-color="#ff0000"/><stop offset="1" stop-color="#c30000"/></linearGradient><linearGradient x1="83.33335" y1="266.4643" x2="83.33335" y2="289.93096" gradientUnits="userSpaceOnUse" id="color-2"><stop offset="0" stop-color="#ff0000"/><stop offset="1" stop-color="#c30000"/></linearGradient><linearGradient x1="104.33336" y1="266.4643" x2="104.33336" y2="289.93096" gradientUnits="userSpaceOnUse" id="color-3"><stop offset="0" stop-color="#ff0000"/><stop offset="1" stop-color="#c30000"/></linearGradient><linearGradient x1="125.33336" y1="266.4643" x2="125.33336" y2="289.93096" gradientUnits="userSpaceOnUse" id="color-4"><stop offset="0" stop-color="#ff0000"/><stop offset="1" stop-color="#c30000"/></linearGradient><linearGradient x1="146.33337" y1="266.4643" x2="146.33337" y2="289.93096" gradientUnits="userSpaceOnUse" id="color-5"><stop offset="0" stop-color="#ff0000"/><stop offset="1" stop-color="#c30000"/></linearGradient><linearGradient x1="167.33337" y1="266.4643" x2="167.33337" y2="289.93096" gradientUnits="userSpaceOnUse" id="color-6"><stop offset="0" stop-color="#ff0000"/><stop offset="1" stop-color="#c30000"/></linearGradient><linearGradient x1="188.33338" y1="266.4643" x2="188.33338" y2="289.93096" gradientUnits="userSpaceOnUse" id="color-7"><stop offset="0" stop-color="#ff0000"/><stop offset="1" stop-color="#c30000"/></linearGradient><linearGradient x1="209.33338" y1="266.4643" x2="209.33338" y2="289.93096" gradientUnits="userSpaceOnUse" id="color-8"><stop offset="0" stop-color="#ff0000"/><stop offset="1" stop-color="#c30000"/></linearGradient><linearGradient x1="230.33336" y1="266.4643" x2="230.33336" y2="289.93096" gradientUnits="userSpaceOnUse" id="color-9"><stop offset="0" stop-color="#ff0000"/><stop offset="1" stop-color="#c30000"/></linearGradient><linearGradient x1="250.8311" y1="266.4643" x2="250.8311" y2="289.93096" gradientUnits="userSpaceOnUse" id="color-10"><stop offset="0" stop-color="#ff0000"/><stop offset="1" stop-color="#c30000"/></linearGradient><linearGradient x1="271.8311" y1="266.4643" x2="271.8311" y2="289.93096" gradientUnits="userSpaceOnUse" id="color-11"><stop offset="0" stop-color="#ff0000"/><stop offset="1" stop-color="#c30000"/></linearGradient><linearGradient x1="292.8311" y1="266.4643" x2="292.8311" y2="289.93096" gradientUnits="userSpaceOnUse" id="color-12"><stop offset="0" stop-color="#ff0000"/><stop offset="1" stop-color="#c30000"/></linearGradient><linearGradient x1="313.8311" y1="266.4643" x2="313.8311" y2="289.93096" gradientUnits="userSpaceOnUse" id="color-13"><stop offset="0" stop-color="#ff0000"/><stop offset="1" stop-color="#c30000"/></linearGradient><linearGradient x1="334.8311" y1="266.4643" x2="334.8311" y2="289.93096" gradientUnits="userSpaceOnUse" id="color-14"><stop offset="0" stop-color="#ff0000"/><stop offset="1" stop-color="#c30000"/></linearGradient><linearGradient x1="355.83112" y1="266.4643" x2="355.83112" y2="289.93096" gradientUnits="userSpaceOnUse" id="color-15"><stop offset="0" stop-color="#ff0000"/><stop offset="1" stop-color="#c30000"/></linearGradient><linearGradient x1="376.83111" y1="266.4643" x2="376.83111" y2="289.93096" gradientUnits="userSpaceOnUse" id="color-16"><stop offset="0" stop-color="#ff0000"/><stop offset="1" stop-color="#c30000"/></linearGradient><linearGradient x1="397.83112" y1="266.4643" x2="397.83112" y2="289.93096" gradientUnits="userSpaceOnUse" id="color-17"><stop offset="0" stop-color="#ff0000"/><stop offset="1" stop-color="#c30000"/></linearGradient><linearGradient x1="-0.00159" y1="266.4643" x2="-0.00159" y2="289.93096" gradientUnits="userSpaceOnUse" id="color-18"><stop offset="0" stop-color="#ff0000"/><stop offset="1" stop-color="#c30000"/></linearGradient><linearGradient x1="20.9984" y1="266.4643" x2="20.9984" y2="289.93096" gradientUnits="userSpaceOnUse" id="color-19"><stop offset="0" stop-color="#ff0000"/><stop offset="1" stop-color="#c30000"/></linearGradient><linearGradient x1="41.99841" y1="266.4643" x2="41.99841" y2="289.93096" gradientUnits="userSpaceOnUse" id="color-20"><stop offset="0" stop-color="#ff0000"/><stop offset="1" stop-color="#c30000"/></linearGradient></defs><g transform="translate(11.00159,-266.46429)"><g data-paper-data="{&quot;isPaintingLayer&quot;:true}" fill-rule="nonzero" stroke="none" stroke-width="0" stroke-linecap="butt" stroke-linejoin="miter" stroke-miterlimit="10" stroke-dasharray="" stroke-dashoffset="0" style="mix-blend-mode: normal"><path d="M51.33336,289.93096l10.86666,-23.46666l11.13334,23.46666z" fill="url(#color-1)"/><path d="M72.33335,289.93096l10.86666,-23.46666l11.13334,23.46666z" fill="url(#color-2)"/><path d="M93.33336,289.93096l10.86666,-23.46666l11.13334,23.46666z" fill="url(#color-3)"/><path d="M114.33336,289.93096l10.86667,-23.46667l11.13333,23.46667z" fill="url(#color-4)"/><path d="M135.33337,289.93096l10.86666,-23.46666l11.13334,23.46666z" fill="url(#color-5)"/><path d="M156.33337,289.93096l10.86666,-23.46666l11.13334,23.46666z" fill="url(#color-6)"/><path d="M177.33338,289.93096l10.86666,-23.46666l11.13334,23.46666z" fill="url(#color-7)"/><path d="M198.33338,289.93096l10.86666,-23.46666l11.13334,23.46666z" fill="url(#color-8)"/><path d="M219.33338,289.93096l10.86666,-23.46666l11.13334,23.46666z" fill="url(#color-9)"/><path d="M239.8311,289.93096l10.86667,-23.46667l11.13333,23.46667z" fill="url(#color-10)"/><path d="M260.8311,289.93096l10.86666,-23.46666l11.13334,23.46666z" fill="url(#color-11)"/><path d="M281.8311,289.93096l10.86666,-23.46666l11.13334,23.46666z" fill="url(#color-12)"/><path d="M302.8311,289.93096l10.86666,-23.46666l11.13334,23.46666z" fill="url(#color-13)"/><path d="M323.8311,289.93096l10.86666,-23.46666l11.13334,23.46666z" fill="url(#color-14)"/><path d="M344.83112,289.93096l10.86666,-23.46666l11.13334,23.46666z" fill="url(#color-15)"/><path d="M365.83111,289.93096l10.86667,-23.46667l11.13333,23.46667z" fill="url(#color-16)"/><path d="M386.83112,289.93096l10.86666,-23.46666l11.13334,23.46666z" fill="url(#color-17)"/><path d="M-11.00159,289.93096l10.86666,-23.46666l11.13334,23.46666z" fill="url(#color-18)"/><path d="M9.9984,289.93096l10.86666,-23.46666l11.13334,23.46666z" fill="url(#color-19)"/><path d="M30.99841,289.93096l10.86666,-23.46666l11.13334,23.46666z" fill="url(#color-20)"/></g></g></svg>