<svg version="1.1" xmlns="http://www.w3.org/2000/svg" xmlns:xlink="http://www.w3.org/1999/xlink" width="513.00691" height="379.74891" viewBox="0,0,513.00691,379.74891"><g transform="translate(18.80914,8.96352)"><g data-paper-data="{&quot;isPaintingLayer&quot;:true}" fill-rule="nonzero" stroke="none" stroke-width="0" stroke-linecap="butt" stroke-linejoin="miter" stroke-miterlimit="10" stroke-dasharray="" stroke-dashoffset="0" style="mix-blend-mode: normal"><path d="M326.99432,253.87705v-26.8h128.6v26.8z" fill="#ff0000"/><path d="M-4.97967,235.57705v-23h162.91667l169.58333,14.33333v23l-169.58333,-14.33333z" fill="#ff0000"/><path d="M328.08733,359.91628v-91.20444h133.07409v91.20444z" fill="#aaaaaa"/><path d="M406.55506,367.71866v-47h18.5v47z" fill="#848484"/><path d="M387.55506,341.21866v-27h55.5v27z" fill="#ffea00"/><path d="M-10.93375,341.10494v-89.73252h339.49285v89.73252z" fill="#868686"/><path d="M-17.90454,369.95205v-52.2035h397.60231v52.2035z" data-paper-data="{&quot;index&quot;:null}" fill="#000000"/><path d="M44.73187,153.70809v-26.54387l95.75586,26.07056v26.54387z" fill="#000000"/><path d="M205.97919,10.6388v-15.40182h131.61557v15.40182z" fill="#000000"/><path d="M337.12803,90.44824v-99.41176h35.47086v99.41176z" fill="#000000"/><path d="M450.07472,362.31259v-369.14278h42.00497v369.14278z" fill="#000000"/><path d="M-18.80914,268.91602v-35.28004l176.24462,0.34299l171.29156,12.65701v22.28004z" fill="#000000"/><path d="M358.19777,370.78539v-16.33333h136v16.33333z" fill="#000000"/><path d="M453.14695,249.10697v19.25h-127.39698v-19.25z" fill="#000000"/><path d="M409.0201,253.98432v9.49529h-36.68634v-9.49529z" fill="#00ff50"/><path d="M309.4974,257.27327h19.25v72.01827h-19.25z" fill="#000000"/><path d="M314.37475,273.71077h9.49529v36.68634h-9.49529z" fill="#ff0000"/><path d="M140.79862,186.00082v-32.61994h96.52821v32.61995z" fill="#5479ff"/><path d="M236.05105,186.28299v-32.61994h96.52821v32.61994z" fill="#ff5d5d"/><path d="M364.68034,186.02829h-32.61994v-96.52821h32.61994z" fill="#ff5d5d"/></g></g></svg>