<svg version="1.1" xmlns="http://www.w3.org/2000/svg" xmlns:xlink="http://www.w3.org/1999/xlink" width="354.99776" height="363.4667" viewBox="0,0,354.99776,363.4667"><defs><linearGradient x1="134.83335" y1="319.53335" x2="134.83335" y2="343.00003" gradientUnits="userSpaceOnUse" id="color-1"><stop offset="0" stop-color="#ff0000"/><stop offset="1" stop-color="#c30000"/></linearGradient><linearGradient x1="155.83335" y1="319.53335" x2="155.83335" y2="343.00003" gradientUnits="userSpaceOnUse" id="color-2"><stop offset="0" stop-color="#ff0000"/><stop offset="1" stop-color="#c30000"/></linearGradient><linearGradient x1="176.83337" y1="319.53335" x2="176.83337" y2="343.00003" gradientUnits="userSpaceOnUse" id="color-3"><stop offset="0" stop-color="#ff0000"/><stop offset="1" stop-color="#c30000"/></linearGradient><linearGradient x1="197.83337" y1="319.53335" x2="197.83337" y2="343.00003" gradientUnits="userSpaceOnUse" id="color-4"><stop offset="0" stop-color="#ff0000"/><stop offset="1" stop-color="#c30000"/></linearGradient><linearGradient x1="218.83337" y1="319.53335" x2="218.83337" y2="343.00003" gradientUnits="userSpaceOnUse" id="color-5"><stop offset="0" stop-color="#ff0000"/><stop offset="1" stop-color="#c30000"/></linearGradient><linearGradient x1="239.83334" y1="319.53335" x2="239.83334" y2="343.00003" gradientUnits="userSpaceOnUse" id="color-6"><stop offset="0" stop-color="#ff0000"/><stop offset="1" stop-color="#c30000"/></linearGradient><linearGradient x1="260.33108" y1="319.53335" x2="260.33108" y2="343.00003" gradientUnits="userSpaceOnUse" id="color-7"><stop offset="0" stop-color="#ff0000"/><stop offset="1" stop-color="#c30000"/></linearGradient><linearGradient x1="244.83108" y1="109.53335" x2="244.83108" y2="133" gradientUnits="userSpaceOnUse" id="color-8"><stop offset="0" stop-color="#ff0000"/><stop offset="1" stop-color="#c30000"/></linearGradient><linearGradient x1="281.3311" y1="319.53335" x2="281.3311" y2="343.00003" gradientUnits="userSpaceOnUse" id="color-9"><stop offset="0" stop-color="#ff0000"/><stop offset="1" stop-color="#c30000"/></linearGradient><linearGradient x1="362.8311" y1="-20.46666" x2="362.8311" y2="3" gradientUnits="userSpaceOnUse" id="color-10"><stop offset="0" stop-color="#ff0000"/><stop offset="1" stop-color="#c30000"/></linearGradient><linearGradient x1="383.83111" y1="-20.46666" x2="383.83111" y2="3" gradientUnits="userSpaceOnUse" id="color-11"><stop offset="0" stop-color="#ff0000"/><stop offset="1" stop-color="#c30000"/></linearGradient><linearGradient x1="404.83111" y1="-20.46666" x2="404.83111" y2="3" gradientUnits="userSpaceOnUse" id="color-12"><stop offset="0" stop-color="#ff0000"/><stop offset="1" stop-color="#c30000"/></linearGradient><linearGradient x1="425.83111" y1="-20.46666" x2="425.83111" y2="3" gradientUnits="userSpaceOnUse" id="color-13"><stop offset="0" stop-color="#ff0000"/><stop offset="1" stop-color="#c30000"/></linearGradient><linearGradient x1="446.83111" y1="-20.46666" x2="446.83111" y2="3" gradientUnits="userSpaceOnUse" id="color-14"><stop offset="0" stop-color="#ff0000"/><stop offset="1" stop-color="#c30000"/></linearGradient><linearGradient x1="467.83111" y1="-20.46666" x2="467.83111" y2="3" gradientUnits="userSpaceOnUse" id="color-15"><stop offset="0" stop-color="#ff0000"/><stop offset="1" stop-color="#c30000"/></linearGradient></defs><g transform="translate(-123.83335,20.46667)"><g data-paper-data="{&quot;isPaintingLayer&quot;:true}" fill-rule="nonzero" stroke="none" stroke-width="0" stroke-linecap="butt" stroke-linejoin="miter" stroke-miterlimit="10" stroke-dasharray="" stroke-dashoffset="0" style="mix-blend-mode: normal"><path d="M123.83335,343.00003l10.86667,-23.46667l11.13333,23.46667z" fill="url(#color-1)"/><path d="M144.83335,343.00003l10.86666,-23.46666l11.13334,23.46666z" fill="url(#color-2)"/><path d="M165.83335,343.00003l10.86666,-23.46666l11.13334,23.46666z" fill="url(#color-3)"/><path d="M186.83337,343.00003l10.86666,-23.46666l11.13334,23.46666z" fill="url(#color-4)"/><path d="M207.83337,343.00003l10.86666,-23.46666l11.13334,23.46666z" fill="url(#color-5)"/><path d="M228.83337,343.00003l10.86666,-23.46666l11.13334,23.46666z" fill="url(#color-6)"/><path d="M249.33108,343.00003l10.86667,-23.46667l11.13333,23.46667z" fill="url(#color-7)"/><path d="M233.83108,133l10.86667,-23.46667l11.13333,23.46667z" fill="url(#color-8)"/><path d="M270.3311,343.00003l10.86666,-23.46666l11.13334,23.46666z" fill="url(#color-9)"/><path d="M351.8311,3l10.86667,-23.46667l11.13333,23.46667z" fill="url(#color-10)"/><path d="M372.83111,3l10.86666,-23.46666l11.13334,23.46666z" fill="url(#color-11)"/><path d="M393.83111,3l10.86666,-23.46666l11.13334,23.46666z" fill="url(#color-12)"/><path d="M414.83111,3l10.86666,-23.46666l11.13334,23.46666z" fill="url(#color-13)"/><path d="M435.83111,3l10.86666,-23.46666l11.13334,23.46666z" fill="url(#color-14)"/><path d="M456.83111,3l10.86666,-23.46666l11.13334,23.46666z" fill="url(#color-15)"/></g></g></svg>