<svg version="1.1" xmlns="http://www.w3.org/2000/svg" xmlns:xlink="http://www.w3.org/1999/xlink" width="99.02821" height="35.11994" viewBox="0,0,99.02821,35.11994"><defs><radialGradient cx="240.00003" cy="180" r="48.26411" gradientUnits="userSpaceOnUse" id="color-1"><stop offset="0" stop-color="#99ff80"/><stop offset="1" stop-color="#70ff4d"/></radialGradient></defs><g transform="translate(-190.48591,-162.44003)"><g data-paper-data="{&quot;isPaintingLayer&quot;:true}" fill-rule="nonzero" stroke-linecap="butt" stroke-linejoin="miter" stroke-miterlimit="10" stroke-dasharray="" stroke-dashoffset="0" style="mix-blend-mode: normal"><path d="M191.73592,196.30997v-32.61994h96.52821v32.61994z" fill="url(#color-1)" stroke="#000000" stroke-width="2.5"/><g fill="#56ef30" stroke="none" stroke-width="0"><path d="M193.06831,171.72542v-3.33992h3.33992v3.33992z"/><path d="M196.38727,168.40647v-3.33992h3.33992v3.33992z"/><path d="M193.06831,178.36332v-3.33992h3.33992v3.33992z"/><path d="M196.38727,175.04437v-3.33992h3.33992v3.33992z"/><path d="M193.06831,184.88873v-3.33992h3.33992v3.33992z"/><path d="M196.38727,181.56977v-3.33992h3.33992v3.33992z"/><path d="M193.06831,191.52663v-3.33992h3.33992v3.33992z"/><path d="M196.38727,188.20768v-3.33992h3.33992v3.33992z"/><path d="M196.38727,194.90184v-3.33992h3.33992v3.33992z"/><path d="M199.72528,171.72542v-3.33992h3.33992v3.33992z"/><path d="M203.04422,168.40647v-3.33992h3.33992v3.33992z"/><path d="M199.72528,178.36332v-3.33992h3.33992v3.33992z"/><path d="M203.04422,175.04437v-3.33992h3.33992v3.33992z"/><path d="M199.72528,184.88873v-3.33992h3.33992v3.33992z"/><path d="M203.04422,181.56977v-3.33992h3.33992v3.33992z"/><path d="M199.72528,191.52663v-3.33992h3.33992v3.33992z"/><path d="M203.04422,188.20768v-3.33992h3.33992v3.33992z"/><path d="M203.04422,194.90184v-3.33992h3.33992v3.33992z"/></g><g fill="#56ef30" stroke="none" stroke-width="0"><path d="M206.56261,171.72542v-3.33992h3.33992v3.33992z"/><path d="M209.88156,168.40647v-3.33992h3.33992v3.33992z"/><path d="M206.56261,178.36332v-3.33992h3.33992v3.33992z"/><path d="M209.88156,175.04437v-3.33992h3.33992v3.33992z"/><path d="M206.56261,184.88873v-3.33992h3.33992v3.33992z"/><path d="M209.88156,181.56977v-3.33992h3.33992v3.33992z"/><path d="M206.56261,191.52663v-3.33992h3.33992v3.33992z"/><path d="M209.88156,188.20768v-3.33992h3.33992v3.33992z"/><path d="M209.88156,194.90184v-3.33992h3.33992v3.33992z"/><path d="M213.21956,171.72542v-3.33992h3.33992v3.33992z"/><path d="M216.53852,168.40647v-3.33992h3.33992v3.33992z"/><path d="M213.21956,178.36332v-3.33992h3.33992v3.33992z"/><path d="M216.53852,175.04437v-3.33992h3.33992v3.33992z"/><path d="M213.21956,184.88873v-3.33992h3.33992v3.33992z"/><path d="M216.53852,181.56977v-3.33992h3.33992v3.33992z"/><path d="M213.21956,191.52663v-3.33992h3.33992v3.33992z"/><path d="M216.53852,188.20768v-3.33992h3.33992v3.33992z"/><path d="M216.53852,194.90184v-3.33992h3.33992v3.33992z"/></g><g fill="#56ef30" stroke="none" stroke-width="0"><path d="M219.72941,171.72542v-3.33992h3.33992v3.33992z"/><path d="M223.04836,168.40647v-3.33992h3.33992v3.33992z"/><path d="M219.72941,178.36332v-3.33992h3.33992v3.33992z"/><path d="M223.04836,175.04437v-3.33992h3.33992v3.33992z"/><path d="M219.72941,184.88873v-3.33992h3.33992v3.33992z"/><path d="M223.04836,181.56977v-3.33992h3.33992v3.33992z"/><path d="M219.72941,191.52663v-3.33992h3.33992v3.33992z"/><path d="M223.04836,188.20768v-3.33992h3.33992v3.33992z"/><path d="M223.04836,194.90184v-3.33992h3.33992v3.33992z"/><path d="M226.38636,171.72542v-3.33992h3.33992v3.33992z"/><path d="M229.70532,168.40647v-3.33992h3.33992v3.33992z"/><path d="M226.38636,178.36332v-3.33992h3.33992v3.33992z"/><path d="M229.70532,175.04437v-3.33992h3.33992v3.33992z"/><path d="M226.38636,184.88873v-3.33992h3.33992v3.33992z"/><path d="M229.70532,181.56977v-3.33992h3.33992v3.33992z"/><path d="M226.38636,191.52663v-3.33992h3.33992v3.33992z"/><path d="M229.70532,188.20768v-3.33992h3.33992v3.33992z"/><path d="M229.70532,194.90184v-3.33992h3.33992v3.33992z"/></g><g fill="#56ef30" stroke="none" stroke-width="0"><path d="M233.2237,171.72542v-3.33992h3.33992v3.33992z"/><path d="M236.54265,168.40647v-3.33992h3.33992v3.33992z"/><path d="M233.2237,178.36332v-3.33992h3.33992v3.33992z"/><path d="M236.54265,175.04437v-3.33992h3.33992v3.33992z"/><path d="M233.2237,184.88873v-3.33992h3.33992v3.33992z"/><path d="M236.54265,181.56977v-3.33992h3.33992v3.33992z"/><path d="M233.2237,191.52663v-3.33992h3.33992v3.33992z"/><path d="M236.54265,188.20768v-3.33992h3.33992v3.33992z"/><path d="M236.54265,194.90184v-3.33992h3.33992v3.33992z"/><path d="M239.88066,171.72542v-3.33992h3.33992v3.33992z"/><path d="M243.19961,168.40647v-3.33992h3.33992v3.33992z"/><path d="M239.88066,178.36332v-3.33992h3.33992v3.33992z"/><path d="M243.19961,175.04437v-3.33992h3.33992v3.33992z"/><path d="M239.88066,184.88873v-3.33992h3.33992v3.33992z"/><path d="M243.19961,181.56977v-3.33992h3.33992v3.33992z"/><path d="M239.88066,191.52663v-3.33992h3.33992v3.33992z"/><path d="M243.19961,188.20768v-3.33992h3.33992v3.33992z"/><path d="M243.19961,194.90184v-3.33992h3.33992v3.33992z"/></g><g fill="#56ef30" stroke="none" stroke-width="0"><path d="M246.76867,171.72542v-3.33992h3.33992v3.33992z"/><path d="M250.08762,168.40647v-3.33992h3.33992v3.33992z"/><path d="M246.76867,178.36332v-3.33992h3.33992v3.33992z"/><path d="M250.08762,175.04437v-3.33992h3.33992v3.33992z"/><path d="M246.76867,184.88873v-3.33992h3.33992v3.33992z"/><path d="M250.08762,181.56977v-3.33992h3.33992v3.33992z"/><path d="M246.76867,191.52663v-3.33992h3.33992v3.33992z"/><path d="M250.08762,188.20768v-3.33992h3.33992v3.33992z"/><path d="M250.08762,194.90184v-3.33992h3.33992v3.33992z"/><path d="M253.42564,171.72542v-3.33992h3.33992v3.33992z"/><path d="M256.74459,168.40647v-3.33992h3.33992v3.33992z"/><path d="M253.42564,178.36332v-3.33992h3.33992v3.33992z"/><path d="M256.74459,175.04437v-3.33992h3.33992v3.33992z"/><path d="M253.42564,184.88873v-3.33992h3.33992v3.33992z"/><path d="M256.74459,181.56977v-3.33992h3.33992v3.33992z"/><path d="M253.42564,191.52663v-3.33992h3.33992v3.33992z"/><path d="M256.74459,188.20768v-3.33992h3.33992v3.33992z"/><path d="M256.74459,194.90184v-3.33992h3.33992v3.33992z"/></g><g fill="#56ef30" stroke="none" stroke-width="0"><path d="M260.26296,171.72542v-3.33992h3.33992v3.33992z"/><path d="M263.5819,168.40647v-3.33992h3.33992v3.33992z"/><path d="M260.26296,178.36332v-3.33992h3.33992v3.33992z"/><path d="M263.5819,175.04437v-3.33992h3.33992v3.33992z"/><path d="M260.26296,184.88873v-3.33992h3.33992v3.33992z"/><path d="M263.5819,181.56977v-3.33992h3.33992v3.33992z"/><path d="M260.26296,191.52663v-3.33992h3.33992v3.33992z"/><path d="M263.5819,188.20768v-3.33992h3.33992v3.33992z"/><path d="M263.5819,194.90184v-3.33992h3.33992v3.33992z"/><path d="M266.91993,171.72542v-3.33992h3.33992v3.33992z"/><path d="M270.23887,168.40647v-3.33992h3.33992v3.33992z"/><path d="M266.91993,178.36332v-3.33992h3.33992v3.33992z"/><path d="M270.23887,175.04437v-3.33992h3.33992v3.33992z"/><path d="M266.91993,184.88873v-3.33992h3.33992v3.33992z"/><path d="M270.23887,181.56977v-3.33992h3.33992v3.33992z"/><path d="M266.91993,191.52663v-3.33992h3.33992v3.33992z"/><path d="M270.23887,188.20768v-3.33992h3.33992v3.33992z"/><path d="M270.23887,194.90184v-3.33992h3.33992v3.33992z"/></g><g fill="#56ef30" stroke="none" stroke-width="0"><path d="M273.68805,171.72542v-3.33992h3.33992v3.33992z"/><path d="M277.00701,168.40647v-3.33992h3.33992v3.33992z"/><path d="M273.68805,178.36332v-3.33992h3.33992v3.33992z"/><path d="M277.00701,175.04437v-3.33992h3.33992v3.33992z"/><path d="M273.68805,184.88873v-3.33992h3.33992v3.33992z"/><path d="M277.00701,181.56977v-3.33992h3.33992v3.33992z"/><path d="M273.68805,191.52663v-3.33992h3.33992v3.33992z"/><path d="M277.00701,188.20768v-3.33992h3.33992v3.33992z"/><path d="M277.00701,194.90184v-3.33992h3.33992v3.33992z"/><path d="M280.34501,171.72542v-3.33992h3.33992v3.33992z"/><path d="M283.66398,168.40647v-3.33992h3.33992v3.33992z"/><path d="M280.34501,178.36332v-3.33992h3.33992v3.33992z"/><path d="M283.66398,175.04437v-3.33992h3.33992v3.33992z"/><path d="M280.34501,184.88873v-3.33992h3.33992v3.33992z"/><path d="M283.66398,181.56977v-3.33992h3.33992v3.33992z"/><path d="M280.34501,191.52663v-3.33992h3.33992v3.33992z"/><path d="M283.66398,188.20768v-3.33992h3.33992v3.33992z"/><path d="M283.66398,194.90184v-3.33992h3.33992v3.33992z"/></g></g></g></svg>