<svg version="1.1" xmlns="http://www.w3.org/2000/svg" xmlns:xlink="http://www.w3.org/1999/xlink" width="60.71429" height="56.71429" viewBox="0,0,60.71429,56.71429"><g transform="translate(-209.64287,-151.64287)"><g data-paper-data="{&quot;isPaintingLayer&quot;:true}" fill-rule="nonzero" stroke-linejoin="miter" stroke-miterlimit="10" stroke-dasharray="" stroke-dashoffset="0" style="mix-blend-mode: normal"><path d="M228.01169,180.08216c0,-10.07262 3.87286,-18.06483 8.91267,-18.23809c2.67705,-0.09203 3.95122,-0.16431 3.95122,-0.16431l-0.13081,36.49874c0,0 -0.76111,0.14177 -3.82043,0.14177c-4.92233,0 -8.91267,-8.16548 -8.91267,-18.23811z" fill="#ffffff" stroke="#000000" stroke-width="2" stroke-linecap="butt"/><path d="M234.16301,180.08216c0,-10.07262 3.99033,-18.23809 8.91267,-18.23809c4.92233,0 8.91268,8.16546 8.91268,18.23809c0,10.07262 -3.99034,18.23811 -8.91268,18.23811c-4.92233,0 -8.91267,-8.16548 -8.91267,-18.23811z" fill="#ffffff" stroke="#000000" stroke-width="2" stroke-linecap="butt"/><path d="M241.24878,175.68986c0,0 -0.04298,-4.16887 2.00666,-4.17227c1.82213,-0.00303 1.78682,4.13115 1.78634,4.17227c-0.03151,2.68661 -1.89072,2.24468 -1.88767,4.79971c0.00225,1.88081 0,3.46818 0,3.46818" fill="none" stroke="#adadad" stroke-width="2" stroke-linecap="round"/><path d="M242.31671,187.37718c0,-0.53947 0.39972,-0.9768 0.89281,-0.9768c0.49309,0 0.89281,0.43733 0.89281,0.9768c0,0.53947 -0.39972,0.9768 -0.89281,0.9768c-0.49309,0 -0.89281,-0.43733 -0.89281,-0.9768z" fill="#adadad" stroke="none" stroke-width="0" stroke-linecap="butt"/><path d="M209.64288,208.35717v-56.71429h60.71429v56.71429z" fill="none" stroke="none" stroke-width="0" stroke-linecap="butt"/></g></g></svg>