<svg version="1.1" xmlns="http://www.w3.org/2000/svg" xmlns:xlink="http://www.w3.org/1999/xlink" width="45" height="45" viewBox="0,0,45,45"><g transform="translate(-222.75,-290.4)"><g data-paper-data="{&quot;isPaintingLayer&quot;:true}" fill-rule="nonzero" stroke="none" stroke-linecap="butt" stroke-linejoin="miter" stroke-miterlimit="10" stroke-dasharray="" stroke-dashoffset="0" style="mix-blend-mode: normal"><path d="M222.75,335.4v-45h45v45z" fill="#949494" stroke-width="0"/><path d="M224.5,294.40001c0,-1.24264 1.00736,-2.25 2.25,-2.25c1.24264,0 2.25,1.00736 2.25,2.25c0,1.24264 -1.00736,2.25 -2.25,2.25c-1.24264,0 -2.25,-1.00736 -2.25,-2.25z" fill="#737373" stroke-width="0"/><path d="M263.75,292.15c1.24264,0 2.25,1.00736 2.25,2.25c0,1.24264 -1.00736,2.25 -2.25,2.25c-1.24264,0 -2.25,-1.00736 -2.25,-2.25c0,-1.24264 1.00736,-2.25 2.25,-2.25z" fill="#737373" stroke-width="0"/><path d="M266.25,331.65c0,1.24264 -1.00736,2.25 -2.25,2.25c-1.24264,0 -2.25,-1.00736 -2.25,-2.25c0,-1.24264 1.00736,-2.25 2.25,-2.25c1.24264,0 2.25,1.00736 2.25,2.25z" fill="#737373" stroke-width="0"/><path d="M227.00001,333.9c-1.24264,0 -2.25,-1.00736 -2.25,-2.25c0,-1.24264 1.00736,-2.25 2.25,-2.25c1.24264,0 2.25,1.00736 2.25,2.25c0,1.24264 -1.00736,2.25 -2.25,2.25z" fill="#737373" stroke-width="0"/><path d="M243.0097,311.52809c0.25994,0.2646 0.5131,0.72192 0.18807,1.37198c-0.54814,1.09628 -1.64443,0.54814 -1.64443,0.54814l-0.91764,-1.10788c-0.06771,-0.7886 -0.21214,-1.57581 -0.44361,-2.3327c0,0 -0.3522,-1.17399 0.82179,-1.52619c1.17399,-0.3522 1.52619,0.82179 1.52619,0.82179c0.21445,0.72644 0.36951,1.47282 0.46963,2.22486z" fill="#737373" stroke-width="0.5"/><path d="M248.47504,314.19045c-1.22568,0 -1.22568,-1.22568 -1.22568,-1.22568l0.03139,-0.82751c-0.20466,-0.89645 -0.45768,-1.78674 -0.8017,-2.63947c0,0 -0.45521,-1.13802 0.68281,-1.59322c1.13802,-0.45521 1.59322,0.68281 1.59322,0.68281c0.38561,0.97123 0.67715,1.98094 0.91426,2.99867l0.03139,1.37872c0,0 0,1.22568 -1.22568,1.22568z" fill="#737373" stroke-width="0.5"/><path d="M251.93722,315.19445c0.9571,0.76568 0.19142,1.72278 0.19142,1.72278l-0.53128,0.66146c-2.22121,2.46813 -5.8316,4.17337 -9.23123,3.17995c-2.29126,-0.66954 -4.03955,-2.69393 -5.82095,-4.14874c0,0 -0.94863,-0.77615 -0.17248,-1.72478c0.77615,-0.94863 1.72478,-0.17248 1.72478,-0.17248c1.47807,1.21141 3.06285,3.14237 4.96506,3.69563c2.45785,0.71487 5.14272,-0.67615 6.70264,-2.45819l0.44926,-0.56422c0,0 0.76568,-0.9571 1.72278,-0.19142z" fill="#737373" stroke-width="0.5"/></g></g></svg>