<svg version="1.1" xmlns="http://www.w3.org/2000/svg" xmlns:xlink="http://www.w3.org/1999/xlink" width="541.04722" height="434.27844" viewBox="0,0,541.04722,434.27844"><defs><linearGradient x1="408.72484" y1="199.58694" x2="408.72484" y2="314.38424" gradientUnits="userSpaceOnUse" id="color-1"><stop offset="0" stop-color="#3a00ff" stop-opacity="0"/><stop offset="1" stop-color="#3a00ff"/></linearGradient><linearGradient x1="338.08035" y1="199.58694" x2="338.08035" y2="314.38424" gradientUnits="userSpaceOnUse" id="color-2"><stop offset="0" stop-color="#3a00ff" stop-opacity="0"/><stop offset="1" stop-color="#3a00ff"/></linearGradient><linearGradient x1="373.67855" y1="199.58692" x2="373.67855" y2="314.38424" gradientUnits="userSpaceOnUse" id="color-3"><stop offset="0" stop-color="#3a00ff" stop-opacity="0"/><stop offset="1" stop-color="#3a00ff"/></linearGradient></defs><g transform="translate(28.47196,12.42223)"><g data-paper-data="{&quot;isPaintingLayer&quot;:true}" fill-rule="nonzero" stroke="none" stroke-width="0" stroke-linecap="butt" stroke-linejoin="miter" stroke-miterlimit="10" stroke-dasharray="" stroke-dashoffset="0" style="mix-blend-mode: normal"><path d="M512.57526,313.00001v73h-523.76v-73z" data-paper-data="{&quot;index&quot;:null}" fill="#000000"/><path d="M-28.47196,373.00001v-226h57v226z" fill="#000000"/><path d="M25.27804,355.50001v-138.5h30v138.5z" fill="#000000"/><path d="M19.59945,355.71966l29.51254,-77.57583l173.84464,66.13655l-29.51254,77.57583z" fill="#000000"/><path d="M143.20165,151.0505v-22.91667h69v22.91667z" fill="#000000"/><path d="M328.20167,93.13383v-21.08333h157.50366v21.08333z" fill="#000000"/><path d="M456.91306,90.30523v-102.72746h38.72035v102.72746z" fill="#000000"/><path d="M401.82597,314.38424v-114.7973h13.79775v114.7973z" fill="url(#color-1)"/><path d="M331.18145,314.38424v-114.7973h13.79776v114.7973z" fill="url(#color-2)"/><path d="M358.77696,314.38424v-114.7973h29.80315v114.7973z" fill="url(#color-3)"/></g></g></svg>