<svg version="1.1" xmlns="http://www.w3.org/2000/svg" xmlns:xlink="http://www.w3.org/1999/xlink" width="573.45033" height="420.97549" viewBox="0,0,573.45033,420.97549"><g transform="translate(29.70756,34.98194)"><g data-paper-data="{&quot;isPaintingLayer&quot;:true}" fill-rule="nonzero" stroke="none" stroke-width="0" stroke-linecap="butt" stroke-linejoin="miter" stroke-miterlimit="10" stroke-dasharray="" stroke-dashoffset="0" style="mix-blend-mode: normal"><path d="M488.69474,366.07078l-497.40459,-0.58312v-378.74265h497.40459z" fill="#aaaaaa"/><path d="M97.61482,249.32166v-20h28v20z" fill="#ff0000"/><path d="M22.11482,180.82166v-23.5h32v23.5z" fill="#ff0000"/><path d="M147.61483,216.84617v-120h27.5v120z" fill="#ff0000"/><path d="M145.61483,233.34617v-30h187v30z" fill="#ff0000"/><path d="M451.23774,374.0694v-292.67566h40.18048v292.67566z" data-paper-data="{&quot;index&quot;:null}" fill="#000000"/><path d="M229.00606,25.81414v-58.55856h314.73671v58.55856z" data-paper-data="{&quot;index&quot;:null}" fill="#000000"/><path d="M-28.74862,385.99355v-420.97549h55.61863v420.97549z" fill="#000000"/><path d="M-29.70756,383.61672v-53.36498h509.19815v53.36498z" fill="#000000"/><path d="M330.69757,165.07371v-47.33132h122.38008v47.33132z" fill="#000000"/><path d="M395.13494,119.98128l56.31774,-38.86717v38.86717z" fill="#000000"/><path d="M229.26761,110.5058v-116h42v116z" fill="#000000"/><path d="M136.53211,260.0058v-29h208.18273v29z" fill="#000000"/><path d="M122.77502,259.97528v-177.63897h26.67933v177.63897z" fill="#000000"/><path d="M330.3828,259.47528v-141.40857h65.67933v141.40857z" fill="#000000"/><path d="M24.47857,26.1219v-43.82576h210.96304v43.82576z" fill="#000000"/><path d="M67.08564,105.03692v-22.22361h70.48537v22.22361z" fill="#000000"/><path d="M150.11483,298.32166v-22h16.5v22z" fill="#ff0000"/><path d="M144.61483,360.32166v-64h27v64z" fill="#000000"/><path d="M247.61484,298.32166v-22h16.5v22z" fill="#ff0000"/><path d="M242.11484,360.32166v-64h27v64z" fill="#000000"/><path d="M352.61484,298.32166v-22h16.5v22z" fill="#ff0000"/><path d="M347.11484,360.32166v-64h27v64z" fill="#000000"/></g></g></svg>