<svg version="1.1" xmlns="http://www.w3.org/2000/svg" xmlns:xlink="http://www.w3.org/1999/xlink" width="480.74978" height="365.30329" viewBox="0,0,480.74978,365.30329"><defs><radialGradient cx="314.29805" cy="325.09309" r="177.1509" gradientUnits="userSpaceOnUse" id="color-1"><stop offset="0" stop-color="#c4c4c4"/><stop offset="1" stop-color="#aaaaaa"/></radialGradient></defs><g transform="translate(-12.69916,-5.33335)"><g data-paper-data="{&quot;isPaintingLayer&quot;:true}" fill-rule="nonzero" stroke-linejoin="miter" stroke-miterlimit="10" stroke-dasharray="" stroke-dashoffset="0" style="mix-blend-mode: normal"><path d="M62.04439,61.02281v12.69768h-24.39768v-12.69768z" data-paper-data="{&quot;index&quot;:null}" fill="#717171" stroke="none" stroke-width="0" stroke-linecap="butt"/><path d="M35.31027,60.28432l3.42636,6.70155" data-paper-data="{&quot;index&quot;:null}" fill="none" stroke="#717171" stroke-width="3" stroke-linecap="round"/><path d="M64.4214,60.43547l-3.42636,6.70155" data-paper-data="{&quot;index&quot;:null}" fill="none" stroke="#717171" stroke-width="3" stroke-linecap="round"/><text transform="translate(38.72603,66.5291) scale(0.09948,0.09948)" font-size="40" xml:space="preserve" fill="#484848" fill-rule="nonzero" stroke="none" stroke-width="1" stroke-linecap="butt" stroke-linejoin="miter" stroke-miterlimit="10" stroke-dasharray="" stroke-dashoffset="0" font-family="Sans Serif" font-weight="normal" text-anchor="start" style="mix-blend-mode: normal"><tspan x="0" dy="0">Gonna rage</tspan><tspan x="0" dy="46.150000000000006px">quit yet?</tspan></text><path d="M74.75561,9.05382v52.22222h-50.03333v-52.22222z" data-paper-data="{&quot;index&quot;:null}" fill="#8b8b8b" stroke="none" stroke-width="0" stroke-linecap="butt"/><text transform="translate(28.6,21.43219) scale(0.2568,0.2568)" font-size="40" xml:space="preserve" fill="#484848" fill-rule="nonzero" stroke="none" stroke-width="1" stroke-linecap="butt" stroke-linejoin="miter" stroke-miterlimit="10" stroke-dasharray="" stroke-dashoffset="0" font-family="Sans Serif" font-weight="normal" text-anchor="start" style="mix-blend-mode: normal"><tspan x="0" dy="0">Harder</tspan><tspan x="0" dy="46.150000000000006px">than it</tspan><tspan x="0" dy="46.150000000000006px">looks</tspan></text><path d="M25.53249,29.00001l-11.33333,-22.16666" data-paper-data="{&quot;index&quot;:null}" fill="none" stroke="#8b8b8b" stroke-width="3" stroke-linecap="round"/><path d="M73.1992,29.50001l11.33333,-22.16666" data-paper-data="{&quot;index&quot;:null}" fill="none" stroke="#8b8b8b" stroke-width="3" stroke-linecap="round"/><g fill="#484848" stroke="none" stroke-width="0.5" stroke-linecap="butt"><path d="M59.98782,49.51758c-0.7398,-0.1233 -0.6165,-0.86309 -0.6165,-0.86309l0.10091,-0.54337c0,-0.87499 0.00477,-1.70493 -0.10532,-2.57364c0,0 -0.09303,-0.74421 0.65118,-0.83723c0.74421,-0.09303 0.83723,0.65118 0.83723,0.65118c0.11493,0.93104 0.1169,1.82273 0.1169,2.75969l-0.12132,0.78997c0,0 -0.1233,0.7398 -0.86309,0.6165z"/><path d="M65.7656,50.07313c-0.7398,-0.1233 -0.6165,-0.86309 -0.6165,-0.86309l0.12976,-0.74941c0.29361,-1.01875 0.40113,-2.05807 0.53249,-3.10921c0,0 0.09303,-0.74421 0.83723,-0.65118c0.74421,0.09303 0.65118,0.83723 0.65118,0.83723c-0.14125,1.1297 -0.26774,2.23873 -0.57862,3.33524l-0.09246,0.58393c0,0 -0.1233,0.7398 -0.86309,0.6165z"/><path d="M70.64146,52.35856c0.53033,0.53033 0,1.06066 0,1.06066l-0.11111,0.11111c-2.3555,2.33244 -9.0097,3.50792 -12.23009,2.17487c-1.14136,-0.47245 -1.65186,-1.88879 -2.34468,-2.81076c0,0 -0.45,-0.6 0.15,-1.05c0.6,-0.45 1.05,0.15 1.05,0.15c0.37058,0.495 1.0533,2.10681 1.65532,2.30035c2.81807,0.90598 8.56652,0.29254 10.6588,-1.82513l0.11111,-0.11111c0,0 0.53033,-0.53033 1.06066,0z"/></g><path d="M137.14715,368.63664v-87.08709h354.3018v87.08709z" fill="url(#color-1)" stroke="#999999" stroke-width="4" stroke-linecap="butt"/></g></g></svg>