<svg version="1.1" xmlns="http://www.w3.org/2000/svg" xmlns:xlink="http://www.w3.org/1999/xlink" width="23.4667" height="504.49774" viewBox="0,0,23.4667,504.49774"><defs><linearGradient x1="446.84891" y1="311.51559" x2="470.31555" y2="311.51559" gradientUnits="userSpaceOnUse" id="color-1"><stop offset="0" stop-color="#ff0000"/><stop offset="1" stop-color="#c30000"/></linearGradient><linearGradient x1="446.84892" y1="291.51558" x2="470.31555" y2="291.51558" gradientUnits="userSpaceOnUse" id="color-2"><stop offset="0" stop-color="#ff0000"/><stop offset="1" stop-color="#c30000"/></linearGradient><linearGradient x1="446.84891" y1="270.51559" x2="470.31555" y2="270.51559" gradientUnits="userSpaceOnUse" id="color-3"><stop offset="0" stop-color="#ff0000"/><stop offset="1" stop-color="#c30000"/></linearGradient><linearGradient x1="446.84891" y1="251.01559" x2="470.31555" y2="251.01559" gradientUnits="userSpaceOnUse" id="color-4"><stop offset="0" stop-color="#ff0000"/><stop offset="1" stop-color="#c30000"/></linearGradient><linearGradient x1="446.84891" y1="230.51559" x2="470.31555" y2="230.51559" gradientUnits="userSpaceOnUse" id="color-5"><stop offset="0" stop-color="#ff0000"/><stop offset="1" stop-color="#c30000"/></linearGradient><linearGradient x1="446.84891" y1="210.51559" x2="470.31555" y2="210.51559" gradientUnits="userSpaceOnUse" id="color-6"><stop offset="0" stop-color="#ff0000"/><stop offset="1" stop-color="#c30000"/></linearGradient><linearGradient x1="446.84892" y1="190.01559" x2="470.31558" y2="190.01559" gradientUnits="userSpaceOnUse" id="color-7"><stop offset="0" stop-color="#ff0000"/><stop offset="1" stop-color="#c30000"/></linearGradient><linearGradient x1="446.84892" y1="170.01559" x2="470.31558" y2="170.01559" gradientUnits="userSpaceOnUse" id="color-8"><stop offset="0" stop-color="#ff0000"/><stop offset="1" stop-color="#c30000"/></linearGradient><linearGradient x1="446.84892" y1="-107.98215" x2="470.31558" y2="-107.98215" gradientUnits="userSpaceOnUse" id="color-9"><stop offset="0" stop-color="#ff0000"/><stop offset="1" stop-color="#c30000"/></linearGradient><linearGradient x1="446.84892" y1="-128.98215" x2="470.31558" y2="-128.98215" gradientUnits="userSpaceOnUse" id="color-10"><stop offset="0" stop-color="#ff0000"/><stop offset="1" stop-color="#c30000"/></linearGradient><linearGradient x1="446.84892" y1="-149.98215" x2="470.31558" y2="-149.98215" gradientUnits="userSpaceOnUse" id="color-11"><stop offset="0" stop-color="#ff0000"/><stop offset="1" stop-color="#c30000"/></linearGradient><linearGradient x1="446.84892" y1="-170.98215" x2="470.31558" y2="-170.98215" gradientUnits="userSpaceOnUse" id="color-12"><stop offset="0" stop-color="#ff0000"/><stop offset="1" stop-color="#c30000"/></linearGradient><linearGradient x1="446.84892" y1="149.51558" x2="470.31558" y2="149.51558" gradientUnits="userSpaceOnUse" id="color-13"><stop offset="0" stop-color="#ff0000"/><stop offset="1" stop-color="#c30000"/></linearGradient><linearGradient x1="446.84893" y1="129.01558" x2="470.31559" y2="129.01558" gradientUnits="userSpaceOnUse" id="color-14"><stop offset="0" stop-color="#ff0000"/><stop offset="1" stop-color="#c30000"/></linearGradient></defs><g transform="translate(-446.84888,181.98216)"><g data-paper-data="{&quot;isPaintingLayer&quot;:true}" fill-rule="nonzero" stroke="none" stroke-width="0" stroke-linecap="butt" stroke-linejoin="miter" stroke-miterlimit="10" stroke-dasharray="" stroke-dashoffset="0" style="mix-blend-mode: normal"><path d="M470.31555,322.51559l-23.46667,-10.86667l23.46667,-11.13333z" fill="url(#color-1)"/><path d="M470.31555,302.51558l-23.46666,-10.86666l23.46666,-11.13334z" fill="url(#color-2)"/><path d="M470.31555,281.51559l-23.46666,-10.86666l23.46666,-11.13334z" fill="url(#color-3)"/><path d="M470.31555,262.01559l-23.46666,-10.86666l23.46666,-11.13334z" fill="url(#color-4)"/><path d="M470.31555,241.51559l-23.46666,-10.86666l23.46666,-11.13334z" fill="url(#color-5)"/><path d="M470.31555,221.51559l-23.46666,-10.86666l23.46666,-11.13334z" fill="url(#color-6)"/><path d="M470.31558,201.01559l-23.46667,-10.86667l23.46667,-11.13333z" fill="url(#color-7)"/><path d="M470.31558,181.01556l-23.46666,-10.86666l23.46666,-11.13334z" fill="url(#color-8)"/><path d="M470.31555,-96.98215l-23.46666,-10.86666l23.46666,-11.13334z" fill="url(#color-9)"/><path d="M470.31558,-117.98215l-23.46666,-10.86666l23.46666,-11.13334z" fill="url(#color-10)"/><path d="M470.31558,-138.98215l-23.46666,-10.86666l23.46666,-11.13334z" fill="url(#color-11)"/><path d="M470.31555,-159.98215l-23.46666,-10.86666l23.46666,-11.13334z" fill="url(#color-12)"/><path d="M470.31558,160.51558l-23.46666,-10.86666l23.46666,-11.13334z" fill="url(#color-13)"/><path d="M470.31559,140.01558l-23.46667,-10.86667l23.46667,-11.13333z" fill="url(#color-14)"/></g></g></svg>