<svg version="1.1" xmlns="http://www.w3.org/2000/svg" xmlns:xlink="http://www.w3.org/1999/xlink" width="95.35928" height="50.375" viewBox="0,0,95.35928,50.375"><defs><radialGradient cx="240" cy="180" r="25.1875" gradientUnits="userSpaceOnUse" id="color-1"><stop offset="0" stop-color="#ffffff"/><stop offset="1" stop-color="#ffffff" stop-opacity="0"/></radialGradient></defs><g transform="translate(-192.32036,-154.8125)"><g data-paper-data="{&quot;isPaintingLayer&quot;:true}" fill-rule="nonzero" stroke="none" stroke-linecap="butt" stroke-linejoin="miter" stroke-miterlimit="10" stroke-dasharray="" stroke-dashoffset="0" style="mix-blend-mode: normal"><path d="M214.8125,180c0,-13.91067 11.27683,-25.1875 25.1875,-25.1875c13.91067,0 25.1875,11.27683 25.1875,25.1875c0,13.91067 -11.27683,25.1875 -25.1875,25.1875c-13.91067,0 -25.1875,-11.27683 -25.1875,-25.1875z" fill="url(#color-1)" stroke-width="0"/><path d="M192.32036,180c0,0 29.47704,-2.19378 37.58206,-4.71041c7.77442,-2.41398 10.09758,-10.09423 10.09758,-10.09423c0,0 3.04064,7.17871 10.72334,9.56421c8.17938,2.53972 36.9563,5.24043 36.9563,5.24043c0,0 -27.75934,1.57939 -36.36654,4.25194c-6.91049,2.14572 -11.3131,10.5527 -11.3131,10.5527c0,0 -2.2834,-7.81459 -10.23304,-10.28298c-7.94357,-2.4665 -37.4466,-4.52166 -37.4466,-4.52166z" fill="#ffffff" stroke-width="NaN"/></g></g></svg>