<svg version="1.1" xmlns="http://www.w3.org/2000/svg" xmlns:xlink="http://www.w3.org/1999/xlink" width="506.30556" height="380.85848" viewBox="0,0,506.30556,380.85848"><g transform="translate(53.30556,12.85491)"><g data-paper-data="{&quot;isPaintingLayer&quot;:true}" fill-rule="nonzero" stroke="none" stroke-width="0" stroke-linecap="butt" stroke-linejoin="miter" stroke-miterlimit="10" stroke-dasharray="" stroke-dashoffset="0" style="mix-blend-mode: normal"><path d="M-9,355.66667v-105h22.5l6.33333,21.8279l-9.59994,17.30034l12.92965,20.02491l-14.54363,8.06838l4.88058,37.77847z" fill="#5c5c5c"/><path d="M163.02778,230.8369v-21.33334h93.33333v21.33334z" fill="#ff0000"/><path d="M20.02777,230.50356v-21.33333h93.33333v21.33333z" fill="#ff0000"/><path d="M105.08409,98.36714h-23.16666v-108.08054h23.16666z" data-paper-data="{&quot;index&quot;:null}" fill="#000000"/><path d="M-15.80556,278.00356v-286.34727h64.5v286.34727z" fill="#000000"/><path d="M95.70769,138.5769v23.83333h-108.08054v-23.83333z" data-paper-data="{&quot;index&quot;:null}" fill="#000000"/><path d="M237.59722,334.64509v-347.5h186l29,347.5z" fill="#000000"/><path d="M453,321.97071v21.70286h-506v-21.70286z" fill="#000000"/><path d="M-53.30556,368.00357v-40.34727h103.33333v40.34727z" fill="#000000"/><path d="M115.70769,228.24357v23.83333h-108.08054v-23.83333z" data-paper-data="{&quot;index&quot;:null}" fill="#000000"/><path d="M269.04102,228.24357v23.83334h-108.08054v-23.83334z" data-paper-data="{&quot;index&quot;:null}" fill="#000000"/></g></g></svg>