<svg version="1.1" xmlns="http://www.w3.org/2000/svg" xmlns:xlink="http://www.w3.org/1999/xlink" width="368.00839" height="248.68834" viewBox="0,0,368.00839,248.68834"><defs><linearGradient x1="214.90477" y1="218.6762" x2="214.90477" y2="242.14286" gradientUnits="userSpaceOnUse" id="color-1"><stop offset="0" stop-color="#ff0000"/><stop offset="1" stop-color="#c30000"/></linearGradient><linearGradient x1="235.40251" y1="218.6762" x2="235.40251" y2="242.14286" gradientUnits="userSpaceOnUse" id="color-2"><stop offset="0" stop-color="#ff0000"/><stop offset="1" stop-color="#c30000"/></linearGradient><linearGradient x1="256.40253" y1="218.6762" x2="256.40253" y2="242.14286" gradientUnits="userSpaceOnUse" id="color-3"><stop offset="0" stop-color="#ff0000"/><stop offset="1" stop-color="#c30000"/></linearGradient><linearGradient x1="277.40253" y1="218.6762" x2="277.40253" y2="242.14286" gradientUnits="userSpaceOnUse" id="color-4"><stop offset="0" stop-color="#ff0000"/><stop offset="1" stop-color="#c30000"/></linearGradient><linearGradient x1="298.40253" y1="218.6762" x2="298.40253" y2="242.14286" gradientUnits="userSpaceOnUse" id="color-5"><stop offset="0" stop-color="#ff0000"/><stop offset="1" stop-color="#c30000"/></linearGradient><linearGradient x1="319.40254" y1="218.6762" x2="319.40254" y2="242.14286" gradientUnits="userSpaceOnUse" id="color-6"><stop offset="0" stop-color="#ff0000"/><stop offset="1" stop-color="#c30000"/></linearGradient><linearGradient x1="340.40254" y1="218.6762" x2="340.40254" y2="242.14286" gradientUnits="userSpaceOnUse" id="color-7"><stop offset="0" stop-color="#ff0000"/><stop offset="1" stop-color="#c30000"/></linearGradient><linearGradient x1="361.40253" y1="218.6762" x2="361.40253" y2="242.14286" gradientUnits="userSpaceOnUse" id="color-8"><stop offset="0" stop-color="#ff0000"/><stop offset="1" stop-color="#c30000"/></linearGradient><linearGradient x1="382.40254" y1="218.6762" x2="382.40254" y2="242.14286" gradientUnits="userSpaceOnUse" id="color-9"><stop offset="0" stop-color="#ff0000"/><stop offset="1" stop-color="#c30000"/></linearGradient><linearGradient x1="403.40254" y1="218.6762" x2="403.40254" y2="242.14286" gradientUnits="userSpaceOnUse" id="color-10"><stop offset="0" stop-color="#ff0000"/><stop offset="1" stop-color="#c30000"/></linearGradient><linearGradient x1="424.40254" y1="218.6762" x2="424.40254" y2="242.14286" gradientUnits="userSpaceOnUse" id="color-11"><stop offset="0" stop-color="#ff0000"/><stop offset="1" stop-color="#c30000"/></linearGradient><linearGradient x1="445.40254" y1="218.6762" x2="445.40254" y2="242.14286" gradientUnits="userSpaceOnUse" id="color-12"><stop offset="0" stop-color="#ff0000"/><stop offset="1" stop-color="#c30000"/></linearGradient><linearGradient x1="466.40254" y1="218.6762" x2="466.40254" y2="242.14286" gradientUnits="userSpaceOnUse" id="color-13"><stop offset="0" stop-color="#ff0000"/><stop offset="1" stop-color="#c30000"/></linearGradient><linearGradient x1="109.41103" y1="84.72041" x2="132.68897" y2="87.69052" gradientUnits="userSpaceOnUse" id="color-14"><stop offset="0" stop-color="#ff0000"/><stop offset="1" stop-color="#c30000"/></linearGradient><linearGradient x1="112.06895" y1="63.88929" x2="135.34689" y2="66.85941" gradientUnits="userSpaceOnUse" id="color-15"><stop offset="0" stop-color="#ff0000"/><stop offset="1" stop-color="#c30000"/></linearGradient><linearGradient x1="114.72687" y1="43.05819" x2="138.00481" y2="46.0283" gradientUnits="userSpaceOnUse" id="color-16"><stop offset="0" stop-color="#ff0000"/><stop offset="1" stop-color="#c30000"/></linearGradient><linearGradient x1="117.38479" y1="22.22705" x2="140.66273" y2="25.19718" gradientUnits="userSpaceOnUse" id="color-17"><stop offset="0" stop-color="#ff0000"/><stop offset="1" stop-color="#c30000"/></linearGradient><linearGradient x1="120.04272" y1="1.39594" x2="143.32065" y2="4.36605" gradientUnits="userSpaceOnUse" id="color-18"><stop offset="0" stop-color="#ff0000"/><stop offset="1" stop-color="#c30000"/></linearGradient></defs><g transform="translate(-109.39415,6.54548)"><g data-paper-data="{&quot;isPaintingLayer&quot;:true}" fill-rule="nonzero" stroke="none" stroke-width="0" stroke-linecap="butt" stroke-linejoin="miter" stroke-miterlimit="10" stroke-dasharray="" stroke-dashoffset="0" style="mix-blend-mode: normal"><path d="M203.9048,242.14286l10.86666,-23.46666l11.13334,23.46666z" fill="url(#color-1)"/><path d="M224.40251,242.14286l10.86667,-23.46667l11.13333,23.46667z" fill="url(#color-2)"/><path d="M245.40253,242.14286l10.86666,-23.46666l11.13334,23.46666z" fill="url(#color-3)"/><path d="M266.40253,242.14286l10.86666,-23.46666l11.13334,23.46666z" fill="url(#color-4)"/><path d="M287.40253,242.14286l10.86666,-23.46666l11.13334,23.46666z" fill="url(#color-5)"/><path d="M308.40253,242.14286l10.86666,-23.46666l11.13334,23.46666z" fill="url(#color-6)"/><path d="M329.40254,242.14286l10.86666,-23.46666l11.13334,23.46666z" fill="url(#color-7)"/><path d="M350.40253,242.14286l10.86667,-23.46667l11.13333,23.46667z" fill="url(#color-8)"/><path d="M371.40254,242.14286l10.86666,-23.46666l11.13334,23.46666z" fill="url(#color-9)"/><path d="M392.40254,242.14286l10.86666,-23.46666l11.13334,23.46666z" fill="url(#color-10)"/><path d="M413.40254,242.14286l10.86666,-23.46666l11.13334,23.46666z" fill="url(#color-11)"/><path d="M434.40254,242.14286l10.86666,-23.46666l11.13334,23.46666z" fill="url(#color-12)"/><path d="M455.40254,242.14286l10.86666,-23.46666l11.13334,23.46666z" fill="url(#color-13)"/><path d="M131.29672,98.60208l-21.90257,-13.74939l24.68706,-8.07368z" fill="url(#color-14)"/><path d="M133.95465,77.77094l-21.90257,-13.74939l24.68706,-8.07368z" fill="url(#color-15)"/><path d="M136.61257,56.93984l-21.90259,-13.7494l24.68707,-8.07367z" fill="url(#color-16)"/><path d="M139.27048,36.10871l-21.90257,-13.74939l24.68706,-8.07368z" fill="url(#color-17)"/><path d="M141.9284,15.2776l-21.90257,-13.74939l24.68706,-8.07369z" fill="url(#color-18)"/></g></g></svg>