<svg version="1.1" xmlns="http://www.w3.org/2000/svg" xmlns:xlink="http://www.w3.org/1999/xlink" width="618.88688" height="323.91368" viewBox="0,0,618.88688,323.91368"><g transform="translate(30.51417,-67.44729)"><g data-paper-data="{&quot;isPaintingLayer&quot;:true}" fill-rule="nonzero" stroke="none" stroke-width="0" stroke-linecap="butt" stroke-linejoin="miter" stroke-miterlimit="10" stroke-dasharray="" stroke-dashoffset="0" style="mix-blend-mode: normal"><path d="M437.9416,363.245l44.93104,-44.93104l-0.30743,44.69518z" fill="#969696"/><path d="M358.11124,362.46415l-22.61122,-204.13082v-71.33333h43.5v71.08333l22.71303,205.23029z" fill="#969696"/><path d="M399.18853,307.50688l-18.85689,-165.85476l27.72988,-3.15275l18.85689,165.85476z" fill="#ff0000"/><path d="M311.99357,218.21424v32.61994h-96.52821v-32.61995z" fill="#ff5d5d"/><path d="M207.67074,367.46477v-143.42329h23.40853v143.42329z" fill="#ff0000"/><path d="M115.31533,226.14569v-29.5h17.5v29.5z" fill="#ff0000"/><path d="M111.91999,359.95739h-115.75662v-23.40853h115.75662z" fill="#ff0000"/><path d="M3.25719,249.01326h-33.77135v-164.90924l33.77135,-16.55556z" data-paper-data="{&quot;index&quot;:null}" fill="#000000"/><path d="M215.67798,391.36097h-34.50785v-323.85714h34.50785z" fill="#000000"/><path d="M140.67798,391.36097h-34.50785v-167h34.50785z" fill="#000000"/><path d="M3.1687,101.21864v-33.77135h484.53733v33.77135z" data-paper-data="{&quot;index&quot;:null}" fill="#000000"/><path d="M-2.58244,101.53003v-30.55555l5.77688,-2.76528l4.33423,-0.45695v33.77778z" fill="#000000"/><path d="M205.30447,240.89328v-23.3285h37.21011v23.3285z" fill="#000000"/><path d="M255.30448,177.72661v-27.16183h81.21012v27.16183z" fill="#000000"/><path d="M374.70605,160.7649v-65.16667h90.16667v65.16667z" fill="#000000"/><path d="M424.54896,309.43157l-18.50956,-149.16667h53.66667v149.16667z" fill="#000000"/><path d="M459.70605,309.52339v-128.66667h128.66667z" fill="#000000"/><path d="M455.70605,306.19006v-127.66667h5.33333v127.66667z" fill="#000000"/><path d="M446.87272,190.43048v-98h41v98z" fill="#000000"/><path d="M-3.78851,327.33239v-32.61994h45.86154v32.61994z" fill="#5479ff"/></g></g></svg>