<svg version="1.1" xmlns="http://www.w3.org/2000/svg" xmlns:xlink="http://www.w3.org/1999/xlink" width="60.71429" height="56.71429" viewBox="0,0,60.71429,56.71429"><g transform="translate(-209.64292,-151.64287)"><g data-paper-data="{&quot;isPaintingLayer&quot;:true}" fill-rule="nonzero" stroke-linejoin="miter" stroke-miterlimit="10" stroke-dasharray="" stroke-dashoffset="0" style="mix-blend-mode: normal"><path d="M247.63106,180.04578c0,6.04884 -2.44545,10.82308 -5.45961,10.95239c-0.99444,0.04266 -2.62661,-0.11706 -2.62661,-0.11706l2.83659,-10.7639l-2.37073,-11.09451c0,0 0.91229,-0.06266 2.16076,-0.00073c3.01379,0.1495 5.45961,4.97498 5.45961,11.02381z" data-paper-data="{&quot;index&quot;:null}" fill="#acb500" stroke="#000000" stroke-width="2" stroke-linecap="butt"/><path d="M237.82879,190.92673c-3.01526,0 -5.45962,-4.90356 -5.45962,-10.95239c0,-6.04884 2.44435,-10.95238 5.45962,-10.95238c3.01527,0 5.45962,4.90355 5.45962,10.95238c0,6.04884 -2.44435,10.95239 -5.45962,10.95239z" data-paper-data="{&quot;index&quot;:null}" fill="#f4ff00" stroke="#000000" stroke-width="2" stroke-linecap="butt"/><path d="M209.64293,208.35716v-56.71429h60.71429v56.71429z" data-paper-data="{&quot;index&quot;:null}" fill="none" stroke="none" stroke-width="0" stroke-linecap="butt"/><path d="M236.05179,181.2932h0.9276v2.10347c0,0 -0.01102,2.27299 -1.04151,2.31151c-1.05313,0.03937 -1.11312,-2.31151 -1.11312,-2.31151v-6.81894c0,0 -0.0235,-2.61756 1.09684,-2.6197c0.99598,-0.00191 0.97642,2.6197 0.97642,2.6197" data-paper-data="{&quot;index&quot;:null}" fill="none" stroke="#646900" stroke-width="2" stroke-linecap="round"/><path d="M239.74794,181.29319h0.9276v2.10347c0,0 -0.01102,2.27299 -1.04151,2.31151c-1.05313,0.03937 -1.11312,-2.31151 -1.11312,-2.31151v-6.81893c0,0 -0.0235,-2.61757 1.09684,-2.61971c0.99598,-0.0019 0.97642,2.61971 0.97642,2.61971" data-paper-data="{&quot;index&quot;:null}" fill="none" stroke="#646900" stroke-width="2" stroke-linecap="round"/></g></g></svg>