<svg version="1.1" xmlns="http://www.w3.org/2000/svg" xmlns:xlink="http://www.w3.org/1999/xlink" width="503.37222" height="45.56872" viewBox="0,0,503.37222,45.56872"><defs><linearGradient x1="5.08409" y1="246.7785" x2="2.95619" y2="270.14848" gradientUnits="userSpaceOnUse" id="color-1"><stop offset="0" stop-color="#ff0000"/><stop offset="1" stop-color="#c30000"/></linearGradient><linearGradient x1="25.99759" y1="248.68273" x2="23.86968" y2="272.05272" gradientUnits="userSpaceOnUse" id="color-2"><stop offset="0" stop-color="#ff0000"/><stop offset="1" stop-color="#c30000"/></linearGradient><linearGradient x1="46.91106" y1="250.58697" x2="44.78316" y2="273.95695" gradientUnits="userSpaceOnUse" id="color-3"><stop offset="0" stop-color="#ff0000"/><stop offset="1" stop-color="#c30000"/></linearGradient><linearGradient x1="67.82455" y1="252.4912" x2="65.69664" y2="275.86119" gradientUnits="userSpaceOnUse" id="color-4"><stop offset="0" stop-color="#ff0000"/><stop offset="1" stop-color="#c30000"/></linearGradient><linearGradient x1="88.73803" y1="254.39544" x2="86.61013" y2="277.76542" gradientUnits="userSpaceOnUse" id="color-5"><stop offset="0" stop-color="#ff0000"/><stop offset="1" stop-color="#c30000"/></linearGradient><linearGradient x1="109.65152" y1="256.29967" x2="107.52362" y2="279.66965" gradientUnits="userSpaceOnUse" id="color-6"><stop offset="0" stop-color="#ff0000"/><stop offset="1" stop-color="#c30000"/></linearGradient><linearGradient x1="130.56501" y1="258.2039" x2="128.4371" y2="281.57389" gradientUnits="userSpaceOnUse" id="color-7"><stop offset="0" stop-color="#ff0000"/><stop offset="1" stop-color="#c30000"/></linearGradient><linearGradient x1="151.4785" y1="260.10814" x2="149.3506" y2="283.47812" gradientUnits="userSpaceOnUse" id="color-8"><stop offset="0" stop-color="#ff0000"/><stop offset="1" stop-color="#c30000"/></linearGradient><linearGradient x1="172.39199" y1="262.01237" x2="170.26408" y2="285.38236" gradientUnits="userSpaceOnUse" id="color-9"><stop offset="0" stop-color="#ff0000"/><stop offset="1" stop-color="#c30000"/></linearGradient><linearGradient x1="193.30547" y1="263.91661" x2="191.17757" y2="287.28659" gradientUnits="userSpaceOnUse" id="color-10"><stop offset="0" stop-color="#ff0000"/><stop offset="1" stop-color="#c30000"/></linearGradient><linearGradient x1="214.21896" y1="265.82084" x2="212.09105" y2="289.19082" gradientUnits="userSpaceOnUse" id="color-11"><stop offset="0" stop-color="#ff0000"/><stop offset="1" stop-color="#c30000"/></linearGradient><linearGradient x1="235.13244" y1="267.72507" x2="233.00453" y2="291.09506" gradientUnits="userSpaceOnUse" id="color-12"><stop offset="0" stop-color="#ff0000"/><stop offset="1" stop-color="#c30000"/></linearGradient><linearGradient x1="252.24383" y1="267.97386" x2="254.3554" y2="291.34532" gradientUnits="userSpaceOnUse" id="color-13"><stop offset="0" stop-color="#ff0000"/><stop offset="1" stop-color="#c30000"/></linearGradient><linearGradient x1="273.15866" y1="266.08424" x2="275.27023" y2="289.4557" gradientUnits="userSpaceOnUse" id="color-14"><stop offset="0" stop-color="#ff0000"/><stop offset="1" stop-color="#c30000"/></linearGradient><linearGradient x1="294.07347" y1="264.19462" x2="296.18504" y2="287.56608" gradientUnits="userSpaceOnUse" id="color-15"><stop offset="0" stop-color="#ff0000"/><stop offset="1" stop-color="#c30000"/></linearGradient><linearGradient x1="314.98828" y1="262.305" x2="317.09985" y2="285.67646" gradientUnits="userSpaceOnUse" id="color-16"><stop offset="0" stop-color="#ff0000"/><stop offset="1" stop-color="#c30000"/></linearGradient><linearGradient x1="335.90309" y1="260.41538" x2="338.01466" y2="283.78685" gradientUnits="userSpaceOnUse" id="color-17"><stop offset="0" stop-color="#ff0000"/><stop offset="1" stop-color="#c30000"/></linearGradient><linearGradient x1="356.8179" y1="258.52576" x2="358.92948" y2="281.89723" gradientUnits="userSpaceOnUse" id="color-18"><stop offset="0" stop-color="#ff0000"/><stop offset="1" stop-color="#c30000"/></linearGradient><linearGradient x1="377.7327" y1="256.63614" x2="379.84428" y2="280.00761" gradientUnits="userSpaceOnUse" id="color-19"><stop offset="0" stop-color="#ff0000"/><stop offset="1" stop-color="#c30000"/></linearGradient><linearGradient x1="398.64753" y1="254.74652" x2="400.7591" y2="278.11799" gradientUnits="userSpaceOnUse" id="color-20"><stop offset="0" stop-color="#ff0000"/><stop offset="1" stop-color="#c30000"/></linearGradient><linearGradient x1="419.56234" y1="252.8569" x2="421.67391" y2="276.22837" gradientUnits="userSpaceOnUse" id="color-21"><stop offset="0" stop-color="#ff0000"/><stop offset="1" stop-color="#c30000"/></linearGradient><linearGradient x1="440.47715" y1="250.96729" x2="442.58872" y2="274.33875" gradientUnits="userSpaceOnUse" id="color-22"><stop offset="0" stop-color="#ff0000"/><stop offset="1" stop-color="#c30000"/></linearGradient><linearGradient x1="461.39196" y1="249.07767" x2="463.50353" y2="272.44913" gradientUnits="userSpaceOnUse" id="color-23"><stop offset="0" stop-color="#ff0000"/><stop offset="1" stop-color="#c30000"/></linearGradient><linearGradient x1="482.30677" y1="247.18805" x2="484.41835" y2="270.55951" gradientUnits="userSpaceOnUse" id="color-24"><stop offset="0" stop-color="#ff0000"/><stop offset="1" stop-color="#c30000"/></linearGradient></defs><g transform="translate(7.9985,-246.7664)"><g data-paper-data="{&quot;isPaintingLayer&quot;:true}" fill-rule="nonzero" stroke="none" stroke-width="0" stroke-linecap="butt" stroke-linejoin="miter" stroke-miterlimit="10" stroke-dasharray="" stroke-dashoffset="0" style="mix-blend-mode: normal"><path d="M-7.9985,269.15103l12.94981,-22.38463l8.95956,24.37954z" fill="url(#color-1)"/><path d="M12.915,271.05526l12.9498,-22.38462l8.95957,24.37953z" fill="url(#color-2)"/><path d="M33.82847,272.9595l12.9498,-22.38462l8.95957,24.37953z" fill="url(#color-3)"/><path d="M54.74196,274.86373l12.9498,-22.38462l8.95957,24.37953z" fill="url(#color-4)"/><path d="M75.65545,276.76796l12.9498,-22.38462l8.95957,24.37953z" fill="url(#color-5)"/><path d="M96.56893,278.6722l12.9498,-22.38462l8.95957,24.37953z" fill="url(#color-6)"/><path d="M117.48242,280.57643l12.94981,-22.38463l8.95956,24.37954z" fill="url(#color-7)"/><path d="M138.39591,282.48067l12.9498,-22.38462l8.95957,24.37953z" fill="url(#color-8)"/><path d="M159.3094,284.3849l12.9498,-22.38462l8.95957,24.37953z" fill="url(#color-9)"/><path d="M180.22289,286.28913l12.9498,-22.38462l8.95957,24.37953z" fill="url(#color-10)"/><path d="M201.13637,288.19337l12.9498,-22.38462l8.95957,24.37953z" fill="url(#color-11)"/><path d="M222.04986,290.0976l12.9498,-22.38462l8.95957,24.37953z" fill="url(#color-12)"/><path d="M243.40003,292.33512l8.71101,-24.34928l13.19974,22.36968z" fill="url(#color-13)"/><path d="M264.31485,290.4455l8.711,-24.34927l13.19975,22.36967z" fill="url(#color-14)"/><path d="M285.22966,288.55588l8.711,-24.34927l13.19975,22.36967z" fill="url(#color-15)"/><path d="M306.14448,286.66626l8.711,-24.34927l13.19975,22.36967z" fill="url(#color-16)"/><path d="M327.05929,284.77665l8.711,-24.34927l13.19975,22.36967z" fill="url(#color-17)"/><path d="M347.9741,282.88703l8.711,-24.34927l13.19975,22.36967z" fill="url(#color-18)"/><path d="M368.8889,280.99741l8.71101,-24.34928l13.19974,22.36968z" fill="url(#color-19)"/><path d="M389.80372,279.10779l8.711,-24.34927l13.19975,22.36967z" fill="url(#color-20)"/><path d="M410.71853,277.21817l8.711,-24.34927l13.19975,22.36967z" fill="url(#color-21)"/><path d="M431.63335,275.32855l8.711,-24.34927l13.19975,22.36967z" fill="url(#color-22)"/><path d="M452.54816,273.43893l8.711,-24.34927l13.19975,22.36967z" fill="url(#color-23)"/><path d="M473.46297,271.54931l8.711,-24.34927l13.19975,22.36967z" fill="url(#color-24)"/></g></g></svg>