<svg version="1.1" xmlns="http://www.w3.org/2000/svg" xmlns:xlink="http://www.w3.org/1999/xlink" width="618.88688" height="323.91368" viewBox="0,0,618.88688,323.91368"><g transform="translate(30.51419,-67.44729)"><g data-paper-data="{&quot;isPaintingLayer&quot;:true}" fill="#000000" fill-rule="nonzero" stroke="none" stroke-width="0" stroke-linecap="butt" stroke-linejoin="miter" stroke-miterlimit="10" stroke-dasharray="" stroke-dashoffset="0" style="mix-blend-mode: normal"><path d="M3.25716,249.01326h-33.77135v-164.90924l33.77135,-16.55556z" data-paper-data="{&quot;index&quot;:null}"/><path d="M215.67794,391.36097h-34.50785v-323.85714h34.50785z"/><path d="M140.67794,391.36097h-34.50785v-167h34.50785z"/><path d="M3.16868,101.21864v-33.77135h484.53733v33.77135z" data-paper-data="{&quot;index&quot;:null}"/><path d="M-2.58247,101.53003v-30.55555l5.77688,-2.76528l4.33423,-0.45695v33.77778z"/><path d="M205.30443,228.22661v-10.66183h22.87678v10.66183z"/><path d="M255.30444,161.22661v-10.66183h81.21012v10.66183z"/><path d="M374.70601,160.7649v-65.16667h90.16667v65.16667z"/><path d="M424.54892,309.43157l-18.50956,-149.16667h53.66667v149.16667z"/><path d="M459.70602,309.52339v-128.66667h128.66667z"/><path d="M455.70602,306.19006v-127.66667h5.33333v127.66667z"/><path d="M446.87268,190.43048v-98h41v98z"/></g></g></svg>