<svg version="1.1" xmlns="http://www.w3.org/2000/svg" xmlns:xlink="http://www.w3.org/1999/xlink" width="500" height="372.75" viewBox="0,0,500,372.75"><g transform="translate(8.24634,6.29818)"><g data-paper-data="{&quot;isPaintingLayer&quot;:true}" fill-rule="nonzero" stroke="none" stroke-width="0" stroke-linecap="butt" stroke-linejoin="miter" stroke-miterlimit="10" stroke-dasharray="" stroke-dashoffset="0" style="mix-blend-mode: normal"><path d="M140.51378,267.43772v-155.59783h115.66564v155.59783z" fill="#969696"/><path d="M232.08241,361.7603v-364.89757h112.9117v364.89757z" fill="#969696"/><path d="M-2.00282,131.80598v-134.94325h273.32893v134.94325z" fill="#969696"/><path d="M353.50366,7.95182v358.5h-27.5v-358.5z" data-paper-data="{&quot;index&quot;:null}" fill="#000000"/><path d="M238.50366,261.45178v104h-27.5v-104z" data-paper-data="{&quot;index&quot;:null}" fill="#000000"/><path d="M234.75366,282.20178h-104v-20.5h104z" data-paper-data="{&quot;index&quot;:null}" fill="#000000"/><path d="M235.75366,147.20181l-104,38.5v-59h104z" data-paper-data="{&quot;index&quot;:null}" fill="#000000"/><path d="M491.75366,40.20182c0,0 -338.14265,-0.62321 -376,0c-30.37265,0.5 -26.87788,16.25 -60.75,16.25c-49.22806,0 -59,-0.5 -59,-0.5l-4.25,-62.25h500z" data-paper-data="{&quot;index&quot;:null}" fill="#000000"/><path d="M149.30366,126.71848v155.33333h-20.7v-155.33333z" data-paper-data="{&quot;index&quot;:null}" fill="#000000"/><path d="M-5.24634,155.93107v-29.20426h135.5v29.20426z" fill="#000000"/></g></g></svg>