<svg version="1.1" xmlns="http://www.w3.org/2000/svg" xmlns:xlink="http://www.w3.org/1999/xlink" width="127.00001" height="23.46667" viewBox="0,0,127.00001,23.46667"><defs><linearGradient x1="335.83112" y1="223.53335" x2="335.83112" y2="247.00001" gradientUnits="userSpaceOnUse" id="color-1"><stop offset="0" stop-color="#ff0000"/><stop offset="1" stop-color="#c30000"/></linearGradient><linearGradient x1="356.83112" y1="223.53335" x2="356.83112" y2="247.00001" gradientUnits="userSpaceOnUse" id="color-2"><stop offset="0" stop-color="#ff0000"/><stop offset="1" stop-color="#c30000"/></linearGradient><linearGradient x1="377.83111" y1="223.53335" x2="377.83111" y2="247.00001" gradientUnits="userSpaceOnUse" id="color-3"><stop offset="0" stop-color="#ff0000"/><stop offset="1" stop-color="#c30000"/></linearGradient><linearGradient x1="398.83112" y1="223.53335" x2="398.83112" y2="247.00001" gradientUnits="userSpaceOnUse" id="color-4"><stop offset="0" stop-color="#ff0000"/><stop offset="1" stop-color="#c30000"/></linearGradient><linearGradient x1="419.83112" y1="223.53335" x2="419.83112" y2="247.00001" gradientUnits="userSpaceOnUse" id="color-5"><stop offset="0" stop-color="#ff0000"/><stop offset="1" stop-color="#c30000"/></linearGradient><linearGradient x1="440.83112" y1="223.53335" x2="440.83112" y2="247.00001" gradientUnits="userSpaceOnUse" id="color-6"><stop offset="0" stop-color="#ff0000"/><stop offset="1" stop-color="#c30000"/></linearGradient></defs><g transform="translate(-324.8311,-223.53334)"><g data-paper-data="{&quot;isPaintingLayer&quot;:true}" fill-rule="nonzero" stroke="none" stroke-width="0" stroke-linecap="butt" stroke-linejoin="miter" stroke-miterlimit="10" stroke-dasharray="" stroke-dashoffset="0" style="mix-blend-mode: normal"><path d="M324.8311,247.00001l10.86666,-23.46666l11.13334,23.46666z" fill="url(#color-1)"/><path d="M345.83112,247.00001l10.86666,-23.46666l11.13334,23.46666z" fill="url(#color-2)"/><path d="M366.83111,247.00001l10.86667,-23.46667l11.13333,23.46667z" fill="url(#color-3)"/><path d="M387.83112,247.00001l10.86666,-23.46666l11.13334,23.46666z" fill="url(#color-4)"/><path d="M408.83112,247.00001l10.86666,-23.46666l11.13334,23.46666z" fill="url(#color-5)"/><path d="M429.83112,247.00001l10.86666,-23.46666l11.13334,23.46666z" fill="url(#color-6)"/></g></g></svg>