<svg version="1.1" xmlns="http://www.w3.org/2000/svg" xmlns:xlink="http://www.w3.org/1999/xlink" width="387.37351" height="446.00596" viewBox="0,0,387.37351,446.00596"><g transform="translate(-131.9155,46.86973)"><g data-paper-data="{&quot;isPaintingLayer&quot;:true}" fill-rule="nonzero" stroke="none" stroke-width="0" stroke-linecap="butt" stroke-linejoin="miter" stroke-miterlimit="10" stroke-dasharray="" stroke-dashoffset="0" style="mix-blend-mode: normal"><path d="M176.6445,274.63325v-85h57.5v85z" fill="#ff48e9"/><path d="M517.80732,163.38102v235.75521h-59.8902v-235.75521z" data-paper-data="{&quot;index&quot;:null}" fill="#000000"/><path d="M132.00063,70.13027v-117h356.28837v117z" data-paper-data="{&quot;index&quot;:null}" fill="#000000"/><path d="M414.28901,298.13027v-146h105v146z" data-paper-data="{&quot;index&quot;:null}" fill="#000000"/><path d="M132.78901,308.4636v-21.33333h346.673v21.33333z" data-paper-data="{&quot;index&quot;:null}" fill="#000000"/><path d="M301.28901,231.63027v-18.5h50v18.5z" fill="#000000"/><path d="M157.46417,172.47714h96.07606l-18.95078,18.95078h-58.61521z" fill="#000000"/><path d="M175.97424,270.31606h58.61521l18.95079,18.95078h-96.07607z" data-paper-data="{&quot;index&quot;:null}" fill="#000000"/><path d="M131.9155,297.95531v-240.17906h22.48268v240.17906z" fill="#000000"/><path d="M136.13961,185.27542v-13.44822h36.60323v13.44822z" fill="#000000"/><path d="M368.87475,173.3031v-21h50v21z" fill="#000000"/><path d="M353.53901,251.63623c0,-16.2924 13.2076,-29.5 29.5,-29.5c16.2924,0 29.5,13.2076 29.5,29.5c0,16.2924 -13.2076,29.5 -29.5,29.5c-16.2924,0 -29.5,-13.2076 -29.5,-29.5z" fill="#1f33ff"/></g></g></svg>