<svg version="1.1" xmlns="http://www.w3.org/2000/svg" xmlns:xlink="http://www.w3.org/1999/xlink" width="46.06667" height="44.89364" viewBox="0,0,46.06667,44.89364"><g transform="translate(-216.96666,-157.55318)"><g data-paper-data="{&quot;isPaintingLayer&quot;:true}" fill-rule="nonzero" stroke-linejoin="miter" stroke-miterlimit="10" stroke-dasharray="" stroke-dashoffset="0" style="mix-blend-mode: normal"><path d="M218.46667,200.94682v-41.89364h43.06667v41.89364z" fill="#bbbbbb" stroke="#000000" stroke-width="3" stroke-linecap="butt"/><path d="M253.44695,179.73655c0.00924,0.20417 0.01391,0.40953 0.01391,0.61599c0,7.40052 -5.9993,13.39984 -13.39984,13.39984c-7.40052,0 -13.39984,-5.9993 -13.39984,-13.39984c0,-7.40052 5.9993,-13.39984 13.39984,-13.39984c2.04392,0 3.98096,0.45763 5.71425,1.27599" fill="none" stroke="#000000" stroke-width="3" stroke-linecap="butt"/><path d="M228.35823,179.99997c0,-6.42956 5.21219,-11.64176 11.64176,-11.64176c6.42956,0 11.64178,5.21219 11.64178,11.64176c0,6.42956 -5.2122,11.64178 -11.64178,11.64178c-6.42956,0 -11.64176,-5.2122 -11.64176,-11.64178z" fill="#bbbbbb" stroke="#000000" stroke-width="0" stroke-linecap="butt"/><path d="M239.98367,170.92017v2.49741" fill="none" stroke="#000000" stroke-width="1" stroke-linecap="round"/><path d="M240.01632,189.07978v-2.49741" fill="none" stroke="#000000" stroke-width="1" stroke-linecap="round"/><path d="M233.4176,180.01631h-2.49741" fill="none" stroke="#000000" stroke-width="1" stroke-linecap="round"/><path d="M249.0798,179.98364h-2.49741" fill="none" stroke="#000000" stroke-width="1" stroke-linecap="round"/><path d="M243.18109,174.23726l1.21234,-2.18341" fill="none" stroke="#797979" stroke-width="1" stroke-linecap="round"/><path d="M235.60656,187.9461l1.21234,-2.18341" fill="none" stroke="#797979" stroke-width="1" stroke-linecap="round"/><path d="M232.05387,175.60655l2.1834,1.21235" fill="none" stroke="#797979" stroke-width="1" stroke-linecap="round"/><path d="M245.76271,183.18106l2.18341,1.21234" fill="none" stroke="#797979" stroke-width="1" stroke-linecap="round"/><path d="M245.7786,176.84784l2.1954,-1.19049" fill="none" stroke="#797979" stroke-width="1" stroke-linecap="round"/><path d="M232.02599,184.3426l2.1954,-1.19049" fill="none" stroke="#797979" stroke-width="1" stroke-linecap="round"/><path d="M235.65738,172.02597l1.19049,2.1954" fill="none" stroke="#797979" stroke-width="1" stroke-linecap="round"/><path d="M244.34262,187.97398l-1.19049,-2.1954" fill="none" stroke="#797979" stroke-width="1" stroke-linecap="round"/><path d="M244.02154,171.79446c0,0 0.75286,10.46757 -3.88913,8.26579c-4.64367,-2.20258 3.88913,-8.26579 3.88913,-8.26579z" fill="#000000" stroke="none" stroke-width="1" stroke-linecap="butt"/><path d="M254.28014,171.40917l-10.75981,1.84757l4.31084,-10.65654z" fill="#000000" stroke="none" stroke-width="0" stroke-linecap="butt"/></g></g></svg>