<svg version="1.1" xmlns="http://www.w3.org/2000/svg" xmlns:xlink="http://www.w3.org/1999/xlink" width="263.4064" height="362.6287" viewBox="0,0,263.4064,362.6287"><defs><linearGradient x1="148.21044" y1="139.79781" x2="124.74378" y2="139.79781" gradientUnits="userSpaceOnUse" id="color-1"><stop offset="0" stop-color="#ff0000"/><stop offset="1" stop-color="#c30000"/></linearGradient><linearGradient x1="148.21044" y1="160.79783" x2="124.74378" y2="160.79783" gradientUnits="userSpaceOnUse" id="color-2"><stop offset="0" stop-color="#ff0000"/><stop offset="1" stop-color="#c30000"/></linearGradient><linearGradient x1="148.21044" y1="181.79783" x2="124.74378" y2="181.79783" gradientUnits="userSpaceOnUse" id="color-3"><stop offset="0" stop-color="#ff0000"/><stop offset="1" stop-color="#c30000"/></linearGradient><linearGradient x1="148.21044" y1="202.79783" x2="124.74378" y2="202.79783" gradientUnits="userSpaceOnUse" id="color-4"><stop offset="0" stop-color="#ff0000"/><stop offset="1" stop-color="#c30000"/></linearGradient><linearGradient x1="148.21044" y1="223.79783" x2="124.74378" y2="223.79783" gradientUnits="userSpaceOnUse" id="color-5"><stop offset="0" stop-color="#ff0000"/><stop offset="1" stop-color="#c30000"/></linearGradient><linearGradient x1="148.21044" y1="244.79783" x2="124.74378" y2="244.79783" gradientUnits="userSpaceOnUse" id="color-6"><stop offset="0" stop-color="#ff0000"/><stop offset="1" stop-color="#c30000"/></linearGradient><linearGradient x1="148.21044" y1="265.79782" x2="124.74378" y2="265.79782" gradientUnits="userSpaceOnUse" id="color-7"><stop offset="0" stop-color="#ff0000"/><stop offset="1" stop-color="#c30000"/></linearGradient><linearGradient x1="148.21044" y1="286.79783" x2="124.74378" y2="286.79783" gradientUnits="userSpaceOnUse" id="color-8"><stop offset="0" stop-color="#ff0000"/><stop offset="1" stop-color="#c30000"/></linearGradient><linearGradient x1="148.21044" y1="307.79783" x2="124.74378" y2="307.79783" gradientUnits="userSpaceOnUse" id="color-9"><stop offset="0" stop-color="#ff0000"/><stop offset="1" stop-color="#c30000"/></linearGradient><linearGradient x1="148.54378" y1="328.79783" x2="125.07712" y2="328.79783" gradientUnits="userSpaceOnUse" id="color-10"><stop offset="0" stop-color="#ff0000"/><stop offset="1" stop-color="#c30000"/></linearGradient><linearGradient x1="256.58107" y1="359.42651" x2="256.58107" y2="349.42651" gradientUnits="userSpaceOnUse" id="color-11"><stop offset="0" stop-color="#af0000" stop-opacity="0"/><stop offset="1" stop-color="#af0000"/></linearGradient><linearGradient x1="256.58107" y1="339.42651" x2="256.58107" y2="349.42651" gradientUnits="userSpaceOnUse" id="color-12"><stop offset="0" stop-color="#af0000" stop-opacity="0"/><stop offset="1" stop-color="#af0000"/></linearGradient><linearGradient x1="274.21045" y1="7.79781" x2="250.74379" y2="7.79781" gradientUnits="userSpaceOnUse" id="color-13"><stop offset="0" stop-color="#ff0000"/><stop offset="1" stop-color="#c30000"/></linearGradient><linearGradient x1="274.21045" y1="28.79783" x2="250.74379" y2="28.79783" gradientUnits="userSpaceOnUse" id="color-14"><stop offset="0" stop-color="#ff0000"/><stop offset="1" stop-color="#c30000"/></linearGradient><linearGradient x1="274.21045" y1="49.79783" x2="250.74379" y2="49.79783" gradientUnits="userSpaceOnUse" id="color-15"><stop offset="0" stop-color="#ff0000"/><stop offset="1" stop-color="#c30000"/></linearGradient><linearGradient x1="274.21045" y1="70.79783" x2="250.74379" y2="70.79783" gradientUnits="userSpaceOnUse" id="color-16"><stop offset="0" stop-color="#ff0000"/><stop offset="1" stop-color="#c30000"/></linearGradient><linearGradient x1="274.21045" y1="91.79783" x2="250.74379" y2="91.79783" gradientUnits="userSpaceOnUse" id="color-17"><stop offset="0" stop-color="#ff0000"/><stop offset="1" stop-color="#c30000"/></linearGradient><linearGradient x1="274.21045" y1="112.79783" x2="250.74379" y2="112.79783" gradientUnits="userSpaceOnUse" id="color-18"><stop offset="0" stop-color="#ff0000"/><stop offset="1" stop-color="#c30000"/></linearGradient><linearGradient x1="274.21045" y1="133.79782" x2="250.74379" y2="133.79782" gradientUnits="userSpaceOnUse" id="color-19"><stop offset="0" stop-color="#ff0000"/><stop offset="1" stop-color="#c30000"/></linearGradient><linearGradient x1="274.21045" y1="154.79783" x2="250.74379" y2="154.79783" gradientUnits="userSpaceOnUse" id="color-20"><stop offset="0" stop-color="#ff0000"/><stop offset="1" stop-color="#c30000"/></linearGradient><linearGradient x1="364.07713" y1="139.79781" x2="387.54379" y2="139.79781" gradientUnits="userSpaceOnUse" id="color-21"><stop offset="0" stop-color="#ff0000"/><stop offset="1" stop-color="#c30000"/></linearGradient><linearGradient x1="364.07713" y1="160.79783" x2="387.54379" y2="160.79783" gradientUnits="userSpaceOnUse" id="color-22"><stop offset="0" stop-color="#ff0000"/><stop offset="1" stop-color="#c30000"/></linearGradient><linearGradient x1="364.07713" y1="181.79783" x2="387.54379" y2="181.79783" gradientUnits="userSpaceOnUse" id="color-23"><stop offset="0" stop-color="#ff0000"/><stop offset="1" stop-color="#c30000"/></linearGradient><linearGradient x1="364.07713" y1="202.79783" x2="387.54379" y2="202.79783" gradientUnits="userSpaceOnUse" id="color-24"><stop offset="0" stop-color="#ff0000"/><stop offset="1" stop-color="#c30000"/></linearGradient><linearGradient x1="364.07713" y1="223.79783" x2="387.54379" y2="223.79783" gradientUnits="userSpaceOnUse" id="color-25"><stop offset="0" stop-color="#ff0000"/><stop offset="1" stop-color="#c30000"/></linearGradient><linearGradient x1="364.07713" y1="244.79783" x2="387.54379" y2="244.79783" gradientUnits="userSpaceOnUse" id="color-26"><stop offset="0" stop-color="#ff0000"/><stop offset="1" stop-color="#c30000"/></linearGradient><linearGradient x1="364.07713" y1="265.79782" x2="387.54379" y2="265.79782" gradientUnits="userSpaceOnUse" id="color-27"><stop offset="0" stop-color="#ff0000"/><stop offset="1" stop-color="#c30000"/></linearGradient><linearGradient x1="364.07713" y1="286.79783" x2="387.54379" y2="286.79783" gradientUnits="userSpaceOnUse" id="color-28"><stop offset="0" stop-color="#ff0000"/><stop offset="1" stop-color="#c30000"/></linearGradient><linearGradient x1="364.07713" y1="307.79783" x2="387.54379" y2="307.79783" gradientUnits="userSpaceOnUse" id="color-29"><stop offset="0" stop-color="#ff0000"/><stop offset="1" stop-color="#c30000"/></linearGradient><linearGradient x1="363.74379" y1="328.79783" x2="387.21045" y2="328.79783" gradientUnits="userSpaceOnUse" id="color-30"><stop offset="0" stop-color="#ff0000"/><stop offset="1" stop-color="#c30000"/></linearGradient></defs><g transform="translate(-124.74378,3.20219)"><g data-paper-data="{&quot;isPaintingLayer&quot;:true}" fill-rule="nonzero" stroke-linejoin="miter" stroke-miterlimit="10" stroke-dasharray="" stroke-dashoffset="0" style="mix-blend-mode: normal"><path d="M124.74378,128.79781l23.46667,10.86667l-23.46667,11.13333z" fill="url(#color-1)" stroke="none" stroke-width="0" stroke-linecap="butt"/><path d="M124.74378,149.79783l23.46666,10.86666l-23.46666,11.13334z" fill="url(#color-2)" stroke="none" stroke-width="0" stroke-linecap="butt"/><path d="M124.74378,170.79783l23.46666,10.86666l-23.46666,11.13334z" fill="url(#color-3)" stroke="none" stroke-width="0" stroke-linecap="butt"/><path d="M124.74378,191.79783l23.46666,10.86666l-23.46666,11.13334z" fill="url(#color-4)" stroke="none" stroke-width="0" stroke-linecap="butt"/><path d="M124.74378,212.79783l23.46666,10.86666l-23.46666,11.13334z" fill="url(#color-5)" stroke="none" stroke-width="0" stroke-linecap="butt"/><path d="M124.74378,233.79783l23.46666,10.86666l-23.46666,11.13334z" fill="url(#color-6)" stroke="none" stroke-width="0" stroke-linecap="butt"/><path d="M124.74378,254.79782l23.46667,10.86667l-23.46667,11.13333z" fill="url(#color-7)" stroke="none" stroke-width="0" stroke-linecap="butt"/><path d="M124.74378,275.79783l23.46666,10.86666l-23.46666,11.13334z" fill="url(#color-8)" stroke="none" stroke-width="0" stroke-linecap="butt"/><path d="M124.74378,296.79783l23.46666,10.86666l-23.46666,11.13334z" fill="url(#color-9)" stroke="none" stroke-width="0" stroke-linecap="butt"/><path d="M125.07712,317.79783l23.46666,10.86666l-23.46666,11.13334z" fill="url(#color-10)" stroke="none" stroke-width="0" stroke-linecap="butt"/><g><path d="M387.4129,349.42651v10h-261.66366v-10z" data-paper-data="{&quot;index&quot;:null}" fill="url(#color-11)" stroke="none" stroke-width="0" stroke-linecap="butt"/><path d="M125.74924,349.42651v-10h261.66366v10z" fill="url(#color-12)" stroke="none" stroke-width="0" stroke-linecap="butt"/><path d="M387.15018,349.42651h-260.6128" fill="none" stroke="#ff0000" stroke-width="2" stroke-linecap="round"/></g><path d="M250.74379,-3.20219l23.46667,10.86667l-23.46667,11.13333z" fill="url(#color-13)" stroke="none" stroke-width="0" stroke-linecap="butt"/><path d="M250.74379,17.79783l23.46666,10.86666l-23.46666,11.13334z" fill="url(#color-14)" stroke="none" stroke-width="0" stroke-linecap="butt"/><path d="M250.74379,38.79783l23.46666,10.86666l-23.46666,11.13334z" fill="url(#color-15)" stroke="none" stroke-width="0" stroke-linecap="butt"/><path d="M250.74379,59.79783l23.46666,10.86666l-23.46666,11.13334z" fill="url(#color-16)" stroke="none" stroke-width="0" stroke-linecap="butt"/><path d="M250.74379,80.79783l23.46666,10.86666l-23.46666,11.13334z" fill="url(#color-17)" stroke="none" stroke-width="0" stroke-linecap="butt"/><path d="M250.74379,101.79783l23.46666,10.86666l-23.46666,11.13334z" fill="url(#color-18)" stroke="none" stroke-width="0" stroke-linecap="butt"/><path d="M250.74379,122.79782l23.46667,10.86667l-23.46667,11.13333z" fill="url(#color-19)" stroke="none" stroke-width="0" stroke-linecap="butt"/><path d="M250.74379,143.79783l23.46666,10.86666l-23.46666,11.13334z" fill="url(#color-20)" stroke="none" stroke-width="0" stroke-linecap="butt"/><path d="M387.54379,150.79781l-23.46667,-11.13333l23.46667,-10.86667z" data-paper-data="{&quot;index&quot;:null}" fill="url(#color-21)" stroke="none" stroke-width="0" stroke-linecap="butt"/><path d="M387.54379,171.79783l-23.46666,-11.13334l23.46666,-10.86666z" data-paper-data="{&quot;index&quot;:null}" fill="url(#color-22)" stroke="none" stroke-width="0" stroke-linecap="butt"/><path d="M387.54379,192.79783l-23.46666,-11.13334l23.46666,-10.86666z" data-paper-data="{&quot;index&quot;:null}" fill="url(#color-23)" stroke="none" stroke-width="0" stroke-linecap="butt"/><path d="M387.54379,213.79783l-23.46666,-11.13334l23.46666,-10.86666z" data-paper-data="{&quot;index&quot;:null}" fill="url(#color-24)" stroke="none" stroke-width="0" stroke-linecap="butt"/><path d="M387.54379,234.79783l-23.46666,-11.13334l23.46666,-10.86666z" data-paper-data="{&quot;index&quot;:null}" fill="url(#color-25)" stroke="none" stroke-width="0" stroke-linecap="butt"/><path d="M387.54379,255.79783l-23.46666,-11.13334l23.46666,-10.86666z" data-paper-data="{&quot;index&quot;:null}" fill="url(#color-26)" stroke="none" stroke-width="0" stroke-linecap="butt"/><path d="M387.54379,276.79782l-23.46667,-11.13333l23.46667,-10.86667z" data-paper-data="{&quot;index&quot;:null}" fill="url(#color-27)" stroke="none" stroke-width="0" stroke-linecap="butt"/><path d="M387.54379,297.79783l-23.46666,-11.13334l23.46666,-10.86666z" data-paper-data="{&quot;index&quot;:null}" fill="url(#color-28)" stroke="none" stroke-width="0" stroke-linecap="butt"/><path d="M387.54379,318.79783l-23.46666,-11.13334l23.46666,-10.86666z" data-paper-data="{&quot;index&quot;:null}" fill="url(#color-29)" stroke="none" stroke-width="0" stroke-linecap="butt"/><path d="M387.21045,339.79783l-23.46666,-11.13334l23.46666,-10.86666z" data-paper-data="{&quot;index&quot;:null}" fill="url(#color-30)" stroke="none" stroke-width="0" stroke-linecap="butt"/></g></g></svg>