<svg version="1.1" xmlns="http://www.w3.org/2000/svg" xmlns:xlink="http://www.w3.org/1999/xlink" width="134.37702" height="134.37702" viewBox="0,0,134.37702,134.37702"><defs><radialGradient cx="239.72676" cy="172.07615" r="67.18851" gradientUnits="userSpaceOnUse" id="color-1"><stop offset="0" stop-color="#00ff3c" stop-opacity="0"/><stop offset="1" stop-color="#00ff3c" stop-opacity="0"/></radialGradient><radialGradient cx="239.72677" cy="172.07613" r="46.58689" gradientUnits="userSpaceOnUse" id="color-2"><stop offset="0" stop-color="#00ff3c" stop-opacity="0.66129"/><stop offset="1" stop-color="#00ff3c" stop-opacity="0"/></radialGradient></defs><g transform="translate(-172.53825,-104.88763)"><g data-paper-data="{&quot;isPaintingLayer&quot;:true}" fill-rule="nonzero" stroke-linecap="butt" stroke-linejoin="miter" stroke-miterlimit="10" stroke-dasharray="" stroke-dashoffset="0" style="mix-blend-mode: normal"><path d="M172.53825,172.07615c0,-37.10719 30.08132,-67.18851 67.18851,-67.18851c37.10719,0 67.18851,30.08132 67.18851,67.18851c0,37.10719 -30.08132,67.18851 -67.18851,67.18851c-37.10719,0 -67.18851,-30.08132 -67.18851,-67.18851z" fill="url(#color-1)" stroke="none" stroke-width="0"/><path d="M193.13989,172.07613c0,-25.72923 20.85766,-46.58689 46.58689,-46.58689c25.72923,0 46.58689,20.85766 46.58689,46.58689c0,25.72923 -20.85766,46.58689 -46.58689,46.58689c-25.72923,0 -46.58689,-20.85766 -46.58689,-46.58689z" fill="url(#color-2)" stroke="none" stroke-width="0"/><path d="M194.8114,186.13519v-44.0793h90.77739v44.0793z" fill="#00ff3c" stroke="#005013" stroke-width="3"/><path d="M285.5888,186.13519v15.77223h-90.77739v-15.77223z" fill="#00ab27" stroke="#005013" stroke-width="3"/><path d="M251.80109,164.01464l-23.60218,12.9815v-25.96297z" fill="#00ab27" stroke="#005013" stroke-width="3"/></g></g></svg>