<svg version="1.1" xmlns="http://www.w3.org/2000/svg" xmlns:xlink="http://www.w3.org/1999/xlink" width="527.69909" height="331.83148" viewBox="0,0,527.69909,331.83148"><g transform="translate(2.19905,-48)"><g data-paper-data="{&quot;isPaintingLayer&quot;:true}" fill-rule="nonzero" stroke-linejoin="miter" stroke-miterlimit="10" stroke-dasharray="" stroke-dashoffset="0" style="mix-blend-mode: normal"><path d="M495.99447,107.02759l-134.49445,-27.02759" fill="none" stroke="#b1b1b1" stroke-width="10" stroke-linecap="round"/><path d="M362.50004,93.25l105.5,98.5" fill="none" stroke="#b1b1b1" stroke-width="10" stroke-linecap="round"/><path d="M471.00002,216.75l-90,36.5" fill="none" stroke="#b1b1b1" stroke-width="10" stroke-linecap="round"/><path d="M125.25004,283.75l237,-19.5" fill="none" stroke="#b1b1b1" stroke-width="10" stroke-linecap="round"/><path d="M361.25006,266.25l-140.5,-126.5" fill="none" stroke="#b1b1b1" stroke-width="10" stroke-linecap="round"/><path d="M334.16674,79.5l-114.66667,60.66667" fill="none" stroke="#b1b1b1" stroke-width="10" stroke-linecap="round"/><path d="M335.16669,79.83333l26.33333,181.66667" fill="none" stroke="#b1b1b1" stroke-width="10" stroke-linecap="round"/><path d="M123.91295,253.49843l81.15385,-95.25172" fill="none" stroke="#b1b1b1" stroke-width="10" stroke-linecap="round"/><path d="M187.50006,140c0,-17.67311 14.32689,-32 32,-32c17.67311,0 32,14.32689 32,32c0,17.67311 -14.32689,32 -32,32c-17.67311,0 -32,-14.32689 -32,-32z" fill="#b1b1b1" stroke="none" stroke-width="0" stroke-linecap="butt"/><path d="M303.50004,80c0,-17.67311 14.32689,-32 32,-32c17.67311,0 32,14.32689 32,32c0,17.67311 -14.32689,32 -32,32c-17.67311,0 -32,-14.32689 -32,-32z" fill="#b1b1b1" stroke="none" stroke-width="0" stroke-linecap="butt"/><path d="M327.50005,262c0,-17.67311 14.32689,-32 32,-32c17.67311,0 32,14.32689 32,32c0,17.67311 -14.32689,32 -32,32c-17.67311,0 -32,-14.32689 -32,-32z" fill="#b1b1b1" stroke="none" stroke-width="0" stroke-linecap="butt"/><path d="M461.50004,210c0,-17.67311 14.32689,-32 32,-32c17.67311,0 32,14.32689 32,32c0,17.67311 -14.32689,32 -32,32c-17.67311,0 -32,-14.32689 -32,-32z" fill="#b1b1b1" stroke="none" stroke-width="0" stroke-linecap="butt"/><path d="M-2.19905,379.83148v-132.50881h152.7894v132.50881z" data-paper-data="{&quot;index&quot;:null}" fill="#000000" stroke="none" stroke-width="0" stroke-linecap="butt"/></g></g></svg>