<svg version="1.1" xmlns="http://www.w3.org/2000/svg" xmlns:xlink="http://www.w3.org/1999/xlink" width="499.34683" height="429.72705" viewBox="0,0,499.34683,429.72705"><g transform="translate(6.99967,38.49108)"><g data-paper-data="{&quot;isPaintingLayer&quot;:true}" fill-rule="nonzero" stroke="none" stroke-width="0" stroke-linecap="butt" stroke-linejoin="miter" stroke-miterlimit="10" stroke-dasharray="" stroke-dashoffset="0" style="mix-blend-mode: normal"><path d="M227.99354,154.71423v32.61994h-96.52821v-32.61995z" fill="#ff5d5d"/><path d="M126.31529,345.47901v-29.5h161v29.5z" fill="#ff0000"/><path d="M161.54953,345.57116v-47h18.5v47z" fill="#848484"/><path d="M142.54953,319.07115v-27h55.5v27z" fill="#ffea00"/><path d="M231.31529,137.47901v-29.5h27v29.5z" fill="#ff0000"/><path d="M487.30294,391.23598h-34.50785v-237.42235h34.50785z" fill="#000000"/><path d="M-6.99967,187.78984v-33.77135h137.35337v33.77135z" fill="#000000"/><path d="M70.00016,373.50001v-189h32v189z" fill="#000000"/><path d="M227.00033,34.78983v-33.77135h265.34683v33.77135z" fill="#000000"/><path d="M123.25033,375.43225v-33.77135h192.6345v33.77135z" fill="#000000"/><path d="M357.75033,187.78984v-33.77135h127.86088v33.77135z" fill="#000000"/><path d="M261.95067,187.58867h-34.50785v-55.74852h34.50785z" fill="#000000"/><path d="M282.33387,342.28984v-33.77135h173.27734v33.77135z" fill="#000000"/><path d="M357.6602,154.71424v32.61994h-96.52821v-32.61995z" fill="#ffed48"/><path d="M260.75848,131.53713h-32.61994v-96.52821h32.61994z" fill="#ff5d5d"/><path d="M139.25848,58.03714h-32.61994v-96.52821h32.61994z" fill="#ff5d5d"/></g></g></svg>