<svg version="1.1" xmlns="http://www.w3.org/2000/svg" xmlns:xlink="http://www.w3.org/1999/xlink" width="581.02834" height="389.4291" viewBox="0,0,581.02834,389.4291"><defs><linearGradient x1="305.55498" y1="253.71456" x2="306.60444" y2="370.70985" gradientUnits="userSpaceOnUse" id="color-1"><stop offset="0" stop-color="#000000"/><stop offset="1" stop-color="#ffffff"/></linearGradient><linearGradient x1="363.55714" y1="253.6943" x2="364.6066" y2="370.68959" gradientUnits="userSpaceOnUse" id="color-2"><stop offset="0" stop-color="#000000"/><stop offset="1" stop-color="#ffffff"/></linearGradient><linearGradient x1="421.0638" y1="254.1785" x2="422.11326" y2="371.17381" gradientUnits="userSpaceOnUse" id="color-3"><stop offset="0" stop-color="#000000"/><stop offset="1" stop-color="#ffffff"/></linearGradient><linearGradient x1="479.31594" y1="254.15823" x2="480.3654" y2="371.15352" gradientUnits="userSpaceOnUse" id="color-4"><stop offset="0" stop-color="#000000"/><stop offset="1" stop-color="#ffffff"/></linearGradient><linearGradient x1="74.54183" y1="253.28668" x2="75.59129" y2="370.28198" gradientUnits="userSpaceOnUse" id="color-5"><stop offset="0" stop-color="#000000"/><stop offset="1" stop-color="#ffffff"/></linearGradient><linearGradient x1="132.54398" y1="253.2664" x2="133.59344" y2="370.26171" gradientUnits="userSpaceOnUse" id="color-6"><stop offset="0" stop-color="#000000"/><stop offset="1" stop-color="#ffffff"/></linearGradient><linearGradient x1="190.05066" y1="253.75063" x2="191.10013" y2="370.74592" gradientUnits="userSpaceOnUse" id="color-7"><stop offset="0" stop-color="#000000"/><stop offset="1" stop-color="#ffffff"/></linearGradient><linearGradient x1="248.05283" y1="253.73033" x2="249.10228" y2="370.72564" gradientUnits="userSpaceOnUse" id="color-8"><stop offset="0" stop-color="#000000"/><stop offset="1" stop-color="#ffffff"/></linearGradient><linearGradient x1="537.31809" y1="254.13798" x2="538.36755" y2="371.13329" gradientUnits="userSpaceOnUse" id="color-9"><stop offset="0" stop-color="#000000"/><stop offset="1" stop-color="#ffffff"/></linearGradient><linearGradient x1="596.06809" y1="254.13798" x2="597.11755" y2="371.13329" gradientUnits="userSpaceOnUse" id="color-10"><stop offset="0" stop-color="#000000"/><stop offset="1" stop-color="#ffffff"/></linearGradient><linearGradient x1="116.5644" y1="210.26667" x2="93.09774" y2="210.26667" gradientUnits="userSpaceOnUse" id="color-11"><stop offset="0" stop-color="#ff0000"/><stop offset="1" stop-color="#c30000"/></linearGradient><linearGradient x1="215.09776" y1="210.26667" x2="238.56442" y2="210.26667" gradientUnits="userSpaceOnUse" id="color-12"><stop offset="0" stop-color="#ff0000"/><stop offset="1" stop-color="#c30000"/></linearGradient><linearGradient x1="351.59778" y1="49.17612" x2="363.56444" y2="49.17612" gradientUnits="userSpaceOnUse" id="color-13"><stop offset="0" stop-color="#ff0000"/><stop offset="1" stop-color="#c30000"/></linearGradient><linearGradient x1="351.59778" y1="29.91233" x2="363.56444" y2="29.91233" gradientUnits="userSpaceOnUse" id="color-14"><stop offset="0" stop-color="#ff0000"/><stop offset="1" stop-color="#c30000"/></linearGradient><linearGradient x1="351.59778" y1="10.64856" x2="363.56444" y2="10.64856" gradientUnits="userSpaceOnUse" id="color-15"><stop offset="0" stop-color="#ff0000"/><stop offset="1" stop-color="#c30000"/></linearGradient><linearGradient x1="351.59778" y1="-8.61522" x2="363.56444" y2="-8.61522" gradientUnits="userSpaceOnUse" id="color-16"><stop offset="0" stop-color="#ff0000"/><stop offset="1" stop-color="#c30000"/></linearGradient></defs><g transform="translate(41.41744,18.70578)"><g data-paper-data="{&quot;isPaintingLayer&quot;:true}" fill-rule="nonzero" stroke="none" stroke-width="0" stroke-linecap="butt" stroke-linejoin="miter" stroke-miterlimit="10" stroke-dasharray="" stroke-dashoffset="0" style="mix-blend-mode: normal"><path d="M189.59568,370.25938c0,0 0.19964,-130.01856 1.33383,-130.01719c20.47193,0.02464 14.45131,15.9414 29.6705,15.96659c15.96904,0.02644 12.16376,-15.51981 28.33646,-15.53539c0.10382,-0.0001 0.16129,129.55228 0.16129,129.55228z" fill="url(#color-1)"/><path d="M247.59785,370.23912c0,0 0.19964,-130.01856 1.33383,-130.01719c20.47193,0.02464 14.45132,15.9414 29.6705,15.96659c15.96904,0.02644 12.16376,-15.51981 28.33646,-15.53539c0.10381,-0.0001 0.16129,129.55228 0.16129,129.55228z" fill="url(#color-2)"/><path d="M305.10451,370.72332c0,0 0.19964,-130.01856 1.33383,-130.01719c20.47193,0.02464 14.45132,15.9414 29.6705,15.96659c15.96904,0.02644 12.16376,-15.51981 28.33646,-15.53539c0.10381,-0.0001 0.16129,129.55228 0.16129,129.55228z" fill="url(#color-3)"/><path d="M363.35666,370.70305c0,0 0.19964,-130.01856 1.33383,-130.01719c20.47193,0.02464 14.45132,15.9414 29.6705,15.96659c15.96904,0.02644 12.16376,-15.51981 28.33646,-15.53539c0.10381,-0.0001 0.16129,129.55228 0.16129,129.55228z" fill="url(#color-4)"/><path d="M-41.41744,369.83151c0,0 0.19964,-130.01856 1.33383,-130.01719c20.47193,0.02464 14.45131,15.9414 29.6705,15.96659c15.96904,0.02644 12.16376,-15.51981 28.33646,-15.53539c0.10382,-0.0001 0.16129,129.55228 0.16129,129.55228z" fill="url(#color-5)"/><path d="M16.58471,369.81122c0,0 0.19964,-130.01856 1.33383,-130.01719c20.47193,0.02464 14.45132,15.9414 29.6705,15.96659c15.96904,0.02644 12.16376,-15.51981 28.33646,-15.53539c0.10381,-0.0001 0.16129,129.55228 0.16129,129.55228z" fill="url(#color-6)"/><path d="M74.09138,370.29544c0,0 0.19964,-130.01856 1.33383,-130.01719c20.47193,0.02464 14.45132,15.9414 29.6705,15.96659c15.96904,0.02644 12.16376,-15.51981 28.33646,-15.53539c0.10381,-0.0001 0.16129,129.55228 0.16129,129.55228z" fill="url(#color-7)"/><path d="M132.09351,370.27515c0,0 0.19964,-130.01856 1.33383,-130.01719c20.47193,0.02464 14.45132,15.9414 29.6705,15.96659c15.96904,0.02644 12.16376,-15.51981 28.33646,-15.53539c0.10381,-0.0001 0.16129,129.55228 0.16129,129.55228z" fill="url(#color-8)"/><path d="M421.35882,370.68279c0,0 0.19964,-130.01856 1.33383,-130.01719c20.47193,0.02464 14.45132,15.9414 29.6705,15.96659c15.96904,0.02644 12.16376,-15.51981 28.33646,-15.53539c0.10381,-0.0001 0.16129,129.55228 0.16129,129.55228z" fill="url(#color-9)"/><path d="M480.10882,370.68279c0,0 0.19964,-130.01856 1.33383,-130.01719c20.47193,0.02464 14.45132,15.9414 29.6705,15.96659c15.96904,0.02644 12.16376,-15.51981 28.33646,-15.53539c0.10381,-0.0001 0.16129,129.55228 0.16129,129.55228z" fill="url(#color-10)"/><path d="M93.09774,199.26667l23.46667,10.86667l-23.46667,11.13333z" fill="url(#color-11)"/><path d="M238.56442,221.26667l-23.46667,-10.86667l23.46667,-11.13333z" fill="url(#color-12)"/><path d="M363.56444,59.26667l-11.96667,-9.96824l11.96667,-10.21286z" fill="url(#color-13)"/><path d="M363.56444,40.00289l-11.96666,-9.96824l11.96666,-10.21287z" fill="url(#color-14)"/><path d="M363.56444,20.73911l-11.96666,-9.96824l11.96666,-10.21287z" fill="url(#color-15)"/><path d="M363.56444,1.47533l-11.96666,-9.96824l11.96666,-10.21287z" fill="url(#color-16)"/></g></g></svg>