<svg version="1.1" xmlns="http://www.w3.org/2000/svg" xmlns:xlink="http://www.w3.org/1999/xlink" width="375.11234" height="302.14991" viewBox="0,0,375.11234,302.14991"><g transform="translate(-112.13854,-67.64113)"><g data-paper-data="{&quot;isPaintingLayer&quot;:true}" fill-rule="nonzero" stroke="none" stroke-width="0" stroke-linecap="butt" stroke-linejoin="miter" stroke-miterlimit="10" stroke-dasharray="" stroke-dashoffset="0" style="mix-blend-mode: normal"><path d="M482.78783,359.95739h-118.75662v-23.40853h118.75662z" fill="#ff0000"/><path d="M297.83226,215.75832h32.61994v96.52821h-32.61994z" fill="#72ff4e"/><path d="M364.31275,369.79104h-33.77135v-154.35337h33.77135z" data-paper-data="{&quot;index&quot;:null}" fill="#000000"/><path d="M297.31271,311.12438h-33.77135v-166.79812l33.77135,-16.55556z" data-paper-data="{&quot;index&quot;:null}" fill="#000000"/><path d="M297.14094,161.32975v-33.77135h161.06511v33.77135z" data-paper-data="{&quot;index&quot;:null}" fill="#000000"/><path d="M330.59533,249.28363v-33.77135h82.27056v33.77135z" data-paper-data="{&quot;index&quot;:null}" fill="#000000"/><path d="M291.47308,161.41893v-30.55556l5.77688,-2.76528l4.33423,-0.45694v33.77778z" fill="#000000"/><path d="M482.9794,249.23549h-33.77135v-164.90924l33.77135,-16.55556z" data-paper-data="{&quot;index&quot;:null}" fill="#000000"/><path d="M477.13977,101.41891v-30.55555l5.77688,-2.76528l4.33423,-0.45695v33.77778z" fill="#000000"/><path d="M144.75848,366.53713h-32.61994v-145.52821h32.61994z" fill="#ff5d5d"/><path d="M412.54479,327.33239v-32.61994h73.86154v32.61994z" fill="#5479ff"/></g></g></svg>