<svg version="1.1" xmlns="http://www.w3.org/2000/svg" xmlns:xlink="http://www.w3.org/1999/xlink" width="464.0266" height="130.76999" viewBox="0,0,464.0266,130.76999"><defs><linearGradient x1="338.27868" y1="260.17849" x2="339.39303" y2="377.17318" gradientUnits="userSpaceOnUse" id="color-1"><stop offset="0" stop-color="#000000"/><stop offset="1" stop-color="#ffffff"/></linearGradient><linearGradient x1="396.28082" y1="260.12605" x2="397.39517" y2="377.12074" gradientUnits="userSpaceOnUse" id="color-2"><stop offset="0" stop-color="#000000"/><stop offset="1" stop-color="#ffffff"/></linearGradient><linearGradient x1="453.78774" y1="260.57836" x2="454.90209" y2="377.57306" gradientUnits="userSpaceOnUse" id="color-3"><stop offset="0" stop-color="#000000"/><stop offset="1" stop-color="#ffffff"/></linearGradient><linearGradient x1="511.78986" y1="260.52592" x2="512.90421" y2="377.52061" gradientUnits="userSpaceOnUse" id="color-4"><stop offset="0" stop-color="#000000"/><stop offset="1" stop-color="#ffffff"/></linearGradient><linearGradient x1="165.26746" y1="259.82629" x2="166.38181" y2="376.82098" gradientUnits="userSpaceOnUse" id="color-5"><stop offset="0" stop-color="#000000"/><stop offset="1" stop-color="#ffffff"/></linearGradient><linearGradient x1="222.7744" y1="260.27861" x2="223.88876" y2="377.2733" gradientUnits="userSpaceOnUse" id="color-6"><stop offset="0" stop-color="#000000"/><stop offset="1" stop-color="#ffffff"/></linearGradient><linearGradient x1="280.77654" y1="260.22616" x2="281.89089" y2="377.22085" gradientUnits="userSpaceOnUse" id="color-7"><stop offset="0" stop-color="#000000"/><stop offset="1" stop-color="#ffffff"/></linearGradient><linearGradient x1="569.79199" y1="260.4735" x2="570.90634" y2="377.4682" gradientUnits="userSpaceOnUse" id="color-8"><stop offset="0" stop-color="#000000"/><stop offset="1" stop-color="#ffffff"/></linearGradient></defs><g transform="translate(-49.37284,-246.41749)"><g data-paper-data="{&quot;isPaintingLayer&quot;:true}" fill-rule="nonzero" stroke="none" stroke-width="0" stroke-linecap="butt" stroke-linejoin="miter" stroke-miterlimit="10" stroke-dasharray="" stroke-dashoffset="0" style="mix-blend-mode: normal"><path d="M222.38404,376.7876c0,0 0.12753,-130.01865 1.26172,-130.01791c20.47194,0.01329 14.46015,15.93338 29.67935,15.95013c15.96905,0.01758 12.15515,-15.52655 28.32784,-15.5511c0.10382,-0.00016 0.23315,129.55217 0.23315,129.55217z" fill="url(#color-1)"/><path d="M280.38619,376.73516c0,0 0.12753,-130.01865 1.26172,-130.01791c20.47194,0.01329 14.46016,15.93338 29.67935,15.95013c15.96905,0.01758 12.15515,-15.52655 28.32784,-15.5511c0.10381,-0.00016 0.23315,129.55217 0.23315,129.55217z" fill="url(#color-2)"/><path d="M337.89311,377.18748c0,0 0.12753,-130.01865 1.26172,-130.01791c20.47194,0.01329 14.46016,15.93338 29.67935,15.95013c15.96905,0.01758 12.15515,-15.52655 28.32784,-15.5511c0.10381,-0.00016 0.23315,129.55217 0.23315,129.55217z" fill="url(#color-3)"/><path d="M395.89524,377.13503c0,0 0.12753,-130.01865 1.26172,-130.01791c20.47194,0.01329 14.46016,15.93338 29.67935,15.95013c15.96905,0.01758 12.15515,-15.52655 28.32784,-15.5511c0.10381,-0.00016 0.23315,129.55217 0.23315,129.55217z" fill="url(#color-4)"/><path d="M49.37284,376.4354c0,0 0.12753,-130.01865 1.26172,-130.01791c20.47194,0.01329 14.46016,15.93338 29.67935,15.95013c15.96905,0.01758 12.15515,-15.52655 28.32784,-15.5511c0.10381,-0.00016 0.23315,129.55217 0.23315,129.55217z" fill="url(#color-5)"/><path d="M106.87977,376.88772c0,0 0.12753,-130.01865 1.26172,-130.01791c20.47194,0.01329 14.46016,15.93338 29.67935,15.95013c15.96905,0.01758 12.15515,-15.52655 28.32784,-15.5511c0.10381,-0.00016 0.23315,129.55217 0.23315,129.55217z" fill="url(#color-6)"/><path d="M164.88188,376.83527c0,0 0.12753,-130.01865 1.26172,-130.01791c20.47194,0.01329 14.46016,15.93338 29.67935,15.95013c15.96905,0.01758 12.15515,-15.52655 28.32784,-15.5511c0.10381,-0.00016 0.23315,129.55217 0.23315,129.55217z" fill="url(#color-7)"/><path d="M453.89738,377.08261c0,0 0.12753,-130.01865 1.26172,-130.01791c20.47194,0.01329 14.46016,15.93338 29.67935,15.95013c15.96905,0.01758 12.15515,-15.52655 28.32784,-15.5511c0.10381,-0.00016 0.23315,129.55217 0.23315,129.55217z" fill="url(#color-8)"/></g></g></svg>