<svg version="1.1" xmlns="http://www.w3.org/2000/svg" xmlns:xlink="http://www.w3.org/1999/xlink" width="542.15006" height="323.75976" viewBox="0,0,542.15006,323.75976"><defs><radialGradient cx="478.2868" cy="73.5" r="62" gradientUnits="userSpaceOnUse" id="color-1"><stop offset="0" stop-color="#c4c4c4"/><stop offset="1" stop-color="#989898"/></radialGradient><radialGradient cx="406.44897" cy="193.66667" r="25.5" gradientUnits="userSpaceOnUse" id="color-2"><stop offset="0" stop-color="#c4c4c4"/><stop offset="1" stop-color="#989898"/></radialGradient><radialGradient cx="403.36564" cy="115.75" r="43.25" gradientUnits="userSpaceOnUse" id="color-3"><stop offset="0" stop-color="#c4c4c4"/><stop offset="1" stop-color="#989898"/></radialGradient><radialGradient cx="331.11564" cy="268.50676" r="28.75" gradientUnits="userSpaceOnUse" id="color-4"><stop offset="0" stop-color="#c4c4c4"/><stop offset="1" stop-color="#989898"/></radialGradient><radialGradient cx="232.5807" cy="276.00676" r="44.5" gradientUnits="userSpaceOnUse" id="color-5"><stop offset="0" stop-color="#c4c4c4"/><stop offset="1" stop-color="#989898"/></radialGradient><radialGradient cx="296.3307" cy="181.00676" r="28.75" gradientUnits="userSpaceOnUse" id="color-6"><stop offset="0" stop-color="#c4c4c4"/><stop offset="1" stop-color="#989898"/></radialGradient><radialGradient cx="350.3307" cy="133.75" r="46.25" gradientUnits="userSpaceOnUse" id="color-7"><stop offset="0" stop-color="#c4c4c4"/><stop offset="1" stop-color="#989898"/></radialGradient><radialGradient cx="280.0807" cy="69" r="40" gradientUnits="userSpaceOnUse" id="color-8"><stop offset="0" stop-color="#c4c4c4"/><stop offset="1" stop-color="#989898"/></radialGradient><radialGradient cx="-17" cy="105.5" r="103.5" gradientUnits="userSpaceOnUse" id="color-9"><stop offset="0" stop-color="#c4c4c4"/><stop offset="1" stop-color="#989898"/></radialGradient><radialGradient cx="127.75001" cy="175.5" r="32.25" gradientUnits="userSpaceOnUse" id="color-10"><stop offset="0" stop-color="#c4c4c4"/><stop offset="1" stop-color="#989898"/></radialGradient><radialGradient cx="126.75001" cy="249" r="14" gradientUnits="userSpaceOnUse" id="color-11"><stop offset="0" stop-color="#c4c4c4"/><stop offset="1" stop-color="#989898"/></radialGradient><radialGradient cx="151.50001" cy="99.5" r="33.75" gradientUnits="userSpaceOnUse" id="color-12"><stop offset="0" stop-color="#c4c4c4"/><stop offset="1" stop-color="#989898"/></radialGradient><radialGradient cx="205.00001" cy="194.25" r="21.75" gradientUnits="userSpaceOnUse" id="color-13"><stop offset="0" stop-color="#c4c4c4"/><stop offset="1" stop-color="#989898"/></radialGradient><radialGradient cx="226.75001" cy="115.75" r="14" gradientUnits="userSpaceOnUse" id="color-14"><stop offset="0" stop-color="#c4c4c4"/><stop offset="1" stop-color="#989898"/></radialGradient><radialGradient cx="165.75001" cy="138.5" r="49" gradientUnits="userSpaceOnUse" id="color-15"><stop offset="0" stop-color="#c4c4c4"/><stop offset="1" stop-color="#989898"/></radialGradient><radialGradient cx="87.25001" cy="214.5" r="50" gradientUnits="userSpaceOnUse" id="color-16"><stop offset="0" stop-color="#c4c4c4"/><stop offset="1" stop-color="#989898"/></radialGradient><radialGradient cx="51.00001" cy="166.25" r="23" gradientUnits="userSpaceOnUse" id="color-17"><stop offset="0" stop-color="#c4c4c4"/><stop offset="1" stop-color="#989898"/></radialGradient><radialGradient cx="49.75001" cy="243.75" r="15.5" gradientUnits="userSpaceOnUse" id="color-18"><stop offset="0" stop-color="#c4c4c4"/><stop offset="1" stop-color="#989898"/></radialGradient><radialGradient cx="345.00153" cy="61.997" r="32" gradientUnits="userSpaceOnUse" id="color-19"><stop offset="0" stop-color="#c4c4c4"/><stop offset="1" stop-color="#989898"/></radialGradient><radialGradient cx="91.50005" cy="124" r="32" gradientUnits="userSpaceOnUse" id="color-20"><stop offset="0" stop-color="#c4c4c4"/><stop offset="1" stop-color="#989898"/></radialGradient><radialGradient cx="210.50004" cy="77" r="32" gradientUnits="userSpaceOnUse" id="color-21"><stop offset="0" stop-color="#c4c4c4"/><stop offset="1" stop-color="#989898"/></radialGradient><radialGradient cx="243.50004" cy="155" r="32" gradientUnits="userSpaceOnUse" id="color-22"><stop offset="0" stop-color="#c4c4c4"/><stop offset="1" stop-color="#989898"/></radialGradient><radialGradient cx="165.42196" cy="230.07508" r="32" gradientUnits="userSpaceOnUse" id="color-23"><stop offset="0" stop-color="#c4c4c4"/><stop offset="1" stop-color="#989898"/></radialGradient><radialGradient cx="88.84537" cy="275.12012" r="32" gradientUnits="userSpaceOnUse" id="color-24"><stop offset="0" stop-color="#c4c4c4"/><stop offset="1" stop-color="#989898"/></radialGradient><radialGradient cx="352.50903" cy="209.14414" r="32" gradientUnits="userSpaceOnUse" id="color-25"><stop offset="0" stop-color="#c4c4c4"/><stop offset="1" stop-color="#989898"/></radialGradient><radialGradient cx="301.45797" cy="321.75676" r="32" gradientUnits="userSpaceOnUse" id="color-26"><stop offset="0" stop-color="#c4c4c4"/><stop offset="1" stop-color="#989898"/></radialGradient><radialGradient cx="459.11564" cy="179.11411" r="32" gradientUnits="userSpaceOnUse" id="color-27"><stop offset="0" stop-color="#c4c4c4"/><stop offset="1" stop-color="#989898"/></radialGradient><radialGradient cx="13.50002" cy="210" r="32" gradientUnits="userSpaceOnUse" id="color-28"><stop offset="0" stop-color="#c4c4c4"/><stop offset="1" stop-color="#989898"/></radialGradient></defs><g transform="translate(36.45425,-29.997)"><g data-paper-data="{&quot;isPaintingLayer&quot;:true}" fill-rule="nonzero" stroke-linejoin="miter" stroke-miterlimit="10" stroke-dasharray="" stroke-dashoffset="0" style="mix-blend-mode: normal"><path d="M363.07057,63.51502l137.62524,37.76697" fill="none" stroke="url(#color-1)" stroke-width="10" stroke-linecap="round"/><path d="M380.94897,201.33333l51,-15.33333" fill="none" stroke="url(#color-2)" stroke-width="10" stroke-linecap="round"/><path d="M367.11564,72.5l72.5,86.5" fill="none" stroke="url(#color-3)" stroke-width="10" stroke-linecap="round"/><path d="M318.11564,297.25676l26,-57.5" fill="none" stroke="url(#color-4)" stroke-width="10" stroke-linecap="round"/><path d="M188.0807,244.75676l89,62.5" fill="none" stroke="url(#color-5)" stroke-width="10" stroke-linecap="round"/><path d="M267.5807,164.75676l57.5,32.5" fill="none" stroke="url(#color-6)" stroke-width="10" stroke-linecap="round"/><path d="M347.5807,87.5l5.5,92.5" fill="none" stroke="url(#color-7)" stroke-width="10" stroke-linecap="round"/><path d="M240.0807,72l80,-6" fill="none" stroke="url(#color-8)" stroke-width="10" stroke-linecap="round"/><path d="M88.5,122l-119.95425,-24.10564" fill="none" stroke="url(#color-9)" stroke-width="10" stroke-linecap="round"/><path d="M107.75001,143.25l40,64.5" fill="none" stroke="url(#color-10)" stroke-width="10" stroke-linecap="round"/><path d="M112.75001,256.75l28,-15.5" fill="none" stroke="url(#color-11)" stroke-width="10" stroke-linecap="round"/><path d="M185.25001,86.75l-67.5,25.5" fill="none" stroke="url(#color-12)" stroke-width="10" stroke-linecap="round"/><path d="M183.25001,214.25l43.5,-40" fill="none" stroke="url(#color-13)" stroke-width="10" stroke-linecap="round"/><path d="M232.75001,129.75l-12,-28" fill="none" stroke="url(#color-14)" stroke-width="10" stroke-linecap="round"/><path d="M214.75001,147.75l-98,-18.5" fill="none" stroke="url(#color-15)" stroke-width="10" stroke-linecap="round"/><path d="M37.25001,205.25l100,18.5" fill="none" stroke="url(#color-16)" stroke-width="10" stroke-linecap="round"/><path d="M30.75001,189.25l40.5,-46" fill="none" stroke="url(#color-17)" stroke-width="10" stroke-linecap="round"/><path d="M65.25001,258.25l-31,-29" fill="none" stroke="url(#color-18)" stroke-width="10" stroke-linecap="round"/><path d="M313.00153,61.997c0,-17.67311 14.32689,-32 32,-32c17.67311,0 32,14.32689 32,32c0,17.67311 -14.32689,32 -32,32c-17.67311,0 -32,-14.32689 -32,-32z" fill="url(#color-19)" stroke="none" stroke-width="0" stroke-linecap="butt"/><path d="M59.50002,124c0,-17.67311 14.32689,-32 32,-32c17.67311,0 32,14.32689 32,32c0,17.67311 -14.32689,32 -32,32c-17.67311,0 -32,-14.32689 -32,-32z" fill="url(#color-20)" stroke="none" stroke-width="0" stroke-linecap="butt"/><path d="M178.50004,77c0,-17.67311 14.32689,-32 32,-32c17.67311,0 32,14.32689 32,32c0,17.67311 -14.32689,32 -32,32c-17.67311,0 -32,-14.32689 -32,-32z" fill="url(#color-21)" stroke="none" stroke-width="0" stroke-linecap="butt"/><path d="M211.50004,155c0,-17.67311 14.32689,-32 32,-32c17.67311,0 32,14.32689 32,32c0,17.67311 -14.32689,32 -32,32c-17.67311,0 -32,-14.32689 -32,-32z" fill="url(#color-22)" stroke="none" stroke-width="0" stroke-linecap="butt"/><path d="M133.42196,230.07508c0,-17.67311 14.32689,-32 32,-32c17.67311,0 32,14.32689 32,32c0,17.67311 -14.32689,32 -32,32c-17.67311,0 -32,-14.32689 -32,-32z" fill="url(#color-23)" stroke="none" stroke-width="0" stroke-linecap="butt"/><path d="M56.84537,275.12012c0,-17.67311 14.32689,-32 32,-32c17.67311,0 32,14.32689 32,32c0,17.67311 -14.32689,32 -32,32c-17.67311,0 -32,-14.32689 -32,-32z" fill="url(#color-24)" stroke="none" stroke-width="0" stroke-linecap="butt"/><path d="M320.50903,209.14414c0,-17.67311 14.32689,-32 32,-32c17.67311,0 32,14.32689 32,32c0,17.67311 -14.32689,32 -32,32c-17.67311,0 -32,-14.32689 -32,-32z" fill="url(#color-25)" stroke="none" stroke-width="0" stroke-linecap="butt"/><path d="M269.45797,321.75676c0,-17.67311 14.32689,-32 32,-32c17.67311,0 32,14.32689 32,32c0,17.67311 -14.32689,32 -32,32c-17.67311,0 -32,-14.32689 -32,-32z" fill="url(#color-26)" stroke="none" stroke-width="0" stroke-linecap="butt"/><path d="M427.11564,179.11411c0,-17.67311 14.32689,-32 32,-32c17.67311,0 32,14.32689 32,32c0,17.67311 -14.32689,32 -32,32c-17.67311,0 -32,-14.32689 -32,-32z" fill="url(#color-27)" stroke="none" stroke-width="0" stroke-linecap="butt"/><path d="M-18.49998,210c0,-17.67311 14.32689,-32 32,-32c17.67311,0 32,14.32689 32,32c0,17.67311 -14.32689,32 -32,32c-17.67311,0 -32,-14.32689 -32,-32z" fill="url(#color-28)" stroke="none" stroke-width="0" stroke-linecap="butt"/></g></g></svg>