<svg version="1.1" xmlns="http://www.w3.org/2000/svg" xmlns:xlink="http://www.w3.org/1999/xlink" width="573.45033" height="420.97549" viewBox="0,0,573.45033,420.97549"><g transform="translate(29.70756,34.98194)"><g data-paper-data="{&quot;isPaintingLayer&quot;:true}" fill="#000000" fill-rule="nonzero" stroke="none" stroke-width="0" stroke-linecap="butt" stroke-linejoin="miter" stroke-miterlimit="10" stroke-dasharray="" stroke-dashoffset="0" style="mix-blend-mode: normal"><path d="M451.23774,374.0694v-292.67566h40.18048v292.67566z" data-paper-data="{&quot;index&quot;:null}"/><path d="M229.00606,25.81414v-58.55856h314.73671v58.55856z" data-paper-data="{&quot;index&quot;:null}"/><path d="M-28.74862,385.99355v-420.97549h55.61863v420.97549z"/><path d="M-29.70756,383.11672v-34.36498h509.19815v34.36498z"/><path d="M330.69757,165.07371v-47.33132h122.38008v47.33132z"/><path d="M395.13494,119.98128l56.31774,-38.86717v38.86717z"/><path d="M229.26761,133.0058v-116h42v116z"/><path d="M136.53211,282.5058v-20h208.18273v20z"/><path d="M122.77502,282.47528v-199.63897h14.67933v199.63897z"/><path d="M330.3828,282.47528v-164.40857h65.67933v164.40857z"/><path d="M24.47857,6.6219v-24.32576h210.96304v24.32576z"/><path d="M67.08564,97.53692v-14.72361h70.48537v14.72361z"/></g></g></svg>