<svg version="1.1" xmlns="http://www.w3.org/2000/svg" xmlns:xlink="http://www.w3.org/1999/xlink" width="814.00001" height="627.50001" viewBox="0,0,814.00001,627.50001"><defs><radialGradient cx="324" cy="38.5" r="54" gradientUnits="userSpaceOnUse" id="color-1"><stop offset="0" stop-color="#fffe00"/><stop offset="1" stop-color="#fffe00" stop-opacity="0"/></radialGradient><linearGradient x1="205.50001" y1="63.5" x2="205.50001" y2="585.00001" gradientUnits="userSpaceOnUse" id="color-2"><stop offset="0" stop-color="#a3bdd0"/><stop offset="1" stop-color="#572900"/></linearGradient></defs><g transform="translate(201.5,42.5)"><g data-paper-data="{&quot;isPaintingLayer&quot;:true}" fill-rule="nonzero" stroke-linecap="butt" stroke-linejoin="miter" stroke-miterlimit="10" stroke-dasharray="" stroke-dashoffset="0" style="mix-blend-mode: normal"><g stroke="none"><path d="M-71.5,401.5v-444h623v444z" fill="#8ccfff" stroke-width="0"/><g><path d="M297,38.5c0,-14.91169 12.08831,-27 27,-27c14.91169,0 27,12.08831 27,27c0,14.91169 -12.08831,27 -27,27c-14.91169,0 -27,-12.08831 -27,-27z" fill="#fffe00" stroke-width="NaN"/><path d="M270,38.5c0,-29.82338 24.17662,-54 54,-54c29.82338,0 54,24.17662 54,54c0,29.82338 -24.17662,54 -54,54c-29.82338,0 -54,-24.17662 -54,-54z" fill="url(#color-1)" stroke-width="NaN"/></g><path d="M70.47747,90.99098c-32.10403,-0.07609 -42.33006,-38.21273 -11.87695,-40.04085c16.38557,-0.98364 23.86992,4.9492 23.86992,4.9492c0,0 16.9488,-12.25788 28.57407,-12.60595c6.98566,-0.20915 26.88393,5.40156 26.88393,5.40156c0,0 17.37694,-8.17162 25.04904,-8.20395c22.14529,-0.09333 33,9.86445 33,24.5c0,14.63555 -22.83348,26.5 -51,26.5c-28.16652,0 -56.49954,-0.45734 -74.5,-0.5z" fill="#ffffff" stroke-width="0"/><path d="M432.92346,106.45345c-18.00046,0.04266 -46.33348,0.5 -74.5,0.5c-28.16652,0 -51,-11.86445 -51,-26.5c0,-14.63555 10.8547,-24.59333 33,-24.5c7.6721,0.03234 25.04904,8.20396 25.04904,8.20396c0,0 26.89827,-7.11071 33.88392,-6.90156c33.12527,-1.65194 29.05843,8.17311 45.44399,9.15675c30.45311,1.82812 20.22708,39.96476 -11.87696,40.04085z" data-paper-data="{&quot;index&quot;:null}" fill="#ffffff" stroke-width="0"/><g stroke-width="0"><path d="M-201.5,584.5l4,-325l246,-196l103,171l105.08641,-113.57952l67.56068,96.93629l93.31782,-148.39474l191.0351,190.03798l4,325.5z" fill="url(#color-2)"/><path d="M48.75,135l-14.46714,-27.55902l-14.87962,23.03114l-9.49881,-19.46196l-29.15443,6.48984l67.5,-55l43,72l-30,-26z" fill="#ffffff"/><path d="M263.75,203.5l-13.96714,-33.05902l-13.37963,32.03115l-8.99881,-24.96196l-23.15443,-0.01016l54.5,-58l49,72.5l-31,-19.5z" fill="#ffffff"/><path d="M403.25,114l-30,26l43,-72l63,65l-25.65443,-8.48984l-10.49881,33.46196l-13.37963,-48.53115l-13.46714,36.55902z" data-paper-data="{&quot;index&quot;:null}" fill="#ffffff"/></g></g><path d="M179,375v-244h122v244z" fill="#000000" stroke="none" stroke-width="0"/><path d="M324.02776,367.8229v-40.5h167.66667v40.5z" fill="#000000" stroke="none" stroke-width="0"/><path d="M-11.30557,369.32291v-380h117v380z" fill="#000000" stroke="none" stroke-width="0"/><text transform="translate(181.21927,322.98031) scale(0.34899,0.34899)" font-size="40" xml:space="preserve" fill="#ffffff" fill-rule="nonzero" stroke="#ffffff" stroke-width="2" stroke-linecap="butt" stroke-linejoin="miter" stroke-miterlimit="10" stroke-dasharray="" stroke-dashoffset="0" font-family="Sans Serif" font-weight="normal" text-anchor="start" style="mix-blend-mode: normal"><tspan x="0" dy="0">Thank you for</tspan><tspan x="0" dy="48px">playing! It means</tspan><tspan x="0" dy="48px">a lot.</tspan></text><path d="M94.69443,83.69422v-16h79v16z" fill="#000000" stroke="none" stroke-width="0"/><path d="M352.36012,219.09944l-4.35236,-15.39665l76.02098,-21.48977l4.35236,15.39665z" fill="#000000" stroke="none" stroke-width="0"/><text transform="translate(325.02491,353.60006) scale(0.61346,0.61346)" font-size="40" xml:space="preserve" fill="#ffffff" fill-rule="nonzero" stroke="none" stroke-width="1" stroke-linecap="butt" stroke-linejoin="miter" stroke-miterlimit="10" stroke-dasharray="" stroke-dashoffset="0" font-family="Sans Serif" font-weight="normal" text-anchor="start" style="mix-blend-mode: normal"><tspan x="0" dy="0">Release 1.1.0</tspan></text></g></g></svg>