<svg version="1.1" xmlns="http://www.w3.org/2000/svg" xmlns:xlink="http://www.w3.org/1999/xlink" width="522.62722" height="418.68438" viewBox="0,0,522.62722,418.68438"><g transform="translate(26.82991,27.07337)"><g data-paper-data="{&quot;isPaintingLayer&quot;:true}" fill-rule="nonzero" stroke="none" stroke-width="0" stroke-linecap="butt" stroke-linejoin="miter" stroke-miterlimit="10" stroke-dasharray="" stroke-dashoffset="0" style="mix-blend-mode: normal"><path d="M183.57372,159.41591v-28.92329h23.40853v28.92329z" fill="#ff0000"/><path d="M111.97118,159.41591v-28.92329h23.40853v28.92329z" fill="#ff0000"/><path d="M209.7337,364.11101v-181.5h92v181.5z" fill="#969696"/><path d="M348.7337,373.11101v-69h19v69z" fill="#ff0000"/><path d="M104.82691,188.88091v32.61994h-96.52821v-32.61995z" fill="#ff5d5d"/><path d="M410.24254,82.54595l-25.80095,-25.80095l83.81837,-83.81837l26.63428,24.96761z" fill="#969696"/><path d="M366.98048,82.53454l-10.72321,-96.80754l43.55585,0.41947l10.66736,96.38807z" fill="#969696"/><path d="M207.67073,18.96477v-28.92329h23.40853v28.92329z" fill="#ff0000"/><path d="M139.67794,391.36101h-34.50785v-237.17235h34.50785z" fill="#000000"/><path d="M7.67794,391.61101h-34.50785v-237.42235h34.50785z" fill="#000000"/><path d="M118.71852,221.56256v20.09118h-76.92235v-20.09118z" fill="#000000"/><path d="M41.38519,290.2292v22.25785h-46.92235v-22.25785z" fill="#000000"/><path d="M71.46852,357.06258v34.50785h-29.67235v-34.50785z" fill="#000000"/><path d="M215.67794,367.86101h-34.50785v-213.67235h34.50785z" fill="#000000"/><path d="M-9.4155,34.78986v-33.77135h149.04614v33.77135z" fill="#000000"/><path d="M215.67794,34.72767h-34.50785v-49.17235h34.50785z" fill="#000000"/><path d="M181.25117,187.95653v-33.77135h132.54614v33.77135z" fill="#000000"/><path d="M309.52794,339.361h-27.35785v-99.08902h27.35785z" fill="#000000"/><path d="M362.79731,360.88493v-59.92393h30.5v59.92393z" fill="#000000"/><path d="M291.75117,269.40651v-29.47135h204.04614v29.47135z" fill="#000000"/><path d="M186.50576,34.60402v-20.12781h144.00711v20.12781z" fill="#000000"/><path d="M416.75117,134.40651v-8.47135h71.04614v8.47135z" fill="#000000"/><path d="M104.68405,156.30948v32.61994h-96.52821v-32.61995z" fill="#585858"/><path d="M8.92009,255.21468v-32.75h32.75v32.75z" fill="#585858"/><path d="M8.632,288.33416v-32.61994h96.52821v32.61995z" fill="#5479ff"/><path d="M220.539,293.13623c0,-16.2924 13.2076,-29.5 29.5,-29.5c16.2924,0 29.5,13.2076 29.5,29.5c0,16.2924 -13.2076,29.5 -29.5,29.5c-16.2924,0 -29.5,-13.2076 -29.5,-29.5z" fill="#ffa217"/><path d="M397.7337,107.61101v-1h0.5v1z" fill="#969696"/><path d="M104.80634,325.31245v32.61994h-96.52821v-32.61994z" fill="#72ff4e"/><path d="M40.82009,323.71468v-32.75h63.55v32.75z" fill="#585858"/><path d="M9.82009,390.96468v-32.75h63.55v32.75z" fill="#585858"/><path d="M476.40634,339.9738v27.11205h-96.52821v-27.11205z" fill="#72ff4e"/><path d="M104.86301,30.9539h19.25v127.39698h-19.25z" fill="#000000"/><path d="M109.74036,75.08075h9.49529v36.68634h-9.49529z" fill="#00ff50"/><path d="M195.05467,30.9539h19.25v127.39698h-19.25z" fill="#000000"/><path d="M199.93202,75.08075h9.49529v36.68634h-9.49529z" fill="#00ff50"/><path d="M451.18487,235.60452h-32.61994v-96.52821h32.61995z" fill="#5479ff"/><path d="M478.72431,235.60452h-27.80054v-96.52821h27.80055z" fill="#ffed48"/><path d="M476.40634,302.10707v32.61994h-96.52821v-32.61994z" fill="#5479ff"/></g></g></svg>