<svg version="1.1" xmlns="http://www.w3.org/2000/svg" xmlns:xlink="http://www.w3.org/1999/xlink" width="495.72622" height="374.76012" viewBox="0,0,495.72622,374.76012"><g transform="translate(7.86313,7.38005)"><g data-paper-data="{&quot;isPaintingLayer&quot;:true}" fill-rule="nonzero" stroke-linejoin="miter" stroke-miterlimit="10" stroke-dasharray="" stroke-dashoffset="0" style="mix-blend-mode: normal"><path d="M487.86309,-7.38005v374.76012h-495.72622v-374.76012z" fill="#9aa200" stroke="#5f5f5f" stroke-width="0" stroke-linecap="butt"/><path d="M23.92373,336.36711v-312.7342h432.15255v312.7342z" fill="none" stroke="#f4ff00" stroke-width="15" stroke-linecap="butt"/><g stroke-width="30"><path d="M95.04764,179.99994c0,-80.05492 64.89726,-144.95232 144.95232,-144.95232c80.05492,0 144.95245,64.89726 144.95245,144.95232c0,80.05492 -64.8974,144.95245 -144.95245,144.95245c-80.05492,0 -144.95232,-64.8974 -144.95232,-144.95245z" fill="#f4ff00" stroke="#000000" stroke-linecap="butt"/><path d="M186.78888,199.3206h29.06265v27.83896c0,0 -0.34516,30.08225 -32.63167,30.59219c-32.99536,0.52119 -34.8751,-30.59219 -34.8751,-30.59219v-90.24716c0,0 -0.73612,-34.64283 34.36529,-34.67115c31.20509,-0.02528 30.59219,34.67115 30.59219,34.67115" fill="none" stroke="#646900" stroke-linecap="round"/><path d="M302.59344,199.3206h29.06265v27.83896c0,0 -0.3453,30.08252 -32.6318,30.59232c-32.99549,0.52105 -34.87523,-30.59232 -34.87523,-30.59232v-90.24703c0,0 -0.73612,-34.64296 34.36529,-34.67128c31.20509,-0.02515 30.59219,34.67128 30.59219,34.67128" fill="none" stroke="#646900" stroke-linecap="round"/></g></g></g></svg>