<svg version="1.1" xmlns="http://www.w3.org/2000/svg" xmlns:xlink="http://www.w3.org/1999/xlink" width="727.18975" height="393.52449" viewBox="0,0,727.18975,393.52449"><g transform="translate(242.36341,23.57239)"><g data-paper-data="{&quot;isPaintingLayer&quot;:true}" fill-rule="nonzero" stroke="none" stroke-linecap="butt" stroke-linejoin="miter" stroke-miterlimit="10" stroke-dasharray="" stroke-dashoffset="0" style="mix-blend-mode: normal"><path d="M395.63659,243.75815v-89h86v89z" fill="#aaaaaa" stroke-width="0"/><path d="M110.63659,287.75815v-299h313v299z" fill="#aaaaaa" stroke-width="0"/><path d="M318.85107,268.08299v-32.61994h96.52821v32.61994z" fill="#ff5d5d" stroke-width="0"/><path d="M125.29865,268.16749v-32.61994h96.52821v32.61995z" fill="#5479ff" stroke-width="0"/><path d="M221.8781,267.83239v-32.61994h96.52821v32.61994z" fill="#72ff4e" stroke-width="0"/><path d="M198.38659,65.45208v-34.5h131.5v34.5z" fill="#ff0000" stroke-width="0"/><path d="M190.38659,176.9521v-17h261.5v17z" fill="#ff0000" stroke-width="0"/><path d="M110.88659,308.95208v-10h317.5v10z" fill="#ff0000" stroke-width="NaN"/><path d="M126.04914,-5.7979v52.2035h-156.60231v-52.2035z" data-paper-data="{&quot;index&quot;:null}" fill="#000000" stroke-width="0"/><path d="M65.1306,31.25937v338.69273h-70.96395v-338.69273z" data-paper-data="{&quot;index&quot;:null}" fill="#000000" stroke-width="0"/><path d="M126.1306,36.27179v282.00325h-70.96395v-282.00325z" data-paper-data="{&quot;index&quot;:null}" fill="#000000" stroke-width="0"/><path d="M414.62069,235.46423h70.07079v17.3783h-70.07079z" data-paper-data="{&quot;index&quot;:null}" fill="#000000" stroke-width="0"/><path d="M381.32634,164.98317v-188.55556h103.5v188.55556z" fill="#000000" stroke-width="0"/><path d="M418.19539,177.48318h11.78571v4.99507z" fill="#000000" stroke-width="0"/><path d="M414.7447,313.85544v-78.1819h17.3783v78.1819z" data-paper-data="{&quot;index&quot;:null}" fill="#000000" stroke-width="0"/><path d="M429.57634,182.48318v-21.5h54.5v21.5z" fill="#000000" stroke-width="0"/><path d="M100.47068,-13.4358h231.72079v53.7783h-231.72079z" data-paper-data="{&quot;index&quot;:null}" fill="#000000" stroke-width="0"/><path d="M124.43659,67.00208v-28.8h108.8l-21.8,28.8z" fill="#000000" stroke-width="0"/><path d="M418.32634,178.04254v-17.77778h12.22222v17.77778z" fill="#000000" stroke-width="0"/><path d="M-242.36341,0.75815v-1h2v1z" fill="#aaaaaa" stroke-width="0"/><path d="M284.85107,154.58299v-32.61994h96.52821v32.61994z" fill="#ff5d5d" stroke-width="0"/><path d="M189.29865,154.66749v-32.61994h96.52821v32.61995z" fill="#5479ff" stroke-width="0"/></g></g></svg>