<svg version="1.1" xmlns="http://www.w3.org/2000/svg" xmlns:xlink="http://www.w3.org/1999/xlink" width="99.02821" height="35.11994" viewBox="0,0,99.02821,35.11994"><defs><radialGradient cx="240.00002" cy="180" r="48.26411" gradientUnits="userSpaceOnUse" id="color-1"><stop offset="0" stop-color="#fff280"/><stop offset="1" stop-color="#ffed4d"/></radialGradient></defs><g transform="translate(-190.4859,-162.44003)"><g data-paper-data="{&quot;isPaintingLayer&quot;:true}" fill-rule="nonzero" stroke-linecap="butt" stroke-linejoin="miter" stroke-miterlimit="10" stroke-dasharray="" stroke-dashoffset="0" style="mix-blend-mode: normal"><path d="M191.7359,196.30997v-32.61994h96.52821v32.61994z" fill="url(#color-1)" stroke="#000000" stroke-width="2.5"/><g fill="#ead82f" stroke="none" stroke-width="0"><path d="M193.06829,171.72542v-3.33992h3.33992v3.33992z"/><path d="M196.38726,168.40647v-3.33992h3.33992v3.33992z"/><path d="M193.06829,178.36332v-3.33992h3.33992v3.33992z"/><path d="M196.38726,175.04437v-3.33992h3.33992v3.33992z"/><path d="M193.06829,184.88873v-3.33992h3.33992v3.33992z"/><path d="M196.38726,181.56977v-3.33992h3.33992v3.33992z"/><path d="M193.06829,191.52663v-3.33992h3.33992v3.33992z"/><path d="M196.38726,188.20768v-3.33992h3.33992v3.33992z"/><path d="M196.38726,194.90184v-3.33992h3.33992v3.33992z"/><path d="M199.72526,171.72542v-3.33992h3.33992v3.33992z"/><path d="M203.0442,168.40647v-3.33992h3.33992v3.33992z"/><path d="M199.72526,178.36332v-3.33992h3.33992v3.33992z"/><path d="M203.0442,175.04437v-3.33992h3.33992v3.33992z"/><path d="M199.72526,184.88873v-3.33992h3.33992v3.33992z"/><path d="M203.0442,181.56977v-3.33992h3.33992v3.33992z"/><path d="M199.72526,191.52663v-3.33992h3.33992v3.33992z"/><path d="M203.0442,188.20768v-3.33992h3.33992v3.33992z"/><path d="M203.0442,194.90184v-3.33992h3.33992v3.33992z"/></g><g fill="#ead82f" stroke="none" stroke-width="0"><path d="M206.5626,171.72542v-3.33992h3.33992v3.33992z"/><path d="M209.88155,168.40647v-3.33992h3.33992v3.33992z"/><path d="M206.5626,178.36332v-3.33992h3.33992v3.33992z"/><path d="M209.88155,175.04437v-3.33992h3.33992v3.33992z"/><path d="M206.5626,184.88873v-3.33992h3.33992v3.33992z"/><path d="M209.88155,181.56977v-3.33992h3.33992v3.33992z"/><path d="M206.5626,191.52663v-3.33992h3.33992v3.33992z"/><path d="M209.88155,188.20768v-3.33992h3.33992v3.33992z"/><path d="M209.88155,194.90184v-3.33992h3.33992v3.33992z"/><path d="M213.21955,171.72542v-3.33992h3.33992v3.33992z"/><path d="M216.53851,168.40647v-3.33992h3.33992v3.33992z"/><path d="M213.21955,178.36332v-3.33992h3.33992v3.33992z"/><path d="M216.53851,175.04437v-3.33992h3.33992v3.33992z"/><path d="M213.21955,184.88873v-3.33992h3.33992v3.33992z"/><path d="M216.53851,181.56977v-3.33992h3.33992v3.33992z"/><path d="M213.21955,191.52663v-3.33992h3.33992v3.33992z"/><path d="M216.53851,188.20768v-3.33992h3.33992v3.33992z"/><path d="M216.53851,194.90184v-3.33992h3.33992v3.33992z"/></g><g fill="#ead82f" stroke="none" stroke-width="0"><path d="M219.7294,171.72542v-3.33992h3.33992v3.33992z"/><path d="M223.04835,168.40647v-3.33992h3.33992v3.33992z"/><path d="M219.7294,178.36332v-3.33992h3.33992v3.33992z"/><path d="M223.04835,175.04437v-3.33992h3.33992v3.33992z"/><path d="M219.7294,184.88873v-3.33992h3.33992v3.33992z"/><path d="M223.04835,181.56977v-3.33992h3.33992v3.33992z"/><path d="M219.7294,191.52663v-3.33992h3.33992v3.33992z"/><path d="M223.04835,188.20768v-3.33992h3.33992v3.33992z"/><path d="M223.04835,194.90184v-3.33992h3.33992v3.33992z"/><path d="M226.38634,171.72542v-3.33992h3.33992v3.33992z"/><path d="M229.70531,168.40647v-3.33992h3.33992v3.33992z"/><path d="M226.38634,178.36332v-3.33992h3.33992v3.33992z"/><path d="M229.70531,175.04437v-3.33992h3.33992v3.33992z"/><path d="M226.38634,184.88873v-3.33992h3.33992v3.33992z"/><path d="M229.70531,181.56977v-3.33992h3.33992v3.33992z"/><path d="M226.38634,191.52663v-3.33992h3.33992v3.33992z"/><path d="M229.70531,188.20768v-3.33992h3.33992v3.33992z"/><path d="M229.70531,194.90184v-3.33992h3.33992v3.33992z"/></g><g fill="#ead82f" stroke="none" stroke-width="0"><path d="M233.22369,171.72542v-3.33992h3.33992v3.33992z"/><path d="M236.54264,168.40647v-3.33992h3.33992v3.33992z"/><path d="M233.22369,178.36332v-3.33992h3.33992v3.33992z"/><path d="M236.54264,175.04437v-3.33992h3.33992v3.33992z"/><path d="M233.22369,184.88873v-3.33992h3.33992v3.33992z"/><path d="M236.54264,181.56977v-3.33992h3.33992v3.33992z"/><path d="M233.22369,191.52663v-3.33992h3.33992v3.33992z"/><path d="M236.54264,188.20768v-3.33992h3.33992v3.33992z"/><path d="M236.54264,194.90184v-3.33992h3.33992v3.33992z"/><path d="M239.88065,171.72542v-3.33992h3.33992v3.33992z"/><path d="M243.1996,168.40647v-3.33992h3.33992v3.33992z"/><path d="M239.88065,178.36332v-3.33992h3.33992v3.33992z"/><path d="M243.1996,175.04437v-3.33992h3.33992v3.33992z"/><path d="M239.88065,184.88873v-3.33992h3.33992v3.33992z"/><path d="M243.1996,181.56977v-3.33992h3.33992v3.33992z"/><path d="M239.88065,191.52663v-3.33992h3.33992v3.33992z"/><path d="M243.1996,188.20768v-3.33992h3.33992v3.33992z"/><path d="M243.1996,194.90184v-3.33992h3.33992v3.33992z"/></g><g fill="#ead82f" stroke="none" stroke-width="0"><path d="M246.76866,171.72542v-3.33992h3.33992v3.33992z"/><path d="M250.08761,168.40647v-3.33992h3.33992v3.33992z"/><path d="M246.76866,178.36332v-3.33992h3.33992v3.33992z"/><path d="M250.08761,175.04437v-3.33992h3.33992v3.33992z"/><path d="M246.76866,184.88873v-3.33992h3.33992v3.33992z"/><path d="M250.08761,181.56977v-3.33992h3.33992v3.33992z"/><path d="M246.76866,191.52663v-3.33992h3.33992v3.33992z"/><path d="M250.08761,188.20768v-3.33992h3.33992v3.33992z"/><path d="M250.08761,194.90184v-3.33992h3.33992v3.33992z"/><path d="M253.42563,171.72542v-3.33992h3.33992v3.33992z"/><path d="M256.74458,168.40647v-3.33992h3.33992v3.33992z"/><path d="M253.42563,178.36332v-3.33992h3.33992v3.33992z"/><path d="M256.74458,175.04437v-3.33992h3.33992v3.33992z"/><path d="M253.42563,184.88873v-3.33992h3.33992v3.33992z"/><path d="M256.74458,181.56977v-3.33992h3.33992v3.33992z"/><path d="M253.42563,191.52663v-3.33992h3.33992v3.33992z"/><path d="M256.74458,188.20768v-3.33992h3.33992v3.33992z"/><path d="M256.74458,194.90184v-3.33992h3.33992v3.33992z"/></g><g fill="#ead82f" stroke="none" stroke-width="0"><path d="M260.26295,171.72542v-3.33992h3.33992v3.33992z"/><path d="M263.58189,168.40647v-3.33992h3.33992v3.33992z"/><path d="M260.26295,178.36332v-3.33992h3.33992v3.33992z"/><path d="M263.58189,175.04437v-3.33992h3.33992v3.33992z"/><path d="M260.26295,184.88873v-3.33992h3.33992v3.33992z"/><path d="M263.58189,181.56977v-3.33992h3.33992v3.33992z"/><path d="M260.26295,191.52663v-3.33992h3.33992v3.33992z"/><path d="M263.58189,188.20768v-3.33992h3.33992v3.33992z"/><path d="M263.58189,194.90184v-3.33992h3.33992v3.33992z"/><path d="M266.91992,171.72542v-3.33992h3.33992v3.33992z"/><path d="M270.23886,168.40647v-3.33992h3.33992v3.33992z"/><path d="M266.91992,178.36332v-3.33992h3.33992v3.33992z"/><path d="M270.23886,175.04437v-3.33992h3.33992v3.33992z"/><path d="M266.91992,184.88873v-3.33992h3.33992v3.33992z"/><path d="M270.23886,181.56977v-3.33992h3.33992v3.33992z"/><path d="M266.91992,191.52663v-3.33992h3.33992v3.33992z"/><path d="M270.23886,188.20768v-3.33992h3.33992v3.33992z"/><path d="M270.23886,194.90184v-3.33992h3.33992v3.33992z"/></g><g fill="#ead82f" stroke="none" stroke-width="0"><path d="M273.68804,171.72542v-3.33992h3.33992v3.33992z"/><path d="M277.00699,168.40647v-3.33992h3.33992v3.33992z"/><path d="M273.68804,178.36332v-3.33992h3.33992v3.33992z"/><path d="M277.00699,175.04437v-3.33992h3.33992v3.33992z"/><path d="M273.68804,184.88873v-3.33992h3.33992v3.33992z"/><path d="M277.00699,181.56977v-3.33992h3.33992v3.33992z"/><path d="M273.68804,191.52663v-3.33992h3.33992v3.33992z"/><path d="M277.00699,188.20768v-3.33992h3.33992v3.33992z"/><path d="M277.00699,194.90184v-3.33992h3.33992v3.33992z"/><path d="M280.345,171.72542v-3.33992h3.33992v3.33992z"/><path d="M283.66396,168.40647v-3.33992h3.33992v3.33992z"/><path d="M280.345,178.36332v-3.33992h3.33992v3.33992z"/><path d="M283.66396,175.04437v-3.33992h3.33992v3.33992z"/><path d="M280.345,184.88873v-3.33992h3.33992v3.33992z"/><path d="M283.66396,181.56977v-3.33992h3.33992v3.33992z"/><path d="M280.345,191.52663v-3.33992h3.33992v3.33992z"/><path d="M283.66396,188.20768v-3.33992h3.33992v3.33992z"/><path d="M283.66396,194.90184v-3.33992h3.33992v3.33992z"/></g></g></g></svg>