<svg version="1.1" xmlns="http://www.w3.org/2000/svg" xmlns:xlink="http://www.w3.org/1999/xlink" width="516" height="455.00002" viewBox="0,0,516,455.00002"><g transform="translate(22.1284,14.70669)"><g data-paper-data="{&quot;isPaintingLayer&quot;:true}" fill-rule="nonzero" stroke="none" stroke-linecap="butt" stroke-linejoin="miter" stroke-miterlimit="10" stroke-dasharray="" stroke-dashoffset="0" style="mix-blend-mode: normal"><path d="M278.6216,2.99635v159.5h-32v-159.5z" data-paper-data="{&quot;index&quot;:null}" fill="#ff0000" stroke-width="0"/><path d="M367.6216,342.49634v-211.5h32v211.5z" fill="#ff0000" stroke-width="0"/><path d="M120.6216,337.99634v-211.5h26v211.5z" fill="#ff0000" stroke-width="0"/><path d="M116.45976,350.79333v-17h277v17z" fill="#ff0000" stroke-width="0"/><path d="M-13.93397,367.6994v-236h115v236z" fill="#000000" stroke-width="NaN"/><path d="M-22.1284,16.29331v-31h515v31z" data-paper-data="{&quot;index&quot;:null}" fill="#000000" stroke-width="0"/><path d="M64.06603,410.6526v-289h62v289z" fill="#000000" stroke-width="0"/><path d="M458.8716,183.29333v-198h34v198z" data-paper-data="{&quot;index&quot;:null}" fill="#000000" stroke-width="0"/><path d="M387.06603,360.6526v-233h23v233z" fill="#000000" stroke-width="0"/><path d="M387.56603,360.6526v-233h29v233z" fill="#000000" stroke-width="0"/><path d="M226.06603,166.65261v-164h30v164z" fill="#000000" stroke-width="0"/><path d="M404.8716,440.29333v-198h89v198z" data-paper-data="{&quot;index&quot;:null}" fill="#000000" stroke-width="0"/><path d="M212.75,291.9v-72h72v72z" fill="#949494" stroke-width="0"/><path d="M215.55,226.30002c0,-1.98822 1.61178,-3.6 3.6,-3.6c1.98822,0 3.6,1.61178 3.6,3.6c0,1.98822 -1.61178,3.6 -3.6,3.6c-1.98822,0 -3.6,-1.61178 -3.6,-3.6z" fill="#484848" stroke-width="0"/><path d="M278.35,222.7c1.98822,0 3.6,1.61178 3.6,3.6c0,1.98822 -1.61178,3.6 -3.6,3.6c-1.98822,0 -3.6,-1.61178 -3.6,-3.6c0,-1.98822 1.61178,-3.6 3.6,-3.6z" fill="#484848" stroke-width="0"/><path d="M282.35,285.9c0,1.98822 -1.61178,3.6 -3.6,3.6c-1.98822,0 -3.6,-1.61178 -3.6,-3.6c0,-1.98822 1.61178,-3.6 3.6,-3.6c1.98822,0 3.6,1.61178 3.6,3.6z" fill="#484848" stroke-width="0"/><path d="M219.55002,289.5c-1.98822,0 -3.6,-1.61178 -3.6,-3.6c0,-1.98822 1.61178,-3.6 3.6,-3.6c1.98822,0 3.6,1.61178 3.6,3.6c0,1.98822 -1.61178,3.6 -3.6,3.6z" fill="#484848" stroke-width="0"/><path d="M243.73243,250.34255c0.71795,0.73082 1.41718,1.99394 0.51945,3.7894c-1.51396,3.02792 -4.54191,1.51396 -4.54191,1.51396l-2.53452,-3.05996c-0.18701,-2.17811 -0.58593,-4.35238 -1.22525,-6.44291c0,0 -0.97277,-3.24255 2.26978,-4.21533c3.24255,-0.97277 4.21533,2.26978 4.21533,2.26978c0.59231,2.00642 1.02058,4.06792 1.29712,6.14505z" fill="#484848" stroke-width="0.5"/><path d="M258.82767,257.69597c-3.38532,0 -3.38532,-3.38532 -3.38532,-3.38532l0.0867,-2.28558c-0.56527,-2.47599 -1.26411,-4.93497 -2.21429,-7.2902c0,0 -1.25729,-3.14321 1.88592,-4.40047c3.14321,-1.25729 4.40047,1.88592 4.40047,1.88592c1.06505,2.68253 1.87028,5.47135 2.52518,8.28231l0.0867,3.80802c0,0 0,3.38532 -3.38532,3.38532z" fill="#484848" stroke-width="0.5"/><path d="M268.39019,260.46902c2.64351,2.1148 0.5287,4.75831 0.5287,4.75831l-1.46739,1.82695c-6.13497,6.81696 -16.10685,11.52683 -25.49661,8.78301c-6.32845,-1.84927 -11.15722,-7.44062 -16.07743,-11.4588c0,0 -2.62011,-2.14372 -0.47639,-4.76383c2.14372,-2.62011 4.76383,-0.47639 4.76383,-0.47639c4.08242,3.34591 8.45958,8.67921 13.71347,10.20731c6.78857,1.97447 14.20417,-1.86752 18.51266,-6.78951l1.24085,-1.55837c0,0 2.1148,-2.64351 4.75831,-0.5287z" fill="#484848" stroke-width="0.5"/></g></g></svg>