<svg version="1.1" xmlns="http://www.w3.org/2000/svg" xmlns:xlink="http://www.w3.org/1999/xlink" width="105.46667" height="190.00001" viewBox="0,0,105.46667,190.00001"><defs><linearGradient x1="340.66812" y1="-17.2382" x2="364.13478" y2="-17.2382" gradientUnits="userSpaceOnUse" id="color-1"><stop offset="0" stop-color="#ff0000"/><stop offset="1" stop-color="#c30000"/></linearGradient><linearGradient x1="340.66812" y1="3.76181" x2="364.13478" y2="3.76181" gradientUnits="userSpaceOnUse" id="color-2"><stop offset="0" stop-color="#ff0000"/><stop offset="1" stop-color="#c30000"/></linearGradient><linearGradient x1="340.66812" y1="24.7618" x2="364.13478" y2="24.7618" gradientUnits="userSpaceOnUse" id="color-3"><stop offset="0" stop-color="#ff0000"/><stop offset="1" stop-color="#c30000"/></linearGradient><linearGradient x1="340.66812" y1="45.7618" x2="364.13478" y2="45.7618" gradientUnits="userSpaceOnUse" id="color-4"><stop offset="0" stop-color="#ff0000"/><stop offset="1" stop-color="#c30000"/></linearGradient><linearGradient x1="340.66812" y1="66.7618" x2="364.13478" y2="66.7618" gradientUnits="userSpaceOnUse" id="color-5"><stop offset="0" stop-color="#ff0000"/><stop offset="1" stop-color="#c30000"/></linearGradient><linearGradient x1="340.66812" y1="87.7618" x2="364.13478" y2="87.7618" gradientUnits="userSpaceOnUse" id="color-6"><stop offset="0" stop-color="#ff0000"/><stop offset="1" stop-color="#c30000"/></linearGradient><linearGradient x1="340.66812" y1="108.7618" x2="364.13478" y2="108.7618" gradientUnits="userSpaceOnUse" id="color-7"><stop offset="0" stop-color="#ff0000"/><stop offset="1" stop-color="#c30000"/></linearGradient><linearGradient x1="340.66812" y1="129.76181" x2="364.13478" y2="129.76181" gradientUnits="userSpaceOnUse" id="color-8"><stop offset="0" stop-color="#ff0000"/><stop offset="1" stop-color="#c30000"/></linearGradient><linearGradient x1="340.66812" y1="150.76181" x2="364.13478" y2="150.76181" gradientUnits="userSpaceOnUse" id="color-9"><stop offset="0" stop-color="#ff0000"/><stop offset="1" stop-color="#c30000"/></linearGradient><linearGradient x1="282.13477" y1="-17.23819" x2="258.66811" y2="-17.23819" gradientUnits="userSpaceOnUse" id="color-10"><stop offset="0" stop-color="#ff0000"/><stop offset="1" stop-color="#c30000"/></linearGradient><linearGradient x1="282.13477" y1="3.76181" x2="258.66811" y2="3.76181" gradientUnits="userSpaceOnUse" id="color-11"><stop offset="0" stop-color="#ff0000"/><stop offset="1" stop-color="#c30000"/></linearGradient><linearGradient x1="282.13477" y1="24.76181" x2="258.66811" y2="24.76181" gradientUnits="userSpaceOnUse" id="color-12"><stop offset="0" stop-color="#ff0000"/><stop offset="1" stop-color="#c30000"/></linearGradient><linearGradient x1="282.13477" y1="45.76181" x2="258.66811" y2="45.76181" gradientUnits="userSpaceOnUse" id="color-13"><stop offset="0" stop-color="#ff0000"/><stop offset="1" stop-color="#c30000"/></linearGradient><linearGradient x1="282.13477" y1="66.76181" x2="258.66811" y2="66.76181" gradientUnits="userSpaceOnUse" id="color-14"><stop offset="0" stop-color="#ff0000"/><stop offset="1" stop-color="#c30000"/></linearGradient><linearGradient x1="282.13477" y1="87.76181" x2="258.66811" y2="87.76181" gradientUnits="userSpaceOnUse" id="color-15"><stop offset="0" stop-color="#ff0000"/><stop offset="1" stop-color="#c30000"/></linearGradient><linearGradient x1="282.13477" y1="108.76181" x2="258.66811" y2="108.76181" gradientUnits="userSpaceOnUse" id="color-16"><stop offset="0" stop-color="#ff0000"/><stop offset="1" stop-color="#c30000"/></linearGradient><linearGradient x1="282.13477" y1="129.76181" x2="258.66811" y2="129.76181" gradientUnits="userSpaceOnUse" id="color-17"><stop offset="0" stop-color="#ff0000"/><stop offset="1" stop-color="#c30000"/></linearGradient></defs><g transform="translate(-258.66811,28.2382)"><g data-paper-data="{&quot;isPaintingLayer&quot;:true}" fill-rule="nonzero" stroke="none" stroke-width="0" stroke-linecap="butt" stroke-linejoin="miter" stroke-miterlimit="10" stroke-dasharray="" stroke-dashoffset="0" style="mix-blend-mode: normal"><path d="M364.13478,-6.2382l-23.46667,-11.13333l23.46667,-10.86667z" data-paper-data="{&quot;index&quot;:null}" fill="url(#color-1)"/><path d="M364.13478,14.76181l-23.46666,-11.13334l23.46666,-10.86666z" data-paper-data="{&quot;index&quot;:null}" fill="url(#color-2)"/><path d="M364.13478,35.7618l-23.46666,-11.13334l23.46666,-10.86666z" data-paper-data="{&quot;index&quot;:null}" fill="url(#color-3)"/><path d="M364.13478,56.7618l-23.46666,-11.13334l23.46666,-10.86666z" data-paper-data="{&quot;index&quot;:null}" fill="url(#color-4)"/><path d="M364.13478,77.7618l-23.46666,-11.13334l23.46666,-10.86666z" data-paper-data="{&quot;index&quot;:null}" fill="url(#color-5)"/><path d="M364.13478,98.7618l-23.46666,-11.13334l23.46666,-10.86666z" data-paper-data="{&quot;index&quot;:null}" fill="url(#color-6)"/><path d="M364.13478,119.7618l-23.46667,-11.13333l23.46667,-10.86667z" data-paper-data="{&quot;index&quot;:null}" fill="url(#color-7)"/><path d="M364.13478,140.76181l-23.46666,-11.13334l23.46666,-10.86666z" data-paper-data="{&quot;index&quot;:null}" fill="url(#color-8)"/><path d="M364.13478,161.76181l-23.46666,-11.13334l23.46666,-10.86666z" data-paper-data="{&quot;index&quot;:null}" fill="url(#color-9)"/><path d="M258.66811,-28.23819l23.46667,10.86667l-23.46667,11.13333z" data-paper-data="{&quot;index&quot;:null}" fill="url(#color-10)"/><path d="M258.66811,-7.23818l23.46666,10.86666l-23.46666,11.13334z" data-paper-data="{&quot;index&quot;:null}" fill="url(#color-11)"/><path d="M258.66811,13.76181l23.46666,10.86666l-23.46666,11.13334z" data-paper-data="{&quot;index&quot;:null}" fill="url(#color-12)"/><path d="M258.66811,34.76181l23.46666,10.86666l-23.46666,11.13334z" data-paper-data="{&quot;index&quot;:null}" fill="url(#color-13)"/><path d="M258.66811,55.76181l23.46666,10.86666l-23.46666,11.13334z" data-paper-data="{&quot;index&quot;:null}" fill="url(#color-14)"/><path d="M258.66811,76.76181l23.46666,10.86666l-23.46666,11.13334z" data-paper-data="{&quot;index&quot;:null}" fill="url(#color-15)"/><path d="M258.66811,97.76181l23.46667,10.86667l-23.46667,11.13333z" data-paper-data="{&quot;index&quot;:null}" fill="url(#color-16)"/><path d="M258.66811,118.76181l23.46666,10.86666l-23.46666,11.13334z" data-paper-data="{&quot;index&quot;:null}" fill="url(#color-17)"/></g></g></svg>