<svg version="1.1" xmlns="http://www.w3.org/2000/svg" xmlns:xlink="http://www.w3.org/1999/xlink" width="515" height="389.58397" viewBox="0,0,515,389.58397"><g transform="translate(20.29396,-67.44729)"><g data-paper-data="{&quot;isPaintingLayer&quot;:true}" fill-rule="nonzero" stroke="none" stroke-width="0" stroke-linecap="butt" stroke-linejoin="miter" stroke-miterlimit="10" stroke-dasharray="" stroke-dashoffset="0" style="mix-blend-mode: normal"><path d="M351.99338,267.36831v32.61994h-96.52821v-32.61995z" fill="#ff5d5d"/><path d="M-6.68591,327.8725l242.95291,-242.95291l49.19359,3.05095l-291.23682,290.81434z" fill="#969696"/><path d="M228.55506,160.72584h29.5v24.67978h-29.5z" fill="#ff0000"/><path d="M148.69069,160.72584h29.5v24.67978h-29.5z" fill="#ff0000"/><path d="M-11.83129,101.21864v-33.77135h499.03733v33.77135z" data-paper-data="{&quot;index&quot;:null}" fill="#000000"/><path d="M-20.29396,309.52339v-128.66667h128.66667z" fill="#000000"/><path d="M151.53104,290.7v-24h103.8v24z" fill="#000000"/><path d="M352.70604,301.75v-126.41667h76v126.41667z" fill="#000000"/><path d="M468.70604,368v-278.66666h26v278.66667z" fill="#000000"/><path d="M402.20604,368v-90.66666h26v90.66666z" fill="#000000"/><path d="M-6.1273,190.43048v-98h159v98z" fill="#000000"/><path d="M254.3727,190.43048v-35h174v35z" fill="#000000"/><path d="M229.20604,368v-90.66666h26v90.66666z" fill="#000000"/><path d="M130.01021,457.03124l21.66667,-168.03332h12.33333l-21.66667,168.03334z" fill="#000000"/></g></g></svg>