<svg version="1.1" xmlns="http://www.w3.org/2000/svg" xmlns:xlink="http://www.w3.org/1999/xlink" width="509.5177" height="372.75" viewBox="0,0,509.5177,372.75"><g transform="translate(8.24634,6.29818)"><g data-paper-data="{&quot;isPaintingLayer&quot;:true}" fill="#000000" fill-rule="nonzero" stroke="none" stroke-width="0" stroke-linecap="butt" stroke-linejoin="miter" stroke-miterlimit="10" stroke-dasharray="" stroke-dashoffset="0" style="mix-blend-mode: normal"><path d="M353.50366,7.95182v358.5h-27.5v-358.5z" data-paper-data="{&quot;index&quot;:null}"/><path d="M238.50366,261.45178v104h-27.5v-104z" data-paper-data="{&quot;index&quot;:null}"/><path d="M234.75366,282.20178h-104v-20.5h104z" data-paper-data="{&quot;index&quot;:null}"/><path d="M235.75366,147.20181l-104,38.5v-59h104z" data-paper-data="{&quot;index&quot;:null}"/><path d="M491.75366,14.20182c0,0 -338.14265,-0.62321 -376,0c-30.37265,0.5 -26.87788,42.25 -60.75,42.25c-49.22806,0 -59,-0.5 -59,-0.5l-4.25,-62.25h500z" data-paper-data="{&quot;index&quot;:null}"/><path d="M149.30366,126.71848v155.33333h-20.7v-155.33333z" data-paper-data="{&quot;index&quot;:null}"/><path d="M-5.24634,144.22681v-17.5h135.5v17.5z"/><path d="M501.27136,-5.79794v52.2035h-165.2293v-52.2035z" data-paper-data="{&quot;index&quot;:null}"/></g></g></svg>