<svg version="1.1" xmlns="http://www.w3.org/2000/svg" xmlns:xlink="http://www.w3.org/1999/xlink" width="505.27253" height="397.16662" viewBox="0,0,505.27253,397.16662"><g transform="translate(9.63623,15.66662)"><g data-paper-data="{&quot;isPaintingLayer&quot;:true}" fill="#000000" fill-rule="nonzero" stroke="none" stroke-width="0" stroke-linecap="butt" stroke-linejoin="miter" stroke-miterlimit="10" stroke-dasharray="" stroke-dashoffset="0" style="mix-blend-mode: normal"><path d="M495.6363,-15.66662v145.89517h-132.2662v-145.89517z" data-paper-data="{&quot;index&quot;:null}"/><path d="M190.34185,296.31659v-25h97.90388v25z" data-paper-data="{&quot;index&quot;:null}"/><path d="M122.62997,-15.66662v145.89517h-132.2662v-145.89517z" data-paper-data="{&quot;index&quot;:null}"/><path d="M-9.43891,379.97822v-288h30v288z"/><path d="M459.56109,379.97822v-288h30v288z"/><path d="M18.00001,381.5v-63c0,0 64.19151,20.91598 222.76224,20c150.60408,-0.86996 221.23776,-20 221.23776,-20v63z"/><path d="M364.34185,236.81659v-25h97.90388v25z" data-paper-data="{&quot;index&quot;:null}"/><path d="M13.84184,328.81659v-25h109.90388v25z" data-paper-data="{&quot;index&quot;:null}"/><path d="M23.46417,187.97714h96.07606l-18.95078,18.95078h-58.61521z"/><path d="M41.97424,285.81606h58.61521l18.95079,18.95078h-96.07607z" data-paper-data="{&quot;index&quot;:null}"/><path d="M123.07518,328.76659v-25l67.92055,-32.45v25z" data-paper-data="{&quot;index&quot;:null}"/></g></g></svg>