<svg version="1.1" xmlns="http://www.w3.org/2000/svg" xmlns:xlink="http://www.w3.org/1999/xlink" width="336.49775" height="34.46667" viewBox="0,0,336.49775,34.46667"><defs><linearGradient x1="0.33336" y1="212.53335" x2="0.33336" y2="236.00001" gradientUnits="userSpaceOnUse" id="color-1"><stop offset="0" stop-color="#ff0000"/><stop offset="1" stop-color="#c30000"/></linearGradient><linearGradient x1="21.33337" y1="212.53335" x2="21.33337" y2="236.00001" gradientUnits="userSpaceOnUse" id="color-2"><stop offset="0" stop-color="#ff0000"/><stop offset="1" stop-color="#c30000"/></linearGradient><linearGradient x1="42.33336" y1="212.53335" x2="42.33336" y2="236.00001" gradientUnits="userSpaceOnUse" id="color-3"><stop offset="0" stop-color="#ff0000"/><stop offset="1" stop-color="#c30000"/></linearGradient><linearGradient x1="63.33336" y1="212.53335" x2="63.33336" y2="236.00001" gradientUnits="userSpaceOnUse" id="color-4"><stop offset="0" stop-color="#ff0000"/><stop offset="1" stop-color="#c30000"/></linearGradient><linearGradient x1="84.33336" y1="212.53335" x2="84.33336" y2="236.00001" gradientUnits="userSpaceOnUse" id="color-5"><stop offset="0" stop-color="#ff0000"/><stop offset="1" stop-color="#c30000"/></linearGradient><linearGradient x1="105.33336" y1="212.53335" x2="105.33336" y2="236.00001" gradientUnits="userSpaceOnUse" id="color-6"><stop offset="0" stop-color="#ff0000"/><stop offset="1" stop-color="#c30000"/></linearGradient><linearGradient x1="126.33336" y1="212.53335" x2="126.33336" y2="236.00001" gradientUnits="userSpaceOnUse" id="color-7"><stop offset="0" stop-color="#ff0000"/><stop offset="1" stop-color="#c30000"/></linearGradient><linearGradient x1="147.33337" y1="212.53335" x2="147.33337" y2="236.00001" gradientUnits="userSpaceOnUse" id="color-8"><stop offset="0" stop-color="#ff0000"/><stop offset="1" stop-color="#c30000"/></linearGradient><linearGradient x1="168.33338" y1="212.53335" x2="168.33338" y2="236.00001" gradientUnits="userSpaceOnUse" id="color-9"><stop offset="0" stop-color="#ff0000"/><stop offset="1" stop-color="#c30000"/></linearGradient><linearGradient x1="189.33338" y1="215.86668" x2="189.33338" y2="239.33334" gradientUnits="userSpaceOnUse" id="color-10"><stop offset="0" stop-color="#ff0000"/><stop offset="1" stop-color="#c30000"/></linearGradient><linearGradient x1="210.33338" y1="217.20001" x2="210.33338" y2="240.66667" gradientUnits="userSpaceOnUse" id="color-11"><stop offset="0" stop-color="#ff0000"/><stop offset="1" stop-color="#c30000"/></linearGradient><linearGradient x1="231.33336" y1="218.75557" x2="231.33336" y2="242.22223" gradientUnits="userSpaceOnUse" id="color-12"><stop offset="0" stop-color="#ff0000"/><stop offset="1" stop-color="#c30000"/></linearGradient><linearGradient x1="251.8311" y1="220.70001" x2="251.8311" y2="244.16667" gradientUnits="userSpaceOnUse" id="color-13"><stop offset="0" stop-color="#ff0000"/><stop offset="1" stop-color="#c30000"/></linearGradient><linearGradient x1="272.8311" y1="222.47779" x2="272.8311" y2="245.94445" gradientUnits="userSpaceOnUse" id="color-14"><stop offset="0" stop-color="#ff0000"/><stop offset="1" stop-color="#c30000"/></linearGradient><linearGradient x1="293.8311" y1="223.47779" x2="293.8311" y2="246.94445" gradientUnits="userSpaceOnUse" id="color-15"><stop offset="0" stop-color="#ff0000"/><stop offset="1" stop-color="#c30000"/></linearGradient><linearGradient x1="314.8311" y1="223.53335" x2="314.8311" y2="247.00001" gradientUnits="userSpaceOnUse" id="color-16"><stop offset="0" stop-color="#ff0000"/><stop offset="1" stop-color="#c30000"/></linearGradient></defs><g transform="translate(10.66664,-212.53334)"><g data-paper-data="{&quot;isPaintingLayer&quot;:true}" fill-rule="nonzero" stroke="none" stroke-width="0" stroke-linecap="butt" stroke-linejoin="miter" stroke-miterlimit="10" stroke-dasharray="" stroke-dashoffset="0" style="mix-blend-mode: normal"><path d="M-10.66664,236.00001l10.86667,-23.46667l11.13333,23.46667z" fill="url(#color-1)"/><path d="M10.33336,236.00001l10.86666,-23.46666l11.13334,23.46666z" fill="url(#color-2)"/><path d="M31.33336,236.00001l10.86666,-23.46666l11.13334,23.46666z" fill="url(#color-3)"/><path d="M52.33336,236.00001l10.86666,-23.46666l11.13334,23.46666z" fill="url(#color-4)"/><path d="M73.33335,236.00001l10.86666,-23.46666l11.13334,23.46666z" fill="url(#color-5)"/><path d="M94.33336,236.00001l10.86666,-23.46666l11.13334,23.46666z" fill="url(#color-6)"/><path d="M115.33336,236.00001l10.86667,-23.46667l11.13333,23.46667z" fill="url(#color-7)"/><path d="M136.33337,236.00001l10.86666,-23.46666l11.13334,23.46666z" fill="url(#color-8)"/><path d="M157.33337,236.00001l10.86666,-23.46666l11.13334,23.46666z" fill="url(#color-9)"/><path d="M178.33338,239.33334l10.86666,-23.46666l11.13334,23.46666z" fill="url(#color-10)"/><path d="M199.33338,240.66667l10.86666,-23.46666l11.13334,23.46666z" fill="url(#color-11)"/><path d="M220.33338,242.22223l10.86666,-23.46666l11.13334,23.46666z" fill="url(#color-12)"/><path d="M240.8311,244.16667l10.86667,-23.46667l11.13333,23.46667z" fill="url(#color-13)"/><path d="M261.8311,245.94445l10.86666,-23.46666l11.13334,23.46666z" fill="url(#color-14)"/><path d="M282.8311,246.94445l10.86666,-23.46666l11.13334,23.46666z" fill="url(#color-15)"/><path d="M303.8311,247.00001l10.86666,-23.46666l11.13334,23.46666z" fill="url(#color-16)"/></g></g></svg>