<svg version="1.1" xmlns="http://www.w3.org/2000/svg" xmlns:xlink="http://www.w3.org/1999/xlink" width="420.49777" height="98.46667" viewBox="0,0,420.49777,98.46667"><defs><linearGradient x1="82.33335" y1="243.53335" x2="82.33335" y2="267.00001" gradientUnits="userSpaceOnUse" id="color-1"><stop offset="0" stop-color="#ff0000"/><stop offset="1" stop-color="#c30000"/></linearGradient><linearGradient x1="103.33335" y1="243.53335" x2="103.33335" y2="267.00001" gradientUnits="userSpaceOnUse" id="color-2"><stop offset="0" stop-color="#ff0000"/><stop offset="1" stop-color="#c30000"/></linearGradient><linearGradient x1="124.33335" y1="243.53335" x2="124.33335" y2="267.00001" gradientUnits="userSpaceOnUse" id="color-3"><stop offset="0" stop-color="#ff0000"/><stop offset="1" stop-color="#c30000"/></linearGradient><linearGradient x1="145.33335" y1="243.53335" x2="145.33335" y2="267.00001" gradientUnits="userSpaceOnUse" id="color-4"><stop offset="0" stop-color="#ff0000"/><stop offset="1" stop-color="#c30000"/></linearGradient><linearGradient x1="166.33337" y1="243.53335" x2="166.33337" y2="267.00001" gradientUnits="userSpaceOnUse" id="color-5"><stop offset="0" stop-color="#ff0000"/><stop offset="1" stop-color="#c30000"/></linearGradient><linearGradient x1="187.33337" y1="243.53335" x2="187.33337" y2="267.00001" gradientUnits="userSpaceOnUse" id="color-6"><stop offset="0" stop-color="#ff0000"/><stop offset="1" stop-color="#c30000"/></linearGradient><linearGradient x1="208.33337" y1="243.53335" x2="208.33337" y2="267.00001" gradientUnits="userSpaceOnUse" id="color-7"><stop offset="0" stop-color="#ff0000"/><stop offset="1" stop-color="#c30000"/></linearGradient><linearGradient x1="229.33334" y1="243.53335" x2="229.33334" y2="267.00001" gradientUnits="userSpaceOnUse" id="color-8"><stop offset="0" stop-color="#ff0000"/><stop offset="1" stop-color="#c30000"/></linearGradient><linearGradient x1="249.83108" y1="243.53335" x2="249.83108" y2="267.00001" gradientUnits="userSpaceOnUse" id="color-9"><stop offset="0" stop-color="#ff0000"/><stop offset="1" stop-color="#c30000"/></linearGradient><linearGradient x1="270.8311" y1="243.53335" x2="270.8311" y2="267.00001" gradientUnits="userSpaceOnUse" id="color-10"><stop offset="0" stop-color="#ff0000"/><stop offset="1" stop-color="#c30000"/></linearGradient><linearGradient x1="375.8311" y1="318.53335" x2="375.8311" y2="342.00001" gradientUnits="userSpaceOnUse" id="color-11"><stop offset="0" stop-color="#ff0000"/><stop offset="1" stop-color="#c30000"/></linearGradient><linearGradient x1="396.83111" y1="318.53335" x2="396.83111" y2="342.00001" gradientUnits="userSpaceOnUse" id="color-12"><stop offset="0" stop-color="#ff0000"/><stop offset="1" stop-color="#c30000"/></linearGradient><linearGradient x1="417.83111" y1="318.53335" x2="417.83111" y2="342.00001" gradientUnits="userSpaceOnUse" id="color-13"><stop offset="0" stop-color="#ff0000"/><stop offset="1" stop-color="#c30000"/></linearGradient><linearGradient x1="438.83111" y1="318.53335" x2="438.83111" y2="342.00001" gradientUnits="userSpaceOnUse" id="color-14"><stop offset="0" stop-color="#ff0000"/><stop offset="1" stop-color="#c30000"/></linearGradient><linearGradient x1="459.83111" y1="318.53335" x2="459.83111" y2="342.00001" gradientUnits="userSpaceOnUse" id="color-15"><stop offset="0" stop-color="#ff0000"/><stop offset="1" stop-color="#c30000"/></linearGradient><linearGradient x1="480.83111" y1="318.53335" x2="480.83111" y2="342.00001" gradientUnits="userSpaceOnUse" id="color-16"><stop offset="0" stop-color="#ff0000"/><stop offset="1" stop-color="#c30000"/></linearGradient></defs><g transform="translate(-71.33334,-243.53333)"><g data-paper-data="{&quot;isPaintingLayer&quot;:true}" fill-rule="nonzero" stroke="none" stroke-width="0" stroke-linecap="butt" stroke-linejoin="miter" stroke-miterlimit="10" stroke-dasharray="" stroke-dashoffset="0" style="mix-blend-mode: normal"><path d="M71.33334,267.00001l10.86666,-23.46666l11.13334,23.46666z" fill="url(#color-1)"/><path d="M92.33335,267.00001l10.86666,-23.46666l11.13334,23.46666z" fill="url(#color-2)"/><path d="M113.33335,267.00001l10.86667,-23.46667l11.13333,23.46667z" fill="url(#color-3)"/><path d="M134.33335,267.00001l10.86666,-23.46666l11.13334,23.46666z" fill="url(#color-4)"/><path d="M155.33335,267.00001l10.86666,-23.46666l11.13334,23.46666z" fill="url(#color-5)"/><path d="M176.33337,267.00001l10.86666,-23.46666l11.13334,23.46666z" fill="url(#color-6)"/><path d="M197.33337,267.00001l10.86666,-23.46666l11.13334,23.46666z" fill="url(#color-7)"/><path d="M218.33337,267.00001l10.86666,-23.46666l11.13334,23.46666z" fill="url(#color-8)"/><path d="M238.83108,267.00001l10.86667,-23.46667l11.13333,23.46667z" fill="url(#color-9)"/><path d="M259.8311,267.00001l10.86666,-23.46666l11.13334,23.46666z" fill="url(#color-10)"/><path d="M364.8311,342.00001l10.86667,-23.46667l11.13333,23.46667z" fill="url(#color-11)"/><path d="M385.83111,342.00001l10.86666,-23.46666l11.13334,23.46666z" fill="url(#color-12)"/><path d="M406.83111,342.00001l10.86666,-23.46666l11.13334,23.46666z" fill="url(#color-13)"/><path d="M427.83111,342.00001l10.86666,-23.46666l11.13334,23.46666z" fill="url(#color-14)"/><path d="M448.83111,342.00001l10.86666,-23.46666l11.13334,23.46666z" fill="url(#color-15)"/><path d="M469.83111,342.00001l10.86666,-23.46666l11.13334,23.46666z" fill="url(#color-16)"/></g></g></svg>