<svg version="1.1" xmlns="http://www.w3.org/2000/svg" xmlns:xlink="http://www.w3.org/1999/xlink" width="516.49965" height="416.53338" viewBox="0,0,516.49965,416.53338"><g transform="translate(16.60207,32.74442)"><g data-paper-data="{&quot;isPaintingLayer&quot;:true}" fill-rule="nonzero" stroke-linejoin="miter" stroke-miterlimit="10" stroke-dasharray="" stroke-dashoffset="0" style="mix-blend-mode: normal"><path d="M488.69475,323.07079l-489.71925,-0.51702v-335.80875h489.71925z" fill="#aaaaaa" stroke="none" stroke-width="0" stroke-linecap="butt"/><path d="M400.60073,257.39425v-18.69143h62.03386v18.69143z" fill="#ff0000" stroke="none" stroke-width="0" stroke-linecap="butt"/><path d="M381.36752,218.92784v-19.5041h17.06608v19.5041z" fill="#ff0000" stroke="none" stroke-width="0" stroke-linecap="butt"/><path d="M356.71651,116.80221v-18.42053h32.77772v18.42053z" fill="#ff0000" stroke="none" stroke-width="0" stroke-linecap="butt"/><path d="M86.90985,212.42646v-22.213h219.96286v22.213z" fill="#ff0000" stroke="none" stroke-width="0" stroke-linecap="butt"/><path d="M-16.60207,25.81414v-58.55856h516.49965v58.55856z" data-paper-data="{&quot;index&quot;:null}" fill="#000000" stroke="none" stroke-width="0" stroke-linecap="butt"/><path d="M-12.88773,378.32224v-292.0289h53.08487v292.0289z" data-paper-data="{&quot;index&quot;:null}" fill="#000000" stroke="none" stroke-width="0" stroke-linecap="butt"/><path d="M457.18622,383.78896v-380h42v380z" fill="#000000" stroke="none" stroke-width="0" stroke-linecap="butt"/><path d="M313.01723,381.78896v-57h151.16899v57z" fill="#000000" stroke="none" stroke-width="0" stroke-linecap="butt"/><path d="M32.64793,134.28885v-17.75h161.5v17.75z" fill="#000000" stroke="none" stroke-width="0" stroke-linecap="butt"/><path d="M38.89793,154.23617l59.93684,-24.1973" fill="none" stroke="#000000" stroke-width="4" stroke-linecap="round"/><path d="M303.14793,134.28885v-17.75h90v17.75z" fill="#000000" stroke="none" stroke-width="0" stroke-linecap="butt"/><path d="M303.308,117.03875h17.75v264.6723h-17.75z" fill="#000000" stroke="none" stroke-width="0" stroke-linecap="butt"/><path d="M85.70856,229.64547v-17.75h218.35192v17.75z" fill="#000000" stroke="none" stroke-width="0" stroke-linecap="butt"/><path d="M474.3995,256.37456v17.75h-90v-17.75z" data-paper-data="{&quot;index&quot;:null}" fill="#000000" stroke="none" stroke-width="0" stroke-linecap="butt"/><path d="M379.20514,217.58404h23.10443v56.04065h-17.75v-30.1646z" data-paper-data="{&quot;index&quot;:null}" fill="#000000" stroke="none" stroke-width="0" stroke-linecap="butt"/><path d="M318.4103,331.94798v-38.27461l54.77228,38.27461z" fill="#000000" stroke="none" stroke-width="0" stroke-linecap="butt"/><path d="M35.56882,380.12123v-85.45796h273.86142v85.45796z" fill="#000000" stroke="none" stroke-width="0" stroke-linecap="butt"/><path d="M193.35444,116.74287h-19.25v-91.91036h19.25z" fill="#000000" stroke="none" stroke-width="0" stroke-linecap="butt"/><path d="M188.47708,87.78587h-9.49529v-36.68634h9.49529z" fill="#00ff50" stroke="none" stroke-width="0" stroke-linecap="butt"/><path d="M304.17943,182.79239v19.25h-127.39698v-19.25z" fill="#000000" stroke="none" stroke-width="0" stroke-linecap="butt"/><path d="M260.05258,187.66974v9.49529h-36.68634v-9.49529z" fill="#00ff50" stroke="none" stroke-width="0" stroke-linecap="butt"/></g></g></svg>