<svg version="1.1" xmlns="http://www.w3.org/2000/svg" xmlns:xlink="http://www.w3.org/1999/xlink" width="211" height="23.46667" viewBox="0,0,211,23.46667"><defs><linearGradient x1="294.8311" y1="210.53335" x2="294.8311" y2="234.00001" gradientUnits="userSpaceOnUse" id="color-1"><stop offset="0" stop-color="#ff0000"/><stop offset="1" stop-color="#c30000"/></linearGradient><linearGradient x1="315.8311" y1="210.53335" x2="315.8311" y2="234.00001" gradientUnits="userSpaceOnUse" id="color-2"><stop offset="0" stop-color="#ff0000"/><stop offset="1" stop-color="#c30000"/></linearGradient><linearGradient x1="336.83111" y1="210.53335" x2="336.83111" y2="234.00001" gradientUnits="userSpaceOnUse" id="color-3"><stop offset="0" stop-color="#ff0000"/><stop offset="1" stop-color="#c30000"/></linearGradient><linearGradient x1="357.83111" y1="210.53335" x2="357.83111" y2="234.00001" gradientUnits="userSpaceOnUse" id="color-4"><stop offset="0" stop-color="#ff0000"/><stop offset="1" stop-color="#c30000"/></linearGradient><linearGradient x1="378.8311" y1="210.53335" x2="378.8311" y2="234.00001" gradientUnits="userSpaceOnUse" id="color-5"><stop offset="0" stop-color="#ff0000"/><stop offset="1" stop-color="#c30000"/></linearGradient><linearGradient x1="399.83111" y1="210.53335" x2="399.83111" y2="234.00001" gradientUnits="userSpaceOnUse" id="color-6"><stop offset="0" stop-color="#ff0000"/><stop offset="1" stop-color="#c30000"/></linearGradient><linearGradient x1="420.83111" y1="210.53335" x2="420.83111" y2="234.00001" gradientUnits="userSpaceOnUse" id="color-7"><stop offset="0" stop-color="#ff0000"/><stop offset="1" stop-color="#c30000"/></linearGradient><linearGradient x1="441.83111" y1="210.53335" x2="441.83111" y2="234.00001" gradientUnits="userSpaceOnUse" id="color-8"><stop offset="0" stop-color="#ff0000"/><stop offset="1" stop-color="#c30000"/></linearGradient><linearGradient x1="462.83111" y1="210.53335" x2="462.83111" y2="234.00001" gradientUnits="userSpaceOnUse" id="color-9"><stop offset="0" stop-color="#ff0000"/><stop offset="1" stop-color="#c30000"/></linearGradient><linearGradient x1="483.83111" y1="210.53335" x2="483.83111" y2="234.00001" gradientUnits="userSpaceOnUse" id="color-10"><stop offset="0" stop-color="#ff0000"/><stop offset="1" stop-color="#c30000"/></linearGradient></defs><g transform="translate(-283.8311,-210.53334)"><g data-paper-data="{&quot;isPaintingLayer&quot;:true}" fill-rule="nonzero" stroke="none" stroke-width="0" stroke-linecap="butt" stroke-linejoin="miter" stroke-miterlimit="10" stroke-dasharray="" stroke-dashoffset="0" style="mix-blend-mode: normal"><path d="M283.8311,234.00001l10.86666,-23.46666l11.13334,23.46666z" fill="url(#color-1)"/><path d="M304.8311,234.00001l10.86666,-23.46666l11.13334,23.46666z" fill="url(#color-2)"/><path d="M325.8311,234.00001l10.86666,-23.46666l11.13334,23.46666z" fill="url(#color-3)"/><path d="M346.83111,234.00001l10.86666,-23.46666l11.13334,23.46666z" fill="url(#color-4)"/><path d="M367.8311,234.00001l10.86667,-23.46667l11.13333,23.46667z" fill="url(#color-5)"/><path d="M388.83111,234.00001l10.86666,-23.46666l11.13334,23.46666z" fill="url(#color-6)"/><path d="M409.83111,234.00001l10.86666,-23.46666l11.13334,23.46666z" fill="url(#color-7)"/><path d="M430.83111,234.00001l10.86666,-23.46666l11.13334,23.46666z" fill="url(#color-8)"/><path d="M451.83111,234.00001l10.86666,-23.46666l11.13334,23.46666z" fill="url(#color-9)"/><path d="M472.83111,234.00001l10.86666,-23.46666l11.13334,23.46666z" fill="url(#color-10)"/></g></g></svg>