<svg version="1.1" xmlns="http://www.w3.org/2000/svg" xmlns:xlink="http://www.w3.org/1999/xlink" width="251.97369" height="45.13508" viewBox="0,0,251.97369,45.13508"><defs><linearGradient x1="0.74383" y1="245.97386" x2="2.8554" y2="269.34532" gradientUnits="userSpaceOnUse" id="color-1"><stop offset="0" stop-color="#ff0000"/><stop offset="1" stop-color="#c30000"/></linearGradient><linearGradient x1="21.65866" y1="244.08424" x2="23.77023" y2="267.4557" gradientUnits="userSpaceOnUse" id="color-2"><stop offset="0" stop-color="#ff0000"/><stop offset="1" stop-color="#c30000"/></linearGradient><linearGradient x1="42.57347" y1="242.19462" x2="44.68504" y2="265.56608" gradientUnits="userSpaceOnUse" id="color-3"><stop offset="0" stop-color="#ff0000"/><stop offset="1" stop-color="#c30000"/></linearGradient><linearGradient x1="63.48828" y1="240.305" x2="65.59985" y2="263.67646" gradientUnits="userSpaceOnUse" id="color-4"><stop offset="0" stop-color="#ff0000"/><stop offset="1" stop-color="#c30000"/></linearGradient><linearGradient x1="84.40309" y1="238.41538" x2="86.51466" y2="261.78685" gradientUnits="userSpaceOnUse" id="color-5"><stop offset="0" stop-color="#ff0000"/><stop offset="1" stop-color="#c30000"/></linearGradient><linearGradient x1="105.3179" y1="236.52576" x2="107.42948" y2="259.89723" gradientUnits="userSpaceOnUse" id="color-6"><stop offset="0" stop-color="#ff0000"/><stop offset="1" stop-color="#c30000"/></linearGradient><linearGradient x1="126.2327" y1="234.63614" x2="128.34428" y2="258.00761" gradientUnits="userSpaceOnUse" id="color-7"><stop offset="0" stop-color="#ff0000"/><stop offset="1" stop-color="#c30000"/></linearGradient><linearGradient x1="147.14753" y1="232.74652" x2="149.2591" y2="256.11799" gradientUnits="userSpaceOnUse" id="color-8"><stop offset="0" stop-color="#ff0000"/><stop offset="1" stop-color="#c30000"/></linearGradient><linearGradient x1="168.06234" y1="230.8569" x2="170.17391" y2="254.22837" gradientUnits="userSpaceOnUse" id="color-9"><stop offset="0" stop-color="#ff0000"/><stop offset="1" stop-color="#c30000"/></linearGradient><linearGradient x1="188.97715" y1="228.96729" x2="191.08872" y2="252.33875" gradientUnits="userSpaceOnUse" id="color-10"><stop offset="0" stop-color="#ff0000"/><stop offset="1" stop-color="#c30000"/></linearGradient><linearGradient x1="209.89196" y1="227.07767" x2="212.00353" y2="250.44913" gradientUnits="userSpaceOnUse" id="color-11"><stop offset="0" stop-color="#ff0000"/><stop offset="1" stop-color="#c30000"/></linearGradient><linearGradient x1="230.80677" y1="225.18805" x2="232.91835" y2="248.55951" gradientUnits="userSpaceOnUse" id="color-12"><stop offset="0" stop-color="#ff0000"/><stop offset="1" stop-color="#c30000"/></linearGradient></defs><g transform="translate(8.09997,-225.20004)"><g data-paper-data="{&quot;isPaintingLayer&quot;:true}" fill-rule="nonzero" stroke="none" stroke-width="0" stroke-linecap="butt" stroke-linejoin="miter" stroke-miterlimit="10" stroke-dasharray="" stroke-dashoffset="0" style="mix-blend-mode: normal"><path d="M-8.09997,270.33512l8.71101,-24.34928l13.19974,22.36968z" fill="url(#color-1)"/><path d="M12.81485,268.4455l8.711,-24.34927l13.19975,22.36967z" fill="url(#color-2)"/><path d="M33.72966,266.55588l8.711,-24.34927l13.19975,22.36967z" fill="url(#color-3)"/><path d="M54.64448,264.66626l8.711,-24.34927l13.19975,22.36967z" fill="url(#color-4)"/><path d="M75.55929,262.77665l8.711,-24.34927l13.19975,22.36967z" fill="url(#color-5)"/><path d="M96.4741,260.88703l8.711,-24.34927l13.19975,22.36967z" fill="url(#color-6)"/><path d="M117.3889,258.99741l8.71101,-24.34928l13.19974,22.36968z" fill="url(#color-7)"/><path d="M138.30372,257.10779l8.711,-24.34927l13.19975,22.36967z" fill="url(#color-8)"/><path d="M159.21853,255.21817l8.711,-24.34927l13.19975,22.36967z" fill="url(#color-9)"/><path d="M180.13335,253.32855l8.711,-24.34927l13.19975,22.36967z" fill="url(#color-10)"/><path d="M201.04816,251.43893l8.711,-24.34927l13.19975,22.36967z" fill="url(#color-11)"/><path d="M221.96297,249.54931l8.711,-24.34927l13.19975,22.36967z" fill="url(#color-12)"/></g></g></svg>