<svg version="1.1" xmlns="http://www.w3.org/2000/svg" xmlns:xlink="http://www.w3.org/1999/xlink" width="60.71429" height="56.71429" viewBox="0,0,60.71429,56.71429"><g transform="translate(-209.64292,-151.6429)"><g data-paper-data="{&quot;isPaintingLayer&quot;:true}" fill-rule="nonzero" stroke-linejoin="miter" stroke-miterlimit="10" stroke-dasharray="" stroke-dashoffset="0" style="mix-blend-mode: normal"><path d="M245.02393,180.04577c0,6.04884 -1.34672,10.82308 -3.00662,10.95239c-0.54764,0.04266 -2.80362,-0.11706 -2.80362,-0.11706l-0.15217,-10.97819l0.40872,-10.88022c0,0 1.85955,-0.06266 2.54708,-0.00073c1.6597,0.1495 3.00662,4.97498 3.00662,11.02381z" data-paper-data="{&quot;index&quot;:null}" fill="#acb500" stroke="#000000" stroke-width="2" stroke-linecap="butt"/><path d="M237.98294,190.92672c-1.66051,0 -3.00662,-4.90356 -3.00662,-10.95239c0,-6.04884 1.34611,-10.95238 3.00662,-10.95238c1.66051,0 3.00662,4.90355 3.00662,10.95238c0,6.04884 -1.34611,10.95239 -3.00662,10.95239z" data-paper-data="{&quot;index&quot;:null}" fill="#f4ff00" stroke="#000000" stroke-width="2" stroke-linecap="butt"/><path d="M209.64293,208.35719v-56.71429h60.71429v56.71429z" data-paper-data="{&quot;index&quot;:null}" fill="none" stroke="none" stroke-width="0" stroke-linecap="butt"/><path d="M237.37957,181.45986h0.29343v2.10347c0,0 -0.00349,2.27299 -0.32947,2.31151c-0.33314,0.03937 -0.35212,-2.31151 -0.35212,-2.31151v-6.81894c0,0 -0.00743,-2.61756 0.34697,-2.6197c0.31506,-0.00191 0.30887,2.6197 0.30887,2.6197" data-paper-data="{&quot;index&quot;:null}" fill="none" stroke="#646900" stroke-width="2" stroke-linecap="round"/><path d="M238.54879,181.45985h0.29343v2.10347c0,0 -0.00349,2.27299 -0.32947,2.31151c-0.33314,0.03937 -0.35212,-2.31151 -0.35212,-2.31151v-6.81893c0,0 -0.00743,-2.61757 0.34697,-2.61971c0.31506,-0.0019 0.30887,2.61971 0.30887,2.61971" data-paper-data="{&quot;index&quot;:null}" fill="none" stroke="#646900" stroke-width="2" stroke-linecap="round"/></g></g></svg>