<svg version="1.1" xmlns="http://www.w3.org/2000/svg" xmlns:xlink="http://www.w3.org/1999/xlink" width="99.02821" height="35.11995" viewBox="0,0,99.02821,35.11995"><defs><radialGradient cx="240" cy="180" r="48.2641" gradientUnits="userSpaceOnUse" id="color-1"><stop offset="0" stop-color="#809bff"/><stop offset="1" stop-color="#4d73ff"/></radialGradient></defs><g transform="translate(-190.4859,-162.44004)"><g data-paper-data="{&quot;isPaintingLayer&quot;:true}" fill-rule="nonzero" stroke-linecap="butt" stroke-linejoin="miter" stroke-miterlimit="10" stroke-dasharray="" stroke-dashoffset="0" style="mix-blend-mode: normal"><path d="M191.7359,196.30998v-32.61994h96.52821v32.61995z" fill="url(#color-1)" stroke="#000000" stroke-width="2.5"/><g fill="#3360ff" stroke="none" stroke-width="0"><path d="M193.06828,171.72542v-3.33991h3.33992v3.33991z"/><path d="M196.38724,168.40647v-3.33992h3.33992v3.33992z"/><path d="M193.06828,178.36332v-3.33992h3.33992v3.33992z"/><path d="M196.38724,175.04437v-3.33991h3.33992v3.33991z"/><path d="M193.06828,184.88873v-3.33992h3.33992v3.33992z"/><path d="M196.38724,181.56978v-3.33992h3.33992v3.33992z"/><path d="M193.06828,191.52664v-3.33992h3.33992v3.33992z"/><path d="M196.38724,188.20768v-3.33991h3.33992v3.33991z"/><path d="M196.38724,194.90184v-3.33992h3.33992v3.33992z"/><path d="M199.72525,171.72542v-3.33991h3.33992v3.33991z"/><path d="M203.0442,168.40647v-3.33992h3.33991v3.33992z"/><path d="M199.72525,178.36332v-3.33992h3.33992v3.33992z"/><path d="M203.0442,175.04437v-3.33991h3.33991v3.33991z"/><path d="M199.72525,184.88873v-3.33992h3.33992v3.33992z"/><path d="M203.0442,181.56978v-3.33992h3.33991v3.33992z"/><path d="M199.72525,191.52664v-3.33992h3.33992v3.33992z"/><path d="M203.0442,188.20768v-3.33991h3.33991v3.33991z"/><path d="M203.0442,194.90184v-3.33992h3.33991v3.33992z"/></g><g fill="#3360ff" stroke="none" stroke-width="0"><path d="M206.56258,171.72542v-3.33991h3.33992v3.33991z"/><path d="M209.88154,168.40647v-3.33992h3.33991v3.33992z"/><path d="M206.56258,178.36332v-3.33992h3.33992v3.33992z"/><path d="M209.88154,175.04437v-3.33991h3.33991v3.33991z"/><path d="M206.56258,184.88873v-3.33992h3.33992v3.33992z"/><path d="M209.88154,181.56978v-3.33992h3.33991v3.33992z"/><path d="M206.56258,191.52664v-3.33992h3.33992v3.33992z"/><path d="M209.88154,188.20768v-3.33991h3.33991v3.33991z"/><path d="M209.88154,194.90184v-3.33992h3.33991v3.33992z"/><path d="M213.21954,171.72542v-3.33991h3.33991v3.33991z"/><path d="M216.53849,168.40647v-3.33992h3.33992v3.33992z"/><path d="M213.21954,178.36332v-3.33992h3.33991v3.33992z"/><path d="M216.53849,175.04437v-3.33991h3.33992v3.33991z"/><path d="M213.21954,184.88873v-3.33992h3.33991v3.33992z"/><path d="M216.53849,181.56978v-3.33992h3.33992v3.33992z"/><path d="M213.21954,191.52664v-3.33992h3.33991v3.33992z"/><path d="M216.53849,188.20768v-3.33991h3.33992v3.33991z"/><path d="M216.53849,194.90184v-3.33992h3.33992v3.33992z"/></g><g fill="#3360ff" stroke="none" stroke-width="0"><path d="M219.72938,171.72542v-3.33991h3.33992v3.33991z"/><path d="M223.04834,168.40647v-3.33992h3.33991v3.33992z"/><path d="M219.72938,178.36332v-3.33992h3.33992v3.33992z"/><path d="M223.04834,175.04437v-3.33991h3.33991v3.33991z"/><path d="M219.72938,184.88873v-3.33992h3.33992v3.33992z"/><path d="M223.04834,181.56978v-3.33992h3.33991v3.33992z"/><path d="M219.72938,191.52664v-3.33992h3.33992v3.33992z"/><path d="M223.04834,188.20768v-3.33991h3.33991v3.33991z"/><path d="M223.04834,194.90184v-3.33992h3.33991v3.33992z"/><path d="M226.38634,171.72542v-3.33991h3.33991v3.33991z"/><path d="M229.70529,168.40647v-3.33992h3.33992v3.33992z"/><path d="M226.38634,178.36332v-3.33992h3.33991v3.33992z"/><path d="M229.70529,175.04437v-3.33991h3.33992v3.33991z"/><path d="M226.38634,184.88873v-3.33992h3.33991v3.33992z"/><path d="M229.70529,181.56978v-3.33992h3.33992v3.33992z"/><path d="M226.38634,191.52664v-3.33992h3.33991v3.33992z"/><path d="M229.70529,188.20768v-3.33991h3.33992v3.33991z"/><path d="M229.70529,194.90184v-3.33992h3.33992v3.33992z"/></g><g fill="#3360ff" stroke="none" stroke-width="0"><path d="M233.22368,171.72542v-3.33991h3.33992v3.33991z"/><path d="M236.54262,168.40647v-3.33992h3.33991v3.33992z"/><path d="M233.22368,178.36332v-3.33992h3.33992v3.33992z"/><path d="M236.54262,175.04437v-3.33991h3.33991v3.33991z"/><path d="M233.22368,184.88873v-3.33992h3.33992v3.33992z"/><path d="M236.54262,181.56978v-3.33992h3.33991v3.33992z"/><path d="M233.22368,191.52664v-3.33992h3.33992v3.33992z"/><path d="M236.54262,188.20768v-3.33991h3.33991v3.33991z"/><path d="M236.54262,194.90184v-3.33992h3.33991v3.33992z"/><path d="M239.88063,171.72542v-3.33991h3.33992v3.33991z"/><path d="M243.19958,168.40647v-3.33992h3.33991v3.33992z"/><path d="M239.88063,178.36332v-3.33992h3.33992v3.33992z"/><path d="M243.19958,175.04437v-3.33991h3.33991v3.33991z"/><path d="M239.88063,184.88873v-3.33992h3.33992v3.33992z"/><path d="M243.19958,181.56978v-3.33992h3.33991v3.33992z"/><path d="M239.88063,191.52664v-3.33992h3.33992v3.33992z"/><path d="M243.19958,188.20768v-3.33991h3.33991v3.33991z"/><path d="M243.19958,194.90184v-3.33992h3.33991v3.33992z"/></g><g fill="#3360ff" stroke="none" stroke-width="0"><path d="M246.76864,171.72542v-3.33991h3.33991v3.33991z"/><path d="M250.0876,168.40647v-3.33992h3.33992v3.33992z"/><path d="M246.76864,178.36332v-3.33992h3.33991v3.33992z"/><path d="M250.0876,175.04437v-3.33991h3.33992v3.33991z"/><path d="M246.76864,184.88873v-3.33992h3.33991v3.33992z"/><path d="M250.0876,181.56978v-3.33992h3.33992v3.33992z"/><path d="M246.76864,191.52664v-3.33992h3.33991v3.33992z"/><path d="M250.0876,188.20768v-3.33991h3.33992v3.33991z"/><path d="M250.0876,194.90184v-3.33992h3.33992v3.33992z"/><path d="M253.42561,171.72542v-3.33991h3.33992v3.33991z"/><path d="M256.74457,168.40647v-3.33992h3.33991v3.33992z"/><path d="M253.42561,178.36332v-3.33992h3.33992v3.33992z"/><path d="M256.74457,175.04437v-3.33991h3.33991v3.33991z"/><path d="M253.42561,184.88873v-3.33992h3.33992v3.33992z"/><path d="M256.74457,181.56978v-3.33992h3.33991v3.33992z"/><path d="M253.42561,191.52664v-3.33992h3.33992v3.33992z"/><path d="M256.74457,188.20768v-3.33991h3.33991v3.33991z"/><path d="M256.74457,194.90184v-3.33992h3.33991v3.33992z"/></g><g fill="#3360ff" stroke="none" stroke-width="0"><path d="M260.26294,171.72542v-3.33991h3.33991v3.33991z"/><path d="M263.58189,168.40647v-3.33992h3.33992v3.33992z"/><path d="M260.26294,178.36332v-3.33992h3.33991v3.33992z"/><path d="M263.58189,175.04437v-3.33991h3.33992v3.33991z"/><path d="M260.26294,184.88873v-3.33992h3.33991v3.33992z"/><path d="M263.58189,181.56978v-3.33992h3.33992v3.33992z"/><path d="M260.26294,191.52664v-3.33992h3.33991v3.33992z"/><path d="M263.58189,188.20768v-3.33991h3.33992v3.33991z"/><path d="M263.58189,194.90184v-3.33992h3.33992v3.33992z"/><path d="M266.91991,171.72542v-3.33991h3.33991v3.33991z"/><path d="M270.23885,168.40647v-3.33992h3.33991v3.33992z"/><path d="M266.91991,178.36332v-3.33992h3.33991v3.33992z"/><path d="M270.23885,175.04437v-3.33991h3.33991v3.33991z"/><path d="M266.91991,184.88873v-3.33992h3.33991v3.33992z"/><path d="M270.23885,181.56978v-3.33992h3.33991v3.33992z"/><path d="M266.91991,191.52664v-3.33992h3.33991v3.33992z"/><path d="M270.23885,188.20768v-3.33991h3.33991v3.33991z"/><path d="M270.23885,194.90184v-3.33992h3.33991v3.33992z"/></g><g fill="#3360ff" stroke="none" stroke-width="0"><path d="M273.68802,171.72542v-3.33991h3.33992v3.33991z"/><path d="M277.00698,168.40647v-3.33992h3.33992v3.33992z"/><path d="M273.68802,178.36332v-3.33992h3.33992v3.33992z"/><path d="M277.00698,175.04437v-3.33991h3.33992v3.33991z"/><path d="M273.68802,184.88873v-3.33992h3.33992v3.33992z"/><path d="M277.00698,181.56978v-3.33992h3.33992v3.33992z"/><path d="M273.68802,191.52664v-3.33992h3.33992v3.33992z"/><path d="M277.00698,188.20768v-3.33991h3.33992v3.33991z"/><path d="M277.00698,194.90184v-3.33992h3.33992v3.33992z"/><path d="M280.34498,171.72542v-3.33991h3.33992v3.33991z"/><path d="M283.66395,168.40647v-3.33992h3.33992v3.33992z"/><path d="M280.34498,178.36332v-3.33992h3.33992v3.33992z"/><path d="M283.66395,175.04437v-3.33991h3.33992v3.33991z"/><path d="M280.34498,184.88873v-3.33992h3.33992v3.33992z"/><path d="M283.66395,181.56978v-3.33992h3.33992v3.33992z"/><path d="M280.34498,191.52664v-3.33992h3.33992v3.33992z"/><path d="M283.66395,188.20768v-3.33991h3.33992v3.33991z"/><path d="M283.66395,194.90184v-3.33992h3.33992v3.33992z"/></g></g></g></svg>