<svg version="1.1" xmlns="http://www.w3.org/2000/svg" xmlns:xlink="http://www.w3.org/1999/xlink" width="505.27253" height="417.67639" viewBox="0,0,505.27253,417.67639"><g transform="translate(9.63623,37.69817)"><g data-paper-data="{&quot;isPaintingLayer&quot;:true}" fill-rule="nonzero" stroke="none" stroke-width="0" stroke-linecap="butt" stroke-linejoin="miter" stroke-miterlimit="10" stroke-dasharray="" stroke-dashoffset="0" style="mix-blend-mode: normal"><path d="M38.61784,340.65422v-78.4874c0,0 92.47693,19.5523 194.84153,19.27761c105.2117,-0.28233 224.44643,-19.27761 224.44643,-19.27761v78.4874z" fill="#ff0000"/><path d="M108.15494,107.70899v-119.79655h263.00164v119.79656c0,0 -78.72187,28.17267 -134.25476,28.91641c-51.40696,0.68848 -128.74688,-28.91641 -128.74688,-28.91641z" fill="#969696"/><path d="M119.17073,126.2981v-150.08995h23.40853v150.08995z" fill="#ff0000"/><path d="M345.68262,126.2981v-150.08995h23.40852v150.08995z" fill="#ff0000"/><path d="M190.34185,257.76138v-25h97.90388v25z" data-paper-data="{&quot;index&quot;:null}" fill="#000000"/><path d="M495.6363,-37.69817v167.92672h-132.2662v-167.92672z" data-paper-data="{&quot;index&quot;:null}" fill="#000000"/><path d="M122.62997,-37.69817v167.92672h-132.2662v-167.92672z" data-paper-data="{&quot;index&quot;:null}" fill="#000000"/><path d="M-9.43891,379.97822v-288h56.16247v288z" fill="#000000"/><path d="M447.16834,379.97822v-288h42.39275v288z" fill="#000000"/><path d="M18.00001,367.73028v-87.7855c0,0 64.19151,20.91598 222.76224,20c150.60408,-0.86996 221.23776,-20 221.23776,-20v87.7855z" fill="#000000"/><path d="M364.34185,236.81659v-25h97.90388v25z" data-paper-data="{&quot;index&quot;:null}" fill="#000000"/><path d="M373.22204,170.94243c0,-18.06141 14.64167,-32.70308 32.70308,-32.70308c18.06141,0 32.70308,14.64167 32.70308,32.70308c0,18.06141 -14.64167,32.70308 -32.70308,32.70308c-18.06141,0 -32.70308,-14.64167 -32.70308,-32.70308z" fill="#ffa217"/><path d="M66.6445,258.29992v-85h57.5v85z" fill="#ff4747"/><path d="M47.46417,156.1438h96.07606l-18.95078,18.95078h-58.61521z" fill="#000000"/><path d="M65.97423,253.98273h58.61521l18.95079,18.95078h-96.07607z" data-paper-data="{&quot;index&quot;:null}" fill="#000000"/><path d="M46.67518,297.09471v-25h97.90388v25z" data-paper-data="{&quot;index&quot;:null}" fill="#000000"/><path d="M142.34185,296.76138v-25l49.57055,-39v25z" data-paper-data="{&quot;index&quot;:null}" fill="#000000"/></g></g></svg>