<svg version="1.1" xmlns="http://www.w3.org/2000/svg" xmlns:xlink="http://www.w3.org/1999/xlink" width="507.85566" height="376.95208" viewBox="0,0,507.85566,376.95208"><g transform="translate(23.02932,7)"><g data-paper-data="{&quot;isPaintingLayer&quot;:true}" fill="#000000" fill-rule="nonzero" stroke="none" stroke-width="0" stroke-linecap="butt" stroke-linejoin="miter" stroke-miterlimit="10" stroke-dasharray="" stroke-dashoffset="0" style="mix-blend-mode: normal"><path d="M484.82634,186.46168v181.12699h-103.5v-181.12699z" data-paper-data="{&quot;index&quot;:null}"/><path d="M-23.02932,334.17378h355.22079v35.7783h-355.22079z" data-paper-data="{&quot;index&quot;:null}"/><path d="M482.07968,114.43607v252.12546h-64.8783v-252.12546z" data-paper-data="{&quot;index&quot;:null}"/><path d="M284.14851,368.94393v-70.16667h47.5v70.16667z"/><path d="M230.64851,285.45207v-98.89524h12.5v98.89524z"/><path d="M242.06518,254.39493v-67.93333h140.33333v67.93333c0,0 -2.2798,-48.95197 -70.71789,-48.95197c-66.00644,0 -69.61545,48.95197 -69.61545,48.95197z"/><path d="M-8.52932,354.78541v-361.78541h100.66667v361.78541z"/><path d="M79.16934,135.15937v-14.33334h110.19047v14.33334z"/><path d="M125.64851,285.45207v-12.56191h117.5v12.56191z"/><path d="M125.64851,285.45207v-98.89524h12.83333v98.89524z"/><path d="M175.64851,222.45207v-101.56191h13.83333v101.56191z"/><path d="M229.39851,89.69393v-93.16667h34.75v93.16667z"/><path d="M37.97068,66.4v-72.5h226.5v72.5z"/><path d="M263.89851,111.69393v-115.16667h34.75v115.16667z"/><path d="M84.97068,125.9v-67h54v67z"/><path d="M396.32634,192.9v-122h22.5v122z"/><path d="M286.82634,14.4v-18.5h197.5v18.5z"/><path d="M289.47634,137.81v-49h9.2v49z"/><path d="M473.32634,60.21v-50h10.8v50z"/></g></g></svg>