<svg version="1.1" xmlns="http://www.w3.org/2000/svg" xmlns:xlink="http://www.w3.org/1999/xlink" width="522.62722" height="406.05569" viewBox="0,0,522.62722,406.05569"><g transform="translate(26.82991,14.44468)"><g data-paper-data="{&quot;isPaintingLayer&quot;:true}" fill="#000000" fill-rule="nonzero" stroke="none" stroke-width="0" stroke-linecap="butt" stroke-linejoin="miter" stroke-miterlimit="10" stroke-dasharray="" stroke-dashoffset="0" style="mix-blend-mode: normal"><path d="M139.67794,391.36101h-34.50785v-237.17235h34.50785z"/><path d="M7.67794,391.61101h-34.50785v-237.42235h34.50785z"/><path d="M118.71852,221.56256v10.75785h-76.92235v-10.75785z"/><path d="M41.38519,290.2292v10.25785h-46.92235v-10.25785z"/><path d="M71.46852,357.06258v34.50785h-29.67235v-34.50785z"/><path d="M215.67794,391.36101h-34.50785v-237.17235h34.50785z"/><path d="M-9.4155,34.78986v-33.77135h149.04614v33.77135z"/><path d="M215.67794,34.72767h-34.50785v-49.17235h34.50785z"/><path d="M181.25117,187.95653v-33.77135h132.54614v33.77135z"/><path d="M307.52794,338.861h-27.35785v-99.08902h27.35785z"/><path d="M362.79731,373.27767v-72.31667h13v72.31667z"/><path d="M291.75117,248.40651v-8.47135h204.04614v8.47135z"/><path d="M186.50576,34.60402v-20.12781h144.00711v20.12781z"/><path d="M416.75117,134.40651v-8.47135h71.04614v8.47135z"/></g></g></svg>