<svg version="1.1" xmlns="http://www.w3.org/2000/svg" xmlns:xlink="http://www.w3.org/1999/xlink" width="54.34945" height="53.83303" viewBox="0,0,54.34945,53.83303"><g transform="translate(-212.44298,-142.42325)"><g data-paper-data="{&quot;isPaintingLayer&quot;:true}" fill-rule="nonzero" stroke="#000000" stroke-width="2.5" stroke-linecap="butt" stroke-linejoin="miter" stroke-miterlimit="10" stroke-dasharray="" stroke-dashoffset="0" style="mix-blend-mode: normal"><path d="M214.08437,186.79342l0.6721,-8.34105c0,0 12.02576,0.34174 18.23365,3.39379c5.86574,2.88384 10.37408,9.01438 10.37408,9.01438l-5.48028,3.79138c0,0 -4.88142,-4.61154 -9.7564,-6.28358c-5.46708,-1.87513 -14.04316,-1.57492 -14.04316,-1.57492z" fill="#ffffff"/><path d="M233.44651,156.61381c6.70429,-1.75812 11.76216,-2.0144 15.41634,-4.9467c3.65418,-2.9323 7.69025,-5.3365 7.69025,-5.3365l7.56291,4.52351c0,0 -11.87557,16.94134 -14.81896,21.83653c-3.31468,5.51269 -6.23104,17.82522 -6.23104,17.82522c0,0 -4.77548,-6.13593 -9.85527,-8.45937c-7.101,-3.24792 -18.6214,-4.17307 -18.6214,-4.17307c0,0 12.15288,-19.5115 18.85717,-21.26962z" fill="#ff0000"/><path d="M255.82271,148.53311c0,-2.68403 2.17584,-4.85986 4.85986,-4.85986c2.68403,0 4.85986,2.17584 4.85986,4.85986c0,2.68403 -2.17584,4.85986 -4.85986,4.85986c-2.68403,0 -4.85986,-2.17584 -4.85986,-4.85986z" fill="#ffffff"/></g></g></svg>