<svg version="1.1" xmlns="http://www.w3.org/2000/svg" xmlns:xlink="http://www.w3.org/1999/xlink" width="182.49774" height="23.46667" viewBox="0,0,182.49774,23.46667"><defs><linearGradient x1="80.00003" y1="142.53336" x2="80.00003" y2="166.00001" gradientUnits="userSpaceOnUse" id="color-1"><stop offset="0" stop-color="#ff0000"/><stop offset="1" stop-color="#c30000"/></linearGradient><linearGradient x1="100.33337" y1="142.53336" x2="100.33337" y2="166.00001" gradientUnits="userSpaceOnUse" id="color-2"><stop offset="0" stop-color="#ff0000"/><stop offset="1" stop-color="#c30000"/></linearGradient><linearGradient x1="120.66668" y1="142.53336" x2="120.66668" y2="166.00001" gradientUnits="userSpaceOnUse" id="color-3"><stop offset="0" stop-color="#ff0000"/><stop offset="1" stop-color="#c30000"/></linearGradient><linearGradient x1="139.49775" y1="142.53336" x2="139.49775" y2="166.00001" gradientUnits="userSpaceOnUse" id="color-4"><stop offset="0" stop-color="#ff0000"/><stop offset="1" stop-color="#c30000"/></linearGradient><linearGradient x1="159.16444" y1="142.53336" x2="159.16444" y2="166.00001" gradientUnits="userSpaceOnUse" id="color-5"><stop offset="0" stop-color="#ff0000"/><stop offset="1" stop-color="#c30000"/></linearGradient><linearGradient x1="179.49777" y1="142.53336" x2="179.49777" y2="166.00001" gradientUnits="userSpaceOnUse" id="color-6"><stop offset="0" stop-color="#ff0000"/><stop offset="1" stop-color="#c30000"/></linearGradient><linearGradient x1="199.8311" y1="142.53336" x2="199.8311" y2="166.00001" gradientUnits="userSpaceOnUse" id="color-7"><stop offset="0" stop-color="#ff0000"/><stop offset="1" stop-color="#c30000"/></linearGradient><linearGradient x1="220.16444" y1="142.53336" x2="220.16444" y2="166.00001" gradientUnits="userSpaceOnUse" id="color-8"><stop offset="0" stop-color="#ff0000"/><stop offset="1" stop-color="#c30000"/></linearGradient><linearGradient x1="240.49777" y1="142.53336" x2="240.49777" y2="166.00001" gradientUnits="userSpaceOnUse" id="color-9"><stop offset="0" stop-color="#ff0000"/><stop offset="1" stop-color="#c30000"/></linearGradient></defs><g transform="translate(-69.00003,-142.53334)"><g data-paper-data="{&quot;isPaintingLayer&quot;:true}" fill-rule="nonzero" stroke="none" stroke-width="0" stroke-linecap="butt" stroke-linejoin="miter" stroke-miterlimit="10" stroke-dasharray="" stroke-dashoffset="0" style="mix-blend-mode: normal"><path d="M69.00003,166.00001l10.86666,-23.46666l11.13334,23.46666z" fill="url(#color-1)"/><path d="M89.33337,166.00001l10.86666,-23.46666l11.13334,23.46666z" fill="url(#color-2)"/><path d="M109.6667,166.00001l10.86666,-23.46666l11.13334,23.46666z" fill="url(#color-3)"/><path d="M128.49775,166.00001l10.86667,-23.46667l11.13333,23.46667z" fill="url(#color-4)"/><path d="M148.16444,166.00001l10.86666,-23.46666l11.13334,23.46666z" fill="url(#color-5)"/><path d="M168.49777,166.00001l10.86666,-23.46666l11.13334,23.46666z" fill="url(#color-6)"/><path d="M188.8311,166.00001l10.86666,-23.46666l11.13334,23.46666z" fill="url(#color-7)"/><path d="M209.16444,166.00001l10.86666,-23.46666l11.13334,23.46666z" fill="url(#color-8)"/><path d="M229.49777,166.00001l10.86666,-23.46666l11.13334,23.46666z" fill="url(#color-9)"/></g></g></svg>