<svg version="1.1" xmlns="http://www.w3.org/2000/svg" xmlns:xlink="http://www.w3.org/1999/xlink" width="64.52242" height="37.5458" viewBox="0,0,64.52242,37.5458"><g transform="translate(-189.31791,-138.77583)"><g data-paper-data="{&quot;isPaintingLayer&quot;:true}" fill-rule="nonzero" stroke-linejoin="miter" stroke-miterlimit="10" stroke-dasharray="" stroke-dashoffset="0" style="mix-blend-mode: normal"><path d="M190.81791,158.49999c0,-9.01418 7.30743,-16.32162 16.32162,-16.32162c9.01418,0 16.32164,7.30743 16.32164,16.32162c0,9.01418 -7.30744,16.32164 -16.32164,16.32164c-9.01418,0 -16.32162,-7.30744 -16.32162,-16.32164z" fill="#f4ff00" stroke="#000000" stroke-width="3" stroke-linecap="butt"/><path d="M201.14797,160.6755h3.27245v3.13466c0,0 -0.03887,3.38726 -3.67432,3.44468c-3.71528,0.05869 -3.92693,-3.50718 -3.92693,-3.50718v-10.09932c0,0 -0.08289,-3.90078 3.86953,-3.90397c3.51369,-0.00285 3.44468,3.90397 3.44468,3.90397" fill="none" stroke="#646900" stroke-width="3" stroke-linecap="round"/><path d="M214.18755,160.6755h3.27245v3.13466c0,0 -0.03888,3.38729 -3.67434,3.44469c-3.71529,0.05867 -3.92695,-3.44469 -3.92695,-3.44469v-10.16181c0,0 -0.08289,-3.90079 3.86953,-3.90398c3.51369,-0.00283 3.44468,3.90398 3.44468,3.90398" fill="none" stroke="#646900" stroke-width="3" stroke-linecap="round"/><text transform="translate(238.82644,165.56532) scale(0.58878,0.58878)" font-size="40" xml:space="preserve" fill="#000000" fill-rule="nonzero" stroke="#000000" stroke-width="5" stroke-linecap="butt" stroke-linejoin="miter" stroke-miterlimit="10" stroke-dasharray="" stroke-dashoffset="0" font-family="Sans Serif" font-weight="normal" text-anchor="start" style="mix-blend-mode: normal"><tspan x="0" dy="0">x</tspan></text></g></g></svg>