<svg version="1.1" xmlns="http://www.w3.org/2000/svg" xmlns:xlink="http://www.w3.org/1999/xlink" width="48.16667" height="48.16668" viewBox="0,0,48.16667,48.16668"><defs><radialGradient cx="240.00002" cy="180.00002" r="24.08333" gradientUnits="userSpaceOnUse" id="color-1"><stop offset="0" stop-color="#000000"/><stop offset="1" stop-color="#000000" stop-opacity="0"/></radialGradient><linearGradient x1="244.86813" y1="169.26995" x2="244.86813" y2="182.2786" gradientUnits="userSpaceOnUse" id="color-2"><stop offset="0" stop-color="#3a00ff" stop-opacity="0"/><stop offset="1" stop-color="#3a00ff"/></linearGradient><linearGradient x1="235.1319" y1="169.26995" x2="235.1319" y2="182.2786" gradientUnits="userSpaceOnUse" id="color-3"><stop offset="0" stop-color="#3a00ff" stop-opacity="0"/><stop offset="1" stop-color="#3a00ff"/></linearGradient><linearGradient x1="240.03805" y1="169.26995" x2="240.03805" y2="182.2786" gradientUnits="userSpaceOnUse" id="color-4"><stop offset="0" stop-color="#3a00ff" stop-opacity="0"/><stop offset="1" stop-color="#3a00ff"/></linearGradient></defs><g transform="translate(-215.91668,-155.91667)"><g data-paper-data="{&quot;isPaintingLayer&quot;:true}" fill-rule="nonzero" stroke-linecap="butt" stroke-linejoin="miter" stroke-miterlimit="10" stroke-dasharray="" stroke-dashoffset="0" style="mix-blend-mode: normal"><path d="M215.91669,180.00002c0,-13.30086 10.78248,-24.08334 24.08334,-24.08334c13.30086,0 24.08333,10.78248 24.08333,24.08334c0,13.30086 -10.78247,24.08334 -24.08333,24.08334c-13.30086,0 -24.08334,-10.78248 -24.08334,-24.08334z" fill="url(#color-1)" stroke="none" stroke-width="0"/><path d="M225.87042,180.00002c0,-7.80356 6.32603,-14.12959 14.12959,-14.12959c7.80356,0 14.12959,6.32603 14.12959,14.12959c0,7.80356 -6.32603,14.12959 -14.12959,14.12959c-7.80356,0 -14.12959,-6.32603 -14.12959,-14.12959z" fill="#ffffff" stroke="#000000" stroke-width="2"/><path d="M243.91732,182.2786v-13.00865h1.90161v13.00865z" fill="url(#color-2)" stroke="none" stroke-width="0"/><path d="M234.1811,182.2786v-13.00865h1.90161v13.00865z" fill="url(#color-3)" stroke="none" stroke-width="0"/><path d="M237.98431,182.2786v-13.00865h4.10747v13.00865z" fill="url(#color-4)" stroke="none" stroke-width="0"/><path d="M234.45985,182.55214h10.99767l3.55563,3.55563h-18.02626z" data-paper-data="{&quot;index&quot;:null}" fill="#ffffff" stroke="#000000" stroke-width="2"/></g></g></svg>