<svg version="1.1" xmlns="http://www.w3.org/2000/svg" xmlns:xlink="http://www.w3.org/1999/xlink" width="60.71429" height="56.71429" viewBox="0,0,60.71429,56.71429"><g transform="translate(-209.64289,-151.6429)"><g data-paper-data="{&quot;isPaintingLayer&quot;:true}" fill-rule="nonzero" stroke-linejoin="miter" stroke-miterlimit="10" stroke-dasharray="" stroke-dashoffset="0" style="mix-blend-mode: normal"><path d="M209.6429,208.35719v-56.71429h60.71429v56.71429z" fill="none" stroke="none" stroke-width="0" stroke-linecap="butt"/><path d="M248.0254,180.08215c0,10.07263 -2.05569,18.23811 -4.59152,18.23811c-1.57606,0 -6.19532,-0.14177 -6.19532,-0.14177l-0.06739,-36.49874c0,0 4.88357,0.07228 6.2627,0.16431c2.59635,0.17326 4.59152,8.16547 4.59152,18.23809z" data-paper-data="{&quot;index&quot;:null}" fill="#ff00de" stroke="#000000" stroke-width="2" stroke-linecap="butt"/><path d="M236.56614,198.32026c-2.53583,0 -4.59153,-8.16549 -4.59153,-18.23811c0,-10.07263 2.0557,-18.23809 4.59153,-18.23809c2.53583,0 4.59152,8.16547 4.59152,18.23809c0,10.07263 -2.05569,18.23811 -4.59152,18.23811z" data-paper-data="{&quot;index&quot;:null}" fill="#ff00de" stroke="#000000" stroke-width="2" stroke-linecap="butt"/><path d="M234.95407,182.40717h0.88047v3.35009c0,0 -0.01046,3.62004 -0.9886,3.6814c-0.99962,0.06272 -1.05656,-3.6814 -1.05656,-3.6814v-10.86016c0,0 -0.0223,-4.16885 1.04112,-4.17226c0.94538,-0.00304 0.92681,4.17226 0.92681,4.17226" data-paper-data="{&quot;index&quot;:null}" fill="none" stroke="#940080" stroke-width="2" stroke-linecap="round"/><path d="M238.46244,182.40718h0.88047v3.35009c0,0 -0.01046,3.62007 -0.9886,3.68142c-0.99962,0.0627 -1.05657,-3.68142 -1.05657,-3.68142v-10.86015c0,0 -0.0223,-4.16887 1.04112,-4.17227c0.94538,-0.00303 0.92681,4.17227 0.92681,4.17227" data-paper-data="{&quot;index&quot;:null}" fill="none" stroke="#940080" stroke-width="2" stroke-linecap="round"/></g></g></svg>