<svg version="1.1" xmlns="http://www.w3.org/2000/svg" xmlns:xlink="http://www.w3.org/1999/xlink" width="502.95486" height="474.69586" viewBox="0,0,502.95486,474.69586"><g transform="translate(8.24883,71.36244)"><g data-paper-data="{&quot;isPaintingLayer&quot;:true}" fill-rule="nonzero" stroke="none" stroke-width="0" stroke-linecap="butt" stroke-linejoin="miter" stroke-miterlimit="10" stroke-dasharray="" stroke-dashoffset="0" style="mix-blend-mode: normal"><path d="M263.64176,348.49266v32.61994h-96.52821v-32.61995z" fill="#ff5d5d"/><path d="M180.89365,95.98548v32.61994h-96.52821v-32.61995z" fill="#72ff4e"/><path d="M136.54677,186.03353h-32.61994v-96.52821h32.61995z" fill="#ffed48"/><path d="M70.45212,283.11005h-32.61994v-96.52821h32.61995z" fill="#ff5d5d"/><path d="M204.8027,246.33704v-29.5h248.43772v29.5z" fill="#ff0000"/><path d="M9.53693,371.12546v-24.00784h157.07721v24.00784z" fill="#000000"/><path d="M9.85117,293.70657v-53.77135h476.44614v53.77135z" fill="#000000"/><path d="M-8.24883,248.40661v-8.47135h204.04614v8.47135z" fill="#000000"/><path d="M435.79282,403.33342v-134.66666h55v134.66666z" fill="#000000"/><path d="M338.5,368.00007v-96h28v96z" fill="#000000"/><path d="M468.70603,249.50006v-261.66667h26v261.66667z" fill="#000000"/><path d="M402.20603,88.50007v-99.66666h26v99.66667z" fill="#000000"/><path d="M448.9786,261.33337v-110h28.5v110z" fill="#000000"/><path d="M182.3727,246.16672v-175.87879h26v175.87879z" fill="#000000"/><path d="M198.9424,53.96673h95.39697v26h-95.39698z" fill="#000000"/><path d="M-4.24883,134.4065v-8.47135h146.64614v8.47135z" fill="#000000"/><path d="M72.91784,134.40651v-48.13801h69.47947v48.13801z" fill="#000000"/><path d="M229.20603,62v-90.66666h26v90.66666z" fill="#000000"/><path d="M130.0102,96.67088l21.66667,-168.03332h12.33333l-21.66667,168.03334z" fill="#000000"/><path d="M31.3286,128.13338l41.8,-41.8v41.8z" fill="#000000"/><path d="M72.27405,131.15156v-43.81818h3.45455v43.81818z" fill="#000000"/><path d="M182.49009,70.70594l16.63636,-16.63636v16.63636z" fill="#000000"/><path d="M396.38978,54.67632v32.61994h-96.52821v-32.61995z" fill="#5479ff"/><path d="M37.40479,235.60452h-32.61994v-96.52821h32.61995z" fill="#5479ff"/><path d="M103.49944,235.60452h-32.61994v-96.52821h32.61995z" fill="#72ff4e"/><path d="M4.35748,235.60452h-9.89991v-96.52821h9.89991z" fill="#ffed48"/><path d="M177.85593,235.60452h-32.61994v-96.52821h32.61995z" fill="#72ff4e"/></g></g></svg>