<svg version="1.1" xmlns="http://www.w3.org/2000/svg" xmlns:xlink="http://www.w3.org/1999/xlink" width="507.864" height="497.83332" viewBox="0,0,507.864,497.83332"><g transform="translate(16.10565,26.60476)"><g data-paper-data="{&quot;isPaintingLayer&quot;:true}" fill-rule="nonzero" stroke="none" stroke-width="0" stroke-linecap="butt" stroke-linejoin="miter" stroke-miterlimit="10" stroke-dasharray="" stroke-dashoffset="0" style="mix-blend-mode: normal"><path d="M-8.1992,363.13728v-364.20908h495.7099v364.20908z" fill="#969696"/><path d="M394.54954,338.70288h-47v-18.5h47z" fill="#848484"/><path d="M368.04954,357.70288h-27v-55.5h27z" fill="#ffea00"/><path d="M394.54954,269.1658h-47v-18.5h47z" fill="#848484"/><path d="M368.04954,288.1658h-27v-55.5h27z" fill="#ffea00"/><path d="M394.54953,203.07115h-47v-18.5h47z" fill="#848484"/><path d="M368.04953,222.07115h-27v-55.5h27z" fill="#ffea00"/><path d="M254.80245,140.06783v-141.82811h23.40853v141.82811z" fill="#ff0000"/><path d="M345.68261,161.41087v-180.38333h23.40852v180.38333z" fill="#ff0000"/><path d="M491.75835,-23.1666v188.08035h-128.45774v-188.08035z" data-paper-data="{&quot;index&quot;:null}" fill="#000000"/><path d="M203.62993,127.33339l-59,343.89517h-155.2662v-343.89517z" data-paper-data="{&quot;index&quot;:null}" fill="#000000"/><path d="M-16.10565,143.39524v-170h277v170z" fill="#000000"/><path d="M482.75835,-23.16659v411.08035h-93.45774v-411.08035z" data-paper-data="{&quot;index&quot;:null}" fill="#000000"/></g></g></svg>