<svg version="1.1" xmlns="http://www.w3.org/2000/svg" xmlns:xlink="http://www.w3.org/1999/xlink" width="70" height="66" viewBox="0,0,70,66"><g transform="translate(-157.90186,3.63994)"><g data-paper-data="{&quot;isPaintingLayer&quot;:true}" fill-rule="nonzero" stroke-linejoin="miter" stroke-miterlimit="10" stroke-dasharray="" stroke-dashoffset="0" style="mix-blend-mode: normal"><path d="M173.88487,30.28756c0,-10.58614 8.58175,-19.1679 19.1679,-19.1679c10.58614,0 19.16792,8.58175 19.16792,19.1679c0,10.58614 -8.58177,19.16792 -19.16792,19.16792c-10.58614,0 -19.1679,-8.58177 -19.1679,-19.16792z" fill="#bbbbbb" stroke="#000000" stroke-width="2" stroke-linecap="butt"/><path d="M193.02589,15.33787v4.11193" fill="none" stroke="#000000" stroke-width="2" stroke-linecap="round"/><path d="M193.07967,41.12532v4.11193" fill="none" stroke="#000000" stroke-width="2" stroke-linecap="round"/><path d="M182.21501,30.31446h-4.11193" fill="none" stroke="#000000" stroke-width="2" stroke-linecap="round"/><path d="M203.89054,30.26067h4.11193" fill="none" stroke="#000000" stroke-width="2" stroke-linecap="round"/><path d="M200.28646,17.20445l-1.99609,3.59494" fill="none" stroke="#797979" stroke-width="2" stroke-linecap="round"/><path d="M187.81518,39.77574l-1.99609,3.59494" fill="none" stroke="#797979" stroke-width="2" stroke-linecap="round"/><path d="M183.56459,25.04999l-3.59492,-1.99609" fill="none" stroke="#797979" stroke-width="2" stroke-linecap="round"/><path d="M202.54095,35.52515l3.59494,1.99609" fill="none" stroke="#797979" stroke-width="2" stroke-linecap="round"/><path d="M202.56712,25.09766l3.61468,-1.96012" fill="none" stroke="#797979" stroke-width="2" stroke-linecap="round"/><path d="M179.92376,37.43759l3.61468,-1.96012" fill="none" stroke="#797979" stroke-width="2" stroke-linecap="round"/><path d="M185.90276,17.15854l1.96012,3.61468" fill="none" stroke="#797979" stroke-width="2" stroke-linecap="round"/><path d="M200.2028,43.41659l-1.96012,-3.61468" fill="none" stroke="#797979" stroke-width="2" stroke-linecap="round"/><path d="M199.67417,16.77738c0,0 1.23956,17.23461 -6.40337,13.60943c-7.6457,-3.62648 6.40337,-13.60943 6.40337,-13.60943z" fill="#000000" stroke="none" stroke-width="0" stroke-linecap="butt"/><path d="M192.88772,4.99138v5.69028" fill="none" stroke="#000000" stroke-width="2" stroke-linecap="round"/><path d="M197.38701,4.72672h-8.86625" fill="none" stroke="#000000" stroke-width="2" stroke-linecap="round"/><path d="M157.90186,62.36006v-66h70v66z" fill="none" stroke="none" stroke-width="NaN" stroke-linecap="butt"/></g></g></svg>