<svg version="1.1" xmlns="http://www.w3.org/2000/svg" xmlns:xlink="http://www.w3.org/1999/xlink" width="478.14114" height="387.75223" viewBox="0,0,478.14114,387.75223"><defs><radialGradient cx="239.51424" cy="179.01922" r="239.07057" gradientUnits="userSpaceOnUse" id="color-1"><stop offset="0" stop-color="#c4c4c4"/><stop offset="1" stop-color="#989898"/></radialGradient></defs><g transform="translate(-0.92943,26.4167)"><g data-paper-data="{&quot;isPaintingLayer&quot;:true}" fill-rule="nonzero" stroke="none" stroke-width="0" stroke-linecap="butt" stroke-linejoin="miter" stroke-miterlimit="10" stroke-dasharray="" stroke-dashoffset="0" style="mix-blend-mode: normal"><path d="M0.92943,361.33554v-362.67109h478.14114v362.67109z" fill="url(#color-1)"/><g fill="#989898"><path d="M253.63235,304.83556l-25.88235,-39.55579l25.88235,-39.44421h19.11765l-25.88235,39.17922l25.88235,39.82078z"/><path d="M282.63236,304.83556l-25.88236,-39.55579l25.88236,-39.44421h19.11764l-25.88236,39.17922l25.88236,39.82079z"/><path d="M311.13236,304.83556l-25.88236,-39.55579l25.88236,-39.44421h19.11764l-25.88236,39.17922l25.88236,39.82079z"/></g><g data-paper-data="{&quot;index&quot;:null}" fill="#989898"><path d="M250.71547,52.5833l25.88235,-39.82078l-25.88235,-39.17922h19.11765l25.88235,39.44421l-25.88235,39.55579z"/><path d="M221.71547,52.58331l25.88236,-39.82079l-25.88236,-39.17922h19.11764l25.88236,39.44421l-25.88236,39.55579z"/><path d="M193.21547,52.58331l25.88236,-39.82079l-25.88236,-39.17922h19.11764l25.88236,39.44421l-25.88236,39.55579z"/></g></g></g></svg>