<svg version="1.1" xmlns="http://www.w3.org/2000/svg" xmlns:xlink="http://www.w3.org/1999/xlink" width="226.90305" height="292.15859" viewBox="0,0,226.90305,292.15859"><defs><radialGradient cx="280.144" cy="53.104" r="49.104" gradientUnits="userSpaceOnUse" id="color-1"><stop offset="0" stop-color="#fffe00"/><stop offset="1" stop-color="#fffe00" stop-opacity="0"/></radialGradient><linearGradient x1="94.79361" y1="219.08953" x2="94.79361" y2="265.46612" gradientUnits="userSpaceOnUse" id="color-2"><stop offset="0" stop-color="#ffffff" stop-opacity="0.5"/><stop offset="1" stop-color="#d1d1d1" stop-opacity="0.5"/></linearGradient><linearGradient x1="341.2803" y1="218.60072" x2="341.2803" y2="264.97731" gradientUnits="userSpaceOnUse" id="color-3"><stop offset="0" stop-color="#ffffff" stop-opacity="0.5"/><stop offset="1" stop-color="#d1d1d1" stop-opacity="0.5"/></linearGradient><linearGradient x1="257.99194" y1="90.25927" x2="257.99194" y2="164.53011" gradientUnits="userSpaceOnUse" id="color-4"><stop offset="0" stop-color="#ffffff" stop-opacity="0.5"/><stop offset="1" stop-color="#d1d1d1" stop-opacity="0.5"/></linearGradient><linearGradient x1="238.86865" y1="25.87062" x2="238.86865" y2="92.38044" gradientUnits="userSpaceOnUse" id="color-5"><stop offset="0" stop-color="#989898"/><stop offset="1" stop-color="#dedede"/></linearGradient></defs><g transform="translate(-126.54848,-33.34143)"><g data-paper-data="{&quot;isPaintingLayer&quot;:true}" fill-rule="nonzero" stroke-linejoin="miter" stroke-miterlimit="10" stroke-dasharray="" stroke-dashoffset="0" style="mix-blend-mode: normal"><path d="M128.20821,324.00001v-288h223.74332v288z" fill="#0b99ff" stroke="#000000" stroke-width="3" stroke-linecap="butt"/><g stroke="none" stroke-linecap="butt"><path d="M255.592,53.104c0,-6.77066 2.74063,-12.90121 7.17306,-17.34282c6.44446,-0.07866 28.20519,0.71745 35.44185,0.71338c4.02867,4.37371 6.48909,10.21424 6.48909,16.62944c0,13.5597 -10.9923,24.552 -24.552,24.552c-13.5597,0 -24.552,-10.9923 -24.552,-24.552z" fill="#fffe00" stroke-width="NaN"/><path d="M231.03999,53.104c0,-6.16209 1.13505,-12.05908 3.20748,-17.49329c9.44835,-0.08178 83.78152,0.34526 91.81477,0.05709c2.05863,5.41841 3.18575,11.29568 3.18575,17.4362c0,27.11939 -21.98461,49.104 -49.104,49.104c-27.11939,0 -49.104,-21.98461 -49.104,-49.104z" fill="url(#color-1)" stroke-width="NaN"/></g><path d="M128.31843,220.47777c2.73205,-0.81513 5.30827,-1.37959 7.22109,-1.38765c20.13745,-0.08487 30.008,8.97007 30.008,22.27867c0,11.7616 -16.21675,21.55512 -37.66589,23.673c0.17882,-6.8881 0.20439,-26.23949 0.4368,-44.56402z" fill="url(#color-2)" stroke="none" stroke-width="0" stroke-linecap="butt"/><path d="M351.62046,264.78863c-10.97386,0.09957 -22.86218,0.18868 -34.71807,0.18868c-25.61276,0 -46.376,-10.78874 -46.376,-24.09733c0,-13.30859 9.87054,-22.36354 30.008,-22.27867c6.9765,0.02941 22.77793,7.46013 22.77793,7.46013c0,0 19.69018,-5.20521 28.32562,-6.13778c0.32251,15.89318 0.71595,33.74943 -0.01748,44.86497z" data-paper-data="{&quot;index&quot;:null}" fill="url(#color-3)" stroke="none" stroke-width="0" stroke-linecap="butt"/><path d="M186.4506,163.78124c-48.08278,-0.11396 -63.39849,-54.5039 -17.78832,-57.2419c18.17563,-0.56388 27.56641,15.5965 27.56641,15.5965c0,0 13.56319,-18.35885 30.97457,-18.88016c10.46255,-0.31325 33.89921,11.72734 33.89921,11.72734c0,0 22.38842,-24.06011 38.42574,-24.10854c15.69194,-0.04723 28.55159,23.0766 28.55159,23.0766c0,0 8.12706,-18.79306 23.7358,-22.90368c-0.10258,4.68212 0.38794,51.32592 0.38678,61.77433c-13.8352,7.23149 -32.99731,11.70837 -54.17176,11.70837c-42.1855,0 -84.62038,-0.68496 -111.58,-0.74886z" fill="url(#color-4)" stroke="none" stroke-width="0" stroke-linecap="butt"/><path d="M129.10128,231.55067l205.6871,55.57585l0.84939,1.31813l-206.85896,-0.00001z" fill="#000000" stroke="none" stroke-width="0" stroke-linecap="butt"/><path d="M187.12868,92.38044v-55.84315h103.47994v55.84316z" fill="url(#color-5)" stroke="none" stroke-width="0" stroke-linecap="butt"/><path d="M290.29479,92.18441h-103.35626" fill="none" stroke="#999999" stroke-width="4" stroke-linecap="round"/><path d="M278.46245,96.76052v-60.67287h23.976v60.67288z" fill="#000000" stroke="none" stroke-width="0" stroke-linecap="butt"/><g stroke-width="2"><path d="M251.27738,63.0458c0,6.04884 -3.88194,10.82308 -8.66666,10.95239c-1.57859,0.04266 -4.16951,-0.11706 -4.16951,-0.11706l4.50284,-10.7639l-3.76333,-11.09451c0,0 1.44818,-0.06266 3.43001,-0.00073c4.78413,0.1495 8.66666,4.97498 8.66666,11.02381z" data-paper-data="{&quot;index&quot;:null}" fill="#acb500" stroke="#000000" stroke-linecap="butt"/><path d="M238.325,73.99819c-4.78647,0 -8.66667,-4.90356 -8.66667,-10.95239c0,-6.04884 3.8802,-10.95238 8.66667,-10.95238c4.78648,0 8.66667,4.90355 8.66667,10.95238c0,6.04884 -3.8802,10.95239 -8.66667,10.95239z" data-paper-data="{&quot;index&quot;:null}" fill="#f4ff00" stroke="#000000" stroke-linecap="butt"/><path d="M235.49017,64.4599h1.53534v2.10347c0,0 -0.01824,2.27299 -1.72389,2.31151c-1.74311,0.03937 -1.84241,-2.31151 -1.84241,-2.31151v-6.81894c0,0 -0.03889,-2.61756 1.81547,-2.6197c1.64853,-0.00191 1.61615,2.6197 1.61615,2.6197" data-paper-data="{&quot;index&quot;:null}" fill="none" stroke="#646900" stroke-linecap="round"/><path d="M241.60794,64.45989h1.53534v2.10347c0,0 -0.01824,2.27299 -1.72389,2.31151c-1.74311,0.03937 -1.84241,-2.31151 -1.84241,-2.31151v-6.81893c0,0 -0.03889,-2.61757 1.81547,-2.61971c1.64853,-0.0019 1.61615,2.61971 1.61615,2.61971" data-paper-data="{&quot;index&quot;:null}" fill="none" stroke="#646900" stroke-linecap="round"/></g><path d="M178.19918,96.76052v-60.67287h23.976v60.67288z" fill="#000000" stroke="none" stroke-width="0" stroke-linecap="butt"/><path d="M129.13572,306.72565v-19.52954h205.70574l16.95854,4.6716l-0.06367,14.85794z" fill="#000000" stroke="none" stroke-width="0" stroke-linecap="butt"/><path d="M128.77881,323.54026v-22.39447h222.47275v22.39448z" fill="#000000" stroke="none" stroke-width="0" stroke-linecap="butt"/><g stroke-width="2"><path d="M250.80952,194.04578c0,6.04884 -3.88194,10.82308 -8.66666,10.95239c-1.57859,0.04266 -4.16951,-0.11706 -4.16951,-0.11706l4.50284,-10.7639l-3.76333,-11.09451c0,0 1.44818,-0.06266 3.43001,-0.00073c4.78413,0.1495 8.66666,4.97498 8.66666,11.02381z" data-paper-data="{&quot;index&quot;:null}" fill="#acb500" stroke="#000000" stroke-linecap="butt"/><path d="M237.85715,204.99817c-4.78647,0 -8.66667,-4.90356 -8.66667,-10.95239c0,-6.04884 3.8802,-10.95238 8.66667,-10.95238c4.78648,0 8.66667,4.90355 8.66667,10.95238c0,6.04884 -3.8802,10.95239 -8.66667,10.95239z" data-paper-data="{&quot;index&quot;:null}" fill="#f4ff00" stroke="#000000" stroke-linecap="butt"/><path d="M235.02231,195.45988h1.53534v2.10347c0,0 -0.01824,2.27299 -1.72389,2.31151c-1.74311,0.03937 -1.84241,-2.31151 -1.84241,-2.31151v-6.81894c0,0 -0.03889,-2.61756 1.81547,-2.6197c1.64853,-0.00191 1.61615,2.6197 1.61615,2.6197" data-paper-data="{&quot;index&quot;:null}" fill="none" stroke="#646900" stroke-linecap="round"/><path d="M241.14009,195.45987h1.53534v2.10347c0,0 -0.01824,2.27299 -1.72389,2.31151c-1.74311,0.03937 -1.84241,-2.31151 -1.84241,-2.31151v-6.81893c0,0 -0.03889,-2.61757 1.81547,-2.61971c1.64853,-0.0019 1.61615,2.61971 1.61615,2.61971" data-paper-data="{&quot;index&quot;:null}" fill="none" stroke="#646900" stroke-linecap="round"/></g><g stroke="#000000" stroke-width="2.5"><path d="M179.46576,96.95864h21.61905v93.55829h-21.61905z" fill="#545454" stroke-linecap="butt"/><path d="M179.67237,129.14594l21.19845,-15.10026" fill="none" stroke-linecap="round"/><path d="M189.11004,107.22152l5.22701,4.64624l-4.35585,10.01845" fill="none" stroke-linecap="round"/><path d="M186.78692,123.91893l6.30254,16.70072l-11.72891,4.83528l18.78431,17.08583l-9.58286,5.37222l-2.17792,-7.11455" fill="none" stroke-linecap="round"/><path d="M193.75627,140.32594l4.64624,-9.29247l2.49738,4.5373" fill="none" stroke-linecap="round"/><path d="M179.67237,171.10726l11.18001,5.08182l-3.77507,13.64832" fill="none" stroke-linecap="round"/><path d="M200.14485,175.7535l-6.53377,9.29247l-2.9039,-8.27611" fill="none" stroke-linecap="round"/><path d="M193.90147,96.91268l-1.16156,7.84053" fill="none" stroke-linecap="round"/></g><g stroke="#000000" stroke-width="2.5"><path d="M279.79909,96.95864h21.61905v93.55829h-21.61905z" fill="#545454" stroke-linecap="butt"/><path d="M280.0057,129.14594l21.19845,-15.10026" fill="none" stroke-linecap="round"/><path d="M289.44337,107.22152l5.22701,4.64624l-4.35584,10.01845" fill="none" stroke-linecap="round"/><path d="M287.12025,123.91893l6.30253,16.70072l-11.72891,4.83528l18.78431,17.08583l-9.58286,5.37222l-2.17793,-7.11455" fill="none" stroke-linecap="round"/><path d="M294.0896,140.32594l4.64624,-9.29247l2.49738,4.5373" fill="none" stroke-linecap="round"/><path d="M280.0057,171.10726l11.18001,5.08182l-3.77507,13.64832" fill="none" stroke-linecap="round"/><path d="M300.47818,175.7535l-6.53377,9.29247l-2.9039,-8.27611" fill="none" stroke-linecap="round"/><path d="M294.2348,96.91268l-1.16156,7.84053" fill="none" stroke-linecap="round"/></g><g stroke-width="2"><path d="M250.80952,151.04579c0,6.04884 -3.88194,10.82308 -8.66666,10.95239c-1.57859,0.04266 -4.16951,-0.11706 -4.16951,-0.11706l4.50284,-10.7639l-3.76333,-11.09451c0,0 1.44818,-0.06266 3.43001,-0.00073c4.78413,0.1495 8.66666,4.97498 8.66666,11.02381z" data-paper-data="{&quot;index&quot;:null}" fill="#acb500" stroke="#000000" stroke-linecap="butt"/><path d="M237.85715,161.99818c-4.78647,0 -8.66667,-4.90356 -8.66667,-10.95239c0,-6.04884 3.8802,-10.95238 8.66667,-10.95238c4.78648,0 8.66667,4.90355 8.66667,10.95238c0,6.04884 -3.8802,10.95239 -8.66667,10.95239z" data-paper-data="{&quot;index&quot;:null}" fill="#f4ff00" stroke="#000000" stroke-linecap="butt"/><path d="M235.02231,152.45989h1.53534v2.10347c0,0 -0.01824,2.27299 -1.72389,2.31151c-1.74311,0.03937 -1.84241,-2.31151 -1.84241,-2.31151v-6.81894c0,0 -0.03889,-2.61756 1.81547,-2.6197c1.64853,-0.00191 1.61615,2.6197 1.61615,2.6197" data-paper-data="{&quot;index&quot;:null}" fill="none" stroke="#646900" stroke-linecap="round"/><path d="M241.14009,152.45988h1.53534v2.10347c0,0 -0.01824,2.27299 -1.72389,2.31151c-1.74311,0.03937 -1.84241,-2.31151 -1.84241,-2.31151v-6.81893c0,0 -0.03889,-2.61757 1.81547,-2.61971c1.64853,-0.0019 1.61615,2.61971 1.61615,2.61971" data-paper-data="{&quot;index&quot;:null}" fill="none" stroke="#646900" stroke-linecap="round"/></g><g stroke-width="2"><path d="M251.27738,108.04579c0,6.04884 -3.88194,10.82308 -8.66666,10.95239c-1.57859,0.04266 -4.16951,-0.11706 -4.16951,-0.11706l4.50284,-10.7639l-3.76333,-11.09451c0,0 1.44818,-0.06266 3.43001,-0.00073c4.78413,0.1495 8.66666,4.97498 8.66666,11.02381z" data-paper-data="{&quot;index&quot;:null}" fill="#acb500" stroke="#000000" stroke-linecap="butt"/><path d="M238.325,118.99818c-4.78647,0 -8.66667,-4.90356 -8.66667,-10.95239c0,-6.04884 3.8802,-10.95238 8.66667,-10.95238c4.78648,0 8.66667,4.90355 8.66667,10.95238c0,6.04884 -3.8802,10.95239 -8.66667,10.95239z" data-paper-data="{&quot;index&quot;:null}" fill="#f4ff00" stroke="#000000" stroke-linecap="butt"/><path d="M235.49017,109.45989h1.53534v2.10347c0,0 -0.01824,2.27299 -1.72389,2.31151c-1.74311,0.03937 -1.84241,-2.31151 -1.84241,-2.31151v-6.81894c0,0 -0.03889,-2.61756 1.81547,-2.6197c1.64853,-0.00191 1.61615,2.6197 1.61615,2.6197" data-paper-data="{&quot;index&quot;:null}" fill="none" stroke="#646900" stroke-linecap="round"/><path d="M241.60794,109.45988h1.53534v2.10347c0,0 -0.01824,2.27299 -1.72389,2.31151c-1.74311,0.03937 -1.84241,-2.31151 -1.84241,-2.31151v-6.81893c0,0 -0.03889,-2.61757 1.81547,-2.61971c1.64853,-0.0019 1.61615,2.61971 1.61615,2.61971" data-paper-data="{&quot;index&quot;:null}" fill="none" stroke="#646900" stroke-linecap="round"/></g><path d="M128.04848,80.29053v-44.20288h223.90305v44.2029z" fill-opacity="0.6996" fill="#ffffff" stroke="#000000" stroke-width="3" stroke-linecap="butt"/><text transform="translate(212.79654,68.5062) scale(0.69086,0.69086)" font-size="40" xml:space="preserve" fill="#000000" fill-rule="nonzero" stroke="none" stroke-width="1" stroke-linecap="butt" stroke-linejoin="miter" stroke-miterlimit="10" stroke-dasharray="" stroke-dashoffset="0" font-family="Pixel" font-weight="normal" text-anchor="start" style="mix-blend-mode: normal"><tspan x="0" dy="0">Sky</tspan></text><path d="M128.20821,324.00001v-288h223.74332v288z" fill="none" stroke="#000000" stroke-width="3" stroke-linecap="butt"/><g stroke-width="2"><path d="M286.80952,250.54579c0,6.04884 -3.88194,10.82308 -8.66666,10.95239c-1.57859,0.04266 -4.16951,-0.11706 -4.16951,-0.11706l4.50284,-10.7639l-3.76333,-11.09451c0,0 1.44818,-0.06266 3.43001,-0.00073c4.78413,0.1495 8.66666,4.97498 8.66666,11.02381z" data-paper-data="{&quot;index&quot;:null}" fill="#acb500" stroke="#000000" stroke-linecap="butt"/><path d="M273.85715,261.49818c-4.78647,0 -8.66667,-4.90356 -8.66667,-10.95239c0,-6.04884 3.8802,-10.95238 8.66667,-10.95238c4.78648,0 8.66667,4.90355 8.66667,10.95238c0,6.04884 -3.8802,10.95239 -8.66667,10.95239z" data-paper-data="{&quot;index&quot;:null}" fill="#f4ff00" stroke="#000000" stroke-linecap="butt"/><path d="M271.02231,251.95989h1.53534v2.10347c0,0 -0.01824,2.27299 -1.72389,2.31151c-1.74311,0.03937 -1.84241,-2.31151 -1.84241,-2.31151v-6.81894c0,0 -0.03889,-2.61756 1.81547,-2.6197c1.64853,-0.00191 1.61615,2.6197 1.61615,2.6197" data-paper-data="{&quot;index&quot;:null}" fill="none" stroke="#646900" stroke-linecap="round"/><path d="M277.14009,251.95988h1.53534v2.10347c0,0 -0.01824,2.27299 -1.72389,2.31151c-1.74311,0.03937 -1.84241,-2.31151 -1.84241,-2.31151v-6.81893c0,0 -0.03889,-2.61757 1.81547,-2.61971c1.64853,-0.0019 1.61615,2.61971 1.61615,2.61971" data-paper-data="{&quot;index&quot;:null}" fill="none" stroke="#646900" stroke-linecap="round"/></g><g stroke-width="2"><path d="M329.80952,260.54579c0,6.04884 -3.88194,10.82308 -8.66666,10.95239c-1.57859,0.04266 -4.16951,-0.11706 -4.16951,-0.11706l4.50284,-10.7639l-3.76333,-11.09451c0,0 1.44818,-0.06266 3.43001,-0.00073c4.78413,0.1495 8.66666,4.97498 8.66666,11.02381z" data-paper-data="{&quot;index&quot;:null}" fill="#acb500" stroke="#000000" stroke-linecap="butt"/><path d="M316.85715,271.49818c-4.78647,0 -8.66667,-4.90356 -8.66667,-10.95239c0,-6.04884 3.8802,-10.95238 8.66667,-10.95238c4.78648,0 8.66667,4.90355 8.66667,10.95238c0,6.04884 -3.8802,10.95239 -8.66667,10.95239z" data-paper-data="{&quot;index&quot;:null}" fill="#f4ff00" stroke="#000000" stroke-linecap="butt"/><path d="M314.02231,261.95989h1.53534v2.10347c0,0 -0.01824,2.27299 -1.72389,2.31151c-1.74311,0.03937 -1.84241,-2.31151 -1.84241,-2.31151v-6.81894c0,0 -0.03889,-2.61756 1.81547,-2.6197c1.64853,-0.00191 1.61615,2.6197 1.61615,2.6197" data-paper-data="{&quot;index&quot;:null}" fill="none" stroke="#646900" stroke-linecap="round"/><path d="M320.14009,261.95988h1.53534v2.10347c0,0 -0.01824,2.27299 -1.72389,2.31151c-1.74311,0.03937 -1.84241,-2.31151 -1.84241,-2.31151v-6.81893c0,0 -0.03889,-2.61757 1.81547,-2.61971c1.64853,-0.0019 1.61615,2.61971 1.61615,2.61971" data-paper-data="{&quot;index&quot;:null}" fill="none" stroke="#646900" stroke-linecap="round"/></g><path d="M218.06036,256.23965v-27.66128h27.66128v27.66128z" fill="#6866ff" stroke="#000000" stroke-width="3" stroke-linecap="butt"/></g></g></svg>